<svg xmlns="http://www.w3.org/2000/svg" xmlns:xlink="http://www.w3.org/1999/xlink" width="1320" height="506.835" viewBox="0 0 1320 506.835">
  <defs>
    <linearGradient id="linear-gradient" x1="0.5" x2="0.5" y2="1" gradientUnits="objectBoundingBox">
      <stop offset="0" stop-color="#ced371"/>
      <stop offset="1" stop-color="#676a39" stop-opacity="0"/>
    </linearGradient>
    <clipPath id="clip-path">
      <path id="Rectangle_652" data-name="Rectangle 652" d="M1299.213,0H20.787C9.307,0,0,8.4,0,18.772V488.063c0,10.367,9.307,18.772,20.787,18.772H1299.213c11.48,0,20.787-8.4,20.787-18.772V18.772C1320,8.4,1310.693,0,1299.213,0Z" transform="translate(140.333 70)" fill="url(#linear-gradient)"/>
    </clipPath>
  </defs>
  <g id="fondo-banner-principal" transform="translate(-140.333 -70)" opacity="0.55">
    <path id="Rectangle_652-2" data-name="Rectangle 652" d="M1299.213,0H20.787C9.307,0,0,8.4,0,18.772V488.063c0,10.367,9.307,18.772,20.787,18.772H1299.213c11.48,0,20.787-8.4,20.787-18.772V18.772C1320,8.4,1310.693,0,1299.213,0Z" transform="translate(140.333 70)" fill="url(#linear-gradient)"/>
  </g>
</svg>
