<svg xmlns="http://www.w3.org/2000/svg" xmlns:xlink="http://www.w3.org/1999/xlink" width="505" height="402.762" viewBox="0 0 505 402.762">
  <defs>
    <clipPath id="clip-path">
      <rect id="Rectángulo_51414" data-name="Rectángulo 51414" width="505" height="402.762" transform="translate(-43.483)" fill="none"/>
    </clipPath>
    <clipPath id="clip-path-2">
      <rect id="Rectángulo_51392" data-name="Rectángulo 51392" width="505" height="402.762" fill="none"/>
    </clipPath>
    <clipPath id="clip-path-3">
      <rect id="Rectángulo_51393" data-name="Rectángulo 51393" width="420" height="402.762" fill="none"/>
    </clipPath>
    <clipPath id="clip-path-4">
      <rect id="Rectángulo_51395" data-name="Rectángulo 51395" width="420" height="402.762" transform="translate(-30)" fill="none"/>
    </clipPath>
    <clipPath id="clip-path-5">
      <rect id="Rectángulo_51394" data-name="Rectángulo 51394" width="43.844" height="94.968" fill="none"/>
    </clipPath>
    <clipPath id="clip-path-8">
      <rect id="Rectángulo_51400" data-name="Rectángulo 51400" width="55.128" height="51.488" fill="none"/>
    </clipPath>
    <clipPath id="clip-path-9">
      <rect id="Rectángulo_51401" data-name="Rectángulo 51401" width="205.761" height="275.572" fill="none"/>
    </clipPath>
    <clipPath id="clip-path-10">
      <rect id="Rectángulo_51402" data-name="Rectángulo 51402" width="205.759" height="275.196" fill="none"/>
    </clipPath>
    <clipPath id="clip-path-13">
      <rect id="Rectángulo_51407" data-name="Rectángulo 51407" width="26.908" height="14.593" fill="none"/>
    </clipPath>
    <clipPath id="clip-path-14">
      <rect id="Rectángulo_51408" data-name="Rectángulo 51408" width="24.555" height="10.578" fill="none"/>
    </clipPath>
    <clipPath id="clip-path-15">
      <rect id="Rectángulo_51409" data-name="Rectángulo 51409" width="7.034" height="25.621" fill="none"/>
    </clipPath>
    <clipPath id="clip-path-16">
      <rect id="Rectángulo_51410" data-name="Rectángulo 51410" width="40.287" height="6.405" fill="none"/>
    </clipPath>
    <clipPath id="clip-path-17">
      <rect id="Rectángulo_51411" data-name="Rectángulo 51411" width="4.663" height="4.743" fill="none"/>
    </clipPath>
    <clipPath id="clip-path-18">
      <rect id="Rectángulo_51412" data-name="Rectángulo 51412" width="3.422" height="14.806" fill="none"/>
    </clipPath>
  </defs>
  <g id="Grupo_165423" data-name="Grupo 165423" transform="translate(43.483)">
    <g id="Enmascarar_grupo_165422" data-name="Enmascarar grupo 165422" clip-path="url(#clip-path)">
      <g id="Grupo_165378" data-name="Grupo 165378">
        <g id="Grupo_165377" data-name="Grupo 165377" transform="translate(-43.483)" clip-path="url(#clip-path-2)">
          <path id="Trazado_236877" data-name="Trazado 236877" d="M253.13,415.727c-19.711-7.762-27.576-26.211-30.355-43.4-.464-2.869-1.453-5.823-.331-8.556a7.247,7.247,0,0,1,7.9-4.208c2.751.639,4.362,2.947,6.2,4.785a20.936,20.936,0,0,0,9.344,5.258c2.375.635,5.195.831,7.151-.461,2.682-1.774,2.339-5.222,1.741-8.057q-1.674-7.923-3.345-15.846c-.6-2.834-1.2-5.729-.685-8.571a9.028,9.028,0,0,1,5.44-6.886c3.093-1.212,7.422-.221,8.672,2.46a22.667,22.667,0,0,1,.815,3.518,3.3,3.3,0,0,0,2.671,2.514,4.338,4.338,0,0,0,3.481-1.829c2.939-3.36,4.577-7.386,6.064-11.371s2.889-8.045,5.449-11.62a18.444,18.444,0,0,1,11.312-7.589c4.84-.918,10.555.859,12.6,4.673s.072,8.278-2.323,11.945a66.736,66.736,0,0,1-13.3,14.8c-.946.786-1.972,1.636-2.17,2.744-.356,2,2.181,3.571,4.553,3.877,2.687.346,5.4-.262,8.113-.375s5.793.457,7.224,2.406c1.988,2.7-.31,6.153-2.775,8.548a65.021,65.021,0,0,1-17.42,11.984c-2.354,1.117-4.859,2.158-6.584,3.909s-2.428,4.473-.8,6.3,4.9,2.026,7.444,1.251,4.657-2.293,7-3.431c4.388-2.132,10.5-2.715,14.185.233a8.126,8.126,0,0,1,2.763,7.777,19.16,19.16,0,0,1-3.745,7.74,62.351,62.351,0,0,1-24.678,20.31c-10.236,4.666-20.141,6.932-31.617,5.166" transform="translate(31.895 -14.912)" fill="#f5f5f5"/>
          <path id="Trazado_236878" data-name="Trazado 236878" d="M251.942,404.356a219.153,219.153,0,0,1,6.566-29.078l2.193-7.549c.726-2.475,1.446-4.931,2.329-7.3a116.016,116.016,0,0,1,6.009-13.351c2.158-4.17,4.39-8.061,6.507-11.687s4.188-6.97,6.222-9.953a103.332,103.332,0,0,1,10.848-13.471c1.425-1.5,2.577-2.636,3.371-3.4.382-.362.682-.647.908-.86a2.435,2.435,0,0,1,.326-.281,2.044,2.044,0,0,1-.277.316c-.213.223-.5.518-.859.894-.761.782-1.88,1.937-3.274,3.456a108.6,108.6,0,0,0-10.65,13.529c-2,2.987-4.036,6.336-6.139,9.963s-4.306,7.524-6.445,11.688a117.364,117.364,0,0,0-5.95,13.31c-.874,2.353-1.584,4.787-2.31,7.27l-2.188,7.545a224.983,224.983,0,0,0-6.6,29.012" transform="translate(36.208 -15)" fill="#e0e0e0"/>
          <path id="Trazado_236879" data-name="Trazado 236879" d="M263.213,361.538a5.408,5.408,0,0,1-.58-1.163c-.339-.759-.785-1.869-1.312-3.249-1.057-2.757-2.359-6.605-3.778-10.853s-2.784-8.072-3.888-10.808c-.548-1.37-1-2.474-1.332-3.234a4.971,4.971,0,0,1-.44-1.205,5.52,5.52,0,0,1,.67,1.129c.4.738.922,1.826,1.525,3.185,1.218,2.714,2.658,6.535,4.077,10.79,1.386,4.195,2.64,7.989,3.6,10.888.443,1.308.817,2.409,1.117,3.294a4.95,4.95,0,0,1,.343,1.227" transform="translate(36.199 -16.151)" fill="#e0e0e0"/>
          <path id="Trazado_236880" data-name="Trazado 236880" d="M304.261,349.449a11.171,11.171,0,0,1-1.714.42c-1.108.243-2.714.585-4.681,1.061-3.943.925-9.338,2.363-15.206,4.165s-11.089,3.639-14.821,5.052c-1.873.7-3.371,1.292-4.409,1.7a10.767,10.767,0,0,1-1.64.59,9.894,9.894,0,0,1,1.528-.776c1.005-.465,2.477-1.115,4.33-1.858,3.694-1.5,8.91-3.393,14.793-5.212s11.321-3.193,15.308-4.027c1.989-.431,3.616-.719,4.745-.9a11.142,11.142,0,0,1,1.768-.217" transform="translate(37.623 -17.049)" fill="#e0e0e0"/>
          <path id="Trazado_236881" data-name="Trazado 236881" d="M256.26,406.312c-.018.01-.152-.128-.391-.4-.276-.328-.612-.729-1.018-1.215-.879-1.057-2.1-2.615-3.584-4.556-2.966-3.881-6.86-9.349-11.059-15.431s-8.03-11.575-10.894-15.5c-1.4-1.908-2.553-3.477-3.408-4.643-.368-.507-.671-.925-.92-1.268a1.813,1.813,0,0,1-.285-.463,2.069,2.069,0,0,1,.392.4l1.018,1.213c.878,1.058,2.1,2.615,3.583,4.556,2.967,3.881,6.86,9.349,11.061,15.434s8.028,11.572,10.892,15.5l3.409,4.643.918,1.268a1.794,1.794,0,0,1,.285.462" transform="translate(32.293 -17.703)" fill="#e0e0e0"/>
          <path id="Trazado_236882" data-name="Trazado 236882" d="M307.4,383.5a2.47,2.47,0,0,1-.538.28l-1.6.71-5.9,2.561c-4.981,2.163-11.818,5.215-19.368,8.6s-14.43,6.386-19.466,8.464c-2.517,1.04-4.563,1.863-5.992,2.408l-1.65.62a2.649,2.649,0,0,1-.594.183,2.491,2.491,0,0,1,.538-.281l1.6-.709,5.9-2.561c4.981-2.162,11.819-5.216,19.371-8.6s14.427-6.385,19.461-8.463c2.518-1.04,4.565-1.863,5.994-2.408l1.649-.62a2.713,2.713,0,0,1,.595-.183" transform="translate(36.259 -18.711)" fill="#e0e0e0"/>
          <path id="Trazado_236883" data-name="Trazado 236883" d="M126.449,206.714s-13.59,1.57-5.96,26.324,14.1,37.511,14.1,37.511,1.025,5.606-4.41,5.433-16.514-3.843-20.272,1.034c-3.9,5.059-.491,11.153,8.033,17.532s26.581,20.927,28.207,22.247c1.6,1.3,2.809,4.043-.916,4.417s-30.177-2.207-30.9,8.306,26.534,25.04,29.478,26.675,3.406,2.915,2.747,4.338-9.453-.143-17.013-.621-16.426.069-16.23,6.164,14.506,21.494,56.258,32.944l19.765,4.252L203.95,391.3c29.391-27.193,32.609-46.47,29.136-51.84s-11.493-2.179-17.768,1.36-12.97,8.53-14.391,7.57-1.784-2.264-.208-4.9,16.55-26.506,9.643-35.331-28.321,4.349-31.777,5.563-4.046-1.67-3.435-3.456c.622-1.818,7.6-21.9,11.187-30.963s2.9-15.756-3.5-18.533c-6.176-2.68-13.6,5.084-18.21,7.48s-7.074-2.893-7.074-2.893-2.007-13.745-10.177-38.378-21.194-20.221-21.194-20.221" transform="translate(15.565 -10.073)" fill="#ebebeb"/>
          <path id="Trazado_236884" data-name="Trazado 236884" d="M186.186,408.508c-5.914-18.111-15.775-50.447-24.415-78.173s-16.484-52.8-22.286-70.938c-2.908-9.049-5.263-16.379-6.9-21.47l-1.871-5.839-.471-1.522c-.1-.344-.14-.524-.14-.524s.079.17.2.509c.127.361.3.862.532,1.509.462,1.351,1.13,3.305,1.987,5.813,1.718,5.05,4.141,12.371,7.094,21.428,5.913,18.111,13.831,43.186,22.467,70.9s18.431,60.075,24.234,78.208" transform="translate(18.698 -11.224)" fill="#e0e0e0"/>
          <path id="Trazado_236885" data-name="Trazado 236885" d="M123.041,286.578a7.186,7.186,0,0,1,1.3.581c.819.4,1.981,1.007,3.408,1.769,2.851,1.529,6.725,3.723,10.948,6.209l10.78,6.4,3.28,1.921a6.651,6.651,0,0,1,1.173.745,7.091,7.091,0,0,1-1.307-.573c-.818-.4-1.981-1.01-3.4-1.784-2.834-1.552-6.672-3.788-10.893-6.273L127.5,289.238l-3.294-1.907a6.549,6.549,0,0,1-1.167-.753" transform="translate(17.683 -13.982)" fill="#e0e0e0"/>
          <path id="Trazado_236886" data-name="Trazado 236886" d="M151.489,302.7c-.148-.079,4.941-6.92,11.363-15.278s11.749-15.075,11.9-15-4.94,6.918-11.364,15.28-11.749,15.073-11.9,14.995" transform="translate(21.771 -13.292)" fill="#e0e0e0"/>
          <path id="Trazado_236887" data-name="Trazado 236887" d="M161.069,348.41a6.42,6.42,0,0,1,1.084-.871l3.083-2.244c2.6-1.9,6.176-4.53,9.994-7.555s7.178-5.851,9.583-7.917l2.851-2.447a6.685,6.685,0,0,1,1.1-.857,5.828,5.828,0,0,1-.917.995c-.622.617-1.542,1.5-2.708,2.564-2.325,2.135-5.634,5.017-9.472,8.044s-7.463,5.629-10.14,7.457c-1.344.909-2.442,1.635-3.217,2.117a7.055,7.055,0,0,1-1.241.713" transform="translate(23.148 -15.931)" fill="#e0e0e0"/>
          <path id="Trazado_236888" data-name="Trazado 236888" d="M131.818,339.207a6.9,6.9,0,0,1,1.355.273l3.619.931c3.047.808,7.242,1.959,11.863,3.26s8.8,2.509,11.805,3.407l3.555,1.09a6.422,6.422,0,0,1,1.275.468,6.959,6.959,0,0,1-1.355-.274l-3.619-.931c-3.047-.808-7.242-1.959-11.865-3.261s-8.793-2.507-11.8-3.406l-3.555-1.09a6.548,6.548,0,0,1-1.275-.467" transform="translate(18.944 -16.55)" fill="#e0e0e0"/>
          <path id="Trazado_236889" data-name="Trazado 236889" d="M135.2,380.252a11.324,11.324,0,0,1,1.729.364l4.643,1.179c3.913,1.017,9.3,2.457,15.245,4.079S168.127,388.99,172,390.1l4.579,1.338a10.848,10.848,0,0,1,1.653.558,11.089,11.089,0,0,1-1.729-.363l-4.643-1.179c-3.912-1.018-9.3-2.458-15.246-4.08s-11.31-3.117-15.186-4.225l-4.581-1.337a10.772,10.772,0,0,1-1.653-.559" transform="translate(19.43 -18.552)" fill="#e0e0e0"/>
          <path id="Trazado_236890" data-name="Trazado 236890" d="M172.011,390.585a10.1,10.1,0,0,1,1.34-1.133l3.786-2.962c3.192-2.5,7.586-5.975,12.306-9.922s8.9-7.6,11.89-10.27l3.55-3.159a10.444,10.444,0,0,1,1.355-1.119,9.415,9.415,0,0,1-1.171,1.256c-.786.786-1.943,1.907-3.4,3.272-2.913,2.736-7.035,6.444-11.772,10.393s-9.179,7.388-12.453,9.824c-1.641,1.215-2.981,2.186-3.925,2.84a11.119,11.119,0,0,1-1.5.98" transform="translate(24.721 -17.663)" fill="#e0e0e0"/>
          <path id="Trazado_236891" data-name="Trazado 236891" d="M77.994,49.709l-11.162-2.9s-2.923,7.794-12.716,5.407c-5.085-1.239-6.674-4.675-6.947-7.063a8.067,8.067,0,0,1,3.615-7.312c2.866-2.105,7.9-3.388,15.009-.334l7.852-20.931L62.609,13.716l-4.6,12.26s-16.728-.688-22.05,13.5C30.869,53.049,44.323,60,50.589,61.626c4.791,1.243,21.473,4.514,27.406-11.917" transform="translate(5.006 -0.669)" fill="#f5f5f5"/>
          <path id="Trazado_237030" data-name="Trazado 237030" d="M0,0,9.278.524l.561,11.558L.561,11.558Z" transform="translate(69.099 8.7) rotate(-72.674)" fill="#f5f5f5"/>
          <path id="Trazado_236892" data-name="Trazado 236892" d="M99.56,26.249l4.47-.981s-.989-3.121,2.892-4.032a4.151,4.151,0,0,1,4.112,1.151,2.986,2.986,0,0,1,.636,3.081c-.428,1.206-1.79,2.515-4.942,2.735l2.658,8.381,4.42-.969-1.558-4.91s5.776-2.692,3.974-8.374c-1.725-5.436-7.985-5.412-10.495-4.862-1.919.42-8.332,2.24-6.168,8.78" transform="translate(14.245 -0.841)" fill="#ebebeb"/>
          <path id="Trazado_237031" data-name="Trazado 237031" d="M0,0,4.588.193l.18,3.651L.18,3.651Z" transform="translate(124.167 37.473) rotate(-14.783)" fill="#ebebeb"/>
          <path id="Trazado_236893" data-name="Trazado 236893" d="M422.315,127.672l4.346,1.31s1.322-3.035,5.138-1.947a3.207,3.207,0,0,1,2.593,2.893,3.249,3.249,0,0,1-1.585,2.835c-1.177.789-3.192,1.221-5.935-.091l-3.55,8.151,4.3,1.295,2.079-4.774s6.591.52,9-5c2.3-5.286-2.862-8.23-5.3-8.965-1.865-.562-8.385-2.1-11.08,4.3" transform="translate(60.694 -5.991)" fill="#ebebeb"/>
          <path id="Trazado_237032" data-name="Trazado 237032" d="M0,0,3.688.234l.25,4.548L.25,4.548Z" transform="matrix(0.341, -0.94, 0.94, 0.341, 481.796, 139.892)" fill="#ebebeb"/>
          <path id="Trazado_236894" data-name="Trazado 236894" d="M19.246,170.374l9.2-2.946s-2.975-6.424,5-9.11a9.086,9.086,0,0,1,9.038,1.642,6.543,6.543,0,0,1,2.214,6.4c-.568,2.64-3.087,5.68-9.707,6.756l7.99,17.249,9.095-2.914-4.68-10.1s11.486-6.83,6.07-18.521c-5.181-11.186-18.446-9.92-23.61-8.265-3.948,1.264-17.031,6.367-10.606,19.807" transform="translate(2.515 -7.294)" fill="#f5f5f5"/>
          <path id="Trazado_237033" data-name="Trazado 237033" d="M0,0,9.677.559,10.2,8.443.522,7.884Z" transform="translate(47.112 186.638) rotate(-21.067)" fill="#f5f5f5"/>
          <path id="Trazado_236895" data-name="Trazado 236895" d="M428.617,201.228l-6.518,2.089s2.108,4.552-3.542,6.455a6.437,6.437,0,0,1-6.4-1.163,4.638,4.638,0,0,1-1.57-4.539c.4-1.87,2.188-4.025,6.879-4.788L411.8,187.058l-6.445,2.065,3.317,7.16s-8.14,4.84-4.3,13.126c3.671,7.926,13.073,7.029,16.731,5.857,2.8-.9,12.068-4.513,7.515-14.037" transform="translate(57.967 -9.127)" fill="#f5f5f5"/>
          <path id="Trazado_237034" data-name="Trazado 237034" d="M0,0,6.857.4l.37,5.587L.37,5.587Z" transform="translate(459.725 172.422) rotate(-21.067)" fill="#f5f5f5"/>
        </g>
      </g>
      <g id="Grupo_165380" data-name="Grupo 165380">
        <g id="Grupo_165379" data-name="Grupo 165379" clip-path="url(#clip-path-3)">
          <path id="Trazado_236896" data-name="Trazado 236896" d="M420,423.075c0,.137-94.028.247-209.99.247-116,0-210.01-.11-210.01-.247s94.008-.247,210.01-.247c115.962,0,209.99.11,209.99.247" transform="translate(0 -20.63)" fill="#263238"/>
        </g>
      </g>
      <g id="Grupo_165385" data-name="Grupo 165385">
        <g id="Grupo_165384" data-name="Grupo 165384" clip-path="url(#clip-path-4)">
          <path id="Trazado_236897" data-name="Trazado 236897" d="M61.532,393.51c.9-3.5-1.391-7.01-3.962-9.548s-5.645-4.811-6.983-8.167c-2.168-5.437.746-12.476-2.953-17.012-2.175-2.669-6.076-3.561-8.007-6.412a14.593,14.593,0,0,1-1.738-5.095A51.743,51.743,0,0,0,25.021,323.2,44.893,44.893,0,0,0,30.07,346.4c1.5,2.852,3.337,5.632,3.833,8.815.806,5.169-2.079,10.493-.809,15.568,1.452,5.8,7.971,9.689,8.28,15.664.262,5.051-4.142,9.485-3.813,14.532a13.628,13.628,0,0,0,2.248,5.989c3.906,6.493,9.642,10.965,18.338,10.82l10.652.373Z" transform="translate(-31.218 -15.769)" fill="#e8505b"/>
          <g id="Grupo_165383" data-name="Grupo 165383" transform="translate(-6.263 307.426)" opacity="0.3">
            <g id="Grupo_165382" data-name="Grupo 165382">
              <g id="Grupo_165381" data-name="Grupo 165381" clip-path="url(#clip-path-5)">
                <path id="Trazado_236898" data-name="Trazado 236898" d="M61.532,393.51c.9-3.5-1.391-7.01-3.962-9.548s-5.645-4.811-6.983-8.167c-2.168-5.437.746-12.476-2.953-17.012-2.175-2.669-6.076-3.561-8.007-6.412a14.593,14.593,0,0,1-1.738-5.095A51.743,51.743,0,0,0,25.021,323.2,44.893,44.893,0,0,0,30.07,346.4c1.5,2.852,3.337,5.632,3.833,8.815.806,5.169-2.079,10.493-.809,15.568,1.452,5.8,7.971,9.689,8.28,15.664.262,5.051-4.142,9.485-3.813,14.532a13.628,13.628,0,0,0,2.248,5.989c3.906,6.493,9.642,10.965,18.338,10.82l10.652.373Z" transform="translate(-24.954 -323.195)"/>
              </g>
            </g>
          </g>
          <path id="Trazado_236899" data-name="Trazado 236899" d="M73.037,416.566a8.512,8.512,0,0,0,2.933-.064,17.769,17.769,0,0,0,3.461-.87,14.7,14.7,0,0,0,4.275-2.342,5.958,5.958,0,0,0,1.758-2.343,11.018,11.018,0,0,0,.5-3.183,30.746,30.746,0,0,1,.249-3.445,9.495,9.495,0,0,1,1.3-3.425c1.256-2.206,3.341-4.294,4.014-7.29.73-2.946.206-6.134-.289-9.336s-.973-6.677.248-10.006c1.143-3.331,3.479-6.339,4.647-10.093,1.162-3.793.621-7.872.867-11.9a15.784,15.784,0,0,1,1.388-5.915c.862-1.885,2.057-3.663,2.991-5.648,1.89-4.012,2.224-8.56,2.741-13.016q.378-3.369.764-6.806a33.373,33.373,0,0,1,1.183-6.812,59.972,59.972,0,0,1,2.548-6.592,21.884,21.884,0,0,0,1.236-3.442,34.884,34.884,0,0,0,.344-3.664,43.231,43.231,0,0,0-.284-7.373c-.289-2.458-.732-4.895-1-7.358-.016-.146-.032-.291-.048-.425l-.055-.49-.436.218a16.452,16.452,0,0,0-5.734,4.839,26.088,26.088,0,0,0-3.523,6.492c-1.779,4.576-2.42,9.372-3.317,13.949-.875,4.576-2.03,9.077-4.377,12.881-1.166,1.9-2.579,3.629-3.814,5.479a15.06,15.06,0,0,0-2.643,6.071c-.63,4.506,1.852,8.463,1.335,12.452a13.82,13.82,0,0,1-1.943,5.528c-.967,1.7-2.1,3.28-3.182,4.865a31.24,31.24,0,0,0-2.859,4.915,15.579,15.579,0,0,0-1.309,5.339c-.26,3.592.25,7-.012,10.216a23.51,23.51,0,0,1-2.629,8.754c-1.288,2.621-2.721,4.99-3.922,7.288a37.561,37.561,0,0,0-1.615,3.394,16.664,16.664,0,0,0-.934,3.367,21.244,21.244,0,0,0-.079,6.08,15.312,15.312,0,0,0,3.048,7.752,7.361,7.361,0,0,0,.861.933,4.279,4.279,0,0,0,.7.594c.4.293.61.427.61.427a13.461,13.461,0,0,1-2.062-2.039,15.423,15.423,0,0,1-2.892-7.7,21.138,21.138,0,0,1,.136-5.991,16.451,16.451,0,0,1,.942-3.288c.454-1.1,1.017-2.214,1.625-3.349,1.21-2.277,2.659-4.637,3.974-7.275a23.916,23.916,0,0,0,2.72-8.908c.28-3.285-.215-6.7.057-10.212a15.026,15.026,0,0,1,1.283-5.16,30.8,30.8,0,0,1,2.827-4.816c1.078-1.575,2.228-3.159,3.223-4.9a14.387,14.387,0,0,0,2.032-5.754c.514-4.25-1.95-8.233-1.31-12.421a14.45,14.45,0,0,1,2.553-5.807c1.217-1.816,2.636-3.549,3.838-5.494,2.421-3.913,3.594-8.5,4.478-13.1.906-4.6,1.547-9.349,3.294-13.832a25.493,25.493,0,0,1,3.43-6.322,15.786,15.786,0,0,1,5.493-4.639l-.492-.272c.015.135.032.283.049.43.268,2.492.712,4.934,1,7.363a42.531,42.531,0,0,1,.283,7.261,34.866,34.866,0,0,1-.327,3.553,21.477,21.477,0,0,1-1.2,3.321,60.625,60.625,0,0,0-2.567,6.664,33.943,33.943,0,0,0-1.2,6.925q-.381,3.44-.755,6.811c-.509,4.476-.843,8.951-2.663,12.824-.9,1.928-2.093,3.712-2.98,5.659a16.388,16.388,0,0,0-1.427,6.132c-.232,4.11.3,8.128-.809,11.769-1.1,3.624-3.428,6.647-4.6,10.085-1.257,3.472-.736,7.069-.227,10.253.514,3.208,1.031,6.328.344,9.16-.615,2.861-2.641,4.93-3.923,7.2a9.866,9.866,0,0,0-1.321,3.561,30.931,30.931,0,0,0-.224,3.487,10.79,10.79,0,0,1-.455,3.1,5.7,5.7,0,0,1-1.652,2.241,14.6,14.6,0,0,1-4.172,2.353,18.382,18.382,0,0,1-3.412.926,13.685,13.685,0,0,1-2.167.209c-.49-.018-.745-.01-.745-.01" transform="translate(-33.3 -13.892)" fill="#263238"/>
          <path id="Trazado_236900" data-name="Trazado 236900" d="M106.969,291.413a1.222,1.222,0,0,0-.1.321c-.063.256-.14.571-.236.96-.209.838-.459,2.105-.861,3.687-.419,1.578-1.384,3.363-2.211,5.564-.859,2.183-1.73,4.712-2.532,7.555s-1.532,6-2.285,9.374a39.447,39.447,0,0,1-3.41,10.4c-.872,1.73-1.856,3.481-2.636,5.4a25.089,25.089,0,0,0-1.534,6.112,123.715,123.715,0,0,1-2.3,12.886l-6.022,24.612L77.8,398.355,74.451,411.9c-.371,1.561-.663,2.795-.876,3.692l-.211.964a1.232,1.232,0,0,0-.049.335,1.309,1.309,0,0,0,.116-.317l.278-.947c.243-.889.576-2.113,1-3.66.854-3.242,2.066-7.837,3.557-13.493,1.481-5.721,3.239-12.507,5.19-20.036,1.869-7.573,3.923-15.887,6.078-24.618a121.829,121.829,0,0,0,2.292-12.939,24.584,24.584,0,0,1,1.476-5.964c.752-1.866,1.72-3.609,2.594-5.357A39.7,39.7,0,0,0,99.3,319c.73-3.387,1.419-6.533,2.2-9.368s1.6-5.362,2.423-7.547c.784-2.193,1.719-4,2.111-5.63.369-1.622.573-2.875.739-3.73.068-.394.124-.713.169-.973a1.291,1.291,0,0,0,.034-.336" transform="translate(-33.577 -14.218)" fill="#263238"/>
          <path id="Trazado_236901" data-name="Trazado 236901" d="M73.317,414.868c6.957-4.136,8.954-16.687,6.052-24.243s-7.982-14.458-8.764-22.513c-.6-6.192,1.425-12.547-.017-18.6-1.946-8.167-9.92-14.494-9.828-22.89.051-4.71,2.731-9.143,2.518-13.85-.262-5.773-4.692-10.352-7.437-15.437-4.2-7.784-4.477-16.987-5.914-25.714s-4.762-18.074-12.5-22.363c-1.142,7.409-3.092,12.484-2.48,22.522.22,3.605,4.408,10.506,4.978,18.407.341,4.722.576,9.45.865,14.176.282,4.6.579,9.281,2.228,13.583,1.262,3.3,3.292,6.292,4.23,9.7,1.764,6.4-.554,13.34.871,19.827,1.207,5.5,5.011,10.227,5.788,15.8,1.092,7.831-3.976,15.968-1.382,23.438,1.288,3.706,4.337,6.682,5.2,10.51.671,2.97-.061,6.113.547,9.1.98,4.806,10.147,8.539,15.042,8.241" transform="translate(-31.7 -12.161)" fill="#e8505b"/>
          <path id="Trazado_236902" data-name="Trazado 236902" d="M39.579,256.991a1.95,1.95,0,0,0,.03.419c.04.311.091.712.157,1.218.16,1.07.339,2.642.7,4.673.389,2.043,1.442,4.343,2.283,7.117.888,2.765,1.771,5.955,2.552,9.526s1.457,7.52,2.155,11.772c.72,4.22,1.457,8.885,3.566,13.311.976,2.224,2.071,4.45,2.892,6.821a30.589,30.589,0,0,1,1.468,7.518,151.9,151.9,0,0,0,2.04,16.206c2.131,10.979,4.161,21.436,6.008,30.953,1.947,9.481,3.7,18.022,5.178,25.212,1.491,7.139,2.7,12.93,3.549,16.986.426,1.967.76,3.512,1,4.611.114.5.205.889.277,1.2a1.882,1.882,0,0,0,.117.4,1.9,1.9,0,0,0-.049-.417c-.054-.309-.124-.708-.21-1.209-.208-1.105-.5-2.659-.873-4.637-.8-4.066-1.934-9.872-3.336-17.029L64.049,366.4c-1.83-9.516-3.841-19.969-5.952-30.945A153.456,153.456,0,0,1,56.05,319.3a31.222,31.222,0,0,0-1.517-7.668c-.848-2.422-1.958-4.657-2.934-6.863-2.1-4.361-2.833-8.916-3.584-13.151-.72-4.244-1.414-8.206-2.242-11.783s-1.734-6.775-2.661-9.54c-.884-2.783-1.968-5.063-2.386-7.055-.4-1.995-.622-3.581-.825-4.638-.093-.5-.166-.9-.224-1.207a1.869,1.869,0,0,0-.1-.407" transform="translate(-31.931 -12.539)" fill="#263238"/>
        </g>
      </g>
      <g id="Grupo_165387" data-name="Grupo 165387">
        <g id="Grupo_165386" data-name="Grupo 165386" clip-path="url(#clip-path-3)">
          <path id="Trazado_236903" data-name="Trazado 236903" d="M391.518,47.479h-3.787a3.218,3.218,0,0,1-3.3,3.236,3.064,3.064,0,0,1-2.968-1.956,3.4,3.4,0,0,1,.27-3.067c.642-1.059,2.05-2.021,4.6-1.571V35.583h-3.744v5a7.311,7.311,0,0,0-5.251,7.145c0,5.537,4.965,6.823,7.09,6.823,1.626,0,7.163-.393,7.091-7.073" transform="translate(-18.41 -1.736)" fill="#e8505b"/>
          <rect id="Rectángulo_51396" data-name="Rectángulo 51396" width="3.8" height="3.549" transform="translate(364.132 28.54)" fill="#e8505b"/>
          <path id="Trazado_236904" data-name="Trazado 236904" d="M411.192,41.33a2.732,2.732,0,0,0,.008-.479c-.009-.347-.023-.813-.039-1.408-.015-.309-.014-.657-.047-1.038q-.08-.572-.174-1.242l-.208-1.45q-.19-.763-.4-1.62a26.243,26.243,0,0,0-3.423-7.849A27.7,27.7,0,0,0,386.085,13.52a28.584,28.584,0,0,0-3.8-.076c-.642.045-1.295.031-1.942.126l-1.955.294a27.859,27.859,0,0,0-7.725,2.639,29.732,29.732,0,0,0-6.942,5.045,29.143,29.143,0,0,0-5.222,7.268,26.435,26.435,0,0,0-2.72,8.861,17.606,17.606,0,0,0-.2,2.363,21.5,21.5,0,0,0-.044,2.389,28.292,28.292,0,0,0,.6,4.785,27.964,27.964,0,0,0,4.008,9.526l-.029-.289-3.894,9.7-.23.575.6-.165,10.373-2.852-.256-.049a27.835,27.835,0,0,0,11.854,5.178,25.217,25.217,0,0,0,6.073.377,19.507,19.507,0,0,0,2.916-.275l1.42-.221c.466-.087.919-.228,1.374-.34a27.747,27.747,0,0,0,15.781-10.825,26.529,26.529,0,0,0,3.4-6.443l.519-1.451q.183-.718.35-1.377t.313-1.26c.077-.405.119-.8.175-1.16.093-.733.22-1.378.247-1.943s.035-1.03.048-1.426c.008-.361.014-.648.019-.87a1.334,1.334,0,0,0-.01-.295,1.32,1.32,0,0,0-.04.294c-.018.223-.041.508-.068.868-.027.393-.059.864-.1,1.416s-.185,1.2-.292,1.925A27.6,27.6,0,0,1,390.227,67.9c-.447.106-.891.244-1.351.326l-1.395.209a18.935,18.935,0,0,1-2.863.257,24.728,24.728,0,0,1-5.954-.393,27.335,27.335,0,0,1-11.6-5.107l-.116-.088-.141.039-10.38,2.831.366.41q1.909-4.74,3.906-9.7l.061-.151-.09-.138a27.4,27.4,0,0,1-3.915-9.313,27.8,27.8,0,0,1-.592-4.677,20.767,20.767,0,0,1,.042-2.335,17.152,17.152,0,0,1,.2-2.311,25.863,25.863,0,0,1,2.65-8.665,28.633,28.633,0,0,1,5.1-7.12,29.241,29.241,0,0,1,6.784-4.956,27.327,27.327,0,0,1,7.558-2.608l1.916-.3c.634-.094,1.275-.084,1.9-.13a28.363,28.363,0,0,1,3.725.059,27.414,27.414,0,0,1,20.574,12.4,26.409,26.409,0,0,1,3.481,7.722q.225.846.426,1.6.126.765.235,1.433t.2,1.231c.042.378.051.723.076,1.03.044.591.077,1.055.1,1.4a2.689,2.689,0,0,0,.056.478" transform="translate(-17.346 -0.654)" fill="#263238"/>
        </g>
      </g>
      <g id="Grupo_165401" data-name="Grupo 165401">
        <g id="Grupo_165400" data-name="Grupo 165400" clip-path="url(#clip-path-3)">
          <path id="Trazado_236905" data-name="Trazado 236905" d="M115.838,155.418h54.935s0-46.125,47.934-46.951c24.894-.429,37.8,15.878,43.046,28.371,6.09,14.507,4.247,31.041-3.912,44.493-9.318,15.363-29.385,30.8-66.408,24.277L191.084,328H245.4V255.443s76.184-19.694,76.184-103.652c0-80.33-64.961-97.684-99.873-98.8-19.428-.621-26.469-1.455-50.5,1.956-30.619,4.346-56.027,39.9-55.379,100.471" transform="translate(-5.651 -2.558)" fill="#e8505b"/>
          <rect id="Rectángulo_51398" data-name="Rectángulo 51398" width="55.128" height="51.488" transform="translate(185.279 350.957)" fill="#e8505b"/>
          <g id="Grupo_165390" data-name="Grupo 165390" transform="translate(185.28 350.958)" opacity="0.1">
            <g id="Grupo_165389" data-name="Grupo 165389">
              <g id="Grupo_165388" data-name="Grupo 165388" clip-path="url(#clip-path-8)">
                <rect id="Rectángulo_51399" data-name="Rectángulo 51399" width="55.128" height="51.488" transform="translate(0 0)"/>
              </g>
            </g>
          </g>
          <g id="Grupo_165393" data-name="Grupo 165393" transform="translate(110.175 49.868)" opacity="0.1">
            <g id="Grupo_165392" data-name="Grupo 165392">
              <g id="Grupo_165391" data-name="Grupo 165391" clip-path="url(#clip-path-9)">
                <path id="Trazado_236906" data-name="Trazado 236906" d="M115.838,155.418h54.935s0-46.125,47.934-46.951c24.894-.429,37.8,15.878,43.046,28.371,6.09,14.507,4.247,31.041-3.912,44.493-9.318,15.363-29.385,30.8-66.408,24.277L191.084,328H245.4V255.443s76.184-19.694,76.184-103.652c0-80.33-64.961-97.684-99.873-98.8-19.428-.621-26.469-1.455-50.5,1.956-30.619,4.346-56.027,39.9-55.379,100.471" transform="translate(-115.826 -52.426)"/>
              </g>
            </g>
          </g>
          <path id="Trazado_236907" data-name="Trazado 236907" d="M91.915,155.438h54.935s0-46.125,47.934-46.951c24.894-.429,37.8,15.878,43.046,28.371,6.09,14.507,4.247,31.041-3.912,44.493-9.318,15.363-29.736,29.327-66.758,22.8V328.018h54.32V255.462s76.184-19.694,76.184-103.652c0-80.33-72.039-98.988-102.875-98.988-23.58,0-103.911,5.7-102.874,102.616" transform="translate(-4.484 -2.577)" fill="#e8505b"/>
          <g id="Grupo_165396" data-name="Grupo 165396" transform="translate(87.421 50.245)" opacity="0.3">
            <g id="Grupo_165395" data-name="Grupo 165395">
              <g id="Grupo_165394" data-name="Grupo 165394" clip-path="url(#clip-path-10)">
                <path id="Trazado_236908" data-name="Trazado 236908" d="M91.915,155.438h54.935s0-46.125,47.934-46.951c24.894-.429,37.8,15.878,43.046,28.371,6.09,14.507,4.247,31.041-3.912,44.493-9.318,15.363-29.736,29.327-66.758,22.8V328.018h54.32V255.462s76.184-19.694,76.184-103.652c0-80.33-72.039-98.988-102.875-98.988-23.58,0-103.911,5.7-102.874,102.616" transform="translate(-91.906 -52.822)"/>
              </g>
            </g>
          </g>
          <rect id="Rectángulo_51403" data-name="Rectángulo 51403" width="55.128" height="51.488" transform="translate(162.524 350.957)" fill="#e8505b"/>
          <g id="Grupo_165399" data-name="Grupo 165399" transform="translate(162.524 350.958)" opacity="0.3">
            <g id="Grupo_165398" data-name="Grupo 165398">
              <g id="Grupo_165397" data-name="Grupo 165397" clip-path="url(#clip-path-8)">
                <rect id="Rectángulo_51404" data-name="Rectángulo 51404" width="55.128" height="51.488" transform="translate(0 0)"/>
              </g>
            </g>
          </g>
          <path id="Trazado_236909" data-name="Trazado 236909" d="M203.79,111.581a5.1,5.1,0,0,1-.822-.05c-.537-.028-1.319-.179-2.341-.189a47.87,47.87,0,0,0-8.614.357,61.716,61.716,0,0,0-12.434,2.925,53.03,53.03,0,0,0-6.93,2.98,36.82,36.82,0,0,0-6.775,4.389,33.642,33.642,0,0,0-5.546,5.859,56.371,56.371,0,0,0-4.156,6.3,55.777,55.777,0,0,0-4.92,11.781,47.49,47.49,0,0,0-1.652,8.46c-.117,1.015-.147,1.806-.176,2.343a5.125,5.125,0,0,1-.073.82,5.094,5.094,0,0,1-.027-.822c0-.539,0-1.335.084-2.357a44.018,44.018,0,0,1,1.507-8.538,54.548,54.548,0,0,1,4.859-11.909,55.684,55.684,0,0,1,4.169-6.369,33.761,33.761,0,0,1,5.617-5.947,36.912,36.912,0,0,1,6.867-4.436,52.513,52.513,0,0,1,7-2.98,60.107,60.107,0,0,1,12.544-2.842,44.444,44.444,0,0,1,8.668-.2c1.024.042,1.806.224,2.341.283a5.06,5.06,0,0,1,.809.149" transform="translate(-7.286 -5.417)" fill="#263238"/>
          <path id="Trazado_236910" data-name="Trazado 236910" d="M288.843,98.935a1.159,1.159,0,0,1-.179-.216l-.48-.662-1.808-2.565c-.4-.554-.81-1.189-1.309-1.849l-1.715-2.081-1.966-2.392c-.716-.83-1.55-1.639-2.383-2.526-.852-.868-1.7-1.823-2.664-2.735l-3.072-2.778c-.536-.474-1.059-.981-1.628-1.451l-1.77-1.394c-1.207-.93-2.407-1.945-3.714-2.881a118.951,118.951,0,0,0-18-10.63l-5.013-2.268-4.981-1.932c-1.619-.673-3.274-1.149-4.874-1.678-1.608-.5-3.158-1.077-4.727-1.444l-4.55-1.195c-1.474-.391-2.94-.622-4.338-.927-1.406-.263-2.749-.613-4.068-.777l-3.783-.547c-2.4-.412-4.61-.494-6.534-.688-.965-.075-1.861-.179-2.688-.218l-2.267-.061-3.138-.1-.816-.039a1.2,1.2,0,0,1-.279-.029,1.182,1.182,0,0,1,.278-.021l.817-.01,3.143.009,2.272.018c.83.024,1.729.114,2.7.177,1.932.167,4.146.225,6.56.616l3.8.517c1.325.155,2.674.5,4.086.751,1.4.3,2.877.521,4.358.906l4.571,1.18c1.577.362,3.133.937,4.749,1.433,1.608.525,3.27,1,4.9,1.672l5,1.934,5.034,2.273a116.9,116.9,0,0,1,18.057,10.71c1.309.945,2.51,1.97,3.718,2.91l1.769,1.409c.57.476,1.093.988,1.628,1.468l3.066,2.81c.963.923,1.806,1.89,2.654,2.769.828.9,1.656,1.719,2.365,2.56l1.945,2.427,1.688,2.113c.489.671.892,1.316,1.277,1.88L288.267,98l.44.688a1.168,1.168,0,0,1,.135.244" transform="translate(-9.568 -2.578)" fill="#263238"/>
          <path id="Trazado_236911" data-name="Trazado 236911" d="M284.694,225.294a3.82,3.82,0,0,1-.416.571l-1.267,1.575c-.549.686-1.235,1.513-2.074,2.437s-1.755,2.013-2.86,3.129c-1.082,1.139-2.276,2.379-3.622,3.645-1.311,1.3-2.8,2.6-4.344,3.991a119.011,119.011,0,0,1-22.218,15.319c-1.847.953-3.592,1.881-5.276,2.641-1.662.809-3.246,1.483-4.694,2.091-1.437.635-2.778,1.111-3.942,1.56s-2.178.8-3.014,1.071l-1.923.624a3.727,3.727,0,0,1-.68.185,3.741,3.741,0,0,1,.649-.28l1.89-.711c.825-.3,1.83-.669,2.979-1.149s2.48-.969,3.9-1.624c1.436-.626,3.006-1.317,4.655-2.139,1.671-.773,3.4-1.711,5.236-2.671,3.63-1.992,7.538-4.335,11.482-7.035,3.925-2.724,7.5-5.544,10.655-8.228,1.55-1.373,3.041-2.657,4.358-3.944,1.355-1.249,2.559-2.47,3.655-3.59,1.119-1.1,2.055-2.163,2.906-3.07s1.563-1.711,2.134-2.377L284.2,225.8a3.841,3.841,0,0,1,.493-.507" transform="translate(-11.142 -10.992)" fill="#263238"/>
          <path id="Trazado_236912" data-name="Trazado 236912" d="M227.1,334.1c-.137,0-.247-15.279-.247-34.123s.11-34.126.247-34.126.247,15.276.247,34.126-.11,34.123-.247,34.123" transform="translate(-11.068 -12.971)" fill="#263238"/>
          <path id="Trazado_236913" data-name="Trazado 236913" d="M229.306,416.961c-.137,0-.247-10.722-.247-23.946s.11-23.948.247-23.948.247,10.72.247,23.948-.11,23.946-.247,23.946" transform="translate(-11.176 -18.007)" fill="#263238"/>
        </g>
      </g>
      <g id="Grupo_165421" data-name="Grupo 165421">
        <g id="Grupo_165420" data-name="Grupo 165420" clip-path="url(#clip-path-3)">
          <path id="Trazado_236914" data-name="Trazado 236914" d="M286.163,152.512c-.96,1.915,2.595,3.46,4.646,4.08a18.552,18.552,0,0,0,6.377.439c2.836-.153,5.773-.418,8.237-1.825a13.1,13.1,0,0,0,4.965-5.569,39.02,39.02,0,0,0,2.521-7.123s-22.473,1.472-26.746,10" transform="translate(-13.954 -6.953)" fill="#e8505b"/>
          <g id="Grupo_165404" data-name="Grupo 165404" transform="translate(272.047 135.561)" opacity="0.4">
            <g id="Grupo_165403" data-name="Grupo 165403">
              <g id="Grupo_165402" data-name="Grupo 165402" clip-path="url(#clip-path-13)">
                <path id="Trazado_236915" data-name="Trazado 236915" d="M286.163,152.512c-.96,1.915,2.595,3.46,4.646,4.08a18.552,18.552,0,0,0,6.377.439c2.836-.153,5.773-.418,8.237-1.825a13.1,13.1,0,0,0,4.965-5.569,39.02,39.02,0,0,0,2.521-7.123s-22.473,1.472-26.746,10" transform="translate(-286.001 -142.514)"/>
              </g>
            </g>
          </g>
          <path id="Trazado_236916" data-name="Trazado 236916" d="M352.84,146.283a21.546,21.546,0,0,0,12.685,3.983,9,9,0,0,0,6.041-1.9c.733-.671,1.28-1.528,2.036-2.173.513-.438,1.112-.77,1.594-1.241a2.036,2.036,0,0,0,.7-1.805,3.76,3.76,0,0,0-1.314-2.1c-2.582-1.464-5.661-1.412-8.628-1.343a29.528,29.528,0,0,0-8.7,1.706c-2.3.773-4.711,1.866-5.878,3.994" transform="translate(-17.144 -6.815)" fill="#e8505b"/>
          <g id="Grupo_165407" data-name="Grupo 165407" transform="translate(334.229 132.874)" opacity="0.4">
            <g id="Grupo_165406" data-name="Grupo 165406">
              <g id="Grupo_165405" data-name="Grupo 165405" clip-path="url(#clip-path-14)">
                <path id="Trazado_236917" data-name="Trazado 236917" d="M375.9,143.148a3.977,3.977,0,0,0-1.686-1.911c-2.582-1.465-5.288-1.6-8.255-1.533a29.591,29.591,0,0,0-8.7,1.706c-2.3.774-4.712,1.866-5.878,4l1.467.879a21.559,21.559,0,0,0,12.685,3.983,9,9,0,0,0,6.041-1.9c.732-.67,1.28-1.527,2.036-2.172.513-.439,1.112-.77,1.594-1.242a2.034,2.034,0,0,0,.7-1.8" transform="translate(-351.373 -139.69)"/>
              </g>
            </g>
          </g>
          <path id="Trazado_236918" data-name="Trazado 236918" d="M305.56,178.264l47.419.621a.61.61,0,0,0,.588-.8L348,160.739s.82-8.669,1.953-19.1c1.719-15.832,4.006-35.74,4.036-35.686-3.239-9.089-22.376-10.639-22.376-10.639l-21.812,1.3-.768-1.279-6.277,2.917a29.17,29.17,0,0,0-3.937,2.221c-4.143,2.776-14.137,9.132-15.957,16.226-4.211,16.4,2.922,34.712,2.922,34.712l4.578-3.578A32.221,32.221,0,0,1,294,145.4l9.19,24.622a4.339,4.339,0,0,0-1.993,3.161c-.081,2,.988,4.4,4.364,5.083" transform="translate(-13.736 -4.65)" fill="#e8505b"/>
          <g id="Grupo_165410" data-name="Grupo 165410" transform="translate(305.964 120.003)" opacity="0.3">
            <g id="Grupo_165409" data-name="Grupo 165409">
              <g id="Grupo_165408" data-name="Grupo 165408" clip-path="url(#clip-path-15)">
                <path id="Trazado_236919" data-name="Trazado 236919" d="M327.844,150.736c1.5-8.083.71-16.4-.09-24.578-2.633,6.694-2.538,14.24-5.323,20.871a8.926,8.926,0,0,0-.743,2.2,2.457,2.457,0,0,0,.634,2.145c.758.693,1.886.32,2.9.2a11.071,11.071,0,0,0,2.618-.832" transform="translate(-321.658 -126.158)"/>
              </g>
            </g>
          </g>
          <g id="Grupo_165413" data-name="Grupo 165413" transform="translate(294.047 157.279)" opacity="0.4">
            <g id="Grupo_165412" data-name="Grupo 165412">
              <g id="Grupo_165411" data-name="Grupo 165411" clip-path="url(#clip-path-16)">
                <path id="Trazado_236920" data-name="Trazado 236920" d="M309.767,171.362c3.829,1.327,7.854-1.135,11.883-1.572,2.661-.288,5.326.322,7.968.751a59.572,59.572,0,0,0,16.172.4,6.187,6.187,0,0,0,2.379-.614,2.871,2.871,0,0,0,1.244-2.361c-8.956-.919-17.911-1.467-26.866-2.386a16.874,16.874,0,0,0-6.717.213c-2.706.839-4.792,2.965-6.7,5.06" transform="translate(-309.129 -165.346)"/>
              </g>
            </g>
          </g>
          <path id="Trazado_236921" data-name="Trazado 236921" d="M374.275,138.347c-3.878-8.716-17.527-32.841-17.527-32.841L346.177,118.76l2.467,26.016s5.581-6.231,21.189-6.355a7.653,7.653,0,0,1,5.81,3.059Z" transform="translate(-16.89 -5.148)" fill="#e8505b"/>
          <path id="Trazado_236922" data-name="Trazado 236922" d="M308.84,134.6a35.982,35.982,0,0,1-1.782-5.689,35.928,35.928,0,0,1-1.3-5.819,36.068,36.068,0,0,1,1.781,5.69,35.954,35.954,0,0,1,1.3,5.818" transform="translate(-14.917 -6.006)" fill="#263238"/>
          <path id="Trazado_236923" data-name="Trazado 236923" d="M345.337,117.585a6.328,6.328,0,0,1,.978.832A26.5,26.5,0,0,1,348.67,121a24.971,24.971,0,0,1,5.048,10.329,19.306,19.306,0,0,1,.3,6.371c-.245,1.947-.617,3.657-.856,5.108s-.4,2.622-.476,3.44a8.593,8.593,0,0,1-.133,1.272,5.1,5.1,0,0,1-.06-1.284,30.139,30.139,0,0,1,.322-3.482c.2-1.461.533-3.187.75-5.106a19.6,19.6,0,0,0-.335-6.215,26.148,26.148,0,0,0-4.84-10.217c-1.759-2.343-3.129-3.562-3.056-3.635" transform="translate(-16.849 -5.737)" fill="#263238"/>
          <path id="Trazado_236924" data-name="Trazado 236924" d="M333.884,179.943a4.49,4.49,0,0,1-1.032.3,9.87,9.87,0,0,1-1.238.24,16.4,16.4,0,0,1-1.66.2,24.481,24.481,0,0,1-4.355-.024,25.868,25.868,0,0,1-10.14-3.148,24.526,24.526,0,0,1-3.6-2.447c-.495-.374-.89-.774-1.254-1.106a10.045,10.045,0,0,1-.884-.9,4.536,4.536,0,0,1-.681-.832c.071-.068,1.093,1.073,3.035,2.563a27.424,27.424,0,0,0,3.605,2.321,27.341,27.341,0,0,0,9.969,3.1,27.348,27.348,0,0,0,4.285.128c2.445-.126,3.933-.49,3.953-.393" transform="translate(-15.078 -8.403)" fill="#263238"/>
          <path id="Trazado_236925" data-name="Trazado 236925" d="M350.4,174.636a3.367,3.367,0,0,1,.364,1.389,8.565,8.565,0,0,1-.254,3.466,6.052,6.052,0,0,1-1.864,2.946,2.626,2.626,0,0,1-1.254.714c-.042-.071.42-.361,1.015-.97a6.73,6.73,0,0,0,1.628-2.832c.72-2.512.178-4.7.365-4.713" transform="translate(-16.949 -8.521)" fill="#263238"/>
          <path id="Trazado_236926" data-name="Trazado 236926" d="M347.738,178.159a5.168,5.168,0,0,1-2.037,5.25c-.106-.1.783-1.049,1.334-2.5.573-1.444.555-2.741.7-2.747" transform="translate(-16.866 -8.692)" fill="#263238"/>
          <path id="Trazado_236927" data-name="Trazado 236927" d="M338.744,145.254a19.329,19.329,0,0,1-1.691,2.436,19.674,19.674,0,0,1-1.664,2.454,8.834,8.834,0,0,1,3.355-4.89" transform="translate(-16.363 -7.087)" fill="#263238"/>
          <path id="Trazado_236928" data-name="Trazado 236928" d="M303.892,120.729a24.036,24.036,0,0,1-2.1-1.394,27.083,27.083,0,0,0-11.234-4.194,23.987,23.987,0,0,1-2.5-.325,8.806,8.806,0,0,1,2.54-.023,22.75,22.75,0,0,1,11.394,4.254,8.809,8.809,0,0,1,1.9,1.682" transform="translate(-14.054 -5.598)" fill="#263238"/>
          <path id="Trazado_236929" data-name="Trazado 236929" d="M356.864,105.175a41.146,41.146,0,0,0-4.806,4.5,41.16,41.16,0,0,0-3.613,5.5,5.881,5.881,0,0,1,.663-1.845,18.848,18.848,0,0,1,6.05-7.187,5.857,5.857,0,0,1,1.706-.967" transform="translate(-17 -5.131)" fill="#263238"/>
          <path id="Trazado_236930" data-name="Trazado 236930" d="M335.3,96.934a1.834,1.834,0,0,1,.213.439,8.172,8.172,0,0,1,.443,1.335,11.294,11.294,0,0,1-.017,5.151,12.659,12.659,0,0,1-3.881,6.556,13.155,13.155,0,0,1-8.751,3.117,14.8,14.8,0,0,1-8.836-2.954,16.884,16.884,0,0,1-4.863-5.893,17.969,17.969,0,0,1-1.621-4.895,13.4,13.4,0,0,1-.171-1.392,1.744,1.744,0,0,1-.008-.489c.049-.006.108.664.369,1.842a19.439,19.439,0,0,0,1.741,4.772,16.939,16.939,0,0,0,4.824,5.687,14.521,14.521,0,0,0,8.567,2.824,12.822,12.822,0,0,0,8.449-2.965,12.492,12.492,0,0,0,3.84-6.294,11.688,11.688,0,0,0,.17-5.028c-.235-1.18-.527-1.793-.468-1.815" transform="translate(-15.017 -4.729)" fill="#263238"/>
          <g id="Grupo_165416" data-name="Grupo 165416" transform="translate(319.027 138.483)" opacity="0.3">
            <g id="Grupo_165415" data-name="Grupo 165415">
              <g id="Grupo_165414" data-name="Grupo 165414" clip-path="url(#clip-path-17)">
                <path id="Trazado_236931" data-name="Trazado 236931" d="M339.973,146.957c-.014-.476-.076-1.035-.489-1.273a.936.936,0,0,0-.862.014,2.435,2.435,0,0,0-.689.568,11.666,11.666,0,0,0-2.543,4.063l4.664-.4c-.03-.984-.051-1.986-.082-2.97" transform="translate(-335.391 -145.586)"/>
              </g>
            </g>
          </g>
          <g id="Grupo_165419" data-name="Grupo 165419" transform="translate(335.707 122.819)" opacity="0.3">
            <g id="Grupo_165418" data-name="Grupo 165418">
              <g id="Grupo_165417" data-name="Grupo 165417" clip-path="url(#clip-path-18)">
                <path id="Trazado_236932" data-name="Trazado 236932" d="M356.307,136.344a15.277,15.277,0,0,0-3.38-7.224c2.008,6.583,1.336,10.3.206,14.8l.243-.63c1.3-2.635,3.287-4.283,2.93-6.951" transform="translate(-352.926 -129.119)"/>
              </g>
            </g>
          </g>
          <path id="Trazado_236933" data-name="Trazado 236933" d="M345.441,369.078,342.6,411.743l-18.549-.219-2.921-44.356Z" transform="translate(-15.668 -17.914)" fill="#ffbe9d"/>
          <path id="Trazado_236934" data-name="Trazado 236934" d="M343.208,408.1l0,1.234s20.909,8.415,21.128,12.384l-41.529-.243.646-13.816a23.756,23.756,0,0,0,19.751.442" transform="translate(-15.75 -19.89)" fill="#e8505b"/>
          <path id="Trazado_236935" data-name="Trazado 236935" d="M327.822,412.328a1.7,1.7,0,0,0-1.184,1.928,1.631,1.631,0,0,0,1.9,1.191,1.789,1.789,0,0,0,1.243-2.049,1.691,1.691,0,0,0-2.115-1.019" transform="translate(-15.935 -20.114)" fill="#fff"/>
          <path id="Trazado_236936" data-name="Trazado 236936" d="M322.811,422.015l.155-3.323,39.746,1.45s1.844.815,1.628,2.116Z" transform="translate(-15.75 -20.428)" fill="#263238"/>
          <path id="Trazado_236937" data-name="Trazado 236937" d="M344.216,409.535c-.008.2-1.023.288-2.024.935-1.019.62-1.538,1.5-1.724,1.413-.187-.04.123-1.251,1.349-2.012s2.445-.522,2.4-.337" transform="translate(-16.609 -19.972)" fill="#263238"/>
          <path id="Trazado_236938" data-name="Trazado 236938" d="M348.837,411.462c.046.2-.835.536-1.529,1.391-.719.832-.9,1.759-1.1,1.749-.191.03-.324-1.158.558-2.2s2.067-1.13,2.07-.937" transform="translate(-16.885 -20.071)" fill="#263238"/>
          <path id="Trazado_236939" data-name="Trazado 236939" d="M351.535,416.783c-.185.043-.46-.973.067-2.08s1.478-1.544,1.563-1.374c.114.167-.505.76-.925,1.676-.44.906-.5,1.76-.7,1.779" transform="translate(-17.14 -20.165)" fill="#263238"/>
          <path id="Trazado_236940" data-name="Trazado 236940" d="M340.993,40.688c1.07-2.668-.226-5.894-2.543-7.6a11.045,11.045,0,0,0-8.241-1.621,32.758,32.758,0,0,0-8.125,2.808,9.171,9.171,0,0,0-15.568,5.083,5.83,5.83,0,0,0-6.908,7.656l12.858,4.516,14.042,24.7A11.233,11.233,0,0,0,343.038,61.3a9.639,9.639,0,0,0,1.973-2.44,9.839,9.839,0,0,0,4.544-6.085,10.391,10.391,0,0,0-8.562-12.086" transform="translate(-14.601 -1.527)" fill="#263238"/>
          <path id="Trazado_236941" data-name="Trazado 236941" d="M332.557,92.657c-.8-4.021-1.355-6.775-1.347-6.746,0,0,7.581-2.952,7.059-13.541C338.009,67.1,336,58.8,334.137,52.061c-1.678-6.067-7.333-12.756-13.324-10.823L302.7,50.087c-1.82.587-2.138,2.3-1.709,4.159l.03.908,7.048,29.162,2.977,13.034a11.011,11.011,0,0,0,21.512-4.693" transform="translate(-14.677 -1.995)" fill="#ffbe9d"/>
          <path id="Trazado_236942" data-name="Trazado 236942" d="M335.584,59.99a1.344,1.344,0,0,1-.989,1.592,1.285,1.285,0,0,1-1.6-.9,1.344,1.344,0,0,1,.988-1.592,1.285,1.285,0,0,1,1.6.9" transform="translate(-16.245 -2.881)" fill="#263238"/>
          <path id="Trazado_236943" data-name="Trazado 236943" d="M334.631,57.863c-.126.205-1.277-.322-2.691-.022-1.416.28-2.3,1.225-2.491,1.084-.091-.061.009-.405.393-.829a3.684,3.684,0,0,1,1.95-1.08,3.538,3.538,0,0,1,2.186.231c.505.243.717.522.654.615" transform="translate(-16.072 -2.778)" fill="#263238"/>
          <path id="Trazado_236944" data-name="Trazado 236944" d="M321.114,63.307a1.344,1.344,0,0,1-.989,1.592,1.284,1.284,0,0,1-1.6-.9,1.343,1.343,0,0,1,.987-1.592,1.285,1.285,0,0,1,1.6.9" transform="translate(-15.539 -3.043)" fill="#263238"/>
          <path id="Trazado_236945" data-name="Trazado 236945" d="M320.254,61.388c-.127.205-1.278-.322-2.691-.022-1.416.28-2.3,1.225-2.491,1.084-.091-.061.008-.405.393-.829a3.681,3.681,0,0,1,1.949-1.08,3.541,3.541,0,0,1,2.187.231c.5.243.717.522.653.615" transform="translate(-15.371 -2.95)" fill="#263238"/>
          <path id="Trazado_236946" data-name="Trazado 236946" d="M327.891,70.243a9.533,9.533,0,0,1,2.211-.9c.353-.113.68-.257.689-.516a1.88,1.88,0,0,0-.465-1.021l-1.646-2.525c-2.3-3.6-4.053-6.6-3.908-6.69s2.133,2.756,4.437,6.36q.839,1.336,1.6,2.551a2.135,2.135,0,0,1,.485,1.378.925.925,0,0,1-.483.653,2.445,2.445,0,0,1-.6.214,9.441,9.441,0,0,1-2.328.492" transform="translate(-15.845 -2.859)" fill="#263238"/>
          <path id="Trazado_236947" data-name="Trazado 236947" d="M332.026,88.18a26.637,26.637,0,0,1-14.493-.782s4.98,6.507,15.035,3.4Z" transform="translate(-15.492 -4.264)" fill="#eb996e"/>
          <path id="Trazado_236948" data-name="Trazado 236948" d="M320.47,59.275c-.094.407-1.549.4-3.207.8-1.667.376-2.964,1.033-3.23.712-.12-.156.072-.553.575-1a5.749,5.749,0,0,1,4.9-1.155c.648.174,1,.442.958.634" transform="translate(-15.32 -2.854)" fill="#263238"/>
          <path id="Trazado_236949" data-name="Trazado 236949" d="M334.039,53.132c-.227.382-1.45.291-2.838.566-1.4.234-2.515.753-2.856.474-.152-.138-.035-.5.414-.91a4.558,4.558,0,0,1,2.193-1.009,4.5,4.5,0,0,1,2.4.171c.559.227.789.525.693.709" transform="translate(-16.017 -2.545)" fill="#263238"/>
          <path id="Trazado_236950" data-name="Trazado 236950" d="M307.452,43.147a7.163,7.163,0,0,0,9.713,5.21c1.508-.612,3.06-1.76,4.589-1.206,1.609.582,2.114,2.72,3.606,3.555,2.133,1.194,4.7-.874,7.137-.67,1.881.158,3.34,1.622,4.812,2.8s3.518,2.17,5.18,1.276a21.275,21.275,0,0,0-1.685-4.581,7.136,7.136,0,0,0-3.483-3.295,26.773,26.773,0,0,1-2.54-.848c-1.717-.883-2.486-2.878-3.739-4.348a7.852,7.852,0,0,0-6.662-2.67c-2.06.212-4.013,1.249-6.082,1.16-1.529-.065-2.993-.745-4.524-.719-2.981.05-5.219,2.661-6.872,5.141" transform="translate(-14.974 -1.87)" fill="#263238"/>
          <path id="Trazado_236951" data-name="Trazado 236951" d="M316.745,45.474c-1.361-.1-4.164-.388-5.085-1.359a8.021,8.021,0,0,0-7.65-2.509,6.622,6.622,0,0,0-4.774,6.336,9.524,9.524,0,0,0-6.944,6.822,11.039,11.039,0,0,0,2.376,9.992,19.794,19.794,0,0,1,1.561,2.26,16.19,16.19,0,0,0-1.692,2.566c-2.174,4.812,3.727,6.656,3.727,6.656.016,3.235,3,3.22,4.911,3.21,1.839-.01,2.971,5.091,4.459,4.892l-1.512-15.753a1.972,1.972,0,0,0,.7.126c3.606.065,2.664-6.756,1.5-8.522a20.43,20.43,0,0,0,2.7-4.351,14.745,14.745,0,0,0,.14-7.293c1.257-.185,6.184-3.029,5.586-3.073" transform="translate(-14.244 -2.019)" fill="#263238"/>
          <path id="Trazado_236952" data-name="Trazado 236952" d="M307.107,70.738a3.053,3.053,0,0,0-4.9-1.636c-.914.815-1.457,2.186-.882,4.482,1.536,6.124,7.366,3.319,7.333,3.141-.021-.111-.89-3.459-1.548-5.987" transform="translate(-14.69 -3.337)" fill="#ffbe9d"/>
          <path id="Trazado_236953" data-name="Trazado 236953" d="M306.29,74.971c-.032-.012-.088.1-.247.229a1.1,1.1,0,0,1-.793.217c-.707-.075-1.509-.966-1.815-2.062a3.617,3.617,0,0,1-.085-1.6,1.271,1.271,0,0,1,.6-1.021.561.561,0,0,1,.7.135c.126.15.117.283.152.285s.106-.136-.008-.377a.7.7,0,0,0-.337-.323.828.828,0,0,0-.629-.008,1.544,1.544,0,0,0-.876,1.229,3.725,3.725,0,0,0,.058,1.8c.348,1.223,1.27,2.22,2.219,2.253a1.18,1.18,0,0,0,.935-.406c.151-.2.149-.344.126-.35" transform="translate(-14.777 -3.434)" fill="#eb996e"/>
          <path id="Trazado_236954" data-name="Trazado 236954" d="M340.436,60.922c-.038-.047.554-.427,1.336-1.383a9,9,0,0,0,1.912-4.757,8.758,8.758,0,0,0-.341-3.527,7.562,7.562,0,0,0-2.174-3.379,8.938,8.938,0,0,0-8.743-1.7c-.286.092-.552.235-.823.347-.26.136-.505.289-.748.425l-.378.212,0-.419a3.091,3.091,0,0,0-.77-2,4.914,4.914,0,0,0-1.757-1.256,6.483,6.483,0,0,0-4.084-.3c-2.625.6-4.852,1.8-6.955,2.037a6.726,6.726,0,0,1-4.745-.953,3.873,3.873,0,0,1-.93-.951,1.624,1.624,0,0,1-.211-.412,5.435,5.435,0,0,0,1.246,1.211,6.7,6.7,0,0,0,4.594.77,16.5,16.5,0,0,0,3.194-.922,28.83,28.83,0,0,1,3.714-1.217,8.236,8.236,0,0,1,2.15-.215,6.628,6.628,0,0,1,2.216.51,5.383,5.383,0,0,1,1.939,1.377,3.581,3.581,0,0,1,.892,2.318l-.382-.207c.259-.147.52-.31.8-.456.289-.12.573-.272.877-.37a9.346,9.346,0,0,1,9.216,1.829,7.932,7.932,0,0,1,2.262,3.6,9,9,0,0,1,.3,3.687,8.894,8.894,0,0,1-2.113,4.843,6.309,6.309,0,0,1-1.061.984,1.93,1.93,0,0,1-.422.275" transform="translate(-15.175 -2.075)" fill="#455a64"/>
          <path id="Trazado_236955" data-name="Trazado 236955" d="M339.231,39.076a6.886,6.886,0,0,0-1.971-.676,5.215,5.215,0,0,0-2.341.212,4.626,4.626,0,0,0-2.411,1.753l-.232.335-.144-.38a7.152,7.152,0,0,0-5.8-4.308,9.236,9.236,0,0,0-5.577,1.611,24.657,24.657,0,0,1-4.421,2.288,6.958,6.958,0,0,1-3.346.394,4.2,4.2,0,0,1-.888-.244c-.193-.084-.29-.135-.283-.15.015-.045.424.126,1.2.2a7.294,7.294,0,0,0,3.2-.532,26.755,26.755,0,0,0,4.31-2.352,15.118,15.118,0,0,1,2.665-1.3,7.242,7.242,0,0,1,3.194-.409,7.5,7.5,0,0,1,6.15,4.648l-.376-.044a4.917,4.917,0,0,1,2.661-1.845,5.253,5.253,0,0,1,2.485-.125,4.463,4.463,0,0,1,1.491.57,1.593,1.593,0,0,1,.439.353" transform="translate(-15.213 -1.731)" fill="#455a64"/>
          <path id="Trazado_236956" data-name="Trazado 236956" d="M327.295,73.771a2.072,2.072,0,0,0-1.671-.485,2.448,2.448,0,0,0-1.6,1.17l-.025.036c-.015.027-.039.05-.052.078l.023-.016a1.175,1.175,0,0,0-.179.718,1.73,1.73,0,0,0,.994,1.287,2.188,2.188,0,0,0,2.492-.361,1.785,1.785,0,0,0,.021-2.427" transform="translate(-15.797 -3.575)" fill="#e8505b"/>
          <path id="Trazado_236957" data-name="Trazado 236957" d="M327.753,76.776c-.074.014-.166-.283-.419-.681a2.981,2.981,0,0,0-3.089-1.4c-.466.07-.752.2-.789.13-.034-.049.2-.295.7-.471a2.815,2.815,0,0,1,3.483,1.585c.2.5.168.833.108.841" transform="translate(-15.781 -3.621)" fill="#263238"/>
          <path id="Trazado_236958" data-name="Trazado 236958" d="M307.374,78.07c.047-.029.272.477-.085,1.2a1.933,1.933,0,0,1-1.014.916,1.969,1.969,0,0,1-2.583-1.626,1.937,1.937,0,0,1,.389-1.311c.5-.634,1.049-.648,1.043-.594.032.075-.417.216-.752.789a1.725,1.725,0,0,0-.225,1.066,1.587,1.587,0,0,0,1.978,1.245,1.724,1.724,0,0,0,.864-.664c.372-.55.3-1.017.386-1.02" transform="translate(-14.817 -3.739)" fill="#e8505b"/>
          <path id="Trazado_236959" data-name="Trazado 236959" d="M304.076,77.668c.053.025-.029.324-.442.527a1.207,1.207,0,0,1-.79.077,1.267,1.267,0,0,1-.87-1.608,1.205,1.205,0,0,1,.5-.619c.4-.236.692-.141.682-.083.006.074-.233.124-.469.361a.9.9,0,0,0,.834,1.542c.328-.068.5-.241.558-.2" transform="translate(-14.73 -3.703)" fill="#e8505b"/>
          <path id="Trazado_236960" data-name="Trazado 236960" d="M315.181,165.279s23.551,1.366,37.471,1.493c10.784.1,15.589-2.765,17.745-9.692,1.81-5.818-2.079-16.971-2.079-16.971-7.29.037-11.79,1.042-16.483,3.241l1.25,5.1-37.972,3.274Z" transform="translate(-15.374 -6.836)" fill="#ffbe9d"/>
          <path id="Trazado_236961" data-name="Trazado 236961" d="M362.938,154.312a13.743,13.743,0,0,0-8.139-5.548,3.368,3.368,0,0,1,1.51.132,10.081,10.081,0,0,1,5.954,4.058,3.364,3.364,0,0,1,.674,1.358" transform="translate(-17.311 -7.256)" fill="#eb996e"/>
          <path id="Trazado_236962" data-name="Trazado 236962" d="M305.47,141.807h0a45.555,45.555,0,0,0-12.634,5.324l5.689,15.47c1.9,5.077,7.721,7.572,12.332,4.938,7.164-4.093,9.689-16.041,9.689-16.041l7.872-34.128-13.04-8.172Z" transform="translate(-14.288 -5.328)" fill="#ffbe9d"/>
          <path id="Trazado_236963" data-name="Trazado 236963" d="M316.405,107.934l.526-11.224L314.02,85.342c-.162-.63-.242-1.415.269-1.8a1.384,1.384,0,0,1,1.758.056c.8.814,4.6,10.8,4.6,10.8s5.771-3.468,6.8-3.637,2.314,2.936,2.394,3.182a18.109,18.109,0,0,1,.01,2.087s3.569.107,3.889.6a12.245,12.245,0,0,1,.412,3.027s1.509.484,1.752,1.629.729,3.027.017,3.44-2.213,1.239-2.213,1.239-.6,5.823-.761,6.353a36.1,36.1,0,0,1-3.5,3.791Z" transform="translate(-15.315 -4.062)" fill="#ffbe9d"/>
          <path id="Trazado_236964" data-name="Trazado 236964" d="M303.782,166.5c.015-.031.356.2,1.093.442a7.442,7.442,0,0,0,3.363.266,9.374,9.374,0,0,0,4.868-2.246,22.527,22.527,0,0,0,4.526-5.729,25.675,25.675,0,0,0,1.763-3.93,40.234,40.234,0,0,0,1.22-4.56c.747-3.206,1.551-6.656,2.406-10.323,1.717-7.338,3.636-15.541,5.7-24.377l.015-.066.049-.049c.654-.642,1.313-1.3,1.964-1.983.324-.34.65-.685.96-1.04a6.521,6.521,0,0,0,.432-.537c.111-.114.115-.344.159-.587.258-1.9.458-3.872.67-5.854l.013-.126.111-.063,1.813-1.016c.138-.082.342-.182.427-.25a.529.529,0,0,0,.171-.319,3.037,3.037,0,0,0,.011-.985,14.8,14.8,0,0,0-.422-2.068,2.549,2.549,0,0,0-1.514-1.221l-.164-.06-.008-.166c-.024-.551-.061-1.118-.123-1.682-.032-.282-.068-.566-.126-.835a1.585,1.585,0,0,0-.109-.353c-.03-.062-.015-.015-.059-.055a.919.919,0,0,0-.16-.068,16.792,16.792,0,0,0-3.483-.393l-.247-.012.008-.244c.017-.587.043-1.242.015-1.859a1.956,1.956,0,0,0-.222-.637c-.1-.229-.211-.456-.326-.678a8.17,8.17,0,0,0-.778-1.257,2.1,2.1,0,0,0-.483-.474.462.462,0,0,0-.506-.058,12.234,12.234,0,0,0-1.34.614c-1.776.924-3.5,1.933-5.192,2.937l-.248.147-.107-.267q-1.35-3.379-2.663-6.669l-1.3-3.264a1.354,1.354,0,0,0-1.045-.979,1.059,1.059,0,0,0-1.238.454,1.111,1.111,0,0,0-.145.678c.028.212.132.533.194.792l.431,1.638q.428,1.632.849,3.233l1.648,6.28.009.033,0,.034c-.189,3.906-.37,7.653-.543,11.222l0,.027-.007.024c-3.595,11.7-6.577,21.4-8.666,28.2-1.05,3.37-1.876,6.019-2.446,7.849q-.425,1.328-.658,2.058c-.152.464-.245.7-.245.7s.052-.247.185-.718q.213-.735.6-2.076c.544-1.838,1.334-4.5,2.337-7.882,2.049-6.813,4.973-16.531,8.5-28.25l-.009.05c.162-3.569.332-7.318.509-11.224l.008.067q-.815-3.073-1.664-6.275L313.7,87.25q-.215-.815-.433-1.637c-.069-.291-.155-.511-.209-.863a1.592,1.592,0,0,1,.205-.968,1.476,1.476,0,0,1,.77-.648,1.835,1.835,0,0,1,.984-.031,1.956,1.956,0,0,1,.871.443,1.922,1.922,0,0,1,.513.821q.648,1.619,1.307,3.263l2.67,6.668-.354-.12c1.7-1.011,3.421-2.019,5.219-2.956a12.622,12.622,0,0,1,1.411-.644,1.08,1.08,0,0,1,.479-.068,1.038,1.038,0,0,1,.451.18,2.567,2.567,0,0,1,.6.582,8.61,8.61,0,0,1,.83,1.336c.119.232.232.465.338.7a2.329,2.329,0,0,1,.264.808c.03.673,0,1.308-.015,1.91l-.24-.257a16.772,16.772,0,0,1,3.632.421,1.334,1.334,0,0,1,.245.107.6.6,0,0,1,.245.248,2,2,0,0,1,.157.482c.065.3.1.594.134.885.064.583.1,1.153.125,1.719l-.171-.225a3,3,0,0,1,1.818,1.5,14.38,14.38,0,0,1,.456,2.2,3.46,3.46,0,0,1-.023,1.156,1.011,1.011,0,0,1-.345.588,5.046,5.046,0,0,1-.485.288l-1.823,1.019.125-.187c-.214,1.987-.416,3.945-.679,5.873l-.06.369a.962.962,0,0,1-.177.415,6.652,6.652,0,0,1-.468.584c-.321.364-.649.712-.977,1.055-.658.684-1.319,1.345-1.979,1.991l.065-.114c-2.093,8.83-4.035,17.028-5.772,24.36-.872,3.663-1.692,7.11-2.454,10.313a40.276,40.276,0,0,1-1.257,4.587,25.892,25.892,0,0,1-1.811,3.966,22.6,22.6,0,0,1-4.63,5.757,9.467,9.467,0,0,1-5,2.23,7.329,7.329,0,0,1-3.408-.344,5.034,5.034,0,0,1-.809-.366,1.661,1.661,0,0,1-.259-.152" transform="translate(-14.822 -4.052)" fill="#eb996e"/>
          <path id="Trazado_236965" data-name="Trazado 236965" d="M330.417,96.651c0,.069-.322.106-.825.129A9.447,9.447,0,0,0,327.7,97a3.745,3.745,0,0,0-1.614.862c-.348.324-.5.6-.57.571s-.018-.365.308-.8a3.2,3.2,0,0,1,1.751-1.108,5.509,5.509,0,0,1,2.033-.1c.509.067.815.154.811.221" transform="translate(-15.881 -4.702)" fill="#eb996e"/>
          <path id="Trazado_236966" data-name="Trazado 236966" d="M327.731,96.715c-.128-.049-.136-.341-.019-.656s.318-.531.445-.482.137.341.019.656-.317.53-.445.482" transform="translate(-15.985 -4.663)" fill="#eb996e"/>
          <path id="Trazado_236967" data-name="Trazado 236967" d="M335.109,100.4a8.908,8.908,0,0,1-2.823.39,1.934,1.934,0,0,0-1.571.756c-.251.389-.167.712-.24.732-.046.043-.3-.322-.072-.889a1.55,1.55,0,0,1,.68-.755,3.012,3.012,0,0,1,1.143-.336,8.016,8.016,0,0,1,2.883.1" transform="translate(-16.116 -4.891)" fill="#eb996e"/>
          <path id="Trazado_236968" data-name="Trazado 236968" d="M334.671,104c.137.007.216.71.177,1.57s-.181,1.555-.318,1.549-.216-.71-.177-1.57.181-1.555.318-1.549" transform="translate(-16.313 -5.074)" fill="#eb996e"/>
          <path id="Trazado_236969" data-name="Trazado 236969" d="M338.845,130.656l.846-2.916a.8.8,0,0,1,1.334-.336l1.1,1.126.69-2.742a.8.8,0,0,1,1.491-.15l1.557,3.247Z" transform="translate(-16.532 -6.108)" fill="#fff"/>
          <path id="Trazado_236970" data-name="Trazado 236970" d="M345.89,130.385a25.148,25.148,0,0,1-6.838,1.693,25.151,25.151,0,0,1,6.838-1.693" transform="translate(-16.542 -6.36)" fill="#fff"/>
          <path id="Trazado_236971" data-name="Trazado 236971" d="M286.642,113.293c.023.019-.354.366-.846,1.13a9.677,9.677,0,0,0-1.29,3.592,25.958,25.958,0,0,0-.171,5.7c.1,2.153.279,4.516.542,6.989a122.745,122.745,0,0,0,2.007,12.576c.339,1.594.643,2.878.854,3.766l.245,1.022c.054.234.072.36.072.36s-.044-.119-.11-.349c-.08-.289-.173-.622-.282-1.013-.234-.882-.559-2.162-.915-3.755a111.434,111.434,0,0,1-2.068-12.584c-.263-2.477-.433-4.845-.528-7a25.413,25.413,0,0,1,.216-5.732,9.466,9.466,0,0,1,1.363-3.61,5.731,5.731,0,0,1,.91-1.088" transform="translate(-13.861 -5.528)" fill="#fff"/>
          <path id="Trazado_236972" data-name="Trazado 236972" d="M306.79,99.7a1.092,1.092,0,0,1-.214.117l-.628.3c-.544.259-1.33.641-2.274,1.163a82.216,82.216,0,0,0-7.147,4.467c-2.716,1.867-5.123,3.632-6.882,4.888l-2.088,1.479-.575.392a1.05,1.05,0,0,1-.208.126,1.115,1.115,0,0,1,.185-.158l.553-.422,2.052-1.53c1.736-1.285,4.132-3.069,6.852-4.939a71.435,71.435,0,0,1,7.194-4.427c.955-.507,1.753-.872,2.309-1.11l.644-.266a1.115,1.115,0,0,1,.229-.08" transform="translate(-13.992 -4.864)" fill="#fff"/>
          <path id="Trazado_236973" data-name="Trazado 236973" d="M354.6,105.807a.775.775,0,0,1-.159-.12l-.428-.371a16.851,16.851,0,0,0-1.666-1.242,33.892,33.892,0,0,0-6.115-3.1,61.847,61.847,0,0,0-6.52-2.169c-.848-.236-1.54-.409-2.017-.527l-.55-.14a.833.833,0,0,1-.189-.062.687.687,0,0,1,.2.023l.558.1c.483.1,1.181.247,2.036.466a52.813,52.813,0,0,1,6.558,2.121,31.022,31.022,0,0,1,6.12,3.163,12.081,12.081,0,0,1,2.174,1.849" transform="translate(-16.44 -4.785)" fill="#fff"/>
          <path id="Trazado_236974" data-name="Trazado 236974" d="M307.92,182.119a1.356,1.356,0,0,1-.371-.127,6.3,6.3,0,0,1-.944-.505,4.587,4.587,0,0,1-2.069-2.8,5.48,5.48,0,0,1,.368-3.48,4.8,4.8,0,0,1,.551-.92,1.294,1.294,0,0,1,.264-.29,11.171,11.171,0,0,0-.687,1.266,5.631,5.631,0,0,0-.3,3.38,4.634,4.634,0,0,0,1.955,2.73c.73.508,1.252.714,1.236.749" transform="translate(-14.852 -8.489)" fill="#fff"/>
          <path id="Trazado_236975" data-name="Trazado 236975" d="M304.917,171.708a4.2,4.2,0,0,1,.453,1.194,4.154,4.154,0,0,1,.262,1.25,8.257,8.257,0,0,1-.714-2.444" transform="translate(-14.876 -8.378)" fill="#fff"/>
          <path id="Trazado_236976" data-name="Trazado 236976" d="M317.226,385.5l29.016-.146-.526-100.314-.27-102.036-39.3-.488-7.065,13.319a47.836,47.836,0,0,0-5.435,17.262c-.494,4.61,2.96,19.642,4.166,23.468l10.816,34.3Z" transform="translate(-14.325 -8.905)" fill="#263238"/>
          <path id="Trazado_236977" data-name="Trazado 236977" d="M355.522,183.171,387.4,270.084a40.092,40.092,0,0,1-3.93,33.957l-37.015,72.249-20.812-26.037,30.971-64.723-27.3-44.235,4.594-58.031,12.86-.206Z" transform="translate(-15.888 -8.931)" fill="#263238"/>
          <path id="Trazado_236978" data-name="Trazado 236978" d="M345.318,213.787s.024.15.045.445c.02.318.048.752.083,1.31.063,1.176.153,2.869.268,5.039.213,4.4.519,10.726.9,18.534.361,7.833.789,17.15,1.265,27.495.233,5.174.478,10.605.731,16.234.181,2.815.1,5.684.132,8.594q.013,4.366.027,8.852c.04,23.9.076,45.544.1,61.232-.01,7.817-.019,14.151-.026,18.555-.013,2.173-.024,3.868-.031,5.044-.01.56-.016,1-.021,1.313-.008.295-.024.447-.024.447s-.018-.151-.027-.447c-.008-.317-.016-.752-.029-1.312-.014-1.177-.035-2.873-.061-5.044-.031-4.4-.076-10.737-.132-18.553-.063-15.686-.151-37.323-.247-61.226q-.013-4.482-.024-8.85c-.032-2.91.053-5.78-.125-8.593-.244-5.629-.478-11.061-.7-16.234-.436-10.342-.828-19.661-1.159-27.493-.312-7.811-.564-14.141-.739-18.541-.076-2.171-.135-3.866-.176-5.042-.014-.559-.025-.995-.033-1.312,0-.3.006-.448.006-.448" transform="translate(-16.848 -10.431)" fill="#455a64"/>
          <path id="Trazado_236979" data-name="Trazado 236979" d="M344.554,184.98a3.73,3.73,0,0,1,.2.945c.1.612.216,1.5.342,2.6.256,2.2.521,5.251.674,8.628s.161,6.44.107,8.654c-.029,1.107-.066,2-.108,2.622a3.609,3.609,0,0,1-.116.959,29.545,29.545,0,0,1-.127-3.581c-.034-2.211-.1-5.262-.25-8.631s-.362-6.413-.528-8.617a28.837,28.837,0,0,1-.2-3.578" transform="translate(-16.81 -9.025)" fill="#455a64"/>
          <path id="Trazado_236980" data-name="Trazado 236980" d="M337.779,187.025a2.322,2.322,0,0,0-.644,1.084,1.234,1.234,0,0,0,.369,1.159,1.266,1.266,0,0,0,2.162-.989,1.23,1.23,0,0,0-.636-1.037,2.322,2.322,0,0,0-1.241-.222c-.013-.026.091-.126.337-.2a1.624,1.624,0,0,1,2,1.431,1.7,1.7,0,0,1-2.934,1.344,1.624,1.624,0,0,1,.222-2.446c.214-.14.359-.153.369-.127" transform="translate(-16.429 -9.113)" fill="#455a64"/>
          <path id="Trazado_236981" data-name="Trazado 236981" d="M321.049,185.227a2.853,2.853,0,0,1,.261.91,9.032,9.032,0,0,1,.084,2.585,10.391,10.391,0,0,1-1.1,3.685,9.753,9.753,0,0,1-7.434,5.336,10.383,10.383,0,0,1-3.843-.139,9.018,9.018,0,0,1-2.422-.907,2.849,2.849,0,0,1-.779-.537,16.547,16.547,0,0,0,3.271,1.1,9.987,9.987,0,0,0,11.957-8.584,16.472,16.472,0,0,0,0-3.452" transform="translate(-14.921 -9.037)" fill="#455a64"/>
          <path id="Trazado_236982" data-name="Trazado 236982" d="M360.671,193.55a3.848,3.848,0,0,1-1.827-.216,8.487,8.487,0,0,1-5.766-6.353,3.848,3.848,0,0,1-.039-1.84c.088,0,.093.7.38,1.76a9.2,9.2,0,0,0,5.538,6.1c1.028.388,1.725.46,1.715.548" transform="translate(-17.221 -9.033)" fill="#455a64"/>
          <path id="Trazado_236983" data-name="Trazado 236983" d="M372.367,292.341a5.985,5.985,0,0,1-1.682,1.337,7.786,7.786,0,0,1-2.164.946,5.226,5.226,0,0,1-2.92-.078,8.485,8.485,0,0,1-4.064-3.234,7.482,7.482,0,0,1-1.115-1.83,11.765,11.765,0,0,1,1.39,1.614,9.018,9.018,0,0,0,3.94,2.978,6.1,6.1,0,0,0,4.76-.7,19.948,19.948,0,0,1,1.855-1.033" transform="translate(-17.585 -14.124)" fill="#455a64"/>
          <path id="Trazado_236984" data-name="Trazado 236984" d="M365.057,297.92a47.167,47.167,0,0,1-5.6-7.877,47.276,47.276,0,0,1,5.6,7.877" transform="translate(-17.538 -14.151)" fill="#455a64"/>
          <path id="Trazado_236985" data-name="Trazado 236985" d="M314.041,217.2c-.127.05-.466-.5-.756-1.223s-.423-1.357-.3-1.408.465.5.756,1.223.423,1.357.3,1.408" transform="translate(-15.268 -10.469)" fill="#fafafa"/>
          <path id="Trazado_236986" data-name="Trazado 236986" d="M333.446,219.992c-.137,0-.247-.471-.247-1.052s.11-1.053.247-1.053.247.472.247,1.053-.11,1.052-.247,1.052" transform="translate(-16.257 -10.631)" fill="#fafafa"/>
          <path id="Trazado_236987" data-name="Trazado 236987" d="M325.485,230.478c-.136.009-.287-.573-.337-1.3s.022-1.323.158-1.333.287.573.337,1.3-.022,1.322-.158,1.332" transform="translate(-15.863 -11.117)" fill="#fafafa"/>
          <path id="Trazado_236988" data-name="Trazado 236988" d="M310.863,238.282c-.113.084-.506-.267-1.015-.633s-.959-.637-.915-.77.63-.051,1.206.37.833.958.724,1.033" transform="translate(-15.073 -11.555)" fill="#fafafa"/>
          <path id="Trazado_236989" data-name="Trazado 236989" d="M336.592,248.048c-.114-.076.029-.491.321-.926s.618-.728.732-.653-.03.491-.321.927-.618.728-.732.652" transform="translate(-16.42 -12.025)" fill="#fafafa"/>
          <path id="Trazado_236990" data-name="Trazado 236990" d="M320.722,250.716c-.137,0-.247-.786-.247-1.754s.11-1.754.247-1.754.247.785.247,1.754-.11,1.754-.247,1.754" transform="translate(-15.636 -12.061)" fill="#fafafa"/>
          <path id="Trazado_236991" data-name="Trazado 236991" d="M315.5,262.04c-.081.11-.577-.113-1.111-.5s-.9-.791-.819-.9.577.113,1.11.5.9.791.82.9" transform="translate(-15.298 -12.715)" fill="#fafafa"/>
          <path id="Trazado_236992" data-name="Trazado 236992" d="M331.534,266.014c.055.125-.253.384-.689.577s-.834.249-.89.125.253-.383.69-.577.834-.249.889-.125" transform="translate(-16.098 -12.976)" fill="#fafafa"/>
          <path id="Trazado_236993" data-name="Trazado 236993" d="M320.644,284.094c-.123.061-.614-.674-1.1-1.644s-.778-1.8-.655-1.864.614.674,1.1,1.644.778,1.8.655,1.864" transform="translate(-15.557 -13.69)" fill="#fafafa"/>
          <path id="Trazado_236994" data-name="Trazado 236994" d="M338.436,282.479c-.121-.065.1-.706.483-1.432s.8-1.263.92-1.2-.1.7-.483,1.433-.8,1.263-.92,1.2" transform="translate(-16.511 -13.654)" fill="#fafafa"/>
          <path id="Trazado_236995" data-name="Trazado 236995" d="M330.664,297.933c-.141-.021-.129-.771-.275-1.665s-.379-1.6-.251-1.668.588.61.74,1.591-.086,1.768-.214,1.742" transform="translate(-16.106 -14.373)" fill="#fafafa"/>
          <path id="Trazado_236996" data-name="Trazado 236996" d="M322.3,306.856c-.1.092-.576-.265-1.061-.8s-.8-1.04-.693-1.131.575.264,1.061.8.794,1.039.693,1.131" transform="translate(-15.639 -14.877)" fill="#fafafa"/>
          <path id="Trazado_236997" data-name="Trazado 236997" d="M342.534,310.214c-.1-.1.252-.609.781-1.145s1.036-.9,1.134-.8-.252.61-.781,1.146-1.037.894-1.134.8" transform="translate(-16.711 -15.04)" fill="#fafafa"/>
          <path id="Trazado_236998" data-name="Trazado 236998" d="M330.947,323.4c-.136-.021-.138-.746,0-1.619s.349-1.566.484-1.546.137.746,0,1.62-.349,1.565-.484,1.545" transform="translate(-16.142 -15.624)" fill="#fafafa"/>
          <path id="Trazado_236999" data-name="Trazado 236999" d="M323.081,329.866c-.118.069-.534-.421-.928-1.095s-.618-1.276-.5-1.346.534.421.928,1.1.618,1.276.5,1.345" transform="translate(-15.692 -15.975)" fill="#fafafa"/>
          <path id="Trazado_237000" data-name="Trazado 237000" d="M341.808,338.108c.08.111-.405.595-1.082,1.08s-1.292.789-1.372.677.405-.594,1.083-1.08,1.291-.789,1.371-.677" transform="translate(-16.557 -16.495)" fill="#fafafa"/>
          <path id="Trazado_237001" data-name="Trazado 237001" d="M326.292,348.461c-.133-.049.036-.815.116-1.761s.054-1.73.194-1.754.392.776.3,1.8-.488,1.767-.61,1.717" transform="translate(-15.917 -16.83)" fill="#fafafa"/>
          <path id="Trazado_237002" data-name="Trazado 237002" d="M332.464,363.662c-.107.086-.508-.238-.9-.722s-.615-.946-.508-1.032.507.238.9.722.614.946.508,1.032" transform="translate(-16.151 -17.657)" fill="#fafafa"/>
          <path id="Trazado_237003" data-name="Trazado 237003" d="M325.614,373.751c-.113.077-.636-.488-1.169-1.263s-.873-1.466-.761-1.544.636.488,1.169,1.263.873,1.467.761,1.544" transform="translate(-15.792 -18.098)" fill="#fafafa"/>
          <path id="Trazado_237004" data-name="Trazado 237004" d="M344.519,361.1c-.128-.048-.114-.4.031-.789s.366-.663.495-.614.114.4-.031.789-.366.663-.495.614" transform="translate(-16.805 -17.549)" fill="#fafafa"/>
          <path id="Trazado_237005" data-name="Trazado 237005" d="M336.223,385.166c-.126-.066.113-.743.3-1.59s.263-1.561.4-1.567.286.753.079,1.674-.667,1.549-.781,1.483" transform="translate(-16.403 -18.638)" fill="#fafafa"/>
          <path id="Trazado_237006" data-name="Trazado 237006" d="M341.569,230.676c-.124.058-.425-.324-.673-.855s-.349-1.006-.224-1.064.425.324.673.855.348,1.006.224,1.064" transform="translate(-16.619 -11.161)" fill="#fafafa"/>
          <path id="Trazado_237007" data-name="Trazado 237007" d="M327.607,199.63c.075.121-.595.655-1.3,1.416s-1.2,1.457-1.33,1.391.2-.918.968-1.729,1.6-1.192,1.663-1.078" transform="translate(-15.854 -9.739)" fill="#fafafa"/>
          <path id="Trazado_237008" data-name="Trazado 237008" d="M340.034,199.135c-.138.029-.361-.536-.692-1.189s-.641-1.173-.536-1.266.621.323.98,1.045.38,1.389.248,1.41" transform="translate(-16.529 -9.595)" fill="#fafafa"/>
          <path id="Trazado_237009" data-name="Trazado 237009" d="M301.6,209.288c-.127-.05,0-.68.29-1.408s.625-1.277.751-1.226,0,.679-.29,1.409-.624,1.277-.751,1.225" transform="translate(-14.713 -10.083)" fill="#fafafa"/>
          <path id="Trazado_237010" data-name="Trazado 237010" d="M302.739,224.435c-.087.106-.63-.2-1.211-.687s-.982-.963-.894-1.067.63.2,1.211.687.982.963.894,1.067" transform="translate(-14.667 -10.864)" fill="#fafafa"/>
          <path id="Trazado_237011" data-name="Trazado 237011" d="M328.072,187.555c-.127.05-.387-.3-.581-.785s-.247-.919-.121-.969.387.3.581.785.248.919.121.969" transform="translate(-15.969 -9.065)" fill="#fafafa"/>
          <path id="Trazado_237012" data-name="Trazado 237012" d="M352.3,194.9c-.134-.029-.122-.6.027-1.279s.377-1.2.511-1.174.122.6-.027,1.279-.378,1.2-.511,1.174" transform="translate(-17.184 -9.39)" fill="#fafafa"/>
          <path id="Trazado_237013" data-name="Trazado 237013" d="M357.983,206.3c-.126-.052.046-.762.385-1.586s.716-1.449.843-1.4-.046.762-.385,1.586-.716,1.449-.843,1.4" transform="translate(-17.464 -9.92)" fill="#fafafa"/>
          <path id="Trazado_237014" data-name="Trazado 237014" d="M353.845,215.513c-.123.061-.575-.6-1.011-1.468s-.69-1.628-.568-1.689.575.6,1.011,1.468.691,1.628.568,1.689" transform="translate(-17.186 -10.361)" fill="#fafafa"/>
          <path id="Trazado_237015" data-name="Trazado 237015" d="M362.592,224.778c-.127-.049-.035-.6.207-1.229s.542-1.1.67-1.051.035.6-.207,1.229-.542,1.1-.67,1.051" transform="translate(-17.688 -10.856)" fill="#fafafa"/>
          <path id="Trazado_237016" data-name="Trazado 237016" d="M354.8,233.858c-.116.072-.406-.183-.649-.57s-.344-.761-.228-.833.406.183.649.571.344.76.228.832" transform="translate(-17.266 -11.341)" fill="#fafafa"/>
          <path id="Trazado_237017" data-name="Trazado 237017" d="M356.385,252.435c-.1.093-.692-.381-1.321-1.06s-1.06-1.3-.959-1.4.692.381,1.321,1.06,1.059,1.3.959,1.4" transform="translate(-17.276 -12.196)" fill="#fafafa"/>
          <path id="Trazado_237018" data-name="Trazado 237018" d="M366.552,241.734c-.107.085-.627-.4-1.16-1.075s-.878-1.3-.77-1.381.627.4,1.16,1.075.877,1.3.77,1.381" transform="translate(-17.789 -11.674)" fill="#fafafa"/>
          <path id="Trazado_237019" data-name="Trazado 237019" d="M372.218,256.477c-.124-.059.092-.772.482-1.6s.806-1.441.929-1.383-.092.772-.482,1.6-.806,1.442-.929,1.383" transform="translate(-18.159 -12.368)" fill="#fafafa"/>
          <path id="Trazado_237020" data-name="Trazado 237020" d="M360.266,268.674c-.122.073-.562-.456-1.176-1.015s-1.169-.964-1.1-1.09.772.107,1.44.727.955,1.315.84,1.378" transform="translate(-17.466 -13.004)" fill="#fafafa"/>
          <path id="Trazado_237021" data-name="Trazado 237021" d="M361.012,281.31c0,.137-.471.247-1.052.247s-1.053-.11-1.053-.247.471-.247,1.053-.247,1.052.11,1.052.247" transform="translate(-17.511 -13.713)" fill="#fafafa"/>
          <path id="Trazado_237022" data-name="Trazado 237022" d="M373.289,277.675c-.12-.073.125-.667.306-1.414s.254-1.383.4-1.393.3.682.086,1.512-.678,1.37-.788,1.295" transform="translate(-18.211 -13.411)" fill="#fafafa"/>
          <path id="Trazado_237023" data-name="Trazado 237023" d="M385.324,281.863c-.13.046-.48-.621-.786-1.488s-.445-1.608-.317-1.652.48.621.785,1.488.446,1.607.318,1.652" transform="translate(-18.744 -13.599)" fill="#fafafa"/>
          <path id="Trazado_237024" data-name="Trazado 237024" d="M383.455,299.051c-.121-.064.172-.862.654-1.783s.973-1.617,1.094-1.553-.172.862-.654,1.784-.973,1.616-1.094,1.552" transform="translate(-18.708 -14.428)" fill="#fafafa"/>
          <path id="Trazado_237025" data-name="Trazado 237025" d="M372.353,309.17c-.126.052-.517-.607-.872-1.472s-.541-1.608-.415-1.661.517.608.872,1.472.541,1.609.415,1.661" transform="translate(-18.102 -14.931)" fill="#fafafa"/>
          <path id="Trazado_237026" data-name="Trazado 237026" d="M360.108,313.212c0,.137-.393.247-.877.247s-.877-.11-.877-.247.393-.247.877-.247.877.11.877.247" transform="translate(-17.484 -15.27)" fill="#fafafa"/>
          <path id="Trazado_237027" data-name="Trazado 237027" d="M367.166,329.134c-.133.035-.4-.525-.591-1.252s-.244-1.344-.112-1.379.4.525.592,1.252.243,1.344.111,1.379" transform="translate(-17.876 -15.93)" fill="#fafafa"/>
          <path id="Trazado_237028" data-name="Trazado 237028" d="M358.352,323.831c-.117-.07.023-.52.314-1s.621-.82.738-.75-.023.52-.314,1-.621.82-.738.75" transform="translate(-17.482 -15.714)" fill="#fafafa"/>
          <path id="Trazado_237029" data-name="Trazado 237029" d="M358.146,341.471c-.136.016-.324-.638-.421-1.462s-.066-1.5.07-1.52.324.638.421,1.462.066,1.5-.07,1.52" transform="translate(-17.451 -16.515)" fill="#fafafa"/>
        </g>
      </g>
    </g>
  </g>
</svg>
