<svg id="Grupo_166537" data-name="Grupo 166537" xmlns="http://www.w3.org/2000/svg" xmlns:xlink="http://www.w3.org/1999/xlink" width="620" height="540.34" viewBox="0 0 620 540.34">
  <defs>
    <clipPath id="clip-path">
      <rect id="Rectángulo_52095" data-name="Rectángulo 52095" width="620" height="540.339" fill="none"/>
    </clipPath>
    <clipPath id="clip-path-5">
      <rect id="Rectángulo_52035" data-name="Rectángulo 52035" width="27.71" height="18.804" fill="none"/>
    </clipPath>
    <clipPath id="clip-path-8">
      <rect id="Rectángulo_52086" data-name="Rectángulo 52086" width="9.9" height="7.124" fill="none"/>
    </clipPath>
    <clipPath id="clip-path-9">
      <rect id="Rectángulo_52087" data-name="Rectángulo 52087" width="40.559" height="8.771" fill="none"/>
    </clipPath>
    <clipPath id="clip-path-10">
      <rect id="Rectángulo_52088" data-name="Rectángulo 52088" width="14.555" height="17.28" fill="none"/>
    </clipPath>
    <clipPath id="clip-path-11">
      <rect id="Rectángulo_52089" data-name="Rectángulo 52089" width="37.692" height="93.514" fill="none"/>
    </clipPath>
    <clipPath id="clip-path-13">
      <rect id="Rectángulo_52091" data-name="Rectángulo 52091" width="38.903" height="28.963" fill="none"/>
    </clipPath>
    <clipPath id="clip-path-14">
      <rect id="Rectángulo_52092" data-name="Rectángulo 52092" width="31.561" height="91.98" fill="none"/>
    </clipPath>
    <clipPath id="clip-path-15">
      <rect id="Rectángulo_52093" data-name="Rectángulo 52093" width="46.012" height="50.409" fill="none"/>
    </clipPath>
  </defs>
  <g id="Grupo_166536" data-name="Grupo 166536" clip-path="url(#clip-path)">
    <g id="Grupo_166501" data-name="Grupo 166501">
      <g id="Grupo_166500" data-name="Grupo 166500" clip-path="url(#clip-path)">
        <path id="Trazado_239170" data-name="Trazado 239170" d="M409.071,363.285c4.758-2.456,10.363-2.774,15.646-1.9,2.839.469,5.8,1.318,7.731,3.451s2.3,5.883.078,7.716a7.413,7.413,0,0,1-4.875,1.237c-4.136-.048-8.724-.777-12.031,1.712-1.883,1.419-3.138,3.781-5.392,4.479a5.334,5.334,0,0,1-5.866-2.61,9.112,9.112,0,0,1-.663-6.721,10.26,10.26,0,0,1,5.37-7.363" transform="translate(150.344 134.533)" fill="#ebebeb"/>
        <path id="Trazado_239171" data-name="Trazado 239171" d="M400.323,359.036c2.91,4.157,8.567,2.78,11.189.243s3.731-6.214,4.74-9.72c2.306-8.013,4.63-16.416,2.916-24.576a13.644,13.644,0,0,0-3.138-6.681,7.131,7.131,0,0,0-6.759-2.25c-2.853.754-4.625,3.547-5.905,6.2a58.582,58.582,0,0,0-5.79,25.141c-.014,4.05.464,8.3,2.748,11.639" transform="translate(148.187 117.732)" fill="#ebebeb"/>
        <path id="Trazado_239172" data-name="Trazado 239172" d="M402.856,361.368c3.16-3.75,3.76-9.221,2.354-13.918s-4.584-8.695-8.245-11.958a44.373,44.373,0,0,0-14.761-8.71,15.725,15.725,0,0,0-6.638-1.127,6.965,6.965,0,0,0-5.572,3.37c-1.554,2.962-.064,6.556,1.547,9.488a112.637,112.637,0,0,0,9.7,14.765c2.906,3.746,6.235,7.442,10.663,9.135s9.03,1.494,11.377-1.577" transform="translate(137.662 121.363)" fill="#ebebeb"/>
        <path id="Trazado_239173" data-name="Trazado 239173" d="M399.449,403.369a9.245,9.245,0,0,0,.262-1.889c.133-1.374.3-3.1.5-5.155a74.507,74.507,0,0,1,1.16-7.561,58.39,58.39,0,0,1,2.748-8.923,32.894,32.894,0,0,1,4.556-8.074,17.026,17.026,0,0,1,5.761-4.789,16.092,16.092,0,0,1,4.851-1.51,9,9,0,0,0,1.881-.273,8.913,8.913,0,0,0-1.914-.029,14.673,14.673,0,0,0-5.058,1.316,16.976,16.976,0,0,0-6.077,4.831,32.134,32.134,0,0,0-4.724,8.236,54.7,54.7,0,0,0-2.729,9.07,64.178,64.178,0,0,0-1,7.656c-.163,2.19-.225,3.962-.255,5.188a8.727,8.727,0,0,0,.041,1.907" transform="translate(148.865 136.1)" fill="#e0e0e0"/>
        <path id="Trazado_239174" data-name="Trazado 239174" d="M399.8,413.236a3.675,3.675,0,0,0,.051-.877c0-.658,0-1.488-.007-2.505-.005-2.176,0-5.322.111-9.21.194-7.772.862-16.139,2.155-27.932,1.224-11.092,2.868-24,4.6-32.389.372-1.908.745-3.627,1.1-5.13.336-1.507.623-2.807.9-3.857.237-.991.431-1.8.586-2.437a3.733,3.733,0,0,0,.152-.865,3.776,3.776,0,0,0-.3.822c-.191.63-.431,1.425-.728,2.4-.323,1.042-.653,2.332-1.031,3.834-.393,1.5-.806,3.211-1.213,5.116a284.4,284.4,0,0,0-4.838,30.054c-1.3,11.818-1.878,22.58-1.93,30.373-.047,3.9.037,7.05.136,9.226.062,1.019.113,1.848.154,2.505a3.618,3.618,0,0,0,.106.87" transform="translate(148.865 122.267)" fill="#e0e0e0"/>
        <path id="Trazado_239175" data-name="Trazado 239175" d="M407.269,390.758a16.68,16.68,0,0,0-.018-2.618c-.1-1.683-.328-4.114-.8-7.093a93.618,93.618,0,0,0-2.308-10.334,84.628,84.628,0,0,0-4.321-12.228,65.143,65.143,0,0,0-12.691-19.76,32.415,32.415,0,0,0-2.984-2.776c-.458-.387-.863-.773-1.277-1.079l-1.157-.8a16.64,16.64,0,0,0-2.2-1.411c-.125.17,3.123,2.082,7.225,6.445a68.662,68.662,0,0,1,12.374,19.689,96.955,96.955,0,0,1,4.346,12.116c1.132,3.8,1.886,7.291,2.454,10.232.541,2.949.854,5.355,1.042,7.023a17.011,17.011,0,0,0,.321,2.593" transform="translate(141.451 123.99)" fill="#e0e0e0"/>
        <path id="Trazado_239176" data-name="Trazado 239176" d="M457.445,106.943l-74.513,22.414a6.842,6.842,0,0,1-8.525-4.582l-30.2-100.4a6.845,6.845,0,0,1,4.582-8.526L400.892.175l37.444,19.48,23.692,78.762a6.844,6.844,0,0,1-4.582,8.526" transform="translate(128.186 0.065)" fill="#e0e0e0"/>
        <path id="Trazado_239177" data-name="Trazado 239177" d="M385.368,0l6,19.953A9.325,9.325,0,0,0,402.986,26.2l19.9-6.474Z" transform="translate(143.637)" fill="#ebebeb"/>
        <path id="Trazado_239178" data-name="Trazado 239178" d="M432.03,79.336a1.645,1.645,0,0,1-.089-.237c-.059-.181-.132-.4-.224-.681l-.829-2.633-3.072-9.937-10.79-35.323.382.2L366.6,46.068c-.059.1.449-.837.236-.435l0,.012.008.026.015.052.032.1.063.21.126.419.251.835.5,1.665q.5,1.662,1,3.31.988,3.3,1.96,6.529l3.791,12.633,6.916,23.11-.387-.209,36.786-10.9,10.394-3.041,2.763-.793.721-.2a1.735,1.735,0,0,1,.258-.059,1,1,0,0,1-.214.082l-.678.222-2.686.846c-2.411.747-5.882,1.819-10.279,3.178l-36.887,11.26-.3.091-.091-.3-6.982-23.091Q372.06,65.47,370.109,59q-.974-3.231-1.966-6.527l-1-3.31-.5-1.665-.251-.835-.125-.419-.063-.209-.032-.106-.016-.052-.007-.026,0-.012c-.216.393.287-.553.242-.456l50.843-15.241.3-.089.088.3c4.358,14.716,7.991,26.977,10.545,35.6,1.24,4.243,2.218,7.59,2.9,9.917q.476,1.662.744,2.6c.073.27.132.485.18.659a.945.945,0,0,1,.047.216" transform="translate(136.453 11.201)" fill="#fff"/>
        <path id="Trazado_239179" data-name="Trazado 239179" d="M399.382,85.33c-.189.058-3.635-10.845-7.7-24.347s-7.2-24.5-7.013-24.554,3.635,10.843,7.7,24.349,7.2,24.495,7.012,24.551" transform="translate(143.374 13.578)" fill="#fff"/>
        <path id="Trazado_239180" data-name="Trazado 239180" d="M425.214,57.267c.056.189-11.321,3.779-25.409,8.017s-25.56,7.521-25.618,7.333S385.505,68.839,399.6,64.6s25.559-7.521,25.615-7.332" transform="translate(139.469 21.342)" fill="#fff"/>
        <path id="Trazado_239181" data-name="Trazado 239181" d="M422.905,48.058c.056.189-11.321,3.779-25.409,8.017s-25.56,7.521-25.618,7.333S383.2,59.63,397.29,55.39s25.559-7.521,25.615-7.332" transform="translate(138.609 17.91)" fill="#fff"/>
        <path id="Trazado_239182" data-name="Trazado 239182" d="M419.786,39.061c.056.189-11.234,3.753-25.216,7.959s-25.368,7.464-25.424,7.274,11.232-3.752,25.218-7.959,25.365-7.464,25.422-7.274" transform="translate(137.59 14.556)" fill="#fff"/>
        <path id="Trazado_239183" data-name="Trazado 239183" d="M41.2,170.953,2.825,164.072a3.429,3.429,0,0,1-2.77-3.981l9.271-51.709a3.43,3.43,0,0,1,3.981-2.77l26.835,4.811,12.313,17.195-7.274,40.565a3.43,3.43,0,0,1-3.981,2.77" transform="translate(0 39.344)" fill="#e0e0e0"/>
        <path id="Trazado_239184" data-name="Trazado 239184" d="M29.779,109.012l-1.842,10.276a4.672,4.672,0,0,0,3.774,5.424l10.36,1.62Z" transform="translate(10.385 40.632)" fill="#ebebeb"/>
        <path id="Trazado_239185" data-name="Trazado 239185" d="M34.36,153.213a3.117,3.117,0,0,1,.055-.5c.056-.368.126-.822.211-1.381.207-1.264.49-2.994.844-5.161.76-4.463,1.827-10.714,3.1-18.2l.247.356-26.186-4.644c-.093.062.782-.545.41-.286v.007l0,.014-.005.027-.01.054-.019.108-.038.214-.077.431-.154.858q-.154.855-.306,1.7-.307,1.7-.605,3.362-.6,3.327-1.175,6.5c-.77,4.221-1.5,8.214-2.168,11.891l-.251-.361,18.846,3.54,5.344,1.041,1.426.292a3.43,3.43,0,0,1,.509.128,2.057,2.057,0,0,1-.454-.045l-1.38-.211-5.3-.868-19.1-3.264-.306-.052.055-.309c.649-3.68,1.354-7.676,2.1-11.9q.566-3.173,1.159-6.507.3-1.666.6-3.362.152-.85.3-1.7l.154-.858.077-.43.04-.216.019-.108.01-.054,0-.027,0-.014v-.005c-.371.255.505-.357.419-.294l26.168,4.744.3.055-.056.3c-1.417,7.538-2.6,13.836-3.447,18.333-.416,2.126-.747,3.824-.99,5.064-.11.53-.2.962-.27,1.311a1.854,1.854,0,0,1-.111.423" transform="translate(2.914 45.837)" fill="#fff"/>
        <path id="Trazado_239186" data-name="Trazado 239186" d="M17.4,150.316c-.195-.034.659-5.7,1.907-12.655s2.415-12.565,2.61-12.53-.659,5.7-1.907,12.657S17.6,150.351,17.4,150.316" transform="translate(6.477 46.64)" fill="#fff"/>
        <path id="Trazado_239187" data-name="Trazado 239187" d="M35.023,141.78c-.034.195-5.947-.7-13.2-2s-13.112-2.513-13.078-2.708,5.945.7,13.2,2,13.111,2.515,13.077,2.708" transform="translate(3.258 51.079)" fill="#fff"/>
        <path id="Trazado_239188" data-name="Trazado 239188" d="M36.079,137.141c-.034.195-5.947-.7-13.2-2S9.764,132.623,9.8,132.428s5.947.7,13.2,2.006,13.111,2.513,13.077,2.707" transform="translate(3.652 49.35)" fill="#fff"/>
        <path id="Trazado_239189" data-name="Trazado 239189" d="M36.718,132.428c-.034.195-5.9-.695-13.1-1.986s-13.013-2.5-12.978-2.691,5.9.695,13.1,1.986,13.011,2.5,12.976,2.691" transform="translate(3.965 47.606)" fill="#fff"/>
      </g>
    </g>
    <path id="Trazado_239190" data-name="Trazado 239190" d="M12.392,392.858h0Z" transform="translate(4.619 146.428)" fill="#263238"/>
    <g id="Grupo_166503" data-name="Grupo 166503">
      <g id="Grupo_166502" data-name="Grupo 166502" clip-path="url(#clip-path)">
        <path id="Trazado_239191" data-name="Trazado 239191" d="M615.381,392.955c0,.2-134.994.357-301.479.357-166.543,0-301.51-.159-301.51-.357s134.966-.357,301.51-.357c166.486,0,301.479.159,301.479.357" transform="translate(4.619 146.332)" fill="#263238"/>
      </g>
    </g>
    <g id="Grupo_166508" data-name="Grupo 166508">
      <g id="Grupo_166507" data-name="Grupo 166507" clip-path="url(#clip-path)">
        <path id="Trazado_239192" data-name="Trazado 239192" d="M154.786,82.282l-53.237,18.389a4.953,4.953,0,0,1-6.3-3.065L70.47,25.874a4.955,4.955,0,0,1,3.065-6.3L110.762,6.715l27.651,12.994,19.438,56.272a4.955,4.955,0,0,1-3.065,6.3" transform="translate(26.164 2.503)" fill="#a3314f"/>
        <path id="Trazado_239193" data-name="Trazado 239193" d="M99.7,6.589l4.924,14.256a6.75,6.75,0,0,0,8.584,4.176l14.2-5.264Z" transform="translate(37.162 2.456)" fill="#e8505b"/>
        <g id="Grupo_166506" data-name="Grupo 166506" transform="translate(136.866 9.045)" opacity="0.2">
          <g id="Grupo_166505" data-name="Grupo 166505">
            <g id="Grupo_166504" data-name="Grupo 166504" clip-path="url(#clip-path-5)">
              <path id="Trazado_239194" data-name="Trazado 239194" d="M99.7,6.589l4.924,14.256a6.75,6.75,0,0,0,8.584,4.176l14.2-5.264Z" transform="translate(-99.704 -6.589)"/>
            </g>
          </g>
        </g>
        <path id="Trazado_239195" data-name="Trazado 239195" d="M135.675,63.042a5.98,5.98,0,0,1-.265-.662l-.688-1.883-2.537-7.1c-2.158-6.126-5.209-14.8-8.869-25.194l.39.189c-10.526,3.653-22.986,7.974-36.3,12.592-.054.1.416-.857.22-.448l0,.01.007.019.012.037.026.074.052.15.1.3.206.6.41,1.189q.41,1.188.817,2.365.811,2.354,1.609,4.665l3.108,9.027L99.65,75.486l-.4-.192,26.275-8.909,7.446-2.486,1.986-.648a6.8,6.8,0,0,1,.712-.209,4.522,4.522,0,0,1-.625.253l-1.907.7-7.325,2.616-26.36,9.273-.294.1-.1-.3c-1.772-5.1-3.7-10.635-5.734-16.493q-1.524-4.4-3.126-9.022-.8-2.308-1.613-4.662-.408-1.178-.818-2.365l-.41-1.189-.206-.6-.1-.3L87,40.913l-.026-.074-.012-.037-.007-.019,0-.01c-.2.4.265-.56.222-.461l36.331-12.5.292-.1.1.291,8.636,25.481c1,3.013,1.8,5.4,2.362,7.085.253.776.452,1.389.6,1.852a4.239,4.239,0,0,1,.178.62" transform="translate(32.391 10.33)" fill="#fff"/>
        <path id="Trazado_239196" data-name="Trazado 239196" d="M112.336,67.9c-.187.065-3.039-7.705-6.372-17.351s-5.883-17.521-5.7-17.586,3.039,7.7,6.372,17.353,5.883,17.52,5.7,17.585" transform="translate(37.368 12.284)" fill="#fff"/>
        <path id="Trazado_239197" data-name="Trazado 239197" d="M130.075,47.25c.065.187-8.046,3.157-18.11,6.634S93.683,60.03,93.618,59.843s8.043-3.156,18.113-6.634,18.279-6.146,18.344-5.959" transform="translate(34.894 17.608)" fill="#fff"/>
        <path id="Trazado_239198" data-name="Trazado 239198" d="M128.136,40.657c.065.187-8.046,3.157-18.11,6.634S91.744,53.437,91.679,53.25s8.044-3.156,18.113-6.634,18.279-6.146,18.344-5.959" transform="translate(34.171 15.15)" fill="#fff"/>
        <path id="Trazado_239199" data-name="Trazado 239199" d="M125.618,34.238c.065.187-7.984,3.137-17.973,6.586s-18.143,6.1-18.208,5.911,7.982-3.135,17.974-6.586,18.142-6.1,18.206-5.911" transform="translate(33.335 12.758)" fill="#fff"/>
        <path id="Trazado_239200" data-name="Trazado 239200" d="M421.019,305.592l-27.912,14.7a2.772,2.772,0,0,1-3.747-1.161l-19.811-37.609a2.776,2.776,0,0,1,1.163-3.749l19.517-10.28,16.411,4.846,15.541,29.5a2.773,2.773,0,0,1-1.161,3.747" transform="translate(137.621 99.702)" fill="#455a64"/>
        <path id="Trazado_239201" data-name="Trazado 239201" d="M384.492,267.429l3.937,7.474a3.781,3.781,0,0,0,5.107,1.583l7.415-4.121Z" transform="translate(143.31 99.678)" fill="#e0e0e0"/>
        <path id="Trazado_239202" data-name="Trazado 239202" d="M408.939,296.53a14.874,14.874,0,0,1-.784-1.338l-2.045-3.712c-1.754-3.247-4.187-7.746-7.091-13.125l.415.129c-5.529,2.929-12.048,6.383-19.016,10.073-.034.106.283-.911.15-.478l0,0,.005.01.011.021.019.038.043.078.082.156.165.313.328.625.652,1.24q.651,1.235,1.286,2.446l2.485,4.736c1.606,3.076,3.126,5.986,4.527,8.669l-.42-.13,13.784-7.082,3.941-1.984a16.1,16.1,0,0,1,1.462-.689,11.643,11.643,0,0,1-1.281.755l-3.8,2.1-13.814,7.454-.273.147-.147-.277-4.588-8.637q-1.221-2.3-2.5-4.726l-1.289-2.445-.653-1.24-.329-.623-.165-.313-.082-.156-.041-.078-.021-.04-.011-.019-.005-.01v-.005c-.135.431.178-.59.15-.486l19.063-9.985.275-.144.14.273c2.829,5.507,5.2,10.118,6.9,13.443l1.872,3.726a10.769,10.769,0,0,1,.6,1.292" transform="translate(141.599 103.542)" fill="#fff"/>
        <path id="Trazado_239203" data-name="Trazado 239203" d="M396.693,300.3c-.174.092-2.476-3.934-5.141-8.991s-4.682-9.234-4.508-9.326,2.476,3.933,5.141,8.993,4.682,9.233,4.508,9.325" transform="translate(144.257 105.101)" fill="#fff"/>
        <path id="Trazado_239204" data-name="Trazado 239204" d="M404.469,288.2c.092.174-4.113,2.57-9.389,5.351s-9.632,4.892-9.724,4.718,4.111-2.57,9.391-5.351,9.631-4.892,9.723-4.718" transform="translate(143.632 107.417)" fill="#fff"/>
        <path id="Trazado_239205" data-name="Trazado 239205" d="M402.835,284.718c.092.174-4.113,2.57-9.389,5.351s-9.632,4.892-9.724,4.718,4.111-2.57,9.391-5.351,9.631-4.892,9.723-4.718" transform="translate(143.023 106.118)" fill="#fff"/>
        <path id="Trazado_239206" data-name="Trazado 239206" d="M400.9,281.371c.092.174-4.08,2.553-9.318,5.312s-9.558,4.854-9.65,4.68,4.078-2.553,9.318-5.312,9.558-4.854,9.65-4.68" transform="translate(142.355 104.87)" fill="#fff"/>
      </g>
    </g>
    <rect id="Rectángulo_52037" data-name="Rectángulo 52037" width="531.397" height="288.134" transform="translate(77.245 95.26)" fill="#f5f5f5"/>
    <rect id="Rectángulo_52038" data-name="Rectángulo 52038" width="531.397" height="24.267" transform="translate(77.245 95.259)" fill="#263238"/>
    <g id="Grupo_166510" data-name="Grupo 166510">
      <g id="Grupo_166509" data-name="Grupo 166509" clip-path="url(#clip-path)">
        <path id="Trazado_239207" data-name="Trazado 239207" d="M68.375,81.416a3.006,3.006,0,1,1,0-4.251,3.007,3.007,0,0,1,0,4.251" transform="translate(23.573 28.433)" fill="#fafafa"/>
        <path id="Trazado_239208" data-name="Trazado 239208" d="M77.228,79.291a3.006,3.006,0,1,1-3.006-3.006,3.006,3.006,0,0,1,3.006,3.006" transform="translate(26.544 28.433)" fill="#fafafa"/>
        <path id="Trazado_239209" data-name="Trazado 239209" d="M85.2,79.291a3.006,3.006,0,1,1-3.006-3.006A3.006,3.006,0,0,1,85.2,79.291" transform="translate(29.516 28.433)" fill="#fafafa"/>
        <rect id="Rectángulo_52039" data-name="Rectángulo 52039" width="19.329" height="222.15" transform="translate(76.454 161.245)" fill="#455a64"/>
        <rect id="Rectángulo_52040" data-name="Rectángulo 52040" width="531.953" height="19.329" transform="translate(76.454 152.69)" fill="#455a64"/>
        <path id="Trazado_239210" data-name="Trazado 239210" d="M69.873,329.564c-.2,0-.357-48.88-.357-109.162,0-60.3.159-109.172.357-109.172S70.23,160.1,70.23,220.4c0,60.282-.159,109.162-.357,109.162" transform="translate(25.91 41.459)" fill="#e0e0e0"/>
        <path id="Trazado_239211" data-name="Trazado 239211" d="M125.232,341.936c-.2,0-.357-51.649-.357-115.346,0-63.721.159-115.36.357-115.36s.357,51.639.357,115.36c0,63.7-.159,115.346-.357,115.346" transform="translate(46.544 41.458)" fill="#e0e0e0"/>
        <path id="Trazado_239212" data-name="Trazado 239212" d="M183.956,341.729c-.2,0-.357-51.479-.357-114.966,0-63.509.159-114.977.357-114.977s.357,51.468.357,114.977c0,63.487-.159,114.966-.357,114.966" transform="translate(68.432 41.666)" fill="#e0e0e0"/>
        <path id="Trazado_239213" data-name="Trazado 239213" d="M241.289,341.729c-.2,0-.357-51.479-.357-114.966,0-63.509.159-114.977.357-114.977s.357,51.468.357,114.977c0,63.487-.159,114.966-.357,114.966" transform="translate(89.802 41.666)" fill="#e0e0e0"/>
        <path id="Trazado_239214" data-name="Trazado 239214" d="M299.974,341.936c-.2,0-.357-51.649-.357-115.346,0-63.721.159-115.36.357-115.36s.357,51.639.357,115.36c0,63.7-.159,115.346-.357,115.346" transform="translate(111.675 41.458)" fill="#e0e0e0"/>
        <path id="Trazado_239215" data-name="Trazado 239215" d="M358.658,341.936c-.2,0-.357-51.649-.357-115.346,0-63.721.159-115.36.357-115.36s.357,51.639.357,115.36c0,63.7-.159,115.346-.357,115.346" transform="translate(133.548 41.458)" fill="#e0e0e0"/>
        <path id="Trazado_239216" data-name="Trazado 239216" d="M417.343,341.729c-.2,0-.357-51.479-.357-114.966,0-63.509.159-114.977.357-114.977s.357,51.468.357,114.977c0,63.487-.159,114.966-.357,114.966" transform="translate(155.422 41.666)" fill="#e0e0e0"/>
        <path id="Trazado_239217" data-name="Trazado 239217" d="M584.717,138.251c0,.2-118.432.357-264.493.357-146.11,0-264.517-.159-264.517-.357s118.407-.357,264.517-.357c146.061,0,264.493.159,264.493.357" transform="translate(20.763 51.397)" fill="#e0e0e0"/>
        <path id="Trazado_239218" data-name="Trazado 239218" d="M584.717,125.409c0,.2-118.432.357-264.493.357-146.11,0-264.517-.159-264.517-.357s118.407-.357,264.517-.357c146.061,0,264.493.159,264.493.357" transform="translate(20.763 46.61)" fill="#e0e0e0"/>
        <path id="Trazado_239219" data-name="Trazado 239219" d="M584.717,151.778c0,.2-118.432.357-264.493.357-146.11,0-264.517-.159-264.517-.357s118.407-.357,264.517-.357c146.061,0,264.493.159,264.493.357" transform="translate(20.763 56.439)" fill="#e0e0e0"/>
        <path id="Trazado_239220" data-name="Trazado 239220" d="M584.717,165.3c0,.2-118.432.357-264.493.357-146.11,0-264.517-.159-264.517-.357s118.407-.357,264.517-.357c146.061,0,264.493.159,264.493.357" transform="translate(20.763 61.48)" fill="#e0e0e0"/>
        <path id="Trazado_239221" data-name="Trazado 239221" d="M584.717,178.832c0,.2-118.432.357-264.493.357-146.11,0-264.517-.159-264.517-.357s118.407-.357,264.517-.357c146.061,0,264.493.159,264.493.357" transform="translate(20.763 66.522)" fill="#e0e0e0"/>
        <path id="Trazado_239222" data-name="Trazado 239222" d="M584.717,192.359c0,.2-118.432.357-264.493.357-146.11,0-264.517-.159-264.517-.357S174.114,192,320.224,192c146.061,0,264.493.159,264.493.357" transform="translate(20.763 71.564)" fill="#e0e0e0"/>
        <path id="Trazado_239223" data-name="Trazado 239223" d="M584.717,205.887c0,.2-118.432.357-264.493.357-146.11,0-264.517-.159-264.517-.357s118.407-.357,264.517-.357c146.061,0,264.493.159,264.493.357" transform="translate(20.763 76.606)" fill="#e0e0e0"/>
        <path id="Trazado_239224" data-name="Trazado 239224" d="M584.717,219.414c0,.2-118.432.357-264.493.357-146.11,0-264.517-.159-264.517-.357s118.407-.357,264.517-.357c146.061,0,264.493.159,264.493.357" transform="translate(20.763 81.648)" fill="#e0e0e0"/>
        <path id="Trazado_239225" data-name="Trazado 239225" d="M584.717,232.941c0,.2-118.432.357-264.493.357-146.11,0-264.517-.159-264.517-.357s118.407-.357,264.517-.357c146.061,0,264.493.159,264.493.357" transform="translate(20.763 86.69)" fill="#e0e0e0"/>
        <path id="Trazado_239226" data-name="Trazado 239226" d="M584.717,246.468c0,.2-118.432.357-264.493.357-146.11,0-264.517-.159-264.517-.357s118.407-.357,264.517-.357c146.061,0,264.493.159,264.493.357" transform="translate(20.763 91.732)" fill="#e0e0e0"/>
        <path id="Trazado_239227" data-name="Trazado 239227" d="M584.717,259.995c0,.2-118.432.357-264.493.357-146.11,0-264.517-.159-264.517-.357s118.407-.357,264.517-.357c146.061,0,264.493.159,264.493.357" transform="translate(20.763 96.774)" fill="#e0e0e0"/>
        <path id="Trazado_239228" data-name="Trazado 239228" d="M584.717,273.522c0,.2-118.432.357-264.493.357-146.11,0-264.517-.159-264.517-.357s118.407-.357,264.517-.357c146.061,0,264.493.159,264.493.357" transform="translate(20.763 101.816)" fill="#e0e0e0"/>
        <rect id="Rectángulo_52041" data-name="Rectángulo 52041" width="512.624" height="36.197" transform="translate(95.783 172.019)" fill="#a3314f"/>
        <path id="Trazado_239229" data-name="Trazado 239229" d="M436.919,136.751c0,.2-60.319.357-134.71.357-74.417,0-134.723-.159-134.723-.357s60.307-.357,134.723-.357c74.391,0,134.71.159,134.71.357" transform="translate(62.426 50.838)" fill="#fafafa"/>
        <path id="Trazado_239230" data-name="Trazado 239230" d="M473.842,144.264c0,.2-75.434.357-168.465.357-93.064,0-168.482-.159-168.482-.357s75.418-.357,168.482-.357c93.031,0,168.465.159,168.465.357" transform="translate(51.024 53.638)" fill="#fafafa"/>
        <rect id="Rectángulo_52042" data-name="Rectángulo 52042" width="159.314" height="18.569" transform="translate(171.776 226.785)" fill="#e8505b"/>
        <rect id="Rectángulo_52043" data-name="Rectángulo 52043" width="159.314" height="78.368" transform="translate(171.776 243.295)" fill="#ebebeb"/>
        <path id="Trazado_239231" data-name="Trazado 239231" d="M190.175,185c0,.2-13.145.358-29.358.358s-29.36-.159-29.36-.358,13.142-.356,29.36-.356,29.358.159,29.358.356" transform="translate(48.997 68.821)" fill="#263238"/>
        <path id="Trazado_239232" data-name="Trazado 239232" d="M166.728,199.847c0,.2-7.9.357-17.634.357s-17.637-.159-17.637-.357,7.895-.357,17.637-.357,17.634.159,17.634.357" transform="translate(48.997 74.355)" fill="#263238"/>
        <path id="Trazado_239233" data-name="Trazado 239233" d="M195.852,210.663c0,.2-14.416.358-32.2.358s-32.2-.161-32.2-.358,14.414-.357,32.2-.357,32.2.159,32.2.357" transform="translate(48.997 78.387)" fill="#263238"/>
        <path id="Trazado_239234" data-name="Trazado 239234" d="M166.728,189.031c0,.2-7.9.357-17.634.357s-17.637-.159-17.637-.357,7.895-.357,17.637-.357,17.634.159,17.634.357" transform="translate(48.997 70.324)" fill="#263238"/>
        <path id="Trazado_239235" data-name="Trazado 239235" d="M241.969,185c0,.2-4.192.358-9.363.358s-9.365-.159-9.365-.358,4.192-.356,9.365-.356,9.363.159,9.363.356" transform="translate(83.208 68.821)" fill="#263238"/>
        <path id="Trazado_239236" data-name="Trazado 239236" d="M241.969,197.143c0,.2-4.192.357-9.363.357s-9.365-.159-9.365-.357,4.192-.357,9.365-.357,9.363.159,9.363.357" transform="translate(83.208 73.347)" fill="#263238"/>
        <path id="Trazado_239237" data-name="Trazado 239237" d="M241.969,210.663c0,.2-4.192.358-9.363.358s-9.365-.161-9.365-.358,4.192-.357,9.365-.357,9.363.159,9.363.357" transform="translate(83.208 78.387)" fill="#263238"/>
        <path id="Trazado_239238" data-name="Trazado 239238" d="M244.175,227.194c0,.2-6.63.357-14.806.357s-14.809-.159-14.809-.357,6.629-.357,14.809-.357,14.806.159,14.806.357" transform="translate(79.972 84.548)" fill="#263238"/>
        <path id="Trazado_239239" data-name="Trazado 239239" d="M183.956,253.872c-.2,0-.357-16.931-.357-37.815s.159-37.816.357-37.816.357,16.928.357,37.816-.159,37.815-.357,37.815" transform="translate(68.432 66.435)" fill="#e0e0e0"/>
        <path id="Trazado_239240" data-name="Trazado 239240" d="M261.582,218.212c0,.2-17.612.358-39.334.358s-39.337-.159-39.337-.358,17.608-.357,39.337-.357,39.334.159,39.334.357" transform="translate(68.176 81.2)" fill="#e0e0e0"/>
        <rect id="Rectángulo_52044" data-name="Rectángulo 52044" width="159.314" height="19.259" transform="translate(171.776 356.078)" fill="#f5f5f5"/>
        <rect id="Rectángulo_52045" data-name="Rectángulo 52045" width="159.577" height="18.569" transform="translate(171.514 338.2)" fill="#e8505b"/>
        <path id="Trazado_239241" data-name="Trazado 239241" d="M197.577,267.2c0,.2-15.03.357-33.567.357s-33.57-.159-33.57-.357,15.027-.357,33.57-.357,33.567.159,33.567.357" transform="translate(48.618 99.459)" fill="#263238"/>
        <path id="Trazado_239242" data-name="Trazado 239242" d="M244.175,266.507c0,.2-6.63.357-14.806.357s-14.809-.159-14.809-.357,6.629-.357,14.809-.357,14.806.159,14.806.357" transform="translate(79.972 99.201)" fill="#263238"/>
        <rect id="Rectángulo_52046" data-name="Rectángulo 52046" width="13.786" height="46.756" transform="translate(415.537 291.11)" fill="#e8505b"/>
        <rect id="Rectángulo_52047" data-name="Rectángulo 52047" width="13.786" height="38.266" transform="translate(499.269 299.6)" fill="#e8505b"/>
        <rect id="Rectángulo_52048" data-name="Rectángulo 52048" width="13.788" height="27.573" transform="translate(555.091 310.294)" fill="#263238"/>
        <rect id="Rectángulo_52049" data-name="Rectángulo 52049" width="13.788" height="75.433" transform="translate(443.445 262.434)" fill="#455a64"/>
        <rect id="Rectángulo_52050" data-name="Rectángulo 52050" width="13.788" height="75.433" transform="translate(471.357 262.434)" fill="#263238"/>
        <rect id="Rectángulo_52051" data-name="Rectángulo 52051" width="13.788" height="92.846" transform="translate(527.179 245.021)" fill="#455a64"/>
        <rect id="Rectángulo_52052" data-name="Rectángulo 52052" width="12.224" height="12.224" transform="translate(91.548 128.015)" fill="#e8505b"/>
        <path id="Trazado_239243" data-name="Trazado 239243" d="M84.481,109.749h-13.6v-13.6h13.6Zm-12.224-1.373H83.108V97.525H72.257Z" transform="translate(26.42 35.838)" fill="#e8505b"/>
        <rect id="Rectángulo_52053" data-name="Rectángulo 52053" width="11.424" height="11.424" transform="translate(128.806 131.261)" fill="#e0e0e0"/>
        <rect id="Rectángulo_52054" data-name="Rectángulo 52054" width="11.424" height="11.424" transform="translate(147.369 131.261)" fill="#e0e0e0"/>
        <rect id="Rectángulo_52055" data-name="Rectángulo 52055" width="11.424" height="11.424" transform="translate(165.934 131.261)" fill="#e0e0e0"/>
        <rect id="Rectángulo_52056" data-name="Rectángulo 52056" width="11.424" height="11.424" transform="translate(184.499 131.261)" fill="#e0e0e0"/>
        <rect id="Rectángulo_52057" data-name="Rectángulo 52057" width="11.424" height="11.424" transform="translate(203.063 131.261)" fill="#e0e0e0"/>
        <rect id="Rectángulo_52058" data-name="Rectángulo 52058" width="120.719" height="11.66" transform="translate(231.473 131.143)" fill="#e0e0e0"/>
        <rect id="Rectángulo_52059" data-name="Rectángulo 52059" width="120.719" height="11.66" transform="translate(368.761 131.143)" fill="#e0e0e0"/>
        <rect id="Rectángulo_52060" data-name="Rectángulo 52060" width="104.08" height="11.66" transform="translate(504.327 131.143)" fill="#e0e0e0"/>
        <path id="Trazado_239244" data-name="Trazado 239244" d="M587.765,357.626c0-2.169-.1-110.893-.272-288.134l.272.27-531.358.086h-.04l.357-.357C56.717,171.3,56.71,268.765,56.7,357.626l-.335-.335,531.4.335-531.4.335h-.335v-.335c-.007-88.861-.015-186.326-.022-288.134v-.358h.4l531.358.086h.272v.272c-.167,177.241-.27,285.966-.272,288.134" transform="translate(20.877 25.768)" fill="#263238"/>
        <rect id="Rectángulo_52061" data-name="Rectángulo 52061" width="531.397" height="288.134" transform="translate(41.853 71.978)" fill="#f5f5f5"/>
        <rect id="Rectángulo_52062" data-name="Rectángulo 52062" width="531.397" height="24.267" transform="translate(41.853 71.978)" fill="#263238"/>
        <path id="Trazado_239245" data-name="Trazado 239245" d="M42.593,64.456a3.006,3.006,0,1,1,0-4.251,3.007,3.007,0,0,1,0,4.251" transform="translate(13.963 22.112)" fill="#fafafa"/>
        <path id="Trazado_239246" data-name="Trazado 239246" d="M51.446,62.331a3.006,3.006,0,1,1-3.006-3.006,3.006,3.006,0,0,1,3.006,3.006" transform="translate(16.935 22.112)" fill="#fafafa"/>
        <path id="Trazado_239247" data-name="Trazado 239247" d="M59.418,62.331a3.006,3.006,0,1,1-3.006-3.006,3.006,3.006,0,0,1,3.006,3.006" transform="translate(19.906 22.112)" fill="#fafafa"/>
        <rect id="Rectángulo_52063" data-name="Rectángulo 52063" width="19.329" height="222.15" transform="translate(41.062 137.962)" fill="#455a64"/>
        <rect id="Rectángulo_52064" data-name="Rectángulo 52064" width="531.953" height="19.329" transform="translate(41.062 129.408)" fill="#455a64"/>
        <path id="Trazado_239248" data-name="Trazado 239248" d="M44.091,312.6c-.2,0-.357-48.88-.357-109.161,0-60.3.159-109.173.357-109.173s.357,48.869.357,109.173c0,60.281-.159,109.161-.357,109.161" transform="translate(16.301 35.137)" fill="#e0e0e0"/>
        <path id="Trazado_239249" data-name="Trazado 239249" d="M99.45,324.974c-.2,0-.357-51.649-.357-115.346,0-63.721.159-115.358.357-115.358s.357,51.638.357,115.358c0,63.7-.159,115.346-.357,115.346" transform="translate(36.935 35.137)" fill="#e0e0e0"/>
        <path id="Trazado_239250" data-name="Trazado 239250" d="M158.174,324.768c-.2,0-.357-51.479-.357-114.966,0-63.509.159-114.977.357-114.977s.357,51.468.357,114.977c0,63.487-.159,114.966-.357,114.966" transform="translate(58.823 35.344)" fill="#e0e0e0"/>
        <path id="Trazado_239251" data-name="Trazado 239251" d="M215.508,324.768c-.2,0-.358-51.479-.358-114.966,0-63.509.159-114.977.358-114.977s.357,51.468.357,114.977c0,63.487-.159,114.966-.357,114.966" transform="translate(80.192 35.344)" fill="#e0e0e0"/>
        <path id="Trazado_239252" data-name="Trazado 239252" d="M274.192,324.974c-.2,0-.357-51.649-.357-115.346,0-63.721.159-115.358.357-115.358s.357,51.638.357,115.358c0,63.7-.159,115.346-.357,115.346" transform="translate(102.065 35.137)" fill="#e0e0e0"/>
        <path id="Trazado_239253" data-name="Trazado 239253" d="M332.876,324.974c-.2,0-.357-51.649-.357-115.346,0-63.721.159-115.358.357-115.358s.357,51.638.357,115.358c0,63.7-.159,115.346-.357,115.346" transform="translate(123.939 35.137)" fill="#e0e0e0"/>
        <path id="Trazado_239254" data-name="Trazado 239254" d="M391.561,324.768c-.2,0-.357-51.479-.357-114.966,0-63.509.159-114.977.357-114.977s.357,51.468.357,114.977c0,63.487-.159,114.966-.357,114.966" transform="translate(145.812 35.344)" fill="#e0e0e0"/>
        <path id="Trazado_239255" data-name="Trazado 239255" d="M558.935,121.291c0,.2-118.432.357-264.493.357-146.11,0-264.517-.159-264.517-.357s118.407-.357,264.517-.357c146.061,0,264.493.159,264.493.357" transform="translate(11.154 45.075)" fill="#e0e0e0"/>
        <path id="Trazado_239256" data-name="Trazado 239256" d="M558.935,108.449c0,.2-118.432.357-264.493.357-146.11,0-264.517-.159-264.517-.357s118.407-.357,264.517-.357c146.061,0,264.493.159,264.493.357" transform="translate(11.154 40.289)" fill="#e0e0e0"/>
        <path id="Trazado_239257" data-name="Trazado 239257" d="M558.935,134.818c0,.2-118.432.357-264.493.357-146.11,0-264.517-.159-264.517-.357s118.407-.357,264.517-.357c146.061,0,264.493.159,264.493.357" transform="translate(11.154 50.117)" fill="#e0e0e0"/>
        <path id="Trazado_239258" data-name="Trazado 239258" d="M558.935,148.345c0,.2-118.432.357-264.493.357-146.11,0-264.517-.159-264.517-.357s118.407-.357,264.517-.357c146.061,0,264.493.159,264.493.357" transform="translate(11.154 55.159)" fill="#e0e0e0"/>
        <path id="Trazado_239259" data-name="Trazado 239259" d="M558.935,161.872c0,.2-118.432.357-264.493.357-146.11,0-264.517-.159-264.517-.357s118.407-.357,264.517-.357c146.061,0,264.493.159,264.493.357" transform="translate(11.154 60.201)" fill="#e0e0e0"/>
        <path id="Trazado_239260" data-name="Trazado 239260" d="M558.935,175.4c0,.2-118.432.357-264.493.357-146.11,0-264.517-.159-264.517-.357s118.407-.357,264.517-.357c146.061,0,264.493.159,264.493.357" transform="translate(11.154 65.243)" fill="#e0e0e0"/>
        <path id="Trazado_239261" data-name="Trazado 239261" d="M558.935,188.926c0,.2-118.432.357-264.493.357-146.11,0-264.517-.159-264.517-.357s118.407-.357,264.517-.357c146.061,0,264.493.159,264.493.357" transform="translate(11.154 70.285)" fill="#e0e0e0"/>
        <path id="Trazado_239262" data-name="Trazado 239262" d="M558.935,202.453c0,.2-118.432.358-264.493.358-146.11,0-264.517-.161-264.517-.358s118.407-.357,264.517-.357c146.061,0,264.493.159,264.493.357" transform="translate(11.154 75.326)" fill="#e0e0e0"/>
        <path id="Trazado_239263" data-name="Trazado 239263" d="M558.935,215.98c0,.2-118.432.358-264.493.358-146.11,0-264.517-.159-264.517-.358s118.407-.356,264.517-.356c146.061,0,264.493.159,264.493.356" transform="translate(11.154 80.369)" fill="#e0e0e0"/>
        <path id="Trazado_239264" data-name="Trazado 239264" d="M558.935,229.508c0,.2-118.432.357-264.493.357-146.11,0-264.517-.159-264.517-.357s118.407-.357,264.517-.357c146.061,0,264.493.159,264.493.357" transform="translate(11.154 85.411)" fill="#e0e0e0"/>
        <path id="Trazado_239265" data-name="Trazado 239265" d="M558.935,243.035c0,.2-118.432.357-264.493.357-146.11,0-264.517-.159-264.517-.357s118.407-.357,264.517-.357c146.061,0,264.493.159,264.493.357" transform="translate(11.154 90.452)" fill="#e0e0e0"/>
        <path id="Trazado_239266" data-name="Trazado 239266" d="M558.935,256.562c0,.2-118.432.357-264.493.357-146.11,0-264.517-.159-264.517-.357s118.407-.357,264.517-.357c146.061,0,264.493.159,264.493.357" transform="translate(11.154 95.494)" fill="#e0e0e0"/>
        <rect id="Rectángulo_52065" data-name="Rectángulo 52065" width="512.624" height="36.197" transform="translate(60.392 148.738)" fill="#a3314f"/>
        <path id="Trazado_239267" data-name="Trazado 239267" d="M411.137,119.791c0,.2-60.319.357-134.71.357-74.415,0-134.723-.159-134.723-.357s60.308-.357,134.723-.357c74.391,0,134.71.159,134.71.357" transform="translate(52.817 44.516)" fill="#fafafa"/>
        <path id="Trazado_239268" data-name="Trazado 239268" d="M448.061,127.3c0,.2-75.435.357-168.466.357-93.064,0-168.48-.159-168.48-.357s75.416-.357,168.48-.357c93.031,0,168.466.159,168.466.357" transform="translate(41.415 47.316)" fill="#fafafa"/>
        <rect id="Rectángulo_52066" data-name="Rectángulo 52066" width="159.314" height="18.569" transform="translate(136.386 203.504)" fill="#a3314f"/>
        <rect id="Rectángulo_52067" data-name="Rectángulo 52067" width="159.314" height="78.368" transform="translate(136.386 220.014)" fill="#ebebeb"/>
        <path id="Trazado_239269" data-name="Trazado 239269" d="M164.393,168.037c0,.2-13.145.357-29.358.357s-29.36-.159-29.36-.357,13.142-.357,29.36-.357,29.358.159,29.358.357" transform="translate(39.388 62.499)" fill="#263238"/>
        <path id="Trazado_239270" data-name="Trazado 239270" d="M140.946,182.887c0,.2-7.9.357-17.634.357s-17.637-.159-17.637-.357,7.895-.357,17.637-.357,17.634.159,17.634.357" transform="translate(39.388 68.034)" fill="#263238"/>
        <path id="Trazado_239271" data-name="Trazado 239271" d="M170.069,193.7c0,.2-14.416.357-32.2.357s-32.2-.159-32.2-.357,14.412-.357,32.2-.357,32.2.159,32.2.357" transform="translate(39.388 72.065)" fill="#263238"/>
        <path id="Trazado_239272" data-name="Trazado 239272" d="M140.946,172.071c0,.2-7.9.357-17.634.357s-17.637-.159-17.637-.357,7.895-.357,17.637-.357,17.634.159,17.634.357" transform="translate(39.388 64.002)" fill="#263238"/>
        <path id="Trazado_239273" data-name="Trazado 239273" d="M216.187,168.037c0,.2-4.192.357-9.363.357s-9.365-.159-9.365-.357,4.192-.357,9.365-.357,9.363.159,9.363.357" transform="translate(73.598 62.499)" fill="#263238"/>
        <path id="Trazado_239274" data-name="Trazado 239274" d="M216.187,180.183c0,.2-4.192.357-9.363.357s-9.365-.159-9.365-.357,4.192-.357,9.365-.357,9.363.159,9.363.357" transform="translate(73.598 67.026)" fill="#263238"/>
        <path id="Trazado_239275" data-name="Trazado 239275" d="M216.187,193.7c0,.2-4.192.357-9.363.357s-9.365-.159-9.365-.357,4.192-.357,9.365-.357,9.363.159,9.363.357" transform="translate(73.598 72.065)" fill="#263238"/>
        <path id="Trazado_239276" data-name="Trazado 239276" d="M218.393,210.234c0,.2-6.63.357-14.806.357s-14.809-.159-14.809-.357,6.629-.357,14.809-.357,14.806.159,14.806.357" transform="translate(70.363 78.227)" fill="#263238"/>
        <path id="Trazado_239277" data-name="Trazado 239277" d="M158.174,236.913c-.2,0-.357-16.933-.357-37.814s.159-37.817.357-37.817.357,16.928.357,37.817-.159,37.814-.357,37.814" transform="translate(58.823 60.114)" fill="#e0e0e0"/>
        <path id="Trazado_239278" data-name="Trazado 239278" d="M235.8,201.252c0,.2-17.612.357-39.334.357s-39.337-.159-39.337-.357,17.608-.357,39.337-.357,39.334.159,39.334.357" transform="translate(58.566 74.879)" fill="#e0e0e0"/>
        <rect id="Rectángulo_52068" data-name="Rectángulo 52068" width="159.314" height="19.259" transform="translate(136.386 332.797)" fill="#f5f5f5"/>
        <rect id="Rectángulo_52069" data-name="Rectángulo 52069" width="159.577" height="18.569" transform="translate(136.124 314.918)" fill="#a3314f"/>
        <path id="Trazado_239279" data-name="Trazado 239279" d="M171.8,250.239c0,.2-15.03.357-33.567.357s-33.57-.159-33.57-.357,15.027-.357,33.57-.357,33.567.159,33.567.357" transform="translate(39.009 93.138)" fill="#263238"/>
        <path id="Trazado_239280" data-name="Trazado 239280" d="M218.393,249.547c0,.2-6.63.357-14.806.357s-14.809-.159-14.809-.357,6.629-.357,14.809-.357,14.806.159,14.806.357" transform="translate(70.363 92.88)" fill="#263238"/>
        <rect id="Rectángulo_52070" data-name="Rectángulo 52070" width="13.788" height="46.756" transform="translate(380.144 267.828)" fill="#a3314f"/>
        <rect id="Rectángulo_52071" data-name="Rectángulo 52071" width="13.788" height="38.266" transform="translate(463.876 276.319)" fill="#a3314f"/>
        <rect id="Rectángulo_52072" data-name="Rectángulo 52072" width="13.788" height="27.573" transform="translate(519.699 287.012)" fill="#263238"/>
        <rect id="Rectángulo_52073" data-name="Rectángulo 52073" width="13.788" height="75.433" transform="translate(408.054 239.152)" fill="#455a64"/>
        <rect id="Rectángulo_52074" data-name="Rectángulo 52074" width="13.788" height="75.433" transform="translate(435.965 239.152)" fill="#263238"/>
        <rect id="Rectángulo_52075" data-name="Rectángulo 52075" width="13.788" height="92.846" transform="translate(491.787 221.739)" fill="#455a64"/>
        <rect id="Rectángulo_52076" data-name="Rectángulo 52076" width="12.224" height="12.224" transform="translate(56.157 104.733)" fill="#a3314f"/>
        <path id="Trazado_239281" data-name="Trazado 239281" d="M58.326,92.416H46.1V80.192H58.326Zm-10.99-1.234h9.756V81.426H47.336Z" transform="translate(17.183 29.89)" fill="#a3314f"/>
        <rect id="Rectángulo_52077" data-name="Rectángulo 52077" width="11.424" height="11.424" transform="translate(93.414 107.98)" fill="#e0e0e0"/>
        <rect id="Rectángulo_52078" data-name="Rectángulo 52078" width="11.424" height="11.424" transform="translate(111.977 107.98)" fill="#e0e0e0"/>
        <rect id="Rectángulo_52079" data-name="Rectángulo 52079" width="11.424" height="11.424" transform="translate(130.542 107.98)" fill="#e0e0e0"/>
        <rect id="Rectángulo_52080" data-name="Rectángulo 52080" width="11.424" height="11.424" transform="translate(149.107 107.98)" fill="#e0e0e0"/>
        <rect id="Rectángulo_52081" data-name="Rectángulo 52081" width="11.424" height="11.424" transform="translate(167.672 107.98)" fill="#e0e0e0"/>
        <rect id="Rectángulo_52082" data-name="Rectángulo 52082" width="120.719" height="11.66" transform="translate(196.082 107.862)" fill="#e0e0e0"/>
        <rect id="Rectángulo_52083" data-name="Rectángulo 52083" width="120.72" height="11.66" transform="translate(333.368 107.862)" fill="#e0e0e0"/>
        <rect id="Rectángulo_52084" data-name="Rectángulo 52084" width="104.08" height="11.66" transform="translate(468.936 107.862)" fill="#e0e0e0"/>
        <path id="Trazado_239282" data-name="Trazado 239282" d="M561.983,340.665c0-2.17-.1-110.893-.272-288.134l.272.27-531.358.086h-.04l.357-.357c-.008,101.807-.015,199.273-.022,288.134l-.335-.335,531.4.335L30.586,341h-.335v-.335c-.007-88.861-.014-186.327-.022-288.134v-.358h.4l531.358.086h.272v.272c-.167,177.241-.27,285.966-.272,288.134" transform="translate(11.267 19.446)" fill="#263238"/>
      </g>
    </g>
    <g id="Grupo_166524" data-name="Grupo 166524">
      <g id="Grupo_166523" data-name="Grupo 166523" clip-path="url(#clip-path)">
        <path id="Trazado_239283" data-name="Trazado 239283" d="M236.056,284.685l37.033,39.558,55.432-16.422,9.759,21.6s-64.3,23.921-69.932,21.748-39.475-30.9-39.475-30.9Z" transform="translate(85.307 106.11)" fill="#a3314f"/>
        <path id="Trazado_239284" data-name="Trazado 239284" d="M255.075,303.042a25.419,25.419,0,0,1-2.619,2.844c-1.653,1.716-3.9,4.121-6.236,6.9-3.842,4.53-6.713,8.659-7.7,9.9l-.567.714.384-.807c.183-.384.287-.553.32-.541s0,.209-.128.615l-.181-.095a69.724,69.724,0,0,1,7.323-10.243,80.589,80.589,0,0,1,6.426-6.792,17.531,17.531,0,0,1,2.976-2.486" transform="translate(88.692 112.95)" fill="#fafafa"/>
        <path id="Trazado_239285" data-name="Trazado 239285" d="M253.311,299.708a33.052,33.052,0,0,1-3,2.947c-1.872,1.791-4.39,4.335-6.964,7.33s-4.7,5.871-6.191,7.993a33.1,33.1,0,0,1-2.46,3.413,19.561,19.561,0,0,1,2.039-3.693,71.763,71.763,0,0,1,13.234-15.416,19.639,19.639,0,0,1,3.343-2.575" transform="translate(87.475 111.708)" fill="#fafafa"/>
        <path id="Trazado_239286" data-name="Trazado 239286" d="M312.4,387.658l-.917-4.3-23.955,4.729,1.6,9.358,1.507-.141c6.7-.685,34.007-3.955,38.23-6,4.713-2.287-16.46-3.646-16.46-3.646" transform="translate(107.171 142.889)" fill="#a3314f"/>
        <g id="Grupo_166513" data-name="Grupo 166513" transform="translate(395.091 532.868)" opacity="0.5">
          <g id="Grupo_166512" data-name="Grupo 166512">
            <g id="Grupo_166511" data-name="Grupo 166511" clip-path="url(#clip-path-8)">
              <path id="Trazado_239287" data-name="Trazado 239287" d="M297.715,394.08a8.6,8.6,0,0,0-3.752-4.82,7.11,7.11,0,0,0-6.148-.685l1.176,6.73Z" transform="translate(-287.815 -388.182)" fill="#fff"/>
            </g>
          </g>
        </g>
        <g id="Grupo_166516" data-name="Grupo 166516" transform="translate(396.251 531.568)" opacity="0.5">
          <g id="Grupo_166515" data-name="Grupo 166515">
            <g id="Grupo_166514" data-name="Grupo 166514" clip-path="url(#clip-path-9)">
              <path id="Trazado_239288" data-name="Trazado 239288" d="M322.385,387.236s7.492.929,6.787,2.251-28.179,5.665-40.465,6.519l-.047-.544,32.087-4.792s.246-3.155,1.638-3.435" transform="translate(-288.66 -387.235)" fill="#fff"/>
            </g>
          </g>
        </g>
        <path id="Trazado_239289" data-name="Trazado 239289" d="M288.383,395.007a2.3,2.3,0,0,0,.42-.021l1.2-.117,4.4-.5c3.715-.452,8.839-1.142,14.48-2.029s10.731-1.8,14.405-2.515l4.343-.873,1.178-.257a2.233,2.233,0,0,0,.406-.11,2.345,2.345,0,0,0-.417.051l-1.187.2-4.361.781c-3.683.658-8.774,1.54-14.414,2.428s-10.754,1.609-14.46,2.113l-4.39.6-1.193.172a2.324,2.324,0,0,0-.413.08" transform="translate(107.488 144.834)" fill="#263238"/>
        <path id="Trazado_239290" data-name="Trazado 239290" d="M312.105,391.133a6.438,6.438,0,0,1,1.713-4.126,3.936,3.936,0,0,0-1.713,4.126" transform="translate(116.287 144.245)" fill="#263238"/>
        <path id="Trazado_239291" data-name="Trazado 239291" d="M306.492,388.8c.074.032.349-.435.612-1.043s.417-1.128.342-1.16-.349.434-.612,1.043-.417,1.127-.342,1.16" transform="translate(114.23 144.095)" fill="#263238"/>
        <path id="Trazado_239292" data-name="Trazado 239292" d="M304.952,388.111c.063.051.4-.262.759-.7s.592-.835.528-.887-.4.262-.758.7-.593.835-.53.887" transform="translate(113.66 144.066)" fill="#263238"/>
        <path id="Trazado_239293" data-name="Trazado 239293" d="M303.79,386.28a5.557,5.557,0,0,0,2.519-.369,5.557,5.557,0,0,0-2.519.369" transform="translate(113.23 143.82)" fill="#263238"/>
        <path id="Trazado_239294" data-name="Trazado 239294" d="M303.3,385.118a3.592,3.592,0,0,0,2.881-.235,7.724,7.724,0,0,0-1.44.126,7.9,7.9,0,0,0-1.441.108" transform="translate(113.047 143.447)" fill="#263238"/>
        <path id="Trazado_239295" data-name="Trazado 239295" d="M306.84,387.309a4.537,4.537,0,0,0,1.544-.254,9.129,9.129,0,0,0,1.59-.623,4.6,4.6,0,0,0,.88-.537.847.847,0,0,0,.307-.541.619.619,0,0,0-.332-.582,2.873,2.873,0,0,0-3.376,1.384,2.817,2.817,0,0,0-.342,1.112.877.877,0,0,0,.026.424,4.414,4.414,0,0,1,.5-1.43,2.822,2.822,0,0,1,1.186-1.067,2.427,2.427,0,0,1,1.863-.166c.273.143.224.448-.023.652a4.641,4.641,0,0,1-.811.509,10.724,10.724,0,0,1-1.526.666c-.9.31-1.489.4-1.481.453" transform="translate(114.367 143.362)" fill="#263238"/>
        <path id="Trazado_239296" data-name="Trazado 239296" d="M307.793,387.344a1.539,1.539,0,0,0,.008-1.1,2.576,2.576,0,0,0-.6-1.062,1.576,1.576,0,0,0-1.413-.585.623.623,0,0,0-.364.789,1.707,1.707,0,0,0,.372.649,4.723,4.723,0,0,0,.879.821,2.257,2.257,0,0,0,.983.486c.022-.043-.351-.229-.855-.651a5.427,5.427,0,0,1-.793-.826c-.265-.294-.5-.857-.126-.988.382-.1.837.224,1.123.5a2.578,2.578,0,0,1,.6.936,5.684,5.684,0,0,1,.191,1.038" transform="translate(113.827 143.339)" fill="#263238"/>
        <path id="Trazado_239297" data-name="Trazado 239297" d="M287.983,388.532c.014.054.68-.174,1.787-.218a7.632,7.632,0,0,1,7.1,4.028c.53.973.675,1.661.729,1.646a1.4,1.4,0,0,0-.077-.486,6.436,6.436,0,0,0-.467-1.256,7.405,7.405,0,0,0-7.295-4.14,6.465,6.465,0,0,0-1.318.243,1.431,1.431,0,0,0-.456.184" transform="translate(107.339 144.647)" fill="#263238"/>
        <path id="Trazado_239298" data-name="Trazado 239298" d="M296.962,390.708A19.968,19.968,0,0,0,304,389.663c-.021-.084-1.577.261-3.517.546s-3.529.413-3.525.5" transform="translate(110.686 145.233)" fill="#263238"/>
        <path id="Trazado_239299" data-name="Trazado 239299" d="M293.528,390.963c-.049.069.181.313.4.648s.356.641.438.622.065-.4-.191-.784-.6-.552-.645-.486" transform="translate(109.403 145.717)" fill="#263238"/>
        <path id="Trazado_239300" data-name="Trazado 239300" d="M291.979,389.558c-.048.066.147.291.435.505s.563.332.611.266-.147-.291-.435-.505-.563-.332-.611-.266" transform="translate(108.825 145.192)" fill="#263238"/>
        <path id="Trazado_239301" data-name="Trazado 239301" d="M290.009,389.167c.03.08.349.026.722.095s.658.216.712.151-.2-.365-.663-.442-.807.126-.771.2" transform="translate(108.093 144.973)" fill="#263238"/>
        <path id="Trazado_239302" data-name="Trazado 239302" d="M288.634,388.993c-.018.08.14.181.353.227s.4.019.415-.06-.14-.181-.353-.228-.4-.018-.415.062" transform="translate(107.581 144.957)" fill="#263238"/>
        <path id="Trazado_239303" data-name="Trazado 239303" d="M203.182,388.88l82.383-77.687a27.086,27.086,0,0,1,19.368-8.153q.811,0,1.635.041c13.191.664,23.973,10.82,26.189,23.84L349.8,412.517l-34.247,9.667-12.3-69.271L262.577,389.67Z" transform="translate(75.731 112.951)" fill="#263238"/>
        <path id="Trazado_239304" data-name="Trazado 239304" d="M184.253,374.61c-.349.986-2.63,29.486,32.992,29.486h95.181c12.047,0,21.813-9.173,21.813-20.489s-9.766-20.489-21.813-20.489H223.8a23.01,23.01,0,0,0-9.179,1.9Z" transform="translate(68.619 135.344)" fill="#263238"/>
        <path id="Trazado_239305" data-name="Trazado 239305" d="M307.554,363.222c0,.211-19.659.382-43.9.382s-43.908-.17-43.908-.382,19.655-.382,43.908-.382,43.9.172,43.9.382" transform="translate(81.904 135.24)" fill="#455a64"/>
        <path id="Trazado_239306" data-name="Trazado 239306" d="M274.257,326.144c.229,0,.239,4.118.986,9.111.723,5,1.9,8.941,1.682,9.011-.18.07-1.7-3.823-2.437-8.9-.758-5.071-.423-9.237-.231-9.222" transform="translate(102.132 121.562)" fill="#455a64"/>
        <path id="Trazado_239307" data-name="Trazado 239307" d="M277.582,325.712c.2,0,.412,4.2-.037,9.367s-1.362,9.277-1.558,9.238c-.217-.037.365-4.176.8-9.3s.577-9.3.8-9.3" transform="translate(102.85 121.401)" fill="#455a64"/>
        <path id="Trazado_239308" data-name="Trazado 239308" d="M282.878,403.291a26.119,26.119,0,0,0,6.946-4.059,21.255,21.255,0,0,0,5.3-6.835,20.671,20.671,0,0,0-1.472-20.289,21.261,21.261,0,0,0-6.234-6,26.085,26.085,0,0,0-7.459-3.015,1.726,1.726,0,0,1,.568.032,13.822,13.822,0,0,1,1.6.287,20.129,20.129,0,0,1,5.55,2.264,21.118,21.118,0,0,1,6.514,6.058,20.963,20.963,0,0,1,1.52,20.951,21.129,21.129,0,0,1-5.569,6.934,20.153,20.153,0,0,1-5.166,3.042,13.774,13.774,0,0,1-1.547.516,1.7,1.7,0,0,1-.557.113" transform="translate(104.349 135.331)" fill="#455a64"/>
        <path id="Trazado_239309" data-name="Trazado 239309" d="M228.092,231.189l-.773,4.128-11.954,61.71c-1.388,7.164,3.667,14.062,11.348,15.49,7.759,1.441,15.276-3.234,16.8-10.448,1.6-7.572,3.417-15.513,3.417-15.513s10.1.406,14.762-11.908c2.321-6.124,4.159-16.574,5.388-25.173a13.733,13.733,0,0,0-12.228-15.616Z" transform="translate(80.187 86.17)" fill="#ffbe9d"/>
        <path id="Trazado_239310" data-name="Trazado 239310" d="M251.468,250.219a1.668,1.668,0,0,1-1.918,1.321,1.6,1.6,0,0,1-1.377-1.822,1.667,1.667,0,0,1,1.915-1.322,1.6,1.6,0,0,1,1.38,1.823" transform="translate(92.493 92.576)" fill="#263238"/>
        <path id="Trazado_239311" data-name="Trazado 239311" d="M252.264,248.775c-.247.172-1.294-1-3.053-1.362-1.75-.386-3.229.251-3.374,0-.074-.114.213-.456.859-.748a4.572,4.572,0,0,1,2.755-.261,4.391,4.391,0,0,1,2.375,1.351c.454.526.557.95.438,1.024" transform="translate(91.626 91.802)" fill="#263238"/>
        <path id="Trazado_239312" data-name="Trazado 239312" d="M238.671,247.31a1.667,1.667,0,0,1-1.916,1.321,1.6,1.6,0,0,1-1.378-1.822,1.668,1.668,0,0,1,1.915-1.322,1.6,1.6,0,0,1,1.38,1.823" transform="translate(87.723 91.492)" fill="#263238"/>
        <path id="Trazado_239313" data-name="Trazado 239313" d="M239.63,246.4c-.247.17-1.3-1-3.053-1.362-1.75-.386-3.229.251-3.374,0-.074-.114.21-.456.858-.748a4.577,4.577,0,0,1,2.756-.261,4.4,4.4,0,0,1,2.375,1.351c.453.526.556.949.438,1.024" transform="translate(86.917 90.917)" fill="#263238"/>
        <path id="Trazado_239314" data-name="Trazado 239314" d="M240.557,260.209a11.891,11.891,0,0,1,2.961.078c.458.047.9.045,1.042-.244a2.342,2.342,0,0,0-.023-1.393q-.3-1.761-.618-3.693c-.833-5.248-1.336-9.525-1.124-9.557s1.058,4.2,1.89,9.444q.292,1.938.557,3.7a2.65,2.65,0,0,1-.133,1.811,1.147,1.147,0,0,1-.873.5,3.141,3.141,0,0,1-.785-.052,11.68,11.68,0,0,1-2.894-.6" transform="translate(89.662 91.467)" fill="#263238"/>
        <path id="Trazado_239315" data-name="Trazado 239315" d="M242.669,273.719a33.093,33.093,0,0,1-16.11-8.091s2.321,9.606,15.314,11.061Z" transform="translate(84.444 99.007)" fill="#eb996e"/>
        <path id="Trazado_239316" data-name="Trazado 239316" d="M236.755,256.292c.29.043-.1,1.951,1.248,3.645s3.426,1.9,3.387,2.174c0,.125-.53.276-1.393.121a4.847,4.847,0,0,1-2.848-1.706,4.227,4.227,0,0,1-.924-3.031c.092-.813.4-1.241.531-1.2" transform="translate(88.038 95.526)" fill="#263238"/>
        <path id="Trazado_239317" data-name="Trazado 239317" d="M241.478,241.371c-.273.442-1.979-.15-4.093-.329-2.11-.221-3.9.037-4.082-.449-.08-.231.3-.619,1.072-.942a7.141,7.141,0,0,1,6.229.592c.693.463,1,.917.874,1.128" transform="translate(86.954 89.154)" fill="#263238"/>
        <path id="Trazado_239318" data-name="Trazado 239318" d="M252.423,244.994c-.393.335-1.517-.331-2.968-.652-1.441-.373-2.744-.291-2.942-.767-.082-.228.195-.588.811-.854a4.4,4.4,0,0,1,4.762,1.143c.43.518.513.964.336,1.13" transform="translate(91.877 90.365)" fill="#263238"/>
        <path id="Trazado_239319" data-name="Trazado 239319" d="M278.549,238.821a4.893,4.893,0,0,0-.351-3.094,3.466,3.466,0,0,0-1.411-2.128,3.835,3.835,0,0,0-2.758.156c-3.123.9-6.925.752-9.082-1.679-1.68-1.893-2.019-4.8-3.97-6.412-2.146-1.776-5.333-1.286-7.985-.434s-5.461,1.985-8.131,1.189c-1.922-.574-3.41-2.056-5.063-3.193a13.957,13.957,0,0,0-10.416-2.335,11.352,11.352,0,0,0-8.257,6.527,9.59,9.59,0,0,0,1.8,10.187,4.739,4.739,0,0,0,.388.469c-1.262,6.615-2.776,17.158.214,17.961,4.38,1.176,5.947-10.052,5.947-10.052,5.922-.723,7.253-6.519,8.912-7.406s8.035,1.655,13.215,5.481c6.442,4.758,17.646,5.48,21.556,5.584a4.719,4.719,0,0,0,1.031.018h.367l-.044-.052a3.224,3.224,0,0,0,.754-.229c1.29-.6,1.971-2.007,2.5-3.329a7.425,7.425,0,0,0,.73-3.709,3.122,3.122,0,0,0-1.491-2.264,1.963,1.963,0,0,0,1.543-1.256" transform="translate(82.148 82.248)" fill="#263238"/>
        <path id="Trazado_239320" data-name="Trazado 239320" d="M269.14,240.276a1.337,1.337,0,0,1,.491-.57,2.348,2.348,0,1,1,2.063,4.155,3.832,3.832,0,0,1-2.464-.041c-1.761-.578-2.766-2.416-3.488-4.177a22.761,22.761,0,0,0-1.224-2.695,5.479,5.479,0,0,0-2.033-2.159,3.906,3.906,0,0,0-3-.2c-1.06.288-2.109.8-3.277,1.165a7.625,7.625,0,0,1-3.743.207,10.962,10.962,0,0,1-3.543-1.455,28.7,28.7,0,0,1-5.566-4.886,21.049,21.049,0,0,0-5.2-4.224,8.548,8.548,0,0,0-5.8-.795,8.772,8.772,0,0,0-4.514,2.475,8.9,8.9,0,0,0-2.29,7.028,13.844,13.844,0,0,0,.677,2.747,2.491,2.491,0,0,1-.364-.651,8.1,8.1,0,0,1-.589-2.06,9.114,9.114,0,0,1,.125-3.4,8.8,8.8,0,0,1,2.073-4.011,9.286,9.286,0,0,1,10.975-1.923,21.381,21.381,0,0,1,5.4,4.323,28.53,28.53,0,0,0,5.44,4.766,10.34,10.34,0,0,0,3.307,1.367,6.948,6.948,0,0,0,3.4-.18c1.1-.334,2.157-.847,3.3-1.154a4.569,4.569,0,0,1,3.5.277c2.092,1.237,2.783,3.48,3.491,5.208.686,1.753,1.614,3.418,3.108,3.925a3.381,3.381,0,0,0,2.151.088,1.958,1.958,0,0,0,1.31-1.262,2.106,2.106,0,0,0-1.2-2.552,2.3,2.3,0,0,0-1.947.21,6.491,6.491,0,0,0-.571.449" transform="translate(83.928 83.413)" fill="#455a64"/>
        <path id="Trazado_239321" data-name="Trazado 239321" d="M273.025,240.5a1.283,1.283,0,0,1-.169.529,4.538,4.538,0,0,1-.927,1.3,4.919,4.919,0,0,1-2.2,1.267,5.077,5.077,0,0,1-3.362-.314,7.8,7.8,0,0,1-2.925-2.82,6.5,6.5,0,0,0-1.462-1.516,2.62,2.62,0,0,0-2.012-.387,16.7,16.7,0,0,0-2.3.765,8.11,8.11,0,0,1-2.641.453,11.963,11.963,0,0,1-5.36-1.395c-3.389-1.761-5.911-4.341-8.634-5.969-2.674-1.677-5.6-2.438-7.9-1.874a6.454,6.454,0,0,0-4.282,3.311,7.389,7.389,0,0,0-.526,2,1.623,1.623,0,0,1-.062-.553,4.73,4.73,0,0,1,.332-1.564,6.62,6.62,0,0,1,4.413-3.689c2.478-.675,5.592.1,8.368,1.8,2.826,1.657,5.373,4.218,8.615,5.895a11.4,11.4,0,0,0,5.036,1.333,7.473,7.473,0,0,0,2.423-.4,16.265,16.265,0,0,1,2.4-.767,3.263,3.263,0,0,1,2.478.513,6.982,6.982,0,0,1,1.586,1.682,7.4,7.4,0,0,0,2.667,2.718,4.717,4.717,0,0,0,3.052.383,4.8,4.8,0,0,0,2.107-1.082,7.572,7.572,0,0,0,1.285-1.627" transform="translate(85.078 85.656)" fill="#455a64"/>
        <path id="Trazado_239322" data-name="Trazado 239322" d="M225.917,243.455c-.163-.125-6.838-4.05-8.457,3.363s6.155,7.507,6.216,7.3,2.242-10.662,2.242-10.662" transform="translate(80.97 90.314)" fill="#ffbe9d"/>
        <path id="Trazado_239323" data-name="Trazado 239323" d="M221.487,250.187c-.027-.03-.148.062-.388.115a1.327,1.327,0,0,1-.969-.192,3.266,3.266,0,0,1-.852-3.189,4.365,4.365,0,0,1,.765-1.769,1.53,1.53,0,0,1,1.189-.78.672.672,0,0,1,.684.522c.055.228-.025.367.011.387.018.023.187-.089.194-.409a.844.844,0,0,0-.189-.527,1,1,0,0,0-.673-.345,1.86,1.86,0,0,0-1.6.854,4.5,4.5,0,0,0-.9,1.968c-.28,1.5.18,3.068,1.183,3.612a1.416,1.416,0,0,0,1.224.062c.269-.133.345-.29.321-.309" transform="translate(81.507 90.941)" fill="#eb996e"/>
        <path id="Trazado_239324" data-name="Trazado 239324" d="M315.691,302.568c2.132.306,15.762,2.367,17.051,3.388s1.263,2.441-.279,2.8-10.151-.287-10.151-.287,11.112.264,11.462,1.428c.526,1.746-3.425,2.708-10.857,1.555,0,0,11.329-1.207,11.208,1.588-.059,1.367-10.183,1.493-10.183,1.493-.24.778,10.2-1.4,10.5.3.139.791-1.3,1.6-6.589,2.343-3.2.448-8.482,1.106-13.73,1.816l.017.067-5.739.811L301.677,304.7c.52-.509,3.693-2.49,5.838-3.985a6.758,6.758,0,0,1,4.606-1.168,4.184,4.184,0,0,1,3.57,3.024" transform="translate(112.443 111.633)" fill="#ffbe9d"/>
        <path id="Trazado_239325" data-name="Trazado 239325" d="M326.485,306.805c-.041.2-2.4-.136-5.308-.419s-5.286-.423-5.288-.627c0-.189,2.4-.38,5.358-.084s5.28.943,5.238,1.13" transform="translate(117.74 113.876)" fill="#eb996e"/>
        <path id="Trazado_239326" data-name="Trazado 239326" d="M326.466,308.47c-.029.2-2.137.058-4.732-.031s-4.708-.108-4.722-.312,2.11-.5,4.748-.4,4.735.557,4.706.747" transform="translate(118.159 114.689)" fill="#eb996e"/>
        <path id="Trazado_239327" data-name="Trazado 239327" d="M326.742,310.193c0,.2-2.115.316-4.7.538s-4.686.46-4.725.259,2.034-.752,4.665-.972,4.767-.016,4.762.174" transform="translate(118.271 115.515)" fill="#eb996e"/>
        <path id="Trazado_239328" data-name="Trazado 239328" d="M351.538,349.435l-39.082-6.087a3.478,3.478,0,0,1-2.9-3.973l8.2-52.661a3.48,3.48,0,0,1,3.974-2.9l27.328,4.257,12.887,17.152-6.434,41.311a3.479,3.479,0,0,1-3.973,2.9" transform="translate(115.363 105.769)" fill="#a3314f"/>
        <path id="Trazado_239329" data-name="Trazado 239329" d="M338.792,286.81l-1.629,10.466a4.74,4.74,0,0,0,3.953,5.413l10.544,1.4Z" transform="translate(125.648 106.902)" fill="#e8505b"/>
        <g id="Grupo_166519" data-name="Grupo 166519" transform="translate(462.753 393.712)" opacity="0.2">
          <g id="Grupo_166518" data-name="Grupo 166518">
            <g id="Grupo_166517" data-name="Grupo 166517" clip-path="url(#clip-path-10)">
              <path id="Trazado_239330" data-name="Trazado 239330" d="M338.792,286.81l-1.629,10.466a4.74,4.74,0,0,0,3.953,5.413l10.544,1.4Z" transform="translate(-337.105 -286.81)"/>
            </g>
          </g>
        </g>
        <path id="Trazado_239331" data-name="Trazado 239331" d="M344.371,331.551a3.24,3.24,0,0,1,.044-.509c.049-.373.11-.836.184-1.406.18-1.283.427-3.045.736-5.252.669-4.542,1.606-10.909,2.728-18.529l.255.351-26.667-4.1c-.092.065.77-.563.4-.294v.021l0,.027-.01.055-.016.11-.034.22-.069.438-.136.873q-.136.871-.27,1.736-.27,1.728-.535,3.422-.533,3.389-1.041,6.623c-.682,4.3-1.327,8.367-1.922,12.112l-.259-.356,19.2,3.15,5.443.929,1.454.264a3.51,3.51,0,0,1,.519.117,2.02,2.02,0,0,1-.463-.036c-.371-.049-.835-.108-1.4-.183l-5.4-.759-19.443-2.868-.307-.045.047-.31c.574-3.748,1.2-7.818,1.853-12.121q.5-3.231,1.024-6.626.261-1.695.53-3.424.136-.865.27-1.737l.136-.873.069-.438.033-.22.018-.11.008-.055,0-.027,0-.014V301.7c-.365.264.5-.368.41-.3l26.651,4.2.306.048-.049.3c-1.262,7.68-2.316,14.1-3.067,18.673-.372,2.169-.669,3.9-.885,5.16-.1.541-.178.982-.244,1.337a1.938,1.938,0,0,1-.1.431" transform="translate(118.286 112.337)" fill="#fff"/>
        <path id="Trazado_239332" data-name="Trazado 239332" d="M327.112,329.006c-.195-.03.541-5.8,1.645-12.879s2.155-12.8,2.35-12.769-.541,5.8-1.645,12.879-2.155,12.8-2.35,12.769" transform="translate(121.912 113.069)" fill="#fff"/>
        <path id="Trazado_239333" data-name="Trazado 239333" d="M344.941,319.911c-.03.195-6.047-.581-13.436-1.731s-13.358-2.242-13.328-2.437,6.045.579,13.438,1.731,13.357,2.242,13.326,2.437" transform="translate(118.593 117.674)" fill="#fff"/>
        <path id="Trazado_239334" data-name="Trazado 239334" d="M345.9,315.182c-.03.195-6.047-.581-13.436-1.731s-13.358-2.242-13.326-2.437,6.045.579,13.436,1.731,13.357,2.242,13.326,2.437" transform="translate(118.953 115.912)" fill="#fff"/>
        <path id="Trazado_239335" data-name="Trazado 239335" d="M346.444,310.388c-.03.195-6-.572-13.335-1.715s-13.256-2.227-13.226-2.423,6,.574,13.336,1.716,13.255,2.227,13.225,2.422" transform="translate(119.229 114.136)" fill="#fff"/>
        <path id="Trazado_239336" data-name="Trazado 239336" d="M231.054,380.985V376.1l69.588,1.422L340.711,313.5l3.676,2.654-41.049,65.454Z" transform="translate(86.12 116.851)" fill="#455a64"/>
        <path id="Trazado_239337" data-name="Trazado 239337" d="M271.49,347.984l3.5,5.194v10.694a2.32,2.32,0,0,1-2.537-1.03,42.856,42.856,0,0,1-1.691-6.4l-1.7,4.378a3.777,3.777,0,0,1-4.439,2.3l-12.9-3.236L257,344.8Z" transform="translate(93.825 128.517)" fill="#ffbe9d"/>
        <path id="Trazado_239338" data-name="Trazado 239338" d="M311.249,299.5l11.862,3.775a1.945,1.945,0,0,1-2.118,2.048c-2.19-.071-8.009-.629-8.009-.629s-.041,4.129-3.429,4.991c0,0-4.308-7.469-4.166-7.68s5.86-2.505,5.86-2.505" transform="translate(113.825 111.633)" fill="#ffbe9d"/>
        <path id="Trazado_239339" data-name="Trazado 239339" d="M311.242,313.805c-.076.016-.18-.436-.56-1.113a5.088,5.088,0,0,0-2.264-2.114l-.656-.3.681-.266a6.361,6.361,0,0,0,3.82-6.438l-.047-.4.389.033a26.841,26.841,0,0,1,5.215.664,26.848,26.848,0,0,1-5.258-.019l.34-.368a6.672,6.672,0,0,1-4.243,7.108l.026-.568a4.969,4.969,0,0,1,2.321,2.515c.309.777.288,1.264.235,1.27" transform="translate(114.711 113)" fill="#eb996e"/>
        <path id="Trazado_239340" data-name="Trazado 239340" d="M227.885,271.885s-15.552,8.9-21.331,17.571-16.066,18.961-23.155,46.859c-6.186,24.345-8.492,57.37-1.793,66.492,4.612,6.282,8.054,8.72,8.054,8.72l12.024-4.928c14.316-5.127,27.343-8.426,38.578-18.676l22.806-20.808L251,357.593s9.184-49.608,6.743-66.941c-2.135-15.155-29.854-18.767-29.854-18.767" transform="translate(66.178 101.339)" fill="#a3314f"/>
        <path id="Trazado_239341" data-name="Trazado 239341" d="M213.456,289.355l-12.732,59.513a21.308,21.308,0,0,0,13.549,24.48l55.329,10.61,6.9-20.624-44.9-14.007,13.169-57.494Z" transform="translate(74.638 107.85)" fill="#a3314f"/>
        <path id="Trazado_239342" data-name="Trazado 239342" d="M200.251,363.99a1.912,1.912,0,0,1,.088.347c.052.257.121.594.209,1.03.045.229.1.483.15.763.1.27.207.566.323.885s.244.666.379,1.035l.605,1.105a14.773,14.773,0,0,0,4.475,4.73,25.112,25.112,0,0,0,8.117,3.54l54.743,10.014-.371.214c2.28-6.533,4.691-13.442,7.2-20.632l.229.456c-13.852-4.312-29.039-9.041-44.909-13.983l-.345-.107.091-.353c.781-3.064,1.618-6.346,2.461-9.653,2.61-10.42,5.056-20.622,7.183-30.521,1.042-4.951,2.03-9.83,2.713-14.636.2-1.2.194-2.391.3-3.577a15.9,15.9,0,0,0-.393-3.478,14.528,14.528,0,0,0-3.064-6.1,14.983,14.983,0,0,0-11.731-5.253,15.321,15.321,0,0,0-10.893,5.513,28.714,28.714,0,0,0-5.613,10.345,91.4,91.4,0,0,0-2.545,10.711c-2.722,13.795-4.925,24.967-6.456,32.723-.773,3.835-1.375,6.825-1.793,8.888q-.311,1.487-.485,2.308c-.114.52-.191.782-.191.782s.026-.273.114-.8c.1-.552.235-1.323.41-2.321.384-2.07.94-5.068,1.653-8.917,1.473-7.767,3.6-18.955,6.217-32.767a91.567,91.567,0,0,1,2.513-10.791,29.266,29.266,0,0,1,5.7-10.582,15.96,15.96,0,0,1,11.343-5.764,15.653,15.653,0,0,1,12.289,5.468,15.239,15.239,0,0,1,3.229,6.393,16.529,16.529,0,0,1,.416,3.646c-.106,1.215-.1,2.463-.3,3.667-.681,4.847-1.665,9.733-2.7,14.7-2.121,9.917-4.563,20.124-7.175,30.553-.844,3.308-1.683,6.592-2.465,9.66l-.255-.46L276.607,366.8l.351.11-.122.346-7.248,20.614-.093.266-.276-.051c-22.649-4.238-41.5-7.694-54.718-10.289a25.229,25.229,0,0,1-8.192-3.671,14.814,14.814,0,0,1-4.479-4.872l-.594-1.134c-.128-.376-.248-.729-.36-1.057s-.21-.626-.3-.9c-.047-.283-.088-.541-.126-.774-.067-.441-.119-.784-.159-1.043a1.912,1.912,0,0,1-.037-.354" transform="translate(74.638 104.044)" fill="#263238"/>
        <path id="Trazado_239343" data-name="Trazado 239343" d="M217.487,340.809c-.086,0-.165-.7.117-1.779a8.312,8.312,0,0,1,6.006-5.768c1.091-.236,1.782-.13,1.782-.044.008.122-.653.211-1.631.563a9.6,9.6,0,0,0-5.645,5.421c-.39.964-.507,1.62-.629,1.607" transform="translate(81.033 124.162)" fill="#263238"/>
        <g id="Grupo_166522" data-name="Grupo 166522" transform="translate(272.733 396.412)" opacity="0.2">
          <g id="Grupo_166521" data-name="Grupo 166521">
            <g id="Grupo_166520" data-name="Grupo 166520" clip-path="url(#clip-path-11)">
              <path id="Trazado_239344" data-name="Trazado 239344" d="M212.743,288.777c-6.658,20.632-10.68,42.041-13.326,63.56-.611,4.966-1.148,10.022-.292,14.953s3.289,9.8,7.488,12.521c3.919,2.542,8.93,2.931,13.52,2.062s12.015-1.886,16.239-3.882l-24.754-5.1s-15.963-.994-9.108-31.559,10.234-52.551,10.234-52.551" transform="translate(-198.68 -288.777)"/>
            </g>
          </g>
        </g>
        <path id="Trazado_239345" data-name="Trazado 239345" d="M231.059,350.608a14.828,14.828,0,0,1,.254-2.369c.233-1.636.542-3.8.917-6.423.8-5.536,1.87-12.971,3.053-21.188,1.168-8.279,2.194-15.777,2.883-21.21.331-2.629.6-4.8.81-6.438a15.36,15.36,0,0,1,.356-2.354,15.215,15.215,0,0,1-.08,2.383c-.107,1.529-.3,3.741-.583,6.467-.561,5.455-1.509,12.97-2.677,21.254s-2.346,15.759-3.263,21.165c-.457,2.7-.851,4.886-1.142,6.39a15.492,15.492,0,0,1-.527,2.324" transform="translate(86.117 108.324)" fill="#263238"/>
        <path id="Trazado_239346" data-name="Trazado 239346" d="M239.2,304.238c-.044.107-1.763-.564-4.595-1.448a72.507,72.507,0,0,0-22.826-3.332c-2.968.038-4.806.189-4.817.074a4.605,4.605,0,0,1,1.275-.255c.826-.125,2.032-.24,3.525-.324a59.72,59.72,0,0,1,23,3.358c1.407.507,2.529.961,3.285,1.318a4.608,4.608,0,0,1,1.15.609" transform="translate(77.142 111.397)" fill="#fafafa"/>
        <path id="Trazado_239347" data-name="Trazado 239347" d="M238.266,308.522c-.044.11-1.787-.563-4.671-1.414a64.7,64.7,0,0,0-23.2-2.5c-3,.214-4.844.5-4.865.384a4.67,4.67,0,0,1,1.274-.342c.828-.181,2.04-.373,3.546-.546a54.746,54.746,0,0,1,23.4,2.524c1.434.49,2.578.935,3.348,1.29a4.733,4.733,0,0,1,1.171.6" transform="translate(76.607 113.226)" fill="#fafafa"/>
        <path id="Trazado_239348" data-name="Trazado 239348" d="M255.566,279.952a4.331,4.331,0,0,0-2.778-4.037,10.316,10.316,0,0,0-4.566-.067,24.225,24.225,0,0,1-15.572-3.76c-4.142-2.7-7.476-6.681-12.05-8.551a8.065,8.065,0,0,0-3.728-.7,4.241,4.241,0,0,0-3.225,1.808c-1.106,1.752-.371,4.125.914,5.749-2.456,1.251-3.731,4.485-2.152,6.744a43.2,43.2,0,0,1,28.339,16.54c1.2,1.584,2.358,3.314,4.124,4.224,3.244,1.672,7.561-.323,9.107-3.628s.712-7.359-1.33-10.383a4.33,4.33,0,0,0,2.918-3.937" transform="translate(78.911 97.957)" fill="#455a64"/>
        <path id="Trazado_239349" data-name="Trazado 239349" d="M250.444,281.232a4.56,4.56,0,0,1-1.327.708,15.174,15.174,0,0,1-3.973,1.042,16.445,16.445,0,0,1-6.095-.358,19.749,19.749,0,0,1-6.711-3.282c-2.157-1.542-4.021-3.219-5.768-4.654a36.147,36.147,0,0,0-4.859-3.481,24.055,24.055,0,0,0-5.078-2.111,4.53,4.53,0,0,1,1.494.185,15.853,15.853,0,0,1,3.829,1.484,32.468,32.468,0,0,1,5.03,3.411c1.786,1.419,3.656,3.074,5.768,4.584a19.92,19.92,0,0,0,6.461,3.226,16.83,16.83,0,0,0,5.877.494,25.962,25.962,0,0,0,5.354-1.248" transform="translate(80.744 100.293)" fill="#263238"/>
        <path id="Trazado_239350" data-name="Trazado 239350" d="M237.686,295.012a9.691,9.691,0,0,0,.969-.372,4.968,4.968,0,0,0,1.973-1.948,7.09,7.09,0,0,0,.844-4.019,21.154,21.154,0,0,0-.983-5.031,2.7,2.7,0,0,0-2.081-1.871l-.255-.023.157-.2a6.36,6.36,0,0,0,1.321-3.7,6.23,6.23,0,0,0-.718-3.065,7.641,7.641,0,0,0-1.83-2.207,3.524,3.524,0,0,1,.631.45,6.311,6.311,0,0,1,2.157,4.828,6.532,6.532,0,0,1-1.341,3.861l-.1-.224a2.964,2.964,0,0,1,2.324,2.043,20.6,20.6,0,0,1,.979,5.124,7.179,7.179,0,0,1-.933,4.136,4.9,4.9,0,0,1-2.1,1.944,2.87,2.87,0,0,1-1.017.272" transform="translate(88.366 101.597)" fill="#fafafa"/>
        <path id="Trazado_239351" data-name="Trazado 239351" d="M231.5,271.694a6.893,6.893,0,0,1,1.551,2.273,9.232,9.232,0,0,1,.384,6.564c-.074.2-.147.4-.217.59l-.007-.125a7.544,7.544,0,0,1,.478,6.12,5.657,5.657,0,0,1-1.3,2.191,10.3,10.3,0,0,0,1.117-2.253,7.547,7.547,0,0,0-.541-5.916l-.033-.059.025-.066c.067-.181.137-.375.209-.57a9.348,9.348,0,0,0-.3-6.4,13.259,13.259,0,0,0-1.366-2.354" transform="translate(86.284 101.267)" fill="#fafafa"/>
        <path id="Trazado_239352" data-name="Trazado 239352" d="M228.249,269.6a1.68,1.68,0,0,1,.269.428,5.863,5.863,0,0,1,.452,1.3,6.844,6.844,0,0,1-.546,4.464,6.69,6.69,0,0,1-.879,1.327l.033-.081a4.357,4.357,0,0,1-1.632,3.026,3.726,3.726,0,0,1-.873.522.947.947,0,0,1-.351.1,9.2,9.2,0,0,0,1.112-.76,4.354,4.354,0,0,0,1.467-2.909l0-.044.03-.037a6.721,6.721,0,0,0,.832-1.273,7.028,7.028,0,0,0,.6-4.3,12.912,12.912,0,0,0-.522-1.769" transform="translate(83.759 100.487)" fill="#fafafa"/>
        <path id="Trazado_239353" data-name="Trazado 239353" d="M223.446,265.7a8.822,8.822,0,0,0-1.439,1.521,6.075,6.075,0,0,0-.94,4.778c.023.092.047.185.069.27l.037.147-.141.034a4.256,4.256,0,0,0-3.157,3.255,5.97,5.97,0,0,0-.008,1.989,1.438,1.438,0,0,1-.17-.522,4.1,4.1,0,0,1-.017-1.5,4.378,4.378,0,0,1,3.286-3.5l-.1.18c-.023-.091-.048-.188-.073-.285a6.06,6.06,0,0,1,1.053-4.962,5.311,5.311,0,0,1,1.108-1.113,1.855,1.855,0,0,1,.5-.291" transform="translate(81.112 99.033)" fill="#fafafa"/>
        <path id="Trazado_239354" data-name="Trazado 239354" d="M213.789,277.35a1.877,1.877,0,0,1-.441-.512,4.423,4.423,0,0,1-.248-4.442,4.593,4.593,0,0,1,2.552-2.218l-.067.222c-.07-.1-.155-.206-.224-.321a4.82,4.82,0,0,1-.67-3.448,4.622,4.622,0,0,1,3.071-3.5,2.583,2.583,0,0,1,.7-.139,5.6,5.6,0,0,0-2.228,1.274,4.44,4.44,0,0,0-1.281,2.411,4.633,4.633,0,0,0,.651,3.247c.063.108.144.206.21.3l.111.162-.178.06a4.406,4.406,0,0,0-2.415,2.069,4.231,4.231,0,0,0-.458,2.57,5.39,5.39,0,0,0,.918,2.264" transform="translate(79.247 98.024)" fill="#fafafa"/>
      </g>
    </g>
    <g id="Grupo_166535" data-name="Grupo 166535">
      <g id="Grupo_166534" data-name="Grupo 166534" clip-path="url(#clip-path)">
        <path id="Trazado_239355" data-name="Trazado 239355" d="M90.37,355.363A95.168,95.168,0,0,1,100.838,335.5c1.426-2.07,3.064-4.183,5.413-5.078,3.942-1.5,8.2.913,11.72,3.231q4.077,2.681,8.153,5.363c.479.314,1,.695,1.086,1.262.15,1-1.113,1.584-2.122,1.7a14.563,14.563,0,0,1-9.888-2.442c-2.194-1.511-4.327-3.748-6.976-3.468-3.292.347-4.762,4.169-6.037,7.222a32.481,32.481,0,0,1-13.867,15.626" transform="translate(32.919 122.983)" fill="#ced371"/>
        <path id="Trazado_239356" data-name="Trazado 239356" d="M90.546,374.051c.629-16.311,1.277-32.755,5.183-48.6s11.359-31.26,23.634-42.019c-1.623,13.745-6.614,26.837-11.565,39.762q-10,26.109-20,52.219" transform="translate(32.726 105.641)" fill="#ced371"/>
        <path id="Trazado_239357" data-name="Trazado 239357" d="M100.226,367.163a181.071,181.071,0,0,0-12.392-43.194c-.866-2.026-1.875-4.161-3.764-5.3-2.788-1.676-6.371-.575-9.341.752a75.949,75.949,0,0,0-19.456,12.558,2.763,2.763,0,0,0-1.039,1.465,1.922,1.922,0,0,0,1.513,1.985,5.609,5.609,0,0,0,2.706-.172l16.308-3.772c1.65-.38,3.422-.755,5-.132,1.912.756,2.986,2.75,3.9,4.592l16.021,32.284" transform="translate(20.207 118.461)" fill="#ced371"/>
        <g id="Grupo_166527" data-name="Grupo 166527" transform="translate(121.237 452.938)" opacity="0.4">
          <g id="Grupo_166526" data-name="Grupo 166526">
            <g id="Grupo_166525" data-name="Grupo 166525" clip-path="url(#clip-path-13)">
              <path id="Trazado_239358" data-name="Trazado 239358" d="M90.37,355.363A95.168,95.168,0,0,1,100.838,335.5c1.426-2.07,3.064-4.183,5.413-5.078,3.942-1.5,8.2.913,11.72,3.231q4.077,2.681,8.153,5.363c.479.314,1,.695,1.086,1.262.15,1-1.113,1.584-2.122,1.7a14.563,14.563,0,0,1-9.888-2.442c-2.194-1.511-4.327-3.748-6.976-3.468-3.292.347-4.762,4.169-6.037,7.222a32.481,32.481,0,0,1-13.867,15.626" transform="translate(-88.319 -329.955)"/>
            </g>
          </g>
        </g>
        <g id="Grupo_166530" data-name="Grupo 166530" transform="translate(120.301 389.07)" opacity="0.4">
          <g id="Grupo_166529" data-name="Grupo 166529">
            <g id="Grupo_166528" data-name="Grupo 166528" clip-path="url(#clip-path-14)">
              <path id="Trazado_239359" data-name="Trazado 239359" d="M90.381,374.051c.629-16.311,1.277-32.755,5.183-48.6s11.359-31.26,23.634-42.019c-1.623,13.745-6.614,26.837-11.565,39.762q-10,26.109-20,52.219" transform="translate(-87.636 -283.429)"/>
            </g>
          </g>
        </g>
        <g id="Grupo_166533" data-name="Grupo 166533" transform="translate(74.585 436.724)" opacity="0.3">
          <g id="Grupo_166532" data-name="Grupo 166532">
            <g id="Grupo_166531" data-name="Grupo 166531" clip-path="url(#clip-path-15)">
              <path id="Trazado_239360" data-name="Trazado 239360" d="M100.345,367.483a181.069,181.069,0,0,0-12.392-43.194c-.866-2.026-1.875-4.161-3.764-5.3-2.788-1.676-6.371-.575-9.341.752A75.949,75.949,0,0,0,55.393,332.3a2.755,2.755,0,0,0-1.039,1.465,1.922,1.922,0,0,0,1.513,1.985,5.609,5.609,0,0,0,2.706-.172l16.308-3.772c1.65-.38,3.422-.755,5-.132,1.912.756,2.986,2.75,3.9,4.592L99.8,368.552" transform="translate(-54.333 -318.143)"/>
            </g>
          </g>
        </g>
        <path id="Trazado_239361" data-name="Trazado 239361" d="M112.929,264.169S91.736,286.894,90.2,321.623s-3.576,59.751-3.576,59.751h3.831s7.66-69.965,12.766-82.222,13.023-29.621,9.7-34.983" transform="translate(32.289 98.463)" fill="#ced371"/>
        <path id="Trazado_239362" data-name="Trazado 239362" d="M112.519,264.169a7.707,7.707,0,0,1-.479,1.111q-.546,1.157-1.476,3.128c-1.262,2.725-3.015,6.7-4.969,11.7s-4.087,11.028-6.124,17.825a182.294,182.294,0,0,0-5.336,22.428c-.688,4.032-1,8.011-1.3,11.866s-.511,7.575-.722,11.12c-.415,7.094-.848,13.487-1.435,18.837-.568,5.351-1.278,9.653-1.881,12.6-.276,1.48-.564,2.612-.745,3.384a7.894,7.894,0,0,1-.32,1.165,7.509,7.509,0,0,1,.18-1.2c.135-.778.379-1.919.612-3.4.516-2.957,1.149-7.256,1.651-12.6.52-5.343.9-11.727,1.279-18.823.194-3.548.4-7.274.681-11.134s.6-7.87,1.292-11.929a175.794,175.794,0,0,1,5.41-22.5c2.078-6.806,4.269-12.834,6.286-17.822s3.846-8.943,5.188-11.635c.659-1.352,1.231-2.372,1.6-3.074a7.587,7.587,0,0,1,.607-1.045" transform="translate(32.699 98.463)" fill="#263238"/>
        <path id="Trazado_239363" data-name="Trazado 239363" d="M125.172,287.854S99.307,312.548,96.4,335.836s-4.422,35.772-4.422,35.772H94.53s6.129-33.2,14.044-43.665,18.385-37.281,16.6-40.089" transform="translate(34.282 107.291)" fill="#ced371"/>
        <path id="Trazado_239364" data-name="Trazado 239364" d="M124.332,289.027a4.073,4.073,0,0,1-.379.787l-1.205,2.18c-1.111,1.962-2.643,4.666-4.515,7.97-3.785,6.74-9.027,16.062-13.781,26.848A137.251,137.251,0,0,0,95.2,355.452c-.737,3.787-1.159,6.887-1.391,9.034-.137,1.072-.189,1.909-.262,2.474a3.977,3.977,0,0,1-.133.862,3.986,3.986,0,0,1-.011-.87c.026-.57.034-1.413.129-2.492a87.619,87.619,0,0,1,1.171-9.1,128.618,128.618,0,0,1,9.093-28.836,263.532,263.532,0,0,1,14-26.809c1.959-3.338,3.58-6.018,4.713-7.86.541-.868.979-1.566,1.322-2.113a4.1,4.1,0,0,1,.5-.714" transform="translate(34.811 107.728)" fill="#263238"/>
        <path id="Trazado_239365" data-name="Trazado 239365" d="M79.967,291.017s-3.83,48.772,5.107,77.882h3.064s2.044-63.071-8.17-77.882" transform="translate(29.502 108.47)" fill="#ced371"/>
        <path id="Trazado_239366" data-name="Trazado 239366" d="M81.3,297.734a2.6,2.6,0,0,1,.122.686c.056.535.125,1.187.209,1.977.159,1.828.373,4.288.634,7.28.505,6.147,1.153,14.644,1.824,24.028S85.325,349.6,85.7,355.754c.167,3,.3,5.463.408,7.295.03.793.055,1.45.074,1.986a2.561,2.561,0,0,1-.022.7,2.548,2.548,0,0,1-.121-.685c-.056-.534-.125-1.186-.209-1.975-.159-1.827-.375-4.287-.636-7.278-.5-6.147-1.153-14.646-1.824-24.035s-1.241-17.891-1.616-24.047c-.169-3-.306-5.463-.409-7.293-.03-.8-.055-1.45-.074-1.985a2.568,2.568,0,0,1,.022-.7" transform="translate(30.291 110.973)" fill="#263238"/>
        <path id="Trazado_239367" data-name="Trazado 239367" d="M78.793,345.693s9.381,6.735,8.9,9.862S64.6,375.52,66.045,388.749,78.312,411.12,96.834,410.4s31.029-12.268,29.346-24.054-20.062-30.516-20.274-31.424c-.6-2.588,8.246-9.226,8.246-9.226Z" transform="translate(24.592 128.849)" fill="#263238"/>
        <path id="Trazado_239368" data-name="Trazado 239368" d="M108.162,358.243c0,.2-6.831.357-15.254.357s-15.256-.159-15.256-.357,6.829-.357,15.256-.357,15.254.159,15.254.357" transform="translate(28.943 133.393)" fill="#fafafa"/>
        <path id="Trazado_239369" data-name="Trazado 239369" d="M111.208,360.576c0,.2-8.048.357-17.974.357s-17.976-.159-17.976-.357,8.047-.357,17.976-.357,17.974.159,17.974.357" transform="translate(28.051 134.263)" fill="#fafafa"/>
        <path id="Trazado_239370" data-name="Trazado 239370" d="M115.341,363.155c0,.2-9.509.357-21.237.357s-21.24-.159-21.24-.357,9.507-.357,21.24-.357,21.237.159,21.237.357" transform="translate(27.158 135.224)" fill="#fafafa"/>
        <path id="Trazado_239371" data-name="Trazado 239371" d="M119.191,366.593c0,.2-10.963.357-24.483.357s-24.484-.159-24.484-.357,10.96-.357,24.484-.357,24.483.159,24.483.357" transform="translate(26.174 136.506)" fill="#fafafa"/>
      </g>
    </g>
  </g>
</svg>
