<svg xmlns="http://www.w3.org/2000/svg" width="105" height="105" viewBox="0 0 105 105">
  <g id="Grupo_166661" data-name="Grupo 166661" transform="translate(-810 -1297)">
    <circle id="Elipse_5623" data-name="Elipse 5623" cx="52.5" cy="52.5" r="52.5" transform="translate(810 1297)" fill="#ced371"/>
    <g id="Grupo_165759" data-name="Grupo 165759" transform="translate(812.809 1317.922)">
      <g id="Grupo_165760" data-name="Grupo 165760" transform="translate(19.535 0.697)">
        <path id="Trazado_238032" data-name="Trazado 238032" d="M41.592,70.46a1.811,1.811,0,0,1-.969-1.778,8,8,0,0,0-2.091-5.457,22.414,22.414,0,0,1-4.025-6.337,9.045,9.045,0,0,1-.066-5.745,15.931,15.931,0,0,1,1.188-3.088,4.863,4.863,0,0,1,2.448-2.172.8.8,0,0,0,.4-.575c.021-4.971.015-9.941.011-14.912,0-.065-.027-.13-.015-.078-1.532.119-3.041.36-4.546.331A15,15,0,0,1,19.634,17.508a15.384,15.384,0,0,1,.562-6.252c.363-1.182.757-1.433,2-1.287.85.564.838,1.308.587,2.209a11.741,11.741,0,0,0,3.083,12.155,11.818,11.818,0,0,0,12.223,3.082,1.348,1.348,0,0,0,.942-.758,4.408,4.408,0,0,1,3.909-2.529,1.169,1.169,0,0,0,.741-.331,11.86,11.86,0,0,0,3.068-7.465A12.265,12.265,0,0,0,30.856,3.983a1.52,1.52,0,0,1-2.072-.6c-.149-1.241.1-1.625,1.285-2A15.007,15.007,0,0,1,46.008,25.332c1.577,1.384,1.53,3.288,1.559,5.176.028,1.861.077,3.721.119,5.582.005.223.023.446.036.683a5.944,5.944,0,0,1,4.927,1.518.715.715,0,0,0,.545.1,5.948,5.948,0,0,1,5.4,1.523.878.878,0,0,0,.622.235,6.09,6.09,0,0,1,7,4.863,9.423,9.423,0,0,1,.145,1.692c.016,2.156-.07,4.315.025,6.467a24.192,24.192,0,0,1-1.417,8.869c-.62,1.841-1.1,3.729-1.627,5.6a3.479,3.479,0,0,0-.122.941A2.045,2.045,0,0,1,62.3,70.46Zm12.5-29.408c.011.218.023.4.028.578.026.963-.442,1.573-1.249,1.633-.84.062-1.394-.5-1.472-1.49a2.65,2.65,0,0,0-3.105-2.312c-.4.071-.583.208-.555.656.062,1,.093,2,.09,3a1.381,1.381,0,0,1-1.705,1.433,1.4,1.4,0,0,1-1.013-1.507q-.151-6.708-.3-13.415a8.458,8.458,0,0,0-.09-1.221,1.808,1.808,0,0,0-1.739-1.533,1.776,1.776,0,0,0-1.688,1.5,5.525,5.525,0,0,0-.072,1.015q-.006,11.444,0,22.888c0,.227.006.455-.011.681a1.344,1.344,0,0,1-2.677.12,6.309,6.309,0,0,1-.036-.951c0-1.053,0-2.105,0-3.158l-.174-.054a7.378,7.378,0,0,0-.641,1.064,16.491,16.491,0,0,0-.654,2,6.117,6.117,0,0,0,.538,5.054c.991,1.539,2.026,3.055,3.126,4.517a11.75,11.75,0,0,1,2.337,4.48c.122.549.2,1.108.306,1.686H60.39c.849-2.78,1.687-5.525,2.527-8.269a16.192,16.192,0,0,0,.742-5.09c-.048-2.52-.006-5.041-.018-7.561a6.8,6.8,0,0,0-.126-1.351,3.188,3.188,0,0,0-3.457-2.554c.005.089.013.179.016.27.039.989-.449,1.643-1.263,1.7s-1.333-.464-1.449-1.441a2.723,2.723,0,0,0-3.268-2.354" transform="translate(-19.535 -0.697)" fill="#030302"/>
        <path id="Trazado_238033" data-name="Trazado 238033" d="M40.734,15.433a1.519,1.519,0,0,0,2.072.6A12.266,12.266,0,0,1,58.7,28.386a11.861,11.861,0,0,1-3.067,7.465,1.17,1.17,0,0,1-.741.331,4.408,4.408,0,0,0-3.909,2.529,1.347,1.347,0,0,1-.942.758,11.818,11.818,0,0,1-12.223-3.082A11.741,11.741,0,0,1,34.73,24.232c.251-.9.262-1.645-.587-2.209l1.732-2.885c.809.445,1.414.424,1.905-.067s.514-1.1.067-1.9l2.887-1.735m4.146,9.953c-.283-.329-.457-.572-.67-.774a4.1,4.1,0,0,0-5.715.027,4.051,4.051,0,0,0-.123,5.655c1.206,1.3,2.463,2.547,3.753,3.759a3.977,3.977,0,0,0,5.551,0c2.317-2.241,4.586-4.533,6.841-6.838a3.818,3.818,0,0,0,.979-3.781,4.046,4.046,0,0,0-6.744-1.968c-1.3,1.229-2.521,2.548-3.871,3.922" transform="translate(-31.484 -12.751)" fill="#c9e357"/>
        <path id="Trazado_238034" data-name="Trazado 238034" d="M214.1.747A14.987,14.987,0,1,1,199.11,15.709,15.01,15.01,0,0,1,214.1.747m0,2.726a12.261,12.261,0,1,0,12.259,12.262A12.281,12.281,0,0,0,214.1,3.473" transform="translate(-166.426 -0.738)" fill="#030202"/>
        <path id="Trazado_238035" data-name="Trazado 238035" d="M43.946,23.288c.447.8.426,1.411-.067,1.9s-1.1.512-1.905.067c-.708-1.086-.385-2.209.731-2.338a3.415,3.415,0,0,1,1.241.368" transform="translate(-37.584 -18.871)" fill="#060605"/>
        <path id="Trazado_238036" data-name="Trazado 238036" d="M131.37,158.676a2.723,2.723,0,0,1,3.268,2.354c.116.976.637,1.494,1.449,1.441s1.3-.708,1.263-1.7c0-.09-.011-.181-.016-.27a3.188,3.188,0,0,1,3.457,2.554,6.8,6.8,0,0,1,.126,1.351c.012,2.52-.03,5.041.018,7.561a16.191,16.191,0,0,1-.742,5.09c-.84,2.744-1.678,5.489-2.527,8.269H120.609c-.1-.578-.184-1.136-.306-1.686a11.75,11.75,0,0,0-2.337-4.48c-1.1-1.463-2.135-2.978-3.126-4.517a6.117,6.117,0,0,1-.538-5.054,16.489,16.489,0,0,1,.654-2,7.379,7.379,0,0,1,.641-1.064l.174.054c0,1.053,0,2.105,0,3.158a6.308,6.308,0,0,0,.036.951,1.344,1.344,0,0,0,2.677-.12c.017-.226.011-.454.011-.681q0-11.444,0-22.888a5.526,5.526,0,0,1,.072-1.015,1.776,1.776,0,0,1,1.688-1.5A1.808,1.808,0,0,1,122,146.024a8.457,8.457,0,0,1,.09,1.221q.153,6.708.3,13.415a1.4,1.4,0,0,0,1.013,1.507,1.381,1.381,0,0,0,1.705-1.433c0-1-.027-2-.09-3-.028-.448.152-.586.555-.656a2.65,2.65,0,0,1,3.105,2.312c.078.991.632,1.552,1.472,1.49.808-.059,1.276-.67,1.249-1.633,0-.18-.017-.36-.028-.578" transform="translate(-96.811 -118.32)" fill="#fddad3"/>
        <path id="Trazado_238037" data-name="Trazado 238037" d="M58.981,47.386c1.35-1.374,2.568-2.693,3.871-3.922A4.046,4.046,0,0,1,69.6,45.432a3.817,3.817,0,0,1-.979,3.781c-2.254,2.3-4.523,4.6-6.84,6.838a3.978,3.978,0,0,1-5.551,0c-1.29-1.212-2.547-2.464-3.753-3.759A4.051,4.051,0,0,1,52.6,46.64a4.1,4.1,0,0,1,5.715-.027c.213.2.387.445.67.774m8.011-.727a1.376,1.376,0,0,0-2.4-1.108q-2.232,2.241-4.475,4.472a1.375,1.375,0,0,1-2.238-.009c-.421-.412-.831-.836-1.252-1.249a1.381,1.381,0,1,0-1.947,1.908q1.6,1.618,3.225,3.22a1.382,1.382,0,0,0,2.2.007q3.211-3.186,6.391-6.4a3.459,3.459,0,0,0,.5-.836" transform="translate(-45.586 -34.752)" fill="#020302"/>
        <path id="Trazado_238038" data-name="Trazado 238038" d="M226.348,15.724a12.261,12.261,0,1,1-12.262,12.258,12.279,12.279,0,0,1,12.262-12.258m5.732,12.235c.389-.36.7-.622.986-.917a4.083,4.083,0,1,0-5.8-5.748c-.3.3-.55.646-.884,1.044-.431-.474-.7-.811-1.014-1.108a4.083,4.083,0,0,0-5.774,5.775c.308.323.652.613,1.077,1.009-.42.367-.766.628-1.063.936a4.082,4.082,0,0,0,5.747,5.8c.326-.307.618-.65.967-1.02a5.542,5.542,0,0,0,3.241,2.141,4.081,4.081,0,0,0,4.7-3.718c.155-1.806-.853-3.027-2.183-4.194" transform="translate(-178.677 -12.989)" fill="#a3314f"/>
        <path id="Trazado_238039" data-name="Trazado 238039" d="M79.292,58.964a3.46,3.46,0,0,1-.5.836q-3.173,3.224-6.391,6.4a1.382,1.382,0,0,1-2.2-.007q-1.622-1.6-3.225-3.22a1.381,1.381,0,1,1,1.947-1.908c.421.413.831.837,1.252,1.249a1.375,1.375,0,0,0,2.238.009q2.247-2.226,4.475-4.472a1.376,1.376,0,0,1,2.4,1.108" transform="translate(-57.886 -47.057)" fill="#fafafa"/>
        <path id="Trazado_238040" data-name="Trazado 238040" d="M251.518,47.387c1.33,1.167,2.338,2.388,2.183,4.194A4.081,4.081,0,0,1,249,55.3a5.541,5.541,0,0,1-3.241-2.141c-.349.37-.641.714-.967,1.02a4.082,4.082,0,0,1-5.746-5.8c.3-.308.642-.569,1.062-.936-.425-.4-.769-.686-1.077-1.009a4.083,4.083,0,0,1,5.774-5.775c.31.3.582.634,1.014,1.107.334-.4.582-.749.884-1.044a4.083,4.083,0,1,1,5.8,5.748c-.282.294-.6.557-.986.917m-9.264-5.159a1.39,1.39,0,0,0-1.516.7,1.289,1.289,0,0,0,.221,1.571c.592.627,1.22,1.219,1.819,1.839a1.363,1.363,0,0,1,0,2.144c-.552.571-1.129,1.118-1.681,1.688a1.374,1.374,0,1,0,1.932,1.927c.586-.569,1.146-1.165,1.737-1.729a1.331,1.331,0,0,1,2.043,0c.591.563,1.152,1.159,1.738,1.727a1.374,1.374,0,1,0,1.925-1.934c-.569-.586-1.165-1.146-1.729-1.737a1.329,1.329,0,0,1,0-2.042c.564-.59,1.16-1.15,1.728-1.737a1.374,1.374,0,1,0-1.932-1.926c-.57.553-1.117,1.13-1.688,1.681a1.36,1.36,0,0,1-2.143,0c-.571-.552-1.107-1.14-1.693-1.676a4.426,4.426,0,0,0-.765-.5" transform="translate(-198.114 -32.417)" fill="#020101"/>
        <path id="Trazado_238041" data-name="Trazado 238041" d="M254.468,54.506a4.426,4.426,0,0,1,.765.5c.585.536,1.122,1.124,1.693,1.676a1.36,1.36,0,0,0,2.143,0c.571-.551,1.118-1.128,1.688-1.681a1.374,1.374,0,1,1,1.932,1.926c-.568.587-1.164,1.147-1.728,1.737a1.329,1.329,0,0,0,0,2.042c.564.591,1.16,1.151,1.729,1.737a1.374,1.374,0,1,1-1.925,1.934c-.587-.568-1.147-1.164-1.738-1.727a1.331,1.331,0,0,0-2.043,0c-.591.564-1.15,1.16-1.737,1.729a1.374,1.374,0,1,1-1.932-1.927c.553-.57,1.13-1.117,1.681-1.688a1.363,1.363,0,0,0,0-2.144c-.6-.62-1.228-1.212-1.819-1.839a1.289,1.289,0,0,1-.221-1.571,1.39,1.39,0,0,1,1.516-.7" transform="translate(-210.329 -44.695)" fill="#fafafa"/>
      </g>
    </g>
  </g>
</svg>
