<svg xmlns="http://www.w3.org/2000/svg" width="125" height="103.586" viewBox="0 0 125 103.586">
  <g id="Grupo_165342" data-name="Grupo 165342" transform="translate(0 -32.546)">
    <g id="Grupo_165343" data-name="Grupo 165343" transform="translate(0 32.546)">
      <path id="Trazado_236654" data-name="Trazado 236654" d="M125,43.629v82.853c-.19.512-.4,1.018-.567,1.535-1.644,5.022-6.11,8.087-11.9,8.1-7.319.02-14.639,0-21.958,0q-43.916,0-87.833.007c-1.088,0-2.117-.044-2.743-1.121V54.838a2.53,2.53,0,0,1,2.379-1.1c4.636.038,9.272.017,13.908.017H20.9A20.289,20.289,0,0,1,40.13,32.7a19.572,19.572,0,0,1,13.4,4.261,20.067,20.067,0,0,1,7.8,16.713h40.237V52.393q0-8.829,0-17.657c0-1.584.548-2.167,2.085-2.176q4.636-.027,9.272,0c1.417.008,1.8.367,2.1,1.826-.289,1.274-1.2,1.621-2.373,1.615-2.509-.013-5.019,0-7.577,0v76.691c2.563,0,5.039.011,7.515,0a12.336,12.336,0,0,1,8.439,2.946,3.221,3.221,0,0,0,.556.3v-1.591q0-34.661-.014-69.322c0-1.224.237-2.174,1.56-2.521L125,43.629m-75.155,81.05c-.218,1.287-1.072,1.708-2.276,1.707q-17.761-.008-35.521-.01c-1.727,0-2.28-.582-2.28-2.268q0-29.181,0-58.361c0-1.7.535-2.228,2.277-2.232,3.54-.009,7.08,0,10.62-.006.42,0,.839-.035,1.2-.05-.742-1.857-1.506-3.558-2.086-5.319a1.182,1.182,0,0,0-1.368-.976c-5.33.027-10.66.013-15.991.019-.307,0-.615.057-.932.088v75.449H4.991q53.465,0,106.931,0c.731,0,1.465-.026,2.193-.094a8.24,8.24,0,0,0,2.108-15.927,9.9,9.9,0,0,0-.988-.249c0,2.561,0,5,0,7.429,0,1.971-.489,2.5-2.414,2.506-9.847.01-19.694,0-29.54.013-1.256,0-2.135-.407-2.419-1.714.256-1.4,1.188-1.735,2.493-1.731,9.033.029,18.065.015,27.1.015h1.276v-6.821c-2.611,0-5.132.006-7.654,0-2.032-.007-2.51-.493-2.51-2.521q0-13.523-.006-27.047c0-.395.064-.894-.14-1.167-1.25-1.668-3.094-1.913-4.993-.7,1.244,1.241,2.484,2.468,3.715,3.7,1.33,1.336,1.321,2-.03,3.369a10.648,10.648,0,0,1-1.3,1.282A4.761,4.761,0,0,0,96.742,98.1a4.02,4.02,0,0,1-1.73,4.234,2.539,2.539,0,0,0-1.02,2.542,2.982,2.982,0,0,1-.738,2.7c-1.855,1.764-3.627,3.616-5.455,5.41-1.039,1.02-1.878,1-2.94-.05-1.361-1.34-2.755-2.654-4.028-4.074a3.339,3.339,0,0,1-.79-1.913c-.1-1.985,0-3.979-.062-5.967a2.271,2.271,0,0,0-.524-1.385c-1.391-1.48-2.838-2.91-4.311-4.31a1.583,1.583,0,0,0-1.159-.448c-3.542.675-6.1-.821-8.147-3.54a.844.844,0,0,0-.172-.172c-1.229-.9-1.372-2.147-1.547-3.6a9.243,9.243,0,0,1,3.7-8.971c2.067-1.684,3.875-3.518,6.484-4.544,2.275-.895,3.822-.73,5.274,1.195a2.258,2.258,0,0,0,1.474.856c3.284.129,6.53.177,9.641-1.357,2.354-1.161,2.467-.981,2.342-3.576a2.216,2.216,0,0,0-.54-1.25,21.064,21.064,0,0,0-2.332-2.317,2.732,2.732,0,0,0-1.577-.646q-16.173-.055-32.346-.013a2.33,2.33,0,0,0-1.225.352c-2.4,1.6-4.388,3.521-4.828,6.583a6.179,6.179,0,0,1-.563,1.471c-.965,2.245-1.937,4.488-2.938,6.8,1.242-.176,2.406-.327,3.565-.511a2.047,2.047,0,0,1,2.116.869c1.456,1.9,2.979,3.756,4.4,5.682a3.248,3.248,0,0,1,.628,1.757c.047,2.842,0,5.685-.031,8.528-.015,1.3-.481,1.842-1.773,2.013a55.266,55.266,0,0,1-5.934.674c-2.515.057-4.438.887-5.662,3.159-.3.563-.853.992-1.178,1.547a6.822,6.822,0,0,0-.915,2.046c-.5,2.547-.9,5.112-1.308,7.675a1.775,1.775,0,0,1-1.975,1.706c-1.058-.011-2.116-.015-3.174,0a1.789,1.789,0,0,1-1.965-1.735c-.16-1.042-.334-2.086-.423-3.135-.317-3.739-1.582-7.4-.844-11.228.222-1.151.322-2.326.476-3.477-.387-.264-.889-.428-1.079-.766-1.688-3.008-4.717-5.606-3.081-9.673a1.107,1.107,0,0,0,.067-.6c-.05-.247-.123-.593-.3-.7-3.115-1.8-5.829-4.741-10.007-3.588a.834.834,0,0,1-.122,0,2,2,0,0,1-2.375-1.58c-.412-1.312-.882-2.611-1.405-3.883a11.975,11.975,0,0,0-1.132-1.73v47.795h1.4q16.356,0,32.712,0c1.73,0,2.036.222,2.466,1.715M41.127,85.038a77.371,77.371,0,0,0,7-15.867,3.9,3.9,0,0,1,1.783-2.326,16.713,16.713,0,1,0-17.81-.167,4.569,4.569,0,0,1,2.113,2.785,78.224,78.224,0,0,0,6.918,15.575m55.938,5.115c-1.694-1.679-3.2-3.16-4.692-4.652q-2.562-2.558.963-3.639c1.475-.453,2.956-.887,4.425-1.359,1.308-.42,2.6-.882,3.73.913V67.029H94.836c1.828,1.341,1.695,3.212,1.653,5.1-.1,4.439.553,3.649-3.82,5.489A24.925,24.925,0,0,1,82.017,79.57c-2.034-.061-3.744-.282-5.015-2.02a1.244,1.244,0,0,0-1.1-.35,8.35,8.35,0,0,0-4.337,2.537,10.513,10.513,0,0,1-1.981,1.976,4.989,4.989,0,0,0-2.023,4.838,4.527,4.527,0,0,0,1.156,2.883,4.969,4.969,0,0,0,4.864,1.973,3.137,3.137,0,0,1,1.334.012,5.058,5.058,0,0,1,2.025.858q2.9,2.7,5.6,5.6a3.49,3.49,0,0,1,.848,2.026c.114,1.942.028,3.9.051,5.843a2.014,2.014,0,0,0,.245,1.143c.764.979,1.617,1.888,2.588,3,1.18-1.259,1.994-2.288,2.971-3.127a3.67,3.67,0,0,0,1.383-3.275,2.885,2.885,0,0,1,.678-2.175,5.271,5.271,0,0,0,2.008-5.341A2.284,2.284,0,0,1,93.327,95a6.647,6.647,0,0,1,.912-2.139,32.743,32.743,0,0,1,2.826-2.708M53.976,97.2A21.126,21.126,0,0,1,54,94.273a8.86,8.86,0,0,0-2.563-7.585A3.662,3.662,0,0,0,47.878,85.3,5.362,5.362,0,0,0,42.9,88.72c-.922,2.007-2.471,1.932-3.6-.017-1.2-2.073-2.295-4.2-3.493-6.272a1.948,1.948,0,0,0-1.045-.7,14.218,14.218,0,0,1-2.237-.573c-1.25-.666-2.353-1.611-3.606-2.268a5.8,5.8,0,0,1-2.9-3.7c-.46-1.481,0-2.344,1.562-2.606,1.218-.205,2.446-.354,3.708-.534a3.394,3.394,0,0,0-1.69-2.919c-.74-.4-1.315-1.088-2.029-1.547a3.326,3.326,0,0,0-1.609-.614c-3.7-.053-7.4-.028-11.1-.028H13.279c-.224,2.026-.341,3.8,1.52,5.1a8.971,8.971,0,0,1,3.484,5.535c.243,1.042.729,1.371,1.861,1.278a7.362,7.362,0,0,1,3.76.381c2.523,1.29,4.85,2.959,7.28,4.435a2,2,0,0,1,1.045,2.248c-.195,1.159-.383,2.32-.577,3.479-.118.7,1.667,4.34,2.284,4.629a1.484,1.484,0,0,0,.358.056c1.923.347,2.235.854,1.969,2.831a44.93,44.93,0,0,0-.79,7.36,80.729,80.729,0,0,0,1.174,8.916c.032.216.283.4.431.6.158-.2.4-.382.455-.607.15-.671.225-1.359.326-2.041.848-5.7.849-5.7,4.427-10.19a9.866,9.866,0,0,1,1.3-1.605,4.682,4.682,0,0,1,2.025-1.1c2.723-.427,5.47-.7,8.365-1.047M101.5,57.153H99.968q-17.994,0-35.987,0c-1.015,0-2.247-.309-2.98.154-.651.411-.719,1.709-1.1,2.593-.5,1.165-1.047,2.308-1.613,3.545H101.5ZM32.619,75.338l-2.326.35,3.074,2,.175-.146-.923-2.206" transform="translate(0 -32.546)" fill="#252223"/>
      <path id="Trazado_236657" data-name="Trazado 236657" d="M77.326,195.833c-.43-1.493-.737-1.714-2.467-1.714q-16.356,0-32.712,0h-1.4V146.323a11.919,11.919,0,0,1,1.132,1.73c.523,1.272.993,2.571,1.406,3.883a2,2,0,0,0,2.375,1.58.835.835,0,0,0,.122,0c4.178-1.153,6.892,1.786,10.007,3.588.179.1.251.45.3.7a1.107,1.107,0,0,1-.067.6c-1.635,4.067,1.394,6.666,3.082,9.674.189.338.692.5,1.079.766-.154,1.151-.254,2.326-.476,3.477-.738,3.824.527,7.489.844,11.228.089,1.049.263,2.093.422,3.135a1.79,1.79,0,0,0,1.965,1.735c1.058-.015,2.116-.011,3.174,0a1.775,1.775,0,0,0,1.975-1.706c.409-2.563.812-5.128,1.308-7.675a6.828,6.828,0,0,1,.914-2.046c.326-.555.875-.984,1.178-1.547,1.225-2.272,3.147-3.1,5.662-3.159a55.253,55.253,0,0,0,5.934-.674c1.292-.171,1.759-.711,1.773-2.013.032-2.842.077-5.686.031-8.528a3.251,3.251,0,0,0-.628-1.757c-1.425-1.926-2.949-3.778-4.4-5.682a2.047,2.047,0,0,0-2.116-.869c-1.16.184-2.324.335-3.565.511,1-2.315,1.973-4.558,2.938-6.8a6.186,6.186,0,0,0,.563-1.471c.439-3.061,2.426-4.978,4.828-6.583a2.33,2.33,0,0,1,1.225-.352q16.173-.028,32.346.013a2.733,2.733,0,0,1,1.577.646,21.064,21.064,0,0,1,2.332,2.317,2.214,2.214,0,0,1,.54,1.25c.125,2.6.012,2.415-2.342,3.576-3.111,1.534-6.357,1.486-9.641,1.357a2.258,2.258,0,0,1-1.474-.856c-1.452-1.924-3-2.089-5.274-1.195-2.61,1.026-4.417,2.86-6.484,4.544a9.242,9.242,0,0,0-3.705,8.971c.175,1.45.317,2.7,1.547,3.6a.854.854,0,0,1,.172.172c2.044,2.718,4.6,4.215,8.147,3.54a1.582,1.582,0,0,1,1.158.448c1.473,1.4,2.921,2.83,4.311,4.31a2.271,2.271,0,0,1,.525,1.385c.057,1.988-.041,3.982.061,5.967a3.343,3.343,0,0,0,.79,1.913c1.273,1.42,2.667,2.734,4.028,4.074,1.062,1.046,1.9,1.07,2.94.05,1.828-1.793,3.6-3.646,5.455-5.41a2.981,2.981,0,0,0,.737-2.7,2.541,2.541,0,0,1,1.02-2.542,4.02,4.02,0,0,0,1.73-4.234,4.761,4.761,0,0,1,2.064-5.035,10.673,10.673,0,0,0,1.3-1.282c1.351-1.367,1.36-2.033.03-3.369-1.23-1.236-2.47-2.464-3.715-3.7,1.9-1.217,3.743-.973,4.993.7a2.153,2.153,0,0,1,.14,1.167q.01,13.523.006,27.047c0,2.028.478,2.514,2.51,2.521,2.521.008,5.043,0,7.654,0v6.821h-1.276c-9.033,0-18.065.014-27.1-.015-1.3,0-2.237.327-2.493,1.731l-11.153.077c-.1-1.312-.863-1.819-2.116-1.8q-2.253.034-4.507,0a1.83,1.83,0,0,0-2.092,1.723H77.326" transform="translate(-27.481 -103.701)" fill="#dde9f7"/>
      <path id="Trazado_236658" data-name="Trazado 236658" d="M76.93,175.763l11.153-.077c.284,1.306,1.163,1.716,2.419,1.714,9.847-.016,19.694,0,29.54-.013,1.925,0,2.413-.535,2.415-2.506,0-2.434,0-4.868,0-7.429a9.881,9.881,0,0,1,.988.249,8.24,8.24,0,0,1-2.107,15.927c-.728.067-1.462.093-2.193.093q-53.465.006-106.931,0H10.708V108.277c.317-.031.625-.088.932-.088,5.33-.006,10.661.008,15.991-.018a1.182,1.182,0,0,1,1.368.976c.58,1.761,1.344,3.462,2.086,5.319-.359.016-.778.05-1.2.051-3.54,0-7.08,0-10.62.006-1.742,0-2.277.528-2.277,2.232q0,29.181,0,58.362c0,1.686.553,2.266,2.28,2.268q17.761.02,35.521.01c1.2,0,2.058-.42,2.276-1.708H68.215a1.906,1.906,0,0,0,2.141,1.707c1.5,0,3,0,4.5,0a1.847,1.847,0,0,0,2.071-1.627" transform="translate(-7.222 -83.553)" fill="#b0c0d2"/>
      <path id="Trazado_236659" data-name="Trazado 236659" d="M332.727,38.2a9.945,9.945,0,0,1,8.1,8.106c-1.323.346-1.562,1.3-1.561,2.521q.029,34.661.014,69.322v1.591a3.251,3.251,0,0,1-.555-.3,12.336,12.336,0,0,0-8.439-2.946c-2.476.014-4.953,0-7.515,0V39.808c2.558,0,5.068-.009,7.577,0,1.177.006,2.084-.341,2.373-1.615" transform="translate(-217.706 -36.357)" fill="#a3314f"/>
      <path id="Trazado_236660" data-name="Trazado 236660" d="M91.733,92.191a78.207,78.207,0,0,1-6.918-15.576A4.568,4.568,0,0,0,82.7,73.831a16.717,16.717,0,1,1,17.81.167,3.9,3.9,0,0,0-1.783,2.327,77.424,77.424,0,0,1-7,15.867m9.476-32.425a9.494,9.494,0,1,0-9.361,9.539,9.46,9.46,0,0,0,9.361-9.539" transform="translate(-50.605 -39.699)" fill="#a3314f"/>
      <path id="Trazado_236661" data-name="Trazado 236661" d="M236.994,161.6a32.79,32.79,0,0,0-2.827,2.708,6.649,6.649,0,0,0-.912,2.139,2.283,2.283,0,0,0-.011.968,5.272,5.272,0,0,1-2.008,5.341,2.883,2.883,0,0,0-.678,2.174,3.669,3.669,0,0,1-1.383,3.275c-.978.839-1.792,1.868-2.971,3.127-.971-1.11-1.824-2.02-2.588-3a2.012,2.012,0,0,1-.245-1.143c-.023-1.949.063-3.9-.051-5.843a3.491,3.491,0,0,0-.848-2.026q-2.7-2.9-5.6-5.6a5.053,5.053,0,0,0-2.025-.858,3.132,3.132,0,0,0-1.334-.012,4.969,4.969,0,0,1-4.864-1.974A4.526,4.526,0,0,1,207.49,158a4.989,4.989,0,0,1,2.023-4.838,10.513,10.513,0,0,0,1.981-1.976,8.353,8.353,0,0,1,4.337-2.537,1.245,1.245,0,0,1,1.1.35c1.271,1.738,2.981,1.959,5.015,2.02a24.919,24.919,0,0,0,10.652-1.954c4.374-1.84,3.724-1.049,3.82-5.489.041-1.887.175-3.758-1.654-5.1h6.656v14.388c-1.127-1.794-2.422-1.333-3.73-.913-1.469.472-2.95.906-4.425,1.359q-3.521,1.082-.964,3.639c1.494,1.492,3,2.974,4.692,4.652" transform="translate(-139.928 -103.993)" fill="#ced371"/>
      <path id="Trazado_236662" data-name="Trazado 236662" d="M81.237,168.447c-2.895.348-5.642.62-8.365,1.047a4.682,4.682,0,0,0-2.025,1.1,9.9,9.9,0,0,0-1.3,1.605c-3.578,4.487-3.579,4.487-4.427,10.19-.1.682-.176,1.37-.326,2.041-.05.225-.3.406-.456.607-.149-.2-.4-.383-.431-.6a80.719,80.719,0,0,1-1.174-8.916,44.965,44.965,0,0,1,.79-7.36c.266-1.977-.047-2.485-1.969-2.831a1.49,1.49,0,0,1-.358-.056c-.617-.289-2.4-3.927-2.284-4.629.194-1.16.382-2.32.577-3.479a2,2,0,0,0-1.045-2.248c-2.43-1.476-4.757-3.145-7.28-4.435a7.362,7.362,0,0,0-3.76-.381c-1.132.093-1.618-.236-1.861-1.278a8.973,8.973,0,0,0-3.485-5.535c-1.861-1.309-1.744-3.079-1.519-5.1h1.582c3.7,0,7.4-.025,11.1.028a3.327,3.327,0,0,1,1.609.614c.714.458,1.29,1.15,2.029,1.547a3.394,3.394,0,0,1,1.69,2.919c-1.263.179-2.49.328-3.708.534-1.558.263-2.021,1.125-1.562,2.606a5.8,5.8,0,0,0,2.9,3.7c1.254.657,2.356,1.6,3.606,2.268a14.214,14.214,0,0,0,2.238.573,1.951,1.951,0,0,1,1.045.7c1.2,2.071,2.3,4.2,3.493,6.272,1.125,1.949,2.674,2.024,3.6.017a5.362,5.362,0,0,1,4.982-3.415,3.662,3.662,0,0,1,3.554,1.384,8.862,8.862,0,0,1,2.563,7.585,21.124,21.124,0,0,0-.021,2.925" transform="translate(-27.261 -103.795)" fill="#ced371"/>
      <path id="Trazado_236663" data-name="Trazado 236663" d="M222.283,107.935v6.295H179.071c.565-1.236,1.115-2.38,1.612-3.545.378-.884.446-2.182,1.1-2.593.733-.463,1.965-.154,2.98-.154q17.994-.006,35.987,0Z" transform="translate(-120.78 -83.328)" fill="#b0c0d2"/>
      <path id="Trazado_236664" data-name="Trazado 236664" d="M95.387,164.005l.923,2.206-.175.145-3.074-2,2.326-.35" transform="translate(-62.768 -121.212)" fill="#d1dcea"/>
      <path id="Trazado_236665" data-name="Trazado 236665" d="M196.085,312.084a1.847,1.847,0,0,1-2.071,1.627c-1.5.007-3,0-4.5,0a1.906,1.906,0,0,1-2.141-1.707,1.83,1.83,0,0,1,2.092-1.723q2.252.037,4.506,0c1.253-.019,2.019.487,2.116,1.8" transform="translate(-126.377 -219.874)" fill="#242327"/>
      <path id="Trazado_236666" data-name="Trazado 236666" d="M116.112,74.6a9.494,9.494,0,1,1-18.987-.023,9.493,9.493,0,0,1,18.987.023m-3.415.072a6.069,6.069,0,1,0-6.143,6.052,6.07,6.07,0,0,0,6.143-6.052" transform="translate(-65.509 -54.535)" fill="#252122"/>
      <path id="Trazado_236667" data-name="Trazado 236667" d="M119.814,81.753a6.069,6.069,0,1,1-6.1-6.109,6.037,6.037,0,0,1,6.1,6.109" transform="translate(-72.626 -61.615)" fill="#fbe259"/>
    </g>
  </g>
</svg>
