<svg xmlns="http://www.w3.org/2000/svg" width="164.649" height="165.896" viewBox="0 0 164.649 165.896">
  <g id="Grupo_166542" data-name="Grupo 166542" transform="translate(-6.788 -7.187)">
    <g id="Grupo_166543" data-name="Grupo 166543" transform="translate(6.788 7.186)">
      <path id="Trazado_239384" data-name="Trazado 239384" d="M116.114,30.609l1.763-2.655c.757-.109,1.907.032,2.171-.387.348-.553,0-1.543-.047-2.346l2.2-2.348c1.264,1.016,2.182.283,3.22-.509,11.579-8.84,24.254-10.684,37.383-4.442,13.365,6.354,19.831,17.657,20.1,32.355.14,7.62-2.6,14.418-7,20.61a51.727,51.727,0,0,0-8.973,21.636c-.417,2.491-.66,5.01-.983,7.514h-36.58a3.26,3.26,0,0,1-.191-.537c-.056-.384-.1-.772-.121-1.159a54.343,54.343,0,0,0-9.834-27.719c-8.112-11.832-9.118-24.223-2.852-37.151a2.2,2.2,0,0,0-.262-2.861M151.1,62.372c0-1.474.071-2.692-.018-3.9A2.68,2.68,0,0,1,152.72,55.5a13.881,13.881,0,0,0,6.7-15.91,14.176,14.176,0,0,0-27.468.183A14.008,14.008,0,0,0,139.032,55.7a2.142,2.142,0,0,1,1.3,2.3q-.047,15.074-.007,30.148a5.384,5.384,0,1,0,10.765.226c.029-.488.058-.975.1-1.648,1.191,0,2.293.061,3.387-.012a5.411,5.411,0,1,0-.3-10.816c-1.03-.024-2.061,0-3.045,0V73.177c1.129,0,2.126.017,3.123,0a5.4,5.4,0,1,0,.139-10.794c-1.044-.05-2.092-.008-3.4-.008M179.35,47.435c.01-6.11-3.464-14.742-9.575-20.485-8.522-8.008-18.577-10.641-29.962-7.971a30.409,30.409,0,0,0-10.636,4.968,1.682,1.682,0,0,0-.641,2.442,1.565,1.565,0,0,0,2.457.368c.314-.227.643-.436.968-.649a27.494,27.494,0,0,1,22.087-4.026,28.377,28.377,0,0,1,16.4,44.533A57.856,57.856,0,0,0,162.6,81.785c-.378,1.1-.563,2.165.74,2.659,1.239.471,1.974-.249,2.368-1.416,1.992-5.888,5.188-11.124,8.622-16.263,3.375-5.05,5.069-10.681,5.017-19.331M159.567,94.274c-.077,1.162.293,2.181,1.506,2.141a2.489,2.489,0,0,0,1.8-1.45,22.842,22.842,0,0,0,.869-5.19,2.357,2.357,0,0,0-1.1-1.854,1.425,1.425,0,0,0-2.1,1.17c-.333,1.726-.651,3.456-.975,5.184" transform="translate(-65.329 -11.101)" fill="#eebe20"/>
      <path id="Trazado_239385" data-name="Trazado 239385" d="M26.852,224.366l2.408,2.15a1.809,1.809,0,0,0,.173,2.884c.247.223.475.468.711.7,5.654,5.655,11.292,11.327,16.97,16.957a8.348,8.348,0,0,0,8.868,2.261,7.764,7.764,0,0,0,5.495-6.33,8.121,8.121,0,0,0-2.5-7.573c-2.665-2.675-5.37-5.312-8-8.016a4.4,4.4,0,0,1-.195-6.392,4.273,4.273,0,0,1,6.248.17C63.216,227.317,69.4,233.463,75.5,239.7a17.7,17.7,0,0,1,5.45,11.675c.323,8.032.237,16.081.321,24.123l-28.927,0a19.778,19.778,0,0,1-.043-2.992c.28-2.136-.6-3.595-2.1-5.079-11.176-11.059-22.262-22.208-33.392-33.314a6.272,6.272,0,0,1-2.227-4.48c-.083-9.832-.211-19.664-.232-29.5a6.242,6.242,0,0,1,.949-3.1,4.727,4.727,0,0,1,5.424-1.888,5.034,5.034,0,0,1,3.52,4.93q.107,7.582.116,15.165a2.285,2.285,0,0,0,1.637,2.553q.134,1.6.268,3.192c-1.056.194-1.765.77-1.607,1.9.17,1.209,1.091,1.538,2.2,1.48m52.442,31.68A21.25,21.25,0,0,0,72.522,239.5c-5.5-5.408-10.918-10.9-16.375-16.346-1.2-1.2-2.419-1.444-3.132-.566-.978,1.2-.118,2,.7,2.82q8.133,8.109,16.243,16.242c3.067,3.089,5.452,6.562,5.725,11.1.13,2.15.194,4.3.276,6.457.042,1.1.526,1.868,1.672,1.865s1.643-.782,1.66-1.875c.014-.887,0-1.775,0-3.147m-.011,12.123h.008c0-.662.215-1.433-.053-1.959a8.24,8.24,0,0,0-1.649-1.748c-.541.584-1.423,1.1-1.551,1.767a10.916,10.916,0,0,0,.008,3.944c.11.6,1.066,1.571,1.462,1.491a3.073,3.073,0,0,0,1.721-1.541c.277-.513.055-1.294.055-1.956" transform="translate(-10.982 -111.338)" fill="#fddeb1"/>
      <path id="Trazado_239386" data-name="Trazado 239386" d="M247.563,275.471l-28.928,0c-.016-6.942-.078-13.884-.035-20.825a22.02,22.02,0,0,1,6.943-16.215c4.773-4.655,9.445-9.413,14.165-14.123,1.18-1.177,2.315-2.408,3.574-3.495a4.234,4.234,0,0,1,6.3.706,4.466,4.466,0,0,1-.683,5.893c-2.679,2.742-5.444,5.4-8.116,8.149a7.977,7.977,0,0,0-2,8.738c2.075,5.866,9.4,7.288,14.042,2.7,6.518-6.447,12.932-13,19.482-19.413a9.676,9.676,0,0,0,3.166-7.374c-.031-6.611.12-13.222.165-19.832a5.216,5.216,0,0,1,2.08-4.5,4.647,4.647,0,0,1,5.038-.46,4.853,4.853,0,0,1,2.829,4.715q-.065,9.249-.2,18.5c-.021,1.294.236,2.305,1.594,2.741q-.008,1.561-.016,3.122c-.536.561-1.538,1.167-1.49,1.674.063.664.955,1.25,1.49,1.869l-.107,3.156a7.572,7.572,0,0,0-2.115.925c-.906.793-1.567,1.858-2.423,2.716-10.383,10.41-20.7,20.888-31.237,31.14-2.553,2.484-4.088,4.936-3.464,8.507a4.259,4.259,0,0,1-.059.991m35.727-56.892h.022c0-3.5-.027-7,.016-10.5.013-1.056-.4-1.974-1.378-1.84-.709.1-1.374.993-1.911,1.654-.221.273-.062.86-.062,1.3-.008,6.165-.05,12.331.008,18.5a4.064,4.064,0,0,1-1.316,3.2q-17.783,17.688-35.5,35.44c-.833.832-1.39,1.689-.411,2.71s1.861.539,2.706-.306c12.133-12.141,24.3-24.254,36.366-36.457a5.855,5.855,0,0,0,1.394-3.545c.187-3.378.065-6.773.065-10.161m-3.012-18.326c-.036,1.211-.109,2.466,1.5,2.473,1.449.006,1.764-1.124,1.813-2.3s-.475-2.176-1.712-2.242c-1.353-.072-1.757.909-1.606,2.072" transform="translate(-124.284 -111.311)" fill="#fddeb1"/>
      <path id="Trazado_239387" data-name="Trazado 239387" d="M112.023,26.695a2.2,2.2,0,0,1,.262,2.861c-6.266,12.928-5.261,25.319,2.852,37.151a54.343,54.343,0,0,1,9.834,27.718c.024.388.065.776.121,1.16a3.162,3.162,0,0,0,.191.537h36.58c.322-2.5.566-5.023.983-7.514a51.719,51.719,0,0,1,8.973-21.635c4.4-6.192,7.139-12.99,7-20.61-.271-14.7-6.737-26-20.1-32.355-13.128-6.242-25.8-4.4-37.383,4.442-1.037.793-1.956,1.525-3.22.509-.672-1.209-.183-2.033.78-2.863C134.4,2.725,159.276,4.642,172.515,20.248c12,14.149,12.969,32.9,2.354,48.125A51.651,51.651,0,0,0,165.3,99.12c.044,4.831.024,9.664,0,14.495-.025,5.472-3.471,8.909-8.973,8.923q-12.748.032-25.5,0c-5.59-.012-8.984-3.446-9.024-9.044-.045-6.274.07-12.555-.2-18.82a48.55,48.55,0,0,0-9.086-25.845,40.512,40.512,0,0,1-7.121-17.185,38.358,38.358,0,0,1,4.017-23.857,1.985,1.985,0,0,1,2.614-1.093m49.8,82.234V99.683H125.272v4.155c.2.094.3.178.393.179q3.914.035,7.829.055c2.137.01,3.155.553,3,1.753-.237,1.878-1.751,1.692-3.081,1.7-2.7.012-5.4,0-8.249,0,0,1.951.115,3.671-.023,5.37-.343,4.237,2.294,6.416,6.393,6.356,8-.118,16-.032,24-.04a12.674,12.674,0,0,0,1.989-.122c3.368-.539,5.107-3.38,4.114-6.819-2.909,0-5.848-.011-8.786.006-1.2.007-2.187-.368-2.218-1.687-.029-1.224.828-1.68,2.015-1.67,3.04.027,6.079.009,9.176.009" transform="translate(-61.238 -7.186)" fill="#060504"/>
      <path id="Trazado_239388" data-name="Trazado 239388" d="M282.768,217.226c-1.357-.435-1.614-1.447-1.593-2.741q.149-9.249.2-18.5a4.852,4.852,0,0,0-2.829-4.715,4.646,4.646,0,0,0-5.038.46,5.216,5.216,0,0,0-2.08,4.5c-.045,6.611-.2,13.222-.165,19.832a9.676,9.676,0,0,1-3.166,7.374c-6.55,6.414-12.964,12.966-19.482,19.413-4.643,4.592-11.967,3.171-14.042-2.7a7.977,7.977,0,0,1,2-8.738c2.672-2.749,5.437-5.407,8.116-8.149a4.466,4.466,0,0,0,.683-5.893,4.234,4.234,0,0,0-6.3-.706c-1.259,1.087-2.394,2.317-3.574,3.495-4.72,4.709-9.392,9.467-14.165,14.123a22.02,22.02,0,0,0-6.943,16.215c-.043,6.941.019,13.883.035,20.825-.285,1.045-.758,1.912-2.042,1.711-1.3-.2-1.394-1.2-1.391-2.268.017-6.608-.018-13.216.029-19.824a25.861,25.861,0,0,1,8.1-19.2c5.787-5.6,11.383-11.393,17.116-17.047,4.365-4.3,11.295-2.7,12.968,2.991a7.62,7.62,0,0,1-2.128,7.934c-2.583,2.6-5.189,5.178-7.771,7.78-2.337,2.355-2.533,5.3-.518,7.387,1.991,2.065,5.232,1.926,7.573-.4,6.653-6.62,13.268-13.278,19.926-19.893a5.366,5.366,0,0,0,1.6-4.034q.066-10.411.229-20.821a8.292,8.292,0,0,1,14.71-5.16,8.143,8.143,0,0,1,1.9,5.376c-.045,6.33-.143,12.66-.159,18.99a2.112,2.112,0,0,1-1.79,2.386" transform="translate(-120.068 -107.167)" fill="#070605"/>
      <path id="Trazado_239389" data-name="Trazado 239389" d="M99.056,302.18c-.085-8.042,0-16.091-.321-24.123a17.7,17.7,0,0,0-5.45-11.675C87.189,260.149,81,254,74.812,247.866a4.274,4.274,0,0,0-6.249-.17,4.4,4.4,0,0,0,.2,6.392c2.635,2.7,5.34,5.341,8,8.016a8.121,8.121,0,0,1,2.5,7.573,7.765,7.765,0,0,1-5.495,6.33,8.348,8.348,0,0,1-8.868-2.261c-5.679-5.63-11.316-11.3-16.971-16.957-.236-.236-.463-.48-.71-.7a1.809,1.809,0,0,1-.173-2.884c1.153-.592,1.96-.075,2.778.747,5.714,5.749,11.463,11.464,17.181,17.208a5.558,5.558,0,0,0,4.765,1.884,4.544,4.544,0,0,0,3.964-3.108,4.73,4.73,0,0,0-1.133-5.215c-2.747-2.827-5.59-5.56-8.332-8.391a7.726,7.726,0,0,1,.066-11.159,7.459,7.459,0,0,1,10.281-.154c6.637,6.471,13.227,13,19.62,19.709a23.138,23.138,0,0,1,6.185,16.086c.113,6.937.04,13.878.065,20.816,0,1.07-.093,2.062-1.393,2.266-1.284.2-1.759-.663-2.04-1.711" transform="translate(-28.771 -138.024)" fill="#070605"/>
      <path id="Trazado_239390" data-name="Trazado 239390" d="M21.8,213.6a2.286,2.286,0,0,1-1.638-2.553q-.009-7.582-.116-15.165a5.034,5.034,0,0,0-3.52-4.93,4.728,4.728,0,0,0-5.424,1.888,6.241,6.241,0,0,0-.948,3.1c.021,9.832.149,19.664.232,29.5a6.274,6.274,0,0,0,2.227,4.48C23.743,241.02,34.829,252.169,46,263.228c1.5,1.485,2.379,2.943,2.1,5.08a19.835,19.835,0,0,0,.043,2.992c-.23,1.1-.754,1.9-2.021,1.7-1.293-.2-1.546-1.207-1.368-2.26.505-2.988-.849-4.963-2.936-7.009-10.583-10.374-20.989-20.928-31.5-31.372a10.487,10.487,0,0,1-3.307-7.848c-.008-9.546-.2-19.091-.223-28.637a8.252,8.252,0,0,1,11.9-7.64,7.943,7.943,0,0,1,4.677,7.309c.137,5.27.1,10.544.18,15.816A2,2,0,0,1,21.8,213.6" transform="translate(-6.788 -107.139)" fill="#050504"/>
      <path id="Trazado_239391" data-name="Trazado 239391" d="M283.569,320.713a4.257,4.257,0,0,0,.059-.991c-.624-3.571.911-6.023,3.464-8.507,10.537-10.252,20.854-20.73,31.236-31.14.856-.858,1.516-1.924,2.423-2.716a7.574,7.574,0,0,1,2.115-.925c1.286.888,1.294,1.965.4,3.114a23.96,23.96,0,0,1-1.947,2.259q-16.45,16.474-32.942,32.9a3.844,3.844,0,0,0-1.421,3.448c.088.653,0,1.329.019,1.993.038,1.075-.1,2.065-1.4,2.261-1.258.191-1.791-.6-2.014-1.7" transform="translate(-160.29 -156.553)" fill="#040303"/>
      <path id="Trazado_239392" data-name="Trazado 239392" d="M58.962,81.432a10.524,10.524,0,0,1,1.649,1.7,11.153,11.153,0,0,1,.653,2.046,6.3,6.3,0,0,0,4.171,4.371,2.667,2.667,0,0,1,1.55,1.765c.063.491-.827,1.426-1.464,1.63a6.693,6.693,0,0,0-4.467,4.943,4.837,4.837,0,0,1-.471,1.574,2.381,2.381,0,0,1-1.517.98,2.388,2.388,0,0,1-1.486-1.007,3.991,3.991,0,0,1-.485-1.565,6.466,6.466,0,0,0-4.177-4.781,3.242,3.242,0,0,1-1.823-1.8c-.259-1.193.912-1.566,1.9-1.878,2.742-.869,3.629-3.148,4.361-5.618a10.451,10.451,0,0,1,1.609-2.36m.132,7.216L56.811,91.23l2.418,2.464,2.1-2.433-2.234-2.614" transform="translate(-31.347 -48.375)" fill="#060505"/>
      <path id="Trazado_239393" data-name="Trazado 239393" d="M304.915,82.782a4.788,4.788,0,0,1,1.029,1.106,13.381,13.381,0,0,1,.64,2.051,6.4,6.4,0,0,0,4.193,4.362,2.707,2.707,0,0,1,1.592,1.749c.074.476-.833,1.435-1.472,1.634-2.8.871-4,2.975-4.661,5.563-.257,1.006-.49,1.985-1.8,2.016-1.344.032-1.642-.985-1.819-1.977a6.892,6.892,0,0,0-4.793-5.636,2.424,2.424,0,0,1-1.319-1.756c-.026-.508.777-1.372,1.369-1.546,2.819-.827,4.044-2.878,4.689-5.5.251-1.022.484-2.133,2.35-2.061m-.49,6.631-2.315,2.6,2.588,2.264,2.013-2.248-2.286-2.612" transform="translate(-167.511 -49.122)" fill="#050505"/>
      <path id="Trazado_239394" data-name="Trazado 239394" d="M126.489,38.472c.048.8.4,1.793.047,2.346-.264.419-1.415.279-2.171.387-.114-.783-.538-1.7-.269-2.319.441-1.01,1.483-.859,2.394-.414" transform="translate(-71.817 -24.352)" fill="#0f0e09"/>
      <path id="Trazado_239395" data-name="Trazado 239395" d="M39.667,256.834c-1.106.057-2.027-.271-2.2-1.48-.159-1.127.551-1.7,1.607-1.9q3.1,1.055.59,3.378" transform="translate(-23.796 -143.806)" fill="#0b0909"/>
      <path id="Trazado_239396" data-name="Trazado 239396" d="M370.31,264.929c-.535-.619-1.427-1.2-1.49-1.869-.048-.507.955-1.113,1.49-1.674.568.561,1.446,1.036,1.632,1.7.313,1.121-.719,1.537-1.632,1.839" transform="translate(-207.627 -148.205)" fill="#0a0807"/>
      <path id="Trazado_239397" data-name="Trazado 239397" d="M175.041,80.781c1.305,0,2.353-.042,3.4.008a5.4,5.4,0,1,1-.139,10.794c-1,.021-1.995,0-3.124,0V94.3c.985,0,2.016-.02,3.046,0a5.411,5.411,0,1,1,.3,10.816c-1.094.073-2.2.012-3.387.012-.04.673-.069,1.16-.1,1.648a5.384,5.384,0,1,1-10.765-.226q-.044-15.074.007-30.148a2.143,2.143,0,0,0-1.3-2.3A14.008,14.008,0,0,1,155.9,58.187,14.176,14.176,0,0,1,183.369,58a13.88,13.88,0,0,1-6.7,15.91,2.68,2.68,0,0,0-1.642,2.971c.09,1.206.019,2.423.019,3.9M167.6,90.123v1.5c0,4.944-.007,9.888.007,14.831,0,1.379.683,2.254,2.11,2.238,1.354-.015,1.958-.883,1.983-2.182.016-.889.008-1.777.012-2.666a1.8,1.8,0,0,1,2.047-2.047c1.389.008,2.778.023,4.167-.007,1.684-.036,2.735-.867,2.6-2.134-.16-1.479-1.146-2.043-2.564-2.023-1.389.019-2.779-.027-4.167.012a1.782,1.782,0,0,1-2.077-2c-.022-1.777-.014-3.555,0-5.333.008-1.441.724-2.118,2.188-2.072,1.443.045,2.889.024,4.334,0a2.015,2.015,0,0,0,2.274-2.107,1.952,1.952,0,0,0-2.192-2c-1.389-.019-2.778.009-4.167-.012-1.961-.03-2.421-.5-2.436-2.507-.016-2.222.08-4.448-.031-6.664a2.972,2.972,0,0,1,2.186-3.373A10.651,10.651,0,0,0,180.5,60.717a10.867,10.867,0,1,0-14.731,11.013,2.523,2.523,0,0,1,1.848,2.729c-.065,5.22-.026,10.442-.026,15.664" transform="translate(-89.273 -29.511)" fill="#060503"/>
      <path id="Trazado_239398" data-name="Trazado 239398" d="M199.192,52.083c.051,8.65-1.643,14.281-5.018,19.33-3.434,5.139-6.631,10.375-8.622,16.263-.394,1.167-1.129,1.886-2.368,1.416-1.3-.495-1.118-1.559-.74-2.659a57.854,57.854,0,0,1,7.843-15.169,28.376,28.376,0,0,0-16.4-44.533A27.49,27.49,0,0,0,151.8,30.757c-.325.213-.653.421-.968.649a1.565,1.565,0,0,1-2.457-.368,1.682,1.682,0,0,1,.642-2.442,30.4,30.4,0,0,1,10.636-4.969c11.385-2.669,21.44-.036,29.961,7.972,6.112,5.743,9.586,14.374,9.576,20.485" transform="translate(-85.17 -15.748)" fill="#f7e3ac"/>
      <path id="Trazado_239399" data-name="Trazado 239399" d="M218.431,185.871c.324-1.728.642-3.458.975-5.184a1.425,1.425,0,0,1,2.1-1.17,2.357,2.357,0,0,1,1.1,1.854,22.843,22.843,0,0,1-.869,5.19,2.489,2.489,0,0,1-1.8,1.45c-1.213.041-1.583-.979-1.506-2.141" transform="translate(-124.193 -102.698)" fill="#f7e3ab"/>
      <path id="Trazado_239400" data-name="Trazado 239400" d="M126.93,289.852c0,1.372.011,2.26,0,3.147-.017,1.094-.515,1.871-1.661,1.875s-1.63-.768-1.671-1.865c-.082-2.153-.147-4.307-.276-6.457-.273-4.534-2.658-8.007-5.725-11.1q-8.093-8.149-16.244-16.242c-.817-.815-1.677-1.616-.7-2.82.714-.878,1.927-.637,3.132.566,5.457,5.45,10.876,10.938,16.375,16.345a21.255,21.255,0,0,1,6.772,16.546" transform="translate(-58.617 -145.144)" fill="#fadee0"/>
      <path id="Trazado_239401" data-name="Trazado 239401" d="M155.928,354.8c0,.662.222,1.443-.055,1.956a3.073,3.073,0,0,1-1.721,1.541c-.4.08-1.353-.887-1.462-1.491a10.916,10.916,0,0,1-.008-3.944c.128-.664,1.009-1.183,1.551-1.767a8.239,8.239,0,0,1,1.649,1.748c.268.525.053,1.3.053,1.959h-.008" transform="translate(-87.626 -197.974)" fill="#fadee0"/>
      <path id="Trazado_239402" data-name="Trazado 239402" d="M312.762,232.717c0,3.388.122,6.783-.065,10.161a5.853,5.853,0,0,1-1.394,3.545c-12.07,12.2-24.233,24.316-36.366,36.458-.845.845-1.729,1.324-2.706.306s-.422-1.878.411-2.71q17.749-17.721,35.5-35.44a4.065,4.065,0,0,0,1.316-3.2c-.057-6.164-.016-12.33-.008-18.5,0-.444-.159-1.032.062-1.3.536-.66,1.2-1.557,1.911-1.654.983-.134,1.392.785,1.378,1.841-.043,3.5-.016,7-.016,10.5Z" transform="translate(-153.756 -125.449)" fill="#fadfe0"/>
      <path id="Trazado_239403" data-name="Trazado 239403" d="M357.107,204.361c-.152-1.163.253-2.144,1.606-2.072,1.237.066,1.762,1.049,1.712,2.242s-.365,2.309-1.813,2.3c-1.613-.007-1.54-1.262-1.5-2.473" transform="translate(-201.113 -115.419)" fill="#faddde"/>
      <path id="Trazado_239404" data-name="Trazado 239404" d="M186.962,224.176c-3.1,0-6.136.018-9.176-.009-1.187-.011-2.044.445-2.015,1.67.031,1.32,1.019,1.694,2.218,1.687,2.939-.017,5.877-.006,8.786-.006.993,3.439-.746,6.28-4.114,6.819a12.677,12.677,0,0,1-1.989.122c-8,.008-16-.078-24,.04-4.1.061-6.736-2.119-6.393-6.356.138-1.7.023-3.419.023-5.37,2.85,0,5.549.008,8.249,0,1.33-.006,2.844.179,3.081-1.7.152-1.2-.866-1.743-3-1.753q-3.914-.019-7.829-.055c-.1,0-.193-.085-.393-.179v-4.155h36.552Z" transform="translate(-86.376 -122.434)" fill="#7b7977"/>
      <path id="Trazado_239405" data-name="Trazado 239405" d="M66.263,97.638l2.234,2.614-2.1,2.433-2.418-2.464,2.282-2.583" transform="translate(-38.516 -57.365)" fill="#e5b71e"/>
      <path id="Trazado_239406" data-name="Trazado 239406" d="M311.407,97.678l2.286,2.612-2.013,2.248-2.588-2.264,2.315-2.6" transform="translate(-174.493 -57.387)" fill="#e2b51e"/>
      <path id="Trazado_239408" data-name="Trazado 239408" d="M172.725,71.135a6.5,6.5,0,0,1,6.586-6.506,6.552,6.552,0,1,1-6.586,6.506m6.548-3.156a3.133,3.133,0,0,0-3.2,3.114,3.179,3.179,0,0,0,3.035,3.294,3.31,3.31,0,0,0,3.334-3.216,3.256,3.256,0,0,0-3.174-3.191" transform="translate(-98.843 -39.053)" fill="#060504"/>
      <path id="Trazado_239409" data-name="Trazado 239409" d="M183.448,72.152a3.256,3.256,0,0,1,3.174,3.191,3.31,3.31,0,0,1-3.334,3.216,3.179,3.179,0,0,1-3.035-3.294,3.133,3.133,0,0,1,3.2-3.114" transform="translate(-103.018 -43.226)" fill="#e8ba1f"/>
    </g>
  </g>
</svg>
