<svg xmlns="http://www.w3.org/2000/svg" width="172.671" height="172.681" viewBox="0 0 172.671 172.681">
  <g id="Grupo_166539" data-name="Grupo 166539" transform="translate(0 -0.72)">
    <g id="Grupo_166540" data-name="Grupo 166540" transform="translate(0 0.72)">
      <path id="Trazado_239373" data-name="Trazado 239373" d="M0,60.762c.424-2.219.83-4.442,1.272-6.658a66.146,66.146,0,0,1,130.155,1.925,63.683,63.683,0,0,1-1.547,28.515,2.126,2.126,0,0,0,.751,2.563,91.279,91.279,0,0,1,13.654,14.156,20.937,20.937,0,0,0,10.884,7.278,1.474,1.474,0,0,0,1.952-.592A8.34,8.34,0,0,1,166.8,104.8a8.571,8.571,0,0,1,5.861,8.365q.024,22.67.009,45.339c0,3.771-1.545,6.65-4.981,8.278-3.455,1.637-6.658.955-9.531-1.49-.127-.108-.268-.2-.505-.371-1.383.878-2.8,1.758-4.2,2.669a32.477,32.477,0,0,1-16.034,5.5c-.173.01-.335.2-.5.306H80.938a5.816,5.816,0,0,0-.947-.553,11.311,11.311,0,0,1-7.982-10.054,12.266,12.266,0,0,1,1.833-7.366,11.359,11.359,0,0,1-7.23-7.815,11.229,11.229,0,0,1,1.968-9.985c-1.111-1.311-2.03-2.523-3.091-3.592a3.539,3.539,0,0,0-1.9-1c-2.837-.364-5.723-.408-8.534-.9A66.04,66.04,0,0,1,1.3,79.884C.855,77.672.433,75.454,0,73.24V60.762M85.99,9.887a57.855,57.855,0,0,0-33.3-1.9A60.349,60.349,0,0,0,6,71.776a59.516,59.516,0,0,0,17.531,37.835,59.1,59.1,0,0,0,30.884,16.5c2.885.582,5.84.815,8.638,1.193l1.563-5.706c-1.5-.144-2.952-.27-4.4-.424a52.413,52.413,0,0,1-32.243-15.25C15.868,93.876,10.392,79.2,11.776,62.1a51.643,51.643,0,0,1,13.41-31.312c13.176-14.5,29.634-20.613,49.093-17.911C88.422,14.839,99.9,21.732,108.913,32.76a60.2,60.2,0,0,1,8.678,15.134c.144.54.26,1.088.436,1.618a48.977,48.977,0,0,1,2.322,23.373c-.682,4.243,1.286,6.709,4.181,9.286.207-.6.364-.941.448-1.3a60.059,60.059,0,0,0,.66-24.711,59.433,59.433,0,0,0-20.456-35.408A55.215,55.215,0,0,0,85.99,9.887m55.637,156.68a13.178,13.178,0,0,0,2.724-.78c3.308-1.765,6.54-3.673,9.847-5.442a2.152,2.152,0,0,0,1.256-2.249c-.042-13.545-.027-27.09-.027-40.634,0-2.764,0-2.759-2.537-3.634-1.056-.364-2.1-.76-3.151-1.143l-2.684-1.4c-2.573-2.311-5.521-4.322-7.642-6.992a91.264,91.264,0,0,0-16.747-16.244,25.366,25.366,0,0,1-9.753-14.67c-.4-1.627-.509-3.323-.885-4.957a5.545,5.545,0,0,0-7.5-4.026,4.875,4.875,0,0,0-3.672,4.533,54.408,54.408,0,0,0,.217,9.065c.744,6.215,3.662,11.606,6.981,16.786,1.343,2.1,1.8,4.244.569,6.506-1.268,2.339-3.378,3.045-5.939,3.028q-10.959-.076-21.918.01a5.723,5.723,0,0,0-5.917,5.637,5.944,5.944,0,0,0,5.8,5.829c1.683.069,3.372.005,5.058.03,2.155.031,3.445,1.088,3.492,2.826.049,1.8-1.258,2.916-3.516,2.929-3.372.019-6.745-.025-10.116.025a8.831,8.831,0,0,0-2.8.433,5.656,5.656,0,0,0-3.6,6.339,5.731,5.731,0,0,0,5.742,4.722c3.6.078,7.194,0,10.79.03,2.187.015,3.454,1.056,3.5,2.789.045,1.807-1.275,2.951-3.508,2.974-2.529.027-5.06-.046-7.587.033a7.927,7.927,0,0,0-2.929.583,5.573,5.573,0,0,0-3.064,6.3,5.678,5.678,0,0,0,5.674,4.588c2.808.07,5.62-.01,8.429.035a2.788,2.788,0,0,1,2.982,2.763,2.862,2.862,0,0,1-2.833,2.953c-.894.071-1.8.009-2.7.025a5.747,5.747,0,1,0,.067,11.482c16.411.005,32.822.029,49.232-.082a78.086,78.086,0,0,0,8.674-1m-26.96-104.9c-1.9-22.513-21.974-44.644-50.042-43.584-29.071,1.1-50.391,26-47,54.561,3.348,28.207,28.752,45.473,52.793,42.893-.095-.273-.169-.529-.27-.774-3.072-7.476,1.284-15.155,9.268-16.093a67.8,67.8,0,0,1,7.749-.107c5.376-.01,10.751,0,16.412,0-.709-1.179-1.271-2.128-1.848-3.069-5.074-8.279-7.671-17.157-6.68-26.953a11.507,11.507,0,0,1,10.438-10.187,12.157,12.157,0,0,1,9.181,3.316M161.176,136q0,11.294.006,22.588c0,2.095,1.4,3.506,3.164,3.285,1.587-.2,2.565-1.453,2.57-3.4.014-6.012.006-12.025.006-18.038,0-8.878.046-17.756-.06-26.633a4.893,4.893,0,0,0-1.375-3.159,2.794,2.794,0,0,0-2.728-.11,4.2,4.2,0,0,0-1.516,2.88c-.123,7.527-.067,15.058-.067,22.587" transform="translate(0 -0.72)" fill="#020201"/>
      <path id="Trazado_239375" data-name="Trazado 239375" d="M135.728,82.788a12.157,12.157,0,0,0-9.181-3.316,11.507,11.507,0,0,0-10.437,10.187c-.991,9.8,1.605,18.674,6.679,26.953.577.941,1.138,1.89,1.848,3.069-5.66,0-11.035-.007-16.411,0a67.8,67.8,0,0,0-7.749.107c-7.984.938-12.34,8.617-9.268,16.093.1.245.176.5.27.774-24.041,2.58-49.445-14.686-52.793-42.893-3.39-28.56,17.931-53.463,47-54.56,28.068-1.06,48.146,21.071,50.042,43.584m-62.65,24.5c-2.417-2.455-4.419-4.5-6.437-6.535-1.98-1.994-3.878-4.087-6.019-5.893a3.954,3.954,0,0,0-3.169-.674,3.141,3.141,0,0,0-1.683,2.361,4.171,4.171,0,0,0,1.286,2.727c4.269,4.393,8.63,8.7,12.964,13.026,2.246,2.244,3.44,2.253,5.662.031q20.807-20.8,41.607-41.609a7.353,7.353,0,0,0,1.117-1.254,2.839,2.839,0,0,0-4-3.889,11.45,11.45,0,0,0-1.358,1.257Q93.728,86.15,74.428,105.477a16.746,16.746,0,0,0-1.351,1.812" transform="translate(-21.061 -21.845)" fill="#ffb500"/>
      <path id="Trazado_239376" data-name="Trazado 239376" d="M231.3,188.943l2.684,1.4v48.509c-.892.522-1.892,1.038-2.819,1.663-1.786,1.2-3.531,2.468-5.293,3.708a77.977,77.977,0,0,1-8.674,1c-16.41.111-32.821.087-49.232.082a5.746,5.746,0,1,1-.067-11.482c.9-.015,1.8.046,2.7-.024a2.863,2.863,0,0,0,2.833-2.954,2.789,2.789,0,0,0-2.982-2.763c-2.809-.045-5.621.036-8.429-.035a5.678,5.678,0,0,1-5.674-4.588,5.574,5.574,0,0,1,3.064-6.3,7.935,7.935,0,0,1,2.929-.583c2.527-.079,5.057-.006,7.586-.033,2.234-.023,3.554-1.168,3.509-2.974-.044-1.734-1.311-2.774-3.5-2.789-3.6-.025-7.2.048-10.79-.03a5.732,5.732,0,0,1-5.742-4.722,5.657,5.657,0,0,1,3.6-6.339,8.833,8.833,0,0,1,2.8-.433c3.371-.05,6.744-.006,10.116-.025,2.258-.013,3.565-1.124,3.516-2.929-.047-1.737-1.337-2.795-3.492-2.826-1.685-.024-3.374.04-5.057-.03a5.944,5.944,0,0,1-5.8-5.829,5.722,5.722,0,0,1,5.917-5.637q10.959-.071,21.918-.011c2.561.018,4.671-.688,5.939-3.028,1.226-2.262.773-4.41-.569-6.506-3.319-5.18-6.237-10.572-6.981-16.786a54.405,54.405,0,0,1-.217-9.064,4.874,4.874,0,0,1,3.672-4.533,13.852,13.852,0,0,1,2.12,5.9c.75,4.933,2.391,9.6,6.228,13.066,2.73,2.468,5.783,4.581,8.475,7.086a97.588,97.588,0,0,1,9.862,10c3.622,4.511,7.633,8.292,13.1,10.336a15.2,15.2,0,0,0,2.752.5" transform="translate(-84.246 -78.379)" fill="#fddeb1"/>
      <path id="Trazado_239377" data-name="Trazado 239377" d="M124.637,54.819a60.2,60.2,0,0,0-8.678-15.134C106.943,28.656,95.468,21.764,81.326,19.8c-19.459-2.7-35.918,3.41-49.093,17.911a51.64,51.64,0,0,0-13.41,31.312c-1.384,17.1,4.092,31.778,16.2,43.824A52.411,52.411,0,0,0,67.264,128.1c1.448.154,2.9.28,4.4.424L70.1,134.227c-2.8-.377-5.752-.611-8.638-1.193a59.1,59.1,0,0,1-30.883-16.5A59.516,59.516,0,0,1,13.048,78.7a60.349,60.349,0,0,1,46.69-63.79,57.849,57.849,0,0,1,33.3,1.9,5.848,5.848,0,0,0,1.05.96,64.882,64.882,0,0,1,16.8,12.879,63.227,63.227,0,0,1,11.342,16.923,68.361,68.361,0,0,1,2.411,7.245" transform="translate(-7.046 -7.646)" fill="#cb930c"/>
      <path id="Trazado_239378" data-name="Trazado 239378" d="M222.464,59.074a68.363,68.363,0,0,0-2.411-7.245,63.227,63.227,0,0,0-11.342-16.923,64.882,64.882,0,0,0-16.8-12.879,5.849,5.849,0,0,1-1.05-.96,55.21,55.21,0,0,1,19.191,10.86,59.436,59.436,0,0,1,20.456,35.408,60.059,60.059,0,0,1-.66,24.711c-.084.363-.241.709-.448,1.3-2.9-2.578-4.863-5.043-4.181-9.286A48.976,48.976,0,0,0,222.9,60.692c-.175-.529-.292-1.078-.436-1.618" transform="translate(-104.873 -11.9)" fill="#a87803"/>
      <path id="Trazado_239379" data-name="Trazado 239379" d="M357.73,269.566c0-7.529-.056-15.06.067-22.587a4.2,4.2,0,0,1,1.517-2.88,2.794,2.794,0,0,1,2.728.11,4.895,4.895,0,0,1,1.375,3.159c.106,8.877.059,17.755.059,26.633,0,6.013.009,12.025-.006,18.038,0,1.948-.982,3.2-2.57,3.4-1.762.221-3.159-1.19-3.163-3.285q-.025-11.294-.007-22.588" transform="translate(-196.554 -134.282)" fill="#d2e1f1"/>
      <path id="Trazado_239380" data-name="Trazado 239380" d="M314.355,303.121c1.762-1.239,3.507-2.5,5.293-3.708.928-.625,1.928-1.142,2.819-1.663V249.241c1.05.382,2.095.778,3.15,1.143,2.535.875,2.537.869,2.537,3.633,0,13.545-.014,27.09.028,40.634a2.153,2.153,0,0,1-1.256,2.249c-3.307,1.768-6.539,3.676-9.847,5.441a13.178,13.178,0,0,1-2.724.78" transform="translate(-172.728 -137.274)" fill="#dbc199"/>
      <path id="Trazado_239381" data-name="Trazado 239381" d="M274.532,188.5a15.2,15.2,0,0,1-2.752-.5c-5.463-2.044-9.474-5.825-13.1-10.336a97.592,97.592,0,0,0-9.862-10c-2.692-2.5-5.745-4.618-8.475-7.086-3.837-3.469-5.478-8.133-6.228-13.066a13.853,13.853,0,0,0-2.12-5.9,5.545,5.545,0,0,1,7.5,4.026c.377,1.634.488,3.329.885,4.957a25.371,25.371,0,0,0,9.753,14.67,91.267,91.267,0,0,1,16.748,16.244c2.121,2.669,5.07,4.681,7.642,6.992" transform="translate(-127.477 -77.939)" fill="#dcc19a"/>
      <path id="Trazado_239382" data-name="Trazado 239382" d="M94.341,138.816A16.748,16.748,0,0,1,95.692,137q19.293-19.333,38.614-38.64a11.448,11.448,0,0,1,1.358-1.257,2.839,2.839,0,0,1,4,3.889,7.353,7.353,0,0,1-1.117,1.254q-20.8,20.808-41.607,41.609c-2.222,2.222-3.415,2.213-5.662-.031-4.334-4.329-8.7-8.633-12.964-13.026a4.17,4.17,0,0,1-1.286-2.727,3.141,3.141,0,0,1,1.683-2.361,3.954,3.954,0,0,1,3.169.674c2.14,1.806,4.039,3.9,6.019,5.893,2.018,2.032,4.02,4.08,6.437,6.535" transform="translate(-42.325 -53.372)" fill="#020300"/>
    </g>
  </g>
</svg>
