<svg xmlns="http://www.w3.org/2000/svg" width="91.107" height="90.357" viewBox="0 0 91.107 90.357">
  <g id="Grupo_165345" data-name="Grupo 165345" transform="translate(0 -1.174)">
    <g id="Grupo_165346" data-name="Grupo 165346" transform="translate(0 1.174)">
      <path id="Trazado_236668" data-name="Trazado 236668" d="M0,49.728V45.465a2.485,2.485,0,0,1,2.108-.749c5.514.029,11.028.015,16.542.015h.843a2.033,2.033,0,0,0-.642-.8c-3.283-2.993-6.555-6-9.85-8.978a5.549,5.549,0,0,1-2.055-3.888,5.2,5.2,0,0,1,2.976-5.219,5.264,5.264,0,0,1,6.03.831c2.207,1.975,4.379,3.99,6.566,5.987,1.657,1.513,3.315,3.024,5.038,4.6l4.016-6.251c-.832-.1-1.531-.16-2.224-.267A14.872,14.872,0,1,1,35.67,1.717,14.616,14.616,0,0,1,46.307,12.582a1.608,1.608,0,0,0,.661.86,19.322,19.322,0,0,1,2.812,1.577c2.673,2.341,5.241,4.8,7.85,7.214,1.708,1.579,3.419,3.155,5.173,4.774l7.52-8.809c-.691-.6-1.34-1.122-1.934-1.7a4.758,4.758,0,0,1,1.528-7.95C74.839,6.705,79.8,4.968,84.779,3.27a4.754,4.754,0,0,1,6.163,3.383,1.11,1.11,0,0,0,.166.267V9.052a6.851,6.851,0,0,0-.324.957c-.847,4.559-1.677,9.121-2.521,13.68a4.828,4.828,0,0,1-7.973,2.96c-.578-.461-1.134-.949-1.732-1.45-.613.715-1.236,1.388-1.8,2.109a1.545,1.545,0,0,1-2.164.531,1.458,1.458,0,0,1,.077-2.2c.856-1.021,1.716-2.04,2.6-3.039a1.349,1.349,0,0,1,2.163-.16c.826.675,1.619,1.389,2.444,2.065,1.571,1.29,3.36.682,3.738-1.3q1.419-7.447,2.772-14.906a2.155,2.155,0,0,0-2.963-2.435q-7.162,2.5-14.3,5.067a2.158,2.158,0,0,0-.67,3.864c.733.647,1.492,1.264,2.232,1.9,1.1.952,1.145,1.513.207,2.61q-4.271,5-8.544,10c-1.079,1.261-1.618,1.29-2.849.152Q54.849,23.3,48.191,17.142c-.4-.367-.857-.667-1.395-1.081-.059.461-.1.722-.124.984A14.946,14.946,0,0,1,35.646,30.483a1.94,1.94,0,0,0-1,.733c-1.837,2.792-3.63,5.613-5.441,8.423-.816,1.266-1.518,1.354-2.646.325q-6.042-5.511-12.076-11.029c-1.412-1.289-3.061-1.328-4.17-.1-1.094,1.212-.938,2.823.426,4.073q6.193,5.674,12.415,11.317a2.063,2.063,0,0,0,1.241.485c2.4.045,4.8,0,7.206.036a1.307,1.307,0,0,0,1.281-.691q6.138-9.61,12.32-19.193c.967-1.5,1.6-1.574,2.938-.339q6.49,6.008,12.987,12.009a2.78,2.78,0,0,0,4.464-.261q2.573-3,5.134-6.014c.768-.9,1.2-.975,2.219-.423a1.5,1.5,0,0,1-.165,2.141c-1.728,1.988-3.428,4-5.139,6a5.436,5.436,0,0,1-8.339.5Q53.43,33.05,47.554,27.627c-.188-.173-.393-.327-.626-.52L35.605,44.732H36.8q26.234,0,52.467-.013a1.817,1.817,0,0,1,1.842.924v4.263a2.9,2.9,0,0,0-.192.523c-.287,1.75-.477,3.519-.854,5.249A45.556,45.556,0,0,1,24.34,86.3c-1.046-.539-1.2-.91-.914-2.078a1.556,1.556,0,0,1,2.137-.306,39.1,39.1,0,0,0,10.848,3.9l.31.025-.2-.144c-5.234-5.167-7.928-11.7-10-18.639A42.111,42.111,0,0,0,15.595,76.81C17.288,78.18,18.9,79.5,20.538,80.8c.9.714,1.018,1.047.648,2.122a1.471,1.471,0,0,1-2.137.116A45.175,45.175,0,0,1,.506,52.72c-.158-1-.337-1.995-.506-2.992m29.6,20.12.01.066c.814,2.179,1.522,4.405,2.467,6.527a26.3,26.3,0,0,0,6.881,9.768c3.774,3.173,8.376,3.492,11.982.844a13.207,13.207,0,0,0,1.223-.864c5.518-4.883,7.88-11.471,9.99-18.293a43.384,43.384,0,0,0-33.188.014l.538,1.544.1.394m2.61-41.615a3.463,3.463,0,0,0,.353.024c7.08-.213,12.678-7.3,11.3-14.3-1.145-5.823-6.229-10.2-11.655-10.042-.146-.014-.293-.04-.44-.041A12.236,12.236,0,0,0,19.79,18.5c1.187,5.85,6.75,10.211,12.418,9.735m-9.254,19.2q-10.006-.01-20.012-.014c-.078,0-.156.065-.263.113A42.636,42.636,0,0,0,13.708,74.7c1.9-1.518,3.658-3.08,5.577-4.4,1.942-1.341,4.052-2.436,6.068-3.672a.905.905,0,0,0,.368-.725c-.548-3.442-1.136-6.877-1.714-10.314-.132-2.555-.275-5.108-.386-7.664-.022-.509-.24-.605-.667-.494m5.377,17.836a46.17,46.17,0,0,1,34.448,0,82.974,82.974,0,0,0,2.046-17.8H26.274a83.5,83.5,0,0,0,2.057,17.8m48.985,9.551a42.673,42.673,0,0,0,11.1-27.366H67.64c-.247,3.207-.389,6.369-.759,9.5-.373,3.158-.972,6.29-1.484,9.509a45.875,45.875,0,0,1,11.919,8.354M54.238,87.989a42.959,42.959,0,0,0,21.2-11.26,42.291,42.291,0,0,0-10.849-7.672c-2.124,7-4.794,13.62-10.354,18.933" transform="translate(0 -1.174)" fill="#030303"/>
      <path id="Trazado_236672" data-name="Trazado 236672" d="M105.427,42.414l-1.657,2c-1.023-.552-1.451-.475-2.219.423-1.714,2-3.419,4.013-5.134,6.014a2.78,2.78,0,0,1-4.464.261Q85.45,45.112,78.966,39.1c-1.336-1.236-1.971-1.166-2.938.339q-6.166,9.592-12.32,19.193a1.306,1.306,0,0,1-1.281.691c-2.4-.035-4.8.009-7.206-.036A2.064,2.064,0,0,1,53.98,58.8q-6.233-5.631-12.415-11.317c-1.364-1.25-1.521-2.86-.426-4.073,1.109-1.229,2.758-1.19,4.17.1q6.038,5.515,12.076,11.029c1.128,1.029,1.83.94,2.646-.325,1.811-2.809,3.6-5.63,5.441-8.423a1.939,1.939,0,0,1,1-.733A14.946,14.946,0,0,0,77.5,31.619c.023-.262.065-.522.124-.984.538.414,1,.714,1.394,1.081q6.665,6.146,13.315,12.309c1.23,1.138,1.77,1.109,2.849-.152q4.275-5,8.544-10c.937-1.1.894-1.658-.207-2.61-.74-.639-1.5-1.256-2.232-1.9a2.158,2.158,0,0,1,.67-3.864q7.136-2.569,14.3-5.067a2.155,2.155,0,0,1,2.963,2.435q-1.352,7.459-2.772,14.906c-.378,1.984-2.167,2.591-3.738,1.3-.824-.677-1.618-1.391-2.444-2.065a1.348,1.348,0,0,0-2.163.16c-.883,1-1.742,2.018-2.6,3.039a1.457,1.457,0,0,0-.077,2.2" transform="translate(-30.828 -15.748)" fill="#ced371"/>
      <path id="Trazado_236673" data-name="Trazado 236673" d="M112.8,214.077a83.492,83.492,0,0,1-2.057-17.8H149.29a82.976,82.976,0,0,1-2.046,17.8,46.169,46.169,0,0,0-34.448,0" transform="translate(-84.465 -149.984)" fill="#d2e1f1"/>
      <path id="Trazado_236674" data-name="Trazado 236674" d="M122.613,273.374l-.538-1.544a43.385,43.385,0,0,1,33.188-.014c-2.11,6.822-4.472,13.41-9.99,18.293a13.209,13.209,0,0,1-1.223.864,41.285,41.285,0,0,1-14.091-8.823,42.355,42.355,0,0,1-6.677-7.892,2.15,2.15,0,0,0-.563-.424l-.009-.067-.1-.393" transform="translate(-93.112 -205.093)" fill="#d2e1f1"/>
      <path id="Trazado_236675" data-name="Trazado 236675" d="M287.555,223.591a45.875,45.875,0,0,0-11.919-8.354c.512-3.219,1.111-6.351,1.483-9.509.37-3.135.513-6.3.759-9.5h20.779a42.672,42.672,0,0,1-11.1,27.366" transform="translate(-210.239 -149.947)" fill="#d2e1f1"/>
      <path id="Trazado_236676" data-name="Trazado 236676" d="M32.623,204.248c.578,3.437,1.166,6.872,1.714,10.314a.906.906,0,0,1-.368.725c-2.016,1.236-4.127,2.332-6.068,3.672-1.919,1.325-3.674,2.886-5.577,4.4A42.636,42.636,0,0,1,11.3,196.188c.107-.048.185-.113.263-.113q10.006,0,20.012.014c.061,1.262.036,2.535.2,3.783.2,1.47.559,2.918.85,4.375" transform="translate(-8.615 -149.833)" fill="#d2e1f1"/>
      <path id="Trazado_236677" data-name="Trazado 236677" d="M112.13,12.707c5.426-.161,10.509,4.219,11.655,10.042,1.378,7-4.22,14.089-11.3,14.3a3.465,3.465,0,0,1-.353-.024,10.491,10.491,0,0,1-.94-.653,29.341,29.341,0,0,1-3.481-3.1,12.77,12.77,0,0,1-2.893-9.36,12.618,12.618,0,0,1,3.588-8.242,35.142,35.142,0,0,1,3.724-2.96M110.3,33.18c0,.006.008.15.015.294.052.982.549,1.561,1.332,1.551s1.313-.6,1.322-1.573a.772.772,0,0,1,.576-.824,5.111,5.111,0,0,0,3.215-4.95c-.057-1.928-1.252-3.4-3.368-4.222-.935-.362-1.851-.776-2.764-1.191a1.278,1.278,0,0,1-.844-1.483,1.6,1.6,0,0,1,1.265-1.427,3.1,3.1,0,0,1,2.538.459,1.307,1.307,0,0,0,1.936-.308,1.326,1.326,0,0,0-.5-1.908c-.616-.387-1.3-.666-1.979-1.006-.154-1.3-.561-1.857-1.388-1.867-.878-.011-1.273.556-1.379,2.006a3.994,3.994,0,0,1-.374.2,4.2,4.2,0,0,0-2.793,3.858,3.753,3.753,0,0,0,2.382,3.886c1.012.483,2.051.91,3.088,1.337,1.165.48,1.636,1.15,1.5,2.2a2.4,2.4,0,0,1-2.1,2.09,4.668,4.668,0,0,1-3.226-.678,1.317,1.317,0,1,0-1.338,2.262c.9.485,1.86.844,2.888,1.3" transform="translate(-79.923 -9.968)" fill="#a3314f"/>
      <path id="Trazado_236678" data-name="Trazado 236678" d="M73.56,302.446l-2.24-1.294c.37-1.075.248-1.408-.648-2.122-1.634-1.3-3.25-2.624-4.943-3.994a42.107,42.107,0,0,1,10.923-7.755c2.074,6.934,4.768,13.471,10,18.639l-.109.119a39.106,39.106,0,0,1-10.847-3.9,1.556,1.556,0,0,0-2.137.306" transform="translate(-50.134 -219.4)" fill="#d2e1f1"/>
      <path id="Trazado_236679" data-name="Trazado 236679" d="M228.6,306.217c5.56-5.313,8.23-11.933,10.354-18.933a42.29,42.29,0,0,1,10.849,7.672,42.959,42.959,0,0,1-21.2,11.26" transform="translate(-174.366 -219.402)" fill="#d2e1f1"/>
      <path id="Trazado_236680" data-name="Trazado 236680" d="M95.043,12.589a35.141,35.141,0,0,0-3.724,2.96,12.617,12.617,0,0,0-3.588,8.242,12.771,12.771,0,0,0,2.893,9.36A29.384,29.384,0,0,0,94.1,36.256a10.49,10.49,0,0,0,.94.653c-5.668.475-11.231-3.886-12.418-9.736A12.236,12.236,0,0,1,94.6,12.548c.147,0,.293.027.44.041" transform="translate(-62.836 -9.849)" fill="#a3314f" opacity="0.65"/>
      <path id="Trazado_236681" data-name="Trazado 236681" d="M124.793,290.9a2.149,2.149,0,0,1,.563.424,42.363,42.363,0,0,0,6.677,7.892,41.282,41.282,0,0,0,14.091,8.823c-3.606,2.648-8.209,2.328-11.982-.844a26.3,26.3,0,0,1-6.881-9.768c-.945-2.121-1.652-4.348-2.467-6.527" transform="translate(-95.185 -222.163)" fill="#dee4f0"/>
      <path id="Trazado_236682" data-name="Trazado 236682" d="M97.8,204.162c-.291-1.457-.653-2.905-.85-4.375-.167-1.248-.143-2.521-.2-3.783.427-.111.645-.015.667.494.112,2.555.254,5.109.386,7.664" transform="translate(-73.794 -149.747)" fill="#77a9ed"/>
      <path id="Trazado_236683" data-name="Trazado 236683" d="M124.344,288.966l.1.393-.1-.393" transform="translate(-94.842 -220.685)" fill="#60a0f6"/>
      <path id="Trazado_236684" data-name="Trazado 236684" d="M153.573,365.839l.2.144-.31-.025.109-.119" transform="translate(-117.053 -279.319)" fill="#60a0f6"/>
      <path id="Trazado_236685" data-name="Trazado 236685" d="M116.349,39.668c-1.028-.455-1.992-.815-2.888-1.3a1.317,1.317,0,1,1,1.338-2.262,4.668,4.668,0,0,0,3.226.678,2.4,2.4,0,0,0,2.1-2.09c.134-1.054-.338-1.724-1.5-2.2-1.037-.427-2.076-.854-3.088-1.337a3.753,3.753,0,0,1-2.382-3.886,4.2,4.2,0,0,1,2.793-3.858,4,4,0,0,0,.374-.2c.107-1.45.5-2.017,1.379-2.006.828.011,1.234.569,1.388,1.867.679.34,1.363.619,1.979,1.006a1.326,1.326,0,0,1,.5,1.908,1.307,1.307,0,0,1-1.936.308,3.1,3.1,0,0,0-2.538-.459,1.6,1.6,0,0,0-1.265,1.427,1.278,1.278,0,0,0,.844,1.483c.913.415,1.829.829,2.764,1.191,2.117.82,3.311,2.294,3.368,4.222a5.111,5.111,0,0,1-3.215,4.95.772.772,0,0,0-.576.824c-.009.975-.549,1.564-1.322,1.573s-1.28-.569-1.332-1.551c-.008-.144-.015-.288-.015-.294" transform="translate(-85.967 -16.456)" fill="#040402"/>
    </g>
  </g>
</svg>
