<svg xmlns="http://www.w3.org/2000/svg" width="500.065" height="182.378" viewBox="0 0 500.065 182.378">
  <g id="Grupo_165045" data-name="Grupo 165045" transform="translate(4)">
    <g id="Grupo_165046" data-name="Grupo 165046" transform="translate(389.855 45.858)">
      <path id="Trazado_146566" data-name="Trazado 146566" d="M1031.531,415.42a53.959,53.959,0,0,0,3.367-5.262,50.114,50.114,0,0,0,2.646-5.452l-8.1-6.921,2.085-10.358,10.146-3.259a53,53,0,0,0-1.414-12.2l-10.634-.825-4.415-9.6,6.3-8.615a52.538,52.538,0,0,0-8.054-8.79l-9.126,5.543-9.179-5.246.1-10.68a52.889,52.889,0,0,0-12.039-2.478l-4.119,9.845-10.512,1.165-6.2-8.674a52.78,52.78,0,0,0-11.181,5.073l2.446,10.368-7.8,7.124-10.119-3.366a53.54,53.54,0,0,0-3.484,5.389,57.351,57.351,0,0,0-2.577,5.283l8.092,6.949-2.119,10.351L935.462,384a53.745,53.745,0,0,0,1.387,12.237l10.634.861,4.387,9.615-6.338,8.595a53.3,53.3,0,0,0,8.3,9.063l9.114-5.577,9.2,5.208-.079,10.678a53.456,53.456,0,0,0,12.054,2.433l4.089-9.855,10.506-1.211,6.222,8.656a52.885,52.885,0,0,0,11.176-5.1l-2.5-10.365,7.784-7.169Zm-60.363-2.381a33.674,33.674,0,1,1,46.227-11.446,33.675,33.675,0,0,1-46.227,11.446" transform="translate(-935.462 -331.275)" fill="#b0c0d2"/>
      <path id="Trazado_146567" data-name="Trazado 146567" d="M991.635,420.306a33.389,33.389,0,1,1,33.389,33.389,33.389,33.389,0,0,1-33.389-33.389" transform="translate(-971.919 -367.388)" fill="#fff"/>
      <path id="Trazado_146568" data-name="Trazado 146568" d="M1069.354,430.042h0a48.394,48.394,0,0,0-5.166-2.674,17.081,17.081,0,0,1-4.6-2.683,3.579,3.579,0,0,1-1.056-2.664,3.768,3.768,0,0,1,1.317-2.952,4.856,4.856,0,0,1,3.4-1.2c2.244,0,4.024,1.253,5.442,3.831a.5.5,0,0,0,.676.194l4.982-2.785a.5.5,0,0,0,.191-.674,15.809,15.809,0,0,0-3.78-4.773,10.82,10.82,0,0,0-4.741-2.019V407.05a.5.5,0,0,0-.5-.5h-4.471a.5.5,0,0,0-.5.5v4.628a15.1,15.1,0,0,0-3.457,1.432,11.11,11.11,0,0,0-2.874,2.341,9.9,9.9,0,0,0-1.788,3.025,10.306,10.306,0,0,0-.618,3.6,10.2,10.2,0,0,0,2.593,6.986c1.1,1.314,3.286,2.695,6.689,4.221a39.947,39.947,0,0,1,3.9,2,14.115,14.115,0,0,1,2.246,1.6,4.925,4.925,0,0,1,1.411,3.709,5.6,5.6,0,0,1-1.712,4.267,6,6,0,0,1-4.358,1.676,6.143,6.143,0,0,1-4.274-1.439,12.749,12.749,0,0,1-2.685-5.334.5.5,0,0,0-.577-.345l-5.621,1.175a.5.5,0,0,0-.382.6c.852,3.737,2.2,6.551,4.016,8.364a13.844,13.844,0,0,0,7.494,3.516v4.718a.5.5,0,0,0,.5.5h4.471a.5.5,0,0,0,.5-.5v-4.912a13.072,13.072,0,0,0,6.792-4.515,12.6,12.6,0,0,0,2.712-7.971,11.216,11.216,0,0,0-3.012-7.866,14.187,14.187,0,0,0-3.151-2.482" transform="translate(-1009.169 -380.132)" fill="#b0c0d2"/>
    </g>
    <g id="Grupo_165047" data-name="Grupo 165047" transform="translate(234.786)">
      <path id="Trazado_146569" data-name="Trazado 146569" d="M667.741,8.987l-1.051-7.4Q662.953.831,659.11.428T651.455,0L648.9,7.03a10.8,10.8,0,0,1-18.666,2.994l-4.622-5.909A78.7,78.7,0,0,0,611.647,10.4l1.3,7.374a10.827,10.827,0,0,1-14.679,11.952l-6.927-2.788a79.038,79.038,0,0,0-9.006,12.42l4.814,5.752a10.855,10.855,0,0,1-6.758,17.708L573,63.877q-.752,3.749-1.156,7.6t-.431,7.678l7.007,2.554a10.855,10.855,0,0,1,2.973,18.72l-5.894,4.639a79.053,79.053,0,0,0,6.26,14.007l7.352-1.3a10.827,10.827,0,0,1,11.908,14.715l-2.784,6.95a78.709,78.709,0,0,0,12.378,9.025l5.738-4.832a10.8,10.8,0,0,1,17.652,6.768l1.051,7.4q3.737.752,7.58,1.155t7.655.428l2.551-7.03a10.8,10.8,0,0,1,18.666-2.993l4.622,5.909a78.73,78.73,0,0,0,13.969-6.287l-1.3-7.374a10.827,10.827,0,0,1,14.679-11.952l6.927,2.789a79.07,79.07,0,0,0,9.006-12.42l-4.815-5.752a10.855,10.855,0,0,1,6.759-17.708l7.383-1.059q.752-3.749,1.156-7.6t.432-7.678l-7.007-2.554a10.855,10.855,0,0,1-2.973-18.72l5.895-4.639a79.062,79.062,0,0,0-6.26-14.007l-7.352,1.3A10.827,10.827,0,0,1,700.724,26.9l2.784-6.95a78.72,78.72,0,0,0-12.378-9.025l-5.738,4.832a10.8,10.8,0,0,1-17.652-6.767m39.894,76.6a57.068,57.068,0,1,1-50.846-62.833,57.154,57.154,0,0,1,50.846,62.833" transform="translate(-571.416)" fill="#12263f"/>
      <path id="Trazado_146570" data-name="Trazado 146570" d="M631.893,120.013a57.913,57.913,0,1,1,57.913,57.913,57.913,57.913,0,0,1-57.913-57.913" transform="translate(-610.666 -40.304)" fill="#fff"/>
      <rect id="Rectángulo_35745" data-name="Rectángulo 35745" width="17.439" height="48.561" transform="translate(68.788 59.179)" fill="#12263f"/>
      <rect id="Rectángulo_35746" data-name="Rectángulo 35746" width="17.439" height="31.608" transform="translate(42.87 76.132)" fill="#12263f"/>
      <rect id="Rectángulo_35747" data-name="Rectángulo 35747" width="17.439" height="63.217" transform="translate(94.969 44.523)" fill="#12263f"/>
    </g>
    <path id="Trazado_146571" data-name="Trazado 146571" d="M430.588,411a71.389,71.389,0,0,0,3.015-7.705,66.4,66.4,0,0,0,2.029-7.764l-12.314-6.9.034-13.993,12.338-6.853A70.206,70.206,0,0,0,430.7,352.3l-14.026,1.674-8.214-11.333,5.958-12.817a69.576,69.576,0,0,0-12.731-9.337l-10.423,9.556L377.991,325.6l-2.626-13.9a70,70,0,0,0-16.278-.111l-2.808,13.851-13.353,4.227-10.293-9.665a69.9,69.9,0,0,0-13.214,9.476l5.854,12.836-8.293,11.267-14.013-1.759a71.049,71.049,0,0,0-3.134,7.9,76.046,76.046,0,0,0-1.983,7.528l12.3,6.937-.08,13.992-12.388,6.809a71.2,71.2,0,0,0,4.962,15.537l14.036-1.628,8.181,11.356-6.014,12.8a70.585,70.585,0,0,0,13.12,9.629l10.4-9.6,13.3,4.389,2.654,13.891a70.789,70.789,0,0,0,16.285.048l2.767-13.858,13.334-4.285,10.317,9.637a70.029,70.029,0,0,0,13.2-9.514L408.3,420.58l8.26-11.322Zm-79.023,12.493a44.6,44.6,0,1,1,57.091-26.8,44.6,44.6,0,0,1-57.091,26.8" transform="translate(-193.202 -269.487)" fill="#a3314f"/>
    <path id="Trazado_146572" data-name="Trazado 146572" d="M396.708,471.133a44.6,44.6,0,1,1,57.091-26.8,44.6,44.6,0,0,1-57.091,26.8" transform="translate(-238.345 -317.127)" fill="#fff"/>
    <path id="Trazado_146573" data-name="Trazado 146573" d="M464.81,440.49a31.863,31.863,0,1,0,2.5,12.366,31.655,31.655,0,0,0-2.5-12.366m-10.374,5.286h6.951a27.128,27.128,0,0,1,.334,12.786h-7.368a36.014,36.014,0,0,0,.623-6.656,34.969,34.969,0,0,0-.54-6.13M438.03,458.562V445.776h11.333a29.81,29.81,0,0,1,.632,6.13,31.048,31.048,0,0,1-.725,6.656Zm9.662,5.1a37.337,37.337,0,0,1-5.137,8.867,42.434,42.434,0,0,1-4.525,4.978V463.542h9.71c-.016.04-.032.079-.048.119m-1.264,12a42.393,42.393,0,0,0,5.859-10.077c.268-.663.522-1.347.756-2.041h7.076a26.939,26.939,0,0,1-15.784,14.629q1.091-1.22,2.093-2.51M445.4,427.938a26.8,26.8,0,0,1,9.08,5.977h0a26.777,26.777,0,0,1,4.992,6.881h-6.322c-.269-.788-.564-1.563-.882-2.311a36.624,36.624,0,0,0-5.917-9.475q-.464-.543-.951-1.072m2.436,12.858H438.03V427.819a35.149,35.149,0,0,1,4.538,4.427,31.649,31.649,0,0,1,5.118,8.185q.076.18.152.365m-24.059-.3a31.6,31.6,0,0,1,5.073-8.163,35.288,35.288,0,0,1,4.2-4.167V440.8h-9.4q.062-.153.126-.3m-12.172.3a26.977,26.977,0,0,1,14.707-13.1q-.6.646-1.176,1.315a36.624,36.624,0,0,0-5.917,9.475c-.318.748-.613,1.523-.882,2.311Zm6.841,22.746c.234.694.488,1.378.756,2.041a42.369,42.369,0,0,0,5.859,10.077q1.08,1.391,2.269,2.707a26.936,26.936,0,0,1-16.371-14.825Zm5.3,0h9.3v13.575A42.765,42.765,0,0,1,429,472.606a37.42,37.42,0,0,1-5.176-8.889l-.07-.175m9.3-17.766v12.786H422.222a31.031,31.031,0,0,1-.726-6.656,29.816,29.816,0,0,1,.633-6.13Zm-15.912,12.786H409.36a27.117,27.117,0,0,1,.334-12.786h7.361a34.934,34.934,0,0,0-.54,6.13,36.014,36.014,0,0,0,.623,6.656" transform="translate(-262.054 -340.824)" fill="#a3314f"/>
    <path id="Trazado_146574" data-name="Trazado 146574" d="M69.68,226.8l-.76-5.356q-2.7-.544-5.483-.836T57.9,220.3l-1.845,5.085a7.812,7.812,0,0,1-13.5,2.165l-3.343-4.274A56.939,56.939,0,0,0,29.1,227.828l.938,5.334a7.832,7.832,0,0,1-10.619,8.646L14.41,239.79A57.18,57.18,0,0,0,7.9,248.775l3.483,4.161a7.852,7.852,0,0,1-4.889,12.81l-5.34.766q-.544,2.712-.837,5.5T0,277.565l5.069,1.848a7.852,7.852,0,0,1,2.151,13.541l-4.264,3.356a57.179,57.179,0,0,0,4.528,10.132L12.8,305.5a7.832,7.832,0,0,1,8.614,10.644L19.4,321.171a56.93,56.93,0,0,0,8.954,6.528l4.151-3.5a7.812,7.812,0,0,1,12.769,4.9l.76,5.356q2.7.544,5.483.835t5.538.31l1.845-5.085a7.812,7.812,0,0,1,13.5-2.165l3.344,4.274a56.94,56.94,0,0,0,10.1-4.548l-.937-5.334A7.832,7.832,0,0,1,95.534,314.1l5.011,2.017a57.184,57.184,0,0,0,6.515-8.985l-3.482-4.161a7.852,7.852,0,0,1,4.889-12.81l5.341-.766q.544-2.712.837-5.5t.312-5.554l-5.069-1.847a7.853,7.853,0,0,1-2.15-13.542L112,259.594a57.207,57.207,0,0,0-4.528-10.132l-5.319.943a7.832,7.832,0,0,1-8.614-10.644l2.014-5.027a56.932,56.932,0,0,0-8.954-6.528l-4.151,3.5a7.812,7.812,0,0,1-12.769-4.9m28.859,55.414a41.282,41.282,0,1,1-36.781-45.452,41.345,41.345,0,0,1,36.781,45.452" transform="translate(-4 -208.512)" fill="#ffb500"/>
    <path id="Trazado_146575" data-name="Trazado 146575" d="M43.7,307.071a41.9,41.9,0,1,1,41.9,41.9,41.9,41.9,0,0,1-41.9-41.9" transform="translate(-32.361 -237.63)" fill="#fff"/>
    <path id="Trazado_146576" data-name="Trazado 146576" d="M131.385,369.122l-9.649,7.679-9.649-7.679A18.094,18.094,0,0,0,99.01,386.447v10.9h45.453v-10.9a18.094,18.094,0,0,0-13.078-17.325" transform="translate(-68.259 -305.096)" fill="#ffb500"/>
    <path id="Trazado_146577" data-name="Trazado 146577" d="M129.2,310.675c0-7.26,5.431-13.147,12.13-13.147s12.13,5.886,12.13,13.147-5.431,13.146-12.13,13.146-12.13-5.886-12.13-13.146" transform="translate(-87.853 -258.631)" fill="#ffb500"/>
  </g>
</svg>
