<svg xmlns="http://www.w3.org/2000/svg" xmlns:xlink="http://www.w3.org/1999/xlink" width="118" height="119" viewBox="0 0 118 119">
  <defs>
    <clipPath id="clip-path">
      <rect id="Rectángulo_35759" data-name="Rectángulo 35759" width="88.582" height="79.743" fill="none"/>
    </clipPath>
  </defs>
  <g id="Grupo_166661" data-name="Grupo 166661" transform="translate(-952 -1085)">
    <ellipse id="Elipse_5160" data-name="Elipse 5160" cx="59" cy="59.5" rx="59" ry="59.5" transform="translate(952 1085)" fill="#ffb500" opacity="0.7"/>
    <g id="Grupo_165721" data-name="Grupo 165721" transform="translate(780.209 1202.628)">
      <g id="Grupo_165067" data-name="Grupo 165067" transform="translate(186 -100)" clip-path="url(#clip-path)">
        <path id="Trazado_146653" data-name="Trazado 146653" d="M31.646,160.051c.6.822.611,1.2-.034,2-1.517,1.867-3.053,3.719-4.572,5.566,1.086.479,2.238.939,3.346,1.488a5.683,5.683,0,0,1,2.526,2.34,3.6,3.6,0,0,1-.937,4.491,12.025,12.025,0,0,1-5.62,2.638c-1.328.318-2.7.448-4.051.671-.081.013-.151.1-.226.146H16.792c-.487-.1-.97-.233-1.462-.308a19.324,19.324,0,0,1-6.7-2.063,7.9,7.9,0,0,1-1.553-1.151c-1.953-1.859-1.738-4.446.638-6.074a40.479,40.479,0,0,1,4.346-2.293c-.068-.08-.238-.269-.4-.468-1.993-2.512-4.114-4.936-5.947-7.56a30.749,30.749,0,0,1-5.347-12.6c-.1-.617-.244-1.228-.368-1.841V141.3c.243-1.039.437-2.093.737-3.116,2.1-7.147,6.72-11.88,13.912-13.785a19.345,19.345,0,0,1,23.5,12.965,20.059,20.059,0,0,1-.348,13.183,73.341,73.341,0,0,1-3.041,6.769c-.453.956-.828,1.059-1.891.814a1.472,1.472,0,0,1-.138-1.966,30.1,30.1,0,0,0,3.259-7.6c1.363-5.176.918-10.119-2.06-14.666a16.471,16.471,0,0,0-10.462-7.331l-.37-.075-.246-.079a14.973,14.973,0,0,0-5.556-.182A16.816,16.816,0,0,0,3.561,137.064c-1.855,4.548-1.388,9.119.226,13.634a40.266,40.266,0,0,0,6.846,11.557,59.559,59.559,0,0,0,7.686,7.975l1.216,1.114c.234-.194.434-.352.626-.519a66.484,66.484,0,0,0,9.56-10.146,1.434,1.434,0,0,1,1.925-.628M30.01,171.646a10.666,10.666,0,0,0-4.516-1.881,1.227,1.227,0,0,0-.923.244c-1.473,1.252-2.909,2.546-4.358,3.827l-1.195.1c-1.488-1.313-2.972-2.631-4.47-3.933-.176-.153-.455-.354-.635-.312A10.841,10.841,0,0,0,8.99,171.75c-1.2.986-1.251,1.894.083,2.7a16.277,16.277,0,0,0,4,1.785A25.615,25.615,0,0,0,24,176.7a13.226,13.226,0,0,0,5.99-2.16c1.332-.984,1.333-1.854.023-2.892" transform="translate(0 -99.643)" fill="#040302"/>
        <path id="Trazado_146655" data-name="Trazado 146655" d="M0,221.153v0Z" transform="translate(0 -178.098)" fill="#555"/>
        <path id="Trazado_146656" data-name="Trazado 146656" d="M258.034,24.6l.634-3.209a1.436,1.436,0,0,0,1.693-1,12.191,12.191,0,0,1,4.232-5.129,12.368,12.368,0,0,1,9.748-2.166,1.122,1.122,0,0,0,.209.215,15.211,15.211,0,0,1,4.4,3.719,13.735,13.735,0,0,1,2.993,7.491A18.21,18.21,0,0,1,280.03,33.8a40.607,40.607,0,0,1-8.7,11.649,2.863,2.863,0,0,1-.579.348c-1.684-1.751-3.487-3.4-5.027-5.272-3.535-4.291-6.375-8.94-6.584-14.74a1.168,1.168,0,0,0-1.107-1.186M272.075,19a6.782,6.782,0,1,0,6.792,6.73A6.795,6.795,0,0,0,272.075,19" transform="translate(-207.799 -10.351)" fill="#a3314f" opacity="0.8"/>
        <path id="Trazado_146657" data-name="Trazado 146657" d="M253.044,14.883a1.168,1.168,0,0,1,1.107,1.186c.208,5.8,3.048,10.448,6.584,14.74,1.54,1.869,3.343,3.521,5.027,5.272l1.332,1.231a50.791,50.791,0,0,0,8.058-8.641,25.515,25.515,0,0,0,4.337-8.687c1.233-4.825.4-9.186-3.079-12.873a11.755,11.755,0,0,0-7.056-3.729A12.367,12.367,0,0,0,259.6,5.548a12.192,12.192,0,0,0-4.233,5.129,1.436,1.436,0,0,1-1.693,1,1.312,1.312,0,0,1-.477-1.933,15.26,15.26,0,0,1,28.162.887A16.619,16.619,0,0,1,281.2,22.38a34.9,34.9,0,0,1-7.121,11.358l-.814.922a13.249,13.249,0,0,1,1.544.643,10.757,10.757,0,0,1,2.055,1.356,3.033,3.033,0,0,1-.071,4.75,8.619,8.619,0,0,1-3.913,1.953,21.96,21.96,0,0,1-12.908-.45,6.45,6.45,0,0,1-3-1.985,2.829,2.829,0,0,1,.14-4,18.824,18.824,0,0,1,3.028-1.946,4.646,4.646,0,0,1,.768-.292c-1.015-1.231-2.024-2.394-2.966-3.608A28.169,28.169,0,0,1,252.4,20.277a30.459,30.459,0,0,1-.551-4.062c-.073-.774.323-1.143,1.2-1.332M269.3,38.546c-.46.372-.916.75-1.381,1.116a1.2,1.2,0,0,1-1.627,0c-.465-.367-.921-.744-1.382-1.116-.576-.545-1.141-1.1-1.737-1.625a.769.769,0,0,0-.6-.2c-.819.263-1.62.585-2.427.887a6.629,6.629,0,0,0-.944.5c-.8.6-.834,1.149-.02,1.722a8.127,8.127,0,0,0,1.979,1.027,17.959,17.959,0,0,0,8.64.706,25.367,25.367,0,0,0,4.508-1.277c.6-.207,1.439-.655,1.217-1.377-.164-.535-.957-.878-1.47-1.307-2.03-1.2-2.561-1.147-4.224.4-.186.173-.357.363-.535.545" transform="translate(-202.809 -0.633)" fill="#040303"/>
        <path id="Trazado_146658" data-name="Trazado 146658" d="M107.423,171.759a1.434,1.434,0,0,0-1.925.628,66.5,66.5,0,0,1-9.56,10.146c-.192.167-.391.325-.626.519L94.1,181.938c1.583-1.593,3.238-3.121,4.729-4.8a70.407,70.407,0,0,0,4.5-5.588,35.318,35.318,0,0,0,4.853-9.3,23.187,23.187,0,0,0,1.3-7.718,18.305,18.305,0,0,0-5.7-12.875,40.419,40.419,0,0,0-4.118-2.987,3.815,3.815,0,0,1-.419-.408A16.47,16.47,0,0,1,109.71,145.6c2.978,4.548,3.423,9.491,2.06,14.666a30.111,30.111,0,0,1-3.259,7.6,1.471,1.471,0,0,0,.138,1.966l-1.227,1.922" transform="translate(-75.777 -111.351)" fill="#a3314f"/>
        <path id="Trazado_146659" data-name="Trazado 146659" d="M311.142,268.531a7.933,7.933,0,0,1,.975.095,1.038,1.038,0,0,1,.873,1.111,1.006,1.006,0,0,1-.9,1.082,10.721,10.721,0,0,1-1.918.025,1.036,1.036,0,0,1-1.02-1.135,1.073,1.073,0,0,1,1.047-1.121c.28-.035.563-.035.945-.057" transform="translate(-248.963 -216.252)" fill="#0b0b0b"/>
        <path id="Trazado_146660" data-name="Trazado 146660" d="M342.741,271.141a8.64,8.64,0,0,1-1-.1,1.032,1.032,0,0,1-.871-1.114.961.961,0,0,1,.825-1.062,9.326,9.326,0,0,1,2.159,0,.993.993,0,0,1,.838,1.138,1.013,1.013,0,0,1-.868,1.043,10.54,10.54,0,0,1-1.08.091" transform="translate(-274.505 -216.472)" fill="#090909"/>
        <path id="Trazado_146661" data-name="Trazado 146661" d="M247.8,271.071c-.31-.018-.623-.017-.929-.059a1.052,1.052,0,0,1-1.013-1.15,1,1,0,0,1,.978-1.094,11.427,11.427,0,0,1,1.856,0,1.008,1.008,0,0,1,.979,1.1,1.055,1.055,0,0,1-1.019,1.151c-.282.034-.567.038-.852.056" transform="translate(-197.989 -216.412)" fill="#0b0b0b"/>
        <path id="Trazado_146662" data-name="Trazado 146662" d="M279.438,268.551c.284.018.57.02.851.059a1.056,1.056,0,0,1,1.018,1.149,1.013,1.013,0,0,1-.981,1.095,11.908,11.908,0,0,1-1.856,0,1.021,1.021,0,0,1-.988-1.1,1.062,1.062,0,0,1,1.026-1.15c.308-.036.619-.039.93-.057" transform="translate(-223.461 -216.268)" fill="#0b0b0b"/>
        <path id="Trazado_146663" data-name="Trazado 146663" d="M220.857,370.787c.271.02.583.023.889.068a1.053,1.053,0,0,1,.961,1.128,1,1,0,0,1-.911,1.084,10.74,10.74,0,0,1-1.93.027,1.018,1.018,0,0,1-.993-1.089,1.066,1.066,0,0,1,1.017-1.156c.306-.042.619-.041.968-.062" transform="translate(-176.261 -298.6)" fill="#080808"/>
        <path id="Trazado_146664" data-name="Trazado 146664" d="M252.5,373.126c-.31-.014-.623-.005-.929-.046a1.029,1.029,0,0,1-.966-1.032.992.992,0,0,1,.87-1.179,8.611,8.611,0,0,1,2-.025,1.012,1.012,0,0,1,.93,1.208,1.049,1.049,0,0,1-1.05,1.036c-.282.027-.568,0-.853,0v.032" transform="translate(-201.81 -298.61)" fill="#060606"/>
        <path id="Trazado_146665" data-name="Trazado 146665" d="M240.957,190.851a6.348,6.348,0,0,1,.727.1,1.04,1.04,0,0,1,.853,1.135,1.054,1.054,0,0,1-1,1.092c-.514.056-1.032.1-1.549.1a1.161,1.161,0,0,1-1.269-1.089,1.142,1.142,0,0,1,1.117-1.232c.333-.045.67-.066,1.123-.109" transform="translate(-192.24 -153.695)" fill="#070707"/>
        <path id="Trazado_146667" data-name="Trazado 146667" d="M207.618,231.714c0,.28.014.488,0,.693a1.052,1.052,0,0,1-.971,1.037.992.992,0,0,1-1.212-.726,8.838,8.838,0,0,1-.187-2.144.907.907,0,0,1,1.047-.907,1.763,1.763,0,0,1,1.1.759,3.415,3.415,0,0,1,.223,1.288" transform="translate(-165.285 -184.946)" fill="#060606"/>
        <path id="Trazado_146668" data-name="Trazado 146668" d="M378.872,357.8a3.931,3.931,0,0,1-.5.9,9.4,9.4,0,0,1-1.32,1.075,1.074,1.074,0,0,1-1.526-.223,1.027,1.027,0,0,1,.082-1.526A6.388,6.388,0,0,1,377,356.919a1.446,1.446,0,0,1,1.143-.029c.313.15.488.589.73.911" transform="translate(-302.176 -287.325)" fill="#050505"/>
        <path id="Trazado_146669" data-name="Trazado 146669" d="M347.016,372.331c-.874.013-1.438-.438-1.447-1.159-.009-.706.46-1.118,1.336-1.178.438-.03.877-.1,1.315-.088a1.153,1.153,0,0,1,.11,2.3c-.307.045-.617.065-.926.094-.129.012-.258.019-.387.028" transform="translate(-278.291 -297.889)" fill="#070707"/>
        <path id="Trazado_146670" data-name="Trazado 146670" d="M284.1,372.833c-.259,0-.519.013-.777,0a1.087,1.087,0,0,1-1.11-1.08,1.055,1.055,0,0,1,.976-1.192,8.412,8.412,0,0,1,1.78-.031,1.124,1.124,0,0,1,1.077,1.2,1.15,1.15,0,0,1-1.171,1.106c-.258.018-.518,0-.777,0" transform="translate(-227.266 -298.365)" fill="#070707"/>
        <path id="Trazado_146671" data-name="Trazado 146671" d="M315.783,372.741c-.259,0-.519.018-.777,0a1.16,1.16,0,1,1,.02-2.319,12.46,12.46,0,0,1,1.554,0,1.152,1.152,0,0,1,.057,2.3,6.423,6.423,0,0,1-.854.006v.012" transform="translate(-252.746 -298.285)" fill="#050505"/>
        <path id="Trazado_146672" data-name="Trazado 146672" d="M215.86,202.558c-.013.927-1.355,2.493-2.026,2.491a1.43,1.43,0,0,1-1.042-.456,1.256,1.256,0,0,1-.091-1.13,6.223,6.223,0,0,1,1.419-1.6,1.307,1.307,0,0,1,1.136-.033c.313.146.49.582.6.73" transform="translate(-171.214 -162.445)" fill="#060606"/>
        <path id="Trazado_146673" data-name="Trazado 146673" d="M394.43,331.324a15.079,15.079,0,0,1,.52-1.708,1.019,1.019,0,0,1,1.277-.6,1,1,0,0,1,.856,1.116,8.8,8.8,0,0,1-.547,2.068,1,1,0,0,1-1.314.508c-.562-.172-.817-.584-.793-1.383" transform="translate(-317.639 -264.924)" fill="#060606"/>
        <path id="Trazado_146674" data-name="Trazado 146674" d="M218.246,257.849c.788.023,2.446,1.22,2.5,1.753a1.575,1.575,0,0,1-.328,1.173,1.293,1.293,0,0,1-1.176.205,5.6,5.6,0,0,1-1.678-1.329,1.386,1.386,0,0,1-.05-1.2c.132-.312.581-.489.735-.607" transform="translate(-175.077 -207.65)" fill="#050505"/>
        <path id="Trazado_146676" data-name="Trazado 146676" d="M188.913,373.452a5.938,5.938,0,0,1-.937-.125,1.13,1.13,0,0,1,.182-2.2,15.509,15.509,0,0,1,1.708-.023A1.08,1.08,0,0,1,191,372.146a1.111,1.111,0,0,1-1.022,1.235,10.42,10.42,0,0,1-1.065.07" transform="translate(-150.731 -298.843)" fill="#070707"/>
        <path id="Trazado_146677" data-name="Trazado 146677" d="M33.234,136.14a3.815,3.815,0,0,0,.419.408,40.422,40.422,0,0,1,4.118,2.987,18.305,18.305,0,0,1,5.7,12.875,23.183,23.183,0,0,1-1.3,7.718,35.306,35.306,0,0,1-4.853,9.3,70.356,70.356,0,0,1-4.5,5.588c-1.491,1.675-3.146,3.2-4.729,4.8a59.571,59.571,0,0,1-7.686-7.975,40.266,40.266,0,0,1-6.846-11.557c-1.615-4.515-2.081-9.086-.226-13.634A16.816,16.816,0,0,1,27.062,135.8a14.968,14.968,0,0,1,5.556.182l.245.079.37.075m-9.187,11.607-1.341,1.926c-.963-.063-1.373.188-1.587.972a8.493,8.493,0,1,0,3.525-4.9c-.935.6-1.048.982-.6,2" transform="translate(-9.763 -109.221)" fill="#a3314f" opacity="0.8"/>
        <path id="Trazado_146678" data-name="Trazado 146678" d="M52.447,372.129l1.195-.1a2.68,2.68,0,0,0,.744.1c2.048-.3,4.113-.543,6.13-.993a15.619,15.619,0,0,0,2.923-1.3c1.31,1.038,1.309,1.908-.023,2.892a13.227,13.227,0,0,1-5.99,2.16,25.618,25.618,0,0,1-10.925-.463,16.273,16.273,0,0,1-4-1.785c-1.335-.807-1.284-1.714-.083-2.7.389.193.767.41,1.168.575a21.394,21.394,0,0,0,8.86,1.608" transform="translate(-33.429 -297.839)" fill="#fcb924"/>
        <path id="Trazado_146679" data-name="Trazado 146679" d="M56.208,364.006a21.393,21.393,0,0,1-8.86-1.608c-.4-.164-.779-.382-1.168-.574A10.844,10.844,0,0,1,51.1,359.76c.18-.041.459.159.635.312,1.5,1.3,2.982,2.62,4.47,3.933" transform="translate(-37.189 -289.716)" fill="#fbd754"/>
        <path id="Trazado_146680" data-name="Trazado 146680" d="M113.623,361.991a15.637,15.637,0,0,1-2.923,1.3c-2.017.451-4.082.689-6.13.993a2.675,2.675,0,0,1-.744-.1c1.448-1.28,2.885-2.575,4.358-3.827a1.227,1.227,0,0,1,.923-.244,10.666,10.666,0,0,1,4.516,1.881" transform="translate(-83.613 -289.988)" fill="#fcd855"/>
        <path id="Trazado_146681" data-name="Trazado 146681" d="M117.646,137.557l-.245-.079.245.079" transform="translate(-94.544 -110.713)" fill="#e4343e"/>
        <path id="Trazado_146682" data-name="Trazado 146682" d="M326.947,14.118A11.757,11.757,0,0,1,334,17.847c3.48,3.687,4.312,8.048,3.079,12.873a25.51,25.51,0,0,1-4.336,8.687,50.8,50.8,0,0,1-8.058,8.641l-1.332-1.232a2.874,2.874,0,0,0,.579-.347,40.607,40.607,0,0,0,8.7-11.649,18.209,18.209,0,0,0,1.915-9.277,13.735,13.735,0,0,0-2.993-7.491,15.213,15.213,0,0,0-4.4-3.719,1.112,1.112,0,0,1-.209-.215" transform="translate(-260.404 -11.369)" fill="#a3314f"/>
        <path id="Trazado_146683" data-name="Trazado 146683" d="M302.2,44.425a6.782,6.782,0,1,1,0,13.563,6.782,6.782,0,0,1,0-13.563m.035,2.333a4.441,4.441,0,0,0-4.458,4.425,4.442,4.442,0,1,0,8.884.026,4.43,4.43,0,0,0-4.426-4.451" transform="translate(-237.925 -35.776)" fill="#040202"/>
        <path id="Trazado_146684" data-name="Trazado 146684" d="M301.992,189.894c.513.428,1.306.771,1.47,1.307.222.722-.62,1.169-1.217,1.377a25.356,25.356,0,0,1-4.508,1.277,17.962,17.962,0,0,1-8.64-.706,8.131,8.131,0,0,1-1.979-1.028c-.814-.574-.782-1.12.02-1.722a6.616,6.616,0,0,1,.944-.5c.319.084.634.187.958.248,1.266.237,2.535.461,3.8.69.46.372.917.749,1.382,1.116a1.2,1.2,0,0,0,1.627,0c.466-.366.921-.743,1.382-1.116l4.759-.943" transform="translate(-230.74 -152.924)" fill="#fbb824"/>
        <path id="Trazado_146685" data-name="Trazado 146685" d="M346.3,186.439l-4.759.943c.178-.182.349-.372.535-.545,1.663-1.545,2.194-1.594,4.224-.4" transform="translate(-275.047 -149.469)" fill="#f9d553"/>
        <path id="Trazado_146686" data-name="Trazado 146686" d="M299.3,187.129c-1.268-.229-2.537-.453-3.8-.69-.324-.061-.639-.164-.958-.248.807-.3,1.608-.624,2.427-.887a.77.77,0,0,1,.6.2c.6.523,1.161,1.08,1.737,1.625" transform="translate(-237.193 -149.218)" fill="#f9d553"/>
        <path id="Trazado_146687" data-name="Trazado 146687" d="M66.488,195.372l1.34-1.927c.763.627,1.42.244,2.111-.181a6.115,6.115,0,1,1-2.811,3.829,1.421,1.421,0,0,0-.641-1.722" transform="translate(-53.544 -154.92)" fill="#ced371"/>
        <path id="Trazado_146688" data-name="Trazado 146688" d="M58.711,185.7a1.421,1.421,0,0,1,.641,1.722,6.144,6.144,0,0,0,2.754,6.634,6.076,6.076,0,0,0,7.215-.588,6.119,6.119,0,0,0-7.158-9.876c-.691.425-1.348.808-2.111.181-.451-1.014-.338-1.395.6-2a8.479,8.479,0,0,1,12.893,9.177,8.484,8.484,0,1,1-16.418-4.282c.214-.784.624-1.035,1.587-.972" transform="translate(-45.767 -145.25)" fill="#040202"/>
        <path id="Trazado_146689" data-name="Trazado 146689" d="M311.9,56.407a4.43,4.43,0,0,1,4.426,4.451,4.442,4.442,0,1,1-4.426-4.451" transform="translate(-247.585 -45.425)" fill="#ced371"/>
        <path id="Trazado_146690" data-name="Trazado 146690" d="M258.034,19.966l.39-1.943a.884.884,0,0,0,1.041-.6,7.409,7.409,0,0,1,2.6-3.105A7.7,7.7,0,0,1,268.063,13a.682.682,0,0,0,.128.13,9.319,9.319,0,0,1,2.707,2.252,8.246,8.246,0,0,1,1.84,4.536,10.882,10.882,0,0,1-1.178,5.617,24.622,24.622,0,0,1-5.35,7.053,1.766,1.766,0,0,1-.356.21c-1.035-1.06-2.144-2.06-3.092-3.192-2.174-2.6-3.921-5.413-4.049-8.925a.712.712,0,0,0-.681-.718m8.635-3.392a4.107,4.107,0,1,0,4.177,4.075,4.146,4.146,0,0,0-4.177-4.075" transform="translate(-186.812 32.099)" fill="#a3314f" opacity="0.8"/>
        <path id="Trazado_146691" data-name="Trazado 146691" d="M252.549,9.1a.689.689,0,0,1,.653.7c.123,3.421,1.8,6.163,3.883,8.694.908,1.1,1.972,2.077,2.965,3.109l.785.726a29.961,29.961,0,0,0,4.753-5.1,15.05,15.05,0,0,0,2.558-5.124,7.64,7.64,0,0,0-1.816-7.593,6.934,6.934,0,0,0-4.162-2.2,7.3,7.3,0,0,0-5.749,1.278,7.192,7.192,0,0,0-2.5,3.025.847.847,0,0,1-1,.588.774.774,0,0,1-.281-1.14,9,9,0,0,1,16.611.523,9.8,9.8,0,0,1-.095,6.932,20.581,20.581,0,0,1-4.2,6.7l-.48.544a7.816,7.816,0,0,1,.911.379,6.346,6.346,0,0,1,1.212.8,1.789,1.789,0,0,1-.042,2.8,5.084,5.084,0,0,1-2.308,1.152,12.953,12.953,0,0,1-7.614-.265,3.8,3.8,0,0,1-1.77-1.171,1.669,1.669,0,0,1,.083-2.358,11.1,11.1,0,0,1,1.786-1.148,2.739,2.739,0,0,1,.453-.172c-.6-.726-1.194-1.412-1.75-2.128a16.614,16.614,0,0,1-3.271-6.374,17.96,17.96,0,0,1-.325-2.4c-.043-.457.191-.674.706-.786m9.589,13.957c-.271.22-.54.442-.815.658a.707.707,0,0,1-.96,0c-.274-.216-.544-.439-.815-.658-.34-.321-.673-.65-1.025-.959a.454.454,0,0,0-.352-.118c-.483.155-.955.345-1.432.523a3.911,3.911,0,0,0-.557.3c-.473.355-.492.678-.012,1.016a4.794,4.794,0,0,0,1.167.606,10.593,10.593,0,0,0,5.1.416,14.962,14.962,0,0,0,2.659-.753c.352-.122.849-.386.718-.812-.1-.316-.565-.518-.867-.771-1.2-.705-1.51-.676-2.491.235-.11.1-.211.214-.316.321" transform="translate(-181.261 42.891)" fill="#040303"/>
        <path id="Trazado_146692" data-name="Trazado 146692" d="M325.475,14.118a6.934,6.934,0,0,1,4.162,2.2,7.64,7.64,0,0,1,1.816,7.593,15.047,15.047,0,0,1-2.558,5.124,29.964,29.964,0,0,1-4.753,5.1l-.785-.726a1.692,1.692,0,0,0,.341-.2,23.952,23.952,0,0,0,5.132-6.871,10.742,10.742,0,0,0,1.13-5.472,8.1,8.1,0,0,0-1.765-4.418,8.974,8.974,0,0,0-2.6-2.194.657.657,0,0,1-.123-.127" transform="translate(-244.567 31.09)" fill="#a3314f"/>
        <path id="Trazado_146693" data-name="Trazado 146693" d="M299.715,44.425a4.286,4.286,0,1,1,0,8.572,4.286,4.286,0,0,1,0-8.572m.022,1.474a2.807,2.807,0,0,0-2.817,2.8,2.807,2.807,0,1,0,5.615.017,2.8,2.8,0,0,0-2.8-2.813" transform="translate(-219.859 4.264)" fill="#040202"/>
        <path id="Trazado_146694" data-name="Trazado 146694" d="M295.647,189.894c.3.253.77.455.867.771.131.426-.366.69-.718.812a14.956,14.956,0,0,1-2.659.753,10.6,10.6,0,0,1-5.1-.416,4.794,4.794,0,0,1-1.167-.606c-.48-.338-.461-.661.012-1.016a3.9,3.9,0,0,1,.557-.3c.188.049.374.111.565.146.747.14,1.5.272,2.243.407.271.22.541.442.815.658a.707.707,0,0,0,.96,0c.275-.216.543-.439.815-.658l2.807-.556" transform="translate(-211.961 -124.501)" fill="#fbb824"/>
        <path id="Trazado_146695" data-name="Trazado 146695" d="M344.347,186.1l-2.807.556c.1-.107.206-.219.316-.321.981-.911,1.294-.94,2.491-.235" transform="translate(-260.662 -120.703)" fill="#f9d553"/>
        <path id="Trazado_146696" data-name="Trazado 146696" d="M297.342,186.375c-.748-.135-1.5-.267-2.243-.407-.191-.036-.377-.1-.565-.146.476-.178.948-.368,1.432-.523a.454.454,0,0,1,.352.118c.352.308.685.637,1.025.959" transform="translate(-219.054 -120.427)" fill="#f9d553"/>
        <path id="Trazado_146697" data-name="Trazado 146697" d="M310.256,56.407a2.8,2.8,0,0,1,2.8,2.813,2.807,2.807,0,1,1-2.8-2.813" transform="translate(-230.378 -6.244)" fill="#ced371"/>
      </g>
    </g>
  </g>
</svg>
