<svg xmlns="http://www.w3.org/2000/svg" width="118" height="119" viewBox="0 0 118 119">
  <g id="Grupo_166663" data-name="Grupo 166663" transform="translate(4368 11231)">
    <ellipse id="Elipse_5162" data-name="Elipse 5162" cx="59" cy="59.5" rx="59" ry="59.5" transform="translate(-4368 -11231)" fill="#ffb500" opacity="0.7"/>
    <g id="Grupo_165751" data-name="Grupo 165751" transform="translate(-4356.489 -11217.822)">
      <g id="Grupo_165077" data-name="Grupo 165077" transform="translate(11.986 11.879)">
        <path id="Trazado_146719" data-name="Trazado 146719" d="M131.993,123.679q0,1.062-.008,2.125a17.985,17.985,0,0,0-16.691.018,1.959,1.959,0,0,1-.838.15q-4,.016-8,.005a4.528,4.528,0,0,0-3.017,1.065,4.722,4.722,0,0,0-1.59,4.774l-4.511-2.071a6.7,6.7,0,0,1,.839-.879c2.046-1.435,2.573-3.366,2.448-5.82-.2-4-.068-8.024-.045-12.038a14.1,14.1,0,0,1,.231-2.665,14.919,14.919,0,0,1,10.535-11.913c1.2-.406,1.443-1.028.788-2.139-.7-1.187-1.4-2.371-2.1-3.558-.126-.215-.231-.442-.36-.691h12.083L119.3,94.237c-.7,1.2-.481,1.8.826,2.222a15.119,15.119,0,0,1,10.7,14.632q.006,5.875,0,11.751v.839Zm-15.134-3.463c2.748-.335,4.512-2.021,4.649-4.364a4.606,4.606,0,0,0-.9-3.064,4.838,4.838,0,0,0-3.7-1.942v-4.608a2.473,2.473,0,0,1,2.334,2.293h2.2a3.946,3.946,0,0,0-.754-2.6,4.916,4.916,0,0,0-3.867-2.065v-2.228h-2.307v2.24c-2.721.325-4.493,2.02-4.627,4.36a4.607,4.607,0,0,0,.941,3.122,4.856,4.856,0,0,0,3.654,1.884v4.622a2.482,2.482,0,0,1-2.326-2.306H109.9a4.257,4.257,0,0,0,.807,2.593,4.9,4.9,0,0,0,3.864,2.068v2.229h2.285ZM106.2,102.33A12.9,12.9,0,0,0,102.928,112h2.323a10.777,10.777,0,0,1,2.674-8.12L106.2,102.33m3.883-2.97-2.079,1.294,1.4,1.855,1.709-1.067c-.275-.574-.523-1.092-.773-1.609-.062-.128-.134-.25-.253-.473" transform="translate(-80.798 -74.892)" fill="#ced371" opacity="0.9"/>
        <path id="Trazado_146720" data-name="Trazado 146720" d="M77.735,113.774H76.566v-.839q0-5.875,0-11.751a15.119,15.119,0,0,0-10.7-14.632c-1.306-.421-1.53-1.023-.826-2.222L67.5,80.138H55.419c.129.249.234.476.36.691.7,1.188,1.4,2.372,2.1,3.558.655,1.111.415,1.733-.788,2.139A14.919,14.919,0,0,0,46.558,98.44a14.116,14.116,0,0,0-.23,2.665c-.024,4.014-.159,8.035.045,12.038.125,2.454-.4,4.385-2.448,5.82a6.72,6.72,0,0,0-.839.879l4.51,2.071a4.722,4.722,0,0,1,1.59-4.775,4.529,4.529,0,0,1,3.017-1.065q4,.007,8-.005a1.961,1.961,0,0,0,.838-.15,17.985,17.985,0,0,1,16.691-.018c.369.058.737.14,1.108.169s.762.007,1.24.007v1.15c-.018.377-.035.753-.054,1.14l-1.075.07v13.855H90.536v-9.267h2.319v1.912q0,4.135,0,8.271c0,1.009-.41,1.442-1.383,1.443q-9.634.007-19.267,0c-.07,0-.14-.015-.263-.028q-.026-.565-.052-1.128c.018-.377.035-.753.055-1.19h4.622c0-4.7.007-9.344-.022-13.983a.94.94,0,0,0-.515-.632,15.542,15.542,0,0,0-13.862.259,4.188,4.188,0,0,1-1.713.431c-2.665.045-5.331.018-8,.021a2.339,2.339,0,1,0-.031,4.642q4.689,0,9.378,0h.755v2.323c-4.019,0-7.991.021-11.962-.02a5.2,5.2,0,0,1-2.01-.442c-4.08-1.823-8.129-3.717-12.212-5.533a3.767,3.767,0,0,0-1.949-.29,2.463,2.463,0,0,0-2.054,2.239,2.892,2.892,0,0,0,1.617,2.983c4.343,2.17,8.7,4.321,13.032,6.5a13.954,13.954,0,0,0,6.427,1.531c5.113-.019,10.226-.006,15.339-.006h.824v2.323h-.749c-5.156,0-10.311-.009-15.467,0a15.969,15.969,0,0,1-7.33-1.735c-4.223-2.125-8.395-4.369-12.711-6.288a5.266,5.266,0,0,1-.792-9.372,5.559,5.559,0,0,1,5.262.174c1.017.53,2.085.962,3.121,1.434l.9-1.2c.641-.622,1.3-1.224,1.909-1.878a1.236,1.236,0,0,0,.224-.779c.013-4.3.046-8.609,0-12.914-.086-8.3,3.744-14.043,11.312-17.512-.69-1.165-1.409-2.38-2.128-3.6-.27-.457-.552-.908-.8-1.375a1.16,1.16,0,0,1,1.065-1.851c1.211-.021,2.423-.005,3.635-.005q6.035,0,12.069,0c.578,0,1.124.026,1.456.595s.066,1.055-.229,1.549c-.94,1.573-1.864,3.155-2.8,4.747a17.507,17.507,0,0,1,9.806,9.238,16.7,16.7,0,0,1,1.526,6.95c.014,4.277,0,8.555,0,12.937Z" transform="translate(-26.54 -64.987)" fill="#020201"/>
        <path id="Trazado_146721" data-name="Trazado 146721" d="M79.218,293.306v-1.165h-.824c-5.113,0-10.226-.013-15.339.006a13.954,13.954,0,0,1-6.427-1.531c-4.337-2.182-8.69-4.333-13.032-6.5a2.892,2.892,0,0,1-1.617-2.983,2.463,2.463,0,0,1,2.054-2.239,3.767,3.767,0,0,1,1.949.289c4.083,1.816,8.132,3.709,12.212,5.533a5.2,5.2,0,0,0,2.01.442c3.971.041,7.943.02,11.962.02v-2.322h-.755q-4.689,0-9.378,0a2.339,2.339,0,1,1,.031-4.642c2.665,0,5.331.025,8-.02a4.188,4.188,0,0,0,1.713-.431,15.543,15.543,0,0,1,13.862-.258.94.94,0,0,1,.515.632c.03,4.64.022,9.279.022,13.983H81.553c-.02.437-.038.813-.055,1.19H79.218" transform="translate(-36.148 -224.801)" fill="#fbc7a1"/>
        <path id="Trazado_146722" data-name="Trazado 146722" d="M127.553,64.13q.047-3.37.093-6.741c0-.242-.009-.485.017-.725a1.131,1.131,0,0,1,1.765-.88c.39.238.742.538,1.241.907.373-1.092.778-2.109,1.068-3.158a25.283,25.283,0,0,0-19.3-31.583,24.755,24.755,0,0,0-19.205,3.757c-1.318.867-1.714.8-2.556-.523Q89,22.558,87.327,19.93c-.585-.923-.474-1.446.444-2.058a34.922,34.922,0,0,1,53.615,21.235c.117.513.215,1.03.327,1.573l-1.11.248-1.122.141c-2.406-11.208-8.573-19.485-19.108-24.085S99.589,13.47,89.7,19.318l2.657,4.165a27.455,27.455,0,0,1,18.048-4.2,26.587,26.587,0,0,1,16.575,8.03,27.046,27.046,0,0,1,7.7,23.565,25.858,25.858,0,0,1-2.463,7.917c-.432.882-1.023,1.044-1.9.553a2.976,2.976,0,0,0-.353-.135V66.8l7.373-2.109c-.214-.178-.355-.3-.5-.417-1.275-.978-1.318-1.165-.589-2.58a32.812,32.812,0,0,0,3.648-16.433c-.009-.254,0-.508,0-.785l1.078-.114h1.2a35.233,35.233,0,0,1-3.739,18.2,23.185,23.185,0,0,1,2.06,1.594,1.166,1.166,0,0,1-.4,2.137,23.859,23.859,0,0,1-2.489.759c-2.72.774-5.438,1.555-8.16,2.319-1.247.35-1.858-.119-1.865-1.4s-.01-2.562-.015-3.843" transform="translate(-72.432 -11.879)" fill="#030302"/>
        <path id="Trazado_146723" data-name="Trazado 146723" d="M152.322,53.727l-1.078.114c0,.278-.008.532,0,.785A32.811,32.811,0,0,1,147.6,71.059c-.729,1.415-.686,1.6.589,2.58.149.114.29.239.5.417l-7.373,2.109V68.578a2.939,2.939,0,0,1,.353.135c.873.491,1.464.329,1.9-.553a25.862,25.862,0,0,0,2.463-7.917,27.046,27.046,0,0,0-7.7-23.565,26.587,26.587,0,0,0-16.575-8.03,27.455,27.455,0,0,0-18.048,4.2l-2.657-4.165c9.893-5.848,20.149-6.931,30.677-2.333s16.7,12.877,19.108,24.085l1.122-.141q.182,1.719.364,3.437" transform="translate(-83.786 -21.24)" fill="#ced371"/>
        <path id="Trazado_146724" data-name="Trazado 146724" d="M36.947,125.919l-.9,1.2c-1.037-.472-2.1-.9-3.121-1.434a5.559,5.559,0,0,0-5.262-.175l-1.243-2.324.976-.567a32.544,32.544,0,0,1-2.331-22.989l-1.1-.377.883-2.766,1.041.31c.709-1.49,1.4-2.92,2.071-4.364a1.139,1.139,0,0,0-.365-1.486c-.336-.264-.678-.522-1.117-.858l7.355-2.1v7.589c-1.264-.688-1.744-.536-2.32.721a27.351,27.351,0,0,0-.792,21.685,24.938,24.938,0,0,0,3.089,5.811l1.021-.627,2.117,2.754" transform="translate(-21.639 -73.235)" fill="#ced371"/>
        <path id="Trazado_146725" data-name="Trazado 146725" d="M29.744,111.894l-1.021.627a24.931,24.931,0,0,1-3.089-5.811,27.35,27.35,0,0,1,.792-21.684c.576-1.257,1.056-1.409,2.32-.721V76.716l-7.355,2.1c.439.336.781.594,1.117.858a1.139,1.139,0,0,1,.365,1.486c-.666,1.443-1.361,2.874-2.071,4.364l-1.041-.31-1.1-.455,1.652-3.825c-.664-.5-1.347-1.031-2.046-1.541-.453-.33-.777-.784-.542-1.291a1.813,1.813,0,0,1,.985-.9c3.56-1.068,7.138-2.08,10.713-3.1,1.116-.318,1.734.147,1.731,1.321-.009,3.722-.015,7.444-.081,11.165a1.821,1.821,0,0,1-.641,1.172c-.411.349-.914.131-1.326-.188-.286-.222-.58-.433-1-.743a25.564,25.564,0,0,0,2.473,24.4l-.844.666" transform="translate(-16.553 -61.964)" fill="#030402"/>
        <path id="Trazado_146726" data-name="Trazado 146726" d="M285.071,281.389c0,1.281.007,2.562.014,3.843s.618,1.747,1.865,1.4c2.723-.764,5.441-1.545,8.16-2.319q0,1.431,0,2.862h-1.166v9.267H282.357V282.585l1.075-.07c.018-.387.036-.764.054-1.14l1.586.014M287,289.515a2.321,2.321,0,1,0,2.288,2.393A2.322,2.322,0,0,0,287,289.515" transform="translate(-229.95 -229.138)" fill="#b0c0d2"/>
        <path id="Trazado_146727" data-name="Trazado 146727" d="M14.311,145.23l1.1.377A32.541,32.541,0,0,0,17.741,168.6l-.976.567-1.046.455a34.162,34.162,0,0,1-2.509-24.594l1.1.206" transform="translate(-11.986 -119.216)" fill="#040403"/>
        <path id="Trazado_146728" data-name="Trazado 146728" d="M169.009,168.457v2.237h-2.285v-2.229a4.9,4.9,0,0,1-3.864-2.068,4.258,4.258,0,0,1-.807-2.593h2.257a2.482,2.482,0,0,0,2.326,2.306v-4.622a4.855,4.855,0,0,1-3.654-1.884,4.607,4.607,0,0,1-.941-3.122c.134-2.34,1.906-4.035,4.627-4.36v-2.24h2.307v2.228a4.916,4.916,0,0,1,3.867,2.065,3.945,3.945,0,0,1,.754,2.6h-2.2a2.473,2.473,0,0,0-2.334-2.293v4.608a4.837,4.837,0,0,1,3.7,1.941,4.606,4.606,0,0,1,.9,3.064c-.137,2.343-1.9,4.029-4.648,4.364m-2.363-9.366v-4.567a2.283,2.283,0,1,0,0,4.567m2.386,6.967a2.31,2.31,0,0,0,2.305-2.467c-.076-1.183-1.336-2.327-2.305-2.043Z" transform="translate(-132.947 -123.132)" fill="#010100"/>
        <path id="Trazado_146729" data-name="Trazado 146729" d="M129.307,153.435l1.723,1.548a10.777,10.777,0,0,0-2.674,8.12h-2.323a12.9,12.9,0,0,1,3.274-9.667" transform="translate(-103.904 -125.997)" fill="#020301"/>
        <path id="Trazado_146730" data-name="Trazado 146730" d="M154.429,138.114c.119.222.191.345.253.473.251.517.5,1.036.773,1.609l-1.709,1.067-1.4-1.855,2.079-1.294" transform="translate(-125.143 -113.645)" fill="#030401"/>
        <path id="Trazado_146731" data-name="Trazado 146731" d="M296.454,323.368a2.321,2.321,0,1,1-2.364,2.317,2.326,2.326,0,0,1,2.364-2.317" transform="translate(-239.409 -262.991)" fill="#010203"/>
        <path id="Trazado_146732" data-name="Trazado 146732" d="M176.315,178.375a2.283,2.283,0,1,1,0-4.567Z" transform="translate(-142.616 -142.416)" fill="#ced371" opacity="0.76"/>
        <path id="Trazado_146733" data-name="Trazado 146733" d="M198.151,214.392v-4.51c.97-.284,2.23.861,2.305,2.043a2.31,2.31,0,0,1-2.305,2.467" transform="translate(-162.066 -171.467)" fill="#ced371"/>
      </g>
    </g>
  </g>
</svg>
