<svg xmlns="http://www.w3.org/2000/svg" width="118" height="119" viewBox="0 0 118 119">
  <g id="Grupo_166665" data-name="Grupo 166665" transform="translate(3794 11231)">
    <ellipse id="Elipse_5164" data-name="Elipse 5164" cx="59" cy="59.5" rx="59" ry="59.5" transform="translate(-3794 -11231)" fill="#ffb500" opacity="0.7"/>
    <g id="Grupo_165753" data-name="Grupo 165753" transform="translate(-3769.237 -11221.939)">
      <g id="Grupo_165083" data-name="Grupo 165083" transform="translate(0.953 16.96)">
        <path id="Trazado_146753" data-name="Trazado 146753" d="M72.611,270.658c-.081.1-.206.193-.236.308a5.89,5.89,0,0,1-6.008,4.243c-4.518-.053-9.038-.014-13.557-.014q-22.677,0-45.353,0a6.411,6.411,0,0,1-4.021-1.117,5.315,5.315,0,0,1-2.311-4.046,16.411,16.411,0,0,1,.149-4.3c.614-2.819,2.941-4.4,6.068-4.4q17.75,0,35.5,0h.92v-.793q0-3.983,0-7.966c0-1.262.362-1.619,1.618-1.621,1.742,0,3.483,0,5.291,0v-1.076q0-3.843,0-7.687c0-1.231.362-1.606,1.559-1.607q4.822,0,9.644,0c1.118,0,1.5.392,1.505,1.519q.006,4.053,0,8.106v.745c.7,0,1.343-.006,1.988,0,1.047.011,1.478.435,1.481,1.5.009,2.679,0,5.358,0,8.036v.748a16.2,16.2,0,0,1,2.352.655,5.633,5.633,0,0,1,3.269,4.01,1.512,1.512,0,0,0,.137.285ZM36.9,263.666q-14.885,0-29.771-.009a3.642,3.642,0,0,0-3.222,1.609c-.795,1.155-.74,4.9.047,6.067A3.669,3.669,0,0,0,7.266,272.9q29.561-.01,59.122,0c.163,0,.326,0,.489,0,1.453-.077,2.952-.964,3.144-2.235a15.429,15.429,0,0,0,.05-4.557c-.235-1.548-1.726-2.429-3.472-2.429q-14.851,0-29.7,0M53.044,250.9H61v-8H53.044ZM46.1,261.281h8.01v-7.947H46.1Zm10.365,0h8v-7.951h-8Z" transform="translate(-1.041 -208.252)" fill="#262121"/>
        <path id="Trazado_146754" data-name="Trazado 146754" d="M8.427,45.818c-1.935,0-3.912,0-5.89,0-1.2,0-1.581-.382-1.582-1.592q0-3.074,0-6.149c0-1.082.4-1.485,1.465-1.489,1.84-.006,3.68-.012,5.52.006a.649.649,0,0,0,.752-.5c.36-1,.781-1.985,1.228-2.953a.615.615,0,0,0-.145-.837C8.46,31.016,7.166,29.708,5.87,28.4c-.81-.817-.816-1.336-.017-2.14q2.191-2.206,4.4-4.4a1.3,1.3,0,0,1,2.154.006c1.42,1.409,2.833,2.826,4.208,4.2,1.227-.487,2.417-.938,3.583-1.443a.8.8,0,0,0,.353-.61c.028-1.793.014-3.586.017-5.38,0-1.3.367-1.67,1.645-1.673q3-.006,6.009,0c1.23,0,1.58.351,1.583,1.573.005,1.793.017,3.587-.01,5.38a.7.7,0,0,0,.547.8c1,.369,1.981.791,2.952,1.229a.571.571,0,0,0,.771-.134c1.286-1.316,2.592-2.611,3.9-3.91.821-.818,1.387-.826,2.193-.024q2.2,2.193,4.4,4.4a1.245,1.245,0,0,1,0,2.092c-1.278,1.291-2.55,2.588-3.862,3.844a.776.776,0,0,0-.162,1.069c.431.923.819,1.869,1.174,2.824a.614.614,0,0,0,.691.493c1.84-.023,3.68-.013,5.52-.009,1.116,0,1.527.4,1.53,1.5q.01,3.109,0,6.218c0,1.1-.421,1.5-1.537,1.506-1.84,0-3.68.015-5.52-.009a.613.613,0,0,0-.688.494c-.373,1-.781,1.986-1.227,2.953a.6.6,0,0,0,.132.829c1.3,1.267,2.578,2.56,3.86,3.847.881.884.877,1.4-.017,2.292q-2.147,2.152-4.3,4.3a1.287,1.287,0,0,1-2.154.01c-1.421-1.409-2.832-2.828-4.208-4.2-1.252.493-2.464.95-3.652,1.463a.825.825,0,0,0-.317.639c-.025,1.793-.012,3.586-.015,5.38,0,1.281-.333,1.614-1.606,1.616-2.05,0-4.1.007-6.149,0-1.07,0-1.474-.4-1.481-1.476-.012-1.84-.017-3.68.007-5.52a.659.659,0,0,0-.52-.742c-.977-.362-1.942-.763-2.886-1.2a.65.65,0,0,0-.891.151c-1.266,1.3-2.557,2.581-3.845,3.862-.829.825-1.38.832-2.193.023q-2.2-2.193-4.395-4.4c-.771-.777-.775-1.319-.01-2.091,1.278-1.291,2.556-2.583,3.86-3.847a.734.734,0,0,0,.2-1.008c-.52-1.085-.967-2.2-1.462-3.355m-.244-18.4c1.211,1.206,2.481,2.469,3.749,3.734.958.955.943,1.357.33,2.573a27,27,0,0,0-1.513,3.65c-.416,1.253-.73,1.583-2.057,1.588-1.537.006-3.075.023-4.612-.01-.555-.012-.794.113-.765.725.049,1.023.044,2.051,0,3.074-.023.561.164.716.713.706,1.677-.032,3.354-.017,5.031-.009.821,0,1.368.322,1.509.974a16.747,16.747,0,0,0,1.854,4.637,1.377,1.377,0,0,1-.289,2c-.6.62-1.214,1.224-1.827,1.83-.739.73-1.483,1.453-2.075,2.032l3.252,3.243c1.195-1.2,2.475-2.485,3.758-3.77.926-.928,1.2-.9,2.379-.328a42.754,42.754,0,0,0,4.1,1.677c.863.311,1.174.612,1.175,1.549,0,1.747.017,3.495-.009,5.241-.007.5.159.643.641.63q1.676-.044,3.354,0c.488.013.643-.145.636-.635-.025-1.793,0-3.587-.012-5.381a1.309,1.309,0,0,1,.983-1.342c1.532-.588,3.055-1.2,4.556-1.864.933-.412,1.236-.417,1.981.312q1.048,1.027,2.076,2.075c.648.659,1.284,1.33,2,2.069.979-1,1.838-1.913,2.742-2.781.406-.39.374-.644-.014-1.02-1.238-1.2-2.45-2.426-3.662-3.652a1.42,1.42,0,0,1-.222-1.938,41.6,41.6,0,0,0,1.717-4.092c.394-1.127.7-1.465,1.865-1.467,1.654,0,3.308-.013,4.962.008.452.006.617-.133.605-.6-.027-1.071-.042-2.145,0-3.214.026-.586-.2-.7-.728-.69-1.584.028-3.168.013-4.752.009-1.24,0-1.568-.357-1.966-1.536a31.445,31.445,0,0,0-1.623-3.9c-.5-1.018-.537-1.385.278-2.2,1.185-1.187,2.381-2.364,3.547-3.569.152-.157.289-.584.206-.671-.955-1.006-1.955-1.97-2.926-2.929a1.133,1.133,0,0,0-.187.106q-1.908,1.9-3.813,3.8c-.847.842-1.2.826-2.282.318-1.358-.636-2.76-1.187-4.169-1.706-.866-.319-1.17-.63-1.171-1.564,0-1.724-.017-3.448.01-5.172.008-.506-.118-.7-.659-.685-1.094.039-2.191.045-3.284,0-.585-.025-.7.2-.69.725.027,1.747,0,3.494.016,5.241a1.247,1.247,0,0,1-.967,1.34,30.994,30.994,0,0,0-3.388,1.258c-2.379,1.122-2.362,1.158-4.244-.724-.984-.984-1.966-1.97-2.9-2.9L8.183,27.418" transform="translate(-0.953 -16.96)" fill="#252122"/>
        <path id="Trazado_146755" data-name="Trazado 146755" d="M50.378,400.212q14.851,0,29.7,0c1.746,0,3.238.881,3.472,2.429a15.419,15.419,0,0,1-.05,4.557c-.192,1.27-1.691,2.158-3.144,2.235-.163.009-.326,0-.489,0q-29.561,0-59.122,0a3.67,3.67,0,0,1-3.313-1.565c-.787-1.164-.842-4.913-.047-6.067a3.643,3.643,0,0,1,3.222-1.61q14.885.026,29.771.009M27.26,401.346a3.478,3.478,0,1,0,3.43,3.514,3.488,3.488,0,0,0-3.43-3.514m49.6,3.451a3.534,3.534,0,0,0-3.485-3.451,3.477,3.477,0,1,0,3.485,3.451m-34.653.067a3.436,3.436,0,1,0-3.432,3.437,3.461,3.461,0,0,0,3.432-3.437m23.073-.053a3.436,3.436,0,1,0-3.44,3.49,3.449,3.449,0,0,0,3.44-3.49m-14.962-3.466a3.478,3.478,0,1,0,3.468,3.5,3.579,3.579,0,0,0-3.468-3.5" transform="translate(-14.522 -344.799)" fill="#77757f"/>
        <rect id="Rectángulo_35775" data-name="Rectángulo 35775" width="7.954" height="7.997" transform="translate(52.003 34.649)" fill="#fdcb00"/>
        <rect id="Rectángulo_35776" data-name="Rectángulo 35776" width="8.01" height="7.947" transform="translate(45.062 45.081)" fill="#cba300"/>
        <rect id="Rectángulo_35777" data-name="Rectángulo 35777" width="8" height="7.951" transform="translate(55.428 45.08)" fill="#fdd222"/>
        <path id="Trazado_146756" data-name="Trazado 146756" d="M22.141,40.943l3.229-3.232c.93.932,1.912,1.917,2.9,2.9,1.882,1.882,1.865,1.846,4.244.724A31,31,0,0,1,35.9,40.079a1.247,1.247,0,0,0,.967-1.34c-.018-1.747.011-3.494-.016-5.241-.008-.524.1-.751.69-.725,1.093.047,2.19.041,3.284,0,.541-.019.667.178.659.685-.027,1.723-.012,3.447-.01,5.171,0,.933.3,1.245,1.171,1.564,1.409.519,2.81,1.07,4.169,1.706,1.085.508,1.435.524,2.282-.318q1.908-1.9,3.813-3.8a1.138,1.138,0,0,1,.187-.106c.971.959,1.97,1.923,2.926,2.929.083.087-.055.514-.206.671-1.166,1.205-2.362,2.382-3.547,3.569-.815.817-.783,1.184-.278,2.2a31.443,31.443,0,0,1,1.623,3.9c.4,1.179.726,1.533,1.966,1.536,1.584,0,3.168.019,4.752-.009.523-.009.754.1.728.69-.047,1.069-.032,2.143,0,3.214.012.463-.153.6-.605.6-1.654-.021-3.308-.01-4.962-.008-1.168,0-1.471.339-1.865,1.467A41.61,41.61,0,0,1,51.9,62.53a1.42,1.42,0,0,0,.222,1.938c1.212,1.226,2.424,2.453,3.662,3.652.388.376.42.629.014,1.02-.9.868-1.763,1.782-2.742,2.781-.712-.74-1.348-1.41-2-2.069q-1.028-1.047-2.076-2.075c-.744-.729-1.047-.724-1.981-.312-1.5.662-3.024,1.276-4.556,1.864a1.309,1.309,0,0,0-.983,1.341c.009,1.794-.012,3.588.013,5.381.007.49-.148.648-.636.635q-1.676-.046-3.354,0c-.482.013-.648-.134-.641-.63.026-1.747.012-3.494.009-5.241,0-.938-.313-1.239-1.175-1.549a42.739,42.739,0,0,1-4.1-1.677c-1.175-.567-1.453-.6-2.379.328-1.282,1.285-2.563,2.572-3.758,3.77L22.19,68.441c.591-.579,1.336-1.3,2.075-2.032.613-.606,1.228-1.21,1.827-1.83a1.377,1.377,0,0,0,.289-2,16.745,16.745,0,0,1-1.854-4.637c-.14-.652-.688-.971-1.509-.974-1.677-.007-3.355-.023-5.031.009-.548.011-.736-.145-.712-.706.042-1.023.047-2.051,0-3.074-.029-.612.21-.736.765-.725,1.537.033,3.075.016,4.612.01,1.327,0,1.642-.335,2.057-1.588a26.983,26.983,0,0,1,1.513-3.65c.614-1.216.628-1.618-.33-2.573-1.268-1.265-2.539-2.528-3.749-3.734m4.371,13.765a12.662,12.662,0,1,0,25.324.089,12.662,12.662,0,1,0-25.324-.089" transform="translate(-14.911 -30.485)" fill="#3e3d41"/>
        <path id="Trazado_146757" data-name="Trazado 146757" d="M68.33,408.111a3.478,3.478,0,0,1-.078,6.955,3.478,3.478,0,0,1,.078-6.955m-.072,2.347a1.13,1.13,0,0,0,.034,2.259,1.134,1.134,0,0,0,1.139-1.149,1.12,1.12,0,0,0-1.173-1.111" transform="translate(-55.592 -351.564)" fill="#242021"/>
        <path id="Trazado_146758" data-name="Trazado 146758" d="M391.031,411.563a3.475,3.475,0,1,1-3.485-3.451,3.559,3.559,0,0,1,3.485,3.451m-2.344.038a1.1,1.1,0,0,0-1.125-1.142,1.116,1.116,0,0,0-1.136,1.146,1.134,1.134,0,0,0,1.106,1.112,1.1,1.1,0,0,0,1.155-1.116" transform="translate(-328.694 -351.565)" fill="#242021"/>
        <path id="Trazado_146759" data-name="Trazado 146759" d="M151.8,411.628a3.436,3.436,0,1,1-6.871-.054,3.436,3.436,0,1,1,6.871.054m-2.3-.034a1.149,1.149,0,0,0-2.3.013,1.172,1.172,0,0,0,1.124,1.109,1.155,1.155,0,0,0,1.175-1.122" transform="translate(-124.111 -351.562)" fill="#242022"/>
        <path id="Trazado_146760" data-name="Trazado 146760" d="M311.4,411.575a3.436,3.436,0,1,1-3.459-3.466,3.463,3.463,0,0,1,3.459,3.466m-3.448,1.142a1.171,1.171,0,0,0,1.171-1.133,1.146,1.146,0,0,0-1.168-1.129,1.135,1.135,0,0,0-1.13,1.092,1.159,1.159,0,0,0,1.128,1.17" transform="translate(-260.641 -351.563)" fill="#242022"/>
        <path id="Trazado_146761" data-name="Trazado 146761" d="M227.923,408.112a3.478,3.478,0,1,1-3.488,3.481,3.578,3.578,0,0,1,3.488-3.481m1.118,3.46a1.128,1.128,0,1,0-2.255.061,1.128,1.128,0,0,0,2.255-.061" transform="translate(-192.127 -351.564)" fill="#242021"/>
        <path id="Trazado_146762" data-name="Trazado 146762" d="M81.182,109.443a12.662,12.662,0,1,1,12.674,12.711,12.619,12.619,0,0,1-12.674-12.711M93.827,99.1a10.364,10.364,0,1,0,10.4,10.38,10.375,10.375,0,0,0-10.4-10.38" transform="translate(-69.582 -85.22)" fill="#241f20"/>
        <path id="Trazado_146763" data-name="Trazado 146763" d="M82.122,424.342a1.12,1.12,0,0,1,1.173,1.111,1.134,1.134,0,0,1-1.139,1.149,1.13,1.13,0,0,1-.034-2.259" transform="translate(-69.456 -365.448)" fill="#a7a6ac"/>
        <path id="Trazado_146764" data-name="Trazado 146764" d="M402.562,425.492a1.1,1.1,0,0,1-1.155,1.116A1.134,1.134,0,0,1,400.3,425.5a1.116,1.116,0,0,1,1.136-1.146,1.1,1.1,0,0,1,1.125,1.142" transform="translate(-342.569 -365.455)" fill="#a7a6ac"/>
        <path id="Trazado_146765" data-name="Trazado 146765" d="M162.974,425.477A1.155,1.155,0,0,1,161.8,426.6a1.172,1.172,0,0,1-1.124-1.109,1.149,1.149,0,0,1,2.3-.013" transform="translate(-137.585 -365.446)" fill="#a7a6ac"/>
        <path id="Trazado_146766" data-name="Trazado 146766" d="M321.528,426.6a1.159,1.159,0,0,1-1.128-1.17,1.135,1.135,0,0,1,1.13-1.092,1.146,1.146,0,0,1,1.168,1.129,1.171,1.171,0,0,1-1.171,1.133" transform="translate(-274.218 -365.442)" fill="#a7a6ac"/>
        <path id="Trazado_146767" data-name="Trazado 146767" d="M242.941,425.467a1.128,1.128,0,0,1-2.255.061,1.128,1.128,0,1,1,2.255-.061" transform="translate(-206.028 -365.459)" fill="#a8a7ad"/>
        <path id="Trazado_146768" data-name="Trazado 146768" d="M107.135,112.952a10.364,10.364,0,1,1-10.4,10.38,10.382,10.382,0,0,1,10.4-10.38m9.2,10.413a9.21,9.21,0,1,0-9.268,9.172,9.2,9.2,0,0,0,9.268-9.172" transform="translate(-82.89 -99.075)" fill="#a3314f"/>
        <path id="Trazado_146769" data-name="Trazado 146769" d="M123.268,130.065a9.211,9.211,0,1,1-9.095-9.28,9.166,9.166,0,0,1,9.095,9.28m-9.185,6.86a6.923,6.923,0,1,0-6.927-6.849,6.975,6.975,0,0,0,6.927,6.849" transform="translate(-89.827 -105.775)" fill="#262021"/>
      </g>
    </g>
  </g>
</svg>
