<svg xmlns="http://www.w3.org/2000/svg" width="516" height="515.994" viewBox="0 0 516 515.994">
  <g id="Grupo_165050" data-name="Grupo 165050" transform="translate(0 -0.001)">
    <g id="Grupo_165049" data-name="Grupo 165049" transform="translate(0 0.001)">
      <g id="Grupo_165051" data-name="Grupo 165051" transform="translate(0 0)">
        <path id="Trazado_146578" data-name="Trazado 146578" d="M253.774,250.746,296.1,274.41l42.325-23.692A258,258,0,0,0,160.149,5.429l-26.155,80.5a173.4,173.4,0,0,1,119.78,164.82" transform="translate(177.579 7.194)" fill="#f8b03d"/>
        <path id="Trazado_146579" data-name="Trazado 146579" d="M21.267,176.279h0l-.026-.035.023.035" transform="translate(28.154 233.571)" fill="#f8b03d"/>
        <path id="Trazado_146580" data-name="Trazado 146580" d="M145.276,216.474l.042-.014-.042.012Z" transform="translate(192.531 286.869)" fill="#f8b03d"/>
        <path id="Trazado_146581" data-name="Trazado 146581" d="M145.333,216.456v0l-.04.014.04-.012" transform="translate(192.554 286.861)" fill="#f8b03d"/>
        <path id="Trazado_146582" data-name="Trazado 146582" d="M21.14,45.824l-.023.035.026-.035Z" transform="translate(27.986 60.729)" fill="#f8b03d"/>
        <path id="Trazado_146583" data-name="Trazado 146583" d="M21.1,45.872h0l.023-.033-.026.033" transform="translate(27.97 60.749)" fill="#f8b03d"/>
        <path id="Trazado_146584" data-name="Trazado 146584" d="M21.233,176.23l.026.035-.023-.035Z" transform="translate(28.14 233.553)" fill="#f8b03d"/>
        <path id="Trazado_146585" data-name="Trazado 146585" d="M134.016,181.863,160.2,262.35l.042-.012.04-.014-26.208-80.48-.053.019" transform="translate(177.608 240.993)" fill="#f8b03d"/>
        <path id="Trazado_146586" data-name="Trazado 146586" d="M221.91,110.917h0l0,.042v-.042" transform="translate(294.09 146.995)" fill="#f8b03d"/>
        <path id="Trazado_146587" data-name="Trazado 146587" d="M221.909,110.936v0" transform="translate(294.091 147.02)" fill="#f8b03d"/>
        <path id="Trazado_146588" data-name="Trazado 146588" d="M230,84.644a173.089,173.089,0,0,1,53.356,8.406l38.279-33.077L309.407,12.521A258,258,0,0,0,21.128,106.555l68.552,49.7A173.073,173.073,0,0,1,230,84.644" transform="translate(28.001 0)" fill="#04c2a8"/>
        <path id="Trazado_146589" data-name="Trazado 146589" d="M89.706,95.527l-68.551-49.7-.026.035-.023.035,68.568,49.68.033-.047" transform="translate(27.971 60.729)" fill="#f8b03d"/>
        <path id="Trazado_146590" data-name="Trazado 146590" d="M84.647,197.227a172.53,172.53,0,0,1,33-101.694L90.418,46.982,49.077,45.854a257.987,257.987,0,0,0,.3,303.158L117.843,299.2a172.526,172.526,0,0,1-33.2-101.973" transform="translate(0 60.769)" fill="#4071f7"/>
        <path id="Trazado_146591" data-name="Trazado 146591" d="M89.7,154.807,21.234,204.621l.026.035.023.033,68.452-49.835-.033-.046" transform="translate(28.141 205.161)" fill="#f8b03d"/>
        <path id="Trazado_146592" data-name="Trazado 146592" d="M229.832,226.163A173.079,173.079,0,0,1,89.707,154.826l-41.6,1.437-26.852,48.4a257.987,257.987,0,0,0,288.383,93.492l-26.18-80.487a173.088,173.088,0,0,1-53.626,8.5" transform="translate(28.169 205.187)" fill="#bed9fd"/>
        <path id="Trazado_146593" data-name="Trazado 146593" d="M140.045,275.793l-10.536,47.466,36.744,33.014A258,258,0,0,0,344.365,110.954H259.72A173.4,173.4,0,0,1,140.045,275.793" transform="translate(171.635 147.044)" fill="#d45c40"/>
        <path id="Trazado_146594" data-name="Trazado 146594" d="M230.221,75.974A257.968,257.968,0,0,0,178.458,22.92V153.989a172.569,172.569,0,0,1,16.389,73.576l42.322,23.664,42.325-23.692A258.049,258.049,0,0,0,230.221,75.974" transform="translate(236.506 30.375)" fill="#f8b03d"/>
        <path id="Trazado_146595" data-name="Trazado 146595" d="M342.986,195.153a147.8,147.8,0,1,1-147.8-147.8,147.8,147.8,0,0,1,147.8,147.8" transform="translate(62.81 62.759)" fill="#e9e9e9"/>
        <path id="Trazado_146596" data-name="Trazado 146596" d="M110.955,170.975,145.195,65.6a110.794,110.794,0,0,1,76.557,105.375Z" transform="translate(147.046 86.937)" fill="#ccc" opacity="0.46"/>
        <path id="Trazado_146597" data-name="Trazado 146597" d="M110.955,170.975,145.195,65.6a110.794,110.794,0,0,1,76.557,105.375Z" transform="translate(147.046 86.937)" fill="none" stroke="#e9e9e9" stroke-miterlimit="10" stroke-width="2"/>
        <path id="Trazado_146598" data-name="Trazado 146598" d="M110.955,111.034l110.8-.2a110.8,110.8,0,0,1-76.364,105.516Z" transform="translate(147.046 146.878)" fill="#ccc" opacity="0.46"/>
        <path id="Trazado_146599" data-name="Trazado 146599" d="M110.955,111.034l110.8-.2a110.8,110.8,0,0,1-76.364,105.516Z" transform="translate(147.046 146.878)" fill="none" stroke="#e9e9e9" stroke-miterlimit="10" stroke-width="2"/>
        <path id="Trazado_146600" data-name="Trazado 146600" d="M161.905,110.917l34.628,105.249A110.793,110.793,0,0,1,72.51,176.374Z" transform="translate(96.096 146.995)" fill="#ccc" opacity="0.46"/>
        <path id="Trazado_146601" data-name="Trazado 146601" d="M161.905,110.917l34.628,105.249A110.793,110.793,0,0,1,72.51,176.374Z" transform="translate(96.096 146.995)" fill="none" stroke="#e9e9e9" stroke-miterlimit="10" stroke-width="2"/>
        <path id="Trazado_146602" data-name="Trazado 146602" d="M174.1,147.75,84.83,213.372a110.793,110.793,0,0,1-.723-130.248Z" transform="translate(83.897 110.162)" fill="#ccc" opacity="0.46"/>
        <path id="Trazado_146603" data-name="Trazado 146603" d="M174.1,147.75,84.83,213.372a110.793,110.793,0,0,1-.723-130.248Z" transform="translate(83.897 110.162)" fill="none" stroke="#e9e9e9" stroke-miterlimit="10" stroke-width="2"/>
        <path id="Trazado_146604" data-name="Trazado 146604" d="M162.317,174.065,72.2,109.606A110.8,110.8,0,0,1,195.774,68.439Z" transform="translate(95.684 83.847)" fill="#ccc" opacity="0.46"/>
        <path id="Trazado_146605" data-name="Trazado 146605" d="M162.317,174.065,72.2,109.606A110.8,110.8,0,0,1,195.774,68.439Z" transform="translate(95.684 83.847)" fill="none" stroke="#e9e9e9" stroke-miterlimit="10" stroke-width="2"/>
      </g>
    </g>
    <path id="Trazado_255641" data-name="Trazado 255641" d="M63.518,17.758H57.049v4.078h7.641V25H52.936V7.938H64.713v3.176H57.049v3.6h6.469Zm17.32-.937a10.083,10.083,0,0,1-.785,4.131,7.18,7.18,0,0,1-2.168,2.83l2.754,2.18L78.1,28.117l-3.668-2.953a7.624,7.624,0,0,1-1.031.07,7.4,7.4,0,0,1-3.867-1.008A6.854,6.854,0,0,1,66.9,21.344a9.791,9.791,0,0,1-.979-4.312v-.9a10.1,10.1,0,0,1,.92-4.43,6.856,6.856,0,0,1,2.625-2.953,7.805,7.805,0,0,1,7.775-.012,6.948,6.948,0,0,1,2.643,2.936,9.816,9.816,0,0,1,.955,4.365Zm-4.184-.715a7.175,7.175,0,0,0-.85-3.861,2.929,2.929,0,0,0-4.881-.018,7.268,7.268,0,0,0-.832,3.809v.785a7.374,7.374,0,0,0,.832,3.861A2.724,2.724,0,0,0,73.4,22.023,2.685,2.685,0,0,0,75.8,20.7a7.219,7.219,0,0,0,.85-3.809ZM96.318,7.938V19.105a6.419,6.419,0,0,1-.809,3.287,5.238,5.238,0,0,1-2.32,2.115,8.174,8.174,0,0,1-3.574.727,7.062,7.062,0,0,1-4.91-1.617,5.768,5.768,0,0,1-1.828-4.43V7.938h4.137V19.27q.07,2.8,2.6,2.8a2.518,2.518,0,0,0,1.934-.7,3.286,3.286,0,0,0,.656-2.285V7.938ZM103.268,25h-4.1V7.938h4.1Zm6.973-5.789V25h-4.113V7.938h6.809a7.93,7.93,0,0,1,3.463.721,5.431,5.431,0,0,1,2.332,2.051,5.6,5.6,0,0,1,.826,3.018,4.937,4.937,0,0,1-1.787,3.99,7.415,7.415,0,0,1-4.9,1.494Zm0-3.176h2.7a2.542,2.542,0,0,0,1.822-.6,2.221,2.221,0,0,0,.627-1.687,2.745,2.745,0,0,0-.645-1.91,2.282,2.282,0,0,0-1.758-.727H110.24Zm25.957.785a10.062,10.062,0,0,1-.926,4.418,6.842,6.842,0,0,1-2.631,2.959,7.326,7.326,0,0,1-3.885,1.037,7.429,7.429,0,0,1-3.867-1,6.831,6.831,0,0,1-2.631-2.865,9.772,9.772,0,0,1-.99-4.277v-.961a10.106,10.106,0,0,1,.92-4.424,6.825,6.825,0,0,1,2.637-2.959,7.805,7.805,0,0,1,7.775-.012,6.948,6.948,0,0,1,2.643,2.936,9.816,9.816,0,0,1,.955,4.365Zm-4.184-.715a7.175,7.175,0,0,0-.85-3.861,2.725,2.725,0,0,0-2.432-1.318q-3.094,0-3.27,4.641l-.012,1.254a7.379,7.379,0,0,0,.832,3.855,2.721,2.721,0,0,0,2.473,1.348,2.688,2.688,0,0,0,2.4-1.324,7.178,7.178,0,0,0,.855-3.809Z" transform="matrix(0.53, 0.848, -0.848, 0.53, 398.69, 62.585)" fill="#12263f"/>
    <path id="Trazado_255643" data-name="Trazado 255643" d="M20.1,19.223a6.231,6.231,0,0,1-.961,3.146,5.8,5.8,0,0,1-2.467,2.115,8.4,8.4,0,0,1-3.627.75,6.7,6.7,0,0,1-5.3-2.191,9.048,9.048,0,0,1-1.934-6.187v-.844a10.328,10.328,0,0,1,.873-4.389A6.615,6.615,0,0,1,9.2,8.717,7.013,7.013,0,0,1,13,7.691,7.354,7.354,0,0,1,17.99,9.326a6.459,6.459,0,0,1,2.145,4.506h-4.1a3.056,3.056,0,0,0-.785-2.238,3.229,3.229,0,0,0-2.25-.68,2.457,2.457,0,0,0-2.25,1.148A7.381,7.381,0,0,0,10,15.73v1.207a8.167,8.167,0,0,0,.686,3.9,2.509,2.509,0,0,0,2.361,1.172,3.159,3.159,0,0,0,2.168-.668,2.835,2.835,0,0,0,.8-2.121Zm16.395-2.4a10.062,10.062,0,0,1-.926,4.418A6.842,6.842,0,0,1,32.938,24.2a7.326,7.326,0,0,1-3.885,1.037,7.429,7.429,0,0,1-3.867-1,6.831,6.831,0,0,1-2.631-2.865,9.772,9.772,0,0,1-.99-4.277v-.961a10.106,10.106,0,0,1,.92-4.424,6.825,6.825,0,0,1,2.637-2.959A7.805,7.805,0,0,1,32.9,8.734a6.948,6.948,0,0,1,2.643,2.936,9.816,9.816,0,0,1,.955,4.365Zm-4.184-.715a7.175,7.175,0,0,0-.85-3.861,2.725,2.725,0,0,0-2.432-1.318q-3.094,0-3.27,4.641l-.012,1.254a7.379,7.379,0,0,0,.832,3.855,2.721,2.721,0,0,0,2.473,1.348,2.688,2.688,0,0,0,2.4-1.324,7.178,7.178,0,0,0,.855-3.809ZM52.865,25h-4.09L42.729,14.383V25H38.615V7.938h4.113l6.035,10.617V7.938h4.1Zm17.051-8.18a10.062,10.062,0,0,1-.926,4.418A6.842,6.842,0,0,1,66.359,24.2a7.326,7.326,0,0,1-3.885,1.037,7.429,7.429,0,0,1-3.867-1,6.831,6.831,0,0,1-2.631-2.865,9.772,9.772,0,0,1-.99-4.277v-.961a10.106,10.106,0,0,1,.92-4.424,6.825,6.825,0,0,1,2.637-2.959,7.805,7.805,0,0,1,7.775-.012,6.948,6.948,0,0,1,2.643,2.936,9.816,9.816,0,0,1,.955,4.365Zm-4.184-.715a7.175,7.175,0,0,0-.85-3.861,2.725,2.725,0,0,0-2.432-1.318q-3.094,0-3.27,4.641L59.17,16.82A7.379,7.379,0,0,0,60,20.676a2.721,2.721,0,0,0,2.473,1.348,2.688,2.688,0,0,0,2.4-1.324,7.178,7.178,0,0,0,.855-3.809Zm20.109,3.117a6.231,6.231,0,0,1-.961,3.146,5.8,5.8,0,0,1-2.467,2.115,8.4,8.4,0,0,1-3.627.75,6.7,6.7,0,0,1-5.3-2.191,9.048,9.048,0,0,1-1.934-6.187v-.844a10.328,10.328,0,0,1,.873-4.389,6.615,6.615,0,0,1,2.514-2.906,7.013,7.013,0,0,1,3.8-1.025,7.354,7.354,0,0,1,4.992,1.635,6.459,6.459,0,0,1,2.145,4.506h-4.1a3.056,3.056,0,0,0-.785-2.238,3.229,3.229,0,0,0-2.25-.68,2.457,2.457,0,0,0-2.25,1.148,7.381,7.381,0,0,0-.75,3.668v1.207a8.167,8.167,0,0,0,.686,3.9,2.509,2.509,0,0,0,2.361,1.172,3.159,3.159,0,0,0,2.168-.668,2.835,2.835,0,0,0,.8-2.121ZM92.17,25h-4.1V7.938h4.1Zm8.262-17.062,3.809,11.871,3.8-11.871h5.414V25h-4.125V21.016l.4-8.156L105.6,25h-2.719L98.744,12.848l.4,8.168V25H95.029V7.938ZM120.447,25h-4.1V7.938h4.1Zm13.441-7.242H127.42v4.078h7.641V25H123.307V7.938h11.777v3.176H127.42v3.6h6.469ZM150.986,25H146.9L140.85,14.383V25h-4.113V7.938h4.113l6.035,10.617V7.938h4.1Zm16-13.887h-5.121V25h-4.113V11.113h-5.027V7.938h14.262Zm15.855,5.707a10.062,10.062,0,0,1-.926,4.418,6.842,6.842,0,0,1-2.631,2.959,7.326,7.326,0,0,1-3.885,1.037,7.429,7.429,0,0,1-3.867-1,6.831,6.831,0,0,1-2.631-2.865,9.772,9.772,0,0,1-.99-4.277v-.961a10.106,10.106,0,0,1,.92-4.424,6.825,6.825,0,0,1,2.637-2.959,7.805,7.805,0,0,1,7.775-.012,6.948,6.948,0,0,1,2.643,2.936,9.816,9.816,0,0,1,.955,4.365Zm-4.184-.715a7.175,7.175,0,0,0-.85-3.861,2.725,2.725,0,0,0-2.432-1.318q-3.094,0-3.27,4.641l-.012,1.254a7.379,7.379,0,0,0,.832,3.855,2.721,2.721,0,0,0,2.473,1.348,2.688,2.688,0,0,0,2.4-1.324,7.178,7.178,0,0,0,.855-3.809Z" transform="translate(486.21 320.911) rotate(129)" fill="#12263f"/>
    <path id="Trazado_255642" data-name="Trazado 255642" d="M61.063,21.813H55.426L54.441,25H50.047L56.3,7.938h3.867L66.477,25H62.059ZM56.41,18.637h3.668l-1.84-5.918Zm25.113.586a6.231,6.231,0,0,1-.961,3.146A5.8,5.8,0,0,1,78.1,24.484a8.4,8.4,0,0,1-3.627.75,6.7,6.7,0,0,1-5.3-2.191,9.048,9.048,0,0,1-1.934-6.187v-.844a10.328,10.328,0,0,1,.873-4.389,6.615,6.615,0,0,1,2.514-2.906,7.013,7.013,0,0,1,3.8-1.025,7.354,7.354,0,0,1,4.992,1.635,6.459,6.459,0,0,1,2.145,4.506h-4.1a3.056,3.056,0,0,0-.785-2.238,3.229,3.229,0,0,0-2.25-.68,2.457,2.457,0,0,0-2.25,1.148,7.381,7.381,0,0,0-.75,3.668v1.207a8.167,8.167,0,0,0,.686,3.9,2.509,2.509,0,0,0,2.361,1.172,3.159,3.159,0,0,0,2.168-.668,2.835,2.835,0,0,0,.8-2.121Zm15.75,0a6.231,6.231,0,0,1-.961,3.146,5.8,5.8,0,0,1-2.467,2.115,8.4,8.4,0,0,1-3.627.75,6.7,6.7,0,0,1-5.3-2.191,9.048,9.048,0,0,1-1.934-6.187v-.844a10.328,10.328,0,0,1,.873-4.389,6.615,6.615,0,0,1,2.514-2.906,7.013,7.013,0,0,1,3.8-1.025,7.354,7.354,0,0,1,4.992,1.635,6.459,6.459,0,0,1,2.145,4.506h-4.1a3.056,3.056,0,0,0-.785-2.238,3.229,3.229,0,0,0-2.25-.68,2.457,2.457,0,0,0-2.25,1.148,7.381,7.381,0,0,0-.75,3.668v1.207a8.167,8.167,0,0,0,.686,3.9,2.509,2.509,0,0,0,2.361,1.172,3.159,3.159,0,0,0,2.168-.668,2.835,2.835,0,0,0,.8-2.121ZM103.6,25H99.5V7.938h4.1Zm17.309-8.18a10.062,10.062,0,0,1-.926,4.418,6.842,6.842,0,0,1-2.631,2.959,7.326,7.326,0,0,1-3.885,1.037,7.429,7.429,0,0,1-3.867-1,6.831,6.831,0,0,1-2.631-2.865,9.772,9.772,0,0,1-.99-4.277v-.961a10.106,10.106,0,0,1,.92-4.424,6.825,6.825,0,0,1,2.637-2.959,7.805,7.805,0,0,1,7.775-.012,6.948,6.948,0,0,1,2.643,2.936,9.816,9.816,0,0,1,.955,4.365Zm-4.184-.715a7.175,7.175,0,0,0-.85-3.861,2.725,2.725,0,0,0-2.432-1.318q-3.094,0-3.27,4.641l-.012,1.254A7.379,7.379,0,0,0,111,20.676a2.721,2.721,0,0,0,2.473,1.348,2.688,2.688,0,0,0,2.4-1.324,7.178,7.178,0,0,0,.855-3.809Zm-2.8-12.738H118.1l-3.258,3.68-3.223-.006ZM137.281,25h-4.09l-6.047-10.617V25h-4.113V7.938h4.113l6.035,10.617V7.938h4.1Z" transform="translate(271.122 500.395) rotate(-156)" fill="#12263f"/>
    <path id="Trazado_255638" data-name="Trazado 255638" d="M34.865,17.758H28.4v4.078h7.641V25H24.283V7.938H36.061v3.176H28.4v3.6h6.469Zm11.648,2.707a1.69,1.69,0,0,0-.639-1.406,7.938,7.938,0,0,0-2.244-1.043,21.53,21.53,0,0,1-2.625-1.043q-3.316-1.629-3.316-4.477a4.014,4.014,0,0,1,.826-2.5,5.344,5.344,0,0,1,2.338-1.687,9.1,9.1,0,0,1,3.4-.6,7.958,7.958,0,0,1,3.3.656,5.223,5.223,0,0,1,2.268,1.869A4.881,4.881,0,0,1,50.627,13h-4.1a2.063,2.063,0,0,0-.639-1.617,2.489,2.489,0,0,0-1.729-.574,2.807,2.807,0,0,0-1.74.486,1.432,1.432,0,0,0,.064,2.426,8.867,8.867,0,0,0,2.473,1.1,15.147,15.147,0,0,1,2.906,1.225,4.884,4.884,0,0,1,2.766,4.395,4.166,4.166,0,0,1-1.687,3.516,7.506,7.506,0,0,1-4.629,1.277,9.184,9.184,0,0,1-3.756-.744,5.663,5.663,0,0,1-2.531-2.039,5.313,5.313,0,0,1-.85-2.982H41.3a2.617,2.617,0,0,0,.709,2.021,3.351,3.351,0,0,0,2.3.65,2.647,2.647,0,0,0,1.611-.439A1.45,1.45,0,0,0,46.514,20.465Zm19.617-9.352H61.01V25H56.9V11.113H51.869V7.938H66.131Zm8.074,7.852H71.979V25H67.865V7.938H74.58a7.5,7.5,0,0,1,4.746,1.346,4.561,4.561,0,0,1,1.711,3.8,5.54,5.54,0,0,1-.721,2.95,5.115,5.115,0,0,1-2.256,1.9l3.563,6.889V25H77.217ZM71.979,15.8h2.6a2.335,2.335,0,0,0,1.764-.617,2.384,2.384,0,0,0,.592-1.721,2.412,2.412,0,0,0-.6-1.733A2.313,2.313,0,0,0,74.58,11.1h-2.6Zm21.234,6.012H87.576L86.592,25H82.2L88.455,7.938h3.867L98.627,25H94.209Zm-4.652-3.176h3.668l-1.84-5.918Zm23.3-7.523h-5.121V25h-4.113V11.113H97.6V7.938h14.262Zm12.316,6.645h-6.469v4.078h7.641V25H113.592V7.938h11.777v3.176h-7.664v3.6h6.469Zm16.816,5.133a6.614,6.614,0,0,1-2.777,1.7,11.979,11.979,0,0,1-4.008.645,7.146,7.146,0,0,1-5.355-2.051,8.3,8.3,0,0,1-2.145-5.707L126.693,16a10.182,10.182,0,0,1,.891-4.4,6.613,6.613,0,0,1,2.549-2.895,7.21,7.21,0,0,1,3.838-1.014,7.559,7.559,0,0,1,4.951,1.459,6.182,6.182,0,0,1,2.057,4.354h-3.961a3.235,3.235,0,0,0-.914-2.039,2.949,2.949,0,0,0-1.992-.609,2.684,2.684,0,0,0-2.391,1.313,7.008,7.008,0,0,0-.855,3.75v1.031a6.86,6.86,0,0,0,.873,3.838,3.088,3.088,0,0,0,2.748,1.283,3.456,3.456,0,0,0,2.391-.715V18.707h-2.859V15.883h6.973ZM147.764,25h-4.1V7.938h4.1Zm12.551-3.187h-5.637L153.693,25H149.3l6.258-17.062h3.867L165.729,25h-4.418Zm-4.652-3.176h3.668l-1.84-5.918Z" transform="translate(28.911 351.689) rotate(-87)" fill="#12263f"/>
    <path id="Trazado_255639" data-name="Trazado 255639" d="M72.529,17.758H66.061v4.078H73.7V25H61.947V7.938H73.725v3.176H66.061v3.6h6.469ZM68.7,3.367h4.172l-3.258,3.68-3.223-.006ZM81.74,13.609l2.789-5.672h4.7L84.459,16.4l4.9,8.6H84.611L81.74,19.223,78.869,25H74.135l4.887-8.6L74.264,7.938h4.688ZM95.076,25h-4.1V7.938h4.1ZM111.33,11.113h-5.121V25H102.1V11.113H97.068V7.938H111.33Zm15.855,5.707a10.062,10.062,0,0,1-.926,4.418,6.842,6.842,0,0,1-2.631,2.959,7.326,7.326,0,0,1-3.885,1.037,7.429,7.429,0,0,1-3.867-1,6.831,6.831,0,0,1-2.631-2.865,9.772,9.772,0,0,1-.99-4.277v-.961a10.106,10.106,0,0,1,.92-4.424,6.825,6.825,0,0,1,2.637-2.959,7.805,7.805,0,0,1,7.775-.012,6.948,6.948,0,0,1,2.643,2.936,9.816,9.816,0,0,1,.955,4.365ZM123,16.105a7.175,7.175,0,0,0-.85-3.861,2.725,2.725,0,0,0-2.432-1.318q-3.094,0-3.27,4.641l-.012,1.254a7.379,7.379,0,0,0,.832,3.855,2.721,2.721,0,0,0,2.473,1.348,2.688,2.688,0,0,0,2.4-1.324A7.178,7.178,0,0,0,123,16.891Z" transform="translate(101.603 68.442) rotate(-11)" fill="#12263f"/>
    <path id="Trazado_255640" data-name="Trazado 255640" d="M27.717,19.223a6.231,6.231,0,0,1-.961,3.146,5.8,5.8,0,0,1-2.467,2.115,8.4,8.4,0,0,1-3.627.75,6.7,6.7,0,0,1-5.3-2.191,9.048,9.048,0,0,1-1.934-6.187v-.844a10.328,10.328,0,0,1,.873-4.389,6.615,6.615,0,0,1,2.514-2.906,7.013,7.013,0,0,1,3.8-1.025,7.354,7.354,0,0,1,4.992,1.635,6.459,6.459,0,0,1,2.145,4.506h-4.1a3.056,3.056,0,0,0-.785-2.238,3.229,3.229,0,0,0-2.25-.68,2.457,2.457,0,0,0-2.25,1.148,7.381,7.381,0,0,0-.75,3.668v1.207a8.167,8.167,0,0,0,.686,3.9,2.509,2.509,0,0,0,2.361,1.172,3.159,3.159,0,0,0,2.168-.668,2.835,2.835,0,0,0,.8-2.121ZM34.045,25h-4.1V7.938h4.1Zm16.664-5.777a6.231,6.231,0,0,1-.961,3.146,5.8,5.8,0,0,1-2.467,2.115,8.4,8.4,0,0,1-3.627.75,6.7,6.7,0,0,1-5.3-2.191,9.048,9.048,0,0,1-1.934-6.187v-.844a10.328,10.328,0,0,1,.873-4.389,6.615,6.615,0,0,1,2.514-2.906,7.013,7.013,0,0,1,3.8-1.025A7.354,7.354,0,0,1,48.6,9.326a6.459,6.459,0,0,1,2.145,4.506h-4.1a3.056,3.056,0,0,0-.785-2.238,3.229,3.229,0,0,0-2.25-.68,2.457,2.457,0,0,0-2.25,1.148,7.381,7.381,0,0,0-.75,3.668v1.207a8.167,8.167,0,0,0,.686,3.9,2.509,2.509,0,0,0,2.361,1.172,3.159,3.159,0,0,0,2.168-.668,2.835,2.835,0,0,0,.8-2.121Zm6.059,2.613h7.16V25H52.654V7.938h4.113ZM79.361,16.82a10.062,10.062,0,0,1-.926,4.418A6.842,6.842,0,0,1,75.8,24.2a7.326,7.326,0,0,1-3.885,1.037,7.429,7.429,0,0,1-3.867-1,6.831,6.831,0,0,1-2.631-2.865,9.772,9.772,0,0,1-.99-4.277v-.961a10.106,10.106,0,0,1,.92-4.424,6.825,6.825,0,0,1,2.637-2.959,7.805,7.805,0,0,1,7.775-.012,6.948,6.948,0,0,1,2.643,2.936,9.816,9.816,0,0,1,.955,4.365Zm-4.184-.715a7.175,7.175,0,0,0-.85-3.861A2.725,2.725,0,0,0,71.9,10.926q-3.094,0-3.27,4.641l-.012,1.254a7.379,7.379,0,0,0,.832,3.855,2.721,2.721,0,0,0,2.473,1.348,2.688,2.688,0,0,0,2.4-1.324,7.178,7.178,0,0,0,.855-3.809ZM87.459,25V7.938h5.5a8.085,8.085,0,0,1,4.066,1.025,7.208,7.208,0,0,1,2.818,2.895,8.739,8.739,0,0,1,1.025,4.189v.785a8.79,8.79,0,0,1-.99,4.2,7.239,7.239,0,0,1-2.789,2.906A7.907,7.907,0,0,1,93.072,25Zm4.113-13.887V21.836H93a3.2,3.2,0,0,0,2.719-1.26,6.173,6.173,0,0,0,.949-3.744v-.738a6.123,6.123,0,0,0-.949-3.727,3.256,3.256,0,0,0-2.766-1.254Zm21.984,6.645h-6.469v4.078h7.641V25H102.975V7.938h11.777v3.176h-7.664v3.6h6.469ZM129,20.359l3.4-12.422h4.594L131.252,25h-4.5l-5.7-17.062h4.559ZM142.619,25h-4.1V7.938h4.1Zm2.859,0V7.938h5.5a8.085,8.085,0,0,1,4.066,1.025,7.208,7.208,0,0,1,2.818,2.895,8.739,8.739,0,0,1,1.025,4.189v.785a8.79,8.79,0,0,1-.99,4.2,7.239,7.239,0,0,1-2.789,2.906A7.907,7.907,0,0,1,151.092,25Zm4.113-13.887V21.836h1.43a3.2,3.2,0,0,0,2.719-1.26,6.173,6.173,0,0,0,.949-3.744v-.738a6.123,6.123,0,0,0-.949-3.727,3.256,3.256,0,0,0-2.766-1.254Zm21.094,10.7h-5.637L164.064,25H159.67l6.258-17.062h3.867L176.1,25h-4.418Zm-4.652-3.176H169.7l-1.84-5.918Z" transform="translate(163.531 245.601)" fill="#12263f"/>
  </g>
</svg>
