<svg id="Grupo_165874" data-name="Grupo 165874" xmlns="http://www.w3.org/2000/svg" xmlns:xlink="http://www.w3.org/1999/xlink" width="400" height="398.176" viewBox="0 0 400 398.176">
  <defs>
    <clipPath id="clip-path">
      <rect id="Rectángulo_51757" data-name="Rectángulo 51757" width="400" height="398.176" fill="none"/>
    </clipPath>
    <clipPath id="clip-path-2">
      <rect id="Rectángulo_51759" data-name="Rectángulo 51759" width="15.407" height="17.9" fill="#9ea257"/>
    </clipPath>
    <clipPath id="clip-path-4">
      <rect id="Rectángulo_51772" data-name="Rectángulo 51772" width="14.874" height="2.409" fill="none"/>
    </clipPath>
    <clipPath id="clip-path-5">
      <rect id="Rectángulo_51773" data-name="Rectángulo 51773" width="15.842" height="3.983" fill="none"/>
    </clipPath>
    <clipPath id="clip-path-8">
      <rect id="Rectángulo_51776" data-name="Rectángulo 51776" width="5.111" height="8.981" fill="none"/>
    </clipPath>
    <clipPath id="clip-path-9">
      <rect id="Rectángulo_51777" data-name="Rectángulo 51777" width="1.986" height="0.964" fill="none"/>
    </clipPath>
  </defs>
  <g id="Grupo_165875" data-name="Grupo 165875">
    <g id="Grupo_165845" data-name="Grupo 165845">
      <g id="Grupo_165844" data-name="Grupo 165844" clip-path="url(#clip-path)">
        <path id="Trazado_238281" data-name="Trazado 238281" d="M424.56,213.985l-7.952,4.251s3.569,6.676-3.305,10.5a7.3,7.3,0,0,1-8.426-.775A8.08,8.08,0,0,1,402,221.221c.16-2.945,2.035-6.546,7.9-8.466l-9.584-17.929-7.863,4.2,5.614,10.5s-9.5,8.744-3.007,20.9c6.216,11.628,18.086,8.754,22.549,6.368,3.414-1.824,14.6-8.865,6.951-22.813" transform="translate(-39.39 -19.555)" fill="#ebebeb"/>
        <rect id="Rectángulo_51751" data-name="Rectángulo 51751" width="9.048" height="8.45" transform="matrix(0.882, -0.471, 0.471, 0.882, 347.01, 168.379)" fill="#ebebeb"/>
        <path id="Trazado_238282" data-name="Trazado 238282" d="M75.713,35.339l7.377,2.55s2.14-6.194,8.616-4.081a6.315,6.315,0,0,1,4.463,5.807,6.992,6.992,0,0,1-2.59,5.794c-1.964,1.63-5.354,2.558-10.023-.036L77.808,62.005,85.1,64.526l3.367-9.743s11.144.891,15.04-10.383c3.728-10.787-5.08-16.636-9.22-18.066-3.167-1.095-14.219-4.056-18.576,9.005" transform="translate(-7.599 -2.535)" fill="#ebebeb"/>
        <rect id="Rectángulo_51752" data-name="Rectángulo 51752" width="7.315" height="7.833" transform="translate(66.615 69.804) rotate(-70.935)" fill="#ebebeb"/>
        <path id="Trazado_238283" data-name="Trazado 238283" d="M33.025,25.1l4.307-1.246a3.812,3.812,0,0,1,2.694-4.769,3.628,3.628,0,0,1,4.019,1.249,4.016,4.016,0,0,1,.7,3.577c-.382,1.416-1.666,2.974-4.718,3.3l2.81,9.713L47.1,35.7l-1.645-5.69a8.659,8.659,0,0,0,3.623-9.856c-1.822-6.3-7.894-6.128-10.312-5.429-1.85.535-8.019,2.8-5.74,10.381" transform="translate(-3.265 -1.444)" fill="#f5f5f5"/>
        <rect id="Rectángulo_51753" data-name="Rectángulo 51753" width="4.5" height="4.203" transform="matrix(0.961, -0.278, 0.278, 0.961, 40.142, 37.49)" fill="#f5f5f5"/>
        <path id="Trazado_238284" data-name="Trazado 238284" d="M424.821,152.476l-6.882-.19s-.159,5.778-6.167,5.715a5.57,5.57,0,0,1-5.294-3.7,6.17,6.17,0,0,1,.644-5.561c1.22-1.892,3.826-3.571,8.442-2.625l.428-15.517-6.8-.188-.251,9.089s-9.613,2.2-9.9,12.722c-.278,10.063,8.682,12.65,12.545,12.757,2.954.081,13.037-.355,13.243-12.5" transform="translate(-40.05 -13.089)" fill="#e0e0e0"/>
        <rect id="Rectángulo_51754" data-name="Rectángulo 51754" width="6.453" height="6.909" transform="matrix(0.028, -1, 1, 0.028, 369.144, 114.12)" fill="#e0e0e0"/>
        <path id="Trazado_238285" data-name="Trazado 238285" d="M289.833,416.978v22.751H359.8V416.978Z" transform="translate(-29.09 -41.852)" fill="#f5f5f5"/>
        <path id="Trazado_238286" data-name="Trazado 238286" d="M286.57,409.909v6.36h75.346v-6.36H286.57Z" transform="translate(-28.763 -41.142)" fill="#e0e0e0"/>
        <path id="Trazado_238287" data-name="Trazado 238287" d="M328.282,439.019h35.227V416.269h2.446v-6.36H326.814v5.772Z" transform="translate(-32.802 -41.142)" fill="#e0e0e0"/>
        <rect id="Rectángulo_51755" data-name="Rectángulo 51755" width="14.188" height="3.425" transform="translate(270.528 378.795)" fill="#e0e0e0"/>
        <rect id="Rectángulo_51756" data-name="Rectángulo 51756" width="18.219" height="7.231" transform="translate(268.702 386.502)" fill="#fff"/>
        <path id="Trazado_238288" data-name="Trazado 238288" d="M24.334,342.431A31.417,31.417,0,0,0,10.9,337.8c-2.2-.225-4.6-.161-6.357,1.17a1.309,1.309,0,0,0-.655,1.16,1.418,1.418,0,0,0,.623.793,19.212,19.212,0,0,0,19.828,1.5" transform="translate(-0.389 -33.895)" fill="#e0e0e0"/>
        <path id="Trazado_238289" data-name="Trazado 238289" d="M24.64,340.184a65.509,65.509,0,0,1-8.68-7.637,21.954,21.954,0,0,1-5.442-10.064,4.056,4.056,0,0,1,.43-3.367c6.919,5.4,12.354,12.392,13.691,21.068" transform="translate(-1.04 -32.03)" fill="#e0e0e0"/>
        <path id="Trazado_238290" data-name="Trazado 238290" d="M26.489,340.579a31.392,31.392,0,0,1,.161-11.4,15.409,15.409,0,0,1,6.07-9.4c1.2,2.794.682,6.014-.16,8.934a43.415,43.415,0,0,1-6.019,12.672" transform="translate(-2.614 -32.096)" fill="#e0e0e0"/>
        <path id="Trazado_238291" data-name="Trazado 238291" d="M32.187,356.409c-4.118.5-7.7,2.671-10.778,5.454a20.389,20.389,0,0,0-6.164,10.582c4.038-.249,7.464-3.1,9.949-6.29s4.207-6.7,6.936-9.685" transform="translate(-1.53 -35.773)" fill="#e0e0e0"/>
        <path id="Trazado_238292" data-name="Trazado 238292" d="M35.508,355.765a26.576,26.576,0,0,1,3.069-25.143c2.345,8.343,1.484,17.768-3.069,25.143" transform="translate(-3.378 -33.184)" fill="#e0e0e0"/>
        <path id="Trazado_238293" data-name="Trazado 238293" d="M43.594,370.427a19.223,19.223,0,0,0-18.379,10.579c-.228.455-.428,1.034-.123,1.441a1.364,1.364,0,0,0,1.218.359c3.622-.235,6.833-2.414,9.481-4.9s4.956-5.347,7.883-7.494" transform="translate(-2.503 -37.176)" fill="#e0e0e0"/>
        <path id="Trazado_238294" data-name="Trazado 238294" d="M45.186,366.944a34.234,34.234,0,0,1-.342-19.121c.674-2.46,1.8-5.052,4.081-6.206a.8.8,0,0,1,.624-.11.821.821,0,0,1,.394.457,11.525,11.525,0,0,1,.963,5.485,34.41,34.41,0,0,1-.86,5.553c-.716,3.394-1.1,7.041-2.959,9.968a20.223,20.223,0,0,0-1.184,2.19c-.353.744-.355,1.006-.678,1.6" transform="translate(-4.381 -34.274)" fill="#e0e0e0"/>
        <path id="Trazado_238295" data-name="Trazado 238295" d="M71.653,371.364c-1.757-6.685.108-14.79,4.321-20.27.31-.4.722-.836,1.228-.789.775.072.977,1.106.942,1.884a36.619,36.619,0,0,1-6.491,19.176" transform="translate(-7.126 -35.16)" fill="#e0e0e0"/>
        <path id="Trazado_238296" data-name="Trazado 238296" d="M74.1,374.557A29.484,29.484,0,0,0,98.3,369.636a19.592,19.592,0,0,0-13.1-1.608c-4.375,1-8.374,2.961-11.1,6.529" transform="translate(-7.438 -36.891)" fill="#e0e0e0"/>
        <path id="Trazado_238297" data-name="Trazado 238297" d="M76.109,368.974c4.549-7.416,13.27-12.257,21.959-12.7-1,3.534-3.905,6.281-7.183,7.941A39.872,39.872,0,0,1,80.344,367.3c-1.4.273-3.326.572-4.235,1.674" transform="translate(-7.639 -35.759)" fill="#e0e0e0"/>
        <path id="Trazado_238298" data-name="Trazado 238298" d="M71.877,343.528a63.813,63.813,0,0,0,2.809-12.86,21.417,21.417,0,0,0-2.561-12.721c-4.249,8.222-4.679,17.829-.375,26.022" transform="translate(-6.898 -31.912)" fill="#e0e0e0"/>
        <path id="Trazado_238299" data-name="Trazado 238299" d="M88.13,336.42c4.969-9.03,15.107-16.245,25.365-17.256-3.957,9.853-14.749,17.467-25.365,17.256" transform="translate(-8.846 -32.034)" fill="#e0e0e0"/>
        <path id="Trazado_238300" data-name="Trazado 238300" d="M84.655,340.147c7.41,1.129,13.725,5.862,20.649,8.731a9.253,9.253,0,0,0,4.668.894,3.655,3.655,0,0,0,2.289-6.465,9.988,9.988,0,0,0-3.391-2.057c-7.543-3.141-15.632-3.219-23.578-1.314" transform="translate(-8.497 -33.992)" fill="#e0e0e0"/>
        <path id="Trazado_238301" data-name="Trazado 238301" d="M79.889,346.049c1.678.48,2.251,1.349,3.58,2.48a38.63,38.63,0,0,0,15.659,8.044c.6.148,1.383.208,1.679-.333.259-.472-.068-1.044-.4-1.465a21.559,21.559,0,0,0-9.454-6.418c-3.614-1.346-6.745-2.968-11.058-2.62" transform="translate(-8.018 -34.697)" fill="#e0e0e0"/>
        <path id="Trazado_238302" data-name="Trazado 238302" d="M74.51,311.107a29.634,29.634,0,0,0,22.719,7.73,1.551,1.551,0,0,0,1.035-.372c.572-.622-.114-1.582-.781-2.1-6.68-5.208-14.77-7.367-22.973-5.257" transform="translate(-7.479 -31.145)" fill="#e0e0e0"/>
        <path id="Trazado_238303" data-name="Trazado 238303" d="M80.887,308.173a31.669,31.669,0,0,1,28.35-4.678,22.5,22.5,0,0,1-13.51,5.932,42.762,42.762,0,0,1-14.84-1.254" transform="translate(-8.119 -30.312)" fill="#e0e0e0"/>
        <path id="Trazado_238304" data-name="Trazado 238304" d="M77.925,290.59c-.656-6.667-.23-11.93-.693-18.629-.038-.535-.152-1.179-.653-1.372-.7-.268-1.278.588-1.507,1.3a21.357,21.357,0,0,0,2.843,18.554" transform="translate(-7.437 -27.154)" fill="#e0e0e0"/>
        <path id="Trazado_238305" data-name="Trazado 238305" d="M77.819,291.308a39.192,39.192,0,0,0,11.044-10.734c2.182-2.984,4.02-6.56,3.525-10.223a10.57,10.57,0,0,0-7.966,3.956,22.215,22.215,0,0,0-4.061,8.171c-.884,2.934-1.5,5.948-2.541,8.831" transform="translate(-7.811 -27.135)" fill="#e0e0e0"/>
        <path id="Trazado_238306" data-name="Trazado 238306" d="M89.865,288.432a89.043,89.043,0,0,0,27.18-16.026c-3.247-1.308-6.964-.525-10.21.784a32.2,32.2,0,0,0-17.112,15.169" transform="translate(-9.005 -27.274)" fill="#e0e0e0"/>
        <path id="Trazado_238307" data-name="Trazado 238307" d="M81.211,296.823A55.243,55.243,0,0,0,96.3,296.9c4.893-.818,9.517-2.757,14.089-4.682a1.654,1.654,0,0,0,.958-.727,1.1,1.1,0,0,0-.344-1.205,2.9,2.9,0,0,0-1.2-.563c-4.97-1.39-10.334-.739-15.226.91a70.628,70.628,0,0,0-13.367,6.194" transform="translate(-8.151 -29.003)" fill="#e0e0e0"/>
        <path id="Trazado_238308" data-name="Trazado 238308" d="M49.084,308.984c-3.423-6.909-3.2-14.973-.244-22.095,2.082,3.172,2.336,7.211,1.955,10.986s-1.529,7.659-1.6,11.452" transform="translate(-4.674 -28.795)" fill="#e0e0e0"/>
        <path id="Trazado_238309" data-name="Trazado 238309" d="M31.609,303.781a30.816,30.816,0,0,0-22.9,9.755,21.4,21.4,0,0,0,12.539-2.325,63.761,63.761,0,0,0,10.745-7.192" transform="translate(-0.874 -30.49)" fill="#e0e0e0"/>
        <path id="Trazado_238310" data-name="Trazado 238310" d="M21.542,300.32c-4.181-.339-8.2-.856-12.224.375A14.663,14.663,0,0,0,0,308.6a22.092,22.092,0,0,0,11.46-2.165,65.828,65.828,0,0,0,10.081-6.111" transform="translate(0 -30.103)" fill="#e0e0e0"/>
        <path id="Trazado_238311" data-name="Trazado 238311" d="M36.341,299.8c-3.761-2.465-7.623-4.974-12-6s-9.455-.266-12.509,3.034c3.545,2.08,7.847,2.326,11.957,2.323s9.15-.049,13.025,1.322" transform="translate(-1.187 -29.447)" fill="#e0e0e0"/>
        <path id="Trazado_238312" data-name="Trazado 238312" d="M38.287,297.809c-6.431-6.315-8.868-17.657-6.281-26.29a40.056,40.056,0,0,1,6.281,26.29" transform="translate(-3.11 -27.252)" fill="#e0e0e0"/>
        <path id="Trazado_238313" data-name="Trazado 238313" d="M58.755,278.54c1.213-2.819,2.066-5.778,3.153-8.648a24.865,24.865,0,0,1,4.5-7.973,11.841,11.841,0,0,1,7.964-4.128,32.075,32.075,0,0,1-15.457,20.793" transform="translate(-5.897 -25.874)" fill="#e0e0e0"/>
        <path id="Trazado_238314" data-name="Trazado 238314" d="M53.343,283.735c-2.007-2.763-4.325-6.512-7.047-8.574s-6.266-3.31-9.586-2.518a22.328,22.328,0,0,0,16.633,11.092" transform="translate(-3.685 -27.341)" fill="#e0e0e0"/>
        <path id="Trazado_238315" data-name="Trazado 238315" d="M55.53,278.8a47.673,47.673,0,0,1-3.172-10.273,16.021,16.021,0,0,1,1.608-10.446c3.53,6.673,4.667,13.835,1.744,20.794" transform="translate(-5.232 -25.903)" fill="#e0e0e0"/>
        <path id="Trazado_238316" data-name="Trazado 238316" d="M58.791,256.5c2-6.614,8.056-11.485,14.595-13.719a5.446,5.446,0,0,1,2.559-.383,2.22,2.22,0,0,1,1.887,1.573c.238,1.125-.691,2.134-1.565,2.882A49.683,49.683,0,0,1,58.791,256.5" transform="translate(-5.901 -24.326)" fill="#e0e0e0"/>
        <path id="Trazado_238317" data-name="Trazado 238317" d="M58.859,249.587c.255-4.265.52-8.591,1.907-12.632s4.061-7.832,7.95-9.6c.661,4.307-1.239,8.592-3.531,12.3s-5.054,7.205-6.431,11.34" transform="translate(-5.897 -22.82)" fill="#e0e0e0"/>
        <path id="Trazado_238318" data-name="Trazado 238318" d="M57.371,252.744c-1.653-4.82-1.824-10.943-4.71-15.143-2.018-2.936-5.249-4.934-6.987-8.045a12.242,12.242,0,0,0,.406,9.133,26.436,26.436,0,0,0,5.34,7.644c2.136,2.281,3.966,4,5.951,6.411" transform="translate(-4.513 -23.04)" fill="#e0e0e0"/>
        <path id="Trazado_238319" data-name="Trazado 238319" d="M58.763,397.1c-.129,0-.24-32.157-.249-71.817s.088-71.823.217-71.823.239,32.15.248,71.823-.088,71.817-.216,71.817" transform="translate(-5.873 -25.44)" fill="#e0e0e0"/>
        <path id="Trazado_238320" data-name="Trazado 238320" d="M86.888,306.054a6.926,6.926,0,0,1-1.209.454l-3.328,1.123c-2.805.955-6.659,2.339-10.842,4.054-4.142,1.777-8.048,3.219-10.272,5.147a7.538,7.538,0,0,0-2.065,2.73c-.319.755-.376,1.217-.418,1.209a.924.924,0,0,1,.013-.337A5.1,5.1,0,0,1,59,319.5a7.26,7.26,0,0,1,2.014-2.911,18.06,18.06,0,0,1,4.457-2.768c1.783-.832,3.76-1.7,5.857-2.562,4.2-1.719,8.08-3.059,10.917-3.937,1.418-.442,2.575-.768,3.377-.983a6.956,6.956,0,0,1,1.261-.281" transform="translate(-5.896 -30.718)" fill="#e0e0e0"/>
        <path id="Trazado_238321" data-name="Trazado 238321" d="M96.346,280.9a2,2,0,0,1-.339.362l-1.032.969-3.852,3.5L78.3,297.152c-5,4.455-9.33,8.711-12.328,11.917-1.5,1.6-2.683,2.926-3.489,3.852l-.932,1.064a1.982,1.982,0,0,1-.348.353,2.013,2.013,0,0,1,.275-.412c.194-.258.478-.643.865-1.121.766-.964,1.913-2.326,3.386-3.958A162.481,162.481,0,0,1,77.992,296.8c5.023-4.445,9.593-8.438,12.914-11.316l3.949-3.389,1.089-.9a2.027,2.027,0,0,1,.4-.292" transform="translate(-6.143 -28.194)" fill="#e0e0e0"/>
        <path id="Trazado_238322" data-name="Trazado 238322" d="M74.2,302.758c-.131-.058.914-2.473,1.956-5.526s1.546-5.629,1.68-5.607a18.84,18.84,0,0,1-1.239,5.756,37.565,37.565,0,0,1-1.557,3.865,6.012,6.012,0,0,1-.839,1.512" transform="translate(-7.446 -29.27)" fill="#e0e0e0"/>
        <path id="Trazado_238323" data-name="Trazado 238323" d="M56.744,323.015a5.763,5.763,0,0,1-.771-.9L54,319.587c-1.659-2.146-3.954-5.107-6.525-8.348s-4.937-6.148-6.649-8.251l-2.02-2.5a5.751,5.751,0,0,1-.7-.954,5.7,5.7,0,0,1,.834.837c.515.558,1.244,1.379,2.133,2.4,1.779,2.051,4.185,4.929,6.762,8.174s4.831,6.242,6.425,8.439c.8,1.1,1.431,2,1.858,2.623a5.72,5.72,0,0,1,.626,1" transform="translate(-3.825 -30.064)" fill="#e0e0e0"/>
        <path id="Trazado_238324" data-name="Trazado 238324" d="M51.618,315.758a11.324,11.324,0,0,1-2.581-4.833,13.785,13.785,0,0,1-.586-4.871l.205.016c-.092.372-.159.569-.2.563s-.038-.213-.008-.6l.206.017a22.153,22.153,0,0,0,.824,4.739,36.125,36.125,0,0,0,2.136,4.965" transform="translate(-4.86 -30.717)" fill="#e0e0e0"/>
        <path id="Trazado_238325" data-name="Trazado 238325" d="M41.579,305.5a8.293,8.293,0,0,0-1.8-1.047,12.054,12.054,0,0,0-5-.4,30.881,30.881,0,0,0-5.039.813,15.364,15.364,0,0,1-2.074.5,7.217,7.217,0,0,1,1.985-.814,23.008,23.008,0,0,1,5.092-.96,10.917,10.917,0,0,1,5.162.557,3.2,3.2,0,0,1,1.679,1.351" transform="translate(-2.776 -30.465)" fill="#e0e0e0"/>
        <path id="Trazado_238326" data-name="Trazado 238326" d="M38.854,302.694c-.035.072-1.05-.421-2.761-1.006a27.794,27.794,0,0,0-13.915-1.061c-1.78.318-2.857.652-2.882.576a2.6,2.6,0,0,1,.732-.312,17.152,17.152,0,0,1,2.084-.586,24.56,24.56,0,0,1,14.092,1.074,17.225,17.225,0,0,1,1.972.9,2.6,2.6,0,0,1,.677.419" transform="translate(-1.937 -30.085)" fill="#e0e0e0"/>
        <path id="Trazado_238327" data-name="Trazado 238327" d="M58.354,290.052a57.067,57.067,0,0,1-2.013-6.995,57.267,57.267,0,0,1-1.564-7.109,57.131,57.131,0,0,1,2.013,6.995,57.226,57.226,0,0,1,1.564,7.109" transform="translate(-5.497 -27.697)" fill="#e0e0e0"/>
        <path id="Trazado_238328" data-name="Trazado 238328" d="M58.282,290.779a33.7,33.7,0,0,0-2.232-4.188,18.4,18.4,0,0,0-3.285-3.39,3.061,3.061,0,0,1,1.268.654,10.2,10.2,0,0,1,2.4,2.469,9.29,9.29,0,0,1,1.851,4.455" transform="translate(-5.296 -28.424)" fill="#e0e0e0"/>
        <path id="Trazado_238329" data-name="Trazado 238329" d="M55.5,388.837c-.05.007-.145-.773-.507-2.138a30.478,30.478,0,0,0-2.148-5.568,77.09,77.09,0,0,0-11.4-16.063c-2.545-2.909-5.015-5.651-7.112-8.278a58.246,58.246,0,0,1-5.085-7.334,35.191,35.191,0,0,1-2.567-5.443c-.237-.671-.409-1.194-.5-1.556a2.621,2.621,0,0,1-.132-.556c.042-.013.276.737.805,2.048a39.9,39.9,0,0,0,2.682,5.341,61.53,61.53,0,0,0,5.135,7.231c2.1,2.6,4.578,5.329,7.128,8.241,5.15,5.782,9.184,11.611,11.348,16.226a27.771,27.771,0,0,1,2.028,5.667,15.812,15.812,0,0,1,.285,1.613,2.626,2.626,0,0,1,.047.569" transform="translate(-2.614 -34.316)" fill="#e0e0e0"/>
        <path id="Trazado_238330" data-name="Trazado 238330" d="M84.185,362.191a11.555,11.555,0,0,1-1.331.747A29.186,29.186,0,0,0,79.4,365.22a39.687,39.687,0,0,0-4.534,4.135c-1.591,1.681-3.23,3.634-4.9,5.725-3.345,4.2-6.473,7.91-8.346,10.874-.951,1.47-1.643,2.71-2.1,3.58a11.34,11.34,0,0,1-.733,1.34,1.322,1.322,0,0,1,.123-.377c.1-.239.234-.6.447-1.043a34.05,34.05,0,0,1,1.98-3.675,119.821,119.821,0,0,1,8.261-10.99c1.676-2.1,3.336-4.051,4.957-5.73a36.8,36.8,0,0,1,4.646-4.1,24.3,24.3,0,0,1,3.565-2.179c.441-.221.8-.357,1.038-.46a1.3,1.3,0,0,1,.376-.127" transform="translate(-5.901 -36.353)" fill="#e0e0e0"/>
        <path id="Trazado_238331" data-name="Trazado 238331" d="M85.612,372.531a19.3,19.3,0,0,1-2.813.408,37.1,37.1,0,0,0-6.672,1.314,20.037,20.037,0,0,0-5.973,3.134c-1.377,1.064-2.027,1.944-2.091,1.893a2.146,2.146,0,0,1,.417-.647,10.543,10.543,0,0,1,1.466-1.5,18.086,18.086,0,0,1,6.038-3.322,30.072,30.072,0,0,1,6.781-1.2,15.47,15.47,0,0,1,2.846-.082" transform="translate(-6.831 -37.387)" fill="#e0e0e0"/>
        <path id="Trazado_238332" data-name="Trazado 238332" d="M68.976,377.839c-.147-.084,1.121-2.02,2.1-4.624.923-2.628,1.139-4.933,1.3-4.907a4.482,4.482,0,0,1-.047,1.51,16.2,16.2,0,0,1-.82,3.555,17.228,17.228,0,0,1-1.632,3.261,4.537,4.537,0,0,1-.91,1.2" transform="translate(-6.922 -36.967)" fill="#e0e0e0"/>
        <path id="Trazado_238333" data-name="Trazado 238333" d="M92.41,334.424a2.1,2.1,0,0,1-.45.239l-1.322.6c-.578.248-1.282.563-2.074.981s-1.722.832-2.688,1.412l-1.535.873c-.532.306-1.058.669-1.618,1.019-1.131.686-2.264,1.532-3.474,2.395a59.612,59.612,0,0,0-13.38,13.846c-.82,1.239-1.627,2.4-2.274,3.554-.331.571-.677,1.11-.964,1.653l-.82,1.564c-.546.984-.937,1.926-1.319,2.734s-.681,1.519-.91,2.106l-.555,1.341a2.093,2.093,0,0,1-.224.458,2.048,2.048,0,0,1,.136-.489l.475-1.376c.2-.6.47-1.325.839-2.144s.733-1.779,1.264-2.778q.382-.761.8-1.587c.281-.551.621-1.1.947-1.677.637-1.17,1.436-2.348,2.254-3.6A57.464,57.464,0,0,1,78.994,341.6c1.225-.859,2.375-1.7,3.523-2.375.569-.346,1.1-.7,1.644-1l1.558-.852c.981-.564,1.924-.969,2.733-1.358s1.523-.689,2.115-.912l1.358-.522a2.084,2.084,0,0,1,.485-.152" transform="translate(-5.902 -33.566)" fill="#e0e0e0"/>
        <path id="Trazado_238334" data-name="Trazado 238334" d="M73.819,349.017a3.226,3.226,0,0,1,1.1-1.645,6.973,6.973,0,0,1,4.453-1.708,12.175,12.175,0,0,1,4.685.915,6.7,6.7,0,0,1,1.771.861,10.867,10.867,0,0,1-1.879-.551,14.147,14.147,0,0,0-4.563-.761,7.249,7.249,0,0,0-4.253,1.492,13.016,13.016,0,0,0-1.32,1.4" transform="translate(-7.409 -34.694)" fill="#e0e0e0"/>
        <path id="Trazado_238335" data-name="Trazado 238335" d="M70.48,351.9a11.886,11.886,0,0,0,.981-8.407,2.714,2.714,0,0,1,.523,1.2,8.508,8.508,0,0,1-.72,6.164c-.392.711-.739,1.078-.784,1.045" transform="translate(-7.073 -34.476)" fill="#e0e0e0"/>
        <path id="Trazado_238336" data-name="Trazado 238336" d="M34.1,399.2c.693,12.289,4.4,24.788,10.092,37.424h24.77c5.432-12.511,8.879-24.99,9.493-37.424Z" transform="translate(-3.423 -40.067)" fill="#e0e0e0"/>
        <path id="Trazado_238337" data-name="Trazado 238337" d="M74.881,421.274c0,.129-8.156.232-18.214.232s-18.216-.1-18.216-.232,8.154-.232,18.216-.232,18.214.1,18.214.232" transform="translate(-3.859 -42.26)" fill="#fafafa"/>
        <path id="Trazado_238338" data-name="Trazado 238338" d="M74.519,426.223c0,.129-7.646.232-17.075.232s-17.077-.1-17.077-.232,7.644-.232,17.077-.232,17.075.1,17.075.232" transform="translate(-4.052 -42.756)" fill="#fafafa"/>
        <path id="Trazado_238339" data-name="Trazado 238339" d="M45.74,408.164a70.241,70.241,0,0,1,0,11.411,70.241,70.241,0,0,1,0-11.411" transform="translate(-4.568 -40.967)" fill="#fafafa"/>
        <path id="Trazado_238340" data-name="Trazado 238340" d="M60.492,408.164a75.326,75.326,0,0,1,0,11.818,75.326,75.326,0,0,1,0-11.818" transform="translate(-6.048 -40.967)" fill="#fafafa"/>
        <path id="Trazado_238341" data-name="Trazado 238341" d="M74.341,408.053a78.344,78.344,0,0,1,0,12.052,78.346,78.346,0,0,1,0-12.052" transform="translate(-7.438 -40.956)" fill="#fafafa"/>
        <path id="Trazado_238342" data-name="Trazado 238342" d="M77.766,408.138c0,.129-9.566.233-21.363.233s-21.364-.1-21.364-.233,9.563-.232,21.364-.232,21.363.1,21.363.232" transform="translate(-3.517 -40.941)" fill="#fafafa"/>
      </g>
    </g>
    <rect id="Rectángulo_51758" data-name="Rectángulo 51758" width="60.443" height="8.305" transform="translate(304.027 346.938)" fill="#263238"/>
    <path id="Trazado_238343" data-name="Trazado 238343" d="M398.482,394.042H337.833V385.53h60.649Zm-60.443-.207h60.237v-8.1H338.039Z" transform="translate(-33.908 -38.695)" fill="#263238"/>
    <path id="Trazado_238344" data-name="Trazado 238344" d="M344.177,391.8l8.7,42.921h32.191l8.41-40.157Z" transform="translate(-34.545 -39.325)" fill="#263238"/>
    <path id="Trazado_238345" data-name="Trazado 238345" d="M344.177,435l4.64,6.38h39.128l5.534-6.38Z" transform="translate(-34.545 -43.661)" fill="#455a64"/>
    <g id="Grupo_165850" data-name="Grupo 165850">
      <g id="Grupo_165877" data-name="Grupo 165877">
        <path id="Trazado_238346" data-name="Trazado 238346" d="M368.976,383.288c-.119,0-.272-19.885-.34-44.408s-.029-44.413.09-44.413.272,19.88.34,44.412.029,44.408-.09,44.408" transform="translate(-36.996 -29.556)" fill="#263238"/>
        <path id="Trazado_238347" data-name="Trazado 238347" d="M383.363,337.885a2.132,2.132,0,0,1-.162.462c-.142.337-.32.764-.54,1.287l-.394.927c-.125.35-.259.727-.4,1.128s-.3.838-.466,1.3-.288.959-.447,1.476a60.269,60.269,0,0,0-1.69,7.4,90.153,90.153,0,0,0-.936,9.254,124.8,124.8,0,0,0,.478,16.906c.194,2.157.39,3.9.533,5.105.062.565.112,1.025.153,1.389a2.152,2.152,0,0,1,.024.489,2.049,2.049,0,0,1-.11-.477c-.061-.361-.139-.818-.233-1.378-.2-1.2-.437-2.939-.671-5.1a111.351,111.351,0,0,1-.6-16.955,84.509,84.509,0,0,1,.974-9.3,56.008,56.008,0,0,1,1.791-7.425c.169-.517.306-1.017.479-1.475s.343-.886.5-1.291l.438-1.122c.148-.338.3-.641.43-.916.25-.512.454-.928.615-1.258a2.078,2.078,0,0,1,.24-.425" transform="translate(-37.919 -33.913)" fill="#263238"/>
        <path id="Trazado_238348" data-name="Trazado 238348" d="M381.39,320.009a4.143,4.143,0,0,1-.192.656q-.235.69-.629,1.849l-.462,1.332-.486,1.606c-.354,1.151-.764,2.458-1.128,3.93l-.606,2.3-.566,2.514c-.423,1.731-.727,3.611-1.117,5.575-.666,3.949-1.252,8.315-1.657,12.921-.381,4.609-.548,9.013-.606,13.019-.013,4.007.039,7.617.2,10.644.053,1.515.15,2.883.228,4.084s.145,2.237.221,3.082q.093,1.221.148,1.948a4.1,4.1,0,0,1,.023.682,3.922,3.922,0,0,1-.109-.673q-.086-.725-.229-1.941c-.1-.843-.2-1.877-.3-3.079s-.22-2.57-.292-4.087c-.2-3.03-.286-6.646-.3-10.662.036-4.016.192-8.431.574-13.053.406-4.618,1.007-9,1.7-12.954.4-1.968.721-3.851,1.159-5.584q.308-1.3.593-2.516l.635-2.3c.384-1.47.815-2.775,1.191-3.921q.281-.857.522-1.6l.5-1.323q.444-1.143.706-1.824a4.028,4.028,0,0,1,.273-.624" transform="translate(-37.492 -32.119)" fill="#263238"/>
        <path id="Trazado_238349" data-name="Trazado 238349" d="M363.483,387.106a.964.964,0,0,1-.034-.232c-.015-.179-.033-.4-.057-.685-.043-.633-.1-1.514-.178-2.633-.145-2.319-.352-5.62-.606-9.685-.524-8.177-1.283-19.473-2.659-31.9-.7-6.211-1.518-12.11-2.366-17.458-.451-2.669-.859-5.21-1.322-7.572-.426-2.37-.883-4.566-1.305-6.57-.4-2.009-.84-3.808-1.2-5.4s-.688-2.949-.972-4.058c-.266-1.089-.477-1.946-.628-2.563-.062-.273-.112-.494-.153-.669a.986.986,0,0,1-.038-.232.923.923,0,0,1,.081.22l.193.659c.17.612.407,1.463.706,2.543.309,1.1.671,2.459,1.044,4.044s.843,3.38,1.26,5.388c.441,2,.918,4.2,1.358,6.566.479,2.363.9,4.9,1.364,7.576.87,5.352,1.7,11.256,2.4,17.474,1.377,12.436,2.088,23.742,2.535,31.925.222,4.092.377,7.4.47,9.694.041,1.121.074,2,.1,2.638.005.282.011.507.014.686a.956.956,0,0,1-.01.235" transform="translate(-35.327 -29.856)" fill="#263238"/>
        <path id="Trazado_238350" data-name="Trazado 238350" d="M366.349,304.538c-.263-2.817-3.109-4.943-5.938-4.971a9.35,9.35,0,0,0-7.2,3.906,22.51,22.51,0,0,0-3.465,7.691,52.249,52.249,0,0,0-2.132,20.466c.815,6.856,3.6,13.607,8.517,18.451.8.787,1.836,1.575,2.934,1.341a3.547,3.547,0,0,0,1.548-.956,45.8,45.8,0,0,0,14.864-34.828c-.076-2.607-.418-5.32-1.862-7.493s-4.81-4.478-7.268-3.607" transform="translate(-34.862 -30.067)" fill="#ced371"/>
        <path id="Trazado_238351" data-name="Trazado 238351" d="M343.269,278.863l-3.984,7.216c-.094.168-.216.357-.408.373-.21.017-.366-.181-.48-.357q-5.268-8.083-10.535-16.167l2.427-1.376Z" transform="translate(-32.907 -26.954)" fill="#ced371"/>
        <g id="Grupo_165848" data-name="Grupo 165848" transform="translate(295.019 241.959)" opacity="0.2">
          <g id="Grupo_165847" data-name="Grupo 165847">
            <g id="Grupo_165846" data-name="Grupo 165846" clip-path="url(#clip-path-2)">
              <path id="Trazado_238352" data-name="Trazado 238352" d="M343.269,278.863l-3.984,7.216c-.094.168-.216.357-.408.373-.21.017-.366-.181-.48-.357q-5.268-8.083-10.535-16.167l2.427-1.376Z" transform="translate(-327.862 -268.552)" fill="#9ea257"/>
            </g>
          </g>
        </g>
        <path id="Trazado_238353" data-name="Trazado 238353" d="M364.63,290.994l-35.936-21.205a1.672,1.672,0,0,1-.874-.883c-.144-.532.256-1.044.639-1.439a24.765,24.765,0,0,1,19.2-7.545,21.942,21.942,0,0,1,17.362,10.8c3.468,6.2,3.582,14.391-.395,20.274" transform="translate(-32.9 -26.082)" fill="#ced371"/>
        <path id="Trazado_238354" data-name="Trazado 238354" d="M334.552,263.358a2.01,2.01,0,0,1,.471-.059c.31-.015.767-.072,1.358-.066a26.97,26.97,0,0,1,4.986.4,29.147,29.147,0,0,1,23.26,21.046,27.08,27.08,0,0,1,.891,4.922,10.074,10.074,0,0,1,.055,1.047,1.768,1.768,0,0,1-.277.784,6.087,6.087,0,0,0,.055-1.814,30.5,30.5,0,0,0-1.017-4.856,29.353,29.353,0,0,0-23.021-20.83,30.6,30.6,0,0,0-4.933-.528c-1.174-.026-1.826-.005-1.828-.044" transform="translate(-33.579 -26.42)" fill="#263238"/>
        <path id="Trazado_238355" data-name="Trazado 238355" d="M361.89,278.2a8.7,8.7,0,0,1-1.816.826c-1.145.452-2.745,1.028-4.534,1.6s-3.43,1.02-4.626,1.313a8.6,8.6,0,0,1-1.96.373,9.8,9.8,0,0,1,1.878-.667l4.577-1.43,4.562-1.473a9.76,9.76,0,0,1,1.919-.539" transform="translate(-35.024 -27.922)" fill="#263238"/>
        <path id="Trazado_238356" data-name="Trazado 238356" d="M357.035,261.3a25.154,25.154,0,0,1,.2,8.035,25.148,25.148,0,0,1-.209-4.015,25.127,25.127,0,0,1,.005-4.02" transform="translate(-35.828 -26.227)" fill="#263238"/>
        <path id="Trazado_238357" data-name="Trazado 238357" d="M328.447,269.955a16.028,16.028,0,0,1,2.61-.918c1.632-.5,3.906-1.141,6.44-1.752s4.85-1.079,6.534-1.374a16.1,16.1,0,0,1,2.741-.372,19.309,19.309,0,0,1-2.683.67c-1.664.371-3.963.884-6.492,1.493s-4.808,1.2-6.458,1.627a19.522,19.522,0,0,1-2.693.625" transform="translate(-32.966 -26.651)" fill="#263238"/>
        <path id="Trazado_238358" data-name="Trazado 238358" d="M347.379,298c-3.09-2.344-6.359-2.805-10.234-2.652a31.292,31.292,0,0,0-11.2,2.891c-6.06,2.654-11.755,6.566-15.376,12.1s-4.88,12.866-2.17,18.9a2.693,2.693,0,0,0,1.227,1.489,2.93,2.93,0,0,0,2.028-.155c6.892-2.248,13.833-4.518,20.17-8.039s12.1-8.414,15.505-14.817a12.729,12.729,0,0,0,1.632-4.917,6.112,6.112,0,0,0-1.581-4.8" transform="translate(-30.807 -29.641)" fill="#ced371"/>
        <path id="Trazado_238359" data-name="Trazado 238359" d="M347.706,297.491a2.583,2.583,0,0,1-.5.2l-1.445.5-1.045.348c-.379.137-.783.307-1.222.476-.872.354-1.884.705-2.95,1.223l-1.69.77c-.586.271-1.17.6-1.79.919-1.25.614-2.513,1.4-3.859,2.192A61,61,0,0,0,318,317.493c-.959,1.233-1.9,2.388-2.666,3.548-.392.575-.8,1.112-1.14,1.659s-.667,1.074-.979,1.578c-.649.991-1.127,1.951-1.588,2.771-.224.413-.444.793-.628,1.151l-.479.993-.677,1.368a2.593,2.593,0,0,1-.263.467,2.381,2.381,0,0,1,.184-.5l.6-1.406q.205-.463.447-1.012c.173-.365.383-.751.6-1.171.443-.834.905-1.808,1.54-2.815l.96-1.6c.338-.555.738-1.1,1.125-1.683.76-1.177,1.694-2.346,2.652-3.595A59.031,59.031,0,0,1,333,303.779c1.36-.791,2.64-1.568,3.9-2.172.626-.311,1.219-.638,1.812-.9l1.711-.749c1.079-.5,2.1-.837,2.988-1.169.444-.159.854-.318,1.239-.444l1.061-.314,1.471-.421a2.489,2.489,0,0,1,.521-.118" transform="translate(-31.073 -29.859)" fill="#263238"/>
        <path id="Trazado_238360" data-name="Trazado 238360" d="M323.428,312.022a72.494,72.494,0,0,1-7.518,2.423,72.647,72.647,0,0,1-7.639,2.009,72.64,72.64,0,0,1,7.518-2.423,72.55,72.55,0,0,1,7.639-2.009" transform="translate(-30.941 -31.316)" fill="#263238"/>
        <path id="Trazado_238361" data-name="Trazado 238361" d="M324.753,328.682a12,12,0,0,1-.166-2.343c-.04-1.448-.046-3.45.016-5.66s.18-4.209.3-5.653a12,12,0,0,1,.3-2.329,13.482,13.482,0,0,1,.008,2.346c-.049,1.587-.109,3.516-.175,5.648s-.1,4.061-.141,5.648a13.375,13.375,0,0,1-.139,2.343" transform="translate(-32.576 -31.385)" fill="#263238"/>
        <path id="Trazado_238362" data-name="Trazado 238362" d="M340.429,320.386c-.119.008-.5-4.06-.844-9.084s-.534-9.108-.415-9.116.5,4.059.844,9.086.533,9.106.415,9.114" transform="translate(-34.039 -30.33)" fill="#263238"/>
        <path id="Trazado_238363" data-name="Trazado 238363" d="M320.909,301.739a13.418,13.418,0,0,1,2.41-.073c1.486.011,3.537.054,5.8.129s4.315.167,5.8.255a13.365,13.365,0,0,1,2.4.231,13.351,13.351,0,0,1-2.406.073c-1.486-.01-3.539-.054-5.806-.129s-4.316-.167-5.8-.256a13.264,13.264,0,0,1-2.4-.231" transform="translate(-32.209 -30.278)" fill="#263238"/>
        <path id="Trazado_238364" data-name="Trazado 238364" d="M358.81,351.593a2,2,0,0,1-.051-.481c-.017-.362-.038-.819-.064-1.382-.054-1.2-.067-2.94-.02-5.089s.185-4.707.444-7.538c.28-2.829.685-5.932,1.265-9.164.6-3.231,1.31-6.279,2.045-9.03.756-2.745,1.521-5.194,2.243-7.224s1.34-3.661,1.814-4.769c.222-.52.4-.942.547-1.276a2.065,2.065,0,0,1,.218-.435,2.1,2.1,0,0,1-.138.465l-.471,1.3c-.426,1.125-1.006,2.765-1.681,4.8s-1.415,4.487-2.147,7.229c-.712,2.747-1.412,5.786-2.005,9.005-.578,3.221-.993,6.31-1.294,9.128-.28,2.82-.456,5.367-.534,7.51s-.119,3.877-.116,5.078c-.007.562-.013,1.02-.018,1.382a1.994,1.994,0,0,1-.035.483" transform="translate(-35.997 -30.633)" fill="#263238"/>
        <path id="Trazado_238365" data-name="Trazado 238365" d="M359.72,330.615a9.916,9.916,0,0,1-1.433,1.573c-.93.927-2.25,2.172-3.756,3.492s-2.914,2.467-3.955,3.267a9.92,9.92,0,0,1-1.747,1.215,11.109,11.109,0,0,1,1.555-1.451l3.863-3.355,3.832-3.391a11.08,11.08,0,0,1,1.642-1.351" transform="translate(-35.012 -33.183)" fill="#263238"/>
        <path id="Trazado_238366" data-name="Trazado 238366" d="M372.446,339.171a16.933,16.933,0,0,1-1.527-2.115l-3.551-5.182c-1.378-1.949-2.623-3.713-3.626-5.131a16.754,16.754,0,0,1-1.452-2.167,14.592,14.592,0,0,1,1.7,1.985c1,1.266,2.33,3.05,3.735,5.068s2.612,3.889,3.453,5.264a14.568,14.568,0,0,1,1.271,2.28" transform="translate(-36.363 -32.577)" fill="#263238"/>
        <path id="Trazado_238367" data-name="Trazado 238367" d="M365.046,308.769c.064.1-3.714,2.644-8.438,5.681s-8.608,5.419-8.672,5.319,3.713-2.643,8.439-5.681,8.608-5.418,8.672-5.319" transform="translate(-34.922 -30.991)" fill="#263238"/>
        <path id="Trazado_238368" data-name="Trazado 238368" d="M377.556,320.338a140.378,140.378,0,0,1-11.129-10.87,140.8,140.8,0,0,1,11.129,10.87" transform="translate(-36.778 -31.061)" fill="#263238"/>
        <path id="Trazado_238369" data-name="Trazado 238369" d="M381.776,318.646l3.243-.268a16.058,16.058,0,0,0,6.55-2.005,26.179,26.179,0,0,1,3.053-1.534c4.01-1.609,8.484-1.322,12.8-1.538a53,53,0,0,0,20.363-5.207,1.979,1.979,0,0,0,.887-.805c.666-1.213-.571-2.294-1.636-2.95-5.464-3.367-11.027-6.777-17.224-8.449s-13.231-1.388-18.519,2.25c-6.207,4.272-8.468,13.046-9.517,20.507" transform="translate(-38.319 -29.6)" fill="#ced371"/>
        <path id="Trazado_238370" data-name="Trazado 238370" d="M428.753,307.233a3.238,3.238,0,0,1-.55-.256l-1.537-.805c-1.333-.7-3.253-1.736-5.678-2.9a53.09,53.09,0,0,0-8.789-3.388,29.036,29.036,0,0,0-11.393-.923,19.479,19.479,0,0,0-10.385,4.459,23.118,23.118,0,0,0-5.408,7.6,63.531,63.531,0,0,0-2.353,5.915c-.24.678-.432,1.222-.578,1.635a3.26,3.26,0,0,1-.227.562,3.2,3.2,0,0,1,.144-.589l.5-1.662a53.925,53.925,0,0,1,2.236-5.99,23,23,0,0,1,5.421-7.765,19.7,19.7,0,0,1,10.592-4.59,29,29,0,0,1,11.554.968,51.151,51.151,0,0,1,8.817,3.5c2.417,1.2,4.316,2.28,5.626,3.026l1.5.876a3.146,3.146,0,0,1,.507.332" transform="translate(-38.326 -29.943)" fill="#263238"/>
        <path id="Trazado_238371" data-name="Trazado 238371" d="M423.24,311.471c-.067.1-4.308-2.646-9.474-6.128s-9.3-6.388-9.235-6.486,4.308,2.645,9.475,6.129,9.3,6.386,9.234,6.485" transform="translate(-40.603 -29.996)" fill="#263238"/>
        <path id="Trazado_238372" data-name="Trazado 238372" d="M419.6,298.6a10.329,10.329,0,0,1-3.088.555,10.444,10.444,0,0,1-3.15-.04,80.82,80.82,0,0,1,6.238-.515" transform="translate(-41.489 -29.968)" fill="#263238"/>
        <path id="Trazado_238373" data-name="Trazado 238373" d="M399.3,295.918a8.2,8.2,0,0,1-1.392,2.174,9.274,9.274,0,0,1-1.762,2,8.213,8.213,0,0,1,1.392-2.174,9.339,9.339,0,0,1,1.762-2" transform="translate(-39.76 -29.701)" fill="#263238"/>
        <path id="Trazado_238374" data-name="Trazado 238374" d="M402.44,314.638a11.263,11.263,0,0,1-2.042-1.107c-1.225-.744-2.882-1.834-4.651-3.118s-3.33-2.5-4.45-3.39a12.583,12.583,0,0,1-1.762-1.51,12.177,12.177,0,0,1,1.944,1.267L396,310.064c1.764,1.28,3.384,2.4,4.564,3.211a13.862,13.862,0,0,1,1.877,1.363" transform="translate(-39.097 -30.664)" fill="#263238"/>
        <path id="Trazado_238375" data-name="Trazado 238375" d="M386.237,336.449c-3.094-.817-6.781,2.192-7.419,5.328s.538,6.343,1.915,9.232a47.1,47.1,0,0,0,12.794,16.739,31.637,31.637,0,0,0,19.562,7.2c-1.308-6.075.346-12.422-.382-18.594a24.185,24.185,0,0,0-21.421-21.207c-1.975-.214-4.26-.524-5.048,1.3" transform="translate(-38.004 -33.622)" fill="#ced371"/>
        <path id="Trazado_238376" data-name="Trazado 238376" d="M413.936,375.113a2.023,2.023,0,0,1-.44-.205,7.958,7.958,0,0,1-1.158-.776,12.084,12.084,0,0,1-3.054-4.086c-.494-.957-1.044-2-1.583-3.149l-1.664-3.679a35.6,35.6,0,0,0-2.046-3.932,30.791,30.791,0,0,0-2.815-3.828c-2.118-2.488-4.39-4.64-6.36-6.7a43.707,43.707,0,0,1-4.85-5.819,21.347,21.347,0,0,1-2.37-4.527,13.863,13.863,0,0,1-.414-1.327,2,2,0,0,1-.1-.475c.04-.011.215.632.667,1.742a23.4,23.4,0,0,0,2.465,4.414,46.109,46.109,0,0,0,4.883,5.715c1.979,2.034,4.264,4.181,6.405,6.694a30.592,30.592,0,0,1,2.846,3.886,34.978,34.978,0,0,1,2.048,3.989l1.627,3.694c.519,1.145,1.056,2.2,1.53,3.159a12.483,12.483,0,0,0,2.891,4.1c.9.779,1.516,1.069,1.49,1.11" transform="translate(-38.851 -33.786)" fill="#263238"/>
        <path id="Trazado_238377" data-name="Trazado 238377" d="M399.147,372.261a9.307,9.307,0,0,1,.284-2.083c.242-1.274.64-3.023,1.175-4.928s1.112-3.606,1.57-4.818a9.24,9.24,0,0,1,.846-1.924,11.387,11.387,0,0,1-.557,2.023c-.383,1.234-.909,2.939-1.444,4.836s-.975,3.626-1.293,4.878a11.279,11.279,0,0,1-.581,2.017" transform="translate(-40.061 -35.983)" fill="#263238"/>
        <path id="Trazado_238378" data-name="Trazado 238378" d="M414.623,356.845a12.7,12.7,0,0,1-2.179-.5c-1.333-.347-3.175-.824-5.222-1.286s-3.916-.819-5.27-1.076a12.625,12.625,0,0,1-2.183-.481,10.6,10.6,0,0,1,2.232.18c1.37.182,3.257.495,5.316.958s3.9.99,5.212,1.414a10.641,10.641,0,0,1,2.094.793" transform="translate(-40.125 -35.479)" fill="#263238"/>
        <path id="Trazado_238379" data-name="Trazado 238379" d="M386.386,360.248a12.461,12.461,0,0,1,.334-2.409c.272-1.478.705-3.508,1.284-5.726s1.194-4.2,1.679-5.623a12.468,12.468,0,0,1,.887-2.266,14.9,14.9,0,0,1-.6,2.357c-.408,1.441-.974,3.431-1.552,5.642s-1.055,4.222-1.4,5.679a14.946,14.946,0,0,1-.632,2.346" transform="translate(-38.78 -34.55)" fill="#263238"/>
        <path id="Trazado_238380" data-name="Trazado 238380" d="M406.471,342.57c-.013.118-3.875-.194-8.626-.7s-8.593-1.008-8.581-1.126,3.874.194,8.627.7,8.592,1.008,8.58,1.126" transform="translate(-39.07 -34.198)" fill="#263238"/>
        <path id="Trazado_238381" data-name="Trazado 238381" d="M398.48,394.814c0,.119-13.576.215-30.32.215s-30.323-.1-30.323-.215,13.573-.215,30.323-.215,30.32.1,30.32.215" transform="translate(-33.909 -39.606)" fill="#455a64"/>
        <path id="Trazado_238382" data-name="Trazado 238382" d="M390.187,414.235c0,.119-9.147.215-20.429.215s-20.431-.1-20.431-.215,9.145-.215,20.431-.215,20.429.1,20.429.215" transform="translate(-35.062 -41.555)" fill="#455a64"/>
        <path id="Trazado_238383" data-name="Trazado 238383" d="M389.873,417.011c0,.119-8.988.215-20.073.215s-20.075-.1-20.075-.215,8.986-.215,20.075-.215,20.073.1,20.073.215" transform="translate(-35.102 -41.834)" fill="#455a64"/>
        <path id="Trazado_238384" data-name="Trazado 238384" d="M390.428,411.946c0,.119-9.462.216-21.131.216s-21.132-.1-21.132-.216,9.46-.215,21.132-.215,21.131.1,21.131.215" transform="translate(-34.945 -41.325)" fill="#455a64"/>
      </g>
    </g>
    <g id="Grupo_165852" data-name="Grupo 165852">
      <g id="Grupo_165878" data-name="Grupo 165878">
        <path id="Trazado_238385" data-name="Trazado 238385" d="M303.456,103.088c-2.767-13.365-16.375-56.776-75.08-54.305-29.15,1.227-45.261,15.027-53.643,26.386a65.756,65.756,0,0,0-11.343,24.649l-.066.372H130.8v-.451c0-.132.029-13.313,1.423-19.929l.88.185c-1.231,5.839-1.383,16.928-1.4,19.294h30.874a67.556,67.556,0,0,1,11.407-24.624c8.5-11.532,24.827-25.541,54.352-26.783,24.08-1.017,43.339,5.557,57.234,19.533,12.546,12.618,17.142,27.651,18.764,35.489Z" transform="translate(-13.129 -4.796)" fill="#ffb500"/>
        <path id="Trazado_238386" data-name="Trazado 238386" d="M248.061,312.5H199.386V173.855l.527.094c45.976,8.1,65.929-12.27,73.73-25.133,9.216-15.195,10.83-33.527,4.318-49.04-4.02-9.573-16.654-31.765-47.417-31.254-15.057.259-35.3,5.009-46.206,26.161a62.613,62.613,0,0,0-6.624,25.568v.45H116.63l0-.445c-.055-5.144,0-22.591,0-22.767l0-.5,7.528.791V109.03l44.05-.06a73.325,73.325,0,0,1,10.809-25.813c7.973-11.8,23.214-25.775,50.637-25.775.3,0,.586,0,.884,0,20.061.218,36.619,7.274,47.881,20.4,12.137,14.148,15.8,32.842,14.052,45.093-.006.233-1.154,28.422-22.341,47.2-14.785,13.1-35.593,18.618-61.862,16.39V229.53h9.074V195.14l.488.042a95.874,95.874,0,0,0,24.5-1.851c12.365-2.537,29.421-8.776,40.452-24.1,19.831-27.543,20.045-43.119,20.2-54.492.013-.917.024-1.8.047-2.666l-.1-2.272h13.5l.037.411c.024.28,2.161,28.37-21.247,59.88-14.567,19.61-31.631,32.235-48.047,35.55l-.178-.882c16.2-3.271,33.07-15.773,47.5-35.2,21.654-29.149,21.265-55.289,21.1-58.856H303.871l.058,1.365c-.022.888-.034,1.771-.047,2.684-.158,11.494-.373,27.234-20.37,55.006-11.207,15.564-28.5,21.891-41.027,24.457a98.429,98.429,0,0,1-24.245,1.894v34.318H207.366V185.494l.49.043c26.236,2.312,46.983-3.108,61.665-16.119,20.9-18.517,22.043-46.336,22.051-46.615,1.726-12.1-1.885-30.495-13.839-44.428-11.089-12.928-27.413-19.875-47.21-20.09-27.576-.294-42.812,13.62-50.745,25.347a71.641,71.641,0,0,0-10.751,25.856l-.059.38-45.713.062V98.592l-5.732-.6c-.008,2.812-.045,16.737,0,21.812h59.3a64.036,64.036,0,0,1,6.7-25.5c6.132-11.907,19.264-26.2,47-26.679.365-.006.733-.01,1.1-.01,30.49,0,43.123,22.188,47.165,31.816,6.623,15.776,4.986,34.414-4.377,49.854-6.673,11-22.089,27.414-54.579,27.416a115.146,115.146,0,0,1-19.549-1.772V311.6h47.776Z" transform="translate(-11.703 -5.759)" fill="#ffb500"/>
        <path id="Trazado_238387" data-name="Trazado 238387" d="M260.892,306.288h-.9V225.305l.337-.087a125.291,125.291,0,0,0,42.19-22.544c19.224-15.571,42.139-44.209,42.139-92.214,0-37.715-15.255-68.014-44.117-87.62C276.7,6.646,248.062.9,230.779.9c-25.5,0-87,6.491-107.236,66.619a122.785,122.785,0,0,0-3.693,16.744l-.892-.121a123.478,123.478,0,0,1,3.73-16.9C143.112,6.55,205.083,0,230.779,0c17.411,0,46.261,5.786,70.268,22.1,29.119,19.781,44.51,50.338,44.51,88.364,0,48.377-23.112,77.24-42.5,92.936A127.324,127.324,0,0,1,260.892,226Z" transform="translate(-11.94 0)" fill="#ffb500"/>
        <path id="Trazado_238388" data-name="Trazado 238388" d="M255.695,255.236l-.9,0,.062-36.194.381-.059c.1-.015,10.2-1.637,23.3-8.713,12.084-6.527,29.268-19.164,42.5-42.3,18.877-33,15.449-58.411,15.412-58.664-2.233-32.58-15.045-57.943-38.085-75.421-24.071-18.261-51.8-22.147-66.192-22.838-11.245-.539-30.82,1.354-48.959,8.468-24.584,9.643-40.9,25.978-48.5,48.552l-.852-.287c7.686-22.838,24.179-39.358,49.023-49.1,18.272-7.166,38-9.072,49.33-8.529,14.492.7,42.427,4.612,66.691,23.02,23.257,17.642,36.189,43.226,38.437,76.043.033.221,3.517,25.912-15.527,59.206-13.348,23.339-30.692,36.085-42.891,42.667a84.379,84.379,0,0,1-23.174,8.724Z" transform="translate(-13.436 -1.009)" fill="#ffb500"/>
        <path id="Trazado_238389" data-name="Trazado 238389" d="M265.176,328.645h-36.1v-.9h35.2l.048-27.966.9,0Z" transform="translate(-22.992 -30.089)" fill="#ffb500"/>
        <path id="Trazado_238390" data-name="Trazado 238390" d="M228,324.772h-9.676V261.189h10.125v55.586h-.9V262.088h-8.326v61.784H228Z" transform="translate(-21.913 -26.215)" fill="#ffb500"/>
        <path id="Trazado_238391" data-name="Trazado 238391" d="M157.847,88.251H141.722l.013-.463c.519-16.944,7.5-28.044,13.268-34.373a45.054,45.054,0,0,1,11.93-9.482l-8.574-7.388.587-.682,9.619,8.287-.638.292c-.241.111-24.083,11.4-25.276,42.909h14.834c.718-3.148,6.4-25.881,21.849-31.865l-5.047-5.271c-1.885.574-14.476,5.228-21.471,28.439l-.861-.26c7.7-25.558,21.777-28.991,22.373-29.124l.248-.056,6.366,6.649-.659.231c-16.552,5.8-21.943,31.536-22,31.795l-.073.361Z" transform="translate(-14.225 -3.6)" fill="#ffb500"/>
        <path id="Trazado_238392" data-name="Trazado 238392" d="M187.545,48.783,167.472,30.124l.613-.659,19.457,18.087a40,40,0,0,1,8.3-5.36,69.85,69.85,0,0,1,26.514-6.873c24.269-1.712,41.569,2.873,49.244,7.417l6.664-11.208c-5.146-2.26-52.692-22.01-91.526.478l-.451-.779c41.315-23.923,92.3-.549,92.812-.31l.45.211L271.907,43.98l-.389-.241c-7.353-4.549-24.616-9.249-49.1-7.523-23.32,1.644-34.459,12.165-34.569,12.271Z" transform="translate(-16.809 -2.054)" fill="#ffb500"/>
        <path id="Trazado_238393" data-name="Trazado 238393" d="M259.255,290.082l-.9-.016,1.372-76.661.439,0c25.8-.187,61.848-37.04,72.167-65.957,14.4-40.348,2.7-68.6-9.66-85.2a97.574,97.574,0,0,0-30.236-26.467l-6.555,11.881c4.416,1.872,37.87,17.268,38.144,53.381l14.194.116-.006.9-15.086-.122v-.447c0-38.173-37.665-53.038-38.045-53.183l-.482-.184,7.468-13.535.385.191a97.687,97.687,0,0,1,30.919,26.9c12.5,16.778,24.347,45.33,9.807,86.07-5.812,16.286-17.864,33.245-33.064,46.528-14.068,12.293-28.79,19.744-39.505,20.019Z" transform="translate(-25.931 -3.471)" fill="#ffb500"/>
        <path id="Trazado_238394" data-name="Trazado 238394" d="M249.593,309.607H237.317l.008-.458,1.427-79.167-.032-5.279H249.8V299.62h-.9V225.6h-9.276l.027,4.385-1.419,78.72h11.361Z" transform="translate(-23.819 -22.553)" fill="#ffb500"/>
        <path id="Trazado_238395" data-name="Trazado 238395" d="M337.138,210.815c-.766-.94-5.713-5.929-6.949-7.167-.047-.048-.089-.089-.127-.129l-.13-.129,0,0a.393.393,0,0,1-.118-.447l.344-.31c.1-.019.16-.029.382.151l.025-.024.255.256-.008.009c.46.43,1.318,1.3,3.031,3.045,2.259,2.3,3.6,3.706,3.987,4.181Z" transform="translate(-33.101 -20.337)" fill="#ffb500"/>
        <rect id="Rectángulo_51761" data-name="Rectángulo 51761" width="8.935" height="0.899" transform="translate(269.943 22.216) rotate(-51.744)" fill="#ffb500"/>
        <path id="Trazado_238396" data-name="Trazado 238396" d="M302.75,123.175c-.722,0-1.407-.007-2.018-.028l.03-.9c1.428.048,3.277.023,5.067,0s3.661-.049,5.109,0l-.031.9c-1.428-.046-3.276-.022-5.066,0-1.041.013-2.1.027-3.091.027" transform="translate(-30.184 -12.267)" fill="#ffb500"/>
        <rect id="Rectángulo_51762" data-name="Rectángulo 51762" width="0.9" height="10.287" transform="translate(132.361 103.807)" fill="#ffb500"/>
        <rect id="Rectángulo_51763" data-name="Rectángulo 51763" width="0.9" height="8.852" transform="translate(215.664 52.758)" fill="#ffb500"/>
        <rect id="Rectángulo_51764" data-name="Rectángulo 51764" width="0.9" height="11.258" transform="translate(296.967 163.998) rotate(-66.36)" fill="#ffb500"/>
        <rect id="Rectángulo_51765" data-name="Rectángulo 51765" width="0.9" height="10.818" transform="translate(254.026 179.364) rotate(-37.384)" fill="#ffb500"/>
        <rect id="Rectángulo_51766" data-name="Rectángulo 51766" width="10.957" height="0.899" transform="translate(318.157 79.469) rotate(-15.552)" fill="#e8505b"/>
        <path id="Trazado_238397" data-name="Trazado 238397" d="M270.6,412.459H208.434V365.168h.9V411.56H269.7V355.238H208.884v-.9H270.6Z" transform="translate(-20.92 -35.565)" fill="#ffb500"/>
        <path id="Trazado_238398" data-name="Trazado 238398" d="M263.2,403.864H217.381V376h36.914v16.631h-27.24v-8.016H244.9v.9h-16.95v6.216H253.4V376.9H218.281v26.069H262.3V367.158h-53.37v-.9H263.2Z" transform="translate(-20.971 -36.761)" fill="#ffb500"/>
        <rect id="Rectángulo_51767" data-name="Rectángulo 51767" width="0.9" height="9.792" transform="translate(207.053 366.653)" fill="#ffb500"/>
        <rect id="Rectángulo_51768" data-name="Rectángulo 51768" width="7.447" height="0.9" transform="translate(241.783 345.094)" fill="#ffb500"/>
        <rect id="Rectángulo_51769" data-name="Rectángulo 51769" width="0.9" height="8.15" transform="translate(213.506 339.685)" fill="#ffb500"/>
        <rect id="Rectángulo_51770" data-name="Rectángulo 51770" width="8.896" height="0.9" transform="translate(187.963 353.01)" fill="#ffb500"/>
      </g>
    </g>
    <path id="Trazado_238399" data-name="Trazado 238399" d="M159.35,108.832l-3.152.791-1.3,1.158,1.729.438,3.83-1.094Z" transform="translate(-15.547 -10.923)" fill="#455a64"/>
    <g id="Grupo_165860" data-name="Grupo 165860">
      <g id="Grupo_165859" data-name="Grupo 165859" clip-path="url(#clip-path)">
        <path id="Trazado_238400" data-name="Trazado 238400" d="M170.956,109.814l-4.739-5.805H161.36l-3.08,3.554a1.428,1.428,0,0,0,.19.576,2.21,2.21,0,0,0-1.684.182l2.8,7.417,5.326,5.331,6.735-1.874Zm-7.345,2.725-2.488-1.185a6.87,6.87,0,0,0-1.79-2.753,1.468,1.468,0,0,0,.257,0,3.152,3.152,0,0,0,.941-.323c2.133-1.066,2.725-1.3,2.725-1.3l1.362,2.488Z" transform="translate(-15.736 -10.439)" fill="#ffbe9d"/>
        <path id="Trazado_238401" data-name="Trazado 238401" d="M168.093,108.043c-.1.076-.838-.74-1.638-1.825a6.572,6.572,0,0,1-1.261-2.1c.1-.077.838.74,1.638,1.825a6.563,6.563,0,0,1,1.261,2.1" transform="translate(-16.579 -10.449)" fill="#eb996e"/>
        <path id="Trazado_238402" data-name="Trazado 238402" d="M163.61,112.974a11.4,11.4,0,0,1-2.738-.782l-.1-.036-.032-.114a7,7,0,0,0-.584-1.435,3.725,3.725,0,0,0-2.138-1.932c-.729-.139-1.2.169-1.23.081-.014-.024.077-.12.288-.228a1.762,1.762,0,0,1,.994-.181,3.7,3.7,0,0,1,2.5,2.034,6.313,6.313,0,0,1,.6,1.551l-.136-.149a11.429,11.429,0,0,1,2.587,1.191" transform="translate(-15.736 -10.874)" fill="#eb996e"/>
        <path id="Trazado_238403" data-name="Trazado 238403" d="M160.574,109.867l11.1-2.95a.8.8,0,0,0-.389-1.545l-11.82,3.2a5.168,5.168,0,0,1,1.107,1.293" transform="translate(-16.006 -10.574)" fill="#455a64"/>
        <path id="Trazado_238404" data-name="Trazado 238404" d="M66.261,264.417l6.729-3.638.255,2.5L69.849,276a27.267,27.267,0,0,1-2.612-5.7s-1.078-4.728-1.08-5.07a3.291,3.291,0,0,1,.1-.806" transform="translate(-6.64 -26.174)" fill="#ffbe9d"/>
        <path id="Trazado_238405" data-name="Trazado 238405" d="M127.473,411.939l1.149,27.077,14.621-.327-1.1-27.132Z" transform="translate(-12.794 -41.308)" fill="#455a64"/>
        <path id="Trazado_238406" data-name="Trazado 238406" d="M136.564,437.813c.122-.006-.1-5.936-.506-13.242s-.826-13.226-.948-13.219.1,5.935.506,13.243.826,13.224.948,13.217" transform="translate(-13.558 -41.287)" fill="#263238"/>
        <path id="Trazado_238407" data-name="Trazado 238407" d="M128.662,439.962l14.623-.376.077,1.915-14.621.327Z" transform="translate(-12.914 -44.121)" fill="#263238"/>
        <path id="Trazado_238408" data-name="Trazado 238408" d="M143,431.629c.021-.018-.114-.228-.4-.574a10.194,10.194,0,0,0-1.367-1.332,9.937,9.937,0,0,0-2.433-1.473,7.785,7.785,0,0,0-9.022,2.11,6.7,6.7,0,0,0-.995,1.638,1.875,1.875,0,0,0-.2.672,15.263,15.263,0,0,1,1.433-2.106,7.788,7.788,0,0,1,5.37-2.5,8.944,8.944,0,0,1,5.656,1.909c1.268.939,1.9,1.712,1.96,1.658" transform="translate(-12.905 -42.919)" fill="#263238"/>
        <g id="Grupo_165855" data-name="Grupo 165855" transform="translate(115.032 381.57)" opacity="0.3">
          <g id="Grupo_165854" data-name="Grupo 165854">
            <g id="Grupo_165853" data-name="Grupo 165853" clip-path="url(#clip-path-4)">
              <path id="Trazado_238409" data-name="Trazado 238409" d="M127.866,424.141l.212,2.409h14.662l-.1-2.409Z" transform="translate(-127.866 -424.141)"/>
            </g>
          </g>
        </g>
        <path id="Trazado_238410" data-name="Trazado 238410" d="M70.794,414.054l-.522,16.239s-16.335,6.18-16.45,9.24l31.921-.4.748-25.334Z" transform="translate(-5.402 -41.533)" fill="#455a64"/>
        <path id="Trazado_238411" data-name="Trazado 238411" d="M82.66,430.4a1.316,1.316,0,0,1,.946,1.481,1.266,1.266,0,0,1-1.46.949,1.389,1.389,0,0,1-.992-1.573,1.312,1.312,0,0,1,1.627-.82" transform="translate(-8.141 -43.194)" fill="#e0e0e0"/>
        <path id="Trazado_238412" data-name="Trazado 238412" d="M85.725,441.725l-.038-2.048-30.974,1.015a2.433,2.433,0,0,0-1.065,1.614Z" transform="translate(-5.385 -44.13)" fill="#263238"/>
        <path id="Trazado_238413" data-name="Trazado 238413" d="M71.786,432.24c.009.157.8.211,1.583.7.8.468,1.215,1.14,1.358,1.074.144-.034-.112-.97-1.074-1.544s-1.9-.372-1.867-.229" transform="translate(-7.205 -43.368)" fill="#263238"/>
        <path id="Trazado_238414" data-name="Trazado 238414" d="M68.065,433.892c-.032.154.656.4,1.206,1.058.569.637.721,1.353.877,1.343.148.022.236-.9-.463-1.7s-1.619-.849-1.619-.7" transform="translate(-6.832 -43.543)" fill="#263238"/>
        <path id="Trazado_238415" data-name="Trazado 238415" d="M65.89,438.146c.144.031.345-.761-.08-1.614s-1.168-1.178-1.232-1.044c-.085.131.4.582.74,1.287.354.7.415,1.359.571,1.371" transform="translate(-6.481 -43.707)" fill="#263238"/>
        <path id="Trazado_238416" data-name="Trazado 238416" d="M72,427.962c.069.142.786-.092,1.677-.052.892.021,1.591.3,1.67.166.088-.116-.6-.683-1.651-.714s-1.776.479-1.7.6" transform="translate(-7.226 -42.894)" fill="#263238"/>
        <path id="Trazado_238417" data-name="Trazado 238417" d="M71.273,423.8a3.034,3.034,0,0,0,1.614-.046,7.234,7.234,0,0,0,1.676-.559,7.557,7.557,0,0,0,.915-.513,1.979,1.979,0,0,0,.479-.391.686.686,0,0,0,.053-.838.864.864,0,0,0-.7-.344,2.089,2.089,0,0,0-.6.1,5.933,5.933,0,0,0-1,.368,5.7,5.7,0,0,0-1.465,1.012c-.731.71-.973,1.3-.919,1.332.073.05.426-.451,1.172-1.04a6.48,6.48,0,0,1,1.421-.845,6.037,6.037,0,0,1,.92-.308c.339-.1.63-.106.721.043.033.058.038.08-.031.182a1.6,1.6,0,0,1-.352.285,8.594,8.594,0,0,1-.841.507,8.91,8.91,0,0,1-1.546.634,11.179,11.179,0,0,0-1.519.422" transform="translate(-7.154 -42.266)" fill="#263238"/>
        <g id="Grupo_165858" data-name="Grupo 165858" transform="translate(64.966 381.765)" opacity="0.3">
          <g id="Grupo_165857" data-name="Grupo 165857">
            <g id="Grupo_165856" data-name="Grupo 165856" clip-path="url(#clip-path-5)">
              <path id="Trazado_238418" data-name="Trazado 238418" d="M88.056,424.358l-.111,3.738-15.732.246.148-3.387Z" transform="translate(-72.214 -424.358)"/>
            </g>
          </g>
        </g>
        <path id="Trazado_238419" data-name="Trazado 238419" d="M82.417,121.392l7.744,32.74,18.4-2.446-1.352-10.44s6.715.109,7.293-6.214c.193-2.1-1.441-11.4-3.052-19.838a14.85,14.85,0,1,0-29.038,6.2" transform="translate(-8.232 -10.35)" fill="#ffbe9d"/>
        <path id="Trazado_238420" data-name="Trazado 238420" d="M99.174,102.153c1.584.58,1.183,1.361,1.516,2.073s1.717.655,3.088,1.2a14.937,14.937,0,0,1,5.33,4.608c.827,1.557.333,1.761.179,2.637s1.108,5.3,1.289,6.087c.342,1.481,1,5.849,1,5.849l-1.322.7s-.694-4.788-2.256-4.762-1.938,1.651-2.016,2.1a7,7,0,0,0-1,2.213c-.345,2.093-.191,5.139-.348,7.055-.244,2.958-3.487,7.34-3.487,7.34l-14.4,1.328s-6.521-14.753-6.945-18.6,1.053-9,3.218-12.47a16.94,16.94,0,0,1,3.81-3.879,28.611,28.611,0,0,1,3.271-1.949,15.745,15.745,0,0,1,8.022-1.587Z" transform="translate(-8.003 -10.244)" fill="#263238"/>
        <path id="Trazado_238421" data-name="Trazado 238421" d="M113.163,132.106c.023.009-.031.234-.31.526a2.232,2.232,0,0,1-1.546.639,2.98,2.98,0,0,1-2.233-1.082,5.242,5.242,0,0,1-1.135-2.8,8.985,8.985,0,0,1,.816-5.313,3.157,3.157,0,0,1,1.125-1.219,1.015,1.015,0,0,1,.572-.2,3.959,3.959,0,0,0-1.4,1.577,9.525,9.525,0,0,0-.644,5.1,5.028,5.028,0,0,0,1,2.58,2.711,2.711,0,0,0,1.909,1.033,2.2,2.2,0,0,0,1.421-.444c.29-.224.4-.411.432-.39" transform="translate(-10.825 -12.31)" fill="#eb996e"/>
        <path id="Trazado_238422" data-name="Trazado 238422" d="M111.658,130.288c.043.049-.309.272-.806,0a2.071,2.071,0,0,1-.821-1.743,2.8,2.8,0,0,1,.614-1.8c.316-.383.609-.5.641-.456a4.619,4.619,0,0,0-.785,2.25,2.083,2.083,0,0,0,.54,1.478c.308.261.6.21.619.273" transform="translate(-11.044 -12.674)" fill="#eb996e"/>
        <path id="Trazado_238423" data-name="Trazado 238423" d="M75.839,250.124l-6.757,28.154V409.795l20.272.6L91.133,332.2l10.2-48.4,9.383,49.74,9.414,74.856,18.061-.521s-3.066-31.687-2.53-40.538-3.158-36.747-3.158-36.747.578-46.583-.385-52.182c-1.086-6.311-2.009-26.737-2.009-27.541Z" transform="translate(-6.934 -25.105)" fill="#263238"/>
        <path id="Trazado_238424" data-name="Trazado 238424" d="M102.471,287.872a31.952,31.952,0,0,1-3.284.718c-2.03.419-4.819,1.06-7.854,1.94s-5.733,1.838-7.672,2.571a31.684,31.684,0,0,1-3.157,1.153,3.4,3.4,0,0,1,.79-.444c.52-.261,1.286-.61,2.245-1.017a70.719,70.719,0,0,1,15.587-4.529c1.026-.17,1.86-.286,2.44-.345a3.406,3.406,0,0,1,.905-.048" transform="translate(-8.08 -28.892)" fill="#455a64"/>
        <path id="Trazado_238425" data-name="Trazado 238425" d="M125.185,285.113a2.77,2.77,0,0,1-.735.351c-.484.2-1.2.455-2.087.738a41.613,41.613,0,0,1-14.438,1.823c-.933-.052-1.687-.121-2.2-.2a2.774,2.774,0,0,1-.8-.157,30.06,30.06,0,0,1,3.013.022,52.462,52.462,0,0,0,14.336-1.81c1.795-.479,2.889-.839,2.915-.77" transform="translate(-10.531 -28.616)" fill="#455a64"/>
        <path id="Trazado_238426" data-name="Trazado 238426" d="M123.705,306.934c-.092.092-4.37-4.029-9.557-9.2s-9.318-9.444-9.228-9.536,4.37,4.029,9.559,9.2,9.317,9.443,9.226,9.535" transform="translate(-10.531 -28.926)" fill="#455a64"/>
        <path id="Trazado_238427" data-name="Trazado 238427" d="M75.25,255.157l8.663-.309,1.059-4.606-8.514-.117Z" transform="translate(-7.553 -25.105)" fill="#455a64"/>
        <path id="Trazado_238428" data-name="Trazado 238428" d="M89.026,250.3l-.8,4.878h30.418l.086-4.469Z" transform="translate(-8.856 -25.122)" fill="#455a64"/>
        <path id="Trazado_238429" data-name="Trazado 238429" d="M125.038,250.79v4.434H135.91l-.188-4.288Z" transform="translate(-12.55 -25.172)" fill="#455a64"/>
        <path id="Trazado_238430" data-name="Trazado 238430" d="M82.927,361.168c-.124.037-1.689-4.811-3.5-10.827s-3.17-10.927-3.046-10.964,1.689,4.81,3.5,10.829,3.169,10.925,3.046,10.962" transform="translate(-7.666 -34.063)" fill="#455a64"/>
        <path id="Trazado_238431" data-name="Trazado 238431" d="M129.548,357.206a63.5,63.5,0,0,1-4.411-6.318,63.733,63.733,0,0,1-4.02-6.574,63.279,63.279,0,0,1,4.412,6.318,63.586,63.586,0,0,1,4.019,6.574" transform="translate(-12.156 -34.559)" fill="#455a64"/>
        <path id="Trazado_238432" data-name="Trazado 238432" d="M77.14,164.415s-11.749,4.9-13.238,10.1c-1.649,5.754-3.341,18.417-3.341,18.417V226.3s-2.523,11.239-2.05,15.972,5.6,13.132,5.6,13.132l8.281-4.023,2.6-11.746.481-35.814-.946-17.746Z" transform="translate(-5.867 -16.502)" fill="#a3314f"/>
        <path id="Trazado_238433" data-name="Trazado 238433" d="M78.73,162.742,86.54,156.5l.379-5.321,20.118-3.433,2.255,4.551,9.039,2.436,6.049-1.807,1.476,3.444,7.516,23.058-5.679,33.836s3.366,17.958,2.936,27.33l-54.267-.746c-1.4-1.714-1.618-4.78-1.34-8.406l-.73-45.472Z" transform="translate(-7.457 -14.829)" fill="#a3314f"/>
        <path id="Trazado_238434" data-name="Trazado 238434" d="M124.014,161.876a1.836,1.836,0,0,1-.463.13l-1.344.281-4.95.984c-4.179.834-9.939,2.039-16.267,3.525s-12.024,2.977-16.137,4.091l-4.87,1.324-1.328.347a1.9,1.9,0,0,1-.472.09,1.84,1.84,0,0,1,.445-.181l1.3-.432c1.134-.367,2.784-.87,4.831-1.467,4.093-1.2,9.783-2.738,16.12-4.228S113,163.7,117.195,162.945c2.1-.377,3.8-.661,4.98-.838l1.359-.2a1.87,1.87,0,0,1,.48-.036" transform="translate(-7.847 -16.247)" fill="#263238"/>
        <path id="Trazado_238435" data-name="Trazado 238435" d="M89.792,216.456a10.218,10.218,0,0,1,1.171-1.066l3.265-2.813c2.747-2.385,6.48-5.75,10.434-9.646s7.372-7.583,9.8-10.294l2.86-3.224a10.045,10.045,0,0,1,1.083-1.155,10.169,10.169,0,0,1-.943,1.271c-.629.8-1.567,1.94-2.751,3.325-2.365,2.773-5.756,6.5-9.717,10.411s-7.742,7.239-10.548,9.564c-1.4,1.165-2.554,2.086-3.366,2.7a9.992,9.992,0,0,1-1.286.925" transform="translate(-9.012 -18.895)" fill="#263238"/>
        <path id="Trazado_238436" data-name="Trazado 238436" d="M126.22,205.929a1.731,1.731,0,0,1-.273.367l-.852.993c-.742.86-1.854,2.071-3.26,3.536a140.9,140.9,0,0,1-24.418,20.2c-1.7,1.107-3.1,1.972-4.084,2.541l-1.134.65a1.671,1.671,0,0,1-.412.2,1.7,1.7,0,0,1,.363-.28l1.088-.724c.953-.615,2.321-1.522,4-2.662,3.354-2.276,7.9-5.558,12.664-9.5s8.836-7.792,11.7-10.66c1.433-1.433,2.58-2.607,3.363-3.428l.916-.933a1.726,1.726,0,0,1,.343-.3" transform="translate(-9.213 -20.669)" fill="#263238"/>
        <path id="Trazado_238437" data-name="Trazado 238437" d="M118.148,244.234a55.318,55.318,0,0,0,3.741-6.151,55.251,55.251,0,0,0,2.457-6.767,7.4,7.4,0,0,1-.311,2.111,24.266,24.266,0,0,1-4.434,9.242,7.377,7.377,0,0,1-1.452,1.564" transform="translate(-11.858 -23.217)" fill="#263238"/>
        <path id="Trazado_238438" data-name="Trazado 238438" d="M130.269,151.665l20.315-.829,9.937-4.732,1.1-13.9-.9-9.835,8.549-2.533s7.1,18.219,6.862,24.845c-.08,2.231-.213,4.43-.355,6.368a11.831,11.831,0,0,1-6.317,9.606L138.99,176.626Z" transform="translate(-13.075 -12.028)" fill="#a3314f"/>
        <path id="Trazado_238439" data-name="Trazado 238439" d="M76.021,197.468a18.826,18.826,0,0,1-1.18-4.026,18.968,18.968,0,0,1-.724-4.136,19,19,0,0,1,1.18,4.027,19.148,19.148,0,0,1,.724,4.135" transform="translate(-7.436 -19.001)" fill="#263238"/>
        <path id="Trazado_238440" data-name="Trazado 238440" d="M75.942,190.956A2.422,2.422,0,0,1,76,191.5c.022.408.048.925.08,1.563.051,1.419.121,3.367.207,5.749.13,4.91.308,11.59.5,18.97a64.384,64.384,0,0,1-.262,10.468c-.207,1.609-.663,3.089-.9,4.474a11.868,11.868,0,0,0-.149,2.036c-.045.66-.088,1.3-.13,1.9a21.006,21.006,0,0,0,.156,5.695,4.09,4.09,0,0,0,.571,1.416,4.281,4.281,0,0,1,.349.411c0,.006-.044-.019-.116-.076a2.127,2.127,0,0,1-.308-.277,3.831,3.831,0,0,1-.674-1.429,19.684,19.684,0,0,1-.309-5.759q.047-.911.1-1.9a12.041,12.041,0,0,1,.127-2.083c.227-1.434.662-2.89.854-4.472a67.061,67.061,0,0,0,.22-10.4c-.142-7.381-.272-14.062-.367-18.973-.023-2.382-.043-4.332-.058-5.752,0-.638.006-1.156.009-1.564a2.372,2.372,0,0,1,.034-.546" transform="translate(-7.524 -19.166)" fill="#263238"/>
        <path id="Trazado_238441" data-name="Trazado 238441" d="M136.733,172.9a12.029,12.029,0,0,1-.957-2.234c-.531-1.4-1.218-3.356-1.92-5.532s-1.284-4.164-1.672-5.613a12.155,12.155,0,0,1-.527-2.371,12.844,12.844,0,0,1,.845,2.277l1.8,5.564c.673,2.094,1.281,3.989,1.788,5.567a12.973,12.973,0,0,1,.644,2.342" transform="translate(-13.213 -15.773)" fill="#263238"/>
        <path id="Trazado_238442" data-name="Trazado 238442" d="M68.869,239.347a8.53,8.53,0,0,1-5.213-6.357,24.4,24.4,0,0,0,2.153,3.551,24.257,24.257,0,0,0,3.061,2.806" transform="translate(-6.387 -23.385)" fill="#263238"/>
        <path id="Trazado_238443" data-name="Trazado 238443" d="M75.2,255.415a5.344,5.344,0,0,1-1.269,1.617,11.9,11.9,0,0,1-9.145,3.269,5.373,5.373,0,0,1-2.006-.445c.018-.08.783.085,2.024.114a13.232,13.232,0,0,0,8.9-3.183c.941-.811,1.429-1.422,1.492-1.372" transform="translate(-6.301 -25.636)" fill="#263238"/>
        <path id="Trazado_238444" data-name="Trazado 238444" d="M174.455,125.67c.018.14-2.228.467-4.861,1.357-2.639.874-4.629,1.964-4.7,1.842a17.9,17.9,0,0,1,9.559-3.2" transform="translate(-16.55 -12.61)" fill="#263238"/>
        <path id="Trazado_238445" data-name="Trazado 238445" d="M172.5,121.6c.014.067-.186.148-.262.42-.093.277.054.633.453.56a.4.4,0,0,0,.242-.678c-.161-.231-.377-.243-.386-.31-.033-.051.272-.206.623.079a.818.818,0,1,1-1.232.21c.237-.385.577-.34.562-.281" transform="translate(-17.246 -12.196)" fill="#263238"/>
        <path id="Trazado_238446" data-name="Trazado 238446" d="M110.758,152.8a3.408,3.408,0,0,1-.884.229l-2.436.462-8.044,1.468-8.036,1.516-2.44.443a3.467,3.467,0,0,1-.908.1,3.391,3.391,0,0,1,.869-.282c.567-.152,1.39-.354,2.411-.588,2.041-.471,4.874-1.069,8.018-1.653s6-1.042,8.076-1.334c1.037-.147,1.878-.255,2.461-.316a3.474,3.474,0,0,1,.912-.049" transform="translate(-8.834 -15.335)" fill="#263238"/>
        <path id="Trazado_238447" data-name="Trazado 238447" d="M72.741,186.044a2.184,2.184,0,0,1-.205-.7,13.572,13.572,0,0,1-.252-1.954,38.648,38.648,0,0,1,.221-6.477c.265-2.514.6-4.773.824-6.409a19.513,19.513,0,0,1,.417-2.644,12.4,12.4,0,0,1-.088,2.681c-.139,1.651-.423,3.918-.687,6.421a53.619,53.619,0,0,0-.356,6.414c.026,1.642.2,2.648.126,2.664" transform="translate(-7.249 -16.848)" fill="#263238"/>
        <path id="Trazado_238448" data-name="Trazado 238448" d="M97.437,203.855c-.114-.06,2.771-5.771,6.445-12.753s6.745-12.6,6.86-12.536-2.771,5.769-6.445,12.754-6.745,12.6-6.86,12.535" transform="translate(-9.779 -17.923)" fill="#263238"/>
        <path id="Trazado_238449" data-name="Trazado 238449" d="M143.957,170.908a11.811,11.811,0,0,1-.773,1.981c-.506,1.206-1.168,2.886-1.782,4.781s-1.06,3.646-1.357,4.92a11.9,11.9,0,0,1-.534,2.058,8.118,8.118,0,0,1,.21-2.124,36.433,36.433,0,0,1,3.162-9.772,8.142,8.142,0,0,1,1.074-1.844" transform="translate(-14 -17.154)" fill="#263238"/>
        <path id="Trazado_238450" data-name="Trazado 238450" d="M70.118,182.988a8.862,8.862,0,0,1-1.152.312c-.713.178-1.7.434-2.771.753s-2.038.643-2.733.883a8.643,8.643,0,0,1-1.134.367,6.54,6.54,0,0,1,1.089-.491c.686-.273,1.645-.617,2.725-.939s2.073-.557,2.8-.7a6.514,6.514,0,0,1,1.18-.184" transform="translate(-6.256 -18.366)" fill="#e0e0e0"/>
        <path id="Trazado_238451" data-name="Trazado 238451" d="M104.873,185c.014.049-6.379,1.936-14.279,4.213s-14.319,4.083-14.333,4.034,6.378-1.936,14.281-4.214,14.317-4.083,14.331-4.033" transform="translate(-7.654 -18.569)" fill="#e0e0e0"/>
        <path id="Trazado_238452" data-name="Trazado 238452" d="M134.157,176.564c.018.049-5.7,2.161-12.763,4.717s-12.81,4.589-12.827,4.54,5.7-2.16,12.764-4.717,12.808-4.589,12.826-4.54" transform="translate(-10.897 -17.722)" fill="#e0e0e0"/>
        <path id="Trazado_238453" data-name="Trazado 238453" d="M128.158,166.313s-.191.063-.559.164l-1.611.436-5.937,1.565c-5.015,1.311-11.949,3.106-19.626,5.009s-14.656,3.533-19.718,4.655l-6,1.3-1.635.336c-.374.075-.573.1-.573.1s.193-.055.565-.141l1.627-.371,5.987-1.356c5.053-1.155,12.022-2.806,19.7-4.709l19.638-4.955,5.951-1.508,1.62-.4c.372-.09.569-.128.569-.128" transform="translate(-7.277 -16.693)" fill="#e0e0e0"/>
        <path id="Trazado_238454" data-name="Trazado 238454" d="M117.6,154.768c.013.05-8.537,2.217-19.092,4.837s-19.125,4.707-19.138,4.656,8.534-2.216,19.093-4.838,19.124-4.706,19.137-4.656" transform="translate(-7.967 -15.534)" fill="#e0e0e0"/>
        <path id="Trazado_238455" data-name="Trazado 238455" d="M143.168,155.179a.575.575,0,0,1,.033.167c.019.156.039.315.059.484.049.42.1,1.03.148,1.786a47.822,47.822,0,0,1-.771,11.778c-.144.743-.274,1.341-.379,1.752l-.121.471a.609.609,0,0,1-.055.162.59.59,0,0,1,.018-.17c.028-.154.057-.312.087-.479.1-.527.2-1.109.319-1.76a56.116,56.116,0,0,0,.769-11.748c-.032-.66-.062-1.251-.088-1.787-.008-.169-.016-.329-.024-.486a.631.631,0,0,1,0-.171" transform="translate(-14.26 -15.575)" fill="#e0e0e0"/>
        <path id="Trazado_238456" data-name="Trazado 238456" d="M158.233,170.669a.608.608,0,0,1-.036-.17c-.022-.157-.045-.319-.068-.491-.052-.426-.139-1.043-.258-1.8a46.151,46.151,0,0,0-3.373-11.483c-.309-.7-.57-1.268-.757-1.655-.073-.157-.141-.3-.208-.45a.634.634,0,0,1-.062-.163.6.6,0,0,1,.1.146c.076.139.157.282.24.434.207.378.487.936.812,1.634A40.653,40.653,0,0,1,158,168.187c.1.764.17,1.384.2,1.814.012.173.022.336.032.495a.63.63,0,0,1,0,.174" transform="translate(-15.404 -15.503)" fill="#e0e0e0"/>
        <path id="Trazado_238457" data-name="Trazado 238457" d="M170.8,163.2a4.065,4.065,0,0,1-.233-.587l-.6-1.61c-.517-1.355-1.289-3.206-2.276-5.186s-2-3.709-2.775-4.937l-.927-1.447a3.911,3.911,0,0,1-.329-.539,4.142,4.142,0,0,1,.389.5c.243.326.578.81.979,1.416a48.155,48.155,0,0,1,5.064,10.15c.244.685.428,1.243.543,1.634a4.045,4.045,0,0,1,.164.61" transform="translate(-16.427 -14.944)" fill="#e0e0e0"/>
        <path id="Trazado_238458" data-name="Trazado 238458" d="M178.663,144.045a3.175,3.175,0,0,1-.556-.077l-1.5-.267c-1.268-.224-3.023-.516-4.969-.782s-3.715-.454-5-.578l-1.518-.145a3.158,3.158,0,0,1-.556-.075,3.237,3.237,0,0,1,.56,0c.361.012.882.04,1.525.086,1.286.09,3.061.258,5.011.524s3.7.58,4.969.838c.631.129,1.141.24,1.491.325a3.332,3.332,0,0,1,.542.149" transform="translate(-16.517 -14.264)" fill="#e0e0e0"/>
        <path id="Trazado_238459" data-name="Trazado 238459" d="M176.6,130.6a2.081,2.081,0,0,1-.448.008c-.289-.009-.7-.014-1.218-.009a25.346,25.346,0,0,0-7.876,1.313c-.487.162-.879.3-1.148.4a2.1,2.1,0,0,1-.426.138,2.028,2.028,0,0,1,.4-.205c.262-.122.648-.282,1.133-.461a21.794,21.794,0,0,1,7.92-1.321c.517.013.933.037,1.22.068a2.129,2.129,0,0,1,.445.065" transform="translate(-16.609 -13.094)" fill="#e0e0e0"/>
        <path id="Trazado_238460" data-name="Trazado 238460" d="M96.587,201.787c.012.05-4.432,1.091-9.924,2.324s-9.954,2.192-9.965,2.141,4.431-1.091,9.925-2.324,9.953-2.191,9.964-2.141" transform="translate(-7.698 -20.253)" fill="#e0e0e0"/>
        <path id="Trazado_238461" data-name="Trazado 238461" d="M105.1,204.253a26.756,26.756,0,0,1-3.152-.109,26.856,26.856,0,0,1-3.141-.3,26.287,26.287,0,0,1,3.152.109,26.617,26.617,0,0,1,3.141.3" transform="translate(-9.918 -20.458)" fill="#e0e0e0"/>
        <path id="Trazado_238462" data-name="Trazado 238462" d="M135.464,191.983c.013.05-5.134,1.425-11.495,3.071s-11.53,2.94-11.543,2.89,5.133-1.425,11.5-3.071,11.528-2.94,11.541-2.89" transform="translate(-11.284 -19.269)" fill="#e0e0e0"/>
        <path id="Trazado_238463" data-name="Trazado 238463" d="M88.838,218.46c.009.051-2.578.554-5.777,1.123s-5.8.99-5.811.938,2.577-.553,5.778-1.123,5.8-.99,5.81-.938" transform="translate(-7.754 -21.926)" fill="#e0e0e0"/>
        <path id="Trazado_238464" data-name="Trazado 238464" d="M121.325,210.784c.008.051-5.858,1.027-13.1,2.18s-13.123,2.047-13.131,2,5.857-1.027,13.1-2.181,13.122-2.046,13.13-1.994" transform="translate(-9.544 -21.156)" fill="#e0e0e0"/>
        <path id="Trazado_238465" data-name="Trazado 238465" d="M134.334,211.737a1.649,1.649,0,0,1-.4.058l-1.089.1c-.919.082-2.188.205-3.584.38s-2.657.37-3.568.518l-1.079.173a1.6,1.6,0,0,1-.4.042,1.676,1.676,0,0,1,.387-.113c.251-.062.616-.142,1.07-.232.907-.182,2.167-.4,3.568-.574s2.675-.278,3.6-.326c.462-.024.836-.037,1.095-.039a1.648,1.648,0,0,1,.4.014" transform="translate(-12.467 -21.25)" fill="#e0e0e0"/>
        <path id="Trazado_238466" data-name="Trazado 238466" d="M98.661,230.925a1.113,1.113,0,0,1-.216.1l-.632.264c-.55.229-1.355.533-2.358.885a62.568,62.568,0,0,1-16.242,3.331c-1.062.072-1.922.109-2.516.115l-.685.006a1.094,1.094,0,0,1-.239-.011,1.2,1.2,0,0,1,.238-.027l.683-.041c.593-.029,1.45-.086,2.508-.175a69.232,69.232,0,0,0,16.21-3.325c1.008-.335,1.818-.62,2.375-.828l.644-.23a1.15,1.15,0,0,1,.229-.068" transform="translate(-7.605 -23.178)" fill="#e0e0e0"/>
        <path id="Trazado_238467" data-name="Trazado 238467" d="M131.7,225.257s-.111.049-.327.126l-.946.326c-.824.282-2.022.668-3.508,1.127-2.973.918-7.113,2.084-11.739,3.16s-8.858,1.851-11.933,2.336c-1.535.244-2.781.425-3.644.534l-.994.125c-.228.026-.349.031-.349.031s.119-.03.345-.068l.989-.159,3.635-.593c3.065-.519,7.288-1.317,11.91-2.389s8.762-2.219,11.743-3.1l3.523-1.07.958-.292c.22-.065.339-.09.339-.09" transform="translate(-9.862 -22.609)" fill="#e0e0e0"/>
        <path id="Trazado_238468" data-name="Trazado 238468" d="M115.562,242.2s-.136.034-.4.081l-1.147.194c-1,.169-2.442.386-4.233.627-3.581.487-8.547,1.019-14.054,1.32s-10.5.3-14.117.206c-1.806-.048-3.267-.106-4.275-.166l-1.161-.07c-.265-.018-.4-.037-.4-.037s.139-.006.406,0l1.162.035c1.009.038,2.47.076,4.275.107,3.61.062,8.6.035,14.1-.261s10.465-.811,14.047-1.264c1.791-.225,3.24-.421,4.239-.568l1.152-.16c.264-.034.4-.043.4-.043" transform="translate(-7.605 -24.309)" fill="#e0e0e0"/>
        <path id="Trazado_238469" data-name="Trazado 238469" d="M134.612,239.846a2.533,2.533,0,0,1-.5.015l-1.35-.016c-1.14-.016-2.714-.026-4.452,0s-3.312.1-4.45.155l-1.349.065a2.6,2.6,0,0,1-.5,0,2.421,2.421,0,0,1,.49-.076c.318-.037.777-.079,1.347-.124,1.137-.091,2.713-.178,4.455-.21s3.32,0,4.459.049c.57.024,1.032.051,1.35.076a2.594,2.594,0,0,1,.493.058" transform="translate(-12.247 -24.054)" fill="#e0e0e0"/>
        <path id="Trazado_238470" data-name="Trazado 238470" d="M74.726,199.934c.009.051-3.212.669-7.193,1.381s-7.218,1.247-7.227,1.2,3.211-.669,7.193-1.381,7.217-1.247,7.226-1.2" transform="translate(-6.053 -20.067)" fill="#e0e0e0"/>
        <path id="Trazado_238471" data-name="Trazado 238471" d="M74.3,215.621c.005.051-3,.387-6.709.748s-6.723.614-6.728.562,3-.387,6.709-.748,6.722-.613,6.727-.561" transform="translate(-6.109 -21.641)" fill="#e0e0e0"/>
        <path id="Trazado_238472" data-name="Trazado 238472" d="M75.593,228.235c0,.051-3.115.189-6.961.306s-6.966.171-6.968.12,3.115-.189,6.962-.307,6.965-.171,6.967-.119" transform="translate(-6.189 -22.906)" fill="#e0e0e0"/>
        <path id="Trazado_238473" data-name="Trazado 238473" d="M72.824,243.414a2.737,2.737,0,0,1-.51.007c-.328-.005-.8-.033-1.387-.085a29.3,29.3,0,0,1-8.859-2.248c-.539-.233-.969-.435-1.259-.587a2.678,2.678,0,0,1-.445-.25,2.674,2.674,0,0,1,.476.184c.3.131.737.314,1.279.531a34.435,34.435,0,0,0,8.823,2.239c.58.068,1.052.116,1.377.144a2.665,2.665,0,0,1,.506.066" transform="translate(-6.059 -24.114)" fill="#e0e0e0"/>
        <path id="Trazado_238474" data-name="Trazado 238474" d="M73.54,248.1a3.58,3.58,0,0,1-.46.372c-.3.231-.752.549-1.318.926a37.049,37.049,0,0,1-9.585,4.529c-.65.2-1.182.343-1.552.43a3.569,3.569,0,0,1-.579.119,3.748,3.748,0,0,1,.56-.19c.363-.108.888-.272,1.531-.485a43.106,43.106,0,0,0,9.553-4.513c.573-.362,1.033-.662,1.348-.875a3.515,3.515,0,0,1,.5-.311" transform="translate(-6.027 -24.901)" fill="#e0e0e0"/>
        <path id="Trazado_238475" data-name="Trazado 238475" d="M85.55,243.264s0-.247.012-.718q.026-.771.069-2.057c.058-1.835.141-4.407.242-7.565.181-6.387.332-15.215.265-24.965s-.346-18.579-.617-24.964c-.146-3.156-.264-5.726-.348-7.56-.041-.858-.074-1.542-.1-2.056-.021-.47-.022-.717-.022-.717s.027.246.059.715q.05.769.134,2.053c.115,1.784.256,4.366.408,7.559.3,6.384.6,15.212.672,24.967s-.105,18.583-.32,24.971c-.106,3.194-.211,5.778-.3,7.563-.043.858-.078,1.542-.1,2.056-.026.47-.049.716-.049.716" transform="translate(-8.537 -17.33)" fill="#e0e0e0"/>
        <path id="Trazado_238476" data-name="Trazado 238476" d="M102.966,192.607c-.051.006-.748-5.257-1.557-11.754s-1.423-11.771-1.372-11.777.748,5.255,1.557,11.755,1.423,11.77,1.372,11.776" transform="translate(-10.04 -16.97)" fill="#e0e0e0"/>
        <path id="Trazado_238477" data-name="Trazado 238477" d="M101.572,206.289a68.071,68.071,0,0,1-1.034-7.083,68.156,68.156,0,0,1,1.034,7.083" transform="translate(-10.09 -19.994)" fill="#e0e0e0"/>
        <path id="Trazado_238478" data-name="Trazado 238478" d="M105.752,226.315c-.052,0-.133-4.547-.181-10.155S105.525,206,105.577,206s.132,4.546.181,10.156.045,10.155-.006,10.156" transform="translate(-10.593 -20.676)" fill="#e0e0e0"/>
        <path id="Trazado_238479" data-name="Trazado 238479" d="M105.182,248.771c-.052.007-.655-4.1-1.347-9.18s-1.212-9.2-1.161-9.206.654,4.1,1.347,9.181,1.212,9.2,1.161,9.205" transform="translate(-10.305 -23.124)" fill="#e0e0e0"/>
        <path id="Trazado_238480" data-name="Trazado 238480" d="M124.529,203.557c-.052.008-1.435-8.423-3.091-18.829s-2.955-18.852-2.9-18.86,1.434,8.421,3.09,18.831,2.957,18.85,2.906,18.858" transform="translate(-11.897 -16.648)" fill="#e0e0e0"/>
        <path id="Trazado_238481" data-name="Trazado 238481" d="M122.528,233.17c-.051.006-.52-3.743-1.047-8.373s-.912-8.388-.861-8.394.52,3.742,1.047,8.374.912,8.387.861,8.394" transform="translate(-12.106 -21.72)" fill="#e0e0e0"/>
        <path id="Trazado_238482" data-name="Trazado 238482" d="M163.692,153.7a34.27,34.27,0,0,1-3.626,2.862,42.348,42.348,0,0,1-4.282,2.615,43.013,43.013,0,0,1-11.531,4.161,42.113,42.113,0,0,1-4.965.721,34.236,34.236,0,0,1-4.618.114,1.921,1.921,0,0,1,.32-.021l.918-.022c.8-.005,1.95-.068,3.367-.2a44.548,44.548,0,0,0,4.943-.758A44.334,44.334,0,0,0,155.7,159.02a44.489,44.489,0,0,0,4.287-2.572c1.177-.8,2.105-1.49,2.721-1.994l.721-.569a2.1,2.1,0,0,1,.26-.189" transform="translate(-13.517 -15.426)" fill="#e0e0e0"/>
        <path id="Trazado_238483" data-name="Trazado 238483" d="M167.013,151.119a1.126,1.126,0,0,1,.011-.238c.021-.208.042-.431.067-.677q.107-1.038.255-2.488c.206-2.1.445-5.01.592-8.229s.167-6.137.15-8.249q-.018-1.459-.03-2.5c0-.247,0-.471-.005-.68a1.154,1.154,0,0,1,.011-.237,1.177,1.177,0,0,1,.027.237c.013.208.025.431.04.679.033.59.065,1.445.089,2.5.051,2.113.049,5.036-.1,8.26s-.407,6.134-.647,8.233c-.12,1.051-.229,1.9-.314,2.484-.038.246-.071.467-.1.673a1.151,1.151,0,0,1-.048.233" transform="translate(-16.763 -12.829)" fill="#e0e0e0"/>
        <path id="Trazado_238484" data-name="Trazado 238484" d="M172.078,127.117s.053.216.137.631.218,1.023.4,1.8c.367,1.564,1.019,3.795,1.752,6.574a30.2,30.2,0,0,1,1.208,9.995,13.833,13.833,0,0,1-5.737,10.573,51.159,51.159,0,0,1-5.354,3.518c-1.773,1.062-3.494,2.071-5.14,3.017-3.294,1.893-6.295,3.539-8.831,4.889s-4.606,2.409-6.042,3.129l-1.658.821c-.381.184-.584.273-.584.273s.193-.112.567-.308l1.642-.852c1.426-.74,3.486-1.815,6.012-3.181s5.519-3.021,8.807-4.921c1.644-.95,3.362-1.961,5.132-3.025a51.5,51.5,0,0,0,5.332-3.509,13.688,13.688,0,0,0,5.681-10.44,30.37,30.37,0,0,0-1.165-9.948c-.716-2.779-1.349-5.018-1.695-6.589s-.469-2.451-.469-2.451" transform="translate(-14.276 -12.759)" fill="#e0e0e0"/>
        <path id="Trazado_238485" data-name="Trazado 238485" d="M64.676,227s0-.193.031-.556c.033-.414.076-.941.127-1.591.118-1.442.279-3.426.476-5.85.393-4.941.888-11.769,1.314-19.318s.7-14.393.862-19.347c.076-2.432.139-4.421.184-5.866.022-.651.039-1.18.052-1.6.014-.364.031-.556.031-.556s.008.193.006.557c0,.415-.01.944-.017,1.6-.031,1.447-.073,3.436-.124,5.868-.13,4.955-.383,11.8-.807,19.354s-.943,14.38-1.369,19.318c-.222,2.423-.4,4.4-.535,5.846-.066.649-.12,1.175-.162,1.588-.039.363-.069.552-.069.552" transform="translate(-6.492 -17.296)" fill="#e0e0e0"/>
        <path id="Trazado_238486" data-name="Trazado 238486" d="M66.982,259.284a1.121,1.121,0,0,1-.083-.22c-.061-.2-.128-.407-.2-.64-.175-.556-.4-1.368-.658-2.379a63.9,63.9,0,0,1-1.936-16.13c.01-1.042.038-1.885.076-2.466.016-.243.031-.463.045-.669a1.068,1.068,0,0,1,.028-.232,1.094,1.094,0,0,1,.01.234c0,.206-.006.426-.01.67-.015.582-.022,1.424-.016,2.463a71.343,71.343,0,0,0,1.932,16.1c.239,1.011.446,1.828.6,2.389.061.236.117.45.168.649a1.111,1.111,0,0,1,.046.23" transform="translate(-6.434 -23.742)" fill="#e0e0e0"/>
        <path id="Trazado_238487" data-name="Trazado 238487" d="M73.645,251.862s-.009-.218-.009-.632c0-.461.007-1.062.013-1.809.014-1.627.034-3.886.058-6.655.044-5.62.072-13.383.011-21.957s-.2-16.339-.327-21.958c-.065-2.768-.117-5.028-.155-6.653-.015-.748-.029-1.349-.038-1.809-.007-.414,0-.632,0-.632s.02.217.039.63c.018.461.042,1.061.073,1.808.052,1.626.125,3.884.214,6.653.159,5.618.319,13.381.381,21.96s.013,16.34-.066,21.959c-.049,2.77-.089,5.03-.118,6.655-.02.748-.035,1.349-.048,1.809-.013.414-.029.631-.029.631" transform="translate(-7.347 -19.046)" fill="#e0e0e0"/>
        <path id="Trazado_238488" data-name="Trazado 238488" d="M86,170.777c-.051,0-.223-2.533-.382-5.664s-.246-5.671-.2-5.673.223,2.532.382,5.664.246,5.67.2,5.673" transform="translate(-8.572 -16.003)" fill="#e0e0e0"/>
        <path id="Trazado_238489" data-name="Trazado 238489" d="M100.768,166.594c-.051,0-.3-2.583-.562-5.777s-.427-5.789-.376-5.794.3,2.583.563,5.778.426,5.788.375,5.793" transform="translate(-10.019 -15.56)" fill="#e0e0e0"/>
        <path id="Trazado_238490" data-name="Trazado 238490" d="M116.639,163.031c-.049.014-.777-2.345-1.626-5.27s-1.5-5.308-1.446-5.322.777,2.344,1.626,5.27,1.5,5.308,1.446,5.322" transform="translate(-11.398 -15.3)" fill="#e0e0e0"/>
        <path id="Trazado_238491" data-name="Trazado 238491" d="M109.26,149.6a1.026,1.026,0,0,1-.218.053l-.629.115-2.316.407c-1.955.345-4.651.846-7.615,1.465s-5.635,1.244-7.565,1.712l-2.284.556-.623.147a1,1,0,0,1-.22.039,1.047,1.047,0,0,1,.211-.076l.614-.18,2.271-.614c1.923-.5,4.592-1.144,7.56-1.767s5.669-1.1,7.632-1.412l2.326-.348.634-.081a1.018,1.018,0,0,1,.223-.015" transform="translate(-8.811 -15.016)" fill="#e0e0e0"/>
        <path id="Trazado_238492" data-name="Trazado 238492" d="M92.021,156.267a35.222,35.222,0,0,1,.075-5.143,35.562,35.562,0,0,1-.075,5.143" transform="translate(-9.23 -15.168)" fill="#e0e0e0"/>
        <path id="Trazado_238493" data-name="Trazado 238493" d="M106.6,153.728a30.063,30.063,0,0,1-.868-4.665,14.936,14.936,0,0,1,.526,2.316,15.105,15.105,0,0,1,.342,2.35" transform="translate(-10.612 -14.961)" fill="#e0e0e0"/>
      </g>
    </g>
    <g id="Grupo_165862" data-name="Grupo 165862">
      <g id="Grupo_165861" data-name="Grupo 165861" clip-path="url(#clip-path)">
        <path id="Trazado_238494" data-name="Trazado 238494" d="M400.386,442.067c0,.13-88.776.234-198.261.234-109.523,0-198.279-.1-198.279-.234s88.757-.234,198.279-.234c109.485,0,198.261.1,198.261.234" transform="translate(-0.386 -44.347)" fill="#263238"/>
      </g>
    </g>
    <g id="Grupo_165870" data-name="Grupo 165870">
      <g id="Grupo_165869" data-name="Grupo 165869" clip-path="url(#clip-path)">
        <path id="Trazado_238495" data-name="Trazado 238495" d="M36.04,75a2.028,2.028,0,0,0-.41-.01l-1.206.031a12.6,12.6,0,0,0-1.954.193c-.383.06-.8.1-1.24.19l-1.388.343A23.137,23.137,0,0,0,12.779,96.869a23.023,23.023,0,0,0,3.177,13.067,23.419,23.419,0,0,0,11.192,9.739,22.933,22.933,0,0,0,7.764,1.71,22.243,22.243,0,0,0,8.121-1.011l.241-.076-.191,0L56.655,125l.552.192-.174-.557c-1.217-3.905-2.394-7.685-3.522-11.306l-.059.272A23.215,23.215,0,0,0,58.9,93.5a22.875,22.875,0,0,0-3.5-8.365,23.444,23.444,0,0,0-5.374-5.606A24.943,24.943,0,0,0,47.207,77.7a26.191,26.191,0,0,0-2.7-1.226A18.409,18.409,0,0,0,42.06,75.7a15.11,15.11,0,0,0-2.093-.439c-.635-.084-1.195-.179-1.682-.221L37.05,75l-.754-.014A1.046,1.046,0,0,0,36.04,75a1.047,1.047,0,0,0,.255.037l.75.062,1.226.085c.483.057,1.036.166,1.664.264A15.428,15.428,0,0,1,42,75.923a18.591,18.591,0,0,1,2.4.807,26.562,26.562,0,0,1,2.653,1.247,25.105,25.105,0,0,1,2.755,1.832,23.268,23.268,0,0,1,5.237,5.561,22.526,22.526,0,0,1,3.38,8.225,22.758,22.758,0,0,1-5.4,19.627l-.106.12.047.153,3.5,11.313.378-.366-13.569-4.711-.094-.032-.1.031-.235.075a21.707,21.707,0,0,1-7.912.987,22.4,22.4,0,0,1-7.569-1.657,22.9,22.9,0,0,1-10.94-9.478,22.936,22.936,0,0,1,6.9-30.633A22.958,22.958,0,0,1,29.9,75.969l1.368-.366c.432-.1.846-.147,1.225-.215a13.283,13.283,0,0,1,1.934-.248l1.2-.091A2.039,2.039,0,0,0,36.04,75" transform="translate(-1.278 -7.526)" fill="#263238"/>
        <path id="Trazado_238496" data-name="Trazado 238496" d="M46.257,99.579a7.852,7.852,0,1,0-11.087,7.274c.014.93.031,1.981.031,1.981l6.88-.105s.024-1.113.025-2.105a7.848,7.848,0,0,0,4.151-7.045" transform="translate(-3.067 -9.219)" fill="#fafafa"/>
        <path id="Trazado_238497" data-name="Trazado 238497" d="M46.231,99.558a2.589,2.589,0,0,1,.035.6,7.641,7.641,0,0,1-.246,1.708,7.848,7.848,0,0,1-1.159,2.476,8.067,8.067,0,0,1-2.7,2.412l.091-.152c0,.667-.006,1.374-.009,2.109v.18l-.184,0-6.88.139-.22,0,0-.222c-.012-.622-.023-1.3-.036-1.98l.132.2a8.11,8.11,0,0,1-4.49-5.311,8.024,8.024,0,0,1,.465-5.382,8.124,8.124,0,0,1,3.413-3.708,8.821,8.821,0,0,1,2.225-.833,8.511,8.511,0,0,1,2.233-.149,8.01,8.01,0,0,1,3.774,1.253A7.829,7.829,0,0,1,46,97.476a6.021,6.021,0,0,1,.227,2.082,16.928,16.928,0,0,0-.4-2.031,7.8,7.8,0,0,0-3.337-4.338,7.725,7.725,0,0,0-3.621-1.145,8.176,8.176,0,0,0-2.12.165,8.431,8.431,0,0,0-2.1.807,7.713,7.713,0,0,0-3.205,3.521,7.594,7.594,0,0,0-.43,5.073,7.682,7.682,0,0,0,4.223,5.017l.131.058,0,.144c.009.685.017,1.358.024,1.981l-.223-.217,6.881-.073-.184.184c.013-.732.027-1.437.04-2.1l0-.1.089-.048a7.873,7.873,0,0,0,3.837-4.637,12.72,12.72,0,0,0,.4-2.256" transform="translate(-3.041 -9.197)" fill="#263238"/>
        <path id="Trazado_238498" data-name="Trazado 238498" d="M40,109.615s0-.032.006-.1.016-.162.028-.283c.026-.249.065-.617.127-1.089s.147-1.049.286-1.711a11.659,11.659,0,0,1,.679-2.2,7.438,7.438,0,0,1,.628-1.185,1.447,1.447,0,0,1,.529-.49.812.812,0,0,1,.746.013.541.541,0,0,1,.254.307.551.551,0,0,1-.027.4,1.119,1.119,0,0,1-.6.532,2.147,2.147,0,0,1-1.634-.091,2.178,2.178,0,0,1-1.129-1.293,1.642,1.642,0,0,1-.06-.905.706.706,0,0,1,.705-.556.506.506,0,0,1,.4.271.709.709,0,0,1,.07.483,1.539,1.539,0,0,1-.54.788,2.34,2.34,0,0,1-1.822.559,2.043,2.043,0,0,1-1.536-1.107,1.188,1.188,0,0,1-.067-.951.6.6,0,0,1,.339-.352.587.587,0,0,1,.484.037.78.78,0,0,1,.336.339,1.235,1.235,0,0,1,.127.451,2.256,2.256,0,0,1-.106.9,2.333,2.333,0,0,1-1.086,1.333,2.381,2.381,0,0,1-1.621.248,1.24,1.24,0,0,1-.713-.363.608.608,0,0,1-.056-.756.511.511,0,0,1,.351-.178.741.741,0,0,1,.375.067,1.138,1.138,0,0,1,.489.531c.2.423.368.834.534,1.227.652,1.573,1.117,2.87,1.43,3.769.157.45.272.8.349,1.039l.086.271c.019.062.026.094.026.094s-.014-.031-.036-.091l-.094-.269c-.085-.239-.208-.587-.366-1.032-.323-.9-.8-2.187-1.457-3.755-.167-.39-.336-.805-.538-1.218a1.06,1.06,0,0,0-.455-.5.47.47,0,0,0-.576.742,1.173,1.173,0,0,0,.668.335,2.293,2.293,0,0,0,1.561-.243,2.251,2.251,0,0,0,1.042-1.284,2.178,2.178,0,0,0,.1-.862.852.852,0,0,0-.413-.715.5.5,0,0,0-.408-.032.508.508,0,0,0-.284.3,1.094,1.094,0,0,0,.066.873,1.946,1.946,0,0,0,1.463,1.054,2.249,2.249,0,0,0,1.746-.536,1.445,1.445,0,0,0,.508-.734.611.611,0,0,0-.06-.418.411.411,0,0,0-.328-.223.558.558,0,0,0-.389.132.685.685,0,0,0-.219.355,1.565,1.565,0,0,0,.058.852,2.089,2.089,0,0,0,1.08,1.241,2.063,2.063,0,0,0,1.564.093,1.038,1.038,0,0,0,.555-.488.464.464,0,0,0-.191-.607.733.733,0,0,0-.672-.013,1.377,1.377,0,0,0-.5.464,7.412,7.412,0,0,0-.625,1.169,11.713,11.713,0,0,0-.689,2.18c-.145.659-.234,1.234-.3,1.7s-.112.834-.146,1.086c-.015.121-.028.215-.037.282s-.016.1-.016.1" transform="translate(-3.478 -10.1)" fill="#263238"/>
        <path id="Trazado_238499" data-name="Trazado 238499" d="M42.091,111.938l-5.908.091a.444.444,0,1,1-.013-.887l5.908-.091a.444.444,0,0,1,.013.887" transform="translate(-3.586 -11.146)" fill="#263238"/>
        <path id="Trazado_238500" data-name="Trazado 238500" d="M42.1,112.468l-5.908.091a.443.443,0,0,0,.013.886l.649-.01.885,1.625a.57.57,0,0,0,.509.3l2.111-.032a.57.57,0,0,0,.5-.318l.811-1.645.441-.006a.444.444,0,0,0-.013-.887" transform="translate(-3.589 -11.288)" fill="#263238"/>
        <g id="Grupo_165865" data-name="Grupo 165865" transform="translate(28.352 84.1)" opacity="0.2">
          <g id="Grupo_165864" data-name="Grupo 165864">
            <g id="Grupo_165863" data-name="Grupo 165863" clip-path="url(#clip-path-8)">
              <path id="Trazado_238501" data-name="Trazado 238501" d="M33.382,94.939a5.76,5.76,0,0,1,1.556-1.069,4.136,4.136,0,0,1,1.2-.371c.3-.035.466-.009.481.053.036.142-.556.363-1.349.91a6.456,6.456,0,0,0-2.846,6.386c.123.956.355,1.544.225,1.611-.057.031-.189-.078-.361-.322a4.187,4.187,0,0,1-.531-1.143,5.777,5.777,0,0,1-.245-1.872,6.1,6.1,0,0,1,.515-2.278" transform="translate(-31.515 -93.483)" fill="#fff"/>
            </g>
          </g>
        </g>
        <g id="Grupo_165868" data-name="Grupo 165868" transform="translate(34.357 83.514)" opacity="0.2">
          <g id="Grupo_165867" data-name="Grupo 165867">
            <g id="Grupo_165866" data-name="Grupo 165866" clip-path="url(#clip-path-9)">
              <path id="Trazado_238502" data-name="Trazado 238502" d="M39.188,93.8c-.5,0-.939-.126-.994-.389-.023-.13.067-.272.244-.383a1.579,1.579,0,0,1,1.484-.014c.18.107.273.246.252.377" transform="translate(-38.19 -92.832)" fill="#fff"/>
            </g>
          </g>
        </g>
        <path id="Trazado_238503" data-name="Trazado 238503" d="M41,115.41c-.007.014-.157-.051-.408-.119a3.3,3.3,0,0,0-2,.088c-.244.09-.387.168-.395.155a1.168,1.168,0,0,1,.37-.218,2.884,2.884,0,0,1,2.04-.091,1.235,1.235,0,0,1,.388.184" transform="translate(-3.834 -11.551)" fill="#455a64"/>
        <path id="Trazado_238504" data-name="Trazado 238504" d="M41.814,113.48c0,.027-1.067.065-2.385.085s-2.386.015-2.386-.012,1.067-.065,2.385-.085,2.386-.014,2.386.012" transform="translate(-3.718 -11.388)" fill="#455a64"/>
        <path id="Trazado_238505" data-name="Trazado 238505" d="M41.5,114.267a3.453,3.453,0,0,1-.581.068c-.36.028-.857.056-1.408.072s-1.049.018-1.41.011a3.277,3.277,0,0,1-.584-.034,3.773,3.773,0,0,1,.583-.034l1.408-.039,1.407-.044a3.7,3.7,0,0,1,.585,0" transform="translate(-3.766 -11.468)" fill="#455a64"/>
        <path id="Trazado_238506" data-name="Trazado 238506" d="M32.278,91.685c-.1.08-.53-.294-.955-.837s-.689-1.045-.587-1.125.53.294.955.837.689,1.045.587,1.125" transform="translate(-3.083 -9.004)" fill="#263238"/>
        <path id="Trazado_238507" data-name="Trazado 238507" d="M38.531,88.923a6.018,6.018,0,0,1-.45-2.3,6.017,6.017,0,0,1,.016-2.344,6.007,6.007,0,0,1,.45,2.3,6.019,6.019,0,0,1-.016,2.344" transform="translate(-3.814 -8.459)" fill="#263238"/>
        <path id="Trazado_238508" data-name="Trazado 238508" d="M45.027,88.72c.108.072-.06.514-.376.986s-.658.8-.766.726.061-.513.376-.986.658-.8.766-.726" transform="translate(-4.402 -8.904)" fill="#263238"/>
      </g>
    </g>
    <g id="Grupo_165872" data-name="Grupo 165872">
      <g id="Grupo_165876" data-name="Grupo 165876">
        <path id="Trazado_238509" data-name="Trazado 238509" d="M323.6,107.286a5.522,5.522,0,0,0-4.276-1.264l-11.161-.162a8.173,8.173,0,0,1-4.909-1.34,7.9,7.9,0,0,1-3.071-3.944l-.453-1.448c-.911-2.914-1.854-5.926-2.988-8.783a45.856,45.856,0,0,0-2.227-4.877c-.411-.782-.875-1.534-1.35-2.293-.462-.775-.965-1.524-1.44-2.218a64.866,64.866,0,0,0-31.135-24.321,75.492,75.492,0,0,0-35.221-3.706,82.244,82.244,0,0,0-15.612,3.562l-3.572,1.283c-.755.292-1.5.6-2.233.913-.4.167-.8.336-1.2.5a51.033,51.033,0,0,0-6.4,3.294A45.484,45.484,0,0,0,186.1,70.937a44.084,44.084,0,0,0-3.761,4.811c-.948,1.43-1.882,2.981-2.94,4.879-1.34,2.407-2.516,4.686-3.653,6.89q-.549,1.066-1.077,2.084-.394.741-.769,1.461a46.7,46.7,0,0,1-3.408,5.841c-3.513,4.912-7.283,6.564-8.757,7.052a9.017,9.017,0,0,1-1.216.354c-.148.035-.29.069-.386.1-.186.027-.362.056-.525.083-.262.043-.493.083-.693.1-.681.042-1.029.075-1.029.075a.338.338,0,0,0,.031.674h0s.348-.005,1.035-.035c.229-.011.49-.05.788-.1.154-.023.318-.049.53-.078.126-.031.258-.061.4-.092a9.316,9.316,0,0,0,1.316-.369c1.534-.49,5.5-2.182,9.178-7.275a46.994,46.994,0,0,0,3.5-5.941c.251-.473.506-.955.768-1.446q.547-1.04,1.112-2.131c1.134-2.181,2.308-4.435,3.637-6.806,1.053-1.876,1.979-3.4,2.916-4.808a43.013,43.013,0,0,1,3.693-4.7,44.588,44.588,0,0,1,10.058-8.257,50.068,50.068,0,0,1,6.278-3.216c.4-.163.8-.33,1.2-.5.727-.3,1.458-.609,2.2-.893l3.545-1.266a81.306,81.306,0,0,1,15.419-3.49,74.526,74.526,0,0,1,34.727,3.695,63.811,63.811,0,0,1,30.591,23.94c.44.646.948,1.4,1.41,2.176.468.748.92,1.482,1.315,2.235a44.515,44.515,0,0,1,2.171,4.764c1.118,2.822,2.01,5.681,2.955,8.709l.461,1.473a9.018,9.018,0,0,0,3.5,4.515,9.292,9.292,0,0,0,5.534,1.533l11.221.166a4.556,4.556,0,0,1,3.441.961,4.313,4.313,0,0,1,1.055,3.428c-.021.495-.037.991-.055,1.488-.031.9-.062,1.8-.117,2.7-.046.506-.086,1.011-.127,1.519-.071.9-.143,1.8-.243,2.7a104.582,104.582,0,0,1-3.323,16.856A121.848,121.848,0,0,1,305.4,169.132a106.757,106.757,0,0,1-12.808,16.518,74.64,74.64,0,0,1-7.569,6.951,76.282,76.282,0,0,1-8.376,5.755,97.493,97.493,0,0,1-18.27,8.087l-1.29.422c-1.116.368-2.27.748-3.414,1.08l-2.353.71a9.216,9.216,0,0,0-2.38,1.048,8.6,8.6,0,0,0-3.33,3.92,8.283,8.283,0,0,0-.628,2.518c-.045.6-.041,1.179-.039,1.737,0,.24,0,.481,0,.726.005,18.392-.423,35.737-.837,52.511q-.243,9.909-.447,19.318a18.215,18.215,0,0,0,.423,4.191,6.769,6.769,0,0,0,2.047,3.784,4.08,4.08,0,0,0,4.316.4,4.941,4.941,0,0,0,1.732-1.34,6.543,6.543,0,0,0,1.029-1.856,21.621,21.621,0,0,0,.945-6.79l.032-.98c.053-2.427.04-4.836.028-7.166l-.006-1.019c-.013-2.254-.026-4.383.011-6.518l.009-.335a37.445,37.445,0,0,1,.54-6.521,4.015,4.015,0,0,1,.532-1.368,3.273,3.273,0,0,1,1.189-.838,3.014,3.014,0,0,1,2.729-.061,3.185,3.185,0,0,1,1.147,2.488,19.482,19.482,0,0,1,.04,2.2c-.006.321-.013.642-.012.955l-.523,41.853a12.931,12.931,0,0,0-.031,2.972,4.835,4.835,0,0,0,1.044,2.747,2.354,2.354,0,0,0,1.381.738c.462.057.876.105,1.278.118.81.049,1.6.059,2.4.065h.549c2.636,0,4.915-.076,6.77-.138l5.1-.216c1.063-.054,1.6-.1,1.6-.1a.34.34,0,0,0,.31-.354.358.358,0,0,0-.344-.32s-.542.009-1.6.047l-5.278.168c-1.933.05-4.336.115-7.106.087-.821-.01-1.566-.022-2.344-.072-.123-.012-.25-.021-.379-.029a2.285,2.285,0,0,1-1.71-.558,4,4,0,0,1-.824-2.281,12.329,12.329,0,0,1,.046-2.842l.635-41.88c0-.314.007-.63.014-.946a20.27,20.27,0,0,0-.041-2.316,6.089,6.089,0,0,0-.4-1.723,3.091,3.091,0,0,0-1.195-1.5,3.124,3.124,0,0,0-1.88-.471,5.277,5.277,0,0,0-1.788.459,4.251,4.251,0,0,0-1.565,1.127,4.85,4.85,0,0,0-.726,1.766,37.646,37.646,0,0,0-.573,6.636l-.012.421c-.04,2.18-.031,4.342-.021,6.632l0,.937c.01,2.322.02,4.723-.038,7.126l-.031.921a21.064,21.064,0,0,1-.893,6.519A4.341,4.341,0,0,1,250,297.854a3.022,3.022,0,0,1-3.2-.267,5.927,5.927,0,0,1-1.677-3.207,17.191,17.191,0,0,1-.391-3.934q.194-9.186.456-18.872c.433-16.914.881-34.4.884-52.968,0-.243,0-.489,0-.734,0-.548-.005-1.113.034-1.635a7.2,7.2,0,0,1,.545-2.177,7.48,7.48,0,0,1,2.9-3.405,8.06,8.06,0,0,1,2.1-.918l2.357-.71c1.155-.336,2.319-.718,3.445-1.089l1.291-.423a98.485,98.485,0,0,0,18.491-8.179,77.339,77.339,0,0,0,8.51-5.846,75.573,75.573,0,0,0,7.684-7.052,108.041,108.041,0,0,0,12.946-16.691A122.994,122.994,0,0,0,321.109,137.1a105.523,105.523,0,0,0,3.356-17.041c.1-.915.174-1.832.246-2.745.04-.5.08-1,.125-1.515.056-.91.087-1.821.119-2.728.016-.5.033-1,.054-1.5a5.451,5.451,0,0,0-1.412-4.292" transform="translate(-15.816 -5.249)" fill="#455a64"/>
      </g>
    </g>
  </g>
</svg>
