<svg xmlns="http://www.w3.org/2000/svg" width="105" height="105" viewBox="0 0 105 105">
  <g id="Grupo_166658" data-name="Grupo 166658" transform="translate(-285 -1132)">
    <circle id="Elipse_5620" data-name="Elipse 5620" cx="52.5" cy="52.5" r="52.5" transform="translate(285 1132)" fill="#ced371"/>
    <g id="Grupo_165111" data-name="Grupo 165111" transform="translate(305 1154.678)">
      <g id="Grupo_165113" data-name="Grupo 165113">
        <path id="Trazado_236569" data-name="Trazado 236569" d="M51.024,59.644c-.667-.574-1.37-1.111-1.994-1.729q-4.774-4.733-9.513-9.5a2.244,2.244,0,0,1-.505-3.088l-3.281-3.29c-.056.03-.178.083-.288.154A22.934,22.934,0,0,1,1.081,29.866C.63,28.456.446,26.96.133,25.5A2.263,2.263,0,0,0,0,25.162V20.736a1.3,1.3,0,0,0,.126-.285c.157-.877.272-1.763.463-2.632A23,23,0,0,1,18.494.448C19.319.3,20.144.149,20.969,0H24.93c.612.109,1.222.225,1.836.326A22.466,22.466,0,0,1,34.555,3.15a1.244,1.244,0,0,1,.728,1.717c-.65.723-1.043.777-1.921.278A20.357,20.357,0,0,0,17.876,2.97,20.614,20.614,0,1,0,40.8,12.64c-.561-.974-.518-1.357.226-2.025a1.229,1.229,0,0,1,1.717.735q6.571,12.034-.4,23.847c-.107.182-.223.358-.405.649.555.521,1.123,1.042,1.676,1.577s1.071,1.066,1.634,1.628c.1-.049.2-.1.293-.148a2.148,2.148,0,0,1,2.622.368q5.423,5.4,10.819,10.828a5.641,5.641,0,0,1,.66,1.04v1.165c-.594.671-1.161,1.368-1.787,2.008-1.39,1.424-2.792,2.839-4.227,4.217a12.8,12.8,0,0,1-1.558,1.114Zm6.11-7.967L46.667,41.2l-5.409,5.426L51.713,57.1l5.421-5.419M37.8,40.6l2.881,2.9,2.811-2.808-2.907-2.906L37.8,40.6" fill="#030303"/>
        <path id="Trazado_236572" data-name="Trazado 236572" d="M58.628,28.173c-.744.668-.787,1.051-.226,2.025a20.623,20.623,0,1,1-22.928-9.67A20.357,20.357,0,0,1,50.96,22.7c.879.5,1.272.445,1.921-.278.477.4.962.79,1.427,1.2.253.224.472.487.706.733a2.938,2.938,0,0,0-.178.986c.148.843.91,1.1,1.861.7q.769.866,1.54,1.731c.124.139.261.266.391.4M40.565,26.148a8.253,8.253,0,0,0-8.291,8.27,3.495,3.495,0,1,0,6.989-.048,1.283,1.283,0,1,1,2.016,1.1c-.156.114-.334.2-.495.3a7.821,7.821,0,0,0-3.726,6.663,3.017,3.017,0,0,0,2.35,3.011,6.453,6.453,0,0,0,1.678.085,2.981,2.981,0,0,0,2.9-2.669,1.735,1.735,0,0,1,.953-1.45,8.265,8.265,0,0,0-4.379-15.267m-.052,28.716a3.49,3.49,0,1,0-3.459-3.545,3.486,3.486,0,0,0,3.459,3.545" transform="translate(-17.598 -17.558)" fill="#e2e2e2"/>
        <path id="Trazado_236573" data-name="Trazado 236573" d="M321.439,56.874c-.95.407-1.712.146-1.861-.7a2.941,2.941,0,0,1,.178-.986,1.22,1.22,0,0,1,1.528-.252,1.041,1.041,0,0,1,.538,1.177,3.259,3.259,0,0,1-.383.757" transform="translate(-282.341 -48.389)" fill="#060707"/>
        <path id="Trazado_236574" data-name="Trazado 236574" d="M370.045,364.17l-5.421,5.419-10.454-10.469,5.409-5.426,10.467,10.475" transform="translate(-312.911 -312.492)" fill="#727997"/>
        <path id="Trazado_236575" data-name="Trazado 236575" d="M324.456,327.153l2.786-2.819,2.907,2.906-2.811,2.808-2.881-2.9" transform="translate(-286.659 -286.551)" fill="#636363"/>
        <path id="Trazado_236576" data-name="Trazado 236576" d="M134.264,73.745a8.265,8.265,0,0,1,4.379,15.267,1.735,1.735,0,0,0-.953,1.45,2.981,2.981,0,0,1-2.9,2.669,6.449,6.449,0,0,1-1.678-.085,3.017,3.017,0,0,1-2.35-3.011,7.82,7.82,0,0,1,3.726-6.663c.161-.108.339-.191.495-.3a1.283,1.283,0,1,0-2.016-1.1,3.495,3.495,0,1,1-6.989.048,8.253,8.253,0,0,1,8.291-8.27m.017,2.332a5.932,5.932,0,0,0-5.974,5.629c-.024.85.448,1.458,1.143,1.471s1.139-.515,1.186-1.371a3.616,3.616,0,1,1,5.317,3.4,5.59,5.59,0,0,0-2.863,4.587c-.048.7.225.993.872,1.027,1.107.058,1.391-.121,1.453-.927a3.2,3.2,0,0,1,1.471-2.514c.272-.185.559-.35.827-.541a5.932,5.932,0,0,0-3.432-10.759" transform="translate(-111.297 -65.154)" fill="#030202"/>
        <path id="Trazado_236577" data-name="Trazado 236577" d="M170.47,267.311a3.484,3.484,0,0,1-3.459-3.545,3.494,3.494,0,1,1,3.459,3.545m.021-2.334a1.144,1.144,0,0,0,1.176-1.163,1.163,1.163,0,1,0-2.326.033,1.144,1.144,0,0,0,1.15,1.131" transform="translate(-147.554 -230.004)" fill="#030303"/>
        <path id="Trazado_236578" data-name="Trazado 236578" d="M151.987,93.766a5.932,5.932,0,0,1,3.432,10.759c-.268.191-.554.356-.827.541a3.2,3.2,0,0,0-1.471,2.514c-.063.806-.346.985-1.453.927-.647-.034-.92-.327-.872-1.027a5.59,5.59,0,0,1,2.863-4.587,3.616,3.616,0,1,0-5.317-3.4c-.048.856-.5,1.384-1.186,1.371s-1.167-.621-1.143-1.471a5.932,5.932,0,0,1,5.974-5.629" transform="translate(-129.003 -82.843)" fill="#a3314f"/>
        <path id="Trazado_236579" data-name="Trazado 236579" d="M188.162,282.676a1.144,1.144,0,0,1-1.15-1.131,1.163,1.163,0,1,1,2.326-.033,1.144,1.144,0,0,1-1.176,1.163" transform="translate(-165.227 -247.704)" fill="#a3314f"/>
      </g>
    </g>
  </g>
</svg>
