<svg id="Grupo_165906" data-name="Grupo 165906" xmlns="http://www.w3.org/2000/svg" xmlns:xlink="http://www.w3.org/1999/xlink" width="505.581" height="512.933" viewBox="0 0 505.581 512.933">
  <defs>
    <clipPath id="clip-path">
      <rect id="Rectángulo_51781" data-name="Rectángulo 51781" width="505.581" height="512.932" fill="none"/>
    </clipPath>
    <clipPath id="clip-path-8">
      <rect id="Rectángulo_51793" data-name="Rectángulo 51793" width="23.024" height="17.256" fill="none"/>
    </clipPath>
    <clipPath id="clip-path-9">
      <rect id="Rectángulo_51794" data-name="Rectángulo 51794" width="22.467" height="48.611" fill="none"/>
    </clipPath>
  </defs>
  <g id="Grupo_165907" data-name="Grupo 165907">
    <g id="Grupo_165880" data-name="Grupo 165880">
      <g id="Grupo_165879" data-name="Grupo 165879" clip-path="url(#clip-path)">
        <path id="Trazado_238510" data-name="Trazado 238510" d="M21.228,69.987a22.8,22.8,0,0,1,5.505-2.529l1.032-5.522,9.289-.354L38.5,67.01a22.781,22.781,0,0,1,5.684,2.1l4.632-3.174,6.817,6.317-2.811,4.859a22.853,22.853,0,0,1,2.528,5.508l5.522,1.032.353,9.288L55.8,94.39a22.784,22.784,0,0,1-2.1,5.683l3.174,4.634-6.317,6.818-4.86-2.813a22.787,22.787,0,0,1-5.507,2.529l-1.032,5.523-9.288.353-1.449-5.428a22.742,22.742,0,0,1-5.683-2.1l-4.632,3.175-6.819-6.318,2.813-4.86a22.746,22.746,0,0,1-2.529-5.507L6.049,95.045l-.354-9.287,5.427-1.45a22.8,22.8,0,0,1,2.1-5.683L10.05,73.993l6.317-6.818Zm5.207,12.276a9.97,9.97,0,1,0,14.09-.537,9.97,9.97,0,0,0-14.09.537" transform="translate(0.574 6.212)" fill="#f5f5f5"/>
        <path id="Trazado_238511" data-name="Trazado 238511" d="M408.087,248.543a22.716,22.716,0,0,1,5.505-2.529l1.032-5.523,9.288-.354,1.45,5.428a22.757,22.757,0,0,1,5.683,2.1l4.632-3.174,6.818,6.317-2.812,4.86a22.743,22.743,0,0,1,2.528,5.507l5.523,1.032.353,9.288-5.427,1.449a22.742,22.742,0,0,1-2.1,5.683l3.174,4.634-6.317,6.818-4.86-2.813a22.788,22.788,0,0,1-5.507,2.529l-1.033,5.523-9.287.353-1.45-5.428a22.751,22.751,0,0,1-5.682-2.1l-4.632,3.175L398.146,285l2.813-4.86a22.744,22.744,0,0,1-2.529-5.507l-5.523-1.032-.353-9.287,5.427-1.45a22.8,22.8,0,0,1,2.1-5.683l-3.175-4.632,6.317-6.818Zm5.207,12.275a9.97,9.97,0,1,0,14.09-.537,9.97,9.97,0,0,0-14.09.537" transform="translate(39.597 24.223)" fill="#f5f5f5"/>
        <path id="Trazado_238512" data-name="Trazado 238512" d="M31.685,24.452a10.555,10.555,0,0,1,2.558-1.175l.479-2.567,4.317-.164.674,2.522a10.566,10.566,0,0,1,2.642.978l2.152-1.476,3.169,2.937-1.308,2.258a10.574,10.574,0,0,1,1.177,2.561l2.565.479.165,4.317-2.523.674a10.536,10.536,0,0,1-.976,2.642l1.475,2.152-2.936,3.169-2.258-1.307a10.64,10.64,0,0,1-2.56,1.175l-.481,2.567-4.317.164-.674-2.522a10.594,10.594,0,0,1-2.64-.978l-2.153,1.475L27.064,41.4l1.307-2.259a10.59,10.59,0,0,1-1.177-2.56L24.629,36.1l-.165-4.317,2.523-.675a10.568,10.568,0,0,1,.975-2.641l-1.475-2.153,2.936-3.168Zm2.42,5.706a4.634,4.634,0,1,0,6.548-.25,4.634,4.634,0,0,0-6.548.25" transform="translate(2.468 2.073)" fill="#f5f5f5"/>
        <path id="Trazado_238513" data-name="Trazado 238513" d="M60.764,379.04l-11.482,4.7s3.946,9.64-6,13.912A10.036,10.036,0,0,1,31.856,395.4a11.113,11.113,0,0,1-2.988-9.634c.633-4.008,3.707-8.673,12-10.476L30.278,349.4l-11.353,4.646,6.206,15.164s-14.239,10.632-7.059,28.18c6.871,16.789,23.522,14.528,29.968,11.891,4.927-2.017,21.23-10.078,12.725-30.245" transform="translate(1.619 35.245)" fill="#ebebeb"/>
        <rect id="Rectángulo_51779" data-name="Rectángulo 51779" width="12.449" height="11.628" transform="translate(13.821 373.258) rotate(-22.256)" fill="#ebebeb"/>
        <path id="Trazado_238514" data-name="Trazado 238514" d="M421.166,115.442l10.626,4.455s3.741-8.921,13.079-5.194a9.323,9.323,0,0,1,6.026,8.978,10.328,10.328,0,0,1-4.365,8.29c-3.048,2.216-8.131,3.261-14.763-1l-10.045,23.958,10.508,4.406,5.884-14.035s16.332,2.369,23.141-13.871c6.515-15.538-5.906-24.989-11.871-27.49-4.562-1.912-20.562-7.324-28.221,11.506" transform="translate(42.484 10.262)" fill="#ebebeb"/>
        <rect id="Rectángulo_51780" data-name="Rectángulo 51780" width="10.799" height="11.563" transform="translate(457.934 180.07) rotate(-67.254)" fill="#ebebeb"/>
        <path id="Trazado_238515" data-name="Trazado 238515" d="M435.655,64.439l-22.873,9.767,2.731,3.4-18.2,10.833L423.8,77.981l-2.817-3.505Z" transform="translate(40.078 6.5)" fill="#e0e0e0"/>
        <path id="Trazado_238516" data-name="Trazado 238516" d="M360.679,3.473l-4.56,41.733L363.381,44l.879,35.738,6.535-47.621-7.489,1.244Z" transform="translate(35.922 0.35)" fill="#e0e0e0"/>
        <path id="Trazado_238517" data-name="Trazado 238517" d="M401.786,13.665,388.847,50.2a6.276,6.276,0,0,0,11.382,5.179l19.217-34.064a4.926,4.926,0,0,0-2.419-6.975L408.3,10.753a4.926,4.926,0,0,0-6.513,2.912" transform="translate(39.187 1.047)" fill="#e0e0e0"/>
        <path id="Trazado_238518" data-name="Trazado 238518" d="M393.957,76.824A9.44,9.44,0,1,1,393.14,63.5a9.44,9.44,0,0,1,.817,13.326" transform="translate(38.073 6.166)" fill="#e0e0e0"/>
      </g>
    </g>
    <g id="Grupo_165882" data-name="Grupo 165882">
      <g id="Grupo_165881" data-name="Grupo 165881" clip-path="url(#clip-path)">
        <path id="Trazado_238519" data-name="Trazado 238519" d="M425.446,465.7s.229-.014.679-.022l2.007-.021,7.812-.041,29.515-.074v.315l-201.014.129L93.99,465.9l-51.655-.091-14.043-.053-3.653-.029c-.822-.01-1.244-.03-1.244-.03s.422-.02,1.244-.03l3.653-.028,14.043-.054L93.99,465.5l170.456-.084,201.014.129v.316l-29.515-.075-7.812-.041-2.007-.021c-.45-.008-.679-.022-.679-.022" transform="translate(2.36 46.947)"/>
      </g>
    </g>
    <g id="Grupo_165884" data-name="Grupo 165884">
      <g id="Grupo_165883" data-name="Grupo 165883" clip-path="url(#clip-path)">
        <path id="Trazado_238520" data-name="Trazado 238520" d="M443.006,190.107a67.2,67.2,0,0,0,8.277-45.664q-.16-.935-.385-1.863c-1.143-5.4-2.02-9.789-4.632-14.377q-.4-.86-.821-1.709t-.874-1.684A67.255,67.255,0,0,0,389.177,90.2c-3.872-36.69-29.512-70.244-63.9-83.618S249.322.623,221.678,25.055C192.469,3.177,152.111-2.9,117.756,9.411S56.084,52.046,47.417,87.495c-2.651,10.841-3.756,22.328-9.287,32.021-4.175,7.315-10.569,13.051-16.036,19.459A92.555,92.555,0,0,0,45.356,278.691c-18.478,25.381-12,65.355,13.558,83.594,14.676,10.474,34.25,14.484,45.433,28.627,4.757,6.016,7.512,13.35,11.641,19.815,14.034,21.974,45.218,30.971,68.8,19.848l125.256-31.838a165.058,165.058,0,0,0,117.721-37.489c12.01-10.047,22.8-22.235,28.007-37s3.963-32.452-6.025-44.51c23.583-24.287,20.21-69.138-6.741-89.624" transform="translate(0 0)" fill="#e0e0e0"/>
      </g>
    </g>
    <g id="Grupo_165886" data-name="Grupo 165886">
      <g id="Grupo_165885" data-name="Grupo 165885" clip-path="url(#clip-path)">
        <path id="Trazado_238521" data-name="Trazado 238521" d="M130.48,226.7a23.737,23.737,0,0,1,5.74-2.636L137.3,218.3l9.682-.369,1.511,5.658a23.721,23.721,0,0,1,5.924,2.191l4.83-3.309,7.108,6.587-2.932,5.066a23.7,23.7,0,0,1,2.635,5.741l5.758,1.076.369,9.682-5.658,1.511a23.721,23.721,0,0,1-2.191,5.924l3.308,4.829L161.055,270l-5.067-2.932a23.745,23.745,0,0,1-5.741,2.635l-1.076,5.758-9.682.369-1.511-5.658a23.768,23.768,0,0,1-5.924-2.192l-4.83,3.31-7.108-6.587,2.932-5.066a23.764,23.764,0,0,1-2.635-5.741l-5.758-1.076-.369-9.682,5.658-1.512a23.725,23.725,0,0,1,2.192-5.924l-3.309-4.83,6.584-7.108Zm5.428,12.8a10.395,10.395,0,1,0,14.689-.56,10.395,10.395,0,0,0-14.689.56" transform="translate(11.528 21.983)" fill="#f5f5f5"/>
        <path id="Trazado_238522" data-name="Trazado 238522" d="M291.772,85.363a12.871,12.871,0,0,1,3.1-1.423l.581-3.11,5.23-.2.816,3.056a12.849,12.849,0,0,1,3.2,1.183l2.608-1.788,3.84,3.558-1.583,2.737a12.838,12.838,0,0,1,1.423,3.1l3.11.58.2,5.231-3.057.816a12.753,12.753,0,0,1-1.183,3.2l1.788,2.609-3.557,3.84-2.738-1.584a12.833,12.833,0,0,1-3.1,1.425l-.581,3.11-5.23.2-.816-3.057a12.824,12.824,0,0,1-3.2-1.183l-2.609,1.788-3.84-3.558,1.584-2.737a12.791,12.791,0,0,1-1.424-3.1l-3.11-.581-.2-5.23,3.057-.817a12.8,12.8,0,0,1,1.183-3.2l-1.788-2.609,3.557-3.839Zm2.933,6.913a5.615,5.615,0,1,0,7.935-.3,5.614,5.614,0,0,0-7.935.3" transform="translate(28.549 8.133)" fill="#f5f5f5"/>
        <path id="Trazado_238523" data-name="Trazado 238523" d="M62.384,283.277a16.62,16.62,0,0,1,4.013-1.842l.751-4.025,6.768-.258,1.056,3.954a16.622,16.622,0,0,1,4.139,1.532l3.375-2.313,4.968,4.6-2.049,3.541a16.5,16.5,0,0,1,1.843,4.013l4.024.751L91.531,300l-3.957,1.056a16.577,16.577,0,0,1-1.53,4.14l2.312,3.375-4.6,4.968-3.542-2.05a16.543,16.543,0,0,1-4.013,1.843l-.75,4.024-6.769.258-1.056-3.954a16.632,16.632,0,0,1-4.139-1.531l-3.375,2.313-4.968-4.6,2.05-3.542a16.538,16.538,0,0,1-1.843-4.013l-4.024-.752-.259-6.767,3.955-1.056a16.664,16.664,0,0,1,1.53-4.14L54.24,286.2l4.6-4.967Zm3.795,8.945a7.265,7.265,0,1,0,10.266-.392,7.265,7.265,0,0,0-10.266.392" transform="translate(5.151 27.957)" fill="#f5f5f5"/>
        <path id="Trazado_238524" data-name="Trazado 238524" d="M341.482,292.3a16.611,16.611,0,0,1,4.012-1.842l.751-4.025,6.768-.258,1.056,3.954a16.626,16.626,0,0,1,4.14,1.532l3.376-2.313,4.967,4.6-2.049,3.54a16.561,16.561,0,0,1,1.842,4.014l4.024.751.259,6.768-3.955,1.056a16.58,16.58,0,0,1-1.531,4.14l2.313,3.375-4.6,4.968-3.541-2.05a16.561,16.561,0,0,1-4.013,1.843l-.752,4.024-6.767.258-1.056-3.954a16.625,16.625,0,0,1-4.14-1.531l-3.375,2.313-4.968-4.6,2.05-3.541a16.6,16.6,0,0,1-1.843-4.013l-4.024-.752-.258-6.767,3.954-1.056a16.621,16.621,0,0,1,1.531-4.14l-2.313-3.376,4.6-4.967Zm3.794,8.945a7.265,7.265,0,1,0,10.267-.392,7.265,7.265,0,0,0-10.267.392" transform="translate(33.304 28.867)" fill="#f5f5f5"/>
      </g>
    </g>
    <g id="Grupo_165888" data-name="Grupo 165888">
      <g id="Grupo_165887" data-name="Grupo 165887" clip-path="url(#clip-path)">
        <path id="Trazado_238525" data-name="Trazado 238525" d="M94.635,181.279a14.214,14.214,0,0,0-9.024-8.356c-3.505-1-7.63-.608-10.364-3.02-1.3-1.146-2.066-2.772-3.212-4.071-2.045-2.323-5.161-3.443-8.229-3.856-10.285-1.387-19.718,5.651-23.468,13.887-4.205,2.78-8.481,5.622-11.655,9.538s-5.133,9.148-3.957,14.05c.864,3.6,3.3,6.667,4.187,10.261.81,3.282.27,6.732.531,10.1s1.693,7.065,4.841,8.3c3.881,1.518,8.689-1.34,12.274.786,2.436,1.444,3.219,4.607,5.208,6.624,3.451,3.5,9.266,2.6,13.91.991a75.141,75.141,0,0,0,15.335-7.344,30.349,30.349,0,0,0,8.421-7.2,13.96,13.96,0,0,0,2.947-10.433c-.374-2.235-1.445-4.335-1.585-6.6-.245-3.983,2.377-7.49,3.794-11.221a17.267,17.267,0,0,0,.048-12.44" transform="translate(2.459 16.321)" fill="#f5f5f5"/>
        <path id="Trazado_238526" data-name="Trazado 238526" d="M82.136,218.751,72.1,225.671l-.015.012,10.278,3.642Z" transform="translate(7.271 22.066)" fill="#f5f5f5"/>
        <path id="Trazado_238527" data-name="Trazado 238527" d="M52.222,196.473a4.142,4.142,0,1,1-4.143-4.143,4.143,4.143,0,0,1,4.143,4.143" transform="translate(4.432 19.401)" fill="#263238"/>
        <path id="Trazado_238528" data-name="Trazado 238528" d="M63.906,196.473a4.142,4.142,0,1,1-4.141-4.143,4.142,4.142,0,0,1,4.141,4.143" transform="translate(5.611 19.401)" fill="#263238"/>
        <path id="Trazado_238529" data-name="Trazado 238529" d="M75.591,196.473a4.142,4.142,0,1,1-4.143-4.143,4.143,4.143,0,0,1,4.143,4.143" transform="translate(6.789 19.401)" fill="#263238"/>
        <path id="Trazado_238530" data-name="Trazado 238530" d="M383.356,117.566c-.935-1.506-2.935-1.871-4.7-2.031a77.276,77.276,0,0,0-19.214.672c-2.242.361-5.437.155-5.655-2.106-.129-1.334,1.076-2.449,2.328-2.927,2.172-.828,4.587-.435,6.91-.489s4.962-.826,5.9-2.954c1.419-3.228-2.267-6.571-5.756-7.08s-7.153.451-10.521-.593l-7.343.157a64.036,64.036,0,0,0-16.051,2.331c-1.462.407-3.183,1.189-3.289,2.7-.1,1.484,1.422,2.5,2.129,3.809,1.423,2.634-.9,5.957-3.7,6.993s-5.915.619-8.9.845-6.314,1.481-7.3,4.308c-.779,2.233.157,4.77-.528,7.032-.871,2.87-4.039,4.377-6.991,4.9s-6.072.447-8.8,1.691a9.714,9.714,0,0,0,3.795,18.549c2.114.052,4.186-.586,6.3-.7a7.2,7.2,0,0,1,4.442,1.083c.262,4.461,3.349,8.836,7.726,10.009,2.918.783,6.045.291,9,.915s5.994,3.134,5.432,6.1c-.4,2.116-2.506,3.67-2.673,5.818-.2,2.628,2.646,4.549,5.272,4.788s5.253-.568,7.884-.417,5.57,1.83,5.631,4.465c.067,2.929-3.383,5-3.445,7.93-.052,2.454,2.3,4.271,4.588,5.156s4.859,1.34,6.661,3.006,2.107,5.217-.138,6.21c3.628-.128,5.761-5.393,3.244-8.01-1.557-1.62-4.178-2.061-5.381-3.958-1.342-2.115-.171-5.045,1.76-6.64s4.428-2.284,6.712-3.311,4.573-2.653,5.165-5.087c.888-3.647-2.61-7.1-6.274-7.915s-7.458.1-11.2.327-8.007-.539-10.12-3.641l12.244-5.823c1.115-.531,2.34-1.18,2.72-2.356.68-2.1-1.721-3.819-3.733-4.734l-7.975-3.625a4.559,4.559,0,0,0-.314-1.415c4.838-1.991,10.311-1.227,15.495-.525s10.732,1.255,15.413-1.082,7.7-8.722,4.686-13c-1.624-2.31-4.766-3.892-4.833-6.714-.056-2.336,2.169-4.105,4.383-4.852s4.643-.9,6.691-2.019,3.567-3.818,2.335-5.8" transform="translate(28.87 10.093)" fill="#f5f5f5"/>
        <path id="Trazado_238531" data-name="Trazado 238531" d="M325.963,128.492A3.963,3.963,0,1,1,322,124.53a3.963,3.963,0,0,1,3.963,3.962" transform="translate(32.081 12.562)" fill="#263238"/>
        <path id="Trazado_238532" data-name="Trazado 238532" d="M337.139,128.492a3.962,3.962,0,1,1-3.962-3.962,3.962,3.962,0,0,1,3.962,3.962" transform="translate(33.208 12.562)" fill="#263238"/>
        <path id="Trazado_238533" data-name="Trazado 238533" d="M348.316,128.492a3.962,3.962,0,1,1-3.962-3.962,3.962,3.962,0,0,1,3.962,3.962" transform="translate(34.336 12.562)" fill="#263238"/>
        <path id="Trazado_238534" data-name="Trazado 238534" d="M94.918,46.531a22.581,22.581,0,0,0-16.408,38.2c-10.817,2.337-17.765,15-14.862,25.681S77.96,128.394,89,127.627s20.929-8.841,24.985-19.138a22.551,22.551,0,0,0,42.044,1.321c4.871,9.073,18.77,10.591,26.721,4.048s9.782-18.692,5.966-28.257-12.3-16.664-21.648-20.994c5.953-5.374,6.7-15.215,2.457-22.022S156.912,32.134,148.9,32.544s-15.55,4.478-21.216,10.154a16.561,16.561,0,0,0-31.848,3.355" transform="translate(6.353 3.231)" fill="#f5f5f5"/>
        <path id="Trazado_238535" data-name="Trazado 238535" d="M103.146,63.636l10.34,18.218a3.392,3.392,0,0,0,6.145-2.815l-7.109-19.908a2.662,2.662,0,0,0-3.707-1.482l-4.553,2.3a2.662,2.662,0,0,0-1.116,3.691" transform="translate(10.369 5.786)" fill="#263238"/>
        <path id="Trazado_238536" data-name="Trazado 238536" d="M126.5,88.742a5.1,5.1,0,1,1-5.732-4.384,5.1,5.1,0,0,1,5.732,4.384" transform="translate(11.735 8.505)" fill="#263238"/>
        <path id="Trazado_238537" data-name="Trazado 238537" d="M133.5,53.428l.332,18.079a2.928,2.928,0,0,0,5.82.4l2.815-18.028a2.3,2.3,0,0,0-2.2-2.651l-4.4-.135a2.3,2.3,0,0,0-2.368,2.338" transform="translate(13.467 5.153)" fill="#ebebeb"/>
        <path id="Trazado_238538" data-name="Trazado 238538" d="M140.9,82.186a4.4,4.4,0,1,1-2.54-5.687,4.4,4.4,0,0,1,2.54,5.687" transform="translate(13.353 7.687)" fill="#ebebeb"/>
      </g>
    </g>
    <g id="Grupo_165890" data-name="Grupo 165890">
      <g id="Grupo_165910" data-name="Grupo 165910">
        <path id="Trazado_238539" data-name="Trazado 238539" d="M285.047,217.994l-9.368,26.453a4.544,4.544,0,0,0,8.241,3.75l13.914-24.665a3.565,3.565,0,0,0-1.751-5.05l-6.319-2.6a3.567,3.567,0,0,0-4.716,2.108" transform="translate(27.782 21.75)" fill="#f5f5f5"/>
        <path id="Trazado_238540" data-name="Trazado 238540" d="M279.378,263.725a6.835,6.835,0,1,1-.591-9.649,6.834,6.834,0,0,1,.591,9.649" transform="translate(26.975 25.456)" fill="#f5f5f5"/>
        <path id="Trazado_238541" data-name="Trazado 238541" d="M184.9,56.4h8.925s0-8.222,7.788-8.37a7.285,7.285,0,0,1,6.994,5.057,9.522,9.522,0,0,1-.635,7.932c-1.514,2.739-4.832,5.228-10.846,4.064v22.08h8.825V74.235s12.377-3.511,12.377-18.477c0-14.32-11.7-17.646-16.713-17.646-3.831,0-16.882,1.016-16.713,18.292" transform="translate(18.651 3.844)" fill="#a3314f"/>
        <rect id="Rectángulo_51786" data-name="Rectángulo 51786" width="8.957" height="9.178" transform="translate(215.752 95.561)" fill="#a3314f"/>
      </g>
    </g>
    <g id="Grupo_165892" data-name="Grupo 165892">
      <g id="Grupo_165891" data-name="Grupo 165891" clip-path="url(#clip-path)">
        <path id="Trazado_238542" data-name="Trazado 238542" d="M402.848,199.561a3.588,3.588,0,0,1,.373-.338,3.913,3.913,0,0,1,1.335-.666,4.857,4.857,0,0,1,2.449-.039,5,5,0,0,1,2.839,1.808,6.986,6.986,0,0,1,1.43,4.041,10.133,10.133,0,0,1-1.227,5.043,30.373,30.373,0,0,1-8.709,9.574,72.993,72.993,0,0,1-6.451,4.3c-2.329,1.4-4.8,2.828-7.462,4.167a52.555,52.555,0,0,1-8.641,3.5,32.483,32.483,0,0,1-4.835,1.073,26.5,26.5,0,0,1-5.132.282,9.4,9.4,0,0,1-5.151-1.322,3.791,3.791,0,0,1-1.557-2.3,4.673,4.673,0,0,1,.346-2.8,14.159,14.159,0,0,1,3.472-4.5,41.482,41.482,0,0,1,4.523-3.7c3.229-2.282,6.677-4.406,10.219-6.6a53.3,53.3,0,0,1,11.577-5.5,29.456,29.456,0,0,1,6.544-1.283,18.071,18.071,0,0,1,6.8.635,9.569,9.569,0,0,1,5.6,4.086,7.651,7.651,0,0,1,.127,7.017,12.165,12.165,0,0,1-4.968,5.283,28.964,28.964,0,0,1-6.828,2.886,45.394,45.394,0,0,1-15.094,1.455,111.769,111.769,0,0,1-15.543-2.255,71.5,71.5,0,0,1-7.826-1.911,33.441,33.441,0,0,1-3.817-1.474,9.736,9.736,0,0,1-3.444-2.349,3.846,3.846,0,0,1-.925-1.962,3.664,3.664,0,0,1,.369-2.15,7.49,7.49,0,0,1,3.024-2.972,19.418,19.418,0,0,1,8.112-2.314,99.1,99.1,0,0,1,17.153.05,74.78,74.78,0,0,1,8.653,1.3c1.439.3,2.867.662,4.291,1.055a11.8,11.8,0,0,1,4.128,1.793,4.407,4.407,0,0,1,1.845,4.124,5.585,5.585,0,0,1-2.922,3.507,23.805,23.805,0,0,1-8.628,2.847,24.724,24.724,0,0,1-4.6.15,16.162,16.162,0,0,1-4.558-.855,6.9,6.9,0,0,1-3.728-2.852,4.913,4.913,0,0,1,.017-4.69,8.243,8.243,0,0,1,8.032-4.272,6.132,6.132,0,0,1,5.738,6.7,5.037,5.037,0,0,1-.8,2.342,4.985,4.985,0,0,1-1.865,1.638,7.13,7.13,0,0,1-4.825.476,5.512,5.512,0,0,1-3.922-2.868,2.633,2.633,0,0,1,.252-2.547,3.64,3.64,0,0,1,2.129-1.4,10.088,10.088,0,0,1,4.868.582,15.485,15.485,0,0,1,4.463,2.016,8.4,8.4,0,0,1,3.106,3.843,5.862,5.862,0,0,1-.269,4.939,8.9,8.9,0,0,1-3.559,3.478,12.315,12.315,0,0,1-4.739,1.525,14.126,14.126,0,0,1-9.554-2.359,17.207,17.207,0,0,1-6.164-7.8,14.554,14.554,0,0,1-.664-9.949,8.355,8.355,0,0,1,2.958-4.14,12.994,12.994,0,0,1,4.645-2.016,35.938,35.938,0,0,1,9.934-.777,51.257,51.257,0,0,1,9.835,1.1,13.955,13.955,0,0,1,8.25,5.241,9.272,9.272,0,0,1,1.639,4.678,11.71,11.71,0,0,1-.766,4.871,16.776,16.776,0,0,1-6.1,7.491,36.263,36.263,0,0,1-4.093,2.555,39.36,39.36,0,0,1-4.331,2.073,16.739,16.739,0,0,1-9.43,1.177,27.443,27.443,0,0,1-15.579-10.028,17.615,17.615,0,0,1-3.166-8.7,21.256,21.256,0,0,1,1.219-9.092,21.785,21.785,0,0,1,4.773-7.72,24.888,24.888,0,0,1,7.284-5.254,25.983,25.983,0,0,1,8.566-2.343,23.453,23.453,0,0,1,8.73.886,13.867,13.867,0,0,1,7.213,4.751,15.533,15.533,0,0,1,2.671,8.111,36.242,36.242,0,0,1-2.885,16.391,33.217,33.217,0,0,1-4.085,7.108,19.956,19.956,0,0,1-6.047,5.357,14.341,14.341,0,0,1-7.733,1.8,12.362,12.362,0,0,1-7.17-3.047,43.8,43.8,0,0,1-5.278-5.579,25.167,25.167,0,0,1-4.155-6.307,11.209,11.209,0,0,1-.837-3.67,10.677,10.677,0,0,1,.531-3.691,19.227,19.227,0,0,1,3.676-6.276,22.665,22.665,0,0,1,11.646-7.65,17,17,0,0,1,13.11,1.786,19.777,19.777,0,0,1,7.815,10.009,24.976,24.976,0,0,1,1.463,12.033,16.748,16.748,0,0,1-4.986,10.214,20.137,20.137,0,0,1-9.7,4.594,29.858,29.858,0,0,1-10.052.427,15.228,15.228,0,0,1-8.366-3.933,17.163,17.163,0,0,1-4.553-7.19,17.64,17.64,0,0,1-.739-7.693,22.232,22.232,0,0,1,5.269-11.742,27.351,27.351,0,0,1,7.39-5.972,32.613,32.613,0,0,1,5.347-2.394c1.249-.429,1.908-.587,1.908-.587s-.159.059-.476.163-.792.258-1.414.479a33.877,33.877,0,0,0-5.308,2.44,27.428,27.428,0,0,0-7.317,5.982,22.088,22.088,0,0,0-5.177,11.657,17.421,17.421,0,0,0,.753,7.589,16.914,16.914,0,0,0,4.5,7.068,14.945,14.945,0,0,0,8.225,3.84,29.56,29.56,0,0,0,9.942-.448,19.809,19.809,0,0,0,9.535-4.531,16.389,16.389,0,0,0,4.857-10.01,24.607,24.607,0,0,0-1.461-11.846,19.39,19.39,0,0,0-7.668-9.8,16.587,16.587,0,0,0-12.794-1.72,22.233,22.233,0,0,0-11.411,7.522,18.8,18.8,0,0,0-3.586,6.13,10.2,10.2,0,0,0-.505,3.534,10.775,10.775,0,0,0,.807,3.516,24.717,24.717,0,0,0,4.089,6.18,43.351,43.351,0,0,0,5.22,5.512,11.874,11.874,0,0,0,6.9,2.934,13.865,13.865,0,0,0,7.464-1.753,19.477,19.477,0,0,0,5.889-5.231,32.76,32.76,0,0,0,4.016-7A35.734,35.734,0,0,0,402,203.972a15.024,15.024,0,0,0-2.576-7.84,13.35,13.35,0,0,0-6.949-4.558,22.9,22.9,0,0,0-8.526-.859,25.476,25.476,0,0,0-8.383,2.3,22.691,22.691,0,0,0-11.773,12.673,20.721,20.721,0,0,0-1.185,8.858,17.048,17.048,0,0,0,3.07,8.424,26.882,26.882,0,0,0,15.225,9.8,16.171,16.171,0,0,0,9.123-1.149,38.755,38.755,0,0,0,4.268-2.044,35.433,35.433,0,0,0,4.028-2.517,16.19,16.19,0,0,0,5.9-7.234,11.144,11.144,0,0,0,.731-4.631,8.692,8.692,0,0,0-1.54-4.392,13.394,13.394,0,0,0-7.922-5.012,50.943,50.943,0,0,0-9.715-1.087,35.407,35.407,0,0,0-9.777.763,12.428,12.428,0,0,0-4.44,1.92,7.782,7.782,0,0,0-2.757,3.863,13.992,13.992,0,0,0,.652,9.55,16.643,16.643,0,0,0,5.955,7.537,13.548,13.548,0,0,0,9.167,2.266,11.786,11.786,0,0,0,4.523-1.452,8.345,8.345,0,0,0,3.337-3.249,5.287,5.287,0,0,0,.241-4.47,7.826,7.826,0,0,0-2.9-3.579,14.877,14.877,0,0,0-4.3-1.938,9.621,9.621,0,0,0-4.572-.577,3.079,3.079,0,0,0-1.8,1.168,2.063,2.063,0,0,0-.195,2.01,4.974,4.974,0,0,0,3.528,2.534,6.58,6.58,0,0,0,4.438-.426,4.287,4.287,0,0,0,2.364-3.532A5.572,5.572,0,0,0,384.014,211a7.688,7.688,0,0,0-7.48,3.965,4.35,4.35,0,0,0-.032,4.169,6.356,6.356,0,0,0,3.436,2.607,15.638,15.638,0,0,0,4.4.825,24.165,24.165,0,0,0,4.489-.145,23.255,23.255,0,0,0,8.419-2.77,5.069,5.069,0,0,0,2.669-3.137,3.878,3.878,0,0,0-1.642-3.6,11.3,11.3,0,0,0-3.946-1.7c-1.412-.391-2.828-.755-4.256-1.049a74.539,74.539,0,0,0-8.591-1.3,98.723,98.723,0,0,0-17.052-.061,18.92,18.92,0,0,0-7.9,2.239,6.993,6.993,0,0,0-2.829,2.755,3.141,3.141,0,0,0,.486,3.565,9.259,9.259,0,0,0,3.27,2.219,32.785,32.785,0,0,0,3.757,1.455,71,71,0,0,0,7.771,1.9,111.508,111.508,0,0,0,15.474,2.261,44.993,44.993,0,0,0,14.94-1.422,28.582,28.582,0,0,0,6.72-2.829,11.735,11.735,0,0,0,4.8-5.079,7.214,7.214,0,0,0-.1-6.621,9.146,9.146,0,0,0-5.352-3.9,17.646,17.646,0,0,0-6.64-.626,29.053,29.053,0,0,0-6.454,1.256,52.882,52.882,0,0,0-11.5,5.445c-3.535,2.178-7,4.3-10.206,6.564a41.029,41.029,0,0,0-4.492,3.66,13.846,13.846,0,0,0-3.4,4.375,4.353,4.353,0,0,0-.332,2.594,3.453,3.453,0,0,0,1.42,2.1,9.1,9.1,0,0,0,4.971,1.273,26.283,26.283,0,0,0,5.075-.266,32.338,32.338,0,0,0,4.8-1.054,52.359,52.359,0,0,0,8.6-3.457c2.659-1.327,5.126-2.748,7.456-4.135a73.257,73.257,0,0,0,6.445-4.264,30.307,30.307,0,0,0,8.692-9.473,10,10,0,0,0,1.235-4.961,6.873,6.873,0,0,0-1.378-3.975,4.906,4.906,0,0,0-2.768-1.794,4.838,4.838,0,0,0-2.414.01,4.128,4.128,0,0,0-1.724.948" transform="translate(35.591 19.175)" fill="#f5f5f5"/>
        <path id="Trazado_238543" data-name="Trazado 238543" d="M299.892,29.722a6.577,6.577,0,0,1,.6-.535,6.31,6.31,0,0,1,2.138-1.057,7.794,7.794,0,0,1,3.915-.054,7.983,7.983,0,0,1,4.527,2.893,11.153,11.153,0,0,1,2.277,6.454,16.21,16.21,0,0,1-1.968,8.056c-2.825,5.372-7.707,10.579-13.95,15.308A116.727,116.727,0,0,1,287.1,67.663c-3.733,2.235-7.685,4.526-11.952,6.666a84.184,84.184,0,0,1-13.832,5.592,52.115,52.115,0,0,1-7.735,1.714,42.474,42.474,0,0,1-8.206.446c-2.76-.066-5.74-.432-8.2-2.1a5.984,5.984,0,0,1-2.454-3.616,7.4,7.4,0,0,1,.55-4.421c1.177-2.808,3.348-5.047,5.543-7.17a66.154,66.154,0,0,1,7.237-5.918c2.568-1.844,5.261-3.584,8-5.326s5.513-3.511,8.37-5.234a85.2,85.2,0,0,1,18.523-8.8A47.151,47.151,0,0,1,293.4,37.446a28.787,28.787,0,0,1,10.844,1.016,18.98,18.98,0,0,1,5.031,2.393,12.32,12.32,0,0,1,3.87,4.1,12.125,12.125,0,0,1,.195,11.122,19.376,19.376,0,0,1-7.909,8.4,46.369,46.369,0,0,1-10.907,4.607,72.644,72.644,0,0,1-24.135,2.322,179.072,179.072,0,0,1-24.883-3.614,114.545,114.545,0,0,1-12.522-3.06,53.294,53.294,0,0,1-6.1-2.356,15.443,15.443,0,0,1-5.465-3.725,6,6,0,0,1-1.445-3.066,5.7,5.7,0,0,1,.576-3.357,11.84,11.84,0,0,1,4.787-4.7c3.9-2.326,8.449-3.241,12.933-3.686a158.817,158.817,0,0,1,27.451.083,120.374,120.374,0,0,1,13.846,2.087c2.3.474,4.586,1.059,6.864,1.689a18.763,18.763,0,0,1,6.56,2.846,8.189,8.189,0,0,1,2.329,2.815A5.792,5.792,0,0,1,295.889,57a6.48,6.48,0,0,1-1.725,3.254,12.9,12.9,0,0,1-2.881,2.255,37.95,37.95,0,0,1-13.76,4.538,39.359,39.359,0,0,1-7.33.239,25.726,25.726,0,0,1-7.256-1.362,10.877,10.877,0,0,1-5.884-4.5,7.115,7.115,0,0,1-.927-3.684,8.746,8.746,0,0,1,.959-3.674,13.041,13.041,0,0,1,12.7-6.753,9.657,9.657,0,0,1,9.043,10.55,7.909,7.909,0,0,1-1.255,3.674,7.824,7.824,0,0,1-2.924,2.568,11.256,11.256,0,0,1-7.614.746,8.665,8.665,0,0,1-6.166-4.494,4.05,4.05,0,0,1,.386-3.92,5.667,5.667,0,0,1,3.313-2.17,9.717,9.717,0,0,1,3.937,0,38.205,38.205,0,0,1,3.773.935,24.561,24.561,0,0,1,7.1,3.206,13.266,13.266,0,0,1,4.914,6.077,9.776,9.776,0,0,1,.655,3.928,9.235,9.235,0,0,1-1.078,3.843,14.084,14.084,0,0,1-5.634,5.5,17.907,17.907,0,0,1-3.642,1.589,19.611,19.611,0,0,1-3.887.831,22.449,22.449,0,0,1-15.191-3.751A27.413,27.413,0,0,1,245.7,64.019a26.663,26.663,0,0,1-1.92-7.8,19.722,19.722,0,0,1,.861-8.018,13.22,13.22,0,0,1,4.679-6.55,20.658,20.658,0,0,1,7.379-3.2,57.426,57.426,0,0,1,15.87-1.242c5.272.27,10.574.483,15.72,1.765,5.1,1.249,10.064,3.938,13.119,8.329a14.682,14.682,0,0,1,2.6,7.407,18.6,18.6,0,0,1-1.218,7.733c-1.833,4.953-5.569,8.912-9.716,11.925a57.694,57.694,0,0,1-6.537,4.082,63.1,63.1,0,0,1-6.92,3.314,32.5,32.5,0,0,1-7.385,2.036,23.663,23.663,0,0,1-7.631-.159,39.5,39.5,0,0,1-13.878-5.876,39.287,39.287,0,0,1-10.977-10.12,28.065,28.065,0,0,1-5.044-13.85,34.8,34.8,0,0,1,5.116-21.068c.611-1.051,1.382-2,2.064-3,.787-.919,1.526-1.885,2.375-2.744A39.721,39.721,0,0,1,255.879,18.6a41.5,41.5,0,0,1,13.668-3.74,37.385,37.385,0,0,1,13.926,1.411c4.435,1.362,8.7,3.781,11.477,7.554s3.908,8.416,4.25,12.915a57.9,57.9,0,0,1-4.607,26.188,53.025,53.025,0,0,1-6.525,11.357,31.835,31.835,0,0,1-9.64,8.546A22.834,22.834,0,0,1,266.12,85.7,17.973,17.973,0,0,1,260,84.2a22.852,22.852,0,0,1-5.283-3.341,69.93,69.93,0,0,1-8.437-8.918,40.147,40.147,0,0,1-6.637-10.066,17.847,17.847,0,0,1-1.332-5.834,16.976,16.976,0,0,1,.842-5.868,30.678,30.678,0,0,1,5.863-10.01A36.171,36.171,0,0,1,263.6,27.941c7.136-1.81,14.9-.948,20.91,2.84a28.17,28.17,0,0,1,7.635,7.055,36.591,36.591,0,0,1,4.842,8.919,39.88,39.88,0,0,1,2.344,19.22,30.423,30.423,0,0,1-2.6,8.979,24.4,24.4,0,0,1-5.345,7.324c-4.435,4.089-10.064,6.216-15.495,7.342a47.754,47.754,0,0,1-16.072.691,26.028,26.028,0,0,1-7.311-2.16,23.741,23.741,0,0,1-6.05-4.114,27.433,27.433,0,0,1-7.28-11.482,28.188,28.188,0,0,1-1.188-12.295,33.893,33.893,0,0,1,3.106-10.629,37.249,37.249,0,0,1,5.308-8.159A43.916,43.916,0,0,1,258.217,31.9a52.69,52.69,0,0,1,8.554-3.85c2-.692,3.053-.957,3.053-.957s-.256.089-.766.252-1.27.407-2.267.76A53.912,53.912,0,0,0,258.275,32a43.939,43.939,0,0,0-11.746,9.581,37.127,37.127,0,0,0-5.26,8.132,33.7,33.7,0,0,0-3.063,10.571,27.987,27.987,0,0,0,1.2,12.191,27.2,27.2,0,0,0,7.231,11.36,24.042,24.042,0,0,0,13.219,6.18,47.487,47.487,0,0,0,15.963-.711c5.393-1.126,10.961-3.245,15.326-7.28a24.07,24.07,0,0,0,5.259-7.224,30.117,30.117,0,0,0,2.563-8.875,39.518,39.518,0,0,0-2.343-19.035,36.248,36.248,0,0,0-4.8-8.818,27.756,27.756,0,0,0-7.531-6.948c-5.911-3.719-13.556-4.565-20.594-2.775a35.759,35.759,0,0,0-18.352,12.09,30.252,30.252,0,0,0-5.772,9.865,16.479,16.479,0,0,0-.818,5.71,17.4,17.4,0,0,0,1.3,5.679,39.748,39.748,0,0,0,6.57,9.941,69.563,69.563,0,0,0,8.382,8.851,19.16,19.16,0,0,0,11.138,4.734A22.347,22.347,0,0,0,278.193,82.4a31.353,31.353,0,0,0,9.482-8.419,52.572,52.572,0,0,0,6.456-11.251,57.409,57.409,0,0,0,4.555-25.951c-.339-4.442-1.46-8.992-4.156-12.645s-6.845-6.022-11.212-7.359a36.86,36.86,0,0,0-13.722-1.385,40.942,40.942,0,0,0-13.485,3.695,39.157,39.157,0,0,0-11.458,8.272c-.837.847-1.562,1.8-2.337,2.7-.672.986-1.431,1.916-2.032,2.951a34.258,34.258,0,0,0-5.03,20.731,27.518,27.518,0,0,0,4.947,13.58,38.761,38.761,0,0,0,10.826,9.971A38.946,38.946,0,0,0,264.7,83.085a23.1,23.1,0,0,0,7.454.153,31.844,31.844,0,0,0,7.255-2,62.206,62.206,0,0,0,6.857-3.285,57.212,57.212,0,0,0,6.473-4.042c4.1-2.978,7.738-6.851,9.519-11.668a18.048,18.048,0,0,0,1.181-7.493,14.109,14.109,0,0,0-2.5-7.123,18.489,18.489,0,0,0-5.625-5.182,25.69,25.69,0,0,0-7.166-2.917c-5.055-1.261-10.349-1.478-15.6-1.746a56.835,56.835,0,0,0-15.711,1.226,20.092,20.092,0,0,0-7.177,3.1,12.652,12.652,0,0,0-4.476,6.274,19.145,19.145,0,0,0-.832,7.785,26.038,26.038,0,0,0,1.88,7.636,26.837,26.837,0,0,0,9.6,12.153,21.883,21.883,0,0,0,14.8,3.658,19.144,19.144,0,0,0,3.78-.809,17.341,17.341,0,0,0,3.532-1.54,13.525,13.525,0,0,0,5.413-5.272,8.636,8.636,0,0,0,.394-7.3,12.693,12.693,0,0,0-4.706-5.813,23.985,23.985,0,0,0-6.938-3.129c-2.441-.669-4.987-1.482-7.414-.926a5.1,5.1,0,0,0-2.98,1.94,3.477,3.477,0,0,0-.329,3.383,6.536,6.536,0,0,0,2.375,2.72,10,10,0,0,0,3.4,1.44,10.7,10.7,0,0,0,7.226-.7,7.251,7.251,0,0,0,2.715-2.381,7.349,7.349,0,0,0,1.164-3.412,9.1,9.1,0,0,0-8.536-9.942,12.487,12.487,0,0,0-12.151,6.444,8.183,8.183,0,0,0-.9,3.438,6.559,6.559,0,0,0,.854,3.4,10.346,10.346,0,0,0,5.592,4.249,25.216,25.216,0,0,0,7.1,1.331,38.8,38.8,0,0,0,7.224-.234A37.4,37.4,0,0,0,291,62.042a12.335,12.335,0,0,0,2.761-2.156,5.943,5.943,0,0,0,1.592-2.982c.425-2.267-.9-4.548-2.693-5.927a18.27,18.27,0,0,0-6.376-2.755c-2.267-.627-4.539-1.211-6.83-1.683a119.378,119.378,0,0,0-13.784-2.083,158.43,158.43,0,0,0-27.35-.095c-4.451.439-8.927,1.344-12.724,3.611a11.349,11.349,0,0,0-4.592,4.479,5.2,5.2,0,0,0-.532,3.063,5.5,5.5,0,0,0,1.331,2.813,14.98,14.98,0,0,0,5.291,3.6,52.629,52.629,0,0,0,6.037,2.337A113.985,113.985,0,0,0,245.6,67.312a178.815,178.815,0,0,0,24.813,3.621A72.192,72.192,0,0,0,294.4,68.644a45.918,45.918,0,0,0,10.8-4.551,18.932,18.932,0,0,0,7.74-8.2,11.687,11.687,0,0,0-.167-10.727,11.888,11.888,0,0,0-3.736-3.958,18.6,18.6,0,0,0-4.915-2.343,28.4,28.4,0,0,0-10.685-1.007,46.727,46.727,0,0,0-10.369,2.021,84.836,84.836,0,0,0-18.444,8.742c-2.852,1.716-5.627,3.483-8.368,5.219s-5.427,3.472-7.988,5.306a65.826,65.826,0,0,0-7.205,5.878c-2.189,2.109-4.329,4.323-5.47,7.047a7.066,7.066,0,0,0-.537,4.217,5.645,5.645,0,0,0,2.316,3.418c2.353,1.607,5.279,1.988,8.019,2.053a42.093,42.093,0,0,0,8.15-.432,51.86,51.86,0,0,0,7.7-1.693,83.989,83.989,0,0,0,13.794-5.552c4.26-2.128,8.212-4.409,11.947-6.634A117.15,117.15,0,0,0,297.3,60.609c6.234-4.7,11.112-9.88,13.933-15.207a16.073,16.073,0,0,0,1.977-7.971,11.043,11.043,0,0,0-2.224-6.389,7.9,7.9,0,0,0-4.456-2.88,7.77,7.77,0,0,0-3.878.025,6.456,6.456,0,0,0-2.758,1.536" transform="translate(22.183 1.484)"/>
        <path id="Trazado_238544" data-name="Trazado 238544" d="M106.964,161.826s-.208-.014-.61-.07l-1.779-.279a26.294,26.294,0,0,1-6.653-1.909,12.5,12.5,0,0,1-4.058-2.947,9.33,9.33,0,0,1-2.475-5.4,6.283,6.283,0,0,1,.618-3.3,7,7,0,0,1,2.4-2.655,5.6,5.6,0,0,1,3.67-.924,4.689,4.689,0,0,1,3.336,2.151,6.71,6.71,0,0,1,.9,4.082,10.485,10.485,0,0,1-1.227,4.192,9.072,9.072,0,0,1-1.323,1.837,14.293,14.293,0,0,1-1.651,1.6,15.865,15.865,0,0,1-4.111,2.3,16.482,16.482,0,0,1-4.772.971,15.206,15.206,0,0,1-5-.506,14.471,14.471,0,0,1-4.688-2.206,12.914,12.914,0,0,1-3.571-3.95,16.175,16.175,0,0,1-1.961-10.7,15.032,15.032,0,0,1,1.945-5.362,13.88,13.88,0,0,1,1.767-2.315,7.836,7.836,0,0,1,2.354-1.805,4.087,4.087,0,0,1,3.027-.359,3.614,3.614,0,0,1,1.356.827,3.5,3.5,0,0,1,.785,1.386,6.5,6.5,0,0,1,0,3.068,12.764,12.764,0,0,1-1,2.873c-.943,1.8-1.966,3.507-3.075,5.227a26.268,26.268,0,0,1-3.9,4.771,15.31,15.31,0,0,1-5.259,3.256,10.383,10.383,0,0,1-6.1.36,11.29,11.29,0,0,1-5.181-3.068,15.645,15.645,0,0,1-3.274-4.933,33.293,33.293,0,0,1-2.034-11.234,27.676,27.676,0,0,1,.1-5.561,7.793,7.793,0,0,1,2.348-4.933,4.926,4.926,0,0,1,2.512-1.134,5.581,5.581,0,0,1,2.694.315,7.088,7.088,0,0,1,3.853,3.478,9.356,9.356,0,0,1,.772,4.984,15.106,15.106,0,0,1-1.291,4.7,20.652,20.652,0,0,1-2.373,4.056,22.438,22.438,0,0,1-10.415,7.544,20.727,20.727,0,0,1-7.6,1.155,19.97,19.97,0,0,1-6.7-1.454,22.189,22.189,0,0,1-8.781-6.456,20.384,20.384,0,0,1-3.466-5.98,13.4,13.4,0,0,1-.538-1.72c-.1-.392-.143-.6-.143-.6.046-.014.209.808.789,2.273a20.935,20.935,0,0,0,3.528,5.879,22.1,22.1,0,0,0,8.729,6.3,19.657,19.657,0,0,0,6.594,1.388,20.391,20.391,0,0,0,7.453-1.172,22.043,22.043,0,0,0,10.182-7.439,20.216,20.216,0,0,0,2.305-3.969,14.645,14.645,0,0,0,1.238-4.554,8.876,8.876,0,0,0-.736-4.719,6.588,6.588,0,0,0-3.577-3.21,4.62,4.62,0,0,0-4.688.738,7.276,7.276,0,0,0-2.157,4.608,27.177,27.177,0,0,0-.086,5.453,32.859,32.859,0,0,0,2.007,11.045,15.087,15.087,0,0,0,3.156,4.75,10.734,10.734,0,0,0,4.921,2.916,9.814,9.814,0,0,0,5.764-.347,14.773,14.773,0,0,0,5.057-3.135c2.938-2.783,4.955-6.382,6.853-9.827a8.582,8.582,0,0,0,.973-5.534,2.921,2.921,0,0,0-.646-1.15,3.05,3.05,0,0,0-1.122-.684,3.527,3.527,0,0,0-2.61.326,7.284,7.284,0,0,0-2.2,1.685,13.306,13.306,0,0,0-1.7,2.217,14.475,14.475,0,0,0-1.88,5.163,15.651,15.651,0,0,0,1.874,10.337,12.9,12.9,0,0,0,7.936,5.939,15.869,15.869,0,0,0,9.479-.423,15.424,15.424,0,0,0,3.987-2.213,12.134,12.134,0,0,0,2.873-3.292,10.067,10.067,0,0,0,1.193-4.008,6.323,6.323,0,0,0-.822-3.837,4.3,4.3,0,0,0-3.044-1.986,5.236,5.236,0,0,0-3.424.849,6.658,6.658,0,0,0-2.288,2.5,5.953,5.953,0,0,0-.6,3.122,9.058,9.058,0,0,0,2.359,5.238,12.318,12.318,0,0,0,3.95,2.928,27.327,27.327,0,0,0,6.578,2l1.768.335c.4.075.6.128.6.128" transform="translate(2.662 12.623)"/>
      </g>
    </g>
    <g id="Grupo_165894" data-name="Grupo 165894">
      <g id="Grupo_165893" data-name="Grupo 165893" clip-path="url(#clip-path)">
        <path id="Trazado_238545" data-name="Trazado 238545" d="M29.965,439.526c0,6.493,2.84,9.979,5.224,11.758,3.208,2.4,7.288,3.095,10.949,3.095a34.989,34.989,0,0,0,7.884-.959c5.151,8.87,14.154,15.917,29.882,15.194,35.141-1.623,32.957-47.517,32.957-47.517H47.353s-.111,1.515-.092,3.97c-3.344-.117-8.772.313-12.744,3.669-2.076,1.755-4.552,5.049-4.552,10.79m6.85,0c0-2.533.694-4.35,2.122-5.557,2.322-1.963,6.326-2.16,8.7-2.014a61.252,61.252,0,0,0,3.383,15.093c-3.461.624-8.777.967-11.745-1.258-1.658-1.245-2.465-3.292-2.465-6.264" transform="translate(3.023 42.477)" fill="#455a64"/>
        <path id="Trazado_238546" data-name="Trazado 238546" d="M94.815,451.8a24.479,24.479,0,0,1,1.53-2.727,56.84,56.84,0,0,0,5.719-13.839,24.4,24.4,0,0,1,.841-3.011,13.053,13.053,0,0,1-.447,3.107,43.021,43.021,0,0,1-5.766,13.954,13.049,13.049,0,0,1-1.877,2.517" transform="translate(9.564 43.599)" fill="#f5f5f5"/>
        <path id="Trazado_238547" data-name="Trazado 238547" d="M89.8,452.459a87.486,87.486,0,0,1,1.879-9.818,87.441,87.441,0,0,1,2.438-9.694,87.521,87.521,0,0,1-1.879,9.819,87.538,87.538,0,0,1-2.438,9.693" transform="translate(9.057 43.672)" fill="#f5f5f5"/>
        <path id="Trazado_238548" data-name="Trazado 238548" d="M82.222,451.725a15.554,15.554,0,0,1,.358-2.813c.276-1.724.65-4.105,1-6.744s.6-5.036.776-6.774a15.493,15.493,0,0,1,.379-2.809,12.68,12.68,0,0,1,.025,2.839c-.075,1.75-.265,4.166-.612,6.819s-.787,5.034-1.166,6.745a12.7,12.7,0,0,1-.756,2.737" transform="translate(8.292 43.635)" fill="#f5f5f5"/>
        <path id="Trazado_238549" data-name="Trazado 238549" d="M76.029,433.472a13.836,13.836,0,0,1,.089,2.616c.007,1.612.04,3.834.183,6.285s.373,4.662.556,6.263a13.96,13.96,0,0,1,.219,2.608,10.431,10.431,0,0,1-.621-2.55,56.41,56.41,0,0,1-.742-12.616,10.411,10.411,0,0,1,.316-2.606" transform="translate(7.629 43.725)" fill="#f5f5f5"/>
        <path id="Trazado_238550" data-name="Trazado 238550" d="M66.176,430.992a21.82,21.82,0,0,1,.227,2.956,52.185,52.185,0,0,0,2.813,13.907,21.519,21.519,0,0,1,.939,2.812A11.821,11.821,0,0,1,68.836,448,39.27,39.27,0,0,1,66,433.964a11.838,11.838,0,0,1,.178-2.972" transform="translate(6.657 43.475)" fill="#f5f5f5"/>
        <path id="Trazado_238551" data-name="Trazado 238551" d="M55.8,434.878c.178-.037.866,3.829,2.786,8.225,1.889,4.411,4.236,7.56,4.086,7.664a9.076,9.076,0,0,1-1.62-2,32.814,32.814,0,0,1-4.907-11.342,9.1,9.1,0,0,1-.346-2.549" transform="translate(5.626 43.867)" fill="#f5f5f5"/>
        <path id="Trazado_238552" data-name="Trazado 238552" d="M81.555,357.565a3.5,3.5,0,0,1,.608.412,7.854,7.854,0,0,1,1.447,1.537,11.71,11.71,0,0,1,1.972,7.406c-.078,3.335-1.668,7.054-3.86,10.744-2.141,3.71-4.927,7.654-5.943,12.482a12.719,12.719,0,0,0,.392,6.988,22.339,22.339,0,0,0,3.313,5.753c1.285,1.71,2.609,3.276,3.722,4.846a20.845,20.845,0,0,1,2.608,4.683,10.452,10.452,0,0,1,.117,7.64,6.875,6.875,0,0,1-1.09,1.808,2.8,2.8,0,0,1-.526.513,9.327,9.327,0,0,0,1.409-2.4,10.419,10.419,0,0,0-.287-7.412,20.727,20.727,0,0,0-2.617-4.551c-1.115-1.54-2.446-3.087-3.757-4.806a22.561,22.561,0,0,1-3.419-5.883,13.2,13.2,0,0,1-.425-7.291c1.054-4.985,3.9-8.963,6.048-12.635,2.2-3.656,3.784-7.265,3.911-10.5a11.75,11.75,0,0,0-1.751-7.258,11.878,11.878,0,0,0-1.87-2.076" transform="translate(7.555 36.068)" fill="#263238"/>
        <path id="Trazado_238553" data-name="Trazado 238553" d="M74.573,362.722a2.77,2.77,0,0,1,.424.5,7.12,7.12,0,0,1,.871,1.678,11.3,11.3,0,0,1,.052,6.877c-.733,2.889-2.707,5.852-4.8,9.047a31.664,31.664,0,0,0-2.862,5.245,22.906,22.906,0,0,0-1.492,6.2,22.443,22.443,0,0,0,2.2,12.006c.841,1.705,1.881,3.212,2.76,4.688A19.786,19.786,0,0,1,73.79,413.3a8.574,8.574,0,0,1-.576,6.8,5.225,5.225,0,0,1-1.256,1.417,2.459,2.459,0,0,1-.566.339,6.7,6.7,0,0,0,1.629-1.868,8.493,8.493,0,0,0,.382-6.57,19.886,19.886,0,0,0-2.085-4.208c-.888-1.452-1.95-2.955-2.827-4.7a22.7,22.7,0,0,1-2.3-12.3,23.133,23.133,0,0,1,1.541-6.358,31.569,31.569,0,0,1,2.939-5.32c2.136-3.2,4.1-6.077,4.857-8.87a11.383,11.383,0,0,0,.128-6.694,11.721,11.721,0,0,0-1.083-2.254" transform="translate(6.667 36.588)" fill="#263238"/>
        <rect id="Rectángulo_51789" data-name="Rectángulo 51789" width="29.566" height="5.639" transform="translate(70.593 507.007)" fill="#455a64"/>
      </g>
    </g>
    <g id="Grupo_165896" data-name="Grupo 165896">
      <g id="Grupo_165909" data-name="Grupo 165909">
        <path id="Trazado_238554" data-name="Trazado 238554" d="M396.711,361.618c-.119.149-1.115-.45-2.224-1.338s-1.912-1.728-1.793-1.878,1.115.45,2.225,1.339,1.911,1.728,1.792,1.877" transform="translate(39.61 36.15)" fill="#263238"/>
        <path id="Trazado_238555" data-name="Trazado 238555" d="M426.809,322.195c.183-4.226.3-8.558-1.031-12.572s-4.429-7.705-8.57-8.563c-4.727-.98-9.57,2-12.219,6.04s-3.559,8.935-4.342,13.7a483.727,483.727,0,0,0-5.929,99.432l19.342,2.711c8.5-34.708,11.206-65.047,12.749-100.747" transform="translate(39.769 30.349)" fill="#455a64"/>
        <path id="Trazado_238556" data-name="Trazado 238556" d="M413.968,300.907a1.112,1.112,0,0,1-.087.308c-.087.237-.192.525-.32.877q-.472,1.227-1.288,3.341c-.27.728-.629,1.516-.917,2.416s-.6,1.883-.939,2.931-.7,2.175-1.083,3.363q-.474,1.82-1,3.835a168.2,168.2,0,0,0-3.736,19.142c-1.047,7.273-1.733,15.331-2.273,23.8-.989,16.947-1.144,32.329-1.58,43.454-.206,5.562-.4,10.063-.61,13.17q-.154,2.261-.242,3.576c-.032.374-.058.679-.08.929a1.146,1.146,0,0,1-.051.315,1.075,1.075,0,0,1-.02-.318c0-.252.007-.558.012-.934l.112-3.581c.13-3.109.247-7.61.391-13.172.31-11.122.388-26.506,1.378-43.48.541-8.479,1.247-16.553,2.332-23.844a160.253,160.253,0,0,1,3.894-19.177q.552-2.013,1.05-3.835.6-1.78,1.138-3.36c.357-1.044.689-2.019,1-2.92s.686-1.681.975-2.4q.893-2.086,1.411-3.3l.383-.85a1.128,1.128,0,0,1,.152-.28" transform="translate(40.323 30.353)" fill="#263238"/>
        <path id="Trazado_238557" data-name="Trazado 238557" d="M414.708,300.917a13.856,13.856,0,0,1,2.364,4c1.216,2.761,1.979,7.152,1.764,12.513-.514,10.687-1.471,25.415-2.743,41.676s-2.7,30.963-3.838,41.591c-.57,5.313-1.066,9.609-1.429,12.576q-.277,2.153-.439,3.413c-.053.354-.1.645-.131.886a1.045,1.045,0,0,1-.068.3,1.031,1.031,0,0,1,0-.307c.018-.242.039-.536.063-.894q.116-1.263.31-3.427c.292-3.037.7-7.325,1.21-12.6,1.017-10.637,2.357-25.339,3.635-41.6s2.306-30.984,2.944-41.637c.276-5.322-.4-9.64-1.525-12.4a26.082,26.082,0,0,0-2.114-4.1" transform="translate(41.375 30.354)" fill="#263238"/>
        <path id="Trazado_238558" data-name="Trazado 238558" d="M427.125,346.626c-.064.179-1.705-.244-3.666-.948s-3.5-1.419-3.433-1.6,1.705.244,3.666.948,3.5,1.419,3.433,1.6" transform="translate(42.368 34.704)" fill="#263238"/>
        <path id="Trazado_238559" data-name="Trazado 238559" d="M429.256,328.486c.078.174-1.484,1.043-3.488,1.939s-3.691,1.483-3.769,1.309,1.483-1.043,3.488-1.94,3.691-1.482,3.769-1.308" transform="translate(42.567 33.132)" fill="#263238"/>
        <path id="Trazado_238560" data-name="Trazado 238560" d="M428.018,313.923c-.013.19-1.3.257-2.883.148s-2.849-.351-2.836-.542,1.3-.256,2.883-.147,2.849.351,2.836.542" transform="translate(42.598 31.606)" fill="#263238"/>
        <path id="Trazado_238561" data-name="Trazado 238561" d="M409.658,304.971c-.162.1-1.008-.953-1.891-2.357s-1.469-2.623-1.307-2.726,1.008.954,1.891,2.358,1.469,2.623,1.307,2.725" transform="translate(40.997 30.249)" fill="#263238"/>
        <path id="Trazado_238562" data-name="Trazado 238562" d="M403.873,313.378c0,.19-1.234.319-2.747.287s-2.737-.214-2.732-.4,1.233-.319,2.747-.287,2.737.214,2.732.4" transform="translate(40.187 31.57)" fill="#263238"/>
        <path id="Trazado_238563" data-name="Trazado 238563" d="M399.576,331.231c-.072.177-1.366-.178-2.891-.793s-2.7-1.258-2.632-1.434,1.365.178,2.891.793,2.7,1.257,2.632,1.434" transform="translate(39.748 33.182)" fill="#263238"/>
        <path id="Trazado_238564" data-name="Trazado 238564" d="M399.074,345.9c.04.187-1.062.576-2.46.87s-2.564.38-2.6.193,1.062-.576,2.462-.87,2.563-.38,2.6-.193" transform="translate(39.744 34.882)" fill="#263238"/>
        <path id="Trazado_238565" data-name="Trazado 238565" d="M397.076,370.227c.034.188-1.136.555-2.612.819s-2.7.327-2.736.139,1.136-.554,2.613-.819,2.7-.327,2.735-.139" transform="translate(39.514 37.334)" fill="#263238"/>
        <path id="Trazado_238566" data-name="Trazado 238566" d="M395.671,383.647c.089.168-.886.86-2.179,1.543s-2.412,1.1-2.5.932.885-.86,2.179-1.543,2.412-1.1,2.5-.932" transform="translate(39.439 38.695)" fill="#263238"/>
        <path id="Trazado_238567" data-name="Trazado 238567" d="M406.5,399.4c-.165.095-1.016-1.079-1.9-2.62s-1.464-2.87-1.3-2.965,1.015,1.079,1.9,2.621,1.464,2.869,1.3,2.964" transform="translate(40.679 39.724)" fill="#263238"/>
        <path id="Trazado_238568" data-name="Trazado 238568" d="M409.8,373.559c.133.136-.814,1.281-2.115,2.557s-2.465,2.2-2.6,2.063.812-1.28,2.115-2.556,2.465-2.2,2.6-2.064" transform="translate(40.861 37.68)" fill="#263238"/>
        <path id="Trazado_238569" data-name="Trazado 238569" d="M408.984,360.609c-.14.13-1.018-.591-1.962-1.609s-1.6-1.95-1.455-2.08,1.018.591,1.962,1.609,1.6,1.95,1.455,2.08" transform="translate(40.908 36.002)" fill="#263238"/>
        <path id="Trazado_238570" data-name="Trazado 238570" d="M411.216,343.292c.142.128-.647,1.24-1.762,2.485s-2.136,2.152-2.278,2.024.647-1.24,1.762-2.486,2.136-2.151,2.278-2.023" transform="translate(41.071 34.627)" fill="#263238"/>
        <path id="Trazado_238571" data-name="Trazado 238571" d="M412.477,331.37c-.134.137-1.235-.729-2.459-1.933s-2.109-2.289-1.976-2.425,1.235.729,2.46,1.933,2.108,2.289,1.975,2.425" transform="translate(41.158 32.985)" fill="#263238"/>
        <path id="Trazado_238572" data-name="Trazado 238572" d="M414.757,314.313c.164.1-.389,1.327-1.235,2.746s-1.664,2.488-1.829,2.391.39-1.327,1.235-2.746,1.665-2.489,1.829-2.391" transform="translate(41.525 31.705)" fill="#263238"/>
        <path id="Trazado_238573" data-name="Trazado 238573" d="M419.258,298.877c.168.09-.321,1.321-1.092,2.748s-1.532,2.51-1.7,2.42.321-1.321,1.093-2.748,1.532-2.511,1.7-2.42" transform="translate(42.006 30.148)" fill="#263238"/>
        <path id="Trazado_238574" data-name="Trazado 238574" d="M424.478,305.893c.083.172-.691.714-1.728,1.21s-1.944.759-2.027.587.691-.714,1.728-1.21,1.944-.758,2.027-.587" transform="translate(42.438 30.851)" fill="#263238"/>
        <path id="Trazado_238575" data-name="Trazado 238575" d="M424.9,361.6c-.039.179-1.793-.062-3.784-.916s-3.384-1.946-3.281-2.1c.108-.166,1.619.643,3.551,1.461s3.558,1.36,3.513,1.552" transform="translate(42.148 36.169)" fill="#263238"/>
        <path id="Trazado_238576" data-name="Trazado 238576" d="M422.647,373.073c.036.187-1.128.57-2.6.854s-2.7.362-2.733.175,1.128-.57,2.6-.854,2.7-.362,2.732-.175" transform="translate(42.095 37.622)" fill="#263238"/>
        <path id="Trazado_238577" data-name="Trazado 238577" d="M420.02,393.751c-.112.144-1.59-.867-2.946-2.586s-2.011-3.381-1.846-3.457c.177-.091,1.074,1.382,2.388,3.027s2.533,2.863,2.4,3.015" transform="translate(41.882 39.108)" fill="#263238"/>
        <path id="Trazado_238578" data-name="Trazado 238578" d="M391.338,402.715c-.124-.145.662-1.021,1.755-1.955s2.081-1.575,2.205-1.431-.662,1.021-1.756,1.956-2.08,1.575-2.2,1.43" transform="translate(39.473 40.279)" fill="#263238"/>
        <path id="Trazado_238579" data-name="Trazado 238579" d="M384.6,359.249c-1.258-3.931-3.622-8.514-7.748-8.572a6.857,6.857,0,0,0-5.8,3.883,14.342,14.342,0,0,0-1.569,7.116,185.443,185.443,0,0,0,8.871,51.52h15.1a179.432,179.432,0,0,0-8.852-53.946" transform="translate(37.27 35.373)" fill="#455a64"/>
        <path id="Trazado_238580" data-name="Trazado 238580" d="M360.787,337.216c-2.11-8.443-8.408-13-15.722-13.426-6.676,1.17-9.265,7.742-10.058,14.472s1.3,13.43,3.361,19.885q9.939,31.088,19.879,62.176l18.788-2.051c-5.947-27.768-9.362-53.507-16.249-81.056" transform="translate(33.775 32.661)" fill="#455a64"/>
        <path id="Trazado_238581" data-name="Trazado 238581" d="M376.412,350.676a15.9,15.9,0,0,0-1.279,2.137,14.086,14.086,0,0,0-.707,6.678c.292,2.869.621,6.327,1.1,10.115s1.176,7.949,2.025,12.287c1.707,8.677,3.631,16.461,4.853,22.136.619,2.836,1.085,5.138,1.379,6.735.125.734.23,1.342.316,1.843a2.339,2.339,0,0,1,.064.652,2.337,2.337,0,0,1-.2-.624l-.443-1.815c-.4-1.682-.939-3.939-1.593-6.681-1.342-5.641-3.341-13.409-5.054-22.112-.851-4.351-1.518-8.525-1.978-12.342-.241-1.907-.4-3.726-.555-5.428-.138-1.692-.323-3.274-.4-4.733a13.7,13.7,0,0,1,.95-6.822,5.967,5.967,0,0,1,1.524-2.025" transform="translate(37.714 35.373)" fill="#263238"/>
        <path id="Trazado_238582" data-name="Trazado 238582" d="M344.9,323.3a25.1,25.1,0,0,0-2.27,3.051,21.458,21.458,0,0,0-2.86,9.831c-.287,4.373.687,9.56,2.325,15.126,1.649,5.592,3.46,11.726,5.36,18.168,3.746,12.878,7.137,24.532,9.617,33.054,1.182,4.184,2.147,7.595,2.838,10.039l.738,2.739a5.248,5.248,0,0,1,.212.969,5.364,5.364,0,0,1-.346-.929c-.218-.683-.5-1.581-.863-2.7L356.6,402.67c-2.53-8.507-5.989-20.14-9.811-33-1.884-6.449-3.676-12.591-5.311-18.19-1.611-5.6-2.555-10.878-2.2-15.331a21.083,21.083,0,0,1,3.119-9.941,11.575,11.575,0,0,1,2.5-2.909" transform="translate(34.216 32.612)" fill="#263238"/>
        <path id="Trazado_238583" data-name="Trazado 238583" d="M372.092,416.278a5.339,5.339,0,0,1-.424-.9c-.247-.6-.647-1.478-1.07-2.643-.9-2.309-2.044-5.709-3.232-9.977s-2.367-9.411-3.5-15.151c-1.09-5.752-2.284-12.062-3.538-18.689-1.307-6.613-2.761-12.871-4.45-18.456a102.736,102.736,0,0,0-5.478-14.476,76.677,76.677,0,0,0-5.065-9.126c-.645-1.054-1.233-1.813-1.582-2.362a5.451,5.451,0,0,1-.526-.845,5.355,5.355,0,0,1,.638.763c.386.524,1.011,1.261,1.693,2.3a68.234,68.234,0,0,1,5.282,9.065,98.026,98.026,0,0,1,5.646,14.5,185.591,185.591,0,0,1,4.519,18.509c1.235,6.631,2.412,12.945,3.484,18.7,1.1,5.739,2.219,10.879,3.349,15.147s2.2,7.682,3.012,10.012c.384,1.175.743,2.065.948,2.684a5.448,5.448,0,0,1,.294.951" transform="translate(34.622 32.647)" fill="#263238"/>
        <path id="Trazado_238584" data-name="Trazado 238584" d="M338.783,352.188c.045.186-.978.592-2.282.909s-2.4.424-2.446.238.977-.592,2.283-.909,2.4-.423,2.445-.238" transform="translate(33.696 35.517)" fill="#263238"/>
        <path id="Trazado_238585" data-name="Trazado 238585" d="M337.124,340.566c-.01.194-1.429.272-3.168.342s-3.161.1-3.186-.094,1.383-.528,3.158-.6,3.207.161,3.2.348" transform="translate(33.365 34.317)" fill="#263238"/>
        <path id="Trazado_238586" data-name="Trazado 238586" d="M338.843,330.216c-.123.145-1.144-.517-2.28-1.481s-1.955-1.862-1.832-2.008,1.144.517,2.28,1.481,1.955,1.863,1.832,2.008" transform="translate(33.764 32.955)" fill="#263238"/>
        <path id="Trazado_238587" data-name="Trazado 238587" d="M343.724,320.047c.19.043.138.956.11,2.061s-.036,2.018-.229,2.051-.5-.889-.462-2.071.4-2.086.581-2.041" transform="translate(34.613 32.283)" fill="#263238"/>
        <path id="Trazado_238588" data-name="Trazado 238588" d="M354.553,324.688c.156.11-.3,1.035-1.025,2.067s-1.436,1.78-1.592,1.67.3-1.035,1.025-2.066,1.436-1.78,1.592-1.671" transform="translate(35.497 32.751)" fill="#263238"/>
        <path id="Trazado_238589" data-name="Trazado 238589" d="M361.635,336.686c.072.177-.9.741-2.173,1.259s-2.361.795-2.433.619.9-.741,2.172-1.259,2.362-.795,2.434-.619" transform="translate(36.014 33.957)" fill="#263238"/>
        <path id="Trazado_238590" data-name="Trazado 238590" d="M365.973,349.025c.077.167-1.211.9-2.979,1.3s-3.245.3-3.249.112,1.4-.4,3.1-.787,3.054-.807,3.132-.625" transform="translate(36.288 35.202)" fill="#263238"/>
        <path id="Trazado_238591" data-name="Trazado 238591" d="M346.179,345.881c-.182-.057-.051-1,.3-2.1s.772-1.947.954-1.89.049,1-.3,2.1-.773,1.946-.954,1.889" transform="translate(34.911 34.487)" fill="#263238"/>
        <path id="Trazado_238592" data-name="Trazado 238592" d="M348.859,361.5c-.175-.076.206-1.341.85-2.824s1.309-2.624,1.484-2.549-.206,1.34-.85,2.824-1.309,2.624-1.484,2.549" transform="translate(35.186 35.923)" fill="#263238"/>
        <path id="Trazado_238593" data-name="Trazado 238593" d="M342.711,365.409c-.074.179-1.265-.145-2.706-.594s-2.6-.864-2.562-1.054,1.3-.068,2.769.394,2.572,1.08,2.5,1.254" transform="translate(34.038 36.685)" fill="#263238"/>
        <path id="Trazado_238594" data-name="Trazado 238594" d="M346.415,377.884c.111.155-.694.919-1.8,1.707s-2.088,1.3-2.2,1.145.695-.92,1.8-1.707,2.088-1.3,2.2-1.145" transform="translate(34.539 38.115)" fill="#263238"/>
        <path id="Trazado_238595" data-name="Trazado 238595" d="M349.535,390.483c.045.185-.95.587-2.224.9s-2.342.411-2.387.226.951-.587,2.224-.9,2.342-.409,2.387-.225" transform="translate(34.793 39.379)" fill="#263238"/>
        <path id="Trazado_238596" data-name="Trazado 238596" d="M366.138,359.546c.1.16-.755.839-1.995,1.3s-2.326.521-2.36.338.939-.537,2.116-.984,2.141-.826,2.239-.657" transform="translate(36.493 36.264)" fill="#263238"/>
        <path id="Trazado_238597" data-name="Trazado 238597" d="M368.5,379.322c-.081.173-1.1-.133-2.266-.684s-2.052-1.137-1.971-1.31,1.1.134,2.266.685,2.052,1.136,1.971,1.309" transform="translate(36.744 38.057)" fill="#263238"/>
        <path id="Trazado_238598" data-name="Trazado 238598" d="M372.834,393.365c-.069.177-1.409-.181-2.991-.8s-2.808-1.267-2.739-1.445,1.408.182,2.991.8,2.808,1.267,2.739,1.444" transform="translate(37.03 39.448)" fill="#263238"/>
        <path id="Trazado_238599" data-name="Trazado 238599" d="M349.784,404.517c-.094-.174,1.138-1,2.562-2.126s2.525-2.118,2.671-1.986-.761,1.368-2.245,2.53-2.9,1.746-2.988,1.582" transform="translate(35.283 40.388)" fill="#263238"/>
        <path id="Trazado_238600" data-name="Trazado 238600" d="M361.032,397.422c-.2.023-.461-1.014-.932-2.219s-.962-2.154-.8-2.27c.145-.112.946.717,1.445,2.021s.472,2.454.288,2.468" transform="translate(36.24 39.635)" fill="#263238"/>
        <path id="Trazado_238601" data-name="Trazado 238601" d="M358.218,380.355c-.111.155-.9-.22-1.76-.839s-1.469-1.245-1.357-1.4.9.22,1.76.838,1.469,1.245,1.357,1.4" transform="translate(35.818 38.138)" fill="#263238"/>
        <path id="Trazado_238602" data-name="Trazado 238602" d="M384.126,353.724c.113.154-.655.913-1.715,1.694s-2.011,1.292-2.125,1.138.654-.912,1.715-1.694,2.011-1.292,2.125-1.138" transform="translate(38.359 35.678)" fill="#263238"/>
        <path id="Trazado_238603" data-name="Trazado 238603" d="M388.146,364.429c.018.185-1.185.438-2.672.274s-2.609-.662-2.552-.838,1.21,0,2.626.151,2.584.217,2.6.413" transform="translate(38.626 36.696)" fill="#263238"/>
        <path id="Trazado_238604" data-name="Trazado 238604" d="M371.393,366.767c.041.182-1.072.581-2.51.675s-2.595-.15-2.578-.336,1.149-.259,2.532-.354,2.516-.175,2.556.015" transform="translate(36.95 36.985)" fill="#263238"/>
        <path id="Trazado_238605" data-name="Trazado 238605" d="M372.75,356.869c-.013.184-1.138.212-2.369-.357s-1.945-1.436-1.814-1.565c.132-.146.979.428,2.1.937s2.106.789,2.081.985" transform="translate(37.176 35.802)" fill="#263238"/>
        <path id="Trazado_238606" data-name="Trazado 238606" d="M389.542,376.078c-.1.162-1.254-.381-2.573-1.211s-2.306-1.635-2.205-1.8,1.254.381,2.573,1.211,2.306,1.635,2.205,1.8" transform="translate(38.811 37.629)" fill="#263238"/>
        <rect id="Rectángulo_51791" data-name="Rectángulo 51791" width="98.324" height="17.427" transform="translate(374.997 446.599)" fill="#ffb500"/>
        <path id="Trazado_238607" data-name="Trazado 238607" d="M347.307,418.367l11.957,52.077h58.6l13.081-52.077Z" transform="translate(35.033 42.201)" fill="#ffb500"/>
        <path id="Trazado_238608" data-name="Trazado 238608" d="M438.98,421.56c0,.19-22.178.346-49.53.346s-49.536-.155-49.536-.346,22.174-.346,49.536-.346,49.53.155,49.53.346" transform="translate(34.288 42.488)" fill="#263238"/>
        <path id="Trazado_238609" data-name="Trazado 238609" d="M380.457,367.458c-.162.1-.833-.681-1.5-1.749s-1.077-2.013-.915-2.115.833.681,1.5,1.749,1.077,2.013.915,2.115" transform="translate(38.13 36.675)" fill="#263238"/>
        <path id="Trazado_238610" data-name="Trazado 238610" d="M380.271,380.3c-.182-.061.05-1.245.514-2.645s.99-2.489,1.171-2.429-.05,1.244-.515,2.645-.99,2.489-1.17,2.429" transform="translate(38.352 37.85)" fill="#263238"/>
        <path id="Trazado_238611" data-name="Trazado 238611" d="M384.872,393.719c-.174.083-.907-1.094-1.642-2.628s-1.189-2.845-1.016-2.927.907,1.094,1.641,2.629,1.188,2.844,1.017,2.926" transform="translate(38.551 39.154)" fill="#263238"/>
        <path id="Trazado_238612" data-name="Trazado 238612" d="M375.193,404.3c-.144-.125.443-1.037,1.31-2.037s1.689-1.71,1.833-1.584-.443,1.037-1.311,2.037-1.688,1.71-1.832,1.584" transform="translate(37.844 40.416)" fill="#263238"/>
        <path id="Trazado_238613" data-name="Trazado 238613" d="M373.587,384.515c-.033.188-.98.178-2.113-.022s-2.027-.515-1.994-.7.979-.178,2.114.022,2.026.514,1.993.7" transform="translate(37.27 38.7)" fill="#263238"/>
      </g>
    </g>
    <g id="Grupo_165904" data-name="Grupo 165904">
      <g id="Grupo_165908" data-name="Grupo 165908">
        <path id="Trazado_238614" data-name="Trazado 238614" d="M170.438,132.821c-3.052-7.586-9.174-14.387-17.152-16.181-8.112-1.824-16.466,1.728-23.5,6.159-6.944,4.374-13.553,10.04-16.476,17.709-2.823,7.407-1.133,16.936,5.324,21.383-6.7-4.169-16.94.876-18.573,8.749-1.689,8.148,4.667,16.6,12.706,18.74,7.026,1.874,14.638-.392,20.476-4.814-4.828,5.155-5.617,13.864-1.815,19.986,4.365,7.03,13.62,10.246,21.693,8.426s14.747-8.092,18.115-15.651l2.913-40.4c-.2-8.174-.657-16.523-3.709-24.109" transform="translate(10.065 11.716)" fill="#263238"/>
        <path id="Trazado_238615" data-name="Trazado 238615" d="M160.129,148.136c-7.769,2.517-9.358,8.808-10.973,14.052-3.474,11.285.433,27.985,6.748,37.962s13.24,15.048,24.927,16.735q.57-26.872,1.141-53.743Z" transform="translate(14.914 14.943)" fill="#ff725e"/>
        <path id="Trazado_238616" data-name="Trazado 238616" d="M155.344,183.078A18.612,18.612,0,0,1,157,159.273c-3.4-4.272-2.18-10.865,1.277-15.094s8.592-6.654,13.55-8.946c2.721-12.5,16.757-21.3,29.2-18.293,6.48-9.525,20.285-11.02,31.345-7.8,2.7.787,5.4,1.8,8.215,1.793a47.752,47.752,0,0,0,6.127-.849c11.252-1.514,22.421,6.408,26.808,16.88a20.792,20.792,0,0,0,2.39,4.874c1.459,1.882,3.674,2.99,5.56,4.444a17.97,17.97,0,0,1,6.884,13.286c.183,4.369-1.208,9.007.633,12.976.921,1.989,2.588,3.594,3.306,5.666,2.082,6-4.573,12.14-3.34,18.374.251,1.272.825,2.456,1.178,3.7a11.088,11.088,0,0,1-.676,7.751c-.888,1.843-2.32,3.53-2.441,5.574-.091,1.55.6,3.025.909,4.547.761,3.721-7.269,18.069-10.482,20.092l-96.079.86a17.952,17.952,0,0,1-13.892-15.458,6.572,6.572,0,0,0-.9-3.534,7.7,7.7,0,0,0-2.622-1.7c-6.187-3.321-6.933-11.816-6.282-18.806a8.545,8.545,0,0,0-.054-2.934,10.732,10.732,0,0,0-2.268-3.6" transform="translate(15.313 10.854)" fill="#263238"/>
        <path id="Trazado_238617" data-name="Trazado 238617" d="M180.023,180.961c-.284-17,10.38-36.542,27.271-44.857,10.647-5.241,18.954-5.275,24.552-5.928a38.914,38.914,0,0,1,22.659,4.752c5.3,1.243,24.7,19.013,25.71,38.295,1.12,21.421,1.641,47.618-1.066,63.563-5.445,32.063-30.1,35.887-30.1,35.887,0-.05,2.3,53.3,2.3,53.3l-47.394,38.841-18.453-61.7Z" transform="translate(18.159 13.109)" fill="#ffc09d"/>
        <path id="Trazado_238618" data-name="Trazado 238618" d="M246.663,260.689a82.035,82.035,0,0,1-43.034-11.928s11.208,22.76,43.385,20.1Z" transform="translate(20.54 25.093)" fill="#ff9b6c"/>
        <path id="Trazado_238619" data-name="Trazado 238619" d="M186.532,204.793c.02-2.392-2.684-8.061-5.042-8.455-6.3-1.05-17.672-.666-17.95,15.352-.379,21.9,21.683,17.76,21.733,17.133.037-.49,1.19-15.771,1.258-24.03" transform="translate(16.496 19.77)" fill="#ffc09d"/>
        <path id="Trazado_238620" data-name="Trazado 238620" d="M178.8,220.048c-.095-.072-.386.261-1.035.545a3.82,3.82,0,0,1-2.853.01c-2.3-.89-4.182-4.6-4.22-8.544a12.59,12.59,0,0,1,1.16-5.444c.7-1.591,1.751-2.692,2.921-2.878a1.945,1.945,0,0,1,2.234,1.083c.283.619.135,1.054.251,1.091.061.057.477-.357.316-1.264a2.426,2.426,0,0,0-.839-1.388,2.884,2.884,0,0,0-2.1-.594c-1.691.089-3.237,1.616-4.042,3.327a12.941,12.941,0,0,0-1.428,6.08c.063,4.416,2.25,8.582,5.4,9.552a4.087,4.087,0,0,0,3.5-.519c.687-.528.81-1.017.735-1.058" transform="translate(17.064 20.442)" fill="#ff9b6c"/>
        <path id="Trazado_238621" data-name="Trazado 238621" d="M285.994,170.944c-.7-7.954-3.866-15.5-7.7-22.5-2.658-4.845-5.712-9.575-9.894-13.188a51.4,51.4,0,0,0-11.823-7.133c-10.97-5.2-23.206-9.618-35.051-6.949-6.359,1.433-12.082,4.812-17.651,8.2-4.268,2.6-8.553,5.256-12.128,8.745a49.654,49.654,0,0,0-7.881,10.475c-5.3,9-9.045,19.065-9.763,29.487s-8.6,19.638-2.491,28.112c.473.656,11.357,2.909,12.108,3.208,1.769.7,3.713-1.215,3.7-3.119s-1.324-3.545-2.735-4.824c2.71-.091,4.568-3.108,4.4-5.814s-1.772-5.089-3.382-7.271a2.106,2.106,0,0,1-.471-.938c-.113-.924.932-1.492,1.733-1.965,3.9-2.309,4.336-8.73.782-11.542a9.888,9.888,0,0,0,6.747-12.52,3.166,3.166,0,0,1-.314-2.444c.365-.727,1.269-.956,2.05-1.187a12.559,12.559,0,0,0,8.41-14.14,31.459,31.459,0,0,0,9.087-.4,10.628,10.628,0,0,0,7.169-5.174,11.861,11.861,0,0,0,20.062,1.076,31.026,31.026,0,0,0,15.031-2.327,14.673,14.673,0,0,0,9.558,10.292c.9.292,1.942.576,2.378,1.42a3.456,3.456,0,0,1,.2,1.78c-.162,3.057,1.922,4.359,3.608,6.916s4.625,6.362,7.569,5.519c-.328,5.207,2.457,9,6.853,11.807Z" transform="translate(17.078 12.142)" fill="#263238"/>
        <path id="Trazado_238622" data-name="Trazado 238622" d="M292.309,168.243a8.371,8.371,0,0,0-1.158-2.36c-.458-.733-1.105-1.587-1.715-2.68a10.19,10.19,0,0,1-1.191-4.1,31.93,31.93,0,0,1,.144-5.415,24.089,24.089,0,0,0-.115-6.5,18.255,18.255,0,0,0-2.818-6.924,17.964,17.964,0,0,0-2.665-3.123,26.815,26.815,0,0,0-3.437-2.6,13.544,13.544,0,0,1-3.3-2.9,17.684,17.684,0,0,1-2.039-4.139,29.384,29.384,0,0,0-13.673-15.115,26.123,26.123,0,0,0-5.254-2.028,23.5,23.5,0,0,0-5.749-.7,26.979,26.979,0,0,0-2.953.209c-.981.143-1.949.341-2.918.505a14.114,14.114,0,0,1-5.852-.044c-1.956-.4-3.873-1.127-5.892-1.648a38.475,38.475,0,0,0-12.615-1.266,33.37,33.37,0,0,0-6.433,1.128,21.589,21.589,0,0,0-11.087,7.181l-.821,1.07.35-.134a25.407,25.407,0,0,0-29.579,18.546l.175-.218A69.386,69.386,0,0,0,164,138.964a23.119,23.119,0,0,0-6.315,5.553,15.03,15.03,0,0,0-2.913,7.534,10.345,10.345,0,0,0,2.03,7.421l.022-.367a18.138,18.138,0,0,0-5.137,11.2,18.58,18.58,0,0,0,2.186,10.9,18.144,18.144,0,0,0,1.437,2.18,23.458,23.458,0,0,1,1.492,1.967,4.672,4.672,0,0,1,.761,2.153,13.284,13.284,0,0,1-.08,2.272,35.935,35.935,0,0,0,.163,8.314,17.409,17.409,0,0,0,2.1,6.344,10.777,10.777,0,0,0,3.375,3.582c1.125.755,2.122,1.052,2.674,1.463a5.026,5.026,0,0,1,.793.667,2.558,2.558,0,0,0-.744-.736c-.549-.44-1.546-.77-2.63-1.532a10.683,10.683,0,0,1-3.259-3.566,17.287,17.287,0,0,1-2-6.267,35.9,35.9,0,0,1-.095-8.235,13.489,13.489,0,0,0,.1-2.34,5.078,5.078,0,0,0-.807-2.338,23.639,23.639,0,0,0-1.5-2.013,17.475,17.475,0,0,1-1.385-2.131,18.12,18.12,0,0,1-2.077-10.636,17.633,17.633,0,0,1,5.022-10.858l.177-.174-.155-.193a9.789,9.789,0,0,1-1.888-7.029,14.446,14.446,0,0,1,2.819-7.228,22.519,22.519,0,0,1,6.163-5.39,69.091,69.091,0,0,1,7.65-3.936l.142-.066.034-.153a24.786,24.786,0,0,1,28.811-18.04l.208.051.142-.186c.263-.341.527-.687.794-1.033a20.941,20.941,0,0,1,10.752-6.959,32.677,32.677,0,0,1,6.3-1.107,37.849,37.849,0,0,1,12.4,1.231c1.984.507,3.915,1.235,5.932,1.648a15.073,15.073,0,0,0,3.062.343,17.977,17.977,0,0,0,3.022-.3c.984-.167,1.947-.367,2.9-.509a26.559,26.559,0,0,1,2.868-.208,22.972,22.972,0,0,1,5.6.669,25.524,25.524,0,0,1,5.137,1.968,28.885,28.885,0,0,1,13.464,14.788,18.135,18.135,0,0,0,2.121,4.244,14.01,14.01,0,0,0,3.428,2.991,26.493,26.493,0,0,1,3.4,2.544,17.51,17.51,0,0,1,2.619,3.033,17.893,17.893,0,0,1,2.8,6.756,23.846,23.846,0,0,1,.164,6.413,31.6,31.6,0,0,0-.086,5.465,10.306,10.306,0,0,0,1.276,4.172c.637,1.1,1.3,1.939,1.773,2.656a12.806,12.806,0,0,1,.99,1.682c.192.4.264.611.281.605" transform="translate(15.292 10.826)" fill="#455a64"/>
        <path id="Trazado_238623" data-name="Trazado 238623" d="M205.883,112.046c.033.05.581-.327,1.65-.84a14.712,14.712,0,0,1,4.783-1.355,13.842,13.842,0,0,1,7.19,1.105,14.287,14.287,0,0,1,6.5,5.985,12.025,12.025,0,0,1,1.07,2.487,2.73,2.73,0,0,1-.178,2.305l-.541.741.887-.243a9.059,9.059,0,0,1,6.764.86,8.743,8.743,0,0,1,3.682,4.082,9.6,9.6,0,0,1,.828,3.614c.022.877-.052,1.358,0,1.366.019,0,.055-.114.1-.342a5.778,5.778,0,0,0,.121-1.022,9.143,9.143,0,0,0-4.453-8.181,9.532,9.532,0,0,0-7.213-1l.346.5a3.352,3.352,0,0,0,.29-2.853,12.56,12.56,0,0,0-1.126-2.637,14.658,14.658,0,0,0-6.833-6.219,13.97,13.97,0,0,0-7.493-1.014,13.72,13.72,0,0,0-4.847,1.59,9.554,9.554,0,0,0-1.166.75c-.253.192-.379.3-.364.319" transform="translate(20.768 11.02)" fill="#455a64"/>
        <path id="Trazado_238624" data-name="Trazado 238624" d="M173.427,134.372c-.026.029.23.32.758.788a14.158,14.158,0,0,0,2.465,1.742,10.465,10.465,0,0,0,4.357,1.345,7.82,7.82,0,0,0,5.45-1.6l-.484-.077.635.9c.231.3.491.576.74.869a13.255,13.255,0,0,0,5.445,3.447,13.584,13.584,0,0,0,5.213.7,12.041,12.041,0,0,0,3.457-.76,4.316,4.316,0,0,0,1.147-.6,19.043,19.043,0,0,1-4.626.9,13.881,13.881,0,0,1-4.991-.806,13.075,13.075,0,0,1-5.162-3.324c-.234-.277-.481-.542-.7-.819l-.6-.851-.214-.3-.272.223a7.374,7.374,0,0,1-5,1.526,10.538,10.538,0,0,1-4.188-1.152c-2.225-1.147-3.353-2.238-3.425-2.143" transform="translate(17.494 13.554)" fill="#455a64"/>
        <path id="Trazado_238625" data-name="Trazado 238625" d="M162.769,152.905c-.022.006-.006.142.05.4a3.785,3.785,0,0,0,.48,1.063,5.843,5.843,0,0,0,3.51,2.373,11.151,11.151,0,0,0,6.26-.63,35.474,35.474,0,0,0,3.468-1.336,5.991,5.991,0,0,0,3.047-2.732l.139-.351-.517.153a25.091,25.091,0,0,0,6.464,3.952,11.287,11.287,0,0,0,6.145.683,8.132,8.132,0,0,0,3.8-1.692,5.083,5.083,0,0,0,.8-.8c.157-.2.231-.318.215-.332-.046-.041-.392.378-1.169.935a8.456,8.456,0,0,1-3.722,1.438,11.118,11.118,0,0,1-5.85-.789,25.671,25.671,0,0,1-6.275-3.906l-.347-.275-.171.429c-.037.092-.076.192-.117.292a5.418,5.418,0,0,1-2.726,2.42c-1.118.535-2.292.946-3.382,1.343a11.014,11.014,0,0,1-5.955.752,5.814,5.814,0,0,1-3.408-2.067,9.508,9.508,0,0,1-.74-1.32" transform="translate(16.418 15.237)" fill="#455a64"/>
        <path id="Trazado_238626" data-name="Trazado 238626" d="M264.35,191.753c-.484.544-3.625-1.627-7.984-1.476-4.354.089-7.48,2.434-7.969,1.916-.241-.229.241-1.2,1.6-2.257a11.123,11.123,0,0,1,6.36-2.186,10.676,10.676,0,0,1,6.375,1.834c1.373.985,1.858,1.924,1.618,2.17" transform="translate(25.05 18.938)" fill="#263238"/>
        <path id="Trazado_238627" data-name="Trazado 238627" d="M225.532,194.634c-.539.491-3.445-1.991-7.791-2.288-4.34-.359-7.691,1.651-8.124,1.087-.214-.253.358-1.167,1.825-2.081a11.11,11.11,0,0,1,6.549-1.523,10.684,10.684,0,0,1,6.154,2.479c1.261,1.121,1.649,2.107,1.387,2.325" transform="translate(21.14 19.145)" fill="#263238"/>
        <path id="Trazado_238628" data-name="Trazado 238628" d="M239.791,214.957c-.029-.247,2.664-.8,7.036-1.5,1.109-.151,2.155-.405,2.318-1.17.236-.814-.267-2-.849-3.274q-1.7-3.988-3.564-8.367c-4.956-11.916-8.585-21.73-8.1-21.924s4.891,9.3,9.848,21.219q1.793,4.409,3.426,8.422c.462,1.252,1.232,2.663.718,4.348a2.8,2.8,0,0,1-1.777,1.687,7.534,7.534,0,0,1-1.881.324c-4.409.379-7.149.488-7.173.24" transform="translate(23.865 18.027)" fill="#263238"/>
        <path id="Trazado_238629" data-name="Trazado 238629" d="M234.091,217.556c-1.633.3-5.335,2.5-6.287,4.289s-2.229,4.58-1.284,6.2c.807,1.385,6.686-.329,9.16-.736,1.147-.188,3.959,1.16,4.339-.264l.69-5.087c.095-2.38-1.464-3.425-3.082-4.088a6.314,6.314,0,0,0-3.536-.316" transform="translate(22.816 21.933)" fill="#ff9b6c"/>
        <path id="Trazado_238630" data-name="Trazado 238630" d="M204.316,172.372c.422-1.188,4.779-.656,9.888-1.308,5.125-.548,9.239-2.074,9.924-1.015.307.506-.4,1.626-2.064,2.785a17.344,17.344,0,0,1-15.1,1.77c-1.882-.744-2.834-1.669-2.653-2.233" transform="translate(20.607 17.116)" fill="#263238"/>
        <path id="Trazado_238631" data-name="Trazado 238631" d="M245.8,166.307c1.024-.849,4.313.678,8.443,1.341,4.11.787,7.739.478,8.393,1.622.28.55-.418,1.449-2.086,2.149a13.247,13.247,0,0,1-7.114.583,13.061,13.061,0,0,1-6.452-2.97c-1.312-1.224-1.641-2.3-1.183-2.725" transform="translate(24.774 16.75)" fill="#263238"/>
        <path id="Trazado_238632" data-name="Trazado 238632" d="M238.593,227.412c-.015.2-1.91-.083-4.8.655a16.747,16.747,0,0,0-2.293.751,9.105,9.105,0,0,1-2.863.916,2.63,2.63,0,0,1-1.811-.53,3.134,3.134,0,0,1-1.044-1.607,5.618,5.618,0,0,1,.245-3.684,11.691,11.691,0,0,1,4.4-5.161,9.546,9.546,0,0,1,5.31-1.527,7.794,7.794,0,0,1,3.592.909c.771.414,1.115.762,1.08.812-.05.083-.473-.134-1.258-.4a8.784,8.784,0,0,0-3.4-.509,9.229,9.229,0,0,0-4.744,1.6,10.245,10.245,0,0,0-2.217,2,10.1,10.1,0,0,0-1.69,2.7,4.592,4.592,0,0,0-.236,2.943,1.676,1.676,0,0,0,1.727,1.4,8.9,8.9,0,0,0,2.566-.745,15.429,15.429,0,0,1,2.469-.658c3.09-.563,5.016.025,4.975.138" transform="translate(22.754 21.911)" fill="#263238"/>
        <path id="Trazado_238633" data-name="Trazado 238633" d="M187.557,226.394a8.812,8.812,0,1,1-8.812-8.812,8.813,8.813,0,0,1,8.812,8.812" transform="translate(17.141 21.948)" fill="#455a64"/>
        <path id="Trazado_238634" data-name="Trazado 238634" d="M211.431,159.76a2.3,2.3,0,0,1,.254-.82,8.525,8.525,0,0,1,1.354-2.059,9.916,9.916,0,0,1,3.153-2.326,9.481,9.481,0,0,1,5.145-.839,5.665,5.665,0,0,1,2.927,1.15,3.211,3.211,0,0,1,1.068,1.451,2.513,2.513,0,0,1-.143,1.941,3.615,3.615,0,0,1-3.289,1.83,9.125,9.125,0,0,1-3.731-.882,10.238,10.238,0,0,1-5.456-5.887,9.506,9.506,0,0,1,1.26-8.505,8.629,8.629,0,0,1,7.871-3.409,6.937,6.937,0,0,1,3.926,1.666,4.859,4.859,0,0,1,1.247,1.767,3.114,3.114,0,0,1,.037,2.228,3.408,3.408,0,0,1-1.395,1.622,5.608,5.608,0,0,1-1.821.723,8.268,8.268,0,0,1-3.617-.041,8.788,8.788,0,0,1-5.247-3.553,7.812,7.812,0,0,1-1.289-5.06,8.543,8.543,0,0,1,1.188-3.74,7.211,7.211,0,0,1,1.6-1.878c.443-.35.707-.485.725-.458a13.187,13.187,0,0,0-1.935,2.554,8.427,8.427,0,0,0-.937,3.56,7.214,7.214,0,0,0,1.314,4.558,8.01,8.01,0,0,0,4.789,3.089,7.379,7.379,0,0,0,3.184-.014,3.3,3.3,0,0,0,2.453-1.737,2.693,2.693,0,0,0-1.035-2.813,5.884,5.884,0,0,0-3.309-1.357,7.537,7.537,0,0,0-6.822,2.968,8.432,8.432,0,0,0-1.123,7.472,9.222,9.222,0,0,0,4.835,5.287,8.223,8.223,0,0,0,3.277.832,2.647,2.647,0,0,0,2.453-1.254,1.808,1.808,0,0,0-.641-2.277,4.858,4.858,0,0,0-2.478-1.029,8.964,8.964,0,0,0-4.773.622,9.962,9.962,0,0,0-3.088,2.047,16.568,16.568,0,0,0-1.932,2.572" transform="translate(21.326 13.585)" fill="#263238"/>
        <path id="Trazado_238635" data-name="Trazado 238635" d="M121.845,157.57a7.135,7.135,0,0,1-1.418.284c-.937.142-2.324.351-4.138.47a21.138,21.138,0,0,1-6.633-.519,13.975,13.975,0,0,1-3.873-1.665,10.489,10.489,0,0,1-3.4-3.343,10.3,10.3,0,0,1-1.464-5.064,21.115,21.115,0,0,1,.631-5.644,24.65,24.65,0,0,1,5.767-11.064,17.8,17.8,0,0,1,5.553-4.059,14.628,14.628,0,0,1,3.433-1.11,15.745,15.745,0,0,1,3.675-.2,15.22,15.22,0,0,1,7.17,2.27A13.255,13.255,0,0,1,130.1,130.5a12.047,12.047,0,0,1,1.963,3.491l.493,1.345-1.287-.655a9.027,9.027,0,0,1-3.706-3.554,11.461,11.461,0,0,1-1.507-5.043,11.747,11.747,0,0,1,.521-4.41,15.031,15.031,0,0,1,1.93-3.9,21.583,21.583,0,0,1,6.113-5.726,30.246,30.246,0,0,1,14.878-4.766,24.51,24.51,0,0,1,13.723,3.343,22.613,22.613,0,0,1,8.52,8.9,19.24,19.24,0,0,1,.069,17.359A15.94,15.94,0,0,1,169,140.83a10.154,10.154,0,0,1-.929.851c-.218.182-.335.266-.348.252a13.689,13.689,0,0,1,1.106-1.259,17.427,17.427,0,0,0,2.584-3.987,18.861,18.861,0,0,0,1.757-7.248,18.293,18.293,0,0,0-2.145-9.537,21.9,21.9,0,0,0-8.283-8.451,23.639,23.639,0,0,0-13.194-3.108A29.328,29.328,0,0,0,135.234,113a20.535,20.535,0,0,0-5.783,5.428,11.844,11.844,0,0,0-2.247,7.585c.189,3.218,1.9,6.345,4.576,7.655l-.793.69a10.927,10.927,0,0,0-1.755-3.132,12.151,12.151,0,0,0-2.687-2.346,14.168,14.168,0,0,0-6.64-2.126c-4.671-.422-8.96,1.9-11.852,4.97a23.85,23.85,0,0,0-5.628,10.58,20.441,20.441,0,0,0-.673,5.4,9.536,9.536,0,0,0,1.28,4.7,9.824,9.824,0,0,0,3.12,3.165,13.479,13.479,0,0,0,3.664,1.662,21.511,21.511,0,0,0,6.454.681c1.8-.054,3.187-.195,4.13-.269a7.494,7.494,0,0,1,1.443-.07" transform="translate(10.178 10.819)" fill="#263238"/>
        <path id="Trazado_238636" data-name="Trazado 238636" d="M139.042,193.211a4.06,4.06,0,0,1-1.6.659,15.824,15.824,0,0,1-4.69.556,17.61,17.61,0,0,1-6.852-1.594,12.725,12.725,0,0,1-3.548-2.312,5.633,5.633,0,0,1-1.906-4.3,7.326,7.326,0,0,1,1.919-4.247,20.161,20.161,0,0,1,3.085-2.825,26.553,26.553,0,0,1,6.07-3.477,23.217,23.217,0,0,1,4.5-1.352,4.4,4.4,0,0,1,1.72-.15c.044.2-2.38.6-5.9,2.244a28.909,28.909,0,0,0-5.749,3.568,20.258,20.258,0,0,0-2.871,2.713,6.337,6.337,0,0,0-1.635,3.579,4.555,4.555,0,0,0,1.546,3.442,12.078,12.078,0,0,0,3.215,2.16,18.007,18.007,0,0,0,6.441,1.738c3.856.285,6.2-.624,6.247-.405" transform="translate(12.149 17.565)" fill="#263238"/>
        <path id="Trazado_238637" data-name="Trazado 238637" d="M228.193,200.865c-.079.167-1.309-.336-3.358-.817a25.389,25.389,0,0,0-3.634-.575,24.26,24.26,0,0,0-8.9.91,25.431,25.431,0,0,0-3.444,1.3c-1.908.887-3.011,1.628-3.122,1.481-.083-.1.86-1.087,2.748-2.2a19.3,19.3,0,0,1,3.5-1.586,21.052,21.052,0,0,1,9.32-.953,19.215,19.215,0,0,1,3.748.844c2.074.707,3.2,1.483,3.136,1.6" transform="translate(20.753 20)" fill="#ff9b6c"/>
        <path id="Trazado_238638" data-name="Trazado 238638" d="M327.4,486.038l-12.66-31.875,8.111-47.365,2.2-27.971c-.413-18.047-1.946-31.985-9.4-48.426l-23.145-57.167L264.251,280.9a44.419,44.419,0,0,0-3.587-10.5c-5.283-10.034-73.59-6.632-78.008-3.019-2.807,2.3-4.191,10.572-4.827,16.3l-23.765-.129-28.012,71.983c.89,1.976,18.168,25.039,18.168,25.039L161.366,475.5l-5.529,9.9Z" transform="translate(12.715 26.608)" fill="#a3314f"/>
        <path id="Trazado_238639" data-name="Trazado 238639" d="M183.295,294.5a4.473,4.473,0,0,1-.39-1.093,27.013,27.013,0,0,1-.714-3.08,37.64,37.64,0,0,1,2.139-20.539,26.875,26.875,0,0,1,1.333-2.867,4.523,4.523,0,0,1,.607-.99c.091.045-.655,1.515-1.561,4a42,42,0,0,0-2.117,20.33c.373,2.619.8,4.211.7,4.237" transform="translate(18.321 26.825)" fill="#263238"/>
        <path id="Trazado_238640" data-name="Trazado 238640" d="M200.475,295.6a5.116,5.116,0,0,1-.306-1.19c-.166-.772-.349-1.9-.531-3.3a83.049,83.049,0,0,1-.577-11.009c.041-4.308.283-8.2.481-11.005.1-1.306.195-2.416.268-3.325a5.058,5.058,0,0,1,.176-1.215,5.079,5.079,0,0,1,.047,1.226c-.007.788-.039,1.928-.087,3.335-.094,2.815-.271,6.7-.312,10.988s.144,8.165.406,10.961.526,4.518.434,4.534" transform="translate(20.079 26.686)" fill="#263238"/>
        <path id="Trazado_238641" data-name="Trazado 238641" d="M219.089,292.1a38.581,38.581,0,0,1,.152-4.161,93.22,93.22,0,0,0,0-10.01,59.446,59.446,0,0,0-1.437-9.887c-.591-2.492-1.1-4-1.006-4.034a4.211,4.211,0,0,1,.458,1.025c.268.67.592,1.665.941,2.909a48.918,48.918,0,0,1,1.615,9.951,69.214,69.214,0,0,1-.163,10.074c-.113,1.284-.232,2.32-.338,3.032a4.256,4.256,0,0,1-.218,1.1" transform="translate(21.867 26.631)" fill="#263238"/>
        <path id="Trazado_238642" data-name="Trazado 238642" d="M236.484,294.559c-.1-.034.48-1.632,1.089-4.287a35.857,35.857,0,0,0,.866-10.54,34.648,34.648,0,0,0-2.372-10.3c-1.019-2.524-1.849-4-1.755-4.058a4.757,4.757,0,0,1,.654,1,29.1,29.1,0,0,1,1.475,2.9,31.526,31.526,0,0,1,2.571,10.418,32.535,32.535,0,0,1-1.045,10.676,27.7,27.7,0,0,1-.993,3.1,4.788,4.788,0,0,1-.49,1.09" transform="translate(23.635 26.768)" fill="#263238"/>
        <path id="Trazado_238643" data-name="Trazado 238643" d="M253.444,292.472a21.016,21.016,0,0,1-.493-3.286c-.258-2.031-.593-4.841-1.252-7.881s-1.526-5.733-2.138-7.688a20.409,20.409,0,0,1-.915-3.195,17.918,17.918,0,0,1,1.3,3.064,56.545,56.545,0,0,1,2.315,7.7,58.218,58.218,0,0,1,1.1,7.961,17.618,17.618,0,0,1,.089,3.327" transform="translate(25.08 27.278)" fill="#263238"/>
        <path id="Trazado_238644" data-name="Trazado 238644" d="M148.4,185.569l1.629-11.333s.418-8.484-1.629-12.726.5-6.505,5.589-2.546,5.656,7.354,5.656,7.354,7.636-21.212,10.464-26.868,10.182-15.838,10.182-15.838,11.6-17.818,12.444-18.1,2.828-.283,1.979,2.828l4.526-2.945s5.09,2.1,1.414,8.884-8.484,16.686-8.484,16.686l-.283,4.808,13.01-15.837s5.656-2.545,3.676,4.242-8.767,17.535-8.767,17.535l-3.394,17.252a41.885,41.885,0,0,1-.565,14.424c-1.7,7.92-12.983,31.135-19.926,33.385s-27.521-21.2-27.521-21.2" transform="translate(14.898 10.631)" fill="#ffc09d"/>
        <path id="Trazado_238645" data-name="Trazado 238645" d="M148.411,185.6s.1.1.3.3l.852.915c.752.806,1.868,2,3.349,3.528s3.326,3.387,5.558,5.5a93.444,93.444,0,0,0,8,6.84,30.639,30.639,0,0,0,5.254,3.246,8.264,8.264,0,0,0,3.129.827,4.965,4.965,0,0,0,3.036-1.272,27.192,27.192,0,0,0,4.87-5.44,75.729,75.729,0,0,0,4.216-6.67,109.252,109.252,0,0,0,7.316-15.637,36.622,36.622,0,0,0,1.329-4.386,44.132,44.132,0,0,0,.708-4.643,40.993,40.993,0,0,0-.161-9.671l-.008-.052.009-.043c1.071-5.469,2.209-11.28,3.381-17.254l.01-.048.026-.045a120.721,120.721,0,0,0,6.544-11.911,35.208,35.208,0,0,0,2.411-6.489,6.559,6.559,0,0,0,.162-1.677,1.86,1.86,0,0,0-.561-1.388,2.026,2.026,0,0,0-1.485-.334,5.72,5.72,0,0,0-1.633.426l.1-.079-13.008,15.839-.559.681.052-.88c.023-.383.047-.8.072-1.215q.106-1.8.211-3.592l0-.061.025-.048,6.659-13.094q.822-1.613,1.636-3.215c.279-.536.517-1.057.777-1.585a11.2,11.2,0,0,0,.528-1.648,5.569,5.569,0,0,0-.156-3.313,4.581,4.581,0,0,0-2.223-2.331l.259-.024-4.526,2.942-.6.393.183-.7c.212-.808.351-1.789-.144-2.3a1.278,1.278,0,0,0-1.027-.286,2.174,2.174,0,0,0-.292.046l-.14.039c-.043.019-.011.022-.04.032a5.6,5.6,0,0,0-.413.468c-1.083,1.379-2.081,2.845-3.076,4.278-1.98,2.883-3.889,5.75-5.755,8.57l-2.763,4.2-2.828,4.049c-1.846,2.678-3.62,5.328-5.247,7.981-.811,1.327-1.6,2.651-2.282,4s-1.274,2.73-1.843,4.1c-1.144,2.739-2.2,5.437-3.209,8.063-2.02,5.254-3.863,10.233-5.554,14.877l-.222.61-.163-.644a11.381,11.381,0,0,0-2.531-4.395,22.147,22.147,0,0,0-3.616-3.27c-1.258-.888-2.694-1.72-4.1-1.57a1.543,1.543,0,0,0-.886.421,1.8,1.8,0,0,0-.41.888,4.145,4.145,0,0,0,.234,2c.214.639.515,1.247.765,1.885a18.59,18.59,0,0,1,.547,1.9A29.64,29.64,0,0,1,150,167.9a48.935,48.935,0,0,1,.144,6.371v.01c-.553,3.674-.975,6.493-1.265,8.415-.148.942-.26,1.661-.338,2.164-.079.488-.132.739-.132.739s.018-.241.078-.723c.066-.5.16-1.22.284-2.161.265-1.932.654-4.768,1.161-8.464v.009a49.432,49.432,0,0,0-.194-6.336,20.9,20.9,0,0,0-1.889-7.367,4.438,4.438,0,0,1-.257-2.16,2.135,2.135,0,0,1,.489-1.059,1.885,1.885,0,0,1,1.072-.524c1.618-.166,3.062.716,4.364,1.609a22.456,22.456,0,0,1,3.695,3.313,11.658,11.658,0,0,1,2.64,4.577l-.385-.035c1.676-4.654,3.5-9.639,5.509-14.9,1.006-2.631,2.052-5.334,3.191-8.084.568-1.375,1.166-2.763,1.848-4.138s1.48-2.7,2.293-4.037c1.628-2.67,3.4-5.327,5.245-8.014l2.815-4.043,2.758-4.206c1.864-2.825,3.769-5.7,5.75-8.586,1-1.442,1.986-2.9,3.1-4.317a5.959,5.959,0,0,1,.471-.531.919.919,0,0,1,.24-.148l.182-.051a2.624,2.624,0,0,1,.369-.059,1.824,1.824,0,0,1,1.464.44,1.962,1.962,0,0,1,.506,1.434,5.642,5.642,0,0,1-.211,1.406l-.421-.306,4.525-2.946.13-.085.13.061a5.113,5.113,0,0,1,2.53,2.634,6.118,6.118,0,0,1,.187,3.652,11.621,11.621,0,0,1-.558,1.745c-.265.543-.526,1.107-.8,1.634l-1.631,3.211-6.648,13.078.029-.109q-.106,1.79-.211,3.593c-.024.416-.048.832-.072,1.214l-.507-.2,13.011-15.836.045-.055.058-.023a6.217,6.217,0,0,1,1.814-.473,2.576,2.576,0,0,1,1.895.461,2.4,2.4,0,0,1,.765,1.788,7.047,7.047,0,0,1-.173,1.83,35.587,35.587,0,0,1-2.457,6.609,120.905,120.905,0,0,1-6.589,11.966l.037-.092c-1.18,5.973-2.327,11.783-3.407,17.25v-.095a41.414,41.414,0,0,1,.149,9.809,44.265,44.265,0,0,1-.728,4.7,36.952,36.952,0,0,1-1.356,4.446,109.316,109.316,0,0,1-7.392,15.687,75.933,75.933,0,0,1-4.264,6.692,27.5,27.5,0,0,1-4.969,5.5,5.32,5.32,0,0,1-3.265,1.334,8.561,8.561,0,0,1-3.269-.874,30.66,30.66,0,0,1-5.3-3.31,91.778,91.778,0,0,1-7.982-6.913c-2.219-2.133-4.049-4.014-5.511-5.561s-2.561-2.76-3.293-3.586c-.356-.406-.626-.719-.822-.942-.181-.212-.265-.331-.265-.331" transform="translate(14.884 10.602)" fill="#ff9b6c"/>
        <path id="Trazado_238646" data-name="Trazado 238646" d="M191.44,108.233a11.719,11.719,0,0,1-.982,1.605c-.719,1.09-1.67,2.531-2.822,4.274a112.563,112.563,0,0,0-8.39,14.6,63.533,63.533,0,0,0-4.934,16.041c-.362,2.125-.549,3.863-.667,5.064a13.741,13.741,0,0,1-.219,1.867,1.564,1.564,0,0,1-.033-.488c0-.319,0-.789.03-1.395a49.658,49.658,0,0,1,.49-5.111,59.055,59.055,0,0,1,4.812-16.217,98.417,98.417,0,0,1,8.576-14.59c1.232-1.779,2.257-3.2,2.975-4.173a11.819,11.819,0,0,1,1.165-1.478" transform="translate(17.49 10.918)" fill="#ff9b6c"/>
        <path id="Trazado_238647" data-name="Trazado 238647" d="M189.1,132.687c.072.078-1.067,1-2.43,2.874a24.8,24.8,0,0,0-3.743,8.178,56.177,56.177,0,0,0-1.438,8.971,27.736,27.736,0,0,1-.438,3.765,3.5,3.5,0,0,1-.054-1.021c0-.656.028-1.6.088-2.774a45.149,45.149,0,0,1,1.287-9.089,22.733,22.733,0,0,1,3.975-8.275,14.675,14.675,0,0,1,1.922-2.029,3.134,3.134,0,0,1,.83-.6" transform="translate(18.257 13.384)" fill="#ff9b6c"/>
        <path id="Trazado_238648" data-name="Trazado 238648" d="M175.428,126.3a23.156,23.156,0,0,1-1.022,3.171c-.672,1.94-1.561,4.63-2.415,7.64s-1.506,5.769-1.953,7.772a23.064,23.064,0,0,1-.794,3.234,16.5,16.5,0,0,1,.4-3.314,79.148,79.148,0,0,1,4.386-15.475,16.393,16.393,0,0,1,1.4-3.029" transform="translate(17.07 12.74)" fill="#ff9b6c"/>
        <path id="Trazado_238649" data-name="Trazado 238649" d="M159.247,159.041a12.367,12.367,0,0,1-.542,2.536c-.452,1.757-.978,3.792-1.557,6.04-.564,2.252-1.074,4.291-1.515,6.051a12.324,12.324,0,0,1-.733,2.487,11.08,11.08,0,0,1,.338-2.574c.29-1.574.754-3.737,1.355-6.105s1.225-4.49,1.722-6.012a11.136,11.136,0,0,1,.931-2.424" transform="translate(15.623 16.043)" fill="#ff9b6c"/>
        <path id="Trazado_238650" data-name="Trazado 238650" d="M248.876,122.766a3.109,3.109,0,0,0-5.011,3.614l.092.156c3.165,5.274,13.978,22.534,13.978,22.534l2.637,5.948s5.7,9.047,6.755,11.684,15.529,26.292,17.441,28.4,11.933,0,11.933,0l10.813-21.356L296.7,149.07s.527-3.546-1.582-2.754a13.822,13.822,0,0,0-3.165,1.582L268.067,113.32s-6.239-10.46-10.729-3.381c0,0-5.247,1.583-2.274,8.716a51.24,51.24,0,0,0,8.145,13.42l4.22,11.076Z" transform="translate(24.554 10.842)" fill="#ffc09d"/>
        <path id="Trazado_238651" data-name="Trazado 238651" d="M248.884,122.788s.118.107.334.331l.951,1.011c.844.913,2.071,2.239,3.663,3.959l13.731,14.97-.284.175c-1.276-3.324-2.708-7.058-4.247-11.066l.039.063a51.405,51.405,0,0,1-6.758-10.315q-.73-1.461-1.385-3a12.271,12.271,0,0,1-.93-3.3,6.089,6.089,0,0,1,.533-3.5,5.048,5.048,0,0,1,2.748-2.382l-.134.1a5.987,5.987,0,0,1,2.3-2.234,3.915,3.915,0,0,1,3.274.053,13.211,13.211,0,0,1,4.844,4.459l7.786,11.286L292.2,147.758l-.4-.065a14.436,14.436,0,0,1,3.385-1.665,1.307,1.307,0,0,1,1.15.107,1.627,1.627,0,0,1,.6.963,5.791,5.791,0,0,1,.059,2.035l-.021-.156,4.657,10.626,6.155,14.053.054.123-.061.12c-3.719,7.337-7.337,14.476-10.82,21.35l-.062.121-.128.024a42.93,42.93,0,0,1-8.394.935,11.477,11.477,0,0,1-2.1-.219,2.968,2.968,0,0,1-1.89-1.055c-.852-1.107-1.569-2.233-2.309-3.353-2.912-4.487-5.608-8.89-8.183-13.127l-3.727-6.252a64.7,64.7,0,0,1-3.312-6.123c-2.035-4-4.345-7.629-6.446-11.052l-.008-.014-.006-.012c-.94-2.131-1.8-4.079-2.624-5.954l.012.024c-5.875-9.543-10.567-17.164-13.8-22.416a3.525,3.525,0,0,1-.633-2.1,3.093,3.093,0,0,1,.732-1.777,3.332,3.332,0,0,1,2.67-1.205,3.047,3.047,0,0,1,1.7.653c.3.286.439.439.439.439s-.167-.129-.472-.4a3.059,3.059,0,0,0-1.667-.589A3.225,3.225,0,0,0,244.2,123a2.932,2.932,0,0,0-.673,1.687,3.342,3.342,0,0,0,.629,1.983l13.947,22.32.008.012.006.012,2.65,5.942-.014-.026c2.121,3.427,4.433,7.028,6.511,11.075a64.226,64.226,0,0,0,3.311,6.077q1.828,3.05,3.74,6.236c2.582,4.227,5.289,8.624,8.2,13.1.733,1.107,1.472,2.256,2.278,3.3a2.408,2.408,0,0,0,1.6.872,10.889,10.889,0,0,0,1.994.2,42.42,42.42,0,0,0,8.271-.934l-.189.144c3.479-6.876,7.091-14.019,10.8-21.359l-.007.242-6.158-14.05c-1.594-3.639-3.174-7.245-4.655-10.627l-.032-.072.011-.085a5.256,5.256,0,0,0-.048-1.809c-.142-.589-.5-.865-1.04-.666a14.091,14.091,0,0,0-3.206,1.571l-.243.167-.161-.232-16.83-24.39-7.755-11.283a12.786,12.786,0,0,0-4.625-4.3,3.412,3.412,0,0,0-2.867-.066,5.523,5.523,0,0,0-2.1,2.048l-.045.069-.089.032a4.589,4.589,0,0,0-2.468,2.141,5.629,5.629,0,0,0-.492,3.224,20.69,20.69,0,0,0,2.251,6.159,51.225,51.225,0,0,0,6.657,10.246l.025.031.012.032,4.193,11.086.318.842-.6-.667L253.7,128.211l-3.6-4.018c-.4-.449-.7-.794-.917-1.041-.2-.236-.3-.363-.3-.363" transform="translate(24.546 10.82)" fill="#ff9b6c"/>
        <path id="Trazado_238652" data-name="Trazado 238652" d="M272.207,149.7c-.157.051-.961-2.183-2.27-4.782a4.8,4.8,0,0,0-2.237-2.667,3.483,3.483,0,0,0-1.453-.151c-.062-.042.543-.521,1.583-.233a3.134,3.134,0,0,1,1.494.991,8.2,8.2,0,0,1,1.126,1.8,14.784,14.784,0,0,1,1.757,5.039" transform="translate(26.856 14.301)" fill="#ff9b6c"/>
        <path id="Trazado_238653" data-name="Trazado 238653" d="M278.053,142.7a8,8,0,0,1-.777-1.346c-.462-.884-1.141-2.158-2-3.718-1.712-3.126-4.247-7.347-7.332-11.827s-6-8.457-8.076-11.364l-2.438-3.455a8,8,0,0,1-.831-1.313,8.054,8.054,0,0,1,1.011,1.181c.678.876,1.546,2,2.586,3.346,2.154,2.847,5.138,6.778,8.222,11.282a110.871,110.871,0,0,1,7.216,11.959c.818,1.591,1.443,2.9,1.844,3.811a8.089,8.089,0,0,1,.577,1.444" transform="translate(25.883 11.063)" fill="#ff9b6c"/>
        <path id="Trazado_238654" data-name="Trazado 238654" d="M280.792,147.775a9.389,9.389,0,0,0-3.813-7.666c.029-.061.537.095,1.231.588a7.094,7.094,0,0,1,2.856,5.742c-.024.851-.207,1.35-.273,1.336" transform="translate(27.939 14.132)" fill="#ff9b6c"/>
        <path id="Trazado_238655" data-name="Trazado 238655" d="M295.352,159.224A12.74,12.74,0,0,1,294,157.009c-.881-1.589-1.9-3.43-3.03-5.465-1.171-2.143-2.2-4.106-2.887-5.553a10.748,10.748,0,0,1-.993-2.4,12.794,12.794,0,0,1,1.353,2.215l3.03,5.466c1.171,2.142,2.194,4.105,2.885,5.552a10.79,10.79,0,0,1,.994,2.4" transform="translate(28.958 14.484)" fill="#ff9b6c"/>
        <path id="Trazado_238656" data-name="Trazado 238656" d="M208.279,401.2a2.582,2.582,0,0,1,.592-.222l1.722-.53,1.246-.369c.451-.148.932-.336,1.455-.522,1.038-.389,2.245-.765,3.513-1.353l2.01-.866c.7-.3,1.39-.691,2.127-1.051,1.485-.7,2.979-1.615,4.573-2.54a64.753,64.753,0,0,0,17.693-15.982c1.08-1.493,2.143-2.888,2.989-4.294.434-.695.887-1.346,1.262-2.009l1.066-1.912c.713-1.2,1.21-2.364,1.7-3.358.238-.5.475-.96.666-1.395s.342-.834.493-1.2c.284-.673.515-1.222.7-1.659a2.7,2.7,0,0,1,.282-.567,2.551,2.551,0,0,1-.173.605l-.6,1.7-.449,1.226c-.177.443-.4.912-.625,1.421-.467,1.012-.941,2.194-1.636,3.415l-1.04,1.944c-.368.674-.815,1.335-1.243,2.041-.834,1.429-1.891,2.845-2.97,4.358A62.757,62.757,0,0,1,225.793,394.2c-1.615.919-3.131,1.827-4.637,2.513-.745.354-1.45.732-2.157,1.029l-2.039.838c-1.286.568-2.51.92-3.564,1.283-.531.172-1.019.347-1.477.479l-1.266.323-1.755.426a2.643,2.643,0,0,1-.62.111" transform="translate(21.009 36.452)" fill="#263238"/>
        <path id="Trazado_238657" data-name="Trazado 238657" d="M166.84,180.369c-2.065.229-106.115,51.042-106.635,74.924s8.24,34.555,17.083,48.136,56.317,64.558,58.919,65.5,37.915-48.073,37.915-48.073L159.558,287.6s-4.682-13.1-19.247-6.785l-11.964-11.478,64.5-61.813s11.964-31.374-26.008-27.16" transform="translate(6.071 18.155)" fill="#a3314f"/>
        <path id="Trazado_238658" data-name="Trazado 238658" d="M139.8,331.938a1.946,1.946,0,0,1,.131-.526c.129-.4.287-.883.477-1.466a24,24,0,0,0,.709-2.329c.238-.919.57-1.949.777-3.126q.182-.88.379-1.834c.127-.639.193-1.314.3-2.007.236-1.385.315-2.883.44-4.454a53.1,53.1,0,0,0-2.828-20.189c-.552-1.477-1.04-2.9-1.647-4.162-.293-.636-.542-1.268-.84-1.847l-.867-1.66c-.522-1.076-1.125-1.974-1.606-2.792A24.216,24.216,0,0,0,133.9,283.5l-.862-1.278a1.929,1.929,0,0,1-.27-.47c.015-.012.14.126.362.4.258.331.572.734.951,1.22a20.579,20.579,0,0,1,1.41,2c.51.807,1.142,1.7,1.691,2.77l.908,1.657c.31.579.572,1.212.877,1.851.631,1.27,1.142,2.7,1.712,4.183a51.339,51.339,0,0,1,2.857,20.394c-.14,1.586-.239,3.1-.5,4.492-.117.7-.195,1.378-.335,2.02s-.284,1.254-.418,1.843c-.234,1.181-.6,2.212-.865,3.128a20.428,20.428,0,0,1-.806,2.312c-.231.571-.422,1.045-.58,1.434a1.872,1.872,0,0,1-.238.484" transform="translate(13.392 28.42)" fill="#263238"/>
        <path id="Trazado_238659" data-name="Trazado 238659" d="M145.279,374.919a5.284,5.284,0,0,1,.391-.806l1.213-2.249q.4-.736.889-1.618c.309-.6.61-1.268.954-1.976.665-1.428,1.506-3.014,2.215-4.868l1.183-2.876c.406-1,.736-2.08,1.129-3.176.821-2.182,1.455-4.591,2.179-7.107a98.417,98.417,0,0,0,2.868-33.786c-.29-2.6-.509-5.084-.95-7.374-.2-1.146-.347-2.264-.578-3.32s-.466-2.066-.683-3.034c-.386-1.946-.948-3.653-1.363-5.172-.22-.755-.4-1.466-.609-2.109s-.419-1.214-.6-1.744l-.817-2.422a5.137,5.137,0,0,1-.249-.859,5.192,5.192,0,0,1,.357.818q.343.893.92,2.389c.2.525.415,1.1.652,1.733.221.64.421,1.347.656,2.1.446,1.516,1.036,3.221,1.45,5.169q.345,1.455.721,3.041c.244,1.059.4,2.18.614,3.33.463,2.3.7,4.79,1.007,7.406a96.066,96.066,0,0,1-2.883,33.969c-.741,2.526-1.4,4.943-2.24,7.129-.405,1.1-.748,2.176-1.167,3.179l-1.223,2.875c-.737,1.851-1.605,3.431-2.3,4.85-.36.7-.676,1.368-1,1.962l-.936,1.6-1.309,2.2a5.241,5.241,0,0,1-.49.746" transform="translate(14.654 29.295)" fill="#263238"/>
        <path id="Trazado_238660" data-name="Trazado 238660" d="M134.452,252.788a9.325,9.325,0,0,1-1.168,1.191c-.776.741-1.923,1.786-3.365,3.049-2.879,2.534-6.966,5.913-11.632,9.445s-9.006,6.577-12.177,8.731c-1.587,1.074-2.881,1.932-3.785,2.508a9.26,9.26,0,0,1-1.436.849,9.377,9.377,0,0,1,1.309-1.033l3.679-2.656c3.109-2.237,7.408-5.323,12.062-8.855s8.774-6.846,11.715-9.3c1.408-1.176,2.578-2.154,3.48-2.909a9.265,9.265,0,0,1,1.317-1.024" transform="translate(10.177 25.499)" fill="#263238"/>
        <path id="Trazado_238661" data-name="Trazado 238661" d="M278.089,186.287s6.114-25.916,34.085-20.58c0,0,60.378,42.12,77.941,64.5s12.311,30.775,7.585,42.36-21.328,30.907-51.632,56.085l-40.3,30.419s-33.82-69.443-30.426-74.452c1.638-2.416,53.5-24.8,53.5-24.8s-2.028-2.4,1.418-6.221l-20.711-25.311Z" transform="translate(27.75 16.642)" fill="#a3314f"/>
        <path id="Trazado_238662" data-name="Trazado 238662" d="M380.168,239.941a5.26,5.26,0,0,1,.657,2.521,9.027,9.027,0,0,1-1.758,6.016,9.57,9.57,0,0,1-5.241,3.447,5.516,5.516,0,0,1-2.6.2c-.005-.1.992-.114,2.484-.591a10,10,0,0,0,4.9-3.4,9.331,9.331,0,0,0,1.811-5.656c-.018-1.564-.351-2.51-.252-2.538" transform="translate(37.446 24.203)" fill="#263238"/>
        <path id="Trazado_238663" data-name="Trazado 238663" d="M305.325,410.262a1.3,1.3,0,0,1,.021-.314c.031-.238.07-.537.119-.912.122-.84.293-2.009.511-3.493.491-3.025,1.06-7.424,1.694-12.864,1.124-10.86,2.153-26.117-.612-42.622a124.815,124.815,0,0,0-6.232-22.653c-.664-1.682-1.275-3.337-1.934-4.919l-2.048-4.548c-.336-.731-.644-1.46-.984-2.158l-1.038-2.037q-1.017-2-1.95-3.829c-2.621-4.806-4.819-8.659-6.46-11.247-.778-1.283-1.389-2.293-1.83-3.019l-.464-.794a1.31,1.31,0,0,1-.142-.281,1.259,1.259,0,0,1,.19.249l.512.763,1.922,2.962c1.7,2.554,3.955,6.381,6.627,11.174l1.988,3.822,1.056,2.033c.346.7.661,1.427,1,2.158q1.007,2.2,2.082,4.551c.668,1.584,1.29,3.243,1.964,4.93a122.7,122.7,0,0,1,6.3,22.743c2.78,16.59,1.679,31.9.45,42.764-.686,5.443-1.318,9.837-1.877,12.854-.262,1.478-.469,2.641-.618,3.478-.072.37-.129.666-.174.9a1.266,1.266,0,0,1-.079.3" transform="translate(28.645 29.714)" fill="#263238"/>
        <path id="Trazado_238664" data-name="Trazado 238664" d="M331.265,263.681a7.819,7.819,0,0,1-1.7-1.635,30.624,30.624,0,0,1-5.725-9.761,7.8,7.8,0,0,1-.6-2.278c.17-.058,1.267,3.358,3.5,7.136,2.206,3.791,4.651,6.418,4.518,6.538" transform="translate(32.605 25.218)" fill="#263238"/>
        <path id="Trazado_238665" data-name="Trazado 238665" d="M344.958,263.583a4,4,0,0,1-.941-.539c-.587-.376-1.416-.95-2.424-1.681-2.017-1.461-4.727-3.587-7.567-6.115s-5.261-4.983-6.942-6.819c-.842-.918-1.506-1.676-1.947-2.215a3.913,3.913,0,0,1-.643-.874,35.078,35.078,0,0,1,2.883,2.808c1.751,1.759,4.206,4.151,7.031,6.671s5.483,4.682,7.431,6.221a34.933,34.933,0,0,1,3.12,2.543" transform="translate(32.732 24.747)" fill="#263238"/>
        <g id="Grupo_165899" data-name="Grupo 165899" transform="translate(111.982 286.188)" opacity="0.3">
          <g id="Grupo_165898" data-name="Grupo 165898">
            <g id="Grupo_165897" data-name="Grupo 165897" clip-path="url(#clip-path-8)">
              <path id="Trazado_238666" data-name="Trazado 238666" d="M101.721,277.008a20.259,20.259,0,0,0,23.024-17.043c-7.382,4.726-16.137,11.62-23.024,17.043" transform="translate(-101.721 -259.965)"/>
            </g>
          </g>
        </g>
        <g id="Grupo_165902" data-name="Grupo 165902" transform="translate(314.844 327.886)" opacity="0.3">
          <g id="Grupo_165901" data-name="Grupo 165901">
            <g id="Grupo_165900" data-name="Grupo 165900" clip-path="url(#clip-path-9)">
              <path id="Trazado_238667" data-name="Trazado 238667" d="M305.3,318.287a41.507,41.507,0,0,0-19.22-20.444l-.081.159c9.908,14.452,16.4,31.456,20.655,48.453a41.9,41.9,0,0,0-1.353-28.167" transform="translate(-285.995 -297.842)"/>
            </g>
          </g>
        </g>
      </g>
    </g>
  </g>
</svg>
