<svg xmlns="http://www.w3.org/2000/svg" xmlns:xlink="http://www.w3.org/1999/xlink" width="369.934" height="374.137" viewBox="0 0 369.934 374.137">
  <defs>
    <clipPath id="clip-path">
      <rect id="Rectángulo_52397" data-name="Rectángulo 52397" width="369.934" height="374.137" fill="none"/>
    </clipPath>
    <clipPath id="clip-path-3">
      <rect id="Rectángulo_52390" data-name="Rectángulo 52390" width="358.081" height="315.743" fill="none"/>
    </clipPath>
    <clipPath id="clip-path-6">
      <rect id="Rectángulo_52393" data-name="Rectángulo 52393" width="107.207" height="73.452" fill="none"/>
    </clipPath>
    <clipPath id="clip-path-7">
      <path id="Trazado_255555" data-name="Trazado 255555" d="M212.608,190.953a50.148,50.148,0,0,1-18.426-1.109s-1.94,48.074-1.524,56.109-1.247,56.8-1.247,56.8a6.833,6.833,0,0,0,4.849,1.8c3.186,0,4.018-1.247,4.018-1.247l17.041-89.359s2.631,34.913,5.819,48.905a249.028,249.028,0,0,0,7.035,24.88s.588,1.491,4.325.75c3.253-.644,4.434-4.434,4.434-4.434s-.693-35.328-.554-57.079-.554-42.117-.554-42.117-14.686,4.849-25.215,6.1" transform="translate(-191.411 -184.857)" fill="none"/>
    </clipPath>
    <clipPath id="clip-path-9">
      <path id="Trazado_255589" data-name="Trazado 255589" d="M204.584,72.566c-2.334,6,.334,14.336.5,15.336s.167,2.834,3,3.334c0,0,3.5,2.168,5.169.334s.709-2.245,1.377-3.58,1.981-.59,2.148,1.91-2.024,2.669.643,3,2.928,1.144,9.263-1.69,9.075-10.812,9.075-15.147-9.169-11.169-14.67-12a11.812,11.812,0,0,0-1.769-.127c-5.432,0-12.638,3.239-14.735,8.629" transform="translate(-203.632 -63.937)" fill="none"/>
    </clipPath>
  </defs>
  <g id="Grupo_166634" data-name="Grupo 166634" clip-path="url(#clip-path)">
    <g id="Grupo_166618" data-name="Grupo 166618">
      <g id="Grupo_166617" data-name="Grupo 166617" clip-path="url(#clip-path)">
        <path id="Trazado_255535" data-name="Trazado 255535" d="M309.394,22.035s-40-32.671-92.04-18.187S143.54,63.16,113.7,93.977c-15.628,16.138-38.71,22.087-57.276,34.508-59.362,39.717-50.576,129.008-4.8,162.7,39.631,29.165,89.148,32.216,153.588,10.7s110.553-34.429,150.517-96.035,2.947-139.47-46.334-183.815" transform="translate(-2.883 -0.029)" fill="#a3314f"/>
        <g id="Grupo_166616" data-name="Grupo 166616" transform="translate(11.853)" opacity="0.7">
          <g id="Grupo_166615" data-name="Grupo 166615">
            <g id="Grupo_166614" data-name="Grupo 166614" clip-path="url(#clip-path-3)">
              <path id="Trazado_255536" data-name="Trazado 255536" d="M309.589,21.891s-40-32.671-92.04-18.187S143.735,63.016,113.892,93.833C98.263,109.97,75.181,115.92,56.615,128.341c-59.362,39.717-50.576,129.008-4.8,162.7,39.631,29.165,89.148,32.216,153.588,10.7s110.553-34.429,150.517-96.035,2.947-139.47-46.334-183.815" transform="translate(-14.775 0)" fill="#fff"/>
            </g>
          </g>
        </g>
      </g>
    </g>
    <g id="Grupo_166620" data-name="Grupo 166620">
      <g id="Grupo_166619" data-name="Grupo 166619" clip-path="url(#clip-path)">
        <path id="Trazado_255537" data-name="Trazado 255537" d="M179.662,196.547c-54.447,0-105.353,14.632-139.666,40.145l5.739,2.8c32.126-23.887,79.422-37.82,130.234-38.466V213.7C94.279,214.888,28.43,255.287,28.43,304.778c0,15.976,6.87,31,18.912,44.07l-18.18,6.638c-14-15.125-21.775-32.464-21.775-50.707,0-17.519,7.38-34.834,21.342-50.075l-6.467-2.149C7.7,268.451,0,286.509,0,304.778c0,22.105,10.991,43.365,31.783,61.481,20.312,17.7,48.526,31.232,81.591,39.144l2.727-4.135c-35.488-8.491-64.213-23.362-83.21-41.941l18.193-6.642c26.695,25.906,74.344,43.2,128.578,43.2,83.389,0,151.23-40.868,151.23-91.1,0-31.215-26.083-59.914-69.771-76.772l-3.985,3.747c41.558,16.035,66.368,43.334,66.368,73.024,0,31.293-27.681,58.765-69.066,74l-9.483-9.072c17.143-6.264,31.813-15.048,42.64-25.89l-6.329-2.294c-21.659,21.689-59.642,34.637-101.605,34.637-36.488,0-70.4-9.905-93.042-27.176l-5.8,2.758a127.29,127.29,0,0,0,32.993,17.7l-9.116,9.267c-41.283-15.247-68.883-42.682-68.883-73.929,0-47.782,64.529-86.654,143.845-86.654a225.309,225.309,0,0,1,59.318,7.687l3.049-4.053a235.582,235.582,0,0,0-58.675-8.055V201.025c93.294,1.189,168.582,47.272,168.582,103.753,0,57.225-77.283,103.78-172.275,103.78a285.015,285.015,0,0,1-34.636-2.1l-1.477,4.36a297.223,297.223,0,0,0,36.113,2.187c99.066,0,179.661-48.552,179.661-108.23s-80.6-108.231-179.661-108.231M120.22,371.658a194.809,194.809,0,0,0,59.442,8.947,195.615,195.615,0,0,0,58.859-8.707l9.514,9.1a221.453,221.453,0,0,1-68.372,10.431,221.355,221.355,0,0,1-68.57-10.495Z" transform="translate(0 -38.871)" fill="#263238"/>
        <path id="Trazado_255538" data-name="Trazado 255538" d="M309.436,341.51c6.211-9.128,9.36-18.8,9.36-28.744,0-41.812-56.466-75.829-125.874-75.829-29.529,0-58.235,6.285-80.828,17.7l4.747,3.409c21.265-10.74,48.285-16.656,76.081-16.656a183.622,183.622,0,0,1,53.778,7.786l-10.284,13.166a145.828,145.828,0,0,0-43.494-6.423,156.374,156.374,0,0,0-17.97,1.03l1.4,4.369a144.284,144.284,0,0,1,16.572-.95c47.238,0,85.773,22.806,86.929,51.1H255.032c-.41-7.232-4.225-14.154-11.1-20.093l-6.058,2.545c6.419,5.546,9.814,12.065,9.814,18.852,0,17.075-22.1,31.52-50.32,32.884l.59,4.436a94.116,94.116,0,0,0,22.488-3.776l12.894,12.834a134.29,134.29,0,0,1-40.419,6.022c-30.274,0-56.973-9.371-72.558-23.545l21.706-7.307c6.553,5.613,15.677,10.152,26.659,12.95l2.877-4.1q-2.765-.7-5.347-1.573L177.3,331.244a53.352,53.352,0,0,0,15.62,2.266,56.53,56.53,0,0,0,8.112-.579l-1.735-4.326a44.322,44.322,0,0,1-6.377.455c-14.914,0-27.049-7.31-27.049-16.294s12.135-16.3,27.049-16.3,27.05,7.31,27.05,16.3c0,3.865-2.286,7.612-6.436,10.551l5.625,2.884c5.287-3.743,8.2-8.515,8.2-13.435,0-11.439-15.449-20.746-34.436-20.746a53.255,53.255,0,0,0-15.809,2.325l-11.185-10.284a84.24,84.24,0,0,1,26.993-4.287,80.837,80.837,0,0,1,32.183,6.294l4.346-3.6c-10.666-4.675-23.3-7.146-36.529-7.146-21.074,0-40.542,6.354-52.078,17l6.185,2.432a48.673,48.673,0,0,1,12.737-8.24L170.955,296.8c-7.612,3.808-12.469,9.55-12.469,15.963,0,6.458,4.926,12.236,12.633,16.043l-11.055,10.359c-13.607-6.138-21.907-15.839-21.907-26.4a20.885,20.885,0,0,1,1.654-8.083l-7.163-1.086a23.69,23.69,0,0,0-1.878,9.169c0,6.344,2.646,12.413,7.417,17.757l-21.651,7.288c-6.753-7.445-10.6-15.98-10.6-25.045,0-20.032,19.379-38.583,49.37-47.262l-3.2-4.011c-31.422,9.093-52.1,28.177-53.48,49.048H74.508c.746-14.858,8.946-28.923,23.861-40.8l-5.892-2.684c-16.636,13.247-25.43,29.053-25.43,45.709,0,11.818,4.389,23.14,13.046,33.653l6.617-1.977c-7.6-9.23-11.7-19.128-12.217-29.451H98.645c1.949,30.318,43.479,54.625,94.276,54.625,52.036,0,94.37-25.5,94.37-56.849,0-20.309-17.781-38.154-44.443-48.211l10.33-13.225c34.829,12.444,58.231,35.322,58.231,61.435,0,9.364-2.963,18.467-8.807,27.056ZM239.721,356.9l-12.88-12.82c15.617-6.192,26.347-16.491,28-28.169h24.9c-1.7,17.209-17.251,32.2-40.013,40.988" transform="translate(-13.26 -46.859)" fill="#263238"/>
      </g>
    </g>
    <g id="Grupo_166625" data-name="Grupo 166625">
      <g id="Grupo_166624" data-name="Grupo 166624" clip-path="url(#clip-path)">
        <g id="Grupo_166623" data-name="Grupo 166623" transform="translate(96.802 208.889)" opacity="0.3">
          <g id="Grupo_166622" data-name="Grupo 166622">
            <g id="Grupo_166621" data-name="Grupo 166621" clip-path="url(#clip-path-6)">
              <path id="Trazado_255539" data-name="Trazado 255539" d="M227.846,300.467c-.078-.237-.31-.958-4.791-.608-2.464.19-6.8.517-9.041.686-1.04-.831-13.234-9.983-13.275-9.894-.452-.4-7.158-6.181-9.237-7.841a3.309,3.309,0,0,0,1.974-.712c.28-.326,1.468-1.842,1.679-2.111,4.2-2.659,12.163-7.692,12.66-7.957,1.377-.738,1.545-1.419,1.442-1.861-.155-.675-1.016-1.077-2.425-1.13-.85-.032-3.905-.588-7.442-1.232-6.156-1.122-14.588-2.656-18.572-2.762a59.306,59.306,0,0,0-12.416,1.2c-1.788.234-4.119.607-6.757,1.1a11.668,11.668,0,0,0-1.982-3.391c1.094-1.177,1.016-2.228.353-2.805-.482-.42-6.074-1.094-6.35-.572-2,.034-4.239.153-6.367.338.266-.208-.607-.515-1.547.148-1.355.142-2.623.311-3.705.5-5.756,1.012-13.581,3.691-14.321,5.6-.258.668.18,1.268.871,1.775-.879.262-.193.9.907.556.245.128.5.245.745.354-.407.09.553.7,1.339.521h0a.683.683,0,0,0-.3.589c.058,1.192,3.722,1.653,3.759,1.657a6.874,6.874,0,0,0,.755.041,9.574,9.574,0,0,0,2.721-.431c.493.162,1,.318,1.516.465a7.162,7.162,0,0,0-1,.874c-1.976.813-4.568,1.905-6.914,2.98a.363.363,0,0,0-.116.022,92.071,92.071,0,0,0-10.529,5.02,1.376,1.376,0,0,0-.808,1.345c.2,1.937,5.429,4.73,15.556,8.3l.157.055a16,16,0,0,0,5.377.963,15.359,15.359,0,0,0,3.414-.392c2.637,2.789,10.321,14.438,12.5,15.952,1.255.87,6.694,12.24,9.842,15.378-.35.29.2.88.57.57.756.757,2.362,2.98,2.734,2.756l.485.492c-.262.132.251.773.59.6.78.8,1.341,1.37,1.564,1.6-.481.963-1.177,2.7-.431,3.518a3.736,3.736,0,0,0,2.9,1.109,10,10,0,0,0,3.73-.863c2.807-1.149,4.092-2.736,3.818-4.718a2.685,2.685,0,0,0-.234-.791.394.394,0,0,0,.075-.339l-2.961-10.708c.317-.729-5.256-23.955-5.256-23.955a.388.388,0,0,0,.261-.126c3.106,1.906,11.476,6.917,17.11,9.149-.243.268-.492.534-.752.79a.4.4,0,1,0,.564.57c.345-.341.675-.692.99-1.05a23.382,23.382,0,0,0,7.473.882c3.067.911,5.2,1.447,5.242,1.458a2.745,2.745,0,0,0,.606.025,8.572,8.572,0,0,0,1.489.117,26.214,26.214,0,0,0,4.175-.454l.369-.061a18,18,0,0,1,2.567-.148,35.429,35.429,0,0,0,4.405-.266,26.893,26.893,0,0,0,7.806-2.06c.514-.314.5-.651.44-.825m-33.8-27.585-4,6.319-1.88.995-.189-.145a.65.65,0,0,0-.031-.2c-.239-.646-4.376-5.434-7.366-8.6l.425.018Z" transform="translate(-120.667 -260.386)"/>
            </g>
          </g>
        </g>
        <path id="Trazado_255540" data-name="Trazado 255540" d="M251.532,185.893l-4.987,4.156s-.97,1.524-.278,2.355a14.037,14.037,0,0,1,1.385,2.217s.832,1.662,1.663,1.94,1.8.416,2.355-.554,3.324-6.1,3.324-6.1Z" transform="translate(-48.655 -36.764)" fill="#fff"/>
        <path id="Trazado_255541" data-name="Trazado 255541" d="M251.532,185.893l-4.987,4.156s-.97,1.524-.278,2.355a14.037,14.037,0,0,1,1.385,2.217s.832,1.662,1.663,1.94,1.8.416,2.355-.554,3.324-6.1,3.324-6.1Z" transform="translate(-48.655 -36.764)" fill="none" stroke="#000" stroke-linecap="round" stroke-linejoin="round" stroke-width="1"/>
        <path id="Trazado_255542" data-name="Trazado 255542" d="M190.953,330.85s-3.791,8.241-3.956,11.868.659,7.417,4.78,5.109,5.892-8.226,6.759-12.033a20.733,20.733,0,0,0,.659-5.934Z" transform="translate(-36.979 -65.237)" fill="#fff"/>
        <path id="Trazado_255543" data-name="Trazado 255543" d="M190.953,330.85s-3.791,8.241-3.956,11.868.659,7.417,4.78,5.109,5.892-8.226,6.759-12.033a20.733,20.733,0,0,0,.659-5.934Z" transform="translate(-36.979 -65.237)" fill="none" stroke="#000" stroke-linecap="round" stroke-linejoin="round" stroke-width="1"/>
        <path id="Trazado_255544" data-name="Trazado 255544" d="M247.344,307.6s6.1,3.462,9.066,5.11,3.956,4.12,2.637,5.439-4.945,2.143-7.912,1.154-4.286-3.462-5.934-3.791-5.11-.659-5.6-5.11,7.747-2.8,7.747-2.8" transform="translate(-47.381 -60.775)" fill="#fff"/>
        <path id="Trazado_255545" data-name="Trazado 255545" d="M247.344,307.6s6.1,3.462,9.066,5.11,3.956,4.12,2.637,5.439-4.945,2.143-7.912,1.154-4.286-3.462-5.934-3.791-5.11-.659-5.6-5.11S247.344,307.6,247.344,307.6Z" transform="translate(-47.381 -60.775)" fill="none" stroke="#000" stroke-linecap="round" stroke-linejoin="round" stroke-width="1"/>
        <path id="Trazado_255546" data-name="Trazado 255546" d="M194.182,189.844s-1.94,48.074-1.524,56.109-1.247,56.8-1.247,56.8a6.83,6.83,0,0,0,4.849,1.8c3.186,0,4.018-1.247,4.018-1.247l17.04-89.36s2.633,34.913,5.819,48.905a248.947,248.947,0,0,0,7.035,24.88s.588,1.491,4.326.75c3.252-.645,4.433-4.433,4.433-4.433s-.693-35.329-.554-57.079-.554-42.117-.554-42.117-14.685,4.849-25.214,6.1a50.148,50.148,0,0,1-18.426-1.109" transform="translate(-37.856 -36.559)" fill="#263238"/>
      </g>
    </g>
    <g id="Grupo_166627" data-name="Grupo 166627" transform="translate(153.555 148.298)">
      <g id="Grupo_166626" data-name="Grupo 166626" clip-path="url(#clip-path-7)">
        <path id="Trazado_255547" data-name="Trazado 255547" d="M213.984,249.933a183.737,183.737,0,0,1-15.242,31.011,142.627,142.627,0,0,1-9.109,13.323" transform="translate(-191.059 -197.727)" fill="none" stroke="#8a8a8a" stroke-linecap="round" stroke-linejoin="round" stroke-width="1"/>
        <path id="Trazado_255548" data-name="Trazado 255548" d="M203.054,295.172a93.547,93.547,0,0,1-5.932,9.848,46.577,46.577,0,0,1-7.517,8.684" transform="translate(-191.054 -206.674)" fill="none" stroke="#8a8a8a" stroke-linecap="round" stroke-linejoin="round" stroke-width="1"/>
        <path id="Trazado_255549" data-name="Trazado 255549" d="M213.886,274.513a119.977,119.977,0,0,1-5.165,12.793" transform="translate(-194.834 -202.588)" fill="none" stroke="#8a8a8a" stroke-linecap="round" stroke-linejoin="round" stroke-width="1"/>
        <path id="Trazado_255550" data-name="Trazado 255550" d="M246.636,233.693s-8.8,27.113-18.31,41.9" transform="translate(-198.712 -194.515)" fill="none" stroke="#8a8a8a" stroke-linecap="round" stroke-linejoin="round" stroke-width="1"/>
        <path id="Trazado_255551" data-name="Trazado 255551" d="M247.639,244.227c-2.52,16.187-5.36,32.52-12.46,47.3" transform="translate(-200.067 -196.599)" fill="none" stroke="#8a8a8a" stroke-linecap="round" stroke-linejoin="round" stroke-width="1"/>
        <path id="Trazado_255552" data-name="Trazado 255552" d="M223.5,223.618l1.761-4.225,4.929-2.817" transform="translate(-197.757 -191.13)" fill="none" stroke="#8a8a8a" stroke-linecap="round" stroke-linejoin="round" stroke-width="1"/>
        <path id="Trazado_255553" data-name="Trazado 255553" d="M237.471,182.737s-5.776,5.554-20.215,7.109-21.1,0-21.1,0-1.821.87-.688,2.212c0,0-.867,1.342,3.8,2.453a43.917,43.917,0,0,0,7.036,1.057l-.15-2.39,2.666-.444v2.948a54.232,54.232,0,0,0,7.331-.36v-2.588l2-.222-.16,2.566c.275-.041.548-.078.827-.123a60.73,60.73,0,0,0,10.885-2.793v-3.871l2.888-.222-.264,3.038a17.109,17.109,0,0,0,4.929-3.038,3.778,3.778,0,0,0,.222-5.332" transform="translate(-192.139 -184.438)" fill="#969696"/>
        <path id="Trazado_255554" data-name="Trazado 255554" d="M200.976,311.382a137.561,137.561,0,0,1-11.238,9.647" transform="translate(-191.08 -209.88)" fill="none" stroke="#8a8a8a" stroke-linecap="round" stroke-linejoin="round" stroke-width="1"/>
      </g>
    </g>
    <g id="Grupo_166629" data-name="Grupo 166629">
      <g id="Grupo_166628" data-name="Grupo 166628" clip-path="url(#clip-path)">
        <path id="Trazado_255556" data-name="Trazado 255556" d="M194.182,189.844s-1.94,48.074-1.524,56.109-1.247,56.8-1.247,56.8a6.83,6.83,0,0,0,4.849,1.8c3.186,0,4.018-1.247,4.018-1.247l17.04-89.36s2.633,34.913,5.819,48.905a248.947,248.947,0,0,0,7.035,24.88s.588,1.491,4.326.75c3.252-.645,4.433-4.433,4.433-4.433s-.693-35.329-.554-57.079-.554-42.117-.554-42.117-14.685,4.849-25.214,6.1A50.148,50.148,0,0,1,194.182,189.844Z" transform="translate(-37.856 -36.559)" fill="none" stroke="#263238" stroke-linecap="round" stroke-linejoin="round" stroke-width="1"/>
        <path id="Trazado_255557" data-name="Trazado 255557" d="M245.638,110.6a15.844,15.844,0,0,1,11.084,5.126c4.849,5.264,15.239,31.033,17.041,33.111s1.13,6.127-1.4,8.268c-.826.7-17.443,17.917-17.443,17.917L251.457,171l9.837-20.5L249.517,130.27" transform="translate(-48.58 -21.873)" fill="#a3314f"/>
        <path id="Trazado_255558" data-name="Trazado 255558" d="M245.638,110.6a15.844,15.844,0,0,1,11.084,5.126c4.849,5.264,15.239,31.033,17.041,33.111s1.13,6.127-1.4,8.268c-.826.7-17.443,17.917-17.443,17.917L251.457,171l9.837-20.5L249.517,130.27" transform="translate(-48.58 -21.873)" fill="none" stroke="#000" stroke-linecap="round" stroke-linejoin="round" stroke-width="1"/>
        <path id="Trazado_255559" data-name="Trazado 255559" d="M252.224,132.029l.447-3.573,1.34,10.423-1.637-1.936Z" transform="translate(-49.883 -25.405)"/>
        <path id="Trazado_255560" data-name="Trazado 255560" d="M252.224,132.029l.447-3.573,1.34,10.423-1.637-1.936Z" transform="translate(-49.883 -25.405)" fill="none" stroke="#000" stroke-linecap="round" stroke-linejoin="round" stroke-width="1"/>
        <path id="Trazado_255561" data-name="Trazado 255561" d="M270.775,163.436c-3.5.194-5.623-3.1-5.623-3.1a6.4,6.4,0,0,0,6.012,4.464" transform="translate(-52.44 -31.71)" fill="none" stroke="#000" stroke-linecap="round" stroke-linejoin="round" stroke-width="1"/>
        <path id="Trazado_255562" data-name="Trazado 255562" d="M239.6,129.056c-.31,12.35-1.788,38.92-2.16,41.149-.416,2.493-3.325,4.018-14.824,7.481s-27.431,2.217-28.54-.277-3.325-14.686-3.325-20.5-5.541-28.4-.692-33.528,18.149-12.053,18.149-12.053c10.668-4.156,22.305-2.633,27.016-.832a7.327,7.327,0,0,1,2.037,1.128" transform="translate(-37.195 -21.491)" fill="#a3314f"/>
        <path id="Trazado_255563" data-name="Trazado 255563" d="M239.6,129.056c-.31,12.35-1.788,38.92-2.16,41.149-.416,2.493-3.325,4.018-14.824,7.481s-27.431,2.217-28.54-.277-3.325-14.686-3.325-20.5-5.541-28.4-.692-33.528,18.149-12.053,18.149-12.053c10.668-4.156,22.305-2.633,27.016-.832a7.327,7.327,0,0,1,2.037,1.128" transform="translate(-37.195 -21.491)" fill="none" stroke="#000" stroke-linecap="round" stroke-linejoin="round" stroke-width="1"/>
        <path id="Trazado_255564" data-name="Trazado 255564" d="M218.525,127.507l4.572,3.879-3.186,39.624,7.62,7.9,5.126-11.5-6.927-36.575,3.325-5.4-5.265-4.987Z" transform="translate(-43.218 -23.82)" fill="#fff"/>
        <path id="Trazado_255565" data-name="Trazado 255565" d="M218.525,127.507l4.572,3.879-3.186,39.624,7.62,7.9,5.126-11.5-6.927-36.575,3.325-5.4-5.265-4.987Z" transform="translate(-43.218 -23.82)" fill="none" stroke="#000" stroke-linecap="round" stroke-linejoin="round" stroke-width="1"/>
        <path id="Trazado_255566" data-name="Trazado 255566" d="M231.605,169.823l-11.134,8.225-.22,2.728,2.534,2.626,9.993-7.382Z" transform="translate(-43.56 -33.586)"/>
        <path id="Trazado_255567" data-name="Trazado 255567" d="M231.605,169.823l-11.134,8.225-.22,2.728,2.534,2.626,9.993-7.382Z" transform="translate(-43.56 -33.586)" fill="none" stroke="#000" stroke-miterlimit="10" stroke-width="1"/>
        <path id="Trazado_255568" data-name="Trazado 255568" d="M227.991,140.646l-1.174-6.2-2.994,2.212-.6,7.51Z" transform="translate(-44.147 -26.59)"/>
        <path id="Trazado_255569" data-name="Trazado 255569" d="M227.991,140.646l-1.174-6.2-2.994,2.212-.6,7.51Z" transform="translate(-44.147 -26.59)" fill="none" stroke="#000" stroke-miterlimit="10" stroke-width="1"/>
        <path id="Trazado_255570" data-name="Trazado 255570" d="M229.164,152.136l-7.064,5.219-.6,7.51,8.842-6.532Z" transform="translate(-43.806 -30.088)"/>
        <path id="Trazado_255571" data-name="Trazado 255571" d="M229.164,152.136l-7.064,5.219-.6,7.51,8.842-6.532Z" transform="translate(-43.806 -30.088)" fill="none" stroke="#000" stroke-miterlimit="10" stroke-width="1"/>
        <path id="Trazado_255572" data-name="Trazado 255572" d="M212.181,108.363s-4.018,4.3-4.018,5.681,3.741,11.914,4.71,12.884,8.59-5.126,8.59-5.126,8.035,4.711,8.589,4.018-.693-8.313-2.217-12.192-9.7-9.144-15.655-5.264" transform="translate(-41.169 -21.162)" fill="#a3314f"/>
        <path id="Trazado_255573" data-name="Trazado 255573" d="M212.181,108.363s-4.018,4.3-4.018,5.681,3.741,11.914,4.71,12.884,8.59-5.126,8.59-5.126,8.035,4.711,8.589,4.018-.693-8.313-2.217-12.192S218.138,104.483,212.181,108.363Z" transform="translate(-41.169 -21.162)" fill="none" stroke="#000" stroke-linecap="round" stroke-linejoin="round" stroke-width="1"/>
        <path id="Trazado_255574" data-name="Trazado 255574" d="M215.416,114.912s4.156,10.668,8.313,11.222,4.987-8.589,4.71-11.222-9.421-6.373-13.023,0" transform="translate(-42.603 -22.032)"/>
        <path id="Trazado_255575" data-name="Trazado 255575" d="M215.416,114.912s4.156,10.668,8.313,11.222,4.987-8.589,4.71-11.222S219.018,108.539,215.416,114.912Z" transform="translate(-42.603 -22.032)" fill="none" stroke="#000" stroke-linecap="round" stroke-linejoin="round" stroke-width="1"/>
        <path id="Trazado_255576" data-name="Trazado 255576" d="M233.535,87.806s-.667,11.669-2,16.67-3,10.336-5.835,11-8.835-2.168-11.669-4.834S208.2,94.808,208.2,90.974s10.5-7.168,16.337-7.335a11.3,11.3,0,0,1,9,4.168" transform="translate(-41.175 -16.54)" fill="#fff"/>
        <path id="Trazado_255577" data-name="Trazado 255577" d="M233.535,87.806s-.667,11.669-2,16.67-3,10.336-5.835,11-8.835-2.168-11.669-4.834S208.2,94.808,208.2,90.974s10.5-7.168,16.337-7.335A11.3,11.3,0,0,1,233.535,87.806Z" transform="translate(-41.175 -16.54)" fill="none" stroke="#000" stroke-linecap="round" stroke-linejoin="round" stroke-width="1"/>
        <path id="Trazado_255578" data-name="Trazado 255578" d="M230.891,103.406v6.507l-2.584.383" transform="translate(-45.153 -20.451)" fill="none" stroke="#000" stroke-linecap="round" stroke-linejoin="round" stroke-width="1"/>
        <path id="Trazado_255579" data-name="Trazado 255579" d="M219.957,103.406s1.531,1.722,5.933.478" transform="translate(-43.501 -20.451)" fill="none" stroke="#000" stroke-linecap="round" stroke-linejoin="round" stroke-width="1"/>
        <path id="Trazado_255580" data-name="Trazado 255580" d="M232.244,102.979a3.96,3.96,0,0,0,3.732-1.243" transform="translate(-45.931 -20.121)" fill="none" stroke="#000" stroke-linecap="round" stroke-linejoin="round" stroke-width="1"/>
        <path id="Trazado_255581" data-name="Trazado 255581" d="M231.768,101.585s.785-2.132,4.265-2.805" transform="translate(-45.837 -19.536)" fill="none" stroke="#000" stroke-linecap="round" stroke-linejoin="round" stroke-width="1"/>
        <path id="Trazado_255582" data-name="Trazado 255582" d="M226.414,102.375a6.847,6.847,0,0,0-6.4-1.683" transform="translate(-43.513 -19.877)" fill="none" stroke="#000" stroke-linecap="round" stroke-linejoin="round" stroke-width="1"/>
        <line id="Línea_506" data-name="Línea 506" y1="0.449" x2="2.582" transform="translate(183.013 92.487)" fill="none" stroke="#000" stroke-linecap="round" stroke-linejoin="round" stroke-width="1"/>
        <path id="Trazado_255583" data-name="Trazado 255583" d="M221.835,104.935a3.049,3.049,0,0,0,2.805,0" transform="translate(-43.873 -20.753)" fill="none" stroke="#000" stroke-linecap="round" stroke-linejoin="round" stroke-width="1"/>
        <path id="Trazado_255584" data-name="Trazado 255584" d="M232.749,103.8a3.049,3.049,0,0,0,2.722-.68" transform="translate(-46.031 -20.394)" fill="none" stroke="#000" stroke-linecap="round" stroke-linejoin="round" stroke-width="1"/>
        <path id="Trazado_255585" data-name="Trazado 255585" d="M208.086,91.236s3.5,2.167,5.167.334.71-2.245,1.377-3.58,1.982-.59,2.149,1.91-2.026,2.669.642,3,2.928,1.144,9.263-1.69,9.074-10.812,9.074-15.147-9.169-11.169-14.67-12-14.169,2.5-16.5,8.5.334,14.337.5,15.337.166,2.834,3,3.334" transform="translate(-40.273 -12.645)"/>
      </g>
    </g>
    <g id="Grupo_166631" data-name="Grupo 166631" transform="translate(163.359 51.292)">
      <g id="Grupo_166630" data-name="Grupo 166630" clip-path="url(#clip-path-9)">
        <path id="Trazado_255586" data-name="Trazado 255586" d="M228.132,77.908c-3.941,4.923-11.484,10.085-25.762,9.912" transform="translate(-203.382 -66.7)" fill="none" stroke="#8a8a8a" stroke-linecap="round" stroke-linejoin="round" stroke-width="1"/>
        <path id="Trazado_255587" data-name="Trazado 255587" d="M239.113,67.124a18.615,18.615,0,0,1-2.326,5.96" transform="translate(-210.189 -64.567)" fill="none" stroke="#8a8a8a" stroke-linecap="round" stroke-linejoin="round" stroke-width="1"/>
        <path id="Trazado_255588" data-name="Trazado 255588" d="M225.8,63.612S214.885,79.1,199.745,81.218" transform="translate(-202.863 -63.873)" fill="none" stroke="#8a8a8a" stroke-linecap="round" stroke-linejoin="round" stroke-width="1"/>
      </g>
    </g>
    <g id="Grupo_166633" data-name="Grupo 166633">
      <g id="Grupo_166632" data-name="Grupo 166632" clip-path="url(#clip-path)">
        <path id="Trazado_255590" data-name="Trazado 255590" d="M210.726,99.019s-1.817-5.8-4.744-5.868-1.259,6.086.03,8.182a2.583,2.583,0,0,0,3.383,1.05" transform="translate(-40.416 -18.423)" fill="#fff"/>
        <path id="Trazado_255591" data-name="Trazado 255591" d="M210.726,99.019s-1.817-5.8-4.744-5.868-1.259,6.086.03,8.182a2.583,2.583,0,0,0,3.383,1.05" transform="translate(-40.416 -18.423)" fill="none" stroke="#000" stroke-linecap="round" stroke-linejoin="round" stroke-width="1"/>
        <path id="Trazado_255592" data-name="Trazado 255592" d="M206.825,99.327s-.673-2.805.673-2.245,2.021,2.582,2.021,2.582-1.122-.112-1.011.561.9.674.9.674" transform="translate(-40.871 -19.186)" fill="none" stroke="#000" stroke-linecap="round" stroke-linejoin="round" stroke-width="1"/>
        <path id="Trazado_255593" data-name="Trazado 255593" d="M194.513,120.271a66.4,66.4,0,0,0-12.885,9.283c-5.4,5.264,2.632,37.822,3.6,41.839,1.4,5.8,3.464,8.451,6.373,8.313s12.746-17.179,15.794-24.522a102.365,102.365,0,0,0,4.849-16.349s3.88-1.523,4.572-2.909a18.077,18.077,0,0,0,1.109-2.91s.692,2.079,1.939,1.525,1.8-3.742,2.079-5.957-5.4-4.156-5.4-4.156.692-2.91,2.355-3.325,3.6-1.94,3.048-2.772-5.265,2.079-5.265,2.079-3.74,5.819-5.125,8.45c-.906,1.722-3.114,6.521-4.535,9.639a32.628,32.628,0,0,1-3.12,5.407l-6.754,9.478s-.277-17.041-.277-17.734" transform="translate(-35.554 -23.373)" fill="#a3314f"/>
        <path id="Trazado_255594" data-name="Trazado 255594" d="M194.513,120.271a66.4,66.4,0,0,0-12.885,9.283c-5.4,5.264,2.632,37.822,3.6,41.839,1.4,5.8,3.464,8.451,6.373,8.313s12.746-17.179,15.794-24.522a102.365,102.365,0,0,0,4.849-16.349s3.88-1.523,4.572-2.909a18.077,18.077,0,0,0,1.109-2.91s.692,2.079,1.939,1.525,1.8-3.742,2.079-5.957-5.4-4.156-5.4-4.156.692-2.91,2.355-3.325,3.6-1.94,3.048-2.772-5.265,2.079-5.265,2.079-3.74,5.819-5.125,8.45c-.906,1.722-3.114,6.521-4.535,9.639a32.628,32.628,0,0,1-3.12,5.407l-6.754,9.478s-.277-17.041-.277-17.734" transform="translate(-35.554 -23.373)" fill="none" stroke="#000" stroke-linecap="round" stroke-linejoin="round" stroke-width="1"/>
        <line id="Línea_507" data-name="Línea 507" y1="5.956" x2="2.383" transform="translate(161.544 111.538)" fill="none" stroke="#000" stroke-linecap="round" stroke-linejoin="round" stroke-width="1"/>
        <path id="Trazado_255595" data-name="Trazado 255595" d="M189.942,172.772c0-1.638,8.831-10.711,8.831-10.711s-9.725,6.244-10.768,8.03" transform="translate(-37.182 -32.051)" fill="none" stroke="#000" stroke-linecap="round" stroke-linejoin="round" stroke-width="1"/>
        <path id="Trazado_255596" data-name="Trazado 255596" d="M223.625,135.915a18.215,18.215,0,0,0,1.108-2.91s.692,2.079,1.939,1.524,1.8-3.741,2.079-5.957-4.987-4.3-4.987-4.3.832-2.493,1.939-3.186c1.454-.909,3.6-1.94,3.048-2.771-.316-.474-1.984,0-3.359.491a5.277,5.277,0,0,0-2.825,2.394c-1.2,2.144-3.257,5.839-4.207,7.644-.832,1.579-2.759,5.75-4.169,8.836a5.384,5.384,0,0,0,4.557,2.548c.2-.888.3-1.409.3-1.409s3.879-1.524,4.573-2.91" transform="translate(-42.361 -23.362)" fill="#fff"/>
        <path id="Trazado_255597" data-name="Trazado 255597" d="M223.625,135.915a18.215,18.215,0,0,0,1.108-2.91s.692,2.079,1.939,1.524,1.8-3.741,2.079-5.957-4.987-4.3-4.987-4.3.832-2.493,1.939-3.186c1.454-.909,3.6-1.94,3.048-2.771-.316-.474-1.984,0-3.359.491a5.277,5.277,0,0,0-2.825,2.394c-1.2,2.144-3.257,5.839-4.207,7.644-.832,1.579-2.759,5.75-4.169,8.836a5.384,5.384,0,0,0,4.557,2.548c.2-.888.3-1.409.3-1.409S222.931,137.3,223.625,135.915Z" transform="translate(-42.361 -23.362)" fill="none" stroke="#000" stroke-linecap="round" stroke-linejoin="round" stroke-width="1"/>
        <path id="Trazado_255598" data-name="Trazado 255598" d="M225.778,132.012a45.313,45.313,0,0,1,4.156,1.94.913.913,0,0,1,.416,1.247" transform="translate(-44.653 -26.108)" fill="#fff"/>
        <path id="Trazado_255599" data-name="Trazado 255599" d="M225.778,132.012a45.313,45.313,0,0,1,4.156,1.94.913.913,0,0,1,.416,1.247" transform="translate(-44.653 -26.108)" fill="none" stroke="#000" stroke-linecap="round" stroke-linejoin="round" stroke-width="1"/>
        <path id="Trazado_255600" data-name="Trazado 255600" d="M225.432,128.731a43.983,43.983,0,0,1,5.4,2.91" transform="translate(-44.584 -25.459)" fill="#fff"/>
        <path id="Trazado_255601" data-name="Trazado 255601" d="M225.432,128.731a43.983,43.983,0,0,1,5.4,2.91" transform="translate(-44.584 -25.459)" fill="none" stroke="#000" stroke-linecap="round" stroke-linejoin="round" stroke-width="1"/>
      </g>
    </g>
  </g>
</svg>
