<svg id="Grupo_165559" data-name="Grupo 165559" xmlns="http://www.w3.org/2000/svg" xmlns:xlink="http://www.w3.org/1999/xlink" width="525" height="337.45" viewBox="0 0 525 337.45">
  <defs>
    <clipPath id="clip-path">
      <rect id="Rectángulo_51478" data-name="Rectángulo 51478" width="525" height="337.45" fill="none"/>
    </clipPath>
    <clipPath id="clip-path-3">
      <rect id="Rectángulo_51480" data-name="Rectángulo 51480" width="110.06" height="149.64" fill="#a3314f"/>
    </clipPath>
    <clipPath id="clip-path-4">
      <rect id="Rectángulo_51481" data-name="Rectángulo 51481" width="36.099" height="32.141" fill="none"/>
    </clipPath>
    <clipPath id="clip-path-5">
      <rect id="Rectángulo_51482" data-name="Rectángulo 51482" width="10.592" height="17.265" fill="none"/>
    </clipPath>
    <clipPath id="clip-path-6">
      <rect id="Rectángulo_51483" data-name="Rectángulo 51483" width="11.691" height="10.35" fill="none"/>
    </clipPath>
    <clipPath id="clip-path-7">
      <rect id="Rectángulo_51484" data-name="Rectángulo 51484" width="11.866" height="11.442" fill="none"/>
    </clipPath>
    <clipPath id="clip-path-8">
      <rect id="Rectángulo_51486" data-name="Rectángulo 51486" width="11.154" height="45.429" fill="none"/>
    </clipPath>
    <clipPath id="clip-path-9">
      <rect id="Rectángulo_51487" data-name="Rectángulo 51487" width="22.877" height="11.522" fill="none"/>
    </clipPath>
    <clipPath id="clip-path-10">
      <rect id="Rectángulo_51488" data-name="Rectángulo 51488" width="28.337" height="51.899" fill="none"/>
    </clipPath>
    <clipPath id="clip-path-11">
      <rect id="Rectángulo_51489" data-name="Rectángulo 51489" width="5.786" height="10.524" fill="none"/>
    </clipPath>
    <clipPath id="clip-path-12">
      <rect id="Rectángulo_51490" data-name="Rectángulo 51490" width="30.141" height="28.876" fill="none"/>
    </clipPath>
    <clipPath id="clip-path-13">
      <rect id="Rectángulo_51491" data-name="Rectángulo 51491" width="34.836" height="37.981" fill="none"/>
    </clipPath>
  </defs>
  <g id="Grupo_165560" data-name="Grupo 165560">
    <g id="Grupo_165518" data-name="Grupo 165518">
      <g id="Grupo_165517" data-name="Grupo 165517" clip-path="url(#clip-path)">
        <path id="Trazado_237570" data-name="Trazado 237570" d="M596.123,316.757a28.462,28.462,0,0,1,7.572-18.808c2.29,9.438-7.572,18.808-7.572,18.808" transform="translate(-551.642 -61.737)" fill="#ebebeb"/>
        <path id="Trazado_237571" data-name="Trazado 237571" d="M566.678,314.392a28.466,28.466,0,0,1,20.267-.56c-7.739,5.863-20.267.56-20.267.56" transform="translate(-511.203 -64.696)" fill="#ebebeb"/>
        <path id="Trazado_237572" data-name="Trazado 237572" d="M586.368,303.126a22.433,22.433,0,0,1,2.757-15.753c3.318,6.913-2.757,15.753-2.757,15.753" transform="translate(-529.641 -59.546)" fill="#ebebeb"/>
        <path id="Trazado_237573" data-name="Trazado 237573" d="M613.142,279.414c16.069,4.278,24.688,18.248,24.688,18.248-13.734.009-24.688-18.248-24.688-18.248" transform="translate(-598.925 -57.897)" fill="#ebebeb"/>
        <path id="Trazado_237574" data-name="Trazado 237574" d="M591.641,278.07c-.835-17.32,16.093-36.924,16.093-36.924-2.556,21.506-16.093,36.924-16.093,36.924" transform="translate(-551.759 -49.967)" fill="#ebebeb"/>
        <path id="Trazado_237575" data-name="Trazado 237575" d="M618.459,225.5a46.4,46.4,0,0,1-6.086,24.809c-2.391-11.14,6.086-24.809,6.086-24.809" transform="translate(-578.66 -46.725)" fill="#ebebeb"/>
        <path id="Trazado_237576" data-name="Trazado 237576" d="M639.8,266.238c-12.663-1.359-19.553-13.957-19.553-13.957,15.314,4.291,19.553,13.957,19.553,13.957" transform="translate(-606.527 -52.275)" fill="#ebebeb"/>
        <path id="Trazado_237577" data-name="Trazado 237577" d="M629.587,335.564a28.465,28.465,0,0,1,19.91-3.835c-6.688,7.038-19.91,3.835-19.91,3.835" transform="translate(-623.629 -68.647)" fill="#ebebeb"/>
        <path id="Trazado_237578" data-name="Trazado 237578" d="M621.818,343.849a18.632,18.632,0,0,1-8.509,9.586c.542-5.844,8.509-9.586,8.509-9.586" transform="translate(-583.045 -71.248)" fill="#ebebeb"/>
        <path id="Trazado_237579" data-name="Trazado 237579" d="M630.508,341.353a22.487,22.487,0,0,1-15.146,2.7c4.876-5.081,15.146-2.7,15.146-2.7" transform="translate(-593.364 -70.616)" fill="#ebebeb"/>
        <path id="Trazado_237580" data-name="Trazado 237580" d="M620.839,345.236a.9.9,0,0,1-.024-.258c0-.2-.01-.453-.016-.755q0-1.068-.006-2.9c.012-1.26.013-2.8-.025-4.591s-.033-3.827-.128-6.078c-.109-4.5-.429-9.858-.889-15.793-.516-5.932-1.235-12.44-2.227-19.239-2-13.6-4.736-25.76-6.934-34.494-1.107-4.367-2.041-7.892-2.722-10.317l-.756-2.8c-.074-.294-.133-.535-.183-.733a.884.884,0,0,1-.044-.255.858.858,0,0,1,.1.239c.064.193.143.429.238.717q.315,1.02.859,2.773c.747,2.409,1.741,5.921,2.9,10.279a320.458,320.458,0,0,1,7.107,34.513c.993,6.812,1.7,13.334,2.186,19.278.433,5.949.711,11.315.768,15.826.07,2.254.046,4.295.045,6.086s-.025,3.334-.071,4.594q-.063,1.834-.1,2.9c-.016.3-.029.55-.04.755a.9.9,0,0,1-.033.256" transform="translate(-577.221 -51.184)" fill="#e0e0e0"/>
        <path id="Trazado_237581" data-name="Trazado 237581" d="M608.08,324.661c.089-.129,5.207,3.225,11.431,7.491s11.2,7.831,11.11,7.96-5.205-3.224-11.432-7.492-11.2-7.83-11.109-7.96" transform="translate(-587.703 -67.271)" fill="#e0e0e0"/>
        <path id="Trazado_237582" data-name="Trazado 237582" d="M580.972,321.7a4.622,4.622,0,0,1,.786-.86l2.278-2.2,7.611-7.139,7.612-7.136,2.306-2.164a4.563,4.563,0,0,1,.895-.746,4.616,4.616,0,0,1-.738.9c-.5.559-1.249,1.338-2.183,2.3-1.873,1.908-4.524,4.48-7.5,7.264s-5.719,5.258-7.728,7.02c-1,.882-1.825,1.586-2.4,2.063a4.554,4.554,0,0,1-.935.7" transform="translate(-538.053 -62.464)" fill="#e0e0e0"/>
        <path id="Trazado_237583" data-name="Trazado 237583" d="M633.531,314.309s13.087-.25,18.623,10.052a23.573,23.573,0,0,1-18.623-10.052" transform="translate(-629.412 -65.127)" fill="#ebebeb"/>
        <path id="Trazado_237584" data-name="Trazado 237584" d="M622.947,307.683s10.657,7.6,8.96,19.171a23.571,23.571,0,0,1-8.96-19.171" transform="translate(-600.955 -63.754)" fill="#ebebeb"/>
        <path id="Trazado_237585" data-name="Trazado 237585" d="M581.245,284.06s-4.2,14.649-17.565,17.281a27.446,27.446,0,0,1,17.565-17.281" transform="translate(-503.126 -58.859)" fill="#ebebeb"/>
        <path id="Trazado_237586" data-name="Trazado 237586" d="M622.9,215.365s16.7,10.891,14.848,28.6a35.9,35.9,0,0,1-14.848-28.6" transform="translate(-606.719 -44.625)" fill="#ebebeb"/>
        <path id="Trazado_237587" data-name="Trazado 237587" d="M595.019,337.557a6.606,6.606,0,0,1-1.084.87c-.722.522-1.75,1.3-3,2.29a73.2,73.2,0,0,0-16.519,18.4c-.849,1.344-1.513,2.45-1.955,3.223a6.548,6.548,0,0,1-.748,1.171,6.508,6.508,0,0,1,.553-1.276c.383-.808,1-1.949,1.808-3.328a63.761,63.761,0,0,1,16.617-18.5c1.284-.954,2.353-1.686,3.116-2.153a6.542,6.542,0,0,1,1.209-.687" transform="translate(-523.27 -69.944)" fill="#e0e0e0"/>
        <path id="Trazado_237588" data-name="Trazado 237588" d="M585.22,346.075a28.472,28.472,0,0,1,3.833-19.909c1.8,12.415-3.833,19.909-3.833,19.909" transform="translate(-528 -67.584)" fill="#ebebeb"/>
        <path id="Trazado_237589" data-name="Trazado 237589" d="M557.486,342.843a20.708,20.708,0,0,1,14.574-2.259c-8.061,4.275-14.574,2.259-14.574,2.259" transform="translate(-489.031 -70.477)" fill="#ebebeb"/>
        <path id="Trazado_237590" data-name="Trazado 237590" d="M573.442,372.625l6.264,41.167H616.1l8.447-40.571Z" transform="translate(-554.167 -77.211)" fill="#ebebeb"/>
        <path id="Trazado_237591" data-name="Trazado 237591" d="M621.516,405.848c0,.118-9.326.213-20.827.213s-20.828-.1-20.828-.213,9.323-.213,20.828-.213,20.827.1,20.827.213" transform="translate(-556.225 -84.051)" fill="#fafafa"/>
        <path id="Trazado_237592" data-name="Trazado 237592" d="M621.62,403.3c0,.118-9.389.213-20.968.213s-20.969-.1-20.969-.213,9.387-.214,20.969-.214,20.968.1,20.968.214" transform="translate(-556.189 -83.521)" fill="#fafafa"/>
        <path id="Trazado_237593" data-name="Trazado 237593" d="M621.71,400.41c0,.118-9.389.213-20.968.213s-20.969-.1-20.969-.213,9.387-.213,20.969-.213,20.968.1,20.968.213" transform="translate(-556.35 -82.924)" fill="#fafafa"/>
        <path id="Trazado_237594" data-name="Trazado 237594" d="M626.534,418.859a65.8,65.8,0,0,1-1.811-10.439,65.816,65.816,0,0,1,1.811,10.439" transform="translate(-596.815 -84.628)" fill="#fafafa"/>
        <path id="Trazado_237595" data-name="Trazado 237595" d="M622.205,418.39a120.6,120.6,0,0,1-.689-10.13,40.461,40.461,0,0,1,.689,10.13" transform="translate(-590.01 -84.594)" fill="#fafafa"/>
        <path id="Trazado_237596" data-name="Trazado 237596" d="M617.161,418.3a41.146,41.146,0,0,1-1.224-10.45,153.4,153.4,0,0,1,1.224,10.45" transform="translate(-580.454 -84.51)" fill="#fafafa"/>
        <path id="Trazado_237597" data-name="Trazado 237597" d="M612.387,418.549a42.1,42.1,0,0,1-.343-10.559,148.462,148.462,0,0,1,.343,10.559" transform="translate(-572.512 -84.539)" fill="#fafafa"/>
        <path id="Trazado_237598" data-name="Trazado 237598" d="M605.159,418.419a58.933,58.933,0,0,1-.339-10.015,58.933,58.933,0,0,1,.339,10.015" transform="translate(-559.676 -84.624)" fill="#fafafa"/>
        <path id="Trazado_237599" data-name="Trazado 237599" d="M599.527,418.608a62.8,62.8,0,0,1,.084-10.343,62.587,62.587,0,0,1-.084,10.343" transform="translate(-549.949 -84.596)" fill="#fafafa"/>
        <path id="Trazado_237600" data-name="Trazado 237600" d="M593.506,417.8a68.569,68.569,0,0,1,1.046-10.772,68.818,68.818,0,0,1-1.046,10.772" transform="translate(-540.088 -84.34)" fill="#fafafa"/>
        <path id="Trazado_237601" data-name="Trazado 237601" d="M586.123,417.576a28.428,28.428,0,0,1,1.965-9.035,221.394,221.394,0,0,1-1.965,9.035" transform="translate(-527.754 -84.653)" fill="#fafafa"/>
        <path id="Trazado_237602" data-name="Trazado 237602" d="M569.045,362.343v7.7a3.032,3.032,0,0,0,3.032,3.032h52.7a3.032,3.032,0,0,0,3.032-3.032v-7.7Z" transform="translate(-553.946 -75.08)" fill="#ebebeb"/>
        <path id="Trazado_237603" data-name="Trazado 237603" d="M573.964,375.884l.438,2.452L623.03,381.8l1.232-5.918Z" transform="translate(-554.296 -77.886)" fill="#e0e0e0"/>
        <rect id="Rectángulo_51452" data-name="Rectángulo 51452" width="72.191" height="104.638" transform="translate(300.997 12.675)" fill="#e0e0e0"/>
        <rect id="Rectángulo_51453" data-name="Rectángulo 51453" width="72.191" height="104.638" transform="translate(304.614 12.675)" fill="#f5f5f5"/>
        <rect id="Rectángulo_51454" data-name="Rectángulo 51454" width="54.252" height="81.972" transform="translate(313.583 24.008)" fill="#fff"/>
        <path id="Trazado_237604" data-name="Trazado 237604" d="M198.175,112.2s.007-.139.01-.4.006-.657.011-1.163c0-1.03.012-2.538.021-4.5.011-3.928.028-9.654.048-16.886.022-14.454.052-34.923.089-59.027l-.18.18,54.246.017h.006l-.2-.2c.015,30.923.029,59.435.04,81.972l.156-.156-39.489.082-10.91.04-2.864.017c-.649.006-.99.017-.99.017s.32.011.957.017l2.835.017,10.875.04,39.586.082h.156V112.2c.011-22.537.025-51.049.04-81.972v-.2h-.2l-54.246.017h-.181v.18c.036,24.152.067,44.661.088,59.145.021,7.214.037,12.926.049,16.845.01,1.942.017,3.438.021,4.46,0,.5.008.876.01,1.142s.011.38.011.38" transform="translate(115.408 -6.223)" fill="#e0e0e0"/>
        <path id="Trazado_237605" data-name="Trazado 237605" d="M265.843,15.988a12.511,12.511,0,0,0,1.287,1.869c.839,1.122,2.029,2.647,3.388,4.3s2.628,3.11,3.568,4.149a12.394,12.394,0,0,0,1.588,1.62,13.593,13.593,0,0,0-1.378-1.8L270.82,21.9l-3.472-4.218a13.479,13.479,0,0,0-1.5-1.7" transform="translate(38.568 -3.313)" fill="#e0e0e0"/>
        <path id="Trazado_237606" data-name="Trazado 237606" d="M276.486,133.346a67.141,67.141,0,0,1-9.463,11.834" transform="translate(36.82 -27.63)" fill="#fff"/>
        <path id="Trazado_237607" data-name="Trazado 237607" d="M267.021,145.18a10.8,10.8,0,0,0,1.65-1.5,52.924,52.924,0,0,0,6.712-8.394,10.71,10.71,0,0,0,1.1-1.939,14.973,14.973,0,0,0-1.33,1.784c-.8,1.117-1.915,2.645-3.22,4.279s-2.55,3.059-3.464,4.08a14.9,14.9,0,0,0-1.448,1.691" transform="translate(36.823 -27.63)" fill="#e0e0e0"/>
        <path id="Trazado_237608" data-name="Trazado 237608" d="M196.371,144.821l-9.456-11.667" transform="translate(180.445 -27.59)" fill="#fff"/>
        <path id="Trazado_237609" data-name="Trazado 237609" d="M186.915,133.154a72.027,72.027,0,0,0,4.575,5.957,72.057,72.057,0,0,0,4.88,5.71,71.758,71.758,0,0,0-4.575-5.957,72.023,72.023,0,0,0-4.88-5.71" transform="translate(180.443 -27.59)" fill="#e0e0e0"/>
        <path id="Trazado_237610" data-name="Trazado 237610" d="M195.8,15.988a65.231,65.231,0,0,0-4.589,5.486,65.018,65.018,0,0,0-4.282,5.731,65.378,65.378,0,0,0,4.589-5.487,65.337,65.337,0,0,0,4.282-5.73" transform="translate(181.006 -3.312)" fill="#e0e0e0"/>
        <rect id="Rectángulo_51455" data-name="Rectángulo 51455" width="18.166" height="51.578" transform="translate(330.485 40.651)" fill="#e0e0e0"/>
        <rect id="Rectángulo_51456" data-name="Rectángulo 51456" width="68.767" height="68.767" transform="translate(175.692)" fill="#ebebeb"/>
        <rect id="Rectángulo_51457" data-name="Rectángulo 51457" width="64.722" height="64.722" transform="translate(177.714 2.022)" fill="#fff"/>
        <rect id="Rectángulo_51458" data-name="Rectángulo 51458" width="18.584" height="18.584" transform="translate(200.783 25.092)" fill="#e0e0e0"/>
        <rect id="Rectángulo_51459" data-name="Rectángulo 51459" width="2.898" height="68.748" transform="translate(172.793 0.019)" fill="#e0e0e0"/>
        <rect id="Rectángulo_51460" data-name="Rectángulo 51460" width="78.743" height="108.4" transform="translate(14.758 8.979)" fill="#e0e0e0"/>
        <rect id="Rectángulo_51461" data-name="Rectángulo 51461" width="81.316" height="108.4" transform="translate(19.685 8.979)" fill="#ebebeb"/>
        <rect id="Rectángulo_51462" data-name="Rectángulo 51462" width="65.825" height="92.455" transform="translate(27.416 16.558)" fill="#fafafa"/>
        <rect id="Rectángulo_51463" data-name="Rectángulo 51463" width="65.825" height="24.252" transform="translate(27.416 84.761)" fill="#f5f5f5"/>
        <path id="Trazado_237611" data-name="Trazado 237611" d="M608.045,72.742l-2.128,4.964s4.863,3.545,4.154,9.016-4.761,16.514-4.761,16.514H596.8s-4.255-15.4-4.153-17.932,3.748-7.5,3.748-7.5l-1.925-5.066s7.6-4.66,13.576,0" transform="translate(-554.986 -14.643)" fill="#e0e0e0"/>
        <path id="Trazado_237612" data-name="Trazado 237612" d="M589.875,91.286c1.644-1.483,3.688-3.328,4.364-5.84a3.338,3.338,0,0,0-.37-2.944,2.993,2.993,0,0,0-2.485-1.05,7.583,7.583,0,0,0-2.373.584l.389,1.046a6.6,6.6,0,0,1,2.018-.515,1.9,1.9,0,0,1,1.564.614,2.383,2.383,0,0,1,.178,1.974c-.591,2.193-2.5,3.916-4.034,5.3Z" transform="translate(-536.371 -16.877)" fill="#e0e0e0"/>
        <path id="Trazado_237613" data-name="Trazado 237613" d="M613.151,92.121l.831-.746a13.394,13.394,0,0,1-2.43-3.868,5.572,5.572,0,0,1-.491-1.928,2.421,2.421,0,0,1,.511-1.662,2.128,2.128,0,0,1,1.813-.658,3.172,3.172,0,0,1,1.884.96l.79-.789a4.289,4.289,0,0,0-2.561-1.282,3.264,3.264,0,0,0-2.77,1.037,3.5,3.5,0,0,0-.783,2.433,6.8,6.8,0,0,0,.573,2.313,14.509,14.509,0,0,0,2.632,4.189" transform="translate(-574.618 -17.018)" fill="#e0e0e0"/>
        <path id="Trazado_237614" data-name="Trazado 237614" d="M595.242,73.337a7.828,7.828,0,0,0,1.955.491,29.873,29.873,0,0,0,9.7.077,7.792,7.792,0,0,0,1.962-.459,12.958,12.958,0,0,0-2,.17,42.64,42.64,0,0,1-9.616-.076,12.946,12.946,0,0,0-2-.2" transform="translate(-555.759 -15.193)" fill="#ebebeb"/>
        <path id="Trazado_237615" data-name="Trazado 237615" d="M558.19,35.753c.822-1.125,4.749-2.546,6.124-2.772,6.124-1.009,12.527-1.11,18.421.839s11.232,6.159,13.534,11.924c1.187,2.971,1.557,6.264,3.109,9.062,1.972,3.558,5.577,5.856,8.318,8.861a22.086,22.086,0,0,1,1.158,28.384l-16.527.2c.405-6.5.388-13.144-1.548-19.361s-6.034-12.015-11.962-14.706c-6.225-2.826-14.131-2.144-20.9-1.176Z" transform="translate(-530.773 -6.687)" fill="#ebebeb"/>
        <path id="Trazado_237616" data-name="Trazado 237616" d="M545.258,20.886c-1.831,2.826.523,7.428,2.923,9.791s5.459,4.347,6.577,7.524-.023,6.708.524,10.028a9.941,9.941,0,0,0,13.9,7.443V20.886Z" transform="translate(-475.945 -4.328)" fill="#ebebeb"/>
        <path id="Trazado_237617" data-name="Trazado 237617" d="M580.163,96.491s-.9,1.257-.538,2.064,4.666,6.551,3.051,10.5a45.031,45.031,0,0,1-4.846,8.256H567.778s-4.949-7.807-4.845-10.41c.17-4.314,3.32-8.794,3.32-8.794l-.808-1.616s9.333-2.692,14.717,0" transform="translate(-504.324 -19.746)" fill="#e0e0e0"/>
        <path id="Trazado_237618" data-name="Trazado 237618" d="M544.533,113.287s.007-.155.011-.449.006-.736.011-1.3c0-1.154.013-2.848.022-5.049.012-4.413.029-10.851.051-19,.022-16.276.055-39.365.093-66.658l-.188.188,65.817.018h.008l-.207-.206c.015,34.629.029,66.656.04,92.455l.167-.167-47.855.087-13.274.043-3.49.019c-.791.006-1.206.018-1.206.018s.392.012,1.171.018l3.457.019,13.237.043,47.959.087h.167v-.167c.01-25.8.025-57.825.039-92.455v-.206h-.214l-65.817.018h-.188v.187c.038,27.343.07,50.475.093,66.781.022,8.126.039,14.549.051,18.952.01,2.184.017,3.866.022,5.011,0,.559.009.985.011,1.283s.011.427.011.427" transform="translate(-517.116 -4.274)" fill="#e0e0e0"/>
        <path id="Trazado_237619" data-name="Trazado 237619" d="M627.633,11.325a28.306,28.306,0,0,0,3.723,3.939,48,48,0,0,0,4.008,3.641,28.416,28.416,0,0,0-3.724-3.939,48.138,48.138,0,0,0-4.008-3.64" transform="translate(-607.948 -2.346)" fill="#e0e0e0"/>
        <path id="Trazado_237620" data-name="Trazado 237620" d="M542.583,11.294a37.394,37.394,0,0,0-4.161,3.66,37.389,37.389,0,0,0-3.878,3.96,37.245,37.245,0,0,0,4.161-3.66,37.317,37.317,0,0,0,3.878-3.96" transform="translate(-441.366 -2.34)" fill="#e0e0e0"/>
        <path id="Trazado_237621" data-name="Trazado 237621" d="M542.5,145.988a37.049,37.049,0,0,0-3.694-4.1,37.072,37.072,0,0,0-3.99-3.816,37,37,0,0,0,3.693,4.1,37.021,37.021,0,0,0,3.99,3.815" transform="translate(-441.499 -28.609)" fill="#e0e0e0"/>
        <path id="Trazado_237622" data-name="Trazado 237622" d="M627.57,145.983c.108.067,1.453-2.128,3.537-4.5s4.069-4,3.989-4.1a5.826,5.826,0,0,0-1.381.976,26.261,26.261,0,0,0-5.36,6.121,5.824,5.824,0,0,0-.786,1.5" transform="translate(-607.628 -28.467)" fill="#e0e0e0"/>
        <path id="Trazado_237623" data-name="Trazado 237623" d="M112.961,330.555v23.638H40.267V330.555Z" transform="translate(380.116 -68.494)" fill="#f5f5f5"/>
        <path id="Trazado_237624" data-name="Trazado 237624" d="M114.705,322.22v6.609H36.42V322.22h78.285Z" transform="translate(381.422 -66.766)" fill="#e0e0e0"/>
        <path id="Trazado_237625" data-name="Trazado 237625" d="M123.011,352.466h-36.6V328.828H83.869V322.22h40.668v6Z" transform="translate(333.973 -66.766)" fill="#e0e0e0"/>
        <rect id="Rectángulo_51464" data-name="Rectángulo 51464" width="14.742" height="3.558" transform="translate(468.168 265.874)" fill="#e0e0e0"/>
        <rect id="Rectángulo_51465" data-name="Rectángulo 51465" width="18.93" height="7.514" transform="translate(465.878 273.88)" fill="#fff"/>
        <path id="Trazado_237626" data-name="Trazado 237626" d="M0,339.852,1.527,16.107H7.794V79.863H23.986l.3-63.756h6.268V79.863h55.7l.3-63.756h6.268V79.863h16.144l.3-63.756h6.268V339.852h-7.8l.207-43.449H92.823v43.449H85.028l.205-43.449H30.555v43.449h-7.8l.2-43.449H7.794v43.449ZM100.795,253.5l5.6-24H94.9Zm-7.972-22.527v56.683l6.786-29.071Zm0-82.4,6.786-29.072L92.823,91.9Zm1.215,5.206h13.994l-7.177-29.207Zm6.758-39.363,6.414-27.485H94.04Zm1.245,5.071,6.613,26.909.265-56.383Zm6.209,112.477-6.209,26.6,5.97,24.289Zm-7.394,31.689-5.991,25.668h12.3Zm7.191-41.227.052-.22.2.045.289-61.4H92.823v61.572ZM85.871,160.861H30.555v61.572H85.581ZM16.263,124.578,9.447,153.786H23.441ZM23.68,144.84l.251-53.108-6.481,27.76ZM7.794,150.456l7.223-30.951L7.794,90.11Zm0,3.228v.1h.438Zm0,78.974V285.89l6.372-27.3ZM15.352,253.5l5.6-24H9.456ZM16.2,114.422,22.62,86.937H9.452Zm-8.41,46.439v61.572H22.6l.052-.22.656.153.291-61.5Zm8.8,97.714L23.019,284.7l.257-54.743Zm-1.185,5.085-5.99,25.668h12.3ZM30.555,86.937v66.848h55.35l.316-66.848Zm53.711,202.39h1l.283-59.821H30.555v59.821Z" transform="translate(409.464 -3.337)" fill="#e0e0e0"/>
        <rect id="Rectángulo_51466" data-name="Rectángulo 51466" width="10.354" height="48.256" transform="translate(444.873 102.472)" fill="#e0e0e0"/>
        <path id="Trazado_237627" data-name="Trazado 237627" d="M92.216,174.983a2.051,2.051,0,1,0,2.051-2.051,2.051,2.051,0,0,0-2.051,2.051" transform="translate(355.575 -35.833)" fill="#fafafa"/>
        <rect id="Rectángulo_51467" data-name="Rectángulo 51467" width="3.168" height="19.722" transform="translate(448.346 115.255)" fill="#fafafa"/>
        <rect id="Rectángulo_51468" data-name="Rectángulo 51468" width="10.354" height="48.256" transform="translate(455.392 102.472)" fill="#ebebeb"/>
        <path id="Trazado_237628" data-name="Trazado 237628" d="M78.947,174.983A2.051,2.051,0,1,0,81,172.932a2.051,2.051,0,0,0-2.051,2.051" transform="translate(379.362 -35.833)" fill="#fafafa"/>
        <rect id="Rectángulo_51469" data-name="Rectángulo 51469" width="3.168" height="19.722" transform="translate(458.864 115.255)" fill="#fafafa"/>
        <rect id="Rectángulo_51470" data-name="Rectángulo 51470" width="10.354" height="48.256" transform="translate(465.407 102.472)" fill="#f5f5f5"/>
        <path id="Trazado_237629" data-name="Trazado 237629" d="M66.314,174.983a2.051,2.051,0,1,0,2.051-2.051,2.051,2.051,0,0,0-2.051,2.051" transform="translate(402.01 -35.833)" fill="#e0e0e0"/>
        <rect id="Rectángulo_51471" data-name="Rectángulo 51471" width="3.168" height="19.722" transform="translate(468.879 115.255)" fill="#e0e0e0"/>
        <path id="Trazado_237630" data-name="Trazado 237630" d="M52.586,177.607,40.145,135.156l4.29-1.881,12.76,42.795Z" transform="translate(435.978 -27.615)" fill="#f5f5f5"/>
        <path id="Trazado_237631" data-name="Trazado 237631" d="M74.478,274.448v-7.307H22.872l-.165,7.307Z" transform="translate(432.52 -55.354)" fill="#f5f5f5"/>
        <path id="Trazado_237632" data-name="Trazado 237632" d="M25.429,268.647s45.77.337,48.733,1.035c.638.151,1.286,2.96,0,3.218s-48.733.643-48.733.643Z" transform="translate(429.936 -55.666)" fill="#fff"/>
        <path id="Trazado_237633" data-name="Trazado 237633" d="M71.282,264.868v-7.307H30.4l-.131,7.307Z" transform="translate(429.721 -53.369)" fill="#ebebeb"/>
        <path id="Trazado_237634" data-name="Trazado 237634" d="M32.426,259.066s36.257.337,38.6,1.034c.506.151,1.02,2.96,0,3.219s-38.6.644-38.6.644Z" transform="translate(427.676 -53.68)" fill="#fafafa"/>
        <path id="Trazado_237635" data-name="Trazado 237635" d="M71.049,255.763v-7.306H30.17l-.13,7.306Z" transform="translate(430.135 -51.482)" fill="#e0e0e0"/>
        <path id="Trazado_237636" data-name="Trazado 237636" d="M32.2,249.961S68.452,250.3,70.8,251c.507.15,1.021,2.96,0,3.217s-38.6.644-38.6.644Z" transform="translate(428.088 -51.794)" fill="#fafafa"/>
        <rect id="Rectángulo_51472" data-name="Rectángulo 51472" width="10.355" height="48.256" transform="translate(440.226 29.203)" fill="#f5f5f5"/>
        <path id="Trazado_237637" data-name="Trazado 237637" d="M98.076,82.564a2.051,2.051,0,1,0,2.051-2.051,2.051,2.051,0,0,0-2.051,2.051" transform="translate(345.069 -16.683)" fill="#e0e0e0"/>
        <rect id="Rectángulo_51473" data-name="Rectángulo 51473" width="3.168" height="19.722" transform="translate(443.7 41.987)" fill="#e0e0e0"/>
        <rect id="Rectángulo_51474" data-name="Rectángulo 51474" width="10.352" height="48.256" transform="translate(450.745 29.203)" fill="#ebebeb"/>
        <path id="Trazado_237638" data-name="Trazado 237638" d="M84.809,82.564a2.051,2.051,0,1,0,2.049-2.051,2.05,2.05,0,0,0-2.049,2.051" transform="translate(368.854 -16.683)" fill="#fafafa"/>
        <rect id="Rectángulo_51475" data-name="Rectángulo 51475" width="3.166" height="19.722" transform="translate(454.218 41.987)" fill="#fafafa"/>
        <rect id="Rectángulo_51476" data-name="Rectángulo 51476" width="10.354" height="48.256" transform="translate(460.761 29.203)" fill="#e0e0e0"/>
        <path id="Trazado_237639" data-name="Trazado 237639" d="M72.174,82.564a2.051,2.051,0,1,0,2.051-2.051,2.051,2.051,0,0,0-2.051,2.051" transform="translate(391.504 -16.683)" fill="#fafafa"/>
        <rect id="Rectángulo_51477" data-name="Rectángulo 51477" width="3.168" height="19.722" transform="translate(464.233 41.987)" fill="#fafafa"/>
      </g>
    </g>
    <g id="Grupo_165520" data-name="Grupo 165520">
      <g id="Grupo_165519" data-name="Grupo 165519" clip-path="url(#clip-path)">
        <path id="Trazado_237640" data-name="Trazado 237640" d="M2.209,424.5c0,.114,117.142.206,261.612.206,144.519,0,261.637-.092,261.637-.206s-117.118-.206-261.637-.206c-144.47,0-261.612.092-261.612.206" transform="translate(-2.209 -87.916)" fill="#263238"/>
      </g>
    </g>
    <path id="Trazado_237641" data-name="Trazado 237641" d="M198.989,253.175l-35.531,135.7H151.972l34.824-136.5Z" transform="translate(205.529 -52.293)" fill="#455a64"/>
    <path id="Trazado_237642" data-name="Trazado 237642" d="M123,391.154,104.2,263.373l-10.8.312,16.148,127.468Z" transform="translate(327.957 -54.573)" fill="#455a64"/>
    <path id="Trazado_237643" data-name="Trazado 237643" d="M45.831,276.032,86.237,393.776H73.228L38.05,287.01Z" transform="translate(408.597 -57.196)" fill="#455a64"/>
    <g id="Grupo_165537" data-name="Grupo 165537">
      <g id="Grupo_165562" data-name="Grupo 165562">
        <path id="Trazado_237644" data-name="Trazado 237644" d="M64.622,209.946c-13.837,40.766-7.874,79.447,18.838,88.514s64.056-14.913,77.894-55.679,3.4-81.164-23.311-90.231-59.583,16.63-73.421,57.4" transform="translate(312.016 -31.232)" fill="#ff725e"/>
        <g id="Grupo_165523" data-name="Grupo 165523" transform="translate(369.426 119.498)" opacity="0.3">
          <g id="Grupo_165522" data-name="Grupo 165522">
            <g id="Grupo_165521" data-name="Grupo 165521" clip-path="url(#clip-path-3)">
              <path id="Trazado_237645" data-name="Trazado 237645" d="M64.622,209.946c-13.837,40.766-7.874,79.447,18.838,88.514s64.056-14.913,77.894-55.679,3.4-81.164-23.311-90.231-59.583,16.63-73.421,57.4" transform="translate(-57.41 -150.73)" fill="#a3314f"/>
            </g>
          </g>
        </g>
        <path id="Trazado_237646" data-name="Trazado 237646" d="M77.584,205.043c-13.706,40.378-3.162,80.461,23.549,89.529s59.477-16.316,73.183-56.694,3.162-80.461-23.549-89.528S91.29,164.665,77.584,205.043" transform="translate(287.931 -30.358)" fill="#a3314f"/>
        <path id="Trazado_237647" data-name="Trazado 237647" d="M91.5,209.99c-11.553,34.038-3.444,67.562,18.113,74.879s48.4-14.344,59.952-48.381,3.445-67.563-18.112-74.879-48.4,14.343-59.953,48.381" transform="translate(281.8 -33.192)" fill="#fafafa"/>
        <path id="Trazado_237648" data-name="Trazado 237648" d="M104.177,215.968c-9.335,27.5-3.327,54.4,13.42,60.087s37.891-12,47.225-39.5,3.327-54.4-13.42-60.088-37.89,12-47.225,39.5" transform="translate(276.675 -36.345)" fill="#a3314f"/>
        <path id="Trazado_237649" data-name="Trazado 237649" d="M118.2,220.594c-6.212,18.3-2.072,36.252,9.248,40.095s25.531-7.88,31.743-26.18,2.072-36.253-9.248-40.095-25.531,7.879-31.743,26.18" transform="translate(271.507 -40.133)" fill="#fafafa"/>
        <path id="Trazado_237650" data-name="Trazado 237650" d="M131.121,227.937c-3.636,10.711-1.669,21.063,4.394,23.121s13.924-4.957,17.56-15.669,1.669-21.064-4.394-23.121-13.925,4.957-17.56,15.669" transform="translate(267.595 -43.909)" fill="#a3314f"/>
        <path id="Trazado_237651" data-name="Trazado 237651" d="M77.441,205s.134-.331.374-.983.6-1.628,1.065-2.9c1.006-2.517,2.477-6.241,4.8-10.838a107.214,107.214,0,0,1,9.865-15.922,83.757,83.757,0,0,1,17.5-17.47,58.022,58.022,0,0,1,12.555-7.018c1.149-.505,2.365-.863,3.568-1.291l1.854-.522c.617-.187,1.249-.332,1.888-.458a37.7,37.7,0,0,1,7.877-.936c.672.01,1.351-.043,2.028.017l2.043.132a37.312,37.312,0,0,1,4.085.671,33.261,33.261,0,0,1,7.971,2.829,37.908,37.908,0,0,1,13.318,11.423,55.439,55.439,0,0,1,8.258,16.611,81.356,81.356,0,0,1,2.239,9.365,94.507,94.507,0,0,1,1.1,9.76A111.886,111.886,0,0,1,154.1,273.3a94.436,94.436,0,0,1-6.814,7.076,81.319,81.319,0,0,1-7.479,6.068,55.416,55.416,0,0,1-16.664,8.154,37.92,37.92,0,0,1-17.524.956,33.256,33.256,0,0,1-8.045-2.61,37.092,37.092,0,0,1-3.65-1.954l-1.7-1.139c-.574-.365-1.081-.82-1.62-1.222a37.672,37.672,0,0,1-5.68-5.538,19.216,19.216,0,0,1-1.219-1.513l-1.154-1.542c-.694-1.073-1.441-2.1-2.044-3.2a58.014,58.014,0,0,1-5.687-13.211,83.718,83.718,0,0,1-3.251-24.514,107.207,107.207,0,0,1,1.865-18.636c.957-5.06,2.056-8.91,2.791-11.518.4-1.289.709-2.274.917-2.944s.3-1.008.3-1.008-.121.335-.34.994l-.958,2.934c-.761,2.6-1.885,6.449-2.868,11.512a106.214,106.214,0,0,0-1.939,18.664,83.669,83.669,0,0,0,3.2,24.6A58.248,58.248,0,0,0,80.232,277c.606,1.108,1.356,2.141,2.052,3.222l1.16,1.555c.378.529.793,1.033,1.226,1.526a38.044,38.044,0,0,0,5.72,5.594c.545.407,1.054.866,1.634,1.236l1.715,1.152a37.511,37.511,0,0,0,3.686,1.98,33.613,33.613,0,0,0,8.126,2.646,38.25,38.25,0,0,0,17.694-.946,55.774,55.774,0,0,0,16.789-8.2,81.619,81.619,0,0,0,7.523-6.1,94.841,94.841,0,0,0,6.849-7.107,112.186,112.186,0,0,0,25.831-76.106,95,95,0,0,0-1.109-9.805,81.6,81.6,0,0,0-2.257-9.414,55.793,55.793,0,0,0-8.327-16.721,38.282,38.282,0,0,0-13.462-11.521,33.593,33.593,0,0,0-8.057-2.849,37.712,37.712,0,0,0-4.128-.673l-2.062-.13c-.685-.059-1.369-.006-2.049-.014a38.024,38.024,0,0,0-7.942.955,19.515,19.515,0,0,0-1.9.465l-1.865.528c-1.211.434-2.435.8-3.59,1.306a58.231,58.231,0,0,0-12.607,7.077A83.71,83.71,0,0,0,93.36,174.225a106.322,106.322,0,0,0-9.823,15.988c-2.3,4.616-3.753,8.353-4.734,10.881l-1.027,2.911c-.228.656-.335,1-.335,1" transform="translate(288.073 -30.317)" fill="#263238"/>
        <g id="Grupo_165526" data-name="Grupo 165526" transform="translate(359.516 178.847)" opacity="0.3">
          <g id="Grupo_165525" data-name="Grupo 165525">
            <g id="Grupo_165524" data-name="Grupo 165524" clip-path="url(#clip-path-4)">
              <path id="Trazado_237652" data-name="Trazado 237652" d="M171.321,225.591l27.979,7.325-36.1,24.816s.621-18.275,3.386-28.9Z" transform="translate(-163.201 -225.591)"/>
            </g>
          </g>
        </g>
        <g id="Grupo_165529" data-name="Grupo 165529" transform="translate(452.264 236.726)" opacity="0.3">
          <g id="Grupo_165528" data-name="Grupo 165528">
            <g id="Grupo_165527" data-name="Grupo 165527" clip-path="url(#clip-path-5)">
              <path id="Trazado_237653" data-name="Trazado 237653" d="M88.979,305.268l-8.243,10.595-2.35-7.132,8.3-10.133Z" transform="translate(-78.386 -298.598)"/>
            </g>
          </g>
        </g>
        <g id="Grupo_165532" data-name="Grupo 165532" transform="translate(428.346 257.979)" opacity="0.3">
          <g id="Grupo_165531" data-name="Grupo 165531">
            <g id="Grupo_165530" data-name="Grupo 165530" clip-path="url(#clip-path-6)">
              <path id="Trazado_237654" data-name="Trazado 237654" d="M118.86,330.314s-4.482,5.446-11.178,5.441l-.513-4.046a69.675,69.675,0,0,0,11.043-6.3Z" transform="translate(-107.169 -325.405)"/>
            </g>
          </g>
        </g>
        <g id="Grupo_165535" data-name="Grupo 165535" transform="translate(376.167 257.696)" opacity="0.3">
          <g id="Grupo_165534" data-name="Grupo 165534">
            <g id="Grupo_165533" data-name="Grupo 165533" clip-path="url(#clip-path-7)">
              <path id="Trazado_237655" data-name="Trazado 237655" d="M183.247,336.49l1.386-5.293s-7.47-2.783-10.406-6.149l-1.46,5.721s5.037,5.24,10.48,5.721" transform="translate(-172.768 -325.048)"/>
            </g>
          </g>
        </g>
      </g>
    </g>
    <path id="Trazado_237656" data-name="Trazado 237656" d="M538.483,357.878,514.318,374.1l-7.6-10.082,22.676-20.028Z" transform="translate(-415.205 -71.277)" fill="#bc8f86"/>
    <g id="Grupo_165557" data-name="Grupo 165557">
      <g id="Grupo_165561" data-name="Grupo 165561">
        <path id="Trazado_237657" data-name="Trazado 237657" d="M546.243,376.549l-.663.515s4.166,14.763,2.12,16.532l-17.147-22.469,7.71-5.4a16.171,16.171,0,0,0,7.979,10.822" transform="translate(-443.885 -75.781)" fill="#a3314f"/>
        <path id="Trazado_237658" data-name="Trazado 237658" d="M545.245,370.841a1.155,1.155,0,0,0-1.532.165,1.109,1.109,0,0,0,.151,1.519,1.217,1.217,0,0,0,1.621-.183,1.15,1.15,0,0,0-.331-1.563" transform="translate(-451.52 -76.796)" fill="#fff"/>
        <path id="Trazado_237659" data-name="Trazado 237659" d="M530.6,372.2l1.854-1.3,15.755,22.011s.328,1.333-.463,1.758Z" transform="translate(-443.929 -76.853)" fill="#263238"/>
        <path id="Trazado_237660" data-name="Trazado 237660" d="M536.745,379.848c-.113.08-.581-.431-1.345-.7-.758-.291-1.445-.207-1.479-.341-.056-.117.725-.454,1.645-.11s1.3,1.1,1.18,1.152" transform="translate(-435.053 -78.437)" fill="#263238"/>
        <path id="Trazado_237661" data-name="Trazado 237661" d="M535.686,383.909c-.087.106-.637-.227-1.385-.245-.748-.04-1.322.248-1.4.136-.1-.09.489-.656,1.419-.616s1.469.643,1.366.725" transform="translate(-433.169 -79.398)" fill="#263238"/>
        <path id="Trazado_237662" data-name="Trazado 237662" d="M531.983,388.271c-.1-.082.332-.653,1.148-.829s1.447.154,1.391.27c-.043.131-.619.044-1.287.2-.671.14-1.158.461-1.251.361" transform="translate(-431.266 -80.27)" fill="#263238"/>
        <path id="Trazado_237663" data-name="Trazado 237663" d="M430.271,378.2l1.958,29.036L419.7,408.779l-6-29.653Z" transform="translate(-235.206 -78.367)" fill="#bc8f86"/>
        <path id="Trazado_237664" data-name="Trazado 237664" d="M407.713,409.991l.115.832s14.867,3.776,15.376,6.433l-28.033,3.61-.82-9.378a16.168,16.168,0,0,0,13.362-1.5" transform="translate(-210.842 -84.953)" fill="#a3314f"/>
        <path id="Trazado_237665" data-name="Trazado 237665" d="M425.471,415.158a1.154,1.154,0,0,0-.623,1.408,1.109,1.109,0,0,0,1.391.63,1.217,1.217,0,0,0,.652-1.494,1.152,1.152,0,0,0-1.52-.5" transform="translate(-238.74 -86.006)" fill="#fff"/>
        <path id="Trazado_237666" data-name="Trazado 237666" d="M394.547,422.43l-.2-2.255,26.941-2.634s1.318.382,1.29,1.28Z" transform="translate(-210.218 -86.517)" fill="#263238"/>
        <path id="Trazado_237667" data-name="Trazado 237667" d="M415.971,411.1c.013.137-.664.288-1.28.814-.63.511-.9,1.149-1.034,1.111-.13-.01-.032-.855.727-1.479s1.6-.575,1.587-.446" transform="translate(-218.877 -85.166)" fill="#263238"/>
        <path id="Trazado_237668" data-name="Trazado 237668" d="M411.333,412.168c.048.128-.515.438-.905,1.077-.409.627-.446,1.268-.583,1.28-.125.038-.323-.752.177-1.536s1.291-.951,1.311-.821" transform="translate(-211.141 -85.396)" fill="#263238"/>
        <path id="Trazado_237669" data-name="Trazado 237669" d="M406.263,415.695c-.121.045-.4-.614-.144-1.409s.857-1.176.93-1.069c.091.1-.273.558-.472,1.215-.215.651-.18,1.233-.314,1.264" transform="translate(-203.949 -85.618)" fill="#263238"/>
        <path id="Trazado_237670" data-name="Trazado 237670" d="M512.4,74.661a5.7,5.7,0,0,0-4.392-4.329,11.3,11.3,0,0,0-6.411.647,15.313,15.313,0,0,0-6.17,3.838,9.282,9.282,0,0,0-2.606,6.649c.122,2.289,1.264,4.586.626,6.787a7.871,7.871,0,0,1-3.319,3.9,14.121,14.121,0,0,0-3.912,3.411c-.955,1.456-1.112,3.622.178,4.791,1.148,1.041,3.208,1.159,3.691,2.631.3.913-.209,1.867-.49,2.786a7.262,7.262,0,0,0,.939,5.84,12.228,12.228,0,0,0,4.475,4.046c3.1,1.753,6.972,2.571,10.249,1.173a9.862,9.862,0,0,0,4.039-3.318,15.644,15.644,0,0,0,2.673-8.266,46.657,46.657,0,0,0-.568-8.773" transform="translate(-372.268 -14.526)" fill="#263238"/>
        <path id="Trazado_237671" data-name="Trazado 237671" d="M497.67,110.846a9.025,9.025,0,0,1-11.423-8.9c.06-2.615,1.242-5.28.43-7.767-.559-1.708-1.99-3.038-2.47-4.769-.717-2.585.846-5.2,2.338-7.424a17.38,17.38,0,0,1,3.269-3.967A5.871,5.871,0,0,1,494.6,76.6" transform="translate(-356.403 -15.853)" fill="#263238"/>
        <path id="Trazado_237672" data-name="Trazado 237672" d="M455.669,76.915c-.146,1.974,1.158,3.738,2.472,5.219s2.775,3.025,3.059,4.983c.5,3.472-2.9,6.7-2.2,10.133.376,1.842,1.884,3.323,2.153,5.183a6.438,6.438,0,0,1-1.9,4.932c-1.2,1.371-2.653,2.513-3.71,3.993,0,0-2.2,3.613-8.982,1.3" transform="translate(-290.285 -15.937)" fill="#263238"/>
        <path id="Trazado_237673" data-name="Trazado 237673" d="M454.122,77.484c-.052-1.79,1.6-3.174,3.272-3.83s3.519-.9,5-1.9a23.873,23.873,0,0,0,3.314-3.4,11.025,11.025,0,0,1,18.543,5.059c.641,2.55.2,5.565-1.807,7.26-2.332,1.966-5.791,1.529-8.78.918s-6.372-1.215-8.868.54c-1.5,1.058-2.368,2.78-3.288,4.375s-2.075,3.22-3.815,3.82-4.1-.436-4.17-2.275" transform="translate(-319.083 -13.487)" fill="#263238"/>
        <path id="Trazado_237674" data-name="Trazado 237674" d="M454.024,80.119a3,3,0,0,0-2.674,3.045l1.788,40.463c.074,4.779,7.06,7.464,12.177,7.345,5.167-.12,5.334-2.654,5.4-7.2.108-7.6.1-10.447.1-10.4,0,0,6.527-1.1,7.86-9.62.664-4.237.435-11.183.065-16.86-.334-5.11-3.733-11.372-8.824-10.822Z" transform="translate(-311.923 -15.754)" fill="#bc8f86"/>
        <path id="Trazado_237675" data-name="Trazado 237675" d="M455.881,96.54a1.092,1.092,0,0,1-1.051,1.1,1.044,1.044,0,0,1-1.128-.982,1.092,1.092,0,0,1,1.05-1.105,1.045,1.045,0,0,1,1.13.983" transform="translate(-290.573 -19.8)" fill="#263238"/>
        <path id="Trazado_237676" data-name="Trazado 237676" d="M457.645,92.826c-.136.143-.964-.468-2.14-.462-1.174-.011-2.036.6-2.164.452-.063-.063.075-.321.45-.6a3,3,0,0,1,1.731-.538,2.878,2.878,0,0,1,1.7.546c.362.277.485.534.419.6" transform="translate(-292.057 -18.997)" fill="#263238"/>
        <path id="Trazado_237677" data-name="Trazado 237677" d="M469.654,96.8a1.091,1.091,0,0,1-1.05,1.1,1.045,1.045,0,0,1-1.129-.982,1.093,1.093,0,0,1,1.05-1.105,1.045,1.045,0,0,1,1.129.983" transform="translate(-315.265 -19.854)" fill="#263238"/>
        <path id="Trazado_237678" data-name="Trazado 237678" d="M472.563,93.561c-.136.143-.966-.468-2.141-.462-1.174-.011-2.036.6-2.164.452-.063-.063.074-.321.45-.6a2.992,2.992,0,0,1,1.731-.538,2.88,2.88,0,0,1,1.7.546c.361.276.484.534.419.6" transform="translate(-318.801 -19.149)" fill="#263238"/>
        <path id="Trazado_237679" data-name="Trazado 237679" d="M459.657,103.02a7.772,7.772,0,0,1,1.908-.349c.3-.032.584-.092.634-.3a1.522,1.522,0,0,0-.2-.89L461.1,99.2a39.427,39.427,0,0,1-2.007-5.974,39.214,39.214,0,0,1,2.483,5.8q.448,1.2.856,2.3a1.737,1.737,0,0,1,.158,1.177.748.748,0,0,1-.492.44,2,2,0,0,1-.51.072,7.63,7.63,0,0,1-1.935.007" transform="translate(-301.609 -19.317)" fill="#263238"/>
        <path id="Trazado_237680" data-name="Trazado 237680" d="M473.212,122.336a21.668,21.668,0,0,1-11.415-3.018s2.891,5.851,11.415,5.035Z" transform="translate(-314.321 -24.724)" fill="#7f473d"/>
        <path id="Trazado_237681" data-name="Trazado 237681" d="M472.972,90.024c-.115.319-1.289.171-2.668.34-1.383.142-2.494.548-2.677.262-.082-.137.111-.438.56-.748a4.678,4.678,0,0,1,4.073-.459c.507.2.762.453.713.606" transform="translate(-318.695 -18.472)" fill="#263238"/>
        <path id="Trazado_237682" data-name="Trazado 237682" d="M458.066,89.52c-.234.267-1.153-.008-2.257-.018-1.1-.044-2.039.184-2.255-.1-.1-.135.052-.4.46-.656a3.441,3.441,0,0,1,1.834-.442,3.4,3.4,0,0,1,1.8.533c.391.274.519.548.416.679" transform="translate(-292.652 -18.298)" fill="#263238"/>
        <path id="Trazado_237683" data-name="Trazado 237683" d="M460.447,107.67a7.565,7.565,0,0,0,9-8.365c-.265-2.092-1.393-4.221-.667-6.2.958-2.618,4.628-3.423,5.6-6.036.566-1.518.058-3.294.7-4.782a5.68,5.68,0,0,1,3.509-2.723,14.668,14.668,0,0,0,4.173-1.811c1.2-.935,1.953-2.7,1.177-4.012a80.673,80.673,0,0,0-18.614,4.523,7.179,7.179,0,0,0-3.673,2.378c-.87,1.307-.828,3-.755,4.566q.535,11.473,1.071,22.947" transform="translate(-324.294 -15.279)" fill="#263238"/>
        <path id="Trazado_237684" data-name="Trazado 237684" d="M460.493,79.509a.674.674,0,0,0-.142.349,1.3,1.3,0,0,0,.328,1.024,2.138,2.138,0,0,0,1.525.77,4.9,4.9,0,0,0,2.158-.645,5.991,5.991,0,0,1,2.486-.733,12.864,12.864,0,0,1,3.007.274,20.306,20.306,0,0,0,3.4.438,4.9,4.9,0,0,0,3.489-1.274,10.1,10.1,0,0,0,2.008-3.115,15.6,15.6,0,0,1,1.626-2.923,4.775,4.775,0,0,1,4.916-1.794,4.991,4.991,0,0,1,2.966,2.194,11.805,11.805,0,0,1,.624,1.263,1.069,1.069,0,0,0-.064-.367,4.617,4.617,0,0,0-.412-.983,5.031,5.031,0,0,0-3.035-2.409,4.976,4.976,0,0,0-2.737.054,5.113,5.113,0,0,0-2.578,1.791,15.617,15.617,0,0,0-1.7,2.987,9.842,9.842,0,0,1-1.919,2.979,4.483,4.483,0,0,1-3.188,1.163,20.6,20.6,0,0,1-3.331-.407,12.955,12.955,0,0,0-3.1-.237,6.228,6.228,0,0,0-2.6.818,4.829,4.829,0,0,1-2.015.68,1.985,1.985,0,0,1-1.4-.637,1.255,1.255,0,0,1-.37-.9c.01-.232.078-.348.053-.358" transform="translate(-328.842 -14.797)" fill="#455a64"/>
        <path id="Trazado_237685" data-name="Trazado 237685" d="M485.843,81.262a13.456,13.456,0,0,1,9.138-5.247,3.993,3.993,0,0,0-1.621.019,10.585,10.585,0,0,0-6.682,3.837,4.019,4.019,0,0,0-.834,1.391" transform="translate(-355.151 -15.738)" fill="#455a64"/>
        <path id="Trazado_237686" data-name="Trazado 237686" d="M459.022,74.052c-.013.008.028.093.12.251a2.57,2.57,0,0,0,.548.579,3.725,3.725,0,0,0,2.819.626,7.1,7.1,0,0,0,3.687-2.2,19.519,19.519,0,0,1,3.789-3.459,6.7,6.7,0,0,1,4.89-.622,6.446,6.446,0,0,1,3.413,2.211,7.084,7.084,0,0,1,1.3,2.479c.185.644.221,1.019.259,1.015.015,0,.018-.1.012-.275a4.518,4.518,0,0,0-.107-.781,6.755,6.755,0,0,0-4.775-5.036,7,7,0,0,0-5.2.631,18.787,18.787,0,0,0-3.859,3.554,6.964,6.964,0,0,1-3.457,2.179,3.667,3.667,0,0,1-2.668-.462,5.306,5.306,0,0,1-.766-.691" transform="translate(-318.769 -14.215)" fill="#455a64"/>
        <path id="Trazado_237687" data-name="Trazado 237687" d="M496.965,113.276a1.153,1.153,0,0,1-.379.1,6.69,6.69,0,0,1-1.119.113,8.71,8.71,0,0,1-4.029-.908,9.318,9.318,0,0,1-4.293-4.341,10.735,10.735,0,0,1-.728-7.423,21.4,21.4,0,0,0,.749-3.732,5.926,5.926,0,0,0-.843-3.31A12.114,12.114,0,0,1,485,90.762a7.1,7.1,0,0,1-.083-2.889,7.612,7.612,0,0,1,1.759-3.732,5.55,5.55,0,0,1,.818-.775c.207-.154.32-.227.331-.212.032.038-.4.362-1,1.113a7.8,7.8,0,0,0-1.558,3.663,6.834,6.834,0,0,0,.137,2.733,12.013,12.013,0,0,0,1.323,2.9,8.762,8.762,0,0,1,.717,1.656,5.889,5.889,0,0,1,.208,1.894,21.069,21.069,0,0,1-.752,3.824,10.4,10.4,0,0,0,.655,7.1,9.107,9.107,0,0,0,7.9,5.255c.958.029,1.49-.067,1.5-.021" transform="translate(-356.32 -17.229)" fill="#455a64"/>
        <path id="Trazado_237688" data-name="Trazado 237688" d="M493,73.312a2.815,2.815,0,0,1,1.454-.752,5.709,5.709,0,0,1,6.744,3.094,2.812,2.812,0,0,1,.378,1.593c-.082.019-.212-.59-.7-1.428a5.888,5.888,0,0,0-6.345-2.911c-.951.181-1.5.479-1.536.4" transform="translate(-367.442 -14.991)" fill="#455a64"/>
        <path id="Trazado_237689" data-name="Trazado 237689" d="M507.34,79.192a5.2,5.2,0,0,1,.036-.554,2.849,2.849,0,0,0-.375-1.5,4.109,4.109,0,0,0-1.766-1.658,3.688,3.688,0,0,0-3.116-.079,5.746,5.746,0,0,0-2.785,2.667,8.577,8.577,0,0,0-.867,4.415,29.374,29.374,0,0,0,.8,5.048,21.367,21.367,0,0,1,.653,5.551,16.74,16.74,0,0,1-1.442,5.408,46.8,46.8,0,0,0-1.853,4.785,10.514,10.514,0,0,0-.386,4.524,13.308,13.308,0,0,0,1.182,3.813,30.449,30.449,0,0,0,3.124,4.947l.961,1.28a2.416,2.416,0,0,1,.313.465,2.312,2.312,0,0,1-.392-.4c-.244-.274-.6-.683-1.037-1.223a27.518,27.518,0,0,1-3.29-4.912,13.467,13.467,0,0,1-1.276-3.91,10.849,10.849,0,0,1,.354-4.71,45.345,45.345,0,0,1,1.842-4.846,16.436,16.436,0,0,0,1.4-5.248c.155-3.739-1.36-7.2-1.413-10.556a8.954,8.954,0,0,1,.964-4.63,6.091,6.091,0,0,1,3.022-2.8,3.978,3.978,0,0,1,3.377.159,4.235,4.235,0,0,1,1.812,1.82,2.786,2.786,0,0,1,.3,1.593,1.824,1.824,0,0,1-.137.547" transform="translate(-375.486 -15.493)" fill="#455a64"/>
        <path id="Trazado_237690" data-name="Trazado 237690" d="M467.142,108.816a5.675,5.675,0,0,1-.732,1.435,1.907,1.907,0,0,1-1.355.786,1.712,1.712,0,0,1-1.447-.789,2.732,2.732,0,0,1-.4-1.645c.024-.519.261-1.138.777-1.2a1.292,1.292,0,0,1,.626.139l2.71,1.1" transform="translate(-309.539 -22.254)" fill="#7f473d"/>
        <path id="Trazado_237691" data-name="Trazado 237691" d="M465.773,110.971a3.912,3.912,0,0,1-1.445-.178,2.072,2.072,0,0,1-1.092-.993,2.179,2.179,0,0,1-.036-1.773,1.994,1.994,0,0,1,.236-.405c.108-.113.088-.107.2-.09s.289.114.434.17l.445.182c.58.235,1.105.439,1.549.6a4.93,4.93,0,0,0,1.475.445,4.9,4.9,0,0,0-1.341-.759c-.427-.206-.937-.444-1.508-.7l-.438-.2a5.05,5.05,0,0,0-.495-.2.634.634,0,0,0-.4.012.736.736,0,0,0-.3.236,2.287,2.287,0,0,0-.3.514,2.538,2.538,0,0,0,.082,2.167,2.318,2.318,0,0,0,1.376,1.112,2.181,2.181,0,0,0,1.173.045c.27-.071.4-.163.385-.189" transform="translate(-309.253 -22.181)" fill="#263238"/>
        <path id="Trazado_237692" data-name="Trazado 237692" d="M447.7,293.726l5.07-40.666c-3.3-7.708-4.5-15.4-3.534-20.188-.057.5-.083,1.12.053-.284.821-8.469,8.133-14.694,8.133-14.694l2.447-10.274,31.311,4.4L490,229.222l19.656,63.865,4.589,69.032-16.7,1.869s-6.375-31.339-8.1-43.941a174.116,174.116,0,0,1-1.625-20.624l-15.375-23c-1.819,9.5-3.877,21.213-4.937,27.328a16.047,16.047,0,0,1-3.409,7.443l-40.229,31.663-9.609-12.479c3.833-9.135,33.451-36.652,33.451-36.652" transform="translate(-317.66 -43.02)" fill="#263238"/>
        <path id="Trazado_237693" data-name="Trazado 237693" d="M445.937,226.08a7.107,7.107,0,0,0,.654-1.7,30.612,30.612,0,0,0,1.314-8.686,7.115,7.115,0,0,0-.12-1.821,10.512,10.512,0,0,0-.155,1.812c-.069,1.116-.2,2.656-.453,4.341s-.587,3.193-.851,4.28a10.578,10.578,0,0,0-.389,1.777" transform="translate(-276.433 -44.315)" fill="#455a64"/>
        <path id="Trazado_237694" data-name="Trazado 237694" d="M451.308,214.458c.009-.018-.12-.118-.4-.181a1.95,1.95,0,0,0-2.265,1.637,2.113,2.113,0,0,0,1,1.972,1.945,1.945,0,0,0,2.193-.2,1.892,1.892,0,0,0,.74-1.647,2.931,2.931,0,0,0-.35-1.15c-.132-.247-.229-.369-.251-.358s.026.159.113.417a3.55,3.55,0,0,1,.215,1.1,1.637,1.637,0,0,1-.684,1.354,1.611,1.611,0,0,1-1.776.151,1.8,1.8,0,0,1-.843-1.608,1.611,1.611,0,0,1,.836-1.253,2.363,2.363,0,0,1,1.475-.235" transform="translate(-283.253 -44.393)" fill="#455a64"/>
        <path id="Trazado_237695" data-name="Trazado 237695" d="M459.2,223.86a1.778,1.778,0,0,0,.55.228,8.517,8.517,0,0,0,1.582.358,11.571,11.571,0,0,0,2.411.085,12.45,12.45,0,0,0,5.6-1.777,11.532,11.532,0,0,0,1.922-1.46,8.6,8.6,0,0,0,1.087-1.2c.226-.309.339-.487.318-.5-.057-.045-.568.629-1.588,1.5a13.169,13.169,0,0,1-1.92,1.356,13.255,13.255,0,0,1-5.446,1.727,13.156,13.156,0,0,1-2.351,0c-1.338-.126-2.144-.383-2.164-.312" transform="translate(-311.73 -45.499)" fill="#455a64"/>
        <path id="Trazado_237696" data-name="Trazado 237696" d="M447.592,263.688a3.32,3.32,0,0,0,.341.478l1.032,1.32c.868,1.169,2.124,2.86,3.633,4.984,3.022,4.242,7.1,10.17,11.569,16.746l11.4,16.871,3.462,5.108.955,1.38a3.283,3.283,0,0,0,.355.467,3.284,3.284,0,0,0-.289-.511q-.337-.533-.894-1.42l-3.359-5.177c-2.857-4.358-6.839-10.357-11.308-16.936s-8.586-12.484-11.668-16.689c-1.538-2.1-2.83-3.774-3.736-4.916l-1.092-1.278a3.311,3.311,0,0,0-.4-.427" transform="translate(-310.186 -54.638)" fill="#455a64"/>
        <path id="Trazado_237697" data-name="Trazado 237697" d="M492.2,142.644c-.066,0-.063-.823-.284-2.118a14.735,14.735,0,0,0-1.72-4.786,8.071,8.071,0,0,0-3.491-3.553,4.847,4.847,0,0,0-2.049-.327,1.168,1.168,0,0,1,.565-.155,3.493,3.493,0,0,1,1.59.22,7.808,7.808,0,0,1,3.731,3.616,13.168,13.168,0,0,1,1.652,4.944,6.327,6.327,0,0,1,0,2.16" transform="translate(-351.504 -27.286)" fill="#263238"/>
        <path id="Trazado_237698" data-name="Trazado 237698" d="M456.646,129.451l15.857,2.458,9.866,13a28.509,28.509,0,0,1,5.723,18.184,32.176,32.176,0,0,1-2.462,9.785l2.476,18.623c.366,2.139-1.023,4.192-1.957,4.192l-29.712-3.985c-3.874-.761-5.464-2.786-5.224-5.027l.442-4.15-9.8-41.89c-.752,2.512-.316-8.085,5.35-10.168a17.2,17.2,0,0,1,9.439-1.022" transform="translate(-313.245 -26.764)" fill="#a3314f"/>
        <path id="Trazado_237699" data-name="Trazado 237699" d="M441.213,140.395a1.37,1.37,0,0,1,.25.278l.652.842c.558.736,1.355,1.809,2.306,3.158a51.109,51.109,0,0,1,6.231,11.232,24.411,24.411,0,0,1,1.4,12.606,16.775,16.775,0,0,1-1.095,3.732,10.543,10.543,0,0,1-.458.959,1.32,1.32,0,0,1-.19.319c-.033-.015.182-.477.5-1.33a18.826,18.826,0,0,0,.962-3.721,25.092,25.092,0,0,0-1.5-12.436,55.265,55.265,0,0,0-6.092-11.212c-.9-1.323-1.645-2.412-2.2-3.223l-.59-.882a1.322,1.322,0,0,1-.184-.323" transform="translate(-277.149 -29.091)" fill="#263238"/>
        <path id="Trazado_237700" data-name="Trazado 237700" d="M493.292,153.151a1.382,1.382,0,0,1-.017.378l-.125,1.074c-.128.93-.338,2.272-.635,3.924-.591,3.3-1.535,7.842-2.661,12.835s-2.232,9.5-3.072,12.743c-.419,1.624-.774,2.934-1.03,3.836-.123.413-.225.755-.308,1.036a1.316,1.316,0,0,1-.134.354,1.4,1.4,0,0,1,.056-.374c.063-.286.141-.634.235-1.054.228-.973.534-2.279.906-3.866.77-3.322,1.809-7.807,2.957-12.763,1.125-4.99,2.112-9.514,2.772-12.8.312-1.6.568-2.914.759-3.895.079-.423.145-.773.2-1.062a1.373,1.373,0,0,1,.1-.366" transform="translate(-353.046 -31.734)" fill="#263238"/>
        <g id="Grupo_165540" data-name="Grupo 165540" transform="translate(135.237 118.932)" opacity="0.3">
          <g id="Grupo_165539" data-name="Grupo 165539">
            <g id="Grupo_165538" data-name="Grupo 165538" clip-path="url(#clip-path-8)">
              <path id="Trazado_237701" data-name="Trazado 237701" d="M483.345,195.445c1.7-1.71,2.063-4.306,2.33-6.706q1.275-11.453,2.55-22.9c.53-4.761,1.031-9.753-.765-14.193a2.412,2.412,0,0,0-1.359-1.576,1.764,1.764,0,0,0-1.787.739c-.413.546-1.573,1.333-1.742,2-1.734,6.806-2.487,13.51-4.22,20.316-.458,1.8-1.056,1.73-.659,3.543.576,2.633,3.044,10.192,3.044,10.192s-.352,2.745-.457,4.349a4.16,4.16,0,0,0,3.065,4.244" transform="translate(-477.564 -150.016)"/>
            </g>
          </g>
        </g>
        <path id="Trazado_237702" data-name="Trazado 237702" d="M480.355,132.643l.5-4.193-21.032-2.683v4.7Z" transform="translate(-320.394 -26.06)" fill="#a3314f"/>
        <path id="Trazado_237703" data-name="Trazado 237703" d="M375.32,380.481,366.2,395.829s12.536,14.429,11.126,17.43l-30.395-16.623,13.236-24.5Z" transform="translate(-127.473 -77.11)" fill="#455a64"/>
        <path id="Trazado_237704" data-name="Trazado 237704" d="M372.425,393.867a1.415,1.415,0,0,0-1.633.947,1.36,1.36,0,0,0,.924,1.627,1.492,1.492,0,0,0,1.724-1.012,1.411,1.411,0,0,0-1.15-1.586" transform="translate(-142.381 -81.605)" fill="#e0e0e0"/>
        <path id="Trazado_237705" data-name="Trazado 237705" d="M346.778,402.406l1.431-2.417,28.606,16.842s1.031,1.329.358,2.2Z" transform="translate(-127.324 -82.881)" fill="#263238"/>
        <path id="Trazado_237706" data-name="Trazado 237706" d="M364.057,401.98c-.086.146-.865-.193-1.856-.115-.993.052-1.722.489-1.827.355-.121-.1.586-.87,1.788-.943s2,.584,1.895.7" transform="translate(-124.758 -83.146)" fill="#263238"/>
        <path id="Trazado_237707" data-name="Trazado 237707" d="M360.462,405.945c-.044.162-.825.063-1.673.415-.858.327-1.356.936-1.5.849-.152-.053.22-.978,1.283-1.4s1.965-.012,1.891.132" transform="translate(-118.696 -84.049)" fill="#263238"/>
        <path id="Trazado_237708" data-name="Trazado 237708" d="M354.421,411.567c-.152-.042.047-.9.873-1.5s1.7-.549,1.692-.391c.017.168-.672.358-1.342.864-.683.491-1.067,1.093-1.223,1.027" transform="translate(-112.93 -84.866)" fill="#263238"/>
        <path id="Trazado_237709" data-name="Trazado 237709" d="M361.461,397.013c-.136.1-.7-.476-1.575-.878-.862-.419-1.669-.495-1.677-.664-.027-.155.911-.355,1.929.132s1.46,1.333,1.323,1.41" transform="translate(-120.47 -81.908)" fill="#263238"/>
        <path id="Trazado_237710" data-name="Trazado 237710" d="M346.386,390.532l-.668,17.843s17.912,6.671,18.11,9.98l-34.643-.052-.1-27.844Z" transform="translate(-99.725 -80.906)" fill="#455a64"/>
        <path id="Trazado_237711" data-name="Trazado 237711" d="M364.317,411.129a1.415,1.415,0,0,0-.981,1.613,1.36,1.36,0,0,0,1.59.985,1.492,1.492,0,0,0,1.03-1.713,1.412,1.412,0,0,0-1.768-.843" transform="translate(-129.033 -85.177)" fill="#e0e0e0"/>
        <path id="Trazado_237712" data-name="Trazado 237712" d="M329.067,424.847l.1-2.807,33.178,1.1s1.541.674,1.365,1.76Z" transform="translate(-99.607 -87.45)" fill="#263238"/>
        <path id="Trazado_237713" data-name="Trazado 237713" d="M354.379,412.795c-.006.169-.852.245-1.685.787-.847.521-1.278,1.253-1.433,1.186-.156-.033.1-1.044,1.119-1.683s2.037-.446,2-.29" transform="translate(-107.824 -85.502)" fill="#263238"/>
        <path id="Trazado_237714" data-name="Trazado 237714" d="M348.938,414.721c.038.164-.694.45-1.27,1.165-.6.7-.743,1.471-.912,1.464-.159.026-.274-.965.458-1.84s1.72-.95,1.724-.789" transform="translate(-98.752 -85.919)" fill="#263238"/>
        <path id="Trazado_237715" data-name="Trazado 237715" d="M342.534,419.466c-.154.036-.388-.809.048-1.735s1.228-1.293,1.3-1.153c.1.14-.419.636-.765,1.4-.364.757-.414,1.47-.582,1.487" transform="translate(-90.29 -86.312)" fill="#263238"/>
        <path id="Trazado_237716" data-name="Trazado 237716" d="M355.191,407.526c-.071.154-.847-.081-1.8-.017-.958.044-1.7.364-1.79.219-.1-.123.63-.748,1.757-.807s1.919.472,1.836.6" transform="translate(-108.935 -84.316)" fill="#263238"/>
        <path id="Trazado_237717" data-name="Trazado 237717" d="M327.151,250.182s-1.957,9.827-.974,11.239a45.974,45.974,0,0,1,2.741,5.915l-.573,44.179-3.026,65,20.621-.4,7.731-57.415a46.815,46.815,0,0,0,4.105-9.869c1.1-4.558,7.268-49.8,7.268-49.8l-.339-17.387Z" transform="translate(-97.956 -50.069)" fill="#263238"/>
        <path id="Trazado_237718" data-name="Trazado 237718" d="M365.881,242.886s-3.151,59.232-4.48,64.51-29.6,59.54-29.6,59.54l-17.858-8.341L336.3,301.45l-1.068-54.708Z" transform="translate(-89.774 -50.328)" fill="#263238"/>
        <path id="Trazado_237719" data-name="Trazado 237719" d="M343.885,249.481a2.012,2.012,0,0,1-.025.336c-.029.241-.068.566-.118.981-.116.883-.281,2.148-.492,3.764-.45,3.289-1.1,8.01-1.892,13.834-.816,5.845-1.785,12.795-2.861,20.51-.551,3.859-1.091,7.911-1.729,12.108a73.444,73.444,0,0,1-2.964,12.811c-1.471,4.268-3.614,8.17-4.279,12.36-.807,4.152-1.347,8.211-1.876,12.069-1.016,7.726-1.82,14.7-2.505,20.554s-1.238,10.594-1.663,13.864c-.214,1.635-.387,2.9-.526,3.76-.069.412-.123.735-.163.974a2,2,0,0,1-.07.33,1.855,1.855,0,0,1,.026-.336c.03-.241.071-.566.121-.98.1-.885.255-2.15.446-3.769.364-3.3.885-8.034,1.528-13.877.648-5.86,1.42-12.838,2.416-20.571.518-3.865,1.05-7.924,1.856-12.1.674-4.258,2.835-8.2,4.285-12.418a73.506,73.506,0,0,0,2.953-12.735c.643-4.187,1.192-8.243,1.753-12.1,1.111-7.71,2.11-14.655,2.952-20.5.853-5.816,1.545-10.53,2.027-13.814.246-1.613.438-2.872.572-3.753.068-.412.12-.735.16-.975a1.954,1.954,0,0,1,.069-.33" transform="translate(-74.736 -51.694)" fill="#455a64"/>
        <path id="Trazado_237720" data-name="Trazado 237720" d="M375.016,367.729a8.428,8.428,0,0,1,.025,1.367c-.011.878-.048,2.15-.106,3.72-.117,3.14-.342,7.474-.612,12.259s-.5,9.119-.639,12.255c-.071,1.513-.129,2.765-.174,3.715a8.356,8.356,0,0,1-.113,1.362,8.313,8.313,0,0,1-.054-1.365c-.009-.879,0-2.151.036-3.722.065-3.142.246-7.481.514-12.268.286-4.748.544-9.044.737-12.25.1-1.511.18-2.762.242-3.712a8.427,8.427,0,0,1,.143-1.36" transform="translate(-146.027 -76.196)" fill="#455a64"/>
        <path id="Trazado_237721" data-name="Trazado 237721" d="M314.373,81.24l-4.262,32.677c-.725,5.557-.655,13.868,8.183,14.614,7.717.068,10.589-6.906,11.259-12.092.318-2.46.589-4.511.638-4.762,0,0,8.42.3,10.1-7.853.809-3.941,1.815-12.194,2.638-19.67a15.507,15.507,0,0,0-12.488-16.917l-.789-.151c-8.6-1.141-14.373,5.527-15.276,14.155" transform="translate(-63.652 -13.874)" fill="#ffd5bd"/>
        <path id="Trazado_237722" data-name="Trazado 237722" d="M336.041,121.89a19.364,19.364,0,0,1-10.074-5.08s1.387,6.368,9.686,7.2Z" transform="translate(-69.465 -24.204)" fill="#ffb294"/>
        <path id="Trazado_237723" data-name="Trazado 237723" d="M318.1,93.261c-.172.143-1.275-.34-2.813-.229-1.536.1-2.644.725-2.816.606-.084-.052.088-.3.57-.583a5.294,5.294,0,0,1,2.248-.646,4.84,4.84,0,0,1,2.244.345c.483.22.651.443.566.507" transform="translate(-40.835 -19.145)" fill="#263238"/>
        <path id="Trazado_237724" data-name="Trazado 237724" d="M333.835,91.508c-.216.049-.989-.86-2.411-1.441s-2.677-.529-2.778-.71c-.052-.083.209-.224.763-.261a5.362,5.362,0,0,1,2.289.425,4.875,4.875,0,0,1,1.853,1.291c.335.405.388.675.284.694" transform="translate(-69.426 -18.46)" fill="#263238"/>
        <path id="Trazado_237725" data-name="Trazado 237725" d="M330.208,95.2a.917.917,0,0,1-1.045.742.877.877,0,0,1-.772-.991.918.918,0,0,1,1.043-.743.879.879,0,0,1,.774.992" transform="translate(-65.555 -19.519)" fill="#263238"/>
        <path id="Trazado_237726" data-name="Trazado 237726" d="M315.379,96.935a.918.918,0,0,1-1.044.742.878.878,0,0,1-.773-.992.918.918,0,0,1,1.043-.743.879.879,0,0,1,.774.993" transform="translate(-38.97 -19.878)" fill="#263238"/>
        <path id="Trazado_237727" data-name="Trazado 237727" d="M321,100.673a8.451,8.451,0,0,1,2.111.025c.327.029.643.024.739-.185a1.665,1.665,0,0,0-.031-.993q-.228-1.251-.478-2.625a42.812,42.812,0,0,1-.9-6.8,42.676,42.676,0,0,1,1.446,6.71q.228,1.378.436,2.632a1.9,1.9,0,0,1-.076,1.291.819.819,0,0,1-.618.367,2.211,2.211,0,0,1-.56-.029,8.33,8.33,0,0,1-2.068-.4" transform="translate(-53.879 -18.669)" fill="#263238"/>
        <path id="Trazado_237728" data-name="Trazado 237728" d="M333.324,83.827c-.17.29-1.247-.071-2.578-.159-1.329-.116-2.453.076-2.572-.236-.052-.149.188-.407.67-.626a4.362,4.362,0,0,1,3.924.3c.439.291.632.582.557.721" transform="translate(-68.508 -17.09)" fill="#263238"/>
        <path id="Trazado_237729" data-name="Trazado 237729" d="M317.045,88.981c-.174.232-1.219-.171-2.519-.365-1.3-.218-2.4-.155-2.511-.431-.045-.132.2-.331.674-.475a4.6,4.6,0,0,1,1.968-.092,4.741,4.741,0,0,1,1.863.7c.422.287.6.553.524.664" transform="translate(-39.423 -18.142)" fill="#263238"/>
        <path id="Trazado_237730" data-name="Trazado 237730" d="M352.882,92.587c-.128-.087-5.3-2.742-6.194,2.88s4.933,5.364,4.968,5.2,1.226-8.085,1.226-8.085" transform="translate(-102.659 -19.039)" fill="#ffd5bd"/>
        <path id="Trazado_237731" data-name="Trazado 237731" d="M351.784,98.724c-.022-.022-.109.053-.287.1a.991.991,0,0,1-.734-.1,2.455,2.455,0,0,1-.775-2.354,3.279,3.279,0,0,1,.5-1.359,1.148,1.148,0,0,1,.857-.634.505.505,0,0,1,.535.361c.05.17,0,.276.025.29s.136-.075.128-.314a.632.632,0,0,0-.165-.388.749.749,0,0,0-.518-.23,1.393,1.393,0,0,0-1.162.709,3.373,3.373,0,0,0-.591,1.513,2.576,2.576,0,0,0,1.042,2.657,1.062,1.062,0,0,0,.92-.006c.2-.112.246-.232.228-.246" transform="translate(-104.164 -19.497)" fill="#ffb294"/>
        <path id="Trazado_237732" data-name="Trazado 237732" d="M330.129,107.131c.078-.136-.989-.6-1.645-1.727a6.385,6.385,0,0,1-.608-1.567c-.117-.43-.211-.7-.274-.691s-.078.291-.04.748a4.209,4.209,0,0,0,.533,1.739,3.406,3.406,0,0,0,1.313,1.275c.411.226.7.271.722.224" transform="translate(-64.806 -21.373)" fill="#263238"/>
        <path id="Trazado_237733" data-name="Trazado 237733" d="M342.858,76.775a1.342,1.342,0,0,0-.535-.853,4.13,4.13,0,0,0-2.065-.59,11.977,11.977,0,0,1-5.974-2.613,27.9,27.9,0,0,0-2.471-3.834c-2.194-2.868-4.042-4.863-6.066-5.969a19.261,19.261,0,0,0-10.118-2.007c-2.955.414-5.8,2.436-6.548,5.326a5.988,5.988,0,0,0-5.913-1.265l-.046-.027c-2.272.52-3.782,2.678-4.688,4.826s-1.46,4.493-2.872,6.347c-.295.388-.646.852-.483,1.311a.925.925,0,0,0,.913.533,2.7,2.7,0,0,0,1.069-.34l-.935,1.661a5.186,5.186,0,0,0,2.39.121,51.028,51.028,0,0,0,.86,6.046,3.383,3.383,0,0,1,2.24.84c.683.776.872,2.109,2.2,1.768.675-.174,1.424-1.46,1.718-2.092a32.374,32.374,0,0,0,3-13.445,10.4,10.4,0,0,1,3.462-1.927l-.108.076c2.4-.528,5.094-1.008,7.151.331,1.6,1.038,2.384,2.913,3.486,4.466a13.022,13.022,0,0,0,8.717,5.344c-.151,2.334-.733,5.59-.885,7.924l2.389-3.486v.018c.192-.253.356-.511.516-.771l.054-.078V84.4a14.677,14.677,0,0,1,.808-1.242l.02.022a1.459,1.459,0,0,0,2.346-1.689,3.278,3.278,0,0,0-.618-.786,2.309,2.309,0,0,0,2.118.824,1.812,1.812,0,0,0,1.482-1.629,1.542,1.542,0,0,0-.767-1.335,5.2,5.2,0,0,0,3.015-.3c.619-.262,1.253-.74,1.142-1.493" transform="translate(-51.774 -12.601)" fill="#263238"/>
        <path id="Trazado_237734" data-name="Trazado 237734" d="M348.2,69.23a7.372,7.372,0,0,0-.916.66,5.944,5.944,0,0,0-1.587,2.587,10.466,10.466,0,0,0-.457,2.069c-.093.759-.128,1.578-.17,2.442a21.667,21.667,0,0,1-.257,2.71,9.488,9.488,0,0,1-.354,1.4,2.985,2.985,0,0,1-.744,1.314,1.253,1.253,0,0,1-1.209.254,1.87,1.87,0,0,1-.977-.715,4.3,4.3,0,0,1-.547-2.189l.17.042a6.967,6.967,0,0,1-1.206,1.608,2.469,2.469,0,0,1-1.706.684,1.594,1.594,0,0,1-.832-.249,1.387,1.387,0,0,1-.511-.637,1.427,1.427,0,0,1-.089-.751,1.027,1.027,0,0,1,.341-.61l.078.088a5.36,5.36,0,0,1-1.926,1.119,4.761,4.761,0,0,1-.574.148,1.068,1.068,0,0,1-.2.026.972.972,0,0,1,.2-.059c.128-.035.319-.087.56-.175a5.529,5.529,0,0,0,1.867-1.146l.078.088a1.064,1.064,0,0,0-.2,1.218,1.245,1.245,0,0,0,.462.565,1.449,1.449,0,0,0,.756.216,2.315,2.315,0,0,0,1.586-.654A6.845,6.845,0,0,0,341,79.712l.15-.251.021.292a4.16,4.16,0,0,0,.521,2.091,1.678,1.678,0,0,0,.874.64,1.057,1.057,0,0,0,1.027-.215,2.833,2.833,0,0,0,.69-1.23,9.473,9.473,0,0,0,.349-1.375,22.174,22.174,0,0,0,.266-2.686c.048-.863.088-1.685.189-2.452a10.345,10.345,0,0,1,.487-2.094,5.875,5.875,0,0,1,1.667-2.6,3.392,3.392,0,0,1,.966-.6" transform="translate(-88.415 -14.345)" fill="#455a64"/>
        <path id="Trazado_237735" data-name="Trazado 237735" d="M327.739,79.181s-.023.019-.073.048l-.224.126a2.73,2.73,0,0,1-.375.183,4.644,4.644,0,0,1-.533.2,7.359,7.359,0,0,1-3.6.219,9.4,9.4,0,0,1-4.758-2.423,16.274,16.274,0,0,1-3.692-5.428c-.482-1.068-.85-2.148-1.277-3.157a10.987,10.987,0,0,0-1.546-2.726,5.664,5.664,0,0,0-2.2-1.721,4.047,4.047,0,0,0-1.235-.292,4.476,4.476,0,0,0-1.173.085,4.806,4.806,0,0,0-2.912,1.929,5.73,5.73,0,0,0-.571,1.186.293.293,0,0,1,.017-.086c.019-.067.041-.149.069-.248a4.132,4.132,0,0,1,.423-.893,4.713,4.713,0,0,1,1.07-1.142,4.859,4.859,0,0,1,1.877-.879,4.572,4.572,0,0,1,1.211-.1,4.2,4.2,0,0,1,1.287.292,5.806,5.806,0,0,1,2.282,1.758,11.1,11.1,0,0,1,1.582,2.764c.433,1.016.8,2.094,1.279,3.152a16.3,16.3,0,0,0,3.637,5.376,9.345,9.345,0,0,0,4.661,2.419,7.471,7.471,0,0,0,3.554-.156,11.656,11.656,0,0,0,1.227-.49" transform="translate(-43.402 -13.274)" fill="#455a64"/>
        <path id="Trazado_237736" data-name="Trazado 237736" d="M310.846,78.481a1.333,1.333,0,0,1-.32.171,6.434,6.434,0,0,1-.927.341,8.6,8.6,0,0,1-1.44.292,9.024,9.024,0,0,1-3.568-.305,8.6,8.6,0,0,1-1.369-.531,6.523,6.523,0,0,1-.856-.494,1.314,1.314,0,0,1-.286-.223c.02-.031.448.257,1.2.592a9.735,9.735,0,0,0,1.36.484,10.518,10.518,0,0,0,1.737.31,10.683,10.683,0,0,0,1.765-.01,9.723,9.723,0,0,0,1.422-.247c.8-.2,1.269-.413,1.284-.38" transform="translate(-25.332 -16.106)" fill="#455a64"/>
        <path id="Trazado_237737" data-name="Trazado 237737" d="M366.468,177.016c.006-1.041-8.311-47.135-8.311-47.135-1.563-1.481-19.118-14.305-19.118-14.305l-15.153,18.186s-3.821,14.235-5,24.561c-.775,6.8-4.3,39.25-5.31,52.947a10.413,10.413,0,0,0,4.488,9.35l1.6.168.421,4.085c14.008.319,47.817-5.9,48.245-5.642.519.317-1.892-38.469-1.869-42.215" transform="translate(-91.991 -23.948)" fill="#455a64"/>
        <path id="Trazado_237738" data-name="Trazado 237738" d="M362.168,239.921a2.658,2.658,0,0,1-.481.132l-1.394.312c-1.211.269-2.973.614-5.156,1.01-4.364.8-10.427,1.708-17.143,2.542s-12.808,1.5-17.214,2l-5.218.586-1.42.147a2.562,2.562,0,0,1-.5.028,2.684,2.684,0,0,1,.489-.1l1.413-.213c1.226-.18,3.005-.416,5.205-.7l17.2-2.1c6.712-.834,12.773-1.705,17.144-2.439,2.186-.363,3.953-.672,5.171-.9l1.406-.247a2.694,2.694,0,0,1,.5-.063" transform="translate(-85.823 -49.713)" fill="#263238"/>
        <path id="Trazado_237739" data-name="Trazado 237739" d="M369.065,114.057c-2.434.7-4.46,2.354-6.411,3.967L354.223,125c-1.628,1.346-3.325,2.788-4.05,4.773-1.042,2.851.329,6.217,2.757,8.038a11.7,11.7,0,0,0,8.679,1.835,30.464,30.464,0,0,0,8.565-2.986l6.6-21.035c-1.463-2.067-5.277-2.266-7.711-1.567" transform="translate(-129.111 -23.558)" fill="#455a64"/>
        <path id="Trazado_237740" data-name="Trazado 237740" d="M346.735,130.283a5.076,5.076,0,0,1-.9-.371c-.572-.254-1.381-.659-2.371-1.178a71.236,71.236,0,0,1-7.424-4.6c-2.791-1.964-5.228-3.856-7-5.217l-2.087-1.623a5.143,5.143,0,0,1-.739-.631,5.12,5.12,0,0,1,.821.521c.515.353,1.25.878,2.153,1.535,1.808,1.31,4.269,3.17,7.051,5.128s5.4,3.574,7.342,4.67c.971.546,1.761.982,2.313,1.274a5.216,5.216,0,0,1,.837.493" transform="translate(-80.358 -24.173)" fill="#263238"/>
        <path id="Trazado_237741" data-name="Trazado 237741" d="M369.556,125.585a5.777,5.777,0,0,1-.789.649c-.264.2-.576.446-.934.744s-.772.626-1.206,1.02a31.225,31.225,0,0,0-5.913,6.909,32.271,32.271,0,0,0-3.658,8.33c-.3,1.131-.535,2.049-.659,2.694a5.727,5.727,0,0,1-.252.99,5.668,5.668,0,0,1,.118-1.016c.082-.654.283-1.586.553-2.733a29.9,29.9,0,0,1,3.6-8.453,29.067,29.067,0,0,1,6.048-6.911c.447-.385.869-.71,1.246-.987s.7-.52.975-.7a5.733,5.733,0,0,1,.869-.539" transform="translate(-126.901 -26.022)" fill="#263238"/>
        <g id="Grupo_165543" data-name="Grupo 165543" transform="translate(224.788 90.869)" opacity="0.3">
          <g id="Grupo_165542" data-name="Grupo 165542">
            <g id="Grupo_165541" data-name="Grupo 165541" clip-path="url(#clip-path-9)">
              <path id="Trazado_237742" data-name="Trazado 237742" d="M367.16,114.637c-6.023.728-12.44,7.429-17.339,11.447,2.018.421,5.144-1.624,6.983-2.559,4.6-2.342,7.986-6.12,14.09-7.286l1.8-.424c-1.068-.961-4.214-1.28-5.538-1.178" transform="translate(-349.821 -114.619)"/>
            </g>
          </g>
        </g>
        <path id="Trazado_237743" data-name="Trazado 237743" d="M373.488,116.64c0,.03-.33.06-.909.2a10.57,10.57,0,0,0-2.347.9c-1.894.984-4.321,2.708-7.078,4.486a39.31,39.31,0,0,1-7.43,3.95,19.62,19.62,0,0,1-2.442.752,4.017,4.017,0,0,1-.924.157,6.12,6.12,0,0,1,.889-.289c.572-.177,1.4-.444,2.387-.851a44.8,44.8,0,0,0,7.33-4.015,81.178,81.178,0,0,1,7.158-4.412,9.284,9.284,0,0,1,2.43-.816,4.833,4.833,0,0,1,.693-.077c.159,0,.243,0,.244.011" transform="translate(-127.834 -24.166)" fill="#263238"/>
        <g id="Grupo_165546" data-name="Grupo 165546" transform="translate(246.846 124.09)" opacity="0.3">
          <g id="Grupo_165545" data-name="Grupo 165545">
            <g id="Grupo_165544" data-name="Grupo 165544" clip-path="url(#clip-path-10)">
              <path id="Trazado_237744" data-name="Trazado 237744" d="M315.111,156.523c2.412,15.96,5.121,32.648,14.825,45.546,2.559,3.4,6.2,6.723,10.44,6.32,1.692-.161,3.623-1.67,2.925-3.22a12.257,12.257,0,0,1-3.148-1.58c-2.861-1.856-5.381-2.625-7.24-5.484a73.863,73.863,0,0,1-4.8-9.923c-4.318-9.8-9.481-21.672-13.007-31.659" transform="translate(-315.111 -156.523)"/>
            </g>
          </g>
        </g>
        <path id="Trazado_237745" data-name="Trazado 237745" d="M361.183,252.067a7.73,7.73,0,0,1-.7-4.973c.1.006.085,1.133.28,2.5s.512,2.443.415,2.477" transform="translate(-121.867 -51.2)" fill="#263238"/>
        <path id="Trazado_237746" data-name="Trazado 237746" d="M352.814,250.588a15.056,15.056,0,0,1-.517-4.555,15.055,15.055,0,0,1,.517,4.555" transform="translate(-107.124 -50.98)" fill="#263238"/>
        <path id="Trazado_237747" data-name="Trazado 237747" d="M343.744,248.959a15.31,15.31,0,0,1-.819-4.547,15.255,15.255,0,0,1,.819,4.547" transform="translate(-90.619 -50.644)" fill="#263238"/>
        <path id="Trazado_237748" data-name="Trazado 237748" d="M335.729,248.305a18.811,18.811,0,0,1-.506-2.21,19.1,19.1,0,0,1-.581-2.192,6.8,6.8,0,0,1,1.087,4.4" transform="translate(-76.091 -50.538)" fill="#263238"/>
        <path id="Trazado_237749" data-name="Trazado 237749" d="M327.163,246.837a11.015,11.015,0,0,1-.774-3.84,11.028,11.028,0,0,1,.774,3.84" transform="translate(-60.93 -50.351)" fill="#263238"/>
        <path id="Trazado_237750" data-name="Trazado 237750" d="M319.771,246.086c-.1,0-.154-1.1-.422-2.426s-.636-2.363-.541-2.4a7.571,7.571,0,0,1,.962,4.829" transform="translate(-47.607 -49.99)" fill="#263238"/>
        <path id="Trazado_237751" data-name="Trazado 237751" d="M339.483,211.151a3.5,3.5,0,0,1,.11.791,7.4,7.4,0,0,1,.045.936,12.178,12.178,0,0,1-.029,1.242,17.773,17.773,0,0,1-.5,3.2,18.754,18.754,0,0,1-3.476,7.081,17.839,17.839,0,0,1-2.229,2.347,12.084,12.084,0,0,1-.965.783,7.219,7.219,0,0,1-.768.537,3.454,3.454,0,0,1-.694.4c-.04-.059.928-.66,2.259-1.9a19.635,19.635,0,0,0,2.14-2.363,19.746,19.746,0,0,0,3.419-6.964,19.639,19.639,0,0,0,.561-3.137c.167-1.812.05-2.945.121-2.95" transform="translate(-77.04 -43.752)" fill="#263238"/>
        <g id="Grupo_165549" data-name="Grupo 165549" transform="translate(256.502 171.978)" opacity="0.3">
          <g id="Grupo_165548" data-name="Grupo 165548">
            <g id="Grupo_165547" data-name="Grupo 165547" clip-path="url(#clip-path-11)">
              <path id="Trazado_237752" data-name="Trazado 237752" d="M331.376,227.451l.217-.18a17.83,17.83,0,0,0,5.569-10.344,20.427,20.427,0,0,0-5.786,10.524" transform="translate(-331.376 -216.927)"/>
            </g>
          </g>
        </g>
        <path id="Trazado_237753" data-name="Trazado 237753" d="M342.133,242.188a10.4,10.4,0,0,1-1.422-7.618,34.892,34.892,0,0,0,.32,3.882,34.742,34.742,0,0,0,1.1,3.736" transform="translate(-87.078 -48.605)" fill="#263238"/>
        <path id="Trazado_237754" data-name="Trazado 237754" d="M330.17,209.554c.04.088-.507.429-1.225.761s-1.331.53-1.372.442.507-.429,1.225-.761,1.331-.53,1.372-.442" transform="translate(-64.867 -43.417)" fill="#263238"/>
        <path id="Trazado_237755" data-name="Trazado 237755" d="M368.729,252.309a5.059,5.059,0,0,1-.627-4.709c.1.022-.107,1.088.075,2.386.165,1.3.647,2.275.553,2.323" transform="translate(-135.311 -51.304)" fill="#263238"/>
        <path id="Trazado_237756" data-name="Trazado 237756" d="M188.7,206.716l2.482-38.269,246.044,15.961,1.457-22.463,50.277,45.034-55.729,38.993,1.511-23.294Z" transform="translate(-113.559 -33.556)" fill="#e0e0e0"/>
        <path id="Trazado_237757" data-name="Trazado 237757" d="M188.282,206.6,434.313,222.76l-.183-.209c-.476,7.31-.992,15.247-1.515,23.294l-.027.416.342-.239,55.732-38.987.212-.149-.193-.174-13.767-12.332L438.4,161.68l-.314-.281-.027.42q-.739,11.4-1.455,22.462l.215-.188-246.05-15.851-.092-.006-.006.092c-1.555,24.89-2.35,37.618-2.391,38.275.044-.656.9-13.382,2.574-38.263l-.1.086L436.795,184.5l.2.013.013-.2q.718-11.058,1.46-22.463l-.34.14,36.509,32.7L488.4,207.019l.02-.323-55.725,39,.315.178c.521-8.048,1.035-15.985,1.507-23.295l.013-.2-.2-.013L188.282,206.6" transform="translate(-113.142 -33.443)" fill="#263238"/>
        <g id="Grupo_165552" data-name="Grupo 165552" transform="translate(130.215 138.331)" opacity="0.3">
          <g id="Grupo_165551" data-name="Grupo 165551">
            <g id="Grupo_165550" data-name="Grupo 165550" clip-path="url(#clip-path-12)">
              <path id="Trazado_237758" data-name="Trazado 237758" d="M460.326,181.786c.556-2.428,1.5-4.809,1.5-7.3l7.631.63c-.725,3.434-1.429,7.123-.071,10.36,1.226,2.925,3.927,4.941,6.629,6.6,5.094,3.128,10.891,5.756,14.078,10.814-2.442,1.206-5.319-.134-7.7-1.451l-17.644-9.747a10.673,10.673,0,0,1-3.594-2.717c-1.483-2-1.38-4.763-.824-7.191" transform="translate(-459.948 -174.486)"/>
            </g>
          </g>
        </g>
        <path id="Trazado_237759" data-name="Trazado 237759" d="M276.221,220.107l11.363,1.6,8.584,10.087s-1.29,1.165-3.6-.208c-1-.6,1.228,2.069,1.228,2.069l6.117.43a1.517,1.517,0,0,1-.858,2.012c-1.422.5-6.52.689-6.52.689l-.521-.772a2.77,2.77,0,0,1-2.4.693,8.484,8.484,0,0,1-4.346.424,12.988,12.988,0,0,1-3.763-1.078l-10.745-10.168Z" transform="translate(10.323 -45.608)" fill="#ffd5bd"/>
        <path id="Trazado_237760" data-name="Trazado 237760" d="M280.523,226.456a23.593,23.593,0,0,1,6.209,6.378c-.091.071-1.375-1.452-3.087-3.206s-3.2-3.082-3.122-3.172" transform="translate(15.869 -46.923)" fill="#ffb294"/>
        <path id="Trazado_237761" data-name="Trazado 237761" d="M280.149,234.922a29.654,29.654,0,0,1,4.793,4.934,29.735,29.735,0,0,1-4.793-4.934" transform="translate(17.957 -48.677)" fill="#ffb294"/>
        <path id="Trazado_237762" data-name="Trazado 237762" d="M283.917,236.457a98.114,98.114,0,0,0,4.22,3.644,9.066,9.066,0,0,1-4.22-3.644" transform="translate(11.779 -48.995)" fill="#ffb294"/>
        <path id="Trazado_237763" data-name="Trazado 237763" d="M288.234,237.752a9.726,9.726,0,0,1,1.679,1.454c.9.821,1.663,1.448,1.6,1.541a7.412,7.412,0,0,1-3.278-3" transform="translate(4.98 -49.263)" fill="#ffb294"/>
        <g id="Grupo_165555" data-name="Grupo 165555" transform="translate(245.361 146.032)" opacity="0.3">
          <g id="Grupo_165554" data-name="Grupo 165554">
            <g id="Grupo_165553" data-name="Grupo 165553" clip-path="url(#clip-path-13)">
              <path id="Trazado_237764" data-name="Trazado 237764" d="M309.4,184.661c3.9-1.414,8.343.6,11.154,3.657s4.42,6.983,6.327,10.668a66.734,66.734,0,0,0,16.744,20.729l-4.482,2.466a119.943,119.943,0,0,1-17.734-9.089c-4.022-2.5-8.032-5.393-10.306-9.548-3.087-5.638-2.438-12.5-1.7-18.884" transform="translate(-308.785 -184.2)"/>
            </g>
          </g>
        </g>
        <path id="Trazado_237765" data-name="Trazado 237765" d="M296.288,143.719s-1.675,40.31,4.078,47.094,25.707,20.713,25.707,20.713l2.478-.232,4.217.938,6.782-10.129L318.811,179.9s-.794-41.9-1.493-42.969-1.686-6.238-8.76-5.6-12.467,6.91-12.27,12.387" transform="translate(-49.266 -27.202)" fill="#455a64"/>
        <path id="Trazado_237766" data-name="Trazado 237766" d="M317.537,133.916a3.707,3.707,0,0,0-.749.553,9.011,9.011,0,0,0-1.546,2.218,20.38,20.38,0,0,0-1.605,3.994,22.3,22.3,0,0,0-.388,5.666c.051,8.465.4,20.149,1.257,33.015.1,1.608.216,3.195.423,4.741a20.36,20.36,0,0,0,1.011,4.447,14.222,14.222,0,0,0,2.407,3.581c.946,1.055,1.915,2.051,2.911,2.967,3.974,3.68,7.853,6.645,11.1,9.126,3.265,2.464,5.941,4.411,7.793,5.753l2.131,1.548.549.41a1.224,1.224,0,0,1,.181.148,1.256,1.256,0,0,1-.2-.12l-.568-.383-2.165-1.5c-1.874-1.31-4.571-3.229-7.856-5.671a141.172,141.172,0,0,1-11.166-9.089c-1-.916-1.981-1.916-2.939-2.98a14.432,14.432,0,0,1-2.466-3.662,20.479,20.479,0,0,1-1.036-4.525c-.211-1.559-.328-3.154-.428-4.765-.862-12.869-1.172-24.567-1.165-33.037a22.234,22.234,0,0,1,.441-5.716,19.992,19.992,0,0,1,1.669-4.012,8.645,8.645,0,0,1,1.611-2.206,2.1,2.1,0,0,1,.791-.505" transform="translate(-66.177 -27.748)" fill="#263238"/>
        <path id="Trazado_237767" data-name="Trazado 237767" d="M327.994,192.614c.015.1-1.416.368-3.014,1.185-1.605.8-2.736,1.768-2.8,1.69a7.685,7.685,0,0,1,2.665-1.983,6.777,6.777,0,0,1,3.146-.893" transform="translate(-58.418 -39.907)" fill="#263238"/>
        <path id="Trazado_237768" data-name="Trazado 237768" d="M329.777,141.808c-.056,0,.032-.711-.079-1.83a9.914,9.914,0,0,0-1.333-4.087,9.374,9.374,0,0,0-2.949-3.018c-.917-.586-1.564-.807-1.544-.861a1.276,1.276,0,0,1,.469.113,7.086,7.086,0,0,1,1.192.547,8.691,8.691,0,0,1,3.1,3.041,9.226,9.226,0,0,1,1.287,4.24,7.954,7.954,0,0,1-.04,1.363,1.419,1.419,0,0,1-.1.492" transform="translate(-61.695 -27.353)" fill="#263238"/>
        <path id="Trazado_237769" data-name="Trazado 237769" d="M318.339,205.283a3.55,3.55,0,0,0-.384-.469l-1.161-1.3-4.347-4.752-14.666-15.815.055.132c-.041-.978-.086-2.017-.13-3.068-.416-9.205-.793-17.537-1.067-23.614-.155-2.991-.281-5.425-.371-7.154q-.076-1.222-.121-1.944a4.194,4.194,0,0,0-.071-.677,4.177,4.177,0,0,0-.013.68q.015.723.044,1.948c.059,1.731.139,4.166.24,7.16.243,6.078.577,14.411.947,23.62.045,1.05.09,2.09.132,3.067l0,.076.052.055,14.763,15.726,4.44,4.665,1.215,1.248a3.5,3.5,0,0,0,.442.415" transform="translate(-28.054 -30.381)" fill="#263238"/>
        <path id="Trazado_237770" data-name="Trazado 237770" d="M441.737,212.117l10.474.733,8.482,8.657s-1.1,1.146-3.3.041c-.954-.48,1.253,1.809,1.253,1.809h5.61a1.388,1.388,0,0,1-.653,1.892A36.418,36.418,0,0,1,457.7,226.3l-.525-.671a2.531,2.531,0,0,1-2.148.786,7.748,7.748,0,0,1-3.939.665,11.874,11.874,0,0,1-3.5-.742l-10.459-8.591Z" transform="translate(-285.951 -43.952)" fill="#bc8f86"/>
        <path id="Trazado_237771" data-name="Trazado 237771" d="M446.3,217.115a21.609,21.609,0,0,1,6.076,5.423c-.078.071-1.348-1.238-3.024-2.728s-3.114-2.609-3.052-2.7" transform="translate(-281.204 -44.987)" fill="#7f473d"/>
        <path id="Trazado_237772" data-name="Trazado 237772" d="M445.535,224.7a27.274,27.274,0,0,1,4.692,4.2,27.193,27.193,0,0,1-4.692-4.2" transform="translate(-278.443 -46.559)" fill="#7f473d"/>
        <path id="Trazado_237773" data-name="Trazado 237773" d="M448.979,226.3A22.281,22.281,0,0,1,451,227.855a22.514,22.514,0,0,1,2.064,1.5,8.3,8.3,0,0,1-4.085-3.055" transform="translate(-284.009 -46.89)" fill="#7f473d"/>
        <path id="Trazado_237774" data-name="Trazado 237774" d="M452.889,227.681a37.949,37.949,0,0,1,3.184,2.523,6.785,6.785,0,0,1-3.184-2.523" transform="translate(-290.117 -47.176)" fill="#7f473d"/>
        <path id="Trazado_237775" data-name="Trazado 237775" d="M478.6,130.157s-7.42-.446-10.8,9.672-9.887,34.478-9.3,41.174S495.38,204.2,495.38,204.2l8.233-10.209-27.525-18.062,7.263-32.336s2.892-12.552-4.752-13.432" transform="translate(-342.08 -26.969)" fill="#a3314f"/>
        <path id="Trazado_237776" data-name="Trazado 237776" d="M483.743,131.036a9.6,9.6,0,0,1,2.282.564,8.075,8.075,0,0,1,3.915,3.9,14.949,14.949,0,0,1,1.246,5.525,23.49,23.49,0,0,0,.134,2.387,9.807,9.807,0,0,0,.158-2.4,13.627,13.627,0,0,0-1.166-5.693,7.924,7.924,0,0,0-4.177-3.992,5.24,5.24,0,0,0-1.743-.354,1.633,1.633,0,0,0-.648.061" transform="translate(-349.985 -27.139)" fill="#263238"/>
        <path id="Trazado_237777" data-name="Trazado 237777" d="M493.744,189.372c.056.113,1.389-.538,3.167-.8,1.775-.277,3.242-.048,3.261-.173a7.623,7.623,0,0,0-6.428.968" transform="translate(-366.608 -38.969)" fill="#263238"/>
      </g>
    </g>
  </g>
</svg>
