<svg xmlns="http://www.w3.org/2000/svg" xmlns:xlink="http://www.w3.org/1999/xlink" width="105" height="105" viewBox="0 0 105 105">
  <defs>
    <clipPath id="clip-path">
      <rect id="Rectángulo_51750" data-name="Rectángulo 51750" width="44.325" height="78.209" fill="none"/>
    </clipPath>
  </defs>
  <g id="Grupo_166659" data-name="Grupo 166659" transform="translate(-810 -1132)">
    <circle id="Elipse_5621" data-name="Elipse 5621" cx="52.5" cy="52.5" r="52.5" transform="translate(810 1132)" fill="#ced371"/>
    <g id="Grupo_165843" data-name="Grupo 165843" transform="translate(839.838 1146.396)">
      <g id="Grupo_165842" data-name="Grupo 165842" clip-path="url(#clip-path)">
        <path id="Trazado_238273" data-name="Trazado 238273" d="M12.033,319.529H0v-8.657a1.461,1.461,0,0,1,1.322-.53c1.365.031,2.732.01,4.132.01,0-1.386,0-2.738,0-4.09,0-.808.291-1.1,1.086-1.1q1.558,0,3.115,0h1.226v-2.6c-1.957,0-3.888,0-5.819,0-.776,0-1.079-.3-1.08-1.068q0-3.526,0-7.053c0-.742.311-1.054,1.049-1.055q2.726,0,5.452,0h.425c0-1.107,0-2.159,0-3.211,0-.834.283-1.117,1.117-1.117h9.251v-3.463H12c-.8,0-1.1-.3-1.1-1.095,0-2.711.011-5.423-.01-8.134a1.163,1.163,0,0,1,.615-1.159h21.3a1.166,1.166,0,0,1,.615,1.16c-.02,2.7-.009,5.4-.01,8.093,0,.855-.283,1.135-1.144,1.135H23.059v3.463h8.816c1.42,0,1.541.122,1.541,1.56v2.769c2,0,3.943,0,5.888,0,.717,0,1.036.315,1.036,1.024q0,3.549,0,7.1c0,.74-.314,1.052-1.052,1.053q-2.727,0-5.453,0h-.391v2.6c1.486,0,2.943,0,4.4,0,.709,0,1.021.32,1.024,1.036,0,.692,0,1.385,0,2.077v2.08c1.46,0,2.872.018,4.283-.009a1.156,1.156,0,0,1,1.171.615v8.571H32.291a1.162,1.162,0,0,1-.615-1.17c.022-2.264.009-4.529.009-6.793,0-.957.252-1.213,1.194-1.213h4.242v-3.431H23.059v3.431c1.372,0,2.714,0,4.055,0,.823,0,1.108.29,1.108,1.126,0,2.293-.012,4.586.009,6.879a1.166,1.166,0,0,1-.615,1.171H16.708a1.162,1.162,0,0,1-.615-1.17c.022-2.264.009-4.529.009-6.793,0-.957.252-1.213,1.194-1.213h3.982v-3.431H7.217v3.431c1.459,0,2.887,0,4.314,0,.823,0,1.108.29,1.108,1.126,0,2.293-.012,4.586.009,6.879a1.166,1.166,0,0,1-.615,1.171m.622-26.145c1.994,0,3.94,0,5.887,0,.688,0,1.02.322,1.021,1q.005,3.591,0,7.183c0,.675-.332,1-1.02,1-1.457,0-2.913,0-4.37,0H12.658v2.566h19v-2.566c-1.978,0-3.925,0-5.872,0-.688,0-1.02-.323-1.021-1q-.005-3.591,0-7.183c0-.674.332-.995,1.02-1,1.428,0,2.856,0,4.284,0h1.6v-2.566H12.655Zm0-9.544H31.664v-6.884H12.655ZM5.744,300.795H17.811v-5.663H5.744Zm20.765,0H38.578v-5.663H26.509ZM1.748,317.765h9.127v-5.65H1.748Zm40.819-5.656H33.443v5.677h9.124ZM17.86,317.771h8.6v-5.677h-8.6Z" transform="translate(0 -241.32)"/>
        <path id="Trazado_238274" data-name="Trazado 238274" d="M102.784,289.435h19.009v6.884H102.784Zm11.256,1.711c-1.109,0-2.219,0-3.328,0-.624,0-1.018.344-1.016.868s.4.861,1.023.862q3.306,0,6.613,0c.623,0,1.018-.345,1.016-.869s-.4-.859-1.024-.861c-1.095,0-2.19,0-3.285,0m-6.079.886a.865.865,0,1,0-.907.844.873.873,0,0,0,.907-.844" transform="translate(-90.129 -253.799)" fill="#9ce1ea"/>
        <rect id="Rectángulo_51740" data-name="Rectángulo 51740" width="12.067" height="5.663" transform="translate(5.744 53.813)" fill="#a3314f"/>
        <rect id="Rectángulo_51741" data-name="Rectángulo 51741" width="12.069" height="5.663" transform="translate(26.509 53.817)" fill="#a3314f"/>
        <rect id="Rectángulo_51742" data-name="Rectángulo 51742" width="9.127" height="5.65" transform="translate(1.748 70.796)" fill="#fed369"/>
        <rect id="Rectángulo_51743" data-name="Rectángulo 51743" width="9.124" height="5.677" transform="translate(33.443 70.789)" fill="#fed369"/>
        <rect id="Rectángulo_51744" data-name="Rectángulo 51744" width="8.604" height="5.677" transform="translate(17.86 70.775)" fill="#fed369"/>
        <path id="Trazado_238275" data-name="Trazado 238275" d="M163.27,303.322c1.095,0,2.19,0,3.285,0,.627,0,1.021.337,1.024.861s-.393.868-1.016.869q-3.306,0-6.613,0c-.627,0-1.021-.337-1.023-.862s.392-.866,1.016-.868c1.109,0,2.219,0,3.328,0" transform="translate(-139.358 -265.975)" fill="#010101"/>
        <path id="Trazado_238276" data-name="Trazado 238276" d="M132.519,304.22a.865.865,0,1,1-.822-.884.874.874,0,0,1,.822.884" transform="translate(-114.687 -265.987)" fill="#050707"/>
        <path id="Trazado_238277" data-name="Trazado 238277" d="M32.291,0H44.325V8.657A1.461,1.461,0,0,1,43,9.187c-1.366-.031-2.732-.01-4.132-.01,0,1.386,0,2.738,0,4.09,0,.808-.291,1.1-1.086,1.1q-1.558,0-3.115,0H33.443v2.6c1.957,0,3.888,0,5.819,0,.776,0,1.079.3,1.08,1.068q0,3.526,0,7.053c0,.742-.311,1.054-1.049,1.055q-2.726,0-5.452,0h-.425c0,1.108,0,2.159,0,3.211,0,.834-.283,1.117-1.117,1.117H23.049v3.463H32.32c.8,0,1.1.3,1.1,1.095,0,2.711-.011,5.423.01,8.134a1.163,1.163,0,0,1-.615,1.159h-21.3a1.166,1.166,0,0,1-.615-1.16c.02-2.7.009-5.4.01-8.093,0-.855.283-1.135,1.144-1.135h9.214V30.473H12.449c-1.42,0-1.541-.123-1.541-1.56V26.145c-2,0-3.943,0-5.888,0-.717,0-1.036-.315-1.036-1.024q0-3.549,0-7.1c0-.739.314-1.052,1.052-1.053q2.727,0,5.453,0h.391v-2.6c-1.486,0-2.943,0-4.4,0-.709,0-1.021-.32-1.024-1.036,0-.692,0-1.385,0-2.077V9.177c-1.46,0-2.872-.018-4.283.009A1.156,1.156,0,0,1,0,8.571V0H12.033a1.162,1.162,0,0,1,.615,1.17c-.022,2.264-.009,4.529-.009,6.793,0,.957-.252,1.213-1.194,1.213H7.2v3.431H21.265V9.177c-1.372,0-2.714,0-4.055,0-.823,0-1.108-.29-1.108-1.126,0-2.293.012-4.586-.009-6.879A1.166,1.166,0,0,1,16.708,0H27.616a1.162,1.162,0,0,1,.615,1.17c-.022,2.264-.009,4.529-.009,6.793,0,.957-.252,1.213-1.194,1.213H23.046v3.431H37.108V9.177c-1.459,0-2.887,0-4.314,0-.823,0-1.108-.29-1.108-1.126,0-2.293.012-4.586-.009-6.879A1.166,1.166,0,0,1,32.291,0m-.622,26.145c-1.993,0-3.94,0-5.887,0-.688,0-1.02-.322-1.021-1q-.005-3.591,0-7.183c0-.675.332-1,1.02-1,1.457,0,2.913,0,4.37,0h1.516V14.4h-19v2.566c1.978,0,3.925,0,5.872,0,.688,0,1.02.323,1.021,1q.005,3.591,0,7.183c0,.674-.332.995-1.02,1-1.428,0-2.856,0-4.284,0h-1.6v2.566H31.669Zm0,9.544H12.661v6.884H31.67ZM38.58,18.734H26.514V24.4H38.58Zm-20.765,0H5.747v5.663H17.816ZM42.576,1.763H33.449v5.65h9.127ZM1.757,7.42h9.124V1.742H1.757ZM26.464,1.757h-8.6V7.434h8.6Z"/>
        <path id="Trazado_238278" data-name="Trazado 238278" d="M121.84,296.741H102.831v-6.884H121.84Zm-11.256-1.711c1.109,0,2.219,0,3.328,0,.624,0,1.018-.344,1.016-.868s-.4-.861-1.023-.862q-3.306,0-6.613,0c-.623,0-1.018.345-1.016.869s.4.859,1.024.861c1.095,0,2.19,0,3.285,0m6.079-.886a.865.865,0,1,0,.907-.844.873.873,0,0,0-.907.844" transform="translate(-90.17 -254.169)" fill="#9ce1ea"/>
        <rect id="Rectángulo_51745" data-name="Rectángulo 51745" width="12.067" height="5.663" transform="translate(26.514 18.734)" fill="#a3314f"/>
        <rect id="Rectángulo_51746" data-name="Rectángulo 51746" width="12.069" height="5.663" transform="translate(5.747 18.729)" fill="#a3314f"/>
        <rect id="Rectángulo_51747" data-name="Rectángulo 51747" width="9.127" height="5.65" transform="translate(33.449 1.763)" fill="#fed369"/>
        <rect id="Rectángulo_51748" data-name="Rectángulo 51748" width="9.124" height="5.677" transform="translate(1.757 1.742)" fill="#fed369"/>
        <rect id="Rectángulo_51749" data-name="Rectángulo 51749" width="8.604" height="5.677" transform="translate(17.86 1.757)" fill="#fed369"/>
        <path id="Trazado_238279" data-name="Trazado 238279" d="M135.111,319.536c-1.095,0-2.19,0-3.285,0-.627,0-1.021-.337-1.024-.861s.393-.868,1.016-.869q3.306,0,6.613,0c.627,0,1.021.337,1.023.862s-.392.866-1.016.868c-1.109,0-2.219,0-3.328,0" transform="translate(-114.698 -278.674)" fill="#010101"/>
        <path id="Trazado_238280" data-name="Trazado 238280" d="M215.167,318.662a.865.865,0,1,1,.822.884.874.874,0,0,1-.822-.884" transform="translate(-188.675 -278.687)" fill="#050707"/>
      </g>
    </g>
  </g>
</svg>
