<svg xmlns="http://www.w3.org/2000/svg" width="105" height="105" viewBox="0 0 105 105">
  <g id="Grupo_166660" data-name="Grupo 166660" transform="translate(-285 -1297)">
    <circle id="Elipse_5622" data-name="Elipse 5622" cx="52.5" cy="52.5" r="52.5" transform="translate(285 1297)" fill="#ced371"/>
    <g id="Grupo_165122" data-name="Grupo 165122" transform="translate(309.333 1320.976)">
      <g id="Grupo_165123" data-name="Grupo 165123" transform="translate(0.763)">
        <path id="Trazado_236611" data-name="Trazado 236611" d="M50.258,0a1.819,1.819,0,0,1,.75,1.514c.113,1.883.272,3.763.417,5.7,1.053.085,2.1.171,3.149.252.98.076,1.961.156,2.942.219a1.14,1.14,0,0,1,.748,2c-1.645,1.642-3.283,3.292-4.944,4.919a4.416,4.416,0,0,1-3.289,1.275c-1.127-.018-2.255,0-3.434,0,5.195,6.707,7.023,14.174,5.082,22.415A24.861,24.861,0,0,1,41.545,53.225a25.8,25.8,0,1,1,1.21-41.152c0-1.12.026-2.225-.006-3.328A4.662,4.662,0,0,1,44.21,5.138c1.533-1.514,3.05-3.044,4.579-4.562C49,.368,49.238.191,49.463,0ZM38.235,37.291a1.218,1.218,0,0,1-.557-1.695,11.211,11.211,0,0,0-.6-8.263c-.426-.9-1.015-1.721-1.506-2.538L32.9,27.452A7.891,7.891,0,0,1,21.1,37.858a7.822,7.822,0,0,1-.9-10.228,7.659,7.659,0,0,1,4.451-3.025,7.807,7.807,0,0,1,6.462,1.173l2.626-2.627a11.393,11.393,0,0,0-9.108-2.32,11.568,11.568,0,1,0,6.993,21.81,1.168,1.168,0,1,1,.966,2.054,13.543,13.543,0,0,1-7.608,1.277,13.84,13.84,0,1,1,5.237-27.1,14.1,14.1,0,0,1,5.117,2.619l2.622-2.616c-.034-.031-.114-.109-.2-.178a17.39,17.39,0,0,0-16.747-3.1c-.971.3-1.316.22-1.85-.528-.085-1.006.1-1.281,1.09-1.609a19.7,19.7,0,0,1,13.7.369,19.45,19.45,0,0,1,5.632,3.422l2.608-2.6a23.5,23.5,0,1,0,1.606,33.606,23.307,23.307,0,0,0,.175-31.839l-2.593,2.6c.041.05.111.139.184.225a19.291,19.291,0,0,1,4.456,16.993A19.827,19.827,0,1,1,10.368,20.83a1.213,1.213,0,0,1,1.829-.5c.538.715.54,1.06.007,1.83A17.12,17.12,0,0,0,9.267,35.117a17.555,17.555,0,1,0,31.885-12.7c-.435-.647-.945-1.244-1.381-1.814l-2.636,2.631c-.012-.025-.007-.006,0,.009.105.134.214.264.317.4A13.627,13.627,0,0,1,39.833,36.3a1.186,1.186,0,0,1-1.6.99m-7.094-8.256c-.613.629-1.188,1.227-1.772,1.816-.611.618-1.217,1.242-1.851,1.835a1.127,1.127,0,0,1-1.641-1.543c.155-.189.339-.355.512-.529l3.127-3.12a5.6,5.6,0,1,0,1.625,1.539M48.878,3.672c-1.141,1.145-2.186,2.184-3.219,3.234a2.133,2.133,0,0,0-.636,1.583c.011.679.016,1.359.021,2.038,0,.438,0,.876,0,1.451,1.407-1.4,2.693-2.676,3.968-3.962a.577.577,0,0,0,.151-.4c-.081-1.273-.181-2.545-.286-3.948m-2.124,9.778.1.161c1.039,0,2.079-.019,3.117.007a2.477,2.477,0,0,0,1.927-.779c.9-.916,1.816-1.815,2.723-2.724.1-.1.174-.211.288-.352-1.008-.079-1.956-.1-2.887-.243a2.056,2.056,0,0,0-2.107.8,19.9,19.9,0,0,1-1.588,1.614c-.519.511-1.048,1.012-1.572,1.518" transform="translate(-0.763)" fill="#030303"/>
        <path id="Trazado_236612" data-name="Trazado 236612" d="M24.8,69.136a1.213,1.213,0,0,0-1.829.5A19.827,19.827,0,1,0,58.62,85.039a19.292,19.292,0,0,0-4.456-16.993c-.073-.086-.143-.175-.184-.225l2.593-2.6a23.5,23.5,0,0,1-33.8,32.635,23.5,23.5,0,0,1,32.018-34.4l-2.608,2.6a19.458,19.458,0,0,0-5.632-3.422,19.7,19.7,0,0,0-13.7-.369c-.994.328-1.174.6-1.09,1.609l-2.622,1.38c-.61-.531-1.122-.605-1.624-.235-.476.351-.56.876-.255,1.578L24.8,69.136" transform="translate(-13.367 -48.802)" fill="#e2e9e9"/>
        <path id="Trazado_236613" data-name="Trazado 236613" d="M62.794,98.8l2.622-1.38c.535.748.88.826,1.851.528a17.39,17.39,0,0,1,16.747,3.1c.087.069.167.147.2.178l-2.622,2.617a14.1,14.1,0,0,0-5.118-2.62,13.84,13.84,0,1,0-5.237,27.1,13.542,13.542,0,0,0,7.608-1.277,1.206,1.206,0,0,0,.785-1.72l2.16-1.751c.683.394,1.226.368,1.637-.079s.382-1.025-.117-1.672l1.179-2.181a1.186,1.186,0,0,0,1.6-.99,13.627,13.627,0,0,0-2.377-12.658c-.1-.135-.212-.266-.317-.4-.011-.014-.016-.034,0-.009l2.636-2.631c.437.57.946,1.167,1.381,1.814a17.555,17.555,0,1,1-31.885,12.7,17.119,17.119,0,0,1,2.937-12.954c.533-.77.531-1.115-.007-1.83l2.464-2.539a1.167,1.167,0,0,0,1.565.257c.509-.351.608-.857.314-1.6" transform="translate(-47.017 -82.35)" fill="#f2727e"/>
        <path id="Trazado_236614" data-name="Trazado 236614" d="M115.288,157.111l-2.16,1.751a1.209,1.209,0,0,0-1.751-.334,11.568,11.568,0,1,1-6.993-21.81,11.393,11.393,0,0,1,9.108,2.32l-2.626,2.627a7.808,7.808,0,0,0-6.462-1.173,7.661,7.661,0,0,0-4.451,3.025,7.873,7.873,0,0,0,11.169,10.853,7.913,7.913,0,0,0,1.53-11.032l2.67-2.656c.491.817,1.08,1.639,1.506,2.538a11.213,11.213,0,0,1,.6,8.263,1.218,1.218,0,0,0,.557,1.695l-1.178,2.182c-.716-.31-1.225-.246-1.59.2s-.336.912.07,1.552" transform="translate(-80.515 -115.887)" fill="#e2e9e9"/>
        <path id="Trazado_236615" data-name="Trazado 236615" d="M144.488,178.339a5.516,5.516,0,0,1-.816,7.357,5.595,5.595,0,1,1-.809-8.9l-3.127,3.12c-.174.173-.357.34-.512.529a1.127,1.127,0,0,0,1.641,1.543c.634-.594,1.239-1.218,1.851-1.836.583-.589,1.159-1.187,1.772-1.816" transform="translate(-114.11 -149.304)" fill="#f2727e"/>
        <path id="Trazado_236616" data-name="Trazado 236616" d="M297.021,24.257c.1,1.4.2,2.675.286,3.948a.578.578,0,0,1-.151.4c-1.276,1.286-2.562,2.562-3.968,3.962,0-.575,0-1.013,0-1.451,0-.679-.01-1.359-.021-2.038a2.134,2.134,0,0,1,.636-1.583c1.033-1.05,2.078-2.089,3.219-3.234" transform="translate(-248.906 -20.585)" fill="#fcc97b"/>
        <path id="Trazado_236617" data-name="Trazado 236617" d="M304.6,66.613c.524-.506,1.053-1.007,1.572-1.518a19.893,19.893,0,0,0,1.588-1.614,2.056,2.056,0,0,1,2.107-.8c.93.141,1.879.163,2.887.243-.114.14-.192.255-.288.352-.907.909-1.823,1.808-2.723,2.724a2.477,2.477,0,0,1-1.927.779c-1.039-.026-2.078-.007-3.117-.007l-.1-.161" transform="translate(-258.61 -53.164)" fill="#fcd69c"/>
        <path id="Trazado_236618" data-name="Trazado 236618" d="M93.452,106.083c.294.742.2,1.249-.314,1.6a1.167,1.167,0,0,1-1.565-.257c-.305-.7-.221-1.226.255-1.577.5-.371,1.014-.3,1.624.235" transform="translate(-77.675 -89.631)" fill="#060405"/>
        <path id="Trazado_236619" data-name="Trazado 236619" d="M228.684,261.452c-.406-.64-.428-1.116-.07-1.552s.874-.508,1.59-.2c.5.646.539,1.213.117,1.672s-.954.473-1.637.079" transform="translate(-193.911 -220.228)" fill="#050405"/>
      </g>
    </g>
  </g>
</svg>
