<svg xmlns="http://www.w3.org/2000/svg" xmlns:xlink="http://www.w3.org/1999/xlink" width="683.273" height="648.524" viewBox="0 0 683.273 648.524">
  <defs>
    <clipPath id="clip-path">
      <rect id="Rectángulo_51528" data-name="Rectángulo 51528" width="683.273" height="648.277" fill="none"/>
    </clipPath>
    <clipPath id="clip-path-4">
      <rect id="Rectángulo_51531" data-name="Rectángulo 51531" width="146.129" height="98.355" fill="#ffb500"/>
    </clipPath>
    <clipPath id="clip-path-5">
      <rect id="Rectángulo_51532" data-name="Rectángulo 51532" width="146.129" height="158.198" fill="#ffb500"/>
    </clipPath>
    <clipPath id="clip-path-6">
      <rect id="Rectángulo_51533" data-name="Rectángulo 51533" width="6.53" height="6.598" fill="#ffb500"/>
    </clipPath>
    <clipPath id="clip-path-7">
      <rect id="Rectángulo_51534" data-name="Rectángulo 51534" width="54.81" height="300.224" fill="none"/>
    </clipPath>
    <clipPath id="clip-path-9">
      <rect id="Rectángulo_51536" data-name="Rectángulo 51536" width="77.867" height="101.127" fill="none"/>
    </clipPath>
    <clipPath id="clip-path-10">
      <rect id="Rectángulo_51538" data-name="Rectángulo 51538" width="233.602" height="303.38" fill="#a3314f"/>
    </clipPath>
    <clipPath id="clip-path-12">
      <rect id="Rectángulo_51540" data-name="Rectángulo 51540" width="155.734" height="90.862" fill="none"/>
    </clipPath>
    <clipPath id="clip-path-14">
      <rect id="Rectángulo_51542" data-name="Rectángulo 51542" width="77.867" height="101.125" fill="none"/>
    </clipPath>
    <clipPath id="clip-path-16">
      <rect id="Rectángulo_51544" data-name="Rectángulo 51544" width="155.735" height="90.863" fill="none"/>
    </clipPath>
    <clipPath id="clip-path-25">
      <rect id="Rectángulo_51553" data-name="Rectángulo 51553" width="155.735" height="90.862" fill="none"/>
    </clipPath>
    <clipPath id="clip-path-26">
      <rect id="Rectángulo_51554" data-name="Rectángulo 51554" width="77.867" height="101.126" fill="none"/>
    </clipPath>
    <clipPath id="clip-path-28">
      <rect id="Rectángulo_51556" data-name="Rectángulo 51556" width="125.618" height="73.295" fill="none"/>
    </clipPath>
    <clipPath id="clip-path-29">
      <rect id="Rectángulo_51558" data-name="Rectángulo 51558" width="125.617" height="73.295" fill="none"/>
    </clipPath>
    <clipPath id="clip-path-30">
      <rect id="Rectángulo_51560" data-name="Rectángulo 51560" width="125.618" height="73.296" fill="none"/>
    </clipPath>
    <clipPath id="clip-path-32">
      <rect id="Rectángulo_51562" data-name="Rectángulo 51562" width="47.765" height="83.548" fill="none"/>
    </clipPath>
    <clipPath id="clip-path-37">
      <rect id="Rectángulo_51568" data-name="Rectángulo 51568" width="110.567" height="73.295" fill="none"/>
    </clipPath>
    <clipPath id="clip-path-38">
      <rect id="Rectángulo_51569" data-name="Rectángulo 51569" width="70.116" height="41.504" fill="none"/>
    </clipPath>
    <clipPath id="clip-path-39">
      <rect id="Rectángulo_51570" data-name="Rectángulo 51570" width="70.185" height="41.546" fill="none"/>
    </clipPath>
  </defs>
  <g id="Grupo_165710" data-name="Grupo 165710" transform="translate(0 0.247)">
    <g id="Grupo_165593" data-name="Grupo 165593">
      <g id="Grupo_165592" data-name="Grupo 165592" clip-path="url(#clip-path)">
        <path id="Trazado_237899" data-name="Trazado 237899" d="M683.273,374.255c0,107.182-152.956,194.07-341.637,194.07S0,481.437,0,374.255s152.956-194.07,341.636-194.07,341.637,86.889,341.637,194.07" transform="translate(0 79.951)" fill="#f5f5f5"/>
      </g>
    </g>
    <g id="Grupo_165595" data-name="Grupo 165595">
      <g id="Grupo_165594" data-name="Grupo 165594" clip-path="url(#clip-path)">
        <path id="Trazado_237900" data-name="Trazado 237900" d="M245.412,314.674c0,33.018-46.629,59.784-104.146,59.784S37.122,347.692,37.122,314.674,83.75,254.89,141.266,254.89s104.146,26.767,104.146,59.784" transform="translate(16.472 113.099)" fill="#e0e0e0"/>
        <path id="Trazado_237901" data-name="Trazado 237901" d="M268.972,411.416c0,18.667-26.361,33.8-58.878,33.8s-58.878-15.132-58.878-33.8,26.361-33.8,58.878-33.8,58.878,15.132,58.878,33.8" transform="translate(67.098 167.556)" fill="#e0e0e0"/>
        <path id="Trazado_237902" data-name="Trazado 237902" d="M279.984,498.337h36.584L579.6,346.616,320.416,188.19,201.527,262.612,379.833,367.069,217.2,461.692Z" transform="translate(89.421 83.503)" fill="#e0e0e0"/>
      </g>
    </g>
    <g id="Grupo_165597" data-name="Grupo 165597">
      <g id="Grupo_165596" data-name="Grupo 165596" clip-path="url(#clip-path)">
        <path id="Trazado_237903" data-name="Trazado 237903" d="M85.94,300.22l-17.452,9.967s9.077-28.108,4.553-56.548c-1.708-10.734-5.5-16.1-6.829-18.976s-11.571-20.7-2.277-28.753,30.691,8.439,29.212,52.138A171.53,171.53,0,0,1,85.94,300.22" transform="translate(26.657 90.492)" fill="#455a64"/>
        <path id="Trazado_237904" data-name="Trazado 237904" d="M75.162,303.329a.7.7,0,0,1-.65-.938c.068-.179,6.742-18.262,6.742-47.469,0-29.042-14.83-44.65-14.979-44.8a.694.694,0,1,1,.995-.967c.154.157,15.371,16.135,15.371,45.772,0,29.482-6.762,47.777-6.83,47.957a.7.7,0,0,1-.65.451" transform="translate(29.321 92.71)" fill="#fff"/>
        <path id="Trazado_237905" data-name="Trazado 237905" d="M90.318,293.321,61.485,310s-13.087-2.108-11.95-14.569,6.5-15.334-.071-20.894-8.275-5.942-7.9-11.309,3.983-7.668,5.69-9.777,6.449-6.517,3.225-13.034-7.621-12.829-.949-15.719c3.983-1.725,10.621.576,14.984,5.368s7.968,8.242,12.14,9.393,12.9,1.341,12.52,8.625-2.281,9.78-.57,13.035c3.225,6.134,17.263,9.585,1.708,32.2" transform="translate(18.423 99.449)" fill="#37474f"/>
        <path id="Trazado_237906" data-name="Trazado 237906" d="M75.22,299.666c-.023,0-.043,0-.065,0a.693.693,0,0,1-.627-.755c.039-.426,3.585-42.841-25.232-71.022a.694.694,0,0,1,.97-.992c29.3,28.652,25.684,71.711,25.643,72.141a.694.694,0,0,1-.69.631" transform="translate(21.781 100.589)" fill="#fff"/>
        <path id="Trazado_237907" data-name="Trazado 237907" d="M64.145,257.445l-.061,0a.692.692,0,0,1-.632-.751,25.644,25.644,0,0,1,9.526-18.184.694.694,0,0,1,.8,1.132,24.7,24.7,0,0,0-8.945,17.17.7.7,0,0,1-.692.635" transform="translate(28.154 105.773)" fill="#fff"/>
        <path id="Trazado_237908" data-name="Trazado 237908" d="M73.012,259.128a.688.688,0,0,1-.523-.237c-.071-.079-7.221-8-23.671-5.911a.7.7,0,0,1-.775-.6.692.692,0,0,1,.6-.775c17.238-2.186,24.588,6.025,24.893,6.377a.694.694,0,0,1-.524,1.148" transform="translate(21.315 111.477)" fill="#fff"/>
      </g>
    </g>
    <g id="Grupo_165611" data-name="Grupo 165611">
      <g id="Grupo_165715" data-name="Grupo 165715">
        <path id="Trazado_237909" data-name="Trazado 237909" d="M225.491,296.276c0,27.874-39.363,50.469-87.92,50.469s-87.918-22.6-87.918-50.469S89.015,245.8,137.571,245.8s87.92,22.6,87.92,50.471" transform="translate(22.032 109.068)" fill="#37474f"/>
        <path id="Trazado_237910" data-name="Trazado 237910" d="M225.491,280.764c0,27.874-39.363,50.47-87.92,50.47s-87.92-22.6-87.92-50.47v14.1c0,27.874,39.363,50.47,87.92,50.47s87.92-22.6,87.92-50.47Z" transform="translate(22.032 124.58)" fill="#253239"/>
        <path id="Trazado_237911" data-name="Trazado 237911" d="M135.687,338.883c-45.1,0-81.785-19.944-81.785-44.455s36.689-44.455,81.785-44.455,81.785,19.942,81.785,44.455-36.689,44.455-81.785,44.455m0-87.381c-44.253,0-80.256,19.256-80.256,42.926s36,42.925,80.256,42.925,80.255-19.255,80.255-42.925-36-42.926-80.255-42.926" transform="translate(23.917 110.918)" fill="#ffb500"/>
        <path id="Trazado_237912" data-name="Trazado 237912" d="M135.687,153.667c-45.1,0-81.785-19.944-81.785-44.455s36.689-44.455,81.785-44.455,81.785,19.942,81.785,44.455-36.689,44.455-81.785,44.455m0-87.381c-44.253,0-80.256,19.256-80.256,42.926s36,42.925,80.256,42.925,80.255-19.255,80.255-42.925-36-42.926-80.255-42.926" transform="translate(23.917 28.734)" fill="#ba68c8"/>
        <path id="Trazado_237913" data-name="Trazado 237913" d="M166.14,280.774v-.01h1.529Z" transform="translate(73.719 124.58)" fill="#ba68c8"/>
        <path id="Trazado_237914" data-name="Trazado 237914" d="M53.9,280.774v-.01h1.529Z" transform="translate(23.917 124.58)" fill="#ba68c8"/>
        <path id="Trazado_237915" data-name="Trazado 237915" d="M217.472,362.345h-1.53c0-23.67-36-42.926-80.255-42.926s-80.256,19.256-80.256,42.926H53.9V315.527A70.714,70.714,0,0,1,91,253.09l22.34-12.023a12.587,12.587,0,0,0,0-22.108L91,206.935A70.714,70.714,0,0,1,53.9,144.5V96.906H55.52l.078.677c2.58,22.593,37.758,40.288,80.089,40.288s77.509-17.7,80.087-40.288l.076-.677h1.621V144.5a70.714,70.714,0,0,1-37.095,62.436l-22.342,12.025a12.587,12.587,0,0,0,0,22.108l22.342,12.023c22.656,13.315,36.861,37.231,37.095,62.429ZM135.687,317.89c39.7,0,72.879,15.454,80.255,35.874V315.527c-.228-24.657-14.143-48.074-36.315-61.1l-22.316-12.009a14.118,14.118,0,0,1,0-24.8l22.34-12.025A69.187,69.187,0,0,0,215.942,144.5V103.505c-7.363,20.538-40.765,35.9-80.255,35.9S62.8,124.044,55.431,103.508V144.5a69.188,69.188,0,0,0,36.292,61.089l22.34,12.025a14.119,14.119,0,0,1,0,24.8l-22.34,12.023a69.19,69.19,0,0,0-36.292,61.09v38.237c7.377-20.42,40.56-35.874,80.256-35.874" transform="translate(23.917 42.999)" fill="#ffb500"/>
        <path id="Trazado_237916" data-name="Trazado 237916" d="M139.886,225.713a13.842,13.842,0,0,0-13.76,0c-18.194,10.4-66.184,39.489-66.184,57.125,0,21.76,32.712,39.4,73.064,39.4s73.065-17.639,73.065-39.4c0-17.636-47.991-46.729-66.184-57.125" transform="translate(26.597 99.34)" fill="#ffb500" opacity="0.87"/>
        <g id="Grupo_165600" data-name="Grupo 165600" transform="translate(85 339.274)" opacity="0.3">
          <g id="Grupo_165599" data-name="Grupo 165599">
            <g id="Grupo_165598" data-name="Grupo 165598" clip-path="url(#clip-path-4)">
              <path id="Trazado_237917" data-name="Trazado 237917" d="M139.886,225.713a13.842,13.842,0,0,0-13.76,0c-18.194,10.4-66.184,39.489-66.184,57.125,0,21.76,32.712,39.4,73.064,39.4s73.065-17.639,73.065-39.4c0-17.636-47.991-46.729-66.184-57.125" transform="translate(-59.942 -223.882)" fill="#ffb500"/>
            </g>
          </g>
        </g>
        <path id="Trazado_237918" data-name="Trazado 237918" d="M133.006,304.118c-40.352,0-73.065-17.641-73.065-39.4v19.965h0c.009,21.757,32.716,39.392,73.064,39.392s73.055-17.635,73.064-39.392V264.717c0,21.76-32.712,39.4-73.064,39.4" transform="translate(26.597 117.46)" fill="#ffb500"/>
        <path id="Trazado_237919" data-name="Trazado 237919" d="M59.942,97.436v43.33a63.2,63.2,0,0,0,33.09,55.7l20.147,10.844q.457.247.882.523c.719.469,1.454.912,2.2,1.334a28.721,28.721,0,0,1,13.483,24.387v18.786a3.282,3.282,0,0,0,3.264,3.3h0a3.282,3.282,0,0,0,3.264-3.3V233.551a28.721,28.721,0,0,1,13.483-24.387c.744-.422,1.478-.865,2.2-1.334q.424-.275.882-.523l20.147-10.844a63.2,63.2,0,0,0,33.09-55.7V97.436Z" transform="translate(26.597 43.234)" fill="#ffb500"/>
        <path id="Trazado_237920" data-name="Trazado 237920" d="M114.818,215.037a3.264,3.264,0,1,0-3.264,3.3,3.281,3.281,0,0,0,3.264-3.3" transform="translate(48.05 93.952)" fill="#ffb500"/>
        <g id="Grupo_165603" data-name="Grupo 165603" transform="translate(85.804 140.676)" opacity="0.3">
          <g id="Grupo_165602" data-name="Grupo 165602">
            <g id="Grupo_165601" data-name="Grupo 165601" clip-path="url(#clip-path-5)">
              <path id="Trazado_237921" data-name="Trazado 237921" d="M59.942,97.436v43.33a63.2,63.2,0,0,0,33.09,55.7l20.147,10.844q.457.247.882.523c.719.469,1.454.912,2.2,1.334a28.721,28.721,0,0,1,13.483,24.387v18.786a3.282,3.282,0,0,0,3.264,3.3h0a3.282,3.282,0,0,0,3.264-3.3V233.551a28.721,28.721,0,0,1,13.483-24.387c.744-.422,1.478-.865,2.2-1.334q.424-.275.882-.523l20.147-10.844a63.2,63.2,0,0,0,33.09-55.7V97.436Z" transform="translate(-59.942 -97.436)" fill="#ffb500"/>
            </g>
          </g>
        </g>
        <g id="Grupo_165606" data-name="Grupo 165606" transform="translate(156.339 305.69)" opacity="0.3">
          <g id="Grupo_165605" data-name="Grupo 165605">
            <g id="Grupo_165604" data-name="Grupo 165604" clip-path="url(#clip-path-6)">
              <path id="Trazado_237922" data-name="Trazado 237922" d="M114.818,215.037a3.264,3.264,0,1,0-3.264,3.3,3.281,3.281,0,0,0,3.264-3.3" transform="translate(-108.289 -211.738)" fill="#ffb500"/>
            </g>
          </g>
        </g>
        <path id="Trazado_237923" data-name="Trazado 237923" d="M206.071,109.546c0,21.76-32.712,39.4-73.064,39.4s-73.065-17.641-73.065-39.4,32.712-39.4,73.065-39.4,73.064,17.641,73.064,39.4" transform="translate(26.597 31.125)" fill="#ba68c8"/>
        <g id="Grupo_165609" data-name="Grupo 165609" transform="translate(103.206 140.676)" opacity="0.5" style="mix-blend-mode: overlay;isolation: isolate">
          <g id="Grupo_165608" data-name="Grupo 165608">
            <g id="Grupo_165607" data-name="Grupo 165607" clip-path="url(#clip-path-7)">
              <path id="Trazado_237924" data-name="Trazado 237924" d="M121.866,241.5l-14.2,12.028c-14.358,12.158-23.333,35.9-23.333,61.757v82.376a94.781,94.781,0,0,1-12.845-5.48v-76.9c0-25.86,10.261-49.6,26.716-61.757L114.459,241.5c6.764-5,6.764-18.461,0-23.45L98.2,206.026c-16.455-12.159-26.716-35.911-26.716-61.771V97.441H84.332v46.814c0,25.86,8.976,49.612,23.333,61.771l14.2,12.028c5.909,4.989,5.909,18.446,0,23.45" transform="translate(-71.486 -97.44)" fill="#fff"/>
            </g>
          </g>
        </g>
        <path id="Trazado_237925" data-name="Trazado 237925" d="M225.491,111.061c0,27.874-39.363,50.471-87.92,50.471s-87.918-22.6-87.918-50.471,39.362-50.47,87.918-50.47,87.92,22.6,87.92,50.47" transform="translate(22.032 26.885)" fill="#37474f"/>
        <path id="Trazado_237926" data-name="Trazado 237926" d="M225.491,95.549c0,27.874-39.363,50.471-87.92,50.471s-87.92-22.6-87.92-50.471v14.1c0,27.874,39.363,50.471,87.92,50.471s87.92-22.6,87.92-50.471Z" transform="translate(22.032 42.397)" fill="#253239"/>
      </g>
    </g>
    <path id="Trazado_237927" data-name="Trazado 237927" d="M357.689,255.039v-55.7l-77.868-45.431v-55.7L201.954,52.785V331.263l77.867,45.431,77.868,45.431,77.867,45.431V300.47Z" transform="translate(89.611 23.422)" fill="#a3314f"/>
    <g id="Grupo_165616" data-name="Grupo 165616">
      <g id="Grupo_165615" data-name="Grupo 165615" clip-path="url(#clip-path)">
        <g id="Grupo_165614" data-name="Grupo 165614" transform="translate(447.3 278.46)" opacity="0.3">
          <g id="Grupo_165613" data-name="Grupo 165613">
            <g id="Grupo_165612" data-name="Grupo 165612" clip-path="url(#clip-path-9)">
              <path id="Trazado_237928" data-name="Trazado 237928" d="M309.825,192.877v55.7L387.692,294v-55.7Z" transform="translate(-309.825 -192.877)" fill="#fff"/>
            </g>
          </g>
        </g>
      </g>
    </g>
    <path id="Trazado_237929" data-name="Trazado 237929" d="M411.624,238.308V294l-77.867,45.431v55.7l-77.868,45.431v55.694l77.868-45.431,77.867-45.431,77.867-45.431V192.877Z" transform="translate(113.543 85.583)" fill="#a3314f"/>
    <g id="Grupo_165621" data-name="Grupo 165621" transform="translate(-10.992 0.004)">
      <g id="Grupo_165711" data-name="Grupo 165711">
        <g id="Grupo_165619" data-name="Grupo 165619" transform="translate(380.432 278.46)" opacity="0.1">
          <g id="Grupo_165618" data-name="Grupo 165618">
            <g id="Grupo_165617" data-name="Grupo 165617" clip-path="url(#clip-path-10)">
              <path id="Trazado_237930" data-name="Trazado 237930" d="M411.624,238.308V294l-77.867,45.431v55.7l-77.868,45.431v55.694l77.868-45.431,77.867-45.431,77.867-45.431V192.877Z" transform="translate(-255.889 -192.877)" fill="#a3314f"/>
            </g>
          </g>
        </g>
      </g>
    </g>
    <path id="Trazado_237931" data-name="Trazado 237931" d="M279.821,112.179,201.954,66.749l77.867-45.431,77.867,45.431Z" transform="translate(89.611 9.459)" fill="#a3314f"/>
    <g id="Grupo_165626" data-name="Grupo 165626">
      <g id="Grupo_165625" data-name="Grupo 165625" clip-path="url(#clip-path)">
        <g id="Grupo_165624" data-name="Grupo 165624" transform="translate(291.565 30.777)" opacity="0.7">
          <g id="Grupo_165623" data-name="Grupo 165623">
            <g id="Grupo_165622" data-name="Grupo 165622" clip-path="url(#clip-path-12)">
              <path id="Trazado_237932" data-name="Trazado 237932" d="M279.821,112.179,201.954,66.749l77.867-45.431,77.867,45.431Z" transform="translate(-201.954 -21.318)" fill="#fff"/>
            </g>
          </g>
        </g>
      </g>
    </g>
    <path id="Trazado_237933" data-name="Trazado 237933" d="M255.889,153.912v-55.7l77.867-45.431v55.7Z" transform="translate(113.543 23.422)" fill="#a3314f"/>
    <g id="Grupo_165631" data-name="Grupo 165631">
      <g id="Grupo_165630" data-name="Grupo 165630" clip-path="url(#clip-path)">
        <g id="Grupo_165629" data-name="Grupo 165629" transform="translate(369.432 76.208)" opacity="0.1">
          <g id="Grupo_165628" data-name="Grupo 165628">
            <g id="Grupo_165627" data-name="Grupo 165627" clip-path="url(#clip-path-14)">
              <path id="Trazado_237934" data-name="Trazado 237934" d="M255.889,153.912v-55.7l77.867-45.431v55.7Z" transform="translate(-255.889 -52.786)"/>
            </g>
          </g>
        </g>
      </g>
    </g>
    <path id="Trazado_237935" data-name="Trazado 237935" d="M333.757,182.225,255.89,136.794l77.867-45.431,77.867,45.431Z" transform="translate(113.543 40.54)" fill="#ba68c8"/>
    <path id="Trazado_237936" data-name="Trazado 237936" d="M309.825,223.958v-55.7l77.867-45.431v55.7Z" transform="translate(137.475 54.502)" fill="#a3314f"/>
    <g id="Grupo_165639" data-name="Grupo 165639">
      <g id="Grupo_165638" data-name="Grupo 165638" clip-path="url(#clip-path)">
        <g id="Grupo_165634" data-name="Grupo 165634" transform="translate(369.432 131.902)" opacity="0.7">
          <g id="Grupo_165633" data-name="Grupo 165633">
            <g id="Grupo_165632" data-name="Grupo 165632" clip-path="url(#clip-path-16)">
              <path id="Trazado_237937" data-name="Trazado 237937" d="M333.757,182.225,255.89,136.794l77.867-45.431,77.867,45.431Z" transform="translate(-255.889 -91.363)" fill="#fff"/>
            </g>
          </g>
        </g>
        <g id="Grupo_165637" data-name="Grupo 165637" transform="translate(447.3 177.335)" opacity="0.1">
          <g id="Grupo_165636" data-name="Grupo 165636">
            <g id="Grupo_165635" data-name="Grupo 165635" clip-path="url(#clip-path-14)">
              <path id="Trazado_237938" data-name="Trazado 237938" d="M309.825,223.958v-55.7l77.867-45.431v55.7Z" transform="translate(-309.825 -122.832)"/>
            </g>
          </g>
        </g>
      </g>
    </g>
    <path id="Trazado_237939" data-name="Trazado 237939" d="M387.692,252.271,309.825,206.84l77.867-45.431,77.867,45.431Z" transform="translate(137.475 71.62)" fill="#ba68c8"/>
    <g id="Grupo_165644" data-name="Grupo 165644">
      <g id="Grupo_165643" data-name="Grupo 165643" clip-path="url(#clip-path)">
        <g id="Grupo_165642" data-name="Grupo 165642" transform="translate(447.3 233.029)" opacity="0.7">
          <g id="Grupo_165641" data-name="Grupo 165641">
            <g id="Grupo_165640" data-name="Grupo 165640" clip-path="url(#clip-path-12)">
              <path id="Trazado_237940" data-name="Trazado 237940" d="M387.692,252.271,309.825,206.84l77.867-45.431,77.867,45.431Z" transform="translate(-309.825 -161.409)" fill="#fff"/>
            </g>
          </g>
        </g>
      </g>
    </g>
    <path id="Trazado_237941" data-name="Trazado 237941" d="M333.757,322.317l77.867-45.431-77.867-45.431L255.89,276.886Z" transform="translate(113.543 102.701)" fill="#a3314f"/>
    <g id="Grupo_165649" data-name="Grupo 165649" transform="translate(0)">
      <g id="Grupo_165648" data-name="Grupo 165648" clip-path="url(#clip-path)">
        <g id="Grupo_165647" data-name="Grupo 165647" transform="translate(369.433 334.156)" opacity="0.7">
          <g id="Grupo_165646" data-name="Grupo 165646">
            <g id="Grupo_165645" data-name="Grupo 165645" clip-path="url(#clip-path-12)">
              <path id="Trazado_237942" data-name="Trazado 237942" d="M333.757,322.317l77.867-45.431-77.867-45.431L255.89,276.886Z" transform="translate(-255.89 -231.455)" fill="#fff"/>
            </g>
          </g>
        </g>
      </g>
    </g>
    <path id="Trazado_237943" data-name="Trazado 237943" d="M333.757,364.05v-55.7L255.89,262.923v55.7Z" transform="translate(113.543 116.664)" fill="#a3314f"/>
    <g id="Grupo_165654" data-name="Grupo 165654">
      <g id="Grupo_165653" data-name="Grupo 165653" clip-path="url(#clip-path)">
        <g id="Grupo_165652" data-name="Grupo 165652" transform="translate(369.433 379.587)" opacity="0.3">
          <g id="Grupo_165651" data-name="Grupo 165651">
            <g id="Grupo_165650" data-name="Grupo 165650" clip-path="url(#clip-path-9)">
              <path id="Trazado_237944" data-name="Trazado 237944" d="M333.757,364.05v-55.7L255.89,262.923v55.7Z" transform="translate(-255.89 -262.923)" fill="#fff"/>
            </g>
          </g>
        </g>
      </g>
    </g>
    <path id="Trazado_237945" data-name="Trazado 237945" d="M279.821,392.363l77.867-45.431L279.821,301.5l-77.867,45.431Z" transform="translate(89.611 133.782)" fill="#a3314f"/>
    <path id="Trazado_237946" data-name="Trazado 237946" d="M279.821,434.1V378.4l-77.867-45.431v55.7Z" transform="translate(89.611 147.744)" fill="#a3314f"/>
    <g id="Grupo_165662" data-name="Grupo 165662">
      <g id="Grupo_165661" data-name="Grupo 165661" clip-path="url(#clip-path)">
        <g id="Grupo_165657" data-name="Grupo 165657" transform="translate(291.565 435.283)" opacity="0.7">
          <g id="Grupo_165656" data-name="Grupo 165656">
            <g id="Grupo_165655" data-name="Grupo 165655" clip-path="url(#clip-path-25)">
              <path id="Trazado_237947" data-name="Trazado 237947" d="M279.821,392.363l77.867-45.431L279.821,301.5l-77.867,45.431Z" transform="translate(-201.954 -301.501)" fill="#fff"/>
            </g>
          </g>
        </g>
        <g id="Grupo_165660" data-name="Grupo 165660" transform="translate(291.565 480.714)" opacity="0.3">
          <g id="Grupo_165659" data-name="Grupo 165659">
            <g id="Grupo_165658" data-name="Grupo 165658" clip-path="url(#clip-path-26)">
              <path id="Trazado_237948" data-name="Trazado 237948" d="M279.821,434.1V378.4l-77.867-45.431v55.7Z" transform="translate(-201.954 -332.969)" fill="#fff"/>
            </g>
          </g>
        </g>
      </g>
    </g>
    <path id="Trazado_237949" data-name="Trazado 237949" d="M338.007,335.445l-77.866,45.437-47.752-27.858,77.867-45.437Z" transform="translate(94.241 136.482)" fill="#a3314f"/>
    <g id="Grupo_165667" data-name="Grupo 165667" transform="translate(0 0)">
      <g id="Grupo_165666" data-name="Grupo 165666" clip-path="url(#clip-path)">
        <g id="Grupo_165665" data-name="Grupo 165665" transform="translate(306.63 444.069)" opacity="0.4">
          <g id="Grupo_165664" data-name="Grupo 165664">
            <g id="Grupo_165663" data-name="Grupo 165663" clip-path="url(#clip-path-28)">
              <path id="Trazado_237950" data-name="Trazado 237950" d="M338.007,335.445l-77.866,45.437-47.752-27.858,77.867-45.437Z" transform="translate(-212.389 -307.587)" fill="#fff"/>
            </g>
          </g>
        </g>
      </g>
    </g>
    <path id="Trazado_237951" data-name="Trazado 237951" d="M260.145,366.917v55.69L212.38,394.748V339.059h.014Z" transform="translate(94.237 150.447)" fill="#a3314f"/>
    <path id="Trazado_237952" data-name="Trazado 237952" d="M391.941,265.4l-77.866,45.437-47.751-27.858,77.866-45.437Z" transform="translate(118.173 105.401)" fill="#a3314f"/>
    <g id="Grupo_165672" data-name="Grupo 165672" transform="translate(0.003 -0.003)">
      <g id="Grupo_165712" data-name="Grupo 165712">
        <g id="Grupo_165670" data-name="Grupo 165670" transform="translate(384.497 342.942)" opacity="0.4">
          <g id="Grupo_165669" data-name="Grupo 165669">
            <g id="Grupo_165668" data-name="Grupo 165668" clip-path="url(#clip-path-29)">
              <path id="Trazado_237953" data-name="Trazado 237953" d="M391.941,265.4l-77.866,45.437-47.751-27.858,77.866-45.437Z" transform="translate(-266.324 -237.541)" fill="#fff"/>
            </g>
          </g>
        </g>
      </g>
    </g>
    <path id="Trazado_237954" data-name="Trazado 237954" d="M314.08,296.871v55.69L266.314,324.7V269.013h.014Z" transform="translate(118.168 119.366)" fill="#a3314f"/>
    <path id="Trazado_237955" data-name="Trazado 237955" d="M368.014,226.825v55.69l-47.766-27.859V198.967h.014Z" transform="translate(142.1 88.286)" fill="#ba68c8"/>
    <path id="Trazado_237956" data-name="Trazado 237956" d="M368.014,226.825v55.69l-47.766-27.859V198.967h.014Z" transform="translate(142.103 88.285)" fill="#a3314f"/>
    <path id="Trazado_237957" data-name="Trazado 237957" d="M266.315,125.308l77.865,45.437,47.752-27.858L314.066,97.45Z" transform="translate(118.169 43.24)" fill="#a3314f"/>
    <g id="Grupo_165677" data-name="Grupo 165677" transform="translate(0 -0.004)">
      <g id="Grupo_165714" data-name="Grupo 165714">
        <g id="Grupo_165675" data-name="Grupo 165675" transform="translate(384.484 140.689)" opacity="0.5" style="mix-blend-mode: overlay;isolation: isolate">
          <g id="Grupo_165674" data-name="Grupo 165674">
            <g id="Grupo_165673" data-name="Grupo 165673" clip-path="url(#clip-path-30)">
              <path id="Trazado_237958" data-name="Trazado 237958" d="M266.315,125.308l77.865,45.437,47.752-27.858L314.066,97.45Z" transform="translate(-266.315 -97.449)" fill="#fff"/>
            </g>
          </g>
        </g>
      </g>
    </g>
    <path id="Trazado_237959" data-name="Trazado 237959" d="M320.249,156.78v55.69l47.765-27.859V128.922H368Z" transform="translate(142.101 57.205)" fill="#a3314f"/>
    <g id="Grupo_165682" data-name="Grupo 165682" transform="translate(0 -0.247)">
      <g id="Grupo_165681" data-name="Grupo 165681" clip-path="url(#clip-path)">
        <g id="Grupo_165680" data-name="Grupo 165680" transform="translate(462.349 186.126)" opacity="0.3">
          <g id="Grupo_165679" data-name="Grupo 165679">
            <g id="Grupo_165678" data-name="Grupo 165678" clip-path="url(#clip-path-32)">
              <path id="Trazado_237960" data-name="Trazado 237960" d="M320.249,156.78v55.69l47.765-27.859V128.922H368Z" transform="translate(-320.249 -128.921)"/>
            </g>
          </g>
        </g>
      </g>
    </g>
    <path id="Trazado_237961" data-name="Trazado 237961" d="M212.381,55.262,290.246,100.7,338,72.84,260.133,27.4Z" transform="translate(94.237 12.159)" fill="#a3314f"/>
    <g id="Grupo_165687" data-name="Grupo 165687">
      <g id="Grupo_165686" data-name="Grupo 165686" clip-path="url(#clip-path)">
        <g id="Grupo_165685" data-name="Grupo 165685" transform="translate(306.618 39.562)" opacity="0.5" style="mix-blend-mode: overlay;isolation: isolate">
          <g id="Grupo_165684" data-name="Grupo 165684">
            <g id="Grupo_165683" data-name="Grupo 165683" clip-path="url(#clip-path-30)">
              <path id="Trazado_237962" data-name="Trazado 237962" d="M212.381,55.262,290.246,100.7,338,72.84,260.133,27.4Z" transform="translate(-212.381 -27.403)" fill="#fff"/>
            </g>
          </g>
        </g>
      </g>
    </g>
    <path id="Trazado_237963" data-name="Trazado 237963" d="M266.315,86.734v55.69l47.765-27.859V58.876h-.014Z" transform="translate(118.169 26.124)" fill="#a3314f"/>
    <g id="Grupo_165692" data-name="Grupo 165692" transform="translate(-12 3)">
      <g id="Grupo_165691" data-name="Grupo 165691" transform="translate(12 -3)" clip-path="url(#clip-path)">
        <g id="Grupo_165690" data-name="Grupo 165690" transform="translate(384.484 85)" opacity="0.3">
          <g id="Grupo_165689" data-name="Grupo 165689">
            <g id="Grupo_165688" data-name="Grupo 165688" clip-path="url(#clip-path-32)">
              <path id="Trazado_237964" data-name="Trazado 237964" d="M266.315,86.734v55.69l47.765-27.859V58.876h-.014Z" transform="translate(-266.315 -58.876)"/>
            </g>
          </g>
        </g>
      </g>
    </g>
    <path id="Trazado_237965" data-name="Trazado 237965" d="M383.063,176.287,368,167.491l-47.751,27.858,15.062,8.8-15.049,8.782,47.751,27.859L383.063,232l47.751-27.859Z" transform="translate(142.1 74.319)" fill="#a3314f"/>
    <g id="Grupo_165703" data-name="Grupo 165703">
      <g id="Grupo_165713" data-name="Grupo 165713">
        <g id="Grupo_165695" data-name="Grupo 165695" transform="translate(461.916 242.055)" opacity="0.4">
          <g id="Grupo_165694" data-name="Grupo 165694">
            <g id="Grupo_165693" data-name="Grupo 165693" clip-path="url(#clip-path-37)">
              <path id="Trazado_237966" data-name="Trazado 237966" d="M383.063,176.287,368,167.491l-47.751,27.858,15.062,8.8-15.049,8.782,47.751,27.859L383.063,232l47.751-27.859Z" transform="translate(-320.247 -167.491)" fill="#fff"/>
            </g>
          </g>
        </g>
        <path id="Trazado_237967" data-name="Trazado 237967" d="M235.518,41.691a.686.686,0,0,1-.345-.094l-2.918-1.7a.7.7,0,0,1-.251-.953.687.687,0,0,1,.943-.256l2.916,1.7a.7.7,0,0,1,.253.953.686.686,0,0,1-.6.349" transform="translate(102.903 17.125)" fill="#ba68c8"/>
        <path id="Trazado_237968" data-name="Trazado 237968" d="M290.047,73.511a.687.687,0,0,1-.346-.094l-5.717-3.336a.7.7,0,0,1-.253-.954.689.689,0,0,1,.943-.256l5.719,3.338a.7.7,0,0,1,.251.953.685.685,0,0,1-.6.349M278.61,66.836a.686.686,0,0,1-.345-.094l-5.719-3.336a.7.7,0,0,1-.253-.953.689.689,0,0,1,.943-.256l5.72,3.336a.7.7,0,0,1,.251.953.687.687,0,0,1-.6.349m-11.437-6.673a.686.686,0,0,1-.345-.094l-5.717-3.336a.7.7,0,0,1-.253-.954.688.688,0,0,1,.943-.256l5.717,3.338a.7.7,0,0,1,.253.953.687.687,0,0,1-.6.349m-11.436-6.674a.684.684,0,0,1-.345-.092l-5.72-3.336a.7.7,0,0,1-.251-.954.688.688,0,0,1,.943-.256l5.719,3.338a.7.7,0,0,1,.253.953.686.686,0,0,1-.6.348M244.3,46.816a.686.686,0,0,1-.345-.094l-5.719-3.336a.7.7,0,0,1-.251-.953.686.686,0,0,1,.943-.256l5.717,3.336a.7.7,0,0,1,.253.953.686.686,0,0,1-.6.349" transform="translate(105.557 18.674)" fill="#ba68c8"/>
        <path id="Trazado_237969" data-name="Trazado 237969" d="M281.107,68.294a.686.686,0,0,1-.345-.094l-2.918-1.7a.7.7,0,0,1-.251-.953.686.686,0,0,1,.943-.256l2.916,1.7a.7.7,0,0,1,.253.953.686.686,0,0,1-.6.349" transform="translate(123.132 28.929)" fill="#ba68c8"/>
        <g id="Grupo_165698" data-name="Grupo 165698" transform="translate(334.813 55.719)" opacity="0.3">
          <g id="Grupo_165697" data-name="Grupo 165697">
            <g id="Grupo_165696" data-name="Grupo 165696" clip-path="url(#clip-path-38)">
              <path id="Trazado_237970" data-name="Trazado 237970" d="M235.518,41.691a.686.686,0,0,1-.345-.094l-2.918-1.7a.7.7,0,0,1-.251-.953.687.687,0,0,1,.943-.256l2.916,1.7a.7.7,0,0,1,.253.953.686.686,0,0,1-.6.349" transform="translate(-231.91 -38.594)"/>
              <path id="Trazado_237971" data-name="Trazado 237971" d="M290.047,73.511a.687.687,0,0,1-.346-.094l-5.717-3.336a.7.7,0,0,1-.253-.954.689.689,0,0,1,.943-.256l5.719,3.338a.7.7,0,0,1,.251.953.685.685,0,0,1-.6.349M278.61,66.836a.686.686,0,0,1-.345-.094l-5.719-3.336a.7.7,0,0,1-.253-.953.689.689,0,0,1,.943-.256l5.72,3.336a.7.7,0,0,1,.251.953.687.687,0,0,1-.6.349m-11.437-6.673a.686.686,0,0,1-.345-.094l-5.717-3.336a.7.7,0,0,1-.253-.954.688.688,0,0,1,.943-.256l5.717,3.338a.7.7,0,0,1,.253.953.687.687,0,0,1-.6.349m-11.436-6.674a.684.684,0,0,1-.345-.092l-5.72-3.336a.7.7,0,0,1-.251-.954.688.688,0,0,1,.943-.256l5.719,3.338a.7.7,0,0,1,.253.953.686.686,0,0,1-.6.348M244.3,46.816a.686.686,0,0,1-.345-.094l-5.719-3.336a.7.7,0,0,1-.251-.953.686.686,0,0,1,.943-.256l5.717,3.336a.7.7,0,0,1,.253.953.686.686,0,0,1-.6.349" transform="translate(-229.256 -37.045)"/>
              <path id="Trazado_237972" data-name="Trazado 237972" d="M281.107,68.294a.686.686,0,0,1-.345-.094l-2.918-1.7a.7.7,0,0,1-.251-.953.686.686,0,0,1,.943-.256l2.916,1.7a.7.7,0,0,1,.253.953.686.686,0,0,1-.6.349" transform="translate(-211.681 -26.79)"/>
            </g>
          </g>
        </g>
        <path id="Trazado_237973" data-name="Trazado 237973" d="M289.168,111.566a.686.686,0,0,1-.345-.094l-2.918-1.7a.7.7,0,0,1-.251-.953.687.687,0,0,1,.943-.256l2.916,1.7a.7.7,0,0,1,.253.953.688.688,0,0,1-.6.349" transform="translate(126.708 48.13)" fill="#ba68c8"/>
        <path id="Trazado_237974" data-name="Trazado 237974" d="M343.758,143.422a.686.686,0,0,1-.345-.094l-5.724-3.341a.7.7,0,0,1-.253-.953.688.688,0,0,1,.943-.256l5.724,3.341a.7.7,0,0,1,.253.953.686.686,0,0,1-.6.349m-11.449-6.682a.7.7,0,0,1-.347-.092l-5.724-3.342a.7.7,0,0,1-.253-.953.687.687,0,0,1,.943-.256l5.726,3.341a.7.7,0,0,1,.251.954.684.684,0,0,1-.6.348m-11.45-6.682a.684.684,0,0,1-.345-.092l-5.724-3.341a.7.7,0,0,1-.253-.954.688.688,0,0,1,.943-.256l5.724,3.342a.7.7,0,0,1,.253.953.686.686,0,0,1-.6.348m-11.449-6.68a.686.686,0,0,1-.345-.094l-5.724-3.341a.7.7,0,0,1-.253-.953.686.686,0,0,1,.943-.256l5.726,3.341a.7.7,0,0,1,.251.953.686.686,0,0,1-.6.349M297.962,116.7a.682.682,0,0,1-.345-.094l-5.724-3.341a.7.7,0,0,1-.253-.953.688.688,0,0,1,.943-.256l5.724,3.341a.7.7,0,0,1,.253.953.686.686,0,0,1-.6.349" transform="translate(129.365 49.68)" fill="#ba68c8"/>
        <path id="Trazado_237975" data-name="Trazado 237975" d="M334.8,138.2a.682.682,0,0,1-.345-.094l-2.916-1.7a.7.7,0,0,1-.251-.953.686.686,0,0,1,.943-.256l2.915,1.7a.7.7,0,0,1,.253.953.688.688,0,0,1-.6.349" transform="translate(146.959 59.946)" fill="#ba68c8"/>
        <g id="Grupo_165701" data-name="Grupo 165701" transform="translate(412.268 156.599)" opacity="0.3">
          <g id="Grupo_165700" data-name="Grupo 165700">
            <g id="Grupo_165699" data-name="Grupo 165699" clip-path="url(#clip-path-39)">
              <path id="Trazado_237976" data-name="Trazado 237976" d="M289.168,111.566a.686.686,0,0,1-.345-.094l-2.918-1.7a.7.7,0,0,1-.251-.953.687.687,0,0,1,.943-.256l2.916,1.7a.7.7,0,0,1,.253.953.688.688,0,0,1-.6.349" transform="translate(-285.56 -108.469)"/>
              <path id="Trazado_237977" data-name="Trazado 237977" d="M343.758,143.422a.686.686,0,0,1-.345-.094l-5.724-3.341a.7.7,0,0,1-.253-.953.688.688,0,0,1,.943-.256l5.724,3.341a.7.7,0,0,1,.253.953.686.686,0,0,1-.6.349m-11.449-6.682a.7.7,0,0,1-.347-.092l-5.724-3.342a.7.7,0,0,1-.253-.953.687.687,0,0,1,.943-.256l5.726,3.341a.7.7,0,0,1,.251.954.684.684,0,0,1-.6.348m-11.45-6.682a.684.684,0,0,1-.345-.092l-5.724-3.341a.7.7,0,0,1-.253-.954.688.688,0,0,1,.943-.256l5.724,3.342a.7.7,0,0,1,.253.953.686.686,0,0,1-.6.348m-11.449-6.68a.686.686,0,0,1-.345-.094l-5.724-3.341a.7.7,0,0,1-.253-.953.686.686,0,0,1,.943-.256l5.726,3.341a.7.7,0,0,1,.251.953.686.686,0,0,1-.6.349M297.962,116.7a.682.682,0,0,1-.345-.094l-5.724-3.341a.7.7,0,0,1-.253-.953.688.688,0,0,1,.943-.256l5.724,3.341a.7.7,0,0,1,.253.953.686.686,0,0,1-.6.349" transform="translate(-282.904 -106.919)"/>
              <path id="Trazado_237978" data-name="Trazado 237978" d="M334.8,138.2a.682.682,0,0,1-.345-.094l-2.916-1.7a.7.7,0,0,1-.251-.953.686.686,0,0,1,.943-.256l2.915,1.7a.7.7,0,0,1,.253.953.688.688,0,0,1-.6.349" transform="translate(-265.31 -96.652)"/>
            </g>
          </g>
        </g>
        <path id="Trazado_237979" data-name="Trazado 237979" d="M337.013,210.039a.689.689,0,0,1-.6-.349.7.7,0,0,1,.253-.953l2.918-1.7a.686.686,0,0,1,.943.256.7.7,0,0,1-.253.953l-2.918,1.7a.686.686,0,0,1-.345.094" transform="translate(149.233 91.824)" fill="#ba68c8"/>
        <path id="Trazado_237980" data-name="Trazado 237980" d="M343.618,209.222a.686.686,0,0,1-.6-.348.7.7,0,0,1,.253-.954l6.617-3.862a.685.685,0,0,1,.943.256.7.7,0,0,1-.253.954l-6.617,3.862a.684.684,0,0,1-.345.092m13.236-7.724a.686.686,0,0,1-.6-.349.7.7,0,0,1,.253-.953l6.617-3.862a.687.687,0,0,1,.943.256.7.7,0,0,1-.251.954L357.2,201.4a.686.686,0,0,1-.345.094" transform="translate(152.163 87.076)" fill="#ba68c8"/>
        <path id="Trazado_237981" data-name="Trazado 237981" d="M361.954,196a.686.686,0,0,1-.6-.349.7.7,0,0,1,.253-.953l1.874-1.091-1.871-1.093a.7.7,0,0,1-.253-.953.684.684,0,0,1,.943-.256l2.916,1.7a.7.7,0,0,1-.107,1.259L362.3,195.91a.686.686,0,0,1-.345.094" transform="translate(160.299 84.846)" fill="#ba68c8"/>
        <path id="Trazado_237982" data-name="Trazado 237982" d="M363.275,193.379a.687.687,0,0,1-.346-.094l-5.746-3.354a.7.7,0,0,1-.254-.953.688.688,0,0,1,.944-.256l5.746,3.354a.7.7,0,0,1,.254.953.686.686,0,0,1-.6.349m-11.493-6.707a.679.679,0,0,1-.345-.094l-5.747-3.354a.7.7,0,0,1-.254-.953.69.69,0,0,1,.944-.256l5.746,3.354a.7.7,0,0,1,.253.953.684.684,0,0,1-.6.349" transform="translate(153.234 80.723)" fill="#ba68c8"/>
        <path id="Trazado_237983" data-name="Trazado 237983" d="M342.948,181.518a.682.682,0,0,1-.345-.094l-2.918-1.7a.7.7,0,0,1-.251-.953.686.686,0,0,1,.943-.256l2.916,1.7a.7.7,0,0,1,.253.953.686.686,0,0,1-.6.349" transform="translate(150.572 79.169)" fill="#ba68c8"/>
        <path id="Trazado_237984" data-name="Trazado 237984" d="M334.983,249.792a.686.686,0,0,1-.6-.349.7.7,0,0,1,.253-.953l2.916-1.7a.685.685,0,0,1,.943.256.7.7,0,0,1-.253.953l-2.916,1.7a.686.686,0,0,1-.345.094" transform="translate(148.332 109.463)" fill="#ba68c8"/>
        <path id="Trazado_237985" data-name="Trazado 237985" d="M288.94,287.067a.688.688,0,0,1-.6-.349.7.7,0,0,1,.253-.953l5.538-3.232a.684.684,0,0,1,.943.256.7.7,0,0,1-.253.953l-5.538,3.233a.687.687,0,0,1-.345.094m11.079-6.465a.687.687,0,0,1-.6-.349.7.7,0,0,1,.251-.954l5.541-3.232a.685.685,0,0,1,.943.257.7.7,0,0,1-.253.953l-5.54,3.232a.686.686,0,0,1-.345.094m11.078-6.466a.688.688,0,0,1-.6-.348.7.7,0,0,1,.253-.954l5.54-3.232a.684.684,0,0,1,.943.256.7.7,0,0,1-.251.954l-5.541,3.232a.68.68,0,0,1-.345.092m11.081-6.465a.686.686,0,0,1-.6-.348.7.7,0,0,1,.253-.954l5.538-3.232a.686.686,0,0,1,.943.256.7.7,0,0,1-.253.954l-5.538,3.232a.684.684,0,0,1-.345.092m11.078-6.465a.682.682,0,0,1-.6-.349.7.7,0,0,1,.251-.953l5.54-3.232a.686.686,0,0,1,.944.256.7.7,0,0,1-.253.953l-5.541,3.232a.678.678,0,0,1-.345.094m11.079-6.465a.686.686,0,0,1-.6-.349.7.7,0,0,1,.253-.953l5.54-3.232a.686.686,0,0,1,.943.256.7.7,0,0,1-.253.953l-5.54,3.232a.682.682,0,0,1-.345.094" transform="translate(127.902 110.979)" fill="#ba68c8"/>
        <path id="Trazado_237986" data-name="Trazado 237986" d="M283.082,280.079a.686.686,0,0,1-.6-.349.7.7,0,0,1,.253-.953l2.916-1.7a.683.683,0,0,1,.943.256.7.7,0,0,1-.251.953l-2.918,1.7a.687.687,0,0,1-.345.094" transform="translate(125.303 122.901)" fill="#ba68c8"/>
        <path id="Trazado_237987" data-name="Trazado 237987" d="M281.053,319.831a.686.686,0,0,1-.6-.349.7.7,0,0,1,.253-.953l2.916-1.7a.685.685,0,0,1,.943.256.7.7,0,0,1-.253.953l-2.916,1.7a.686.686,0,0,1-.345.094" transform="translate(124.402 140.54)" fill="#ba68c8"/>
        <path id="Trazado_237988" data-name="Trazado 237988" d="M235.009,357.106a.686.686,0,0,1-.6-.348.7.7,0,0,1,.253-.954l5.54-3.232a.686.686,0,0,1,.943.256.7.7,0,0,1-.253.953l-5.54,3.234a.7.7,0,0,1-.345.092m11.078-6.465a.685.685,0,0,1-.6-.349.7.7,0,0,1,.251-.953l5.541-3.234a.685.685,0,0,1,.943.257.7.7,0,0,1-.253.953l-5.54,3.232a.687.687,0,0,1-.346.094m11.081-6.466a.688.688,0,0,1-.6-.348.7.7,0,0,1,.253-.953l5.538-3.234a.687.687,0,0,1,.943.256.7.7,0,0,1-.251.954l-5.54,3.232a.684.684,0,0,1-.345.092m11.079-6.465a.686.686,0,0,1-.6-.348.7.7,0,0,1,.253-.954l5.54-3.233a.686.686,0,0,1,.943.256.7.7,0,0,1-.253.954l-5.54,3.232a.684.684,0,0,1-.345.092m11.078-6.465a.688.688,0,0,1-.6-.348.7.7,0,0,1,.253-.954l5.54-3.233a.684.684,0,0,1,.943.256.7.7,0,0,1-.251.953l-5.541,3.232a.678.678,0,0,1-.345.094m11.079-6.465a.686.686,0,0,1-.6-.349.7.7,0,0,1,.253-.953l5.54-3.232a.686.686,0,0,1,.943.256.7.7,0,0,1-.253.953l-5.54,3.232a.686.686,0,0,1-.345.094" transform="translate(103.971 142.057)" fill="#ba68c8"/>
        <path id="Trazado_237989" data-name="Trazado 237989" d="M229.152,350.119a.686.686,0,0,1-.6-.349.7.7,0,0,1,.253-.953l2.916-1.7a.684.684,0,0,1,.943.255.7.7,0,0,1-.251.953l-2.918,1.7a.687.687,0,0,1-.345.094" transform="translate(101.373 153.98)" fill="#ba68c8"/>
        <path id="Trazado_237990" data-name="Trazado 237990" d="M265.443,58.364a14.588,14.588,0,0,1-13.324,0c-3.679-2.147-3.679-5.626,0-7.773a14.588,14.588,0,0,1,13.324,0c3.68,2.147,3.68,5.626,0,7.773" transform="translate(110.646 21.734)" fill="#455a64"/>
        <path id="Trazado_237991" data-name="Trazado 237991" d="M255.889,36.489V5.215l40.4,15.637Z" transform="translate(113.543 2.314)" fill="#a3314f"/>
        <path id="Trazado_237992" data-name="Trazado 237992" d="M256.311,77.606a1.389,1.389,0,0,1-1.382-1.4V1.4a1.381,1.381,0,1,1,2.762,0V76.21a1.387,1.387,0,0,1-1.38,1.4" transform="translate(113.117)" fill="#263238"/>
      </g>
    </g>
    <rect id="Rectángulo_51572" data-name="Rectángulo 51572" width="16.894" height="27.233" transform="translate(283.756 317.383)" fill="#ffa8a7"/>
    <g id="Grupo_165705" data-name="Grupo 165705">
      <g id="Grupo_165704" data-name="Grupo 165704" clip-path="url(#clip-path)">
        <path id="Trazado_237993" data-name="Trazado 237993" d="M215.236,215.513l4.015,5.8a1.274,1.274,0,0,1-.153,1.639,6.143,6.143,0,0,1-3.862,1.958Z" transform="translate(95.504 95.627)" fill="#f28f8f"/>
        <path id="Trazado_237994" data-name="Trazado 237994" d="M208.161,201.11s13.157-9.334,17.286,23.133c3.429,26.957-13.3,20.778-19.522,17.06s-18.117-14.966-10.3-30.754c3.575-7.219,12.531-9.439,12.531-9.439" transform="translate(85.661 88.684)" fill="#ffa8a7"/>
        <path id="Trazado_237995" data-name="Trazado 237995" d="M223.554,212.7s.107,5.9-5.3,6.2c0,0,1.9,1.77,1.9,5.606s-1.314,3.1-1.9,2.36-6.569,0-6.569,0l3.065,5.753a12.952,12.952,0,0,1-4.233,11.95s-8.03,2.213-11.68,0c0,0-10.073-11.212-11.97-19.178s-1.9-14.9,2.773-18.146c0,0,1.46-10.031,12.117-10.031s13.8,2.749,19.562,1.475c2.336-.517,5.838-2.213,5.838.147s-2.846,4.278-2.846,4.278,2.846-.147,4.452-.294,5.036-.664,4.452,3.836-4.666,6.785-9.669,6.048" transform="translate(82.39 87.508)" fill="#263238"/>
        <path id="Trazado_237996" data-name="Trazado 237996" d="M191.361,205.447s-2.8-5.649-6.289-2.392a.251.251,0,0,0,.04.393l6.248,3.77Z" transform="translate(82.086 89.65)" fill="#263238"/>
        <path id="Trazado_237997" data-name="Trazado 237997" d="M211.034,218.513v8.769s-9.067-.18-9.067-6.884c0-6.188,7.289-4.8,9.067-1.886" transform="translate(89.617 95.861)" fill="#ffa8a7"/>
        <path id="Trazado_237998" data-name="Trazado 237998" d="M162.355,375.286s-.414,11.651,15.76,16.432c0,0,2.4-16.432-15.76-16.432" transform="translate(72.04 166.521)" fill="#253239"/>
        <path id="Trazado_237999" data-name="Trazado 237999" d="M176.524,400.935v-7.016a9.73,9.73,0,0,1,3.752-7.689s-2.389-10.227-12.1-9.63a16.9,16.9,0,0,0-7.75,6.1,8.263,8.263,0,0,0-1.4,6.677,1.454,1.454,0,0,1,1.959-1.676l2.345.966a9.635,9.635,0,0,1,5.749,6.962l2.866,13.636a6.289,6.289,0,0,0,5.174,5.041c.051.007.1.01.152.016a7.109,7.109,0,0,0,.8.043c.069,0,.14,0,.211,0a7.067,7.067,0,0,0,.777-.065c.071-.009.141-.017.212-.03a7.233,7.233,0,0,0,.807-.183c.055-.016.11-.029.163-.045a7.441,7.441,0,0,0,.947-.365,7.669,7.669,0,0,0,.937-.517l2.459-1.608a2.429,2.429,0,0,0,1.1-2.153c-.14-2.749-1.369-8.454-9.166-8.454" transform="translate(70.476 167.093)" fill="#37474f"/>
        <path id="Trazado_238000" data-name="Trazado 238000" d="M184.84,408.168l-2.459,1.608a7.736,7.736,0,0,1-.936.517,7.525,7.525,0,0,1-.947.365c-.055.016-.11.029-.163.043a6.937,6.937,0,0,1-.808.185c-.071.012-.141.02-.211.03-.1.013-.2.016-.3.024-.162.016-.322.036-.482.04-.071,0-.14,0-.211,0-.1,0-.192-.012-.289-.016-.172-.006-.345-.01-.515-.029-.051,0-.1-.007-.152-.014a6.271,6.271,0,0,1-5.135-4.91c-.01-.045-.029-.087-.038-.131l-2.867-13.636a9.633,9.633,0,0,0-5.747-6.962l-2.346-.966c-1.015-.472-1.683.329-2.109.736a2.667,2.667,0,0,0-.768,2.8l2.825,12.689a11.751,11.751,0,0,0,4.81,7.138l6.159,4.223a8.114,8.114,0,0,0,6.836.891l.074,0,.141-.062a8.173,8.173,0,0,0,1.272-.553l.049-.027,2.646-1.432a4.37,4.37,0,0,0,2.2-3.035,2.482,2.482,0,0,1-.533.487" transform="translate(70.223 170.467)" fill="#263238"/>
        <path id="Trazado_238001" data-name="Trazado 238001" d="M163.913,380.235s11.094,1.078,11.044,12.8l6.887-10.748-11.3-11.818Z" transform="translate(72.731 164.382)" fill="#ffa8a7"/>
        <path id="Trazado_238002" data-name="Trazado 238002" d="M189.272,283.231v18.692q0,11.144,1.006,22.253l2.267,25.03a20.976,20.976,0,0,1-5.948,16.7,47.1,47.1,0,0,0-8.482,11.98c-6.871,13.506-15.76,38.248-15.76,38.248s15.76.025,15.76,16.432l35.865-59.883a34.465,34.465,0,0,0,4.682-13.913l7.568-68.454Z" transform="translate(72.04 125.675)" fill="#455a64"/>
        <path id="Trazado_238003" data-name="Trazado 238003" d="M235.695,360.725a6.358,6.358,0,0,0,2.961,2.7l.15.066a11.009,11.009,0,0,0,8.247.273l22.83-8.307c1.626-.7,1.646-3.114,1.542-4.109H235.695Z" transform="translate(104.582 155.898)" fill="#263238"/>
        <path id="Trazado_238004" data-name="Trazado 238004" d="M237.333,349.246s-3.215,3.348-2.037,9.68a6.29,6.29,0,0,0,3.653,4.566l.15.065a11.006,11.006,0,0,0,8.245.273l22.831-8.307a2.389,2.389,0,0,0,1.455-2.908c-1.045-3.71-4.78-7.442-13.411-5.182-2.859.749-5.548,1.462-6.709,1.387l-1.156-1.779Z" transform="translate(104.29 153.858)" fill="#37474f"/>
        <path id="Trazado_238005" data-name="Trazado 238005" d="M250.866,351.862h0c-1.2,3.209-5.736,4.344-11.063,2.563a10.909,10.909,0,0,1-3.315-1.844V339.894h14.378Z" transform="translate(104.934 150.817)" fill="#ffa8a7"/>
        <path id="Trazado_238006" data-name="Trazado 238006" d="M192.32,286.547v2.132a29.243,29.243,0,0,0,21.65,28.34l36.79,9.729a2.444,2.444,0,0,1,1.809,2.369v43.917s17.761,8.926,22.912-4.9V320.682a19.259,19.259,0,0,0-12.165-17.957l-38.191-14.98Z" transform="translate(85.336 127.146)" fill="#455a64"/>
        <path id="Trazado_238007" data-name="Trazado 238007" d="M207.24,323.877l1.4-14.517s-11.849-3.967-13.665-9.416c-.606,5.651,7.321,10.813,9.312,11.966.78,4.383,2.954,11.967,2.954,11.967" transform="translate(86.499 133.091)" fill="#37474f"/>
        <path id="Trazado_238008" data-name="Trazado 238008" d="M194.373,240.432s.339-6.975,2.73-6.975c1.92,0,11.655,2.759,15.413,3.846a4.344,4.344,0,0,1,2.466,1.834,14.777,14.777,0,0,1,2.554,7.37Z" transform="translate(86.247 103.589)" fill="#37474f"/>
        <path id="Trazado_238009" data-name="Trazado 238009" d="M224.158,257.982s10.864-11.068,12.4-10.1c1.871,1.178-.4,5.446-2.109,7.243l8.529-5.576a2.3,2.3,0,0,1,3.277.835c2.384,4.311,4.951,14.456-17.844,21.132Z" transform="translate(99.463 109.964)" fill="#ffa8a7"/>
        <path id="Trazado_238010" data-name="Trazado 238010" d="M250.747,270.426s-5.669,2.6-13.035,5.814c-12.3,5.371-29.323,12.453-32.443,11.951a176.839,176.839,0,0,1-24.174-5.658l1.578-21.888,23.557,6.928,35.312-13.845,1.5-.588c9.963,3.644,7.709,17.286,7.709,17.286" transform="translate(80.355 112.323)" fill="#263238"/>
        <path id="Trazado_238011" data-name="Trazado 238011" d="M198.754,236.622l-8.8-2.415a9.586,9.586,0,0,0-12.071,9.328v3.14a26.144,26.144,0,0,0,10.453,20.948l10.239,7.65Z" transform="translate(78.93 103.769)" fill="#37474f"/>
        <path id="Trazado_238012" data-name="Trazado 238012" d="M235.628,296.4l6.879,30.974s-19.073,9.578-39.725,3.537S179.641,319.7,179.641,319.7l2.1-29.178,1.578-21.887,1.838-25.509a8.538,8.538,0,0,1,10.533-7.744l28.967,7.193a23.722,23.722,0,0,1,17.531,19.144,24.26,24.26,0,0,1,.32,3.956l-4.151,18.555Z" transform="translate(79.71 104.332)" fill="#263238"/>
        <path id="Trazado_238013" data-name="Trazado 238013" d="M232.006,303.011s11.363,10.318,10.639,11.98c-.735,1.682-5.4-.113-7.271-1.744l5.964,8.311a2.352,2.352,0,0,1-.65,3.351c-4.133,2.636-14.021,5.765-21.832-16.88Z" transform="translate(97.111 134.452)" fill="#ffa8a7"/>
        <path id="Trazado_238014" data-name="Trazado 238014" d="M218.174,241.407s-10.523,20.214-13.9,52.335c-.533,5.065,19.974,44.94,19.974,44.94s13.6,1.548,16.669-8.7L224.7,293.615l6.8-29.37a15.747,15.747,0,0,0-.152-7.795c-1.4-5-4.855-12.643-13.174-15.044" transform="translate(90.637 107.117)" fill="#37474f"/>
      </g>
    </g>
    <g id="Grupo_165707" data-name="Grupo 165707">
      <g id="Grupo_165706" data-name="Grupo 165706" clip-path="url(#clip-path)">
        <path id="Trazado_238015" data-name="Trazado 238015" d="M364.372,67.536l14.573,8.379V70.7c-.023-.372-.046-.744-.046-1.107s.023-.709.046-1.054v-.121h.006c.524-6.908,5.7-9.555,12.017-5.869a23.44,23.44,0,0,1,7.175,6.965c1.425-9.383,9-12.768,18.155-7.427,10.169,5.934,18.415,20.365,18.415,32.232l.009,11.166a5.083,5.083,0,0,0,2.48,4.372l8.573,5.082a12.52,12.52,0,0,1,6.105,10.774,5.089,5.089,0,0,1-7.636,4.454l-79.653-46.5a14.093,14.093,0,0,1-6.956-12.179,4.508,4.508,0,0,1,6.736-3.959" transform="translate(158.69 26.426)" fill="#e6e6e6"/>
        <path id="Trazado_238016" data-name="Trazado 238016" d="M356.446,19.634l9.412,5.411V21.68c-.014-.24-.03-.479-.03-.716s.016-.458.03-.68v-.078h0c.338-4.461,3.68-6.172,7.761-3.791a15.155,15.155,0,0,1,4.634,4.5c.92-6.059,5.811-8.247,11.723-4.8,6.569,3.832,11.893,13.151,11.893,20.816l.006,7.211a3.286,3.286,0,0,0,1.6,2.824l5.537,3.282a8.088,8.088,0,0,1,3.944,6.959,3.288,3.288,0,0,1-4.932,2.877L356.587,30.056a9.1,9.1,0,0,1-4.491-7.865,2.911,2.911,0,0,1,4.35-2.557" transform="translate(156.232 6.425)" fill="#e6e6e6"/>
      </g>
    </g>
  </g>
</svg>
