<svg xmlns="http://www.w3.org/2000/svg" width="118" height="119" viewBox="0 0 118 119">
  <g id="Grupo_166659" data-name="Grupo 166659" transform="translate(-530 -1083)">
    <ellipse id="Elipse_5158" data-name="Elipse 5158" cx="59" cy="59.5" rx="59" ry="59.5" transform="translate(530 1083)" fill="#ffb500" opacity="0.7"/>
    <g id="Grupo_165719" data-name="Grupo 165719" transform="translate(548.5 1102.83)">
      <g id="Grupo_165057" data-name="Grupo 165057">
        <path id="Trazado_146621" data-name="Trazado 146621" d="M80.5,37.033v6.434c-.15.881-.314,1.759-.448,2.642A38.543,38.543,0,0,1,68.629,68.6C58.234,78.658,45.8,82.242,31.612,79.39,15.586,76.168,2.689,62.3.448,46.119.318,45.18.15,44.246,0,43.31V36.876a1.794,1.794,0,0,0,.158-.391c.208-1.368.359-2.746.615-4.1A40.186,40.186,0,0,1,34.305.443C35.189.316,36.067.149,36.948,0h6.446A1.113,1.113,0,0,0,43.7.15c1.449.209,2.914.337,4.347.622A40.113,40.113,0,0,1,80.062,34.309c.134.91.291,1.816.438,2.724M53.459,65.567a1.455,1.455,0,0,1-.193-1.927c.2-.334.33-.71.5-1.062a1.181,1.181,0,0,0-.326-1.529c-1.818-1.792-1.942-2.814-.72-5.076.331-.613.646-1.235,1.013-1.938L49.01,51.75a22.531,22.531,0,0,1-.038,8.349,61.658,61.658,0,0,1-4.192,13.423c-.11.261-.2.531-.3.8a1.186,1.186,0,0,0,.671-.383c1.536-1.713,3.085-3.415,4.589-5.155.547-.633,1.094-1.049,1.954-.67.665.884.693,1.23-.015,2.057-1.388,1.62-2.812,3.208-4.221,4.81l-2.609,2.6c.122.051.166.084.209.084a2.938,2.938,0,0,0,.391-.026,37.836,37.836,0,0,0,19.882-9.126c2.206-1.928,2.261-1.93,2.1-4.847a7.031,7.031,0,0,0-2.653-5.295A23.165,23.165,0,0,0,62.2,56.954c-1.23-.5-2.521-.846-3.794-1.231-.816-.247-1.815-.824-2.424-.556s-.879,1.393-1.276,2.153c-.553,1.056-.539,1.1.305,1.947,1.446,1.451,1.658,2.495.877,4.373-.15.361-.32.713-.5,1.062-.514,1.013-.853,1.161-1.932.865m-8.5-52.033c-3.611-.01-7.221-.032-10.832-.026a7.17,7.17,0,0,0-7.364,6.919A1.3,1.3,0,0,1,25.6,21.84c-.98-.263-1.241-.614-1.2-1.611a9.5,9.5,0,0,1,9.2-9.056c4.27-.071,8.542-.037,12.812-.009A4.742,4.742,0,0,1,50.9,14.48a13.988,13.988,0,0,1,.293,1.457,1.232,1.232,0,0,0,.215.057,4.793,4.793,0,0,1,4.692,5.055q.015,5.727,0,11.454A3.148,3.148,0,0,1,54,35.667a.978.978,0,0,0-.516.623,11.823,11.823,0,0,1-3.9,7.573,4.183,4.183,0,0,0-1.628,4.165c.01.077-.026.171.007.232.087.163.164.39.307.456,3.475,1.607,6.76,3.613,10.5,4.673,2.5.709,5.086,1.271,7.25,2.858a10.131,10.131,0,0,1,3.8,7.4c.094-.014.128-.009.14-.023.069-.078.136-.158.2-.242,7.421-9.843,9.829-20.809,6.713-32.706C73.575,18.1,65.561,9.49,53.454,4.731A34.167,34.167,0,0,0,40.877,2.39c-1.724.082-3.461.053-5.169.265C25.67,3.906,17.222,8.32,10.985,16.237,1.118,28.761-.285,42.474,6.306,56.975A31.1,31.1,0,0,0,10.6,63.692c.055-.092.093-.128.1-.167a9.746,9.746,0,0,1,7.549-9.048A58.876,58.876,0,0,0,30.3,49.694c.729-.4,1.764-.591,2.135-1.2s.077-1.624.12-2.458a1.188,1.188,0,0,0-.518-1.115,13.146,13.146,0,0,1-5.02-8.66.983.983,0,0,0-.541-.606,3.1,3.1,0,0,1-2.077-3.027c-.022-2.092-.011-4.184,0-6.276,0-.921.271-1.234,1.186-1.463,1.644.22.98,1.615,1.227,2.508,1.714.238,2.743.023,2.624-2.211a4.652,4.652,0,0,1,.366-2.045,3.763,3.763,0,0,1,4.789-1.975,18.232,18.232,0,0,0,10.406.214c.354-.086.711-.162,1.061-.261a3.682,3.682,0,0,1,4.631,2.011,9.6,9.6,0,0,1,.4,2.821A1.408,1.408,0,0,0,52.6,27.46c.357.01.714,0,1.12,0,0-2.39.081-4.682-.031-6.965A2.3,2.3,0,0,0,51.3,18.355a2.525,2.525,0,0,1-2.58-2.5,3.235,3.235,0,0,0-.7-1.583c-.8-.979-1.966-.784-3.061-.735M40.72,45.36a10.521,10.521,0,0,0,10.468-9.876c.2-1.4.5-1.706,1.836-2.057a1.064,1.064,0,0,0,.684-.682c.081-.951.032-1.912.032-2.926-.47,0-.858.006-1.246,0a3.679,3.679,0,0,1-3.763-3.769c-.005-.418.017-.837-.007-1.253a1.448,1.448,0,0,0-1.875-1.427c-.636.142-1.257.346-1.885.522-2.08.149-4.163.446-6.238.4a22.06,22.06,0,0,1-4.614-.815c-1.6-.387-2.342.119-2.346,1.781,0,.314,0,.627,0,.941a3.675,3.675,0,0,1-3.6,3.617c-.46.015-.92,0-1.413,0,0,1,0,1.885,0,2.771a.8.8,0,0,0,.786.883,1.772,1.772,0,0,1,1.744,1.857,10.719,10.719,0,0,0,2,5.442A10.579,10.579,0,0,0,40.72,45.36M35.692,77.7c-1.632-1.728-3.189-3.308-4.669-4.957a36.288,36.288,0,0,1-6.226-8.71,7.1,7.1,0,0,1-.579-1.7,3.25,3.25,0,0,1,1.238-3.05c.89-.839.88-.906.35-1.942-.31-.6-.653-1.194-.927-1.814-.195-.442-.426-.575-.9-.418-1.963.643-3.954,1.2-5.9,1.892a7.053,7.053,0,0,0-4.784,5.282,24.526,24.526,0,0,0-.249,3.425,1.511,1.511,0,0,0,.525,1.3A37.86,37.86,0,0,0,24.914,74.76,37.48,37.48,0,0,0,35.692,77.7m.116-3.282L36,74.313c-.082-.237-.158-.476-.247-.711-.829-2.2-1.736-4.368-2.473-6.6a34.942,34.942,0,0,1-2.15-11.953c.029-1.061.166-2.119.26-3.259-1.436.7-2.849,1.364-4.235,2.081-.128.066-.195.5-.112.681.343.761.765,1.485,1.136,2.234a3.1,3.1,0,0,1-.543,3.69,6.253,6.253,0,0,1-.665.666.986.986,0,0,0-.273,1.327A14.157,14.157,0,0,0,27.829,64.7q2.592,3.485,5.32,6.869c.813,1.009,1.768,1.9,2.659,2.849m9.7-27.705a13.687,13.687,0,0,1-10.7-.07c.1.9-.1,1.879.306,2.384,1.635,2.058,3.452,3.973,5.251,6,1.393-1.635,2.678-3.286,4.121-4.786a3.542,3.542,0,0,0,1.018-3.525m-5.4,30.837.274.009c.874-1.972,1.751-3.942,2.615-5.918a.751.751,0,0,0,.009-.45q-.918-3.637-1.853-7.273H39.339c-.613,2.42-1.218,4.8-1.81,7.175a1.007,1.007,0,0,0,0,.594c.849,1.959,1.72,3.91,2.585,5.862m-6.06-26.085A12.845,12.845,0,0,0,33.6,57.41c.106.7.856,1.311,1.368,1.915.081.1.523.02.689-.112,1.018-.807,2-1.653,3.038-2.517l-4.648-5.229m8,5.223,2.787,2.384a.636.636,0,0,0,1.015-.055,3.364,3.364,0,0,0,1.174-2.757c-.075-.617.028-1.255-.038-1.874-.1-.926-.275-1.844-.449-2.966L42.05,56.691m4.271,4.958c-.568,0-.957.026-1.341-.006-.655-.055-1.707.934-1.561,1.57.324,1.415.713,2.814,1.076,4.22l.158.006,1.668-5.79m-10.468,5.8L36,67.443a33.907,33.907,0,0,0,1.022-4.234c.057-.458-.6-1.183-1.1-1.476-.407-.235-1.085,0-1.722.027l1.655,5.693m6.593-7.319-2.073-1.765L38.08,60.3c1.325,1.853,3.19,1.763,4.366-.164m-6.367,14.5.027-.042-.038-.007Zm8.34-.071-.024.047.04,0Z" fill="#030303"/>
        <path id="Trazado_146625" data-name="Trazado 146625" d="M34.108,33.9c-.915.23-1.183.543-1.186,1.463-.008,2.092-.018,4.184,0,6.276A3.1,3.1,0,0,0,35,44.669a.983.983,0,0,1,.541.606,13.146,13.146,0,0,0,5.02,8.66,1.188,1.188,0,0,1,.518,1.115c-.043.834.255,1.844-.12,2.458s-1.406.8-2.135,1.2a58.881,58.881,0,0,1-12.052,4.782,9.746,9.746,0,0,0-7.549,9.048c0,.04-.043.076-.1.168a31.108,31.108,0,0,1-4.291-6.716c-6.591-14.5-5.187-28.214,4.679-40.739C25.753,17.331,34.2,12.917,44.239,11.667c1.707-.213,3.445-.183,5.169-.265a4.537,4.537,0,0,0,.684.421c2.107.84,4.277,1.546,6.316,2.524a36.909,36.909,0,0,1,7.435,4.873A39.227,39.227,0,0,1,76.485,38.714,34.972,34.972,0,0,1,77.856,47.7a36.752,36.752,0,0,1-.176,5.149,63.819,63.819,0,0,1-1.315,7.1c-.448,1.81-1.2,3.545-1.819,5.313-2.164-1.587-4.753-2.149-7.25-2.858-3.735-1.061-7.02-3.067-10.5-4.673-.144-.066-.22-.293-.307-.456-.033-.061,0-.155-.007-.232a4.184,4.184,0,0,1,1.628-4.165,11.823,11.823,0,0,0,3.9-7.573.978.978,0,0,1,.516-.623,3.148,3.148,0,0,0,2.11-3.165q.011-5.727,0-11.454A4.793,4.793,0,0,0,59.944,25a1.223,1.223,0,0,1-.215-.057,14.044,14.044,0,0,0-.293-1.457,4.742,4.742,0,0,0-4.491-3.316c-4.271-.028-8.543-.062-12.812.009a9.5,9.5,0,0,0-9.2,9.056c-.041,1,.22,1.348,1.2,1.611l-.021,3.05" transform="translate(-8.531 -9.012)" fill="#dee4f0"/>
        <path id="Trazado_146626" data-name="Trazado 146626" d="M220.127,65.259c.618-1.768,1.371-3.5,1.819-5.313a63.836,63.836,0,0,0,1.315-7.1,36.753,36.753,0,0,0,.176-5.149,34.973,34.973,0,0,0-1.371-8.981A39.227,39.227,0,0,0,209.424,19.22a36.912,36.912,0,0,0-7.435-4.873c-2.039-.978-4.209-1.684-6.316-2.524a4.522,4.522,0,0,1-.684-.422,34.16,34.16,0,0,1,12.577,2.341c12.107,4.758,20.121,13.37,23.414,25.944,3.116,11.9.708,22.863-6.713,32.706-.063.083-.13.164-.2.242-.012.014-.046.008-.14.023a10.13,10.13,0,0,0-3.8-7.4" transform="translate(-154.113 -9.012)" fill="#d2e1f1"/>
        <path id="Trazado_146627" data-name="Trazado 146627" d="M141.566,133.4a10.579,10.579,0,0,1-9.436-4.591,10.719,10.719,0,0,1-2-5.442,1.772,1.772,0,0,0-1.744-1.857.8.8,0,0,1-.786-.883c0-.886,0-1.772,0-2.771.492,0,.953.013,1.413,0a3.675,3.675,0,0,0,3.6-3.617c.008-.313,0-.627,0-.941,0-1.662.747-2.168,2.346-1.781a22.06,22.06,0,0,0,4.614.815c2.075.047,4.158-.25,6.238-.4,0,4.077.01,8.154,0,12.23a11.173,11.173,0,0,1-2.039,6.611c-.662.928-1.465,1.755-2.2,2.628" transform="translate(-100.845 -88.041)" fill="#fddbcd"/>
        <path id="Trazado_146628" data-name="Trazado 146628" d="M84.842,285.259a37.48,37.48,0,0,1-10.778-2.942,37.86,37.86,0,0,1-11.346-7.745,1.511,1.511,0,0,1-.525-1.3,24.525,24.525,0,0,1,.249-3.425,7.053,7.053,0,0,1,4.784-5.282c1.945-.691,3.937-1.249,5.9-1.892.477-.156.708-.023.9.418.274.62.617,1.21.927,1.814.531,1.036.54,1.1-.35,1.942a3.25,3.25,0,0,0-1.238,3.05,7.1,7.1,0,0,0,.579,1.7,36.294,36.294,0,0,0,6.226,8.71c1.48,1.649,3.037,3.23,4.669,4.957" transform="translate(-49.15 -207.557)" fill="#497fa8"/>
        <path id="Trazado_146629" data-name="Trazado 146629" d="M122.007,75.817l.021-3.05a1.3,1.3,0,0,0,1.163-1.412,7.17,7.17,0,0,1,7.364-6.919c3.611-.006,7.221.016,10.832.026q.016,3.923.032,7.846a18.233,18.233,0,0,1-10.407-.214,3.763,3.763,0,0,0-4.789,1.975,4.655,4.655,0,0,0-.365,2.045c.119,2.235-.91,2.449-2.624,2.211-.247-.893.417-2.288-1.227-2.508" transform="translate(-96.43 -50.927)" fill="#365d7c"/>
        <path id="Trazado_146630" data-name="Trazado 146630" d="M194.244,133.279c.739-.873,1.543-1.7,2.2-2.628a11.173,11.173,0,0,0,2.039-6.611c.01-4.077,0-8.154,0-12.23.628-.176,1.25-.38,1.885-.522a1.449,1.449,0,0,1,1.875,1.427c.024.417,0,.836.007,1.253a3.679,3.679,0,0,0,3.763,3.769c.388.007.775,0,1.246,0,0,1.014.048,1.976-.032,2.926a1.064,1.064,0,0,1-.684.682c-1.332.351-1.641.655-1.836,2.057a10.522,10.522,0,0,1-10.468,9.876" transform="translate(-153.524 -87.919)" fill="#fdc9bc"/>
        <path id="Trazado_146631" data-name="Trazado 146631" d="M233.886,278.447a7.031,7.031,0,0,1,2.653,5.295c.166,2.917.111,2.918-2.1,4.847a37.837,37.837,0,0,1-19.882,9.126,2.939,2.939,0,0,1-.391.026c-.043,0-.086-.033-.209-.084l2.609-2.6c.157.012.341.084.465.026.377-.176.725-.414,1.1-.607a38.259,38.259,0,0,0,8.388-6.1,37.86,37.86,0,0,0,5.542-6.659c.692-1.032,1.222-2.173,1.825-3.265" transform="translate(-169.108 -220.075)" fill="#3f6f92"/>
        <path id="Trazado_146632" data-name="Trazado 146632" d="M243.721,266.1c-.6,1.092-1.133,2.232-1.825,3.265a37.86,37.86,0,0,1-5.542,6.659,38.258,38.258,0,0,1-8.388,6.1c-.37.193-.718.431-1.1.607-.124.058-.308-.014-.465-.026,1.409-1.6,2.833-3.19,4.221-4.81.708-.826.68-1.173.015-2.057l1.76-2.544c1.08.3,1.419.148,1.932-.865.177-.348.347-.7.5-1.062.781-1.878.569-2.922-.877-4.373-.844-.847-.858-.891-.305-1.947.4-.759.654-1.879,1.276-2.153s1.608.309,2.424.556c1.273.385,2.564.735,3.794,1.231a23.162,23.162,0,0,1,2.578,1.418" transform="translate(-178.943 -207.731)" fill="#497fa8"/>
        <path id="Trazado_146633" data-name="Trazado 146633" d="M221.171,260.674l-1.76,2.544c-.86-.379-1.407.037-1.954.67-1.5,1.74-3.053,3.442-4.589,5.155a1.185,1.185,0,0,1-.671.383c.1-.266.186-.536.3-.8a61.657,61.657,0,0,0,4.192-13.423,22.536,22.536,0,0,0,.038-8.349l4.726,2.286c-.367.7-.682,1.325-1.013,1.938-1.222,2.262-1.1,3.284.72,5.076a1.181,1.181,0,0,1,.326,1.529c-.173.351-.3.728-.5,1.062a1.455,1.455,0,0,0,.193,1.927" transform="translate(-167.712 -195.107)" fill="#355d7b"/>
        <path id="Trazado_146634" data-name="Trazado 146634" d="M135.93,269.694c-.891-.946-1.846-1.84-2.659-2.849q-2.726-3.382-5.32-6.869a14.166,14.166,0,0,1-1.128-2.231.986.986,0,0,1,.273-1.327,6.253,6.253,0,0,0,.665-.666,3.1,3.1,0,0,0,.543-3.69c-.371-.749-.793-1.473-1.136-2.234-.082-.183-.016-.614.112-.681,1.387-.718,2.8-1.385,4.235-2.081-.094,1.14-.231,2.2-.26,3.259a34.947,34.947,0,0,0,2.15,11.953c.737,2.227,1.644,4.4,2.473,6.6.088.235.165.474.247.711l-.194.108" transform="translate(-100.122 -195.274)" fill="#355c7b"/>
        <path id="Trazado_146635" data-name="Trazado 146635" d="M214.486,72.225q-.016-3.923-.032-7.846c1.095-.049,2.259-.244,3.061.735a3.234,3.234,0,0,1,.7,1.583,2.524,2.524,0,0,0,2.58,2.5,2.3,2.3,0,0,1,2.388,2.141c.113,2.283.031,4.575.031,6.965-.406,0-.763.008-1.12,0a1.408,1.408,0,0,1-1.518-1.506,9.6,9.6,0,0,0-.4-2.822,3.682,3.682,0,0,0-4.631-2.011c-.351.1-.708.174-1.061.261" transform="translate(-169.497 -50.844)" fill="#2b4c65"/>
        <path id="Trazado_146636" data-name="Trazado 146636" d="M176.755,222.577a3.542,3.542,0,0,1-1.018,3.525c-1.443,1.5-2.728,3.151-4.121,4.786-1.8-2.023-3.616-3.938-5.251-6-.4-.506-.21-1.481-.306-2.384a13.688,13.688,0,0,0,10.7.07" transform="translate(-131.247 -175.862)" fill="#fbdacb"/>
        <path id="Trazado_146637" data-name="Trazado 146637" d="M181.417,318.545c-.865-1.953-1.736-3.9-2.585-5.863a1.006,1.006,0,0,1,0-.594c.593-2.379,1.2-4.755,1.81-7.175h1.816q.93,3.64,1.853,7.273a.749.749,0,0,1-.009.45c-.864,1.976-1.741,3.946-2.615,5.918l-.274-.009" transform="translate(-141.308 -240.992)" fill="#a3314f"/>
        <path id="Trazado_146638" data-name="Trazado 146638" d="M160.126,245.509l4.648,5.229c-1.034.864-2.02,1.71-3.038,2.517-.167.132-.609.207-.689.112-.512-.6-1.261-1.218-1.368-1.915a12.845,12.845,0,0,1,.448-5.943" transform="translate(-126.077 -194.042)" fill="#eff6fa"/>
        <path id="Trazado_146639" data-name="Trazado 146639" d="M200.586,250.566l4.489-5.267c.174,1.122.351,2.04.449,2.966.066.619-.037,1.257.038,1.874a3.365,3.365,0,0,1-1.174,2.757.636.636,0,0,1-1.015.055l-2.787-2.384" transform="translate(-158.536 -193.876)" fill="#eff6fa"/>
        <path id="Trazado_146640" data-name="Trazado 146640" d="M209.966,294.046l-1.668,5.79-.158-.006c-.363-1.406-.752-2.805-1.076-4.22-.146-.636.906-1.625,1.561-1.57.384.032.773.006,1.341.006" transform="translate(-163.646 -232.397)" fill="#ddeff7"/>
        <path id="Trazado_146641" data-name="Trazado 146641" d="M164.783,299.8l-1.655-5.693c.637-.029,1.315-.262,1.722-.027.508.293,1.161,1.018,1.1,1.476a33.871,33.871,0,0,1-1.022,4.234l-.149.009" transform="translate(-128.93 -232.351)" fill="#deeff8"/>
        <path id="Trazado_146642" data-name="Trazado 146642" d="M186.017,280.188c-1.176,1.927-3.041,2.017-4.366.164l2.293-1.929,2.073,1.765" transform="translate(-143.571 -220.056)" fill="#a3314f"/>
        <path id="Trazado_146643" data-name="Trazado 146643" d="M172.062,355.831l-.011-.049.039.007Z" transform="translate(-135.983 -281.198)" fill="#355c7b"/>
        <path id="Trazado_146644" data-name="Trazado 146644" d="M211.8,355.679l.017.051-.04,0Z" transform="translate(-167.377 -281.116)" fill="#355d7b"/>
      </g>
    </g>
  </g>
</svg>
