<svg xmlns="http://www.w3.org/2000/svg" width="118" height="119" viewBox="0 0 118 119">
  <g id="Grupo_166660" data-name="Grupo 166660" transform="translate(-741 -1083)">
    <ellipse id="Elipse_5159" data-name="Elipse 5159" cx="59" cy="59.5" rx="59" ry="59.5" transform="translate(741 1083)" fill="#ffb500" opacity="0.7"/>
    <g id="Grupo_165720" data-name="Grupo 165720" transform="translate(750.818 1104.82)">
      <g id="Grupo_165064" data-name="Grupo 165064" transform="translate(13.787 0.905)">
        <g id="Grupo_165061" data-name="Grupo 165061" transform="translate(0 0)">
          <g id="Grupo_165065" data-name="Grupo 165065">
            <g id="Grupo_165059" data-name="Grupo 165059">
              <g id="Grupo_165066" data-name="Grupo 165066">
                <path id="Trazado_146646" data-name="Trazado 146646" d="M20.962,56.274c-1.234.216-1.61.04-2.165-1.094-1.356-2.767-2.859-5.476-4.011-8.327A15.455,15.455,0,0,1,40.124,30.514a15.542,15.542,0,0,1,3.132,17.75Q37.639,59.524,32.012,70.78c-.115.23-.225.463-.379.782h.534q20.61,0,41.219,0a4.4,4.4,0,0,0,4.635-3.389,5.865,5.865,0,0,0,.132-1.423q.014-6.942,0-13.884a4.416,4.416,0,0,0-4.776-4.8c-4.268-.009-8.536.011-12.8-.007a7.337,7.337,0,0,1-7.407-5.871,8.926,8.926,0,0,1-.15-1.787q-.018-6.978,0-13.956a7.313,7.313,0,0,1,5.707-7.458,9.645,9.645,0,0,1,2.067-.2c2.586-.022,5.172-.009,7.834-.009v-.805q0-7.625,0-15.25a3.167,3.167,0,0,1,.089-.923A1.1,1.1,0,0,1,69.848.9c4.172.012,8.345,0,12.517.009A1.251,1.251,0,0,1,83.532,2.5a3.089,3.089,0,0,1-.368.773c-.843,1.392-1.683,2.785-2.553,4.16a.775.775,0,0,0,0,.963c.859,1.353,1.68,2.731,2.528,4.091a1.667,1.667,0,0,1,.245,1.812,1.649,1.649,0,0,1-1.662.752c-3.141-.009-6.282,0-9.424,0h-.8v.8c0,3.021.006,6.043,0,9.064,0,1.259-.894,2-1.921,1.615A1.467,1.467,0,0,1,68.622,25c0-1.079-.014-2.157-.025-3.235,0-.016-.032-.032-.017-.018-3,0-5.965-.093-8.925.033a4.046,4.046,0,0,0-3.69,3.864c-.1,2.2-.062,4.41-.069,6.615-.009,2.71-.013,5.419,0,8.129a4.468,4.468,0,0,0,4.806,4.8c4.292.011,8.584-.014,12.876.008a7.28,7.28,0,0,1,7.347,6.009,8.535,8.535,0,0,1,.108,1.575q.012,7.014,0,14.028A7.31,7.31,0,0,1,73.4,74.439q-21.833,0-43.665.014a1.883,1.883,0,0,1-1.923-1.171c-1.133-2.347-2.321-4.667-3.481-7a1.572,1.572,0,0,1,.436-2.329c1.2-.23,1.6-.034,2.164,1.094.773,1.539,1.543,3.079,2.343,4.678.125-.209.232-.363.314-.529C33.3,61.767,37.023,54.347,40.7,46.9a11.735,11.735,0,0,0,.9-7.984,12.533,12.533,0,0,0-14.075-9.811c-7.819.99-12.94,9.428-10.042,16.758,1.087,2.75,2.567,5.345,3.871,8.01.562,1.148.5,1.553-.392,2.4M79.536,3.691H71.541v8.423h7.977c-.659-1.083-1.237-2.1-1.879-3.067a1.853,1.853,0,0,1,0-2.259c.651-.993,1.245-2.025,1.9-3.1" transform="translate(-13.787 -0.905)" fill="#030303"/>
                <path id="Trazado_146647" data-name="Trazado 146647" d="M38,222.7c.891-.846.954-1.25.392-2.4-1.3-2.665-2.784-5.26-3.871-8.01-2.9-7.33,2.224-15.768,10.042-16.758a12.533,12.533,0,0,1,14.075,9.811,11.735,11.735,0,0,1-.9,7.984c-3.679,7.444-7.406,14.865-11.116,22.293-.083.166-.189.32-.314.529-.8-1.6-1.57-3.14-2.343-4.678-.567-1.128-.959-1.324-2.164-1.094l-1.235-2.555c.745-.628.941-1.259.6-1.932-.327-.645-.937-.853-1.922-.654L38,222.7M55.492,207.99a9.163,9.163,0,1,0-9.115,9.171,9.145,9.145,0,0,0,9.115-9.171" transform="translate(-30.825 -167.329)" fill="#a3314f"/>
                <path id="Trazado_146648" data-name="Trazado 146648" d="M67.482,401.446c.985-.2,1.595.01,1.922.655.341.673.146,1.3-.6,1.932-.99.236-1.618.019-1.952-.673-.324-.671-.124-1.277.63-1.913" transform="translate(-59.06 -343.539)" fill="#060404"/>
                <path id="Trazado_146649" data-name="Trazado 146649" d="M421.69,20.2c-.653,1.072-1.247,2.1-1.9,3.1a1.853,1.853,0,0,0,0,2.259c.643.971,1.22,1.984,1.879,3.067H413.7V20.2Z" transform="translate(-355.941 -17.413)" fill="#d2e1f1"/>
                <path id="Trazado_146650" data-name="Trazado 146650" d="M76.019,228.218a9.163,9.163,0,1,1-9.134-9.155,9.134,9.134,0,0,1,9.134,9.155m-2.883.03a6.282,6.282,0,1,0-6.333,6.258,6.293,6.293,0,0,0,6.333-6.258" transform="translate(-51.352 -187.557)" fill="#020201"/>
                <path id="Trazado_146651" data-name="Trazado 146651" d="M90.2,245.318a6.282,6.282,0,1,1-6.222-6.3,6.283,6.283,0,0,1,6.222,6.3" transform="translate(-68.415 -204.628)" fill="#9fe356"/>
              </g>
            </g>
          </g>
        </g>
      </g>
    </g>
  </g>
</svg>
