<svg xmlns="http://www.w3.org/2000/svg" width="118" height="119" viewBox="0 0 118 119">
  <g id="Grupo_166664" data-name="Grupo 166664" transform="translate(4108 11231)">
    <ellipse id="Elipse_5163" data-name="Elipse 5163" cx="59" cy="59.5" rx="59" ry="59.5" transform="translate(-4108 -11231)" fill="#ffb500" opacity="0.7"/>
    <g id="Grupo_165752" data-name="Grupo 165752" transform="translate(-4087.886 -11211.127)">
      <g id="Grupo_165080" data-name="Grupo 165080" transform="translate(0.765 0.544)">
        <path id="Trazado_146735" data-name="Trazado 146735" d="M209.306,231.866c-.783-.628-.792-1.581-1.054-2.436a1.047,1.047,0,0,0-.6-.6c-.213-.069-.508.114-.765.195-.041.013-.067.073-.1.111-1.58,1.718-1.593,1.742-3.625.672-.917-.483-1.777-1.075-2.655-1.629a1.372,1.372,0,0,1-.6-1.718,8.386,8.386,0,0,0,.368-1.156,1.541,1.541,0,0,0-.154-.845c-.184-.383-.509-.376-.9-.233-2.437.9-2.38.578-3.585-1.281-.549-.847-.994-1.764-1.464-2.661a1.33,1.33,0,0,1,.3-1.727,10.543,10.543,0,0,1,.969-.859c.344-.25.479-.553.26-.9a1.224,1.224,0,0,0-.662-.554c-2.643-.5-2.372-.849-2.371-3.016,0-.915-.006-1.83,0-2.746a1.391,1.391,0,0,1,1.277-1.6,6.069,6.069,0,0,0,1.036-.233,1.8,1.8,0,0,0,.726-.6c.241-.358,0-.623-.287-.886-1.759-1.583-1.776-1.6-.686-3.678.482-.917,1.062-1.785,1.633-2.653a1.315,1.315,0,0,1,1.654-.574,5.82,5.82,0,0,0,1.162.349,1.807,1.807,0,0,0,.922-.174c.42-.2.292-.559.177-.913-.716-2.2-.726-2.223,1.217-3.475.871-.561,1.807-1.021,2.721-1.514a1.339,1.339,0,0,1,1.778.34,7.632,7.632,0,0,0,.829.892,1.493,1.493,0,0,0,.816.318c.389.015.571-.235.655-.661.445-2.245.34-2.464,3.05-2.409.864.018,1.729-.006,2.593.005,1.106.015,1.485.331,1.73,1.42a5.022,5.022,0,0,0,.211.963,1.669,1.669,0,0,0,.564.658c.361.245.645.051.9-.264,1.8-2.242,2-1.538,3.734-.673a29.192,29.192,0,0,1,2.589,1.593,1.358,1.358,0,0,1,.588,1.719,7.083,7.083,0,0,0-.364,1.157,1.122,1.122,0,0,0,.184.837.964.964,0,0,0,.828.213c2.325-.791,2.341-.73,3.646,1.337.526.834.962,1.724,1.434,2.592a1.365,1.365,0,0,1-.373,1.836,6.43,6.43,0,0,0-.9.823,1.116,1.116,0,0,0-.244.824,1.1,1.1,0,0,0,.624.588,8.04,8.04,0,0,0,1.258.287,1.275,1.275,0,0,1,1.106,1.1q0,2.455-.01,4.91a1.338,1.338,0,0,1-1.162,1.049c-.346.077-.7.13-1.044.211s-.7.106-.823.613a.831.831,0,0,0,.384.957c.3.239.566.509.849.764a1.33,1.33,0,0,1,.336,1.775c-.482.89-.932,1.8-1.474,2.653-1.2,1.889-1.18,2.125-3.593,1.293a.958.958,0,0,0-.822.182,1.093,1.093,0,0,0-.221.833,8.907,8.907,0,0,0,.4,1.3,1.29,1.29,0,0,1-.58,1.583c-.893.577-1.781,1.17-2.72,1.664-2.03,1.068-2.045,1.046-3.566-.641-.257-.285-.45-.535-.942-.4s-.547.415-.63.813c-.18.863-.192,1.831-1.192,2.269Zm16.813-28.9a3.366,3.366,0,0,1-4.559-4.558l-2.052-1.207c-.865,1.337-1.8,2.045-3.682,1.51-1.775-.506-2.5-1.373-2.541-3.066h-.949c-1.386,0-1.4,0-1.695,1.364a1.6,1.6,0,0,1-1.318,1.387c-.668.142-1.331.322-1.982.528a1.432,1.432,0,0,1-1.639-.47c-.364-.412-.74-.814-1.111-1.219l-1.98,1.166a3.38,3.38,0,0,1-4.581,4.569l-1.2,2.075a2.816,2.816,0,0,1,1.517,3.657c-.5,1.763-1.355,2.523-3.03,2.525v2.464c1.743-.037,2.512.786,3.029,2.493.564,1.863-.18,2.809-1.487,3.707.175.313.295.534.422.751.725,1.24.734,1.264,2.1.792a1.587,1.587,0,0,1,1.966.511,2.4,2.4,0,0,0,.468.5,2.527,2.527,0,0,1,.972,3.652.59.59,0,0,0,.134.559c.538.363,1.117.666,1.747,1.03a2.875,2.875,0,0,1,3.682-1.5c1.791.484,2.483,1.4,2.521,3.036h2.474c-.08-1.769.773-2.515,2.474-3.037,1.869-.574,2.813.191,3.714,1.5l2.035-1.2a3.36,3.36,0,0,1,4.555-4.552l1.193-2.039c-1.3-.909-2.065-1.795-1.507-3.667.52-1.747,1.316-2.555,3.027-2.55v-2.462c-1.731.011-2.5-.795-3.02-2.512-.579-1.9.223-2.8,1.5-3.7l-1.2-2.028" transform="translate(-153.463 -153.701)" fill="#030303"/>
        <path id="Trazado_146736" data-name="Trazado 146736" d="M272.033,17.077c-.7.422-1.388.874-2.11,1.258-.663.353-.824.741-.469,1.389.012.022.023.045.036.067,1.219,2.044,1.28,1.779-.3,4.088-.029.042-.066.078-.091.122a2.262,2.262,0,0,1-3.142,1.093,1.386,1.386,0,0,0-.738-.121.832.832,0,0,0-.675.871c-.194,2.495.039,2.254-2.607,3.23-.308.113-.647.141-.954.254a1.451,1.451,0,0,1-1.71-.468c-.273-.3-.535-.613-.8-.922-.609-.711-.857-.707-1.486.022-.282.327-.563.655-.847.98a1.327,1.327,0,0,1-1.511.425c-.842-.273-1.678-.564-2.519-.84a1.421,1.421,0,0,1-1.062-1.334q-.048-.608-.1-1.215c-.077-.908-.43-1.234-1.288-.907a2.486,2.486,0,0,1-3.429-1.263,2.97,2.97,0,0,0-.337-.506,2.327,2.327,0,0,1-.1-3.223c.762-1.094.62-1.36-.6-1.9-.3-.133-.61-.25-.9-.4a1.325,1.325,0,0,1-.807-1.27q0-1.411,0-2.821a1.3,1.3,0,0,1,.806-1.268c.481-.228.972-.433,1.451-.662a.756.756,0,0,0,.384-1.122,1.657,1.657,0,0,0-.225-.4,2.418,2.418,0,0,1,.113-3.535,1.867,1.867,0,0,0,.218-.311,2.484,2.484,0,0,1,3.425-1.272c.889.34,1.332,0,1.275-.966a2.527,2.527,0,0,1,2.226-2.911c.493-.116.983-.253,1.464-.411a1.356,1.356,0,0,1,1.565.466c.333.383.663.77,1,1.153a.658.658,0,0,0,1.141-.013c.347-.405.691-.813,1.048-1.209a1.289,1.289,0,0,1,1.445-.41c.866.281,1.733.561,2.593.861a1.4,1.4,0,0,1,1.025,1.36c.018.456.089.91.124,1.366.049.633.366.909,1,.784a1.428,1.428,0,0,0,.3-.053,2.383,2.383,0,0,1,3.363,1.213,2.676,2.676,0,0,0,.307.435,2.353,2.353,0,0,1,.094,3.4c-.633.78-.483,1.424.549,1.781a2.923,2.923,0,0,1,1.857,1.287ZM247.977,8.605c.239.414.521.839.734,1.3a1.85,1.85,0,0,1,.261,1c-.273,1.424-.514,2.906-2.29,3.308-.458.1-.619.384-.61.878.008.472.113.771.588.9a2.875,2.875,0,0,1,2.116,2.321,2.67,2.67,0,0,1-.3,2.443,9.382,9.382,0,0,0-.494.853c.284.925.831,1.066,1.656.817a2.349,2.349,0,0,1,1.537-.035c1.333.643,2.514,1.49,2.375,3.251a.768.768,0,0,0,.569.905c.532.2.71-.109,1-.386.469-.445.93-1.11,1.482-1.215,1.432-.272,2.917-.322,3.822,1.239.191.329.413.589.921.371a.893.893,0,0,0,.637-.873,3.47,3.47,0,0,1,.442-1.87c.972-1.081,2.119-2.034,3.784-1.354.361.148.675.216.981-.219a.915.915,0,0,0,.062-1.151,3.537,3.537,0,0,1-.69-1.787c.148-1.447.5-2.893,2.258-3.309a.751.751,0,0,0,.621-.876c-.008-.477-.124-.774-.6-.893a2.941,2.941,0,0,1-2.132-2.315,2.865,2.865,0,0,1,.472-2.709.9.9,0,0,0,.029-1.215c-.343-.49-.661-.283-1.051-.238a3.8,3.8,0,0,1-1.844.069c-1.318-.633-2.55-1.467-2.355-3.256a.763.763,0,0,0-.59-.9c-.533-.206-.709.114-1,.4-.444.438-.888,1.1-1.411,1.19-1.382.228-2.883.447-3.789-1.117a.636.636,0,0,0-.25-.28,1.663,1.663,0,0,0-.711-.177c-.942.087-.642.885-.717,1.41a3.13,3.13,0,0,1-3.847,2.706c-.814-.216-1.373-.14-1.671.818" transform="translate(-193.912 -0.708)" fill="#030303"/>
        <path id="Trazado_146738" data-name="Trazado 146738" d="M382.712,281.172l-.069,0-.067.014.01-4.91a.1.1,0,0,1,.126.017Z" transform="translate(-304.592 -219.944)" fill="#919191"/>
        <path id="Trazado_146739" data-name="Trazado 146739" d="M5.994,29.658a2.733,2.733,0,0,1-.874-.521A30.2,30.2,0,0,1,2.96,26.1a1.826,1.826,0,0,1,0-1.352,9.668,9.668,0,0,1,.889-1.589A1.214,1.214,0,0,0,3.2,21.232C.492,20.067.781,20.348.771,17.506s-.182-2.483,2.358-3.627c1.017-.458,1.23-1.078.68-2.027-.038-.066-.081-.129-.119-.2C2.378,9.376,2.4,9.83,3.827,7.545a1.916,1.916,0,0,1,.134-.185c1.793-2.242,1.373-2.1,4.012-1.477,1.135.269,1.651-.1,1.762-1.267,0-.025,0-.051.007-.076.2-2.82.058-2.513,2.7-3.4s2.269-.975,4.054,1.079c.3.342.491.906,1.108.764a1.809,1.809,0,0,0,.835-.372c.454-.44.839-.952,1.253-1.434A1.385,1.385,0,0,1,21.319.688c1,.346,2.019.666,3.027,1a1.442,1.442,0,0,1,1.061,1.341c.051.608.107,1.215.178,1.821a1.116,1.116,0,0,0,1.5,1.071c.521-.112,1.049-.2,1.558-.355a1.4,1.4,0,0,1,1.678.543q.989,1.35,1.945,2.724a1.381,1.381,0,0,1,.042,1.578c-.29.506-.585,1.01-.876,1.515a1.22,1.22,0,0,0,.648,1.925c2.735,1.2,2.41.847,2.41,3.731,0,2.74.321,2.474-2.344,3.616a1.25,1.25,0,0,0-.682,2.023c.025.044.055.085.081.129,1.363,2.365,1.418,1.927-.235,4.359-1.452,2.137-1.5,2.1-4.006,1.514-1.132-.266-1.594.047-1.741,1.179a1.675,1.675,0,0,0-.044.378A2.585,2.585,0,0,1,23.2,33.86c-.665.152-1.308.4-1.969.573a1.426,1.426,0,0,1-1.511-.487c-.4-.457-.8-.924-1.2-1.385a1.057,1.057,0,0,0-1.774,0c-.4.458-.806.916-1.2,1.384a1.338,1.338,0,0,1-1.5.48,28.479,28.479,0,0,1-3.295-1.145,1.96,1.96,0,0,1-.837-1.137,8.534,8.534,0,0,1-.193-1.737C9.618,29.323,9.1,28.956,8.05,29.2c-.642.15-1.286.286-2.055.457m22.467-2.839a.926.926,0,0,0,.341-.111,1.513,1.513,0,0,0,.392-2.185,6.286,6.286,0,0,1-.554-.995,2.308,2.308,0,0,1-.2-1.158c.365-1.7.91-3.294,2.939-3.682a.622.622,0,0,0,.276-.123.655.655,0,0,0,.216-.28,1.588,1.588,0,0,0-1.011-2.117,5.932,5.932,0,0,1-.966-.44A1.91,1.91,0,0,1,29.173,15c-.639-1.564-1.249-3.153.151-4.661.017-.018.024-.046.04-.065.344-.406.266-.737-.019-1.194-.427-.685-.873-.95-1.652-.626a3.044,3.044,0,0,1-1.186.243A2.132,2.132,0,0,1,25.3,8.412C22.873,6.52,23.232,7.528,22.907,4.5a1.928,1.928,0,0,0-.032-.378.575.575,0,0,0-.2-.291,1.362,1.362,0,0,0-2.093.325,3.283,3.283,0,0,1-2.635,1.5,3.435,3.435,0,0,1-3.346-1.609,1.713,1.713,0,0,0-.406-.45.669.669,0,0,0-.442-.143c-1.113.166-1.324.4-1.432,1.493a5.793,5.793,0,0,1-.133,1.132,2.541,2.541,0,0,1-.56,1.109C10.384,8.34,9.03,9.246,7.215,8.377a.8.8,0,0,0-.37-.077.682.682,0,0,0-.393.109A1.454,1.454,0,0,0,6.1,10.6a6.577,6.577,0,0,1,.562.99,2.07,2.07,0,0,1,.175,1.1c-.388,1.6-.745,3.27-2.774,3.641a1.038,1.038,0,0,0-.413.188.672.672,0,0,0-.261.322,1.533,1.533,0,0,0,1.054,2.091,4.087,4.087,0,0,1,.89.421,2.717,2.717,0,0,1,.848.914c.7,1.592,1.023,3.189-.326,4.653a.53.53,0,0,0-.15.26.92.92,0,0,0,.02.483c.555,1.138.764,1.232,1.979.943a3.615,3.615,0,0,1,.888-.2,2.806,2.806,0,0,1,1.3.214c2.187,1.3,2.269,1.479,2.466,4.022a1.194,1.194,0,0,0,.024.3.639.639,0,0,0,.184.3,1.421,1.421,0,0,0,2.112-.276,9.713,9.713,0,0,1,.75-.861,1.7,1.7,0,0,1,.809-.515c1.614-.176,3.3-.469,4.309,1.323a1.153,1.153,0,0,0,1.8.454,1.188,1.188,0,0,0,.527-.659,8.3,8.3,0,0,0,.161-1.512,2.19,2.19,0,0,1,.847-1.531,3.726,3.726,0,0,1,4.357-.914c.046.02.1.03.219.067" transform="translate(-0.765 -0.544)" fill="#030303"/>
        <path id="Trazado_146740" data-name="Trazado 146740" d="M50.5,196.922H34.135c-1.489,0-1.913-.42-1.913-1.893q0-10.409,0-20.818v-.724h2.6v20.783H50.5c0-.783-.008-1.538,0-2.293.016-1.3.842-1.892,2.009-1.4,2.917,1.232,5.819,2.5,8.73,3.742a1.333,1.333,0,0,1,.019,2.565c-2.935,1.253-5.863,2.524-8.807,3.757a1.3,1.3,0,0,1-1.949-1.316c-.016-.781,0-1.563,0-2.4m7.12-1.315-4.481-1.915v3.826l4.481-1.911" transform="translate(-25.796 -138.163)" fill="#030303"/>
        <rect id="Rectángulo_35774" data-name="Rectángulo 35774" width="10.357" height="2.517" transform="translate(36.473 14.439)" fill="#010101"/>
        <path id="Trazado_146741" data-name="Trazado 146741" d="M236.475,213.225l1.2,2.028c-1.276.9-2.078,1.8-1.5,3.7.524,1.718,1.289,2.523,3.02,2.512v2.462c-1.711,0-2.507.8-3.027,2.55-.558,1.873.205,2.758,1.507,3.667l-1.193,2.039a3.36,3.36,0,0,0-4.555,4.552l-2.035,1.2c-.9-1.307-1.846-2.071-3.714-1.5-1.7.522-2.554,1.268-2.474,3.037h-2.474c-.038-1.638-.73-2.552-2.521-3.036a2.875,2.875,0,0,0-3.682,1.5c-.63-.363-1.209-.666-1.747-1.03a.591.591,0,0,1-.134-.559,2.527,2.527,0,0,0-.972-3.652,2.4,2.4,0,0,1-.468-.5,1.587,1.587,0,0,0-1.966-.511c-1.369.472-1.378.447-2.1-.792-.127-.217-.246-.438-.422-.751,1.307-.9,2.051-1.844,1.487-3.707-.517-1.707-1.286-2.529-3.029-2.493v-2.464c1.675,0,2.534-.762,3.03-2.525a2.816,2.816,0,0,0-1.517-3.657l1.2-2.075a3.38,3.38,0,0,0,4.581-4.569l1.98-1.166c.37.405.746.807,1.111,1.219a1.431,1.431,0,0,0,1.638.47c.652-.206,1.314-.386,1.982-.528A1.6,1.6,0,0,0,221,207.269c.294-1.368.309-1.364,1.695-1.364h.949c.04,1.694.766,2.561,2.541,3.066,1.877.535,2.817-.173,3.682-1.51l2.052,1.207a3.366,3.366,0,0,0,4.559,4.558m-14.028,21.231a11.738,11.738,0,1,0-11.758-11.74,11.779,11.779,0,0,0,11.758,11.74" transform="translate(-163.819 -163.96)" fill="#dee4f0"/>
        <path id="Trazado_146742" data-name="Trazado 146742" d="M258.045,19.677c.3-.958.856-1.034,1.671-.818a3.13,3.13,0,0,0,3.847-2.706c.075-.525-.224-1.323.717-1.41a1.659,1.659,0,0,1,.711.177.635.635,0,0,1,.25.28c.906,1.564,2.407,1.345,3.789,1.117.523-.086.966-.752,1.411-1.19.288-.284.465-.6,1-.4a.763.763,0,0,1,.59.9c-.2,1.79,1.037,2.623,2.355,3.256a3.8,3.8,0,0,0,1.844-.068c.391-.045.708-.252,1.051.238a.9.9,0,0,1-.029,1.215,2.865,2.865,0,0,0-.472,2.709,2.94,2.94,0,0,0,2.132,2.315c.473.118.589.416.6.893a.752.752,0,0,1-.621.876c-1.757.416-2.11,1.862-2.258,3.308a3.537,3.537,0,0,0,.69,1.787.915.915,0,0,1-.062,1.151c-.305.435-.619.366-.981.219-1.665-.68-2.812.273-3.784,1.354a3.47,3.47,0,0,0-.442,1.87.894.894,0,0,1-.637.873c-.508.218-.73-.042-.921-.371-.9-1.561-2.39-1.51-3.822-1.239-.553.1-1.013.77-1.482,1.215-.292.277-.47.589-1,.386a.769.769,0,0,1-.569-.905c.139-1.761-1.042-2.608-2.375-3.251a2.349,2.349,0,0,0-1.537.035c-.825.25-1.373.109-1.657-.817a9.389,9.389,0,0,1,.494-.853,2.671,2.671,0,0,0,.3-2.443,2.875,2.875,0,0,0-2.116-2.321c-.475-.126-.58-.425-.588-.9-.008-.494.153-.775.611-.878,1.775-.4,2.016-1.884,2.289-3.308a1.849,1.849,0,0,0-.261-1c-.213-.458-.5-.883-.734-1.3m16.279,6.475a6.5,6.5,0,1,0-13.007,0,6.5,6.5,0,1,0,13.007,0" transform="translate(-203.98 -11.781)" fill="#dee4f0"/>
        <path id="Trazado_146743" data-name="Trazado 146743" d="M38.3,38.12c-.122-.037-.173-.047-.219-.067a3.727,3.727,0,0,0-4.357.914,2.189,2.189,0,0,0-.847,1.531,8.313,8.313,0,0,1-.161,1.512,1.19,1.19,0,0,1-.527.659,1.153,1.153,0,0,1-1.8-.454c-1.007-1.792-2.695-1.5-4.309-1.323a1.706,1.706,0,0,0-.809.515,9.711,9.711,0,0,0-.75.861,1.421,1.421,0,0,1-2.112.276.64.64,0,0,1-.184-.3,1.214,1.214,0,0,1-.024-.3c-.2-2.543-.279-2.718-2.466-4.022a2.805,2.805,0,0,0-1.3-.214,3.62,3.62,0,0,0-.888.195c-1.215.289-1.425.2-1.979-.943a.918.918,0,0,1-.02-.483.53.53,0,0,1,.15-.26c1.349-1.463,1.03-3.061.326-4.653a2.72,2.72,0,0,0-.848-.914,4.089,4.089,0,0,0-.89-.421,1.533,1.533,0,0,1-1.054-2.091.673.673,0,0,1,.261-.322,1.036,1.036,0,0,1,.413-.188c2.03-.371,2.386-2.036,2.774-3.641a2.068,2.068,0,0,0-.175-1.1,6.567,6.567,0,0,0-.562-.99,1.454,1.454,0,0,1,.353-2.189.679.679,0,0,1,.393-.109.8.8,0,0,1,.37.077c1.815.869,3.168-.036,4.417-1.194a2.545,2.545,0,0,0,.561-1.109,5.793,5.793,0,0,0,.133-1.132c.108-1.1.319-1.327,1.432-1.493a.667.667,0,0,1,.442.143,1.705,1.705,0,0,1,.406.45,3.435,3.435,0,0,0,3.346,1.609,3.283,3.283,0,0,0,2.635-1.5,1.362,1.362,0,0,1,2.093-.325.574.574,0,0,1,.2.291,1.928,1.928,0,0,1,.032.378c.325,3.032-.035,2.024,2.391,3.917A2.136,2.136,0,0,0,36.347,20a3.044,3.044,0,0,0,1.186-.244c.779-.324,1.225-.059,1.652.626.285.457.363.788.019,1.194-.016.019-.023.046-.04.065-1.4,1.508-.79,3.1-.151,4.661a1.912,1.912,0,0,0,.726.729,5.934,5.934,0,0,0,.966.44,1.589,1.589,0,0,1,1.011,2.117.657.657,0,0,1-.216.28.624.624,0,0,1-.276.123c-2.029.388-2.574,1.984-2.939,3.682a2.305,2.305,0,0,0,.195,1.159,6.3,6.3,0,0,0,.554.995,1.513,1.513,0,0,1-.392,2.185.924.924,0,0,1-.341.111m-1.709-9.308a9.115,9.115,0,1,0-9.059,9.165,9.143,9.143,0,0,0,9.059-9.165" transform="translate(-10.606 -11.845)" fill="#dee4f0"/>
        <path id="Trazado_146744" data-name="Trazado 146744" d="M139.133,274.329l-4.481,1.911v-3.826l4.481,1.915" transform="translate(-107.306 -216.885)" fill="#8eacf2"/>
        <path id="Trazado_146745" data-name="Trazado 146745" d="M242,254.234a11.738,11.738,0,1,1,11.719-11.765A11.8,11.8,0,0,1,242,254.234m.016-2.646a9.112,9.112,0,1,0-9.166-9.141,9.09,9.09,0,0,0,9.166,9.141" transform="translate(-183.368 -183.737)" fill="#020303"/>
        <path id="Trazado_146746" data-name="Trazado 146746" d="M294.494,45.563a6.5,6.5,0,1,1-6.508-6.506,6.508,6.508,0,0,1,6.508,6.506m-10.4,0a3.9,3.9,0,1,0,3.88-3.867,3.874,3.874,0,0,0-3.88,3.867" transform="translate(-224.15 -31.191)" fill="#030202"/>
        <path id="Trazado_146747" data-name="Trazado 146747" d="M56.974,48.139a9.115,9.115,0,1,1-9.134-9.1,9.12,9.12,0,0,1,9.134,9.1m-2.619.126A6.5,6.5,0,1,0,47.787,54.7a6.52,6.52,0,0,0,6.567-6.431" transform="translate(-30.986 -31.172)" fill="#030303"/>
        <path id="Trazado_146748" data-name="Trazado 146748" d="M252.174,261.74a9.112,9.112,0,1,1,9.1-9.11,9.144,9.144,0,0,1-9.1,9.11m-6.142-8.159c1.233,1.23,2.414,2.414,3.6,3.592.948.941,1.617.916,2.476-.107q2.251-2.682,4.483-5.379c.579-.7,1.155-1.4,1.767-2.136l-1.992-1.661-5.717,6.842-2.792-2.988-1.824,1.837" transform="translate(-193.53 -193.89)" fill="#ced371"/>
        <path id="Trazado_146749" data-name="Trazado 146749" d="M294.251,55.824a3.9,3.9,0,0,1,7.8.051,3.9,3.9,0,1,1-7.8-.051" transform="translate(-234.307 -41.456)" fill="#a3314f"/>
        <path id="Trazado_146750" data-name="Trazado 146750" d="M64.519,58.5a6.5,6.5,0,1,1-6.463-6.6,6.541,6.541,0,0,1,6.463,6.6" transform="translate(-41.151 -41.411)" fill="#ffb500"/>
        <path id="Trazado_146751" data-name="Trazado 146751" d="M257.816,270.621l1.824-1.837,2.792,2.988,5.717-6.842,1.992,1.661c-.612.74-1.187,1.44-1.767,2.136q-2.239,2.692-4.483,5.379c-.859,1.024-1.527,1.048-2.476.107-1.187-1.178-2.368-2.362-3.6-3.592" transform="translate(-205.314 -210.929)" fill="#010202"/>
      </g>
    </g>
  </g>
</svg>
