<svg xmlns="http://www.w3.org/2000/svg" xmlns:xlink="http://www.w3.org/1999/xlink" width="139.5" height="139.5" viewBox="0 0 139.5 139.5">
  <defs>
    <clipPath id="clip-path">
      <rect id="Rectángulo_51496" data-name="Rectángulo 51496" width="139.5" height="139.5" fill="none"/>
    </clipPath>
  </defs>
  <g id="Grupo_165564" data-name="Grupo 165564" transform="translate(-7.5 -1.627)">
    <g id="Grupo_165563" data-name="Grupo 165563" transform="translate(7.5 1.627)" clip-path="url(#clip-path)">
      <path id="Trazado_237778" data-name="Trazado 237778" d="M92.142,146.1a5.366,5.366,0,0,0-1.312-1.42,14.382,14.382,0,0,0-3.141-1.177,1.979,1.979,0,0,0-2.48,1.287,2.043,2.043,0,0,0,1.222,2.542c.953.4,1.923.758,2.905,1.072,1.422.454,2.78-.468,2.805-2.3m28.75-14.51c-.644.651-1.526,1.144-1.667,1.8a2.5,2.5,0,0,0,.75,2.173,10.633,10.633,0,0,0,3.855,1.456,2.386,2.386,0,0,0,1.976-1.119,2.336,2.336,0,0,0-.445-2.216,30.588,30.588,0,0,0-4.468-2.089m-40.029,13.8a1.907,1.907,0,0,0-2.216-2.052,15.4,15.4,0,0,0-3.8,1.282,1.958,1.958,0,0,0-.1,3.363c1.179.792,5.47-.57,5.982-1.911a3.385,3.385,0,0,0,.131-.681" transform="translate(-47.082 -83.563)" fill="#fdfdfd"/>
      <path id="Trazado_237779" data-name="Trazado 237779" d="M0,90.606a3.2,3.2,0,0,1,2.89-1.313c4.21.059,8.422.018,12.632.027a1.6,1.6,0,0,0,1.67-.745c.8-1.265,2.314-1.131,3.31.061a1.767,1.767,0,0,0,1.125.651c3.98.047,7.961.029,12.121.029,0-2.6,0-5.159,0-7.716,0-2.737.481-3.212,3.241-3.212H50.414c1.352-2.114,2.377-2.178,4.056-.324a1.2,1.2,0,0,0,.808.311c4.024.019,8.049.013,12.262.013V71.754c0-.678-.022-1.356.007-2.033.069-1.607.743-2.28,2.383-2.287,4.347-.02,8.693-.011,13.04,0a1.713,1.713,0,0,0,1.8-.808A1.959,1.959,0,0,1,88,66.649c.257.31.631.739.956.743,4.069.051,8.139.033,12.379.033,0-2.7,0-5.306,0-7.911,0-2.557.525-3.079,3.092-3.08H117.95V31.469h-1.239c-4.483,0-8.965-.014-13.448.009a2.163,2.163,0,0,1-2.473-1.954c.311-1.619.9-2.12,2.574-2.123q6.586-.014,13.171,0h1.435V4.17H85.336c1.63,2.72,3.183,5.309,4.734,7.9,2.473,4.127,2.459,3.214.021,7.311C88.53,22,86.954,24.611,85.283,27.4c2.659,0,5.089-.008,7.52,0,1.691.007,2.19.424,2.612,2.114a2.291,2.291,0,0,1-2.622,1.97c-3.527-.047-7.055-.007-10.583-.018-2.382-.008-3.227-1.518-1.993-3.584,2.218-3.714,4.439-7.426,6.708-11.108a1.658,1.658,0,0,0,.029-2.037C84.7,11.1,82.516,7.417,80.316,3.745,79.251,1.967,79.4,1.217,81,0h39.955a3.645,3.645,0,0,1,1.191,3.067q-.049,25.885-.022,51.771v1.6h1.426c4.255,0,8.51.037,12.764-.023a2.993,2.993,0,0,1,2.852,1.37V69.989l-1.871,1.478c-1.768-.291-2.2-.787-2.207-2.58-.005-.763,0-1.527,0-2.29v-6.05H105.521v74.237h29.562v-1.776q0-26.677,0-53.354c0-1.95.4-2.435,2.209-2.735l1.87,1.48v59.138a2.932,2.932,0,0,1-2.842,1.379q-66.739-.039-133.478,0A2.925,2.925,0,0,1,0,137.536V127.5l2.081-1.47a2.24,2.24,0,0,1,2.01,2.578c-.045,2.054-.011,4.11-.011,6.173H33.635V93.452h-4.56c-.27-.022-.539-.063-.809-.063q-11.61,0-23.221,0a8.557,8.557,0,0,0-.967.115v1.552c0,7.59-.025,15.179.021,22.769.009,1.526-.466,2.535-2.007,2.9L0,119.361V90.606m63.048-8.1H37.894v52.267H67.447V82.509Zm33.709,52.27h4.51V71.584h-4.5a6.028,6.028,0,0,0-.671-.072q-11.753-.006-23.506,0a6.176,6.176,0,0,0-.882.124v63.141Z" transform="translate(0 0.338)" fill="#030302"/>
      <path id="Trazado_237784" data-name="Trazado 237784" d="M245.459,36.851c-.422-1.69-.921-2.107-2.612-2.114-2.431-.011-4.861,0-7.52,0,1.671-2.786,3.247-5.4,4.807-8.017,2.439-4.1,2.452-3.184-.02-7.311l-4.734-7.9h32.634V34.733H266.58q-6.586,0-13.172,0c-1.677,0-2.263.5-2.574,2.124l-5.375-.01" transform="translate(-150.044 -6.999)" fill="#a3314f"/>
      <path id="Trazado_237785" data-name="Trazado 237785" d="M227.975,150.082c.912-1.288,1.879-1.7,2.912-1.181,1.269.637,1.237,1.743.978,2.91-.078.35-.178.7-.229,1.05-.386,2.634-.8,3.162-3.432,3.39a3.3,3.3,0,0,1-2.07-1.122,11,11,0,0,1-1.142-1.965c-.668-1.023-1.031-2.024-.06-3.053.747-.791,1.654-.789,3.043-.028" transform="translate(-143.036 -94.462)" fill="#040404"/>
      <path id="Trazado_237786" data-name="Trazado 237786" d="M133.88,180.7a2.118,2.118,0,0,1,2.677-1.023,2.277,2.277,0,0,1,1.306,2.574c-.02.36,0,.722,0,1.084,0,2.828-.7,3.6-3.515,3.778a1.984,1.984,0,0,1-2.1-1.4c-.515-1.47-2.526-2.565-1.285-4.478.707-1.09,1.8-1.044,2.922-.536" transform="translate(-83.244 -114.114)" fill="#050505"/>
      <path id="Trazado_237787" data-name="Trazado 237787" d="M279.911,119.14c-.7,0-1.285.039-1.866-.008a2.064,2.064,0,0,1-2.025-2.1,1.969,1.969,0,0,1,2.012-1.938,26.541,26.541,0,0,1,3.37.068,2.007,2.007,0,0,1,1.946,2.15,2.045,2.045,0,0,1-2.2,1.9c-.449,0-.9-.048-1.236-.068" transform="translate(-175.989 -73.03)" fill="#060606"/>
      <path id="Trazado_237788" data-name="Trazado 237788" d="M313.5,128.953c-.294.356-.629,1.124-1.178,1.331a2.672,2.672,0,0,1-2.1-.159,15.521,15.521,0,0,1-2.709-2.411,1.666,1.666,0,0,1-.146-2.428c.525-.508,1.759-1.057,2.147-.8a29.383,29.383,0,0,1,3.779,3.342c.155.149.1.512.206,1.123" transform="translate(-195.683 -78.993)" fill="#070707"/>
      <path id="Trazado_237789" data-name="Trazado 237789" d="M46.306,213.828a15.216,15.216,0,0,1,.012-1.749,1.826,1.826,0,0,1,1.771-1.72,1.735,1.735,0,0,1,2.1,1.453,18.123,18.123,0,0,1,.029,4.146,1.746,1.746,0,0,1-2.051,1.531,1.819,1.819,0,0,1-1.858-1.775c-.061-.623-.011-1.256-.011-1.885h.006" transform="translate(-29.509 -133.777)" fill="#070707"/>
      <path id="Trazado_237790" data-name="Trazado 237790" d="M147.467,149.376a2.047,2.047,0,0,1,2.077,3.049c-.518.948-1.09,1.871-1.7,2.764a1.9,1.9,0,0,1-2.619.68,1.765,1.765,0,0,1-.928-2.5,23.9,23.9,0,0,1,2.055-3.321c.282-.387.885-.541,1.113-.672" transform="translate(-91.862 -94.903)" fill="#060606"/>
      <path id="Trazado_237791" data-name="Trazado 237791" d="M253.121,124.665c.005,1.529-3.708,4.4-5.162,3.99a1.98,1.98,0,0,1-.886-3.269,16.178,16.178,0,0,1,3.051-2.45,1.981,1.981,0,0,1,3,1.729" transform="translate(-157.18 -77.858)" fill="#050505"/>
      <path id="Trazado_237792" data-name="Trazado 237792" d="M54.641,180.684c1.782.045,2.774,1.6,2.1,2.925a20.712,20.712,0,0,1-1.872,2.952,1.871,1.871,0,0,1-2.632.543,1.816,1.816,0,0,1-.819-2.542,18.153,18.153,0,0,1,1.936-3.062,3.914,3.914,0,0,1,1.289-.817" transform="translate(-32.634 -114.866)" fill="#070707"/>
      <path id="Trazado_237793" data-name="Trazado 237793" d="M174.1,134.625a5.561,5.561,0,0,1-1.352,1.37,16.351,16.351,0,0,1-3.035,1.072,2,2,0,0,1-2.55-1.166,1.9,1.9,0,0,1,1.065-2.576,20.9,20.9,0,0,1,3.434-1.141c1.317-.3,2.479.722,2.438,2.442" transform="translate(-106.493 -83.909)" fill="#060606"/>
      <path id="Trazado_237794" data-name="Trazado 237794" d="M111.955,166.909c-.025,1.835-1.383,2.758-2.805,2.3-.982-.314-1.953-.676-2.905-1.072a2.043,2.043,0,0,1-1.222-2.542,1.979,1.979,0,0,1,2.48-1.287,14.4,14.4,0,0,1,3.141,1.177,5.373,5.373,0,0,1,1.312,1.42" transform="translate(-66.896 -104.373)" fill="#070707"/>
      <path id="Trazado_237795" data-name="Trazado 237795" d="M200.678,131.589a30.568,30.568,0,0,1,4.468,2.089,2.335,2.335,0,0,1,.445,2.216,2.388,2.388,0,0,1-1.976,1.119,10.651,10.651,0,0,1-3.855-1.456,2.5,2.5,0,0,1-.749-2.173c.14-.652,1.023-1.144,1.667-1.8" transform="translate(-126.869 -83.563)" fill="#050505"/>
      <path id="Trazado_237796" data-name="Trazado 237796" d="M80.862,165.986a3.384,3.384,0,0,1-.131.681c-.512,1.341-4.8,2.7-5.982,1.911a1.958,1.958,0,0,1,.1-3.363,15.4,15.4,0,0,1,3.8-1.282,1.907,1.907,0,0,1,2.216,2.052" transform="translate(-47.082 -104.161)" fill="#050505"/>
      <path id="Trazado_237797" data-name="Trazado 237797" d="M316.1,241.305H291.171V167.068H316.1l0,74.237" transform="translate(-185.65 -106.184)" fill="#d2e1f1"/>
      <path id="Trazado_237798" data-name="Trazado 237798" d="M222.916,260.587H197.867V197.446a6.174,6.174,0,0,1,.882-.124q11.753-.01,23.505,0a6.029,6.029,0,0,1,.671.072q0,31.6-.01,63.195" transform="translate(-126.159 -125.471)" fill="#c7e973"/>
      <path id="Trazado_237799" data-name="Trazado 237799" d="M129.716,279.938H104.563V227.67h25.154q0,26.134,0,52.268" transform="translate(-66.669 -144.824)" fill="#f4e065"/>
      <path id="Trazado_237800" data-name="Trazado 237800" d="M5.742,290.328q.007-2.65.013-5.3c1.54-.37,2.015-1.378,2.006-2.9-.046-7.589-.021-15.179-.021-22.769V257.8a8.56,8.56,0,0,1,.967-.115q11.61-.009,23.22,0c.27,0,.539.041.809.063q0,20.665.009,41.329h-25c0-2.063-.033-4.119.011-6.172a2.24,2.24,0,0,0-2.01-2.578" transform="translate(-3.661 -163.96)" fill="#ffb500"/>
      <path id="Trazado_237801" data-name="Trazado 237801" d="M359.96,241.305q0-37.118,0-74.237h4.633v6.05c0,.763,0,1.527,0,2.29.012,1.792.439,2.289,2.207,2.58q0,2.727,0,5.452c-1.811.3-2.209.784-2.209,2.734q0,26.677,0,53.354v1.776Z" transform="translate(-229.507 -106.184)" fill="#b0c0d2"/>
      <path id="Trazado_237802" data-name="Trazado 237802" d="M266.985,260.72q0-31.6.01-63.195h4.5V260.72Z" transform="translate(-170.229 -125.603)" fill="#b4e044"/>
      <path id="Trazado_237803" data-name="Trazado 237803" d="M173.97,279.938q0-26.134,0-52.268h4.4v52.268Z" transform="translate(-110.923 -144.824)" fill="#f0d233"/>
      <path id="Trazado_237804" data-name="Trazado 237804" d="M80.237,299.195q0-20.664-.009-41.329h4.56v41.329Z" transform="translate(-51.153 -164.077)" fill="#de8325"/>
    </g>
  </g>
</svg>
