<svg xmlns="http://www.w3.org/2000/svg" width="135.131" height="135.193" viewBox="0 0 135.131 135.193">
  <g id="Grupo_166639" data-name="Grupo 166639" transform="translate(-22.808 -23.406)">
    <g id="Grupo_166640" data-name="Grupo 166640" transform="translate(22.808 23.406)">
      <path id="Trazado_255618" data-name="Trazado 255618" d="M76.181,97.588q0-3.34,0-6.68c.308-.549.847-1.085.88-1.65.112-1.891.032-3.793.046-5.69.021-2.995,1.521-4.535,4.5-4.54q14.078-.023,28.156,0c3.074,0,4.573,1.521,4.576,4.614q.016,14.008,0,28.015c0,3.039-1.584,4.617-4.6,4.62q-14,.013-28.007,0c-3.03,0-4.607-1.574-4.618-4.6-.016-4.095.033-8.19-.046-12.284-.012-.606-.573-1.2-.88-1.8" transform="translate(-54.818 -56.759)" fill="#a3314f"/>
      <path id="Trazado_255619" data-name="Trazado 255619" d="M109.808,96.632l-6.446-.058c-.48-.312-.945-.859-1.444-.892-1.69-.112-3.4.031-5.088-.066-1.421-.082-1.919.39-1.916,1.862.042,17.629.021,35.259.052,52.888a5.786,5.786,0,0,0,.584,1.721,5.954,5.954,0,0,0,1.619-.79c1.949-1.863,3.81-3.816,5.743-5.7,1.07-1.04,2.706-.774,2.945.557a2.976,2.976,0,0,1-.852,2.179c-3.362,3.486-6.806,6.893-10.235,10.314-1.236,1.233-2.021,1.216-3.292-.049q-5.15-5.125-10.282-10.268c-1.134-1.137-1.267-2.017-.38-2.8,1.059-.933,1.98-.536,2.861.363,1.783,1.819,3.575,3.63,5.42,5.384a6.28,6.28,0,0,0,1.617.818,5.613,5.613,0,0,0,.6-1.712c.034-17.679.021-35.359.055-53.038,0-1.3-.417-1.737-1.727-1.734-17.674.032-35.348.016-53.022.048a5.685,5.685,0,0,0-1.715.592,6.134,6.134,0,0,0,.807,1.617c1.827,1.914,3.719,3.765,5.6,5.628.816.809,1.125,1.638.242,2.6a1.61,1.61,0,0,1-2.6-.064q-5.484-5.426-10.919-10.9A1.654,1.654,0,0,1,28,92.6Q33.522,87,39.106,81.464a1.484,1.484,0,0,1,2.262-.052,1.679,1.679,0,0,1,.224,2.413,9,9,0,0,1-1.034,1.08c-1.727,1.734-3.475,3.446-5.163,5.217a1.537,1.537,0,0,0-.426,1.272c.14.328.77.473,1.21.632a2.3,2.3,0,0,0,.744.015q26.212,0,52.424.006c1.991,0,2-.014,2-2.007q0-26.294-.022-52.589a7.149,7.149,0,0,0-.53-1.868,7.612,7.612,0,0,0-1.844.969c-1.885,1.784-3.673,3.671-5.532,5.483-1.075,1.049-2.5.943-2.886-.34a2.851,2.851,0,0,1,.712-2.3c3.386-3.532,6.869-6.97,10.336-10.424,1.161-1.157,1.977-1.135,3.183.064,3.47,3.45,6.921,6.921,10.395,10.367.84.833,1.315,1.675.356,2.7-.784.841-1.817.737-2.857-.29-1.776-1.754-3.511-3.552-5.319-5.273a8.292,8.292,0,0,0-1.715-.992,6.769,6.769,0,0,0-.654,1.978q-.056,26.219-.032,52.439c0,2.077,0,2.08,2.089,2.081h52.424a7.443,7.443,0,0,0,1.2-.025c.869-.144,1.082-.663.632-1.4a5.87,5.87,0,0,0-.87-1.019c-1.83-1.842-3.689-3.655-5.5-5.516-1.019-1.046-.9-2.171.24-2.871,1.061-.649,1.789.018,2.478.7q5.149,5.126,10.283,10.267c1.246,1.249,1.244,2.039,0,3.292-3.415,3.435-6.849,6.85-10.258,10.292-.856.865-1.712,1.463-2.808.421-.832-.79-.71-1.8.33-2.857,1.861-1.882,3.757-3.73,5.588-5.64a4.756,4.756,0,0,0,.642-1.4,5.2,5.2,0,0,0-1.545-.629c-1.493-.086-2.994-.03-4.492-.03h-33.7c-.8,0-1.667-.14-1.859.993" transform="translate(-25.579 -26.232)" fill="#12263f"/>
      <path id="Trazado_255620" data-name="Trazado 255620" d="M107.038,93.806c.192-1.133,1.062-.993,1.859-.993h33.7c1.5,0,3-.056,4.492.03a5.2,5.2,0,0,1,1.545.629,4.756,4.756,0,0,1-.642,1.4c-1.831,1.91-3.727,3.758-5.588,5.64-1.041,1.053-1.162,2.066-.33,2.857,1.1,1.042,1.952.444,2.808-.421,3.409-3.441,6.843-6.856,10.258-10.292,1.246-1.254,1.247-2.043,0-3.292Q150.013,84.221,144.86,79.1c-.689-.686-1.417-1.354-2.478-.7-1.144.7-1.259,1.825-.24,2.871,1.811,1.86,3.67,3.674,5.5,5.516a5.869,5.869,0,0,1,.87,1.019c.451.733.237,1.252-.632,1.4a7.443,7.443,0,0,1-1.2.025H94.261c-2.086,0-2.089,0-2.089-2.081q0-26.219.032-52.439a6.769,6.769,0,0,1,.654-1.978,8.292,8.292,0,0,1,1.715.992c1.808,1.721,3.543,3.518,5.319,5.273,1.039,1.027,2.073,1.131,2.857.29.959-1.029.484-1.87-.356-2.7C98.918,33.129,95.468,29.658,92,26.208c-1.206-1.2-2.022-1.221-3.183-.064-3.467,3.454-6.951,6.892-10.336,10.424a2.851,2.851,0,0,0-.712,2.3c.386,1.284,1.811,1.389,2.886.34,1.859-1.813,3.647-3.7,5.532-5.483a7.612,7.612,0,0,1,1.844-.969,7.149,7.149,0,0,1,.53,1.868q.043,26.294.022,52.589c0,1.992-.014,2.007-2,2.007q-26.212,0-52.424-.006a2.3,2.3,0,0,1-.744-.015c-.44-.16-1.069-.3-1.21-.632a1.537,1.537,0,0,1,.426-1.272c1.688-1.771,3.436-3.483,5.163-5.217A9,9,0,0,0,38.822,81a1.679,1.679,0,0,0-.224-2.413,1.484,1.484,0,0,0-2.262.052q-5.571,5.551-11.107,11.137a1.654,1.654,0,0,0,.037,2.531q5.436,5.473,10.919,10.9a1.61,1.61,0,0,0,2.6.064c.883-.957.575-1.787-.242-2.6-1.88-1.862-3.772-3.714-5.6-5.628a6.134,6.134,0,0,1-.807-1.617,5.685,5.685,0,0,1,1.715-.592c17.674-.032,35.348-.016,53.022-.048,1.31,0,1.729.431,1.727,1.734-.034,17.679-.021,35.359-.055,53.038a5.613,5.613,0,0,1-.6,1.712,6.28,6.28,0,0,1-1.617-.818c-1.845-1.754-3.637-3.565-5.42-5.384-.882-.9-1.8-1.3-2.861-.363-.887.781-.754,1.661.38,2.8q5.133,5.142,10.282,10.268c1.271,1.265,2.055,1.282,3.292.049,3.43-3.42,6.873-6.828,10.235-10.314a2.976,2.976,0,0,0,.852-2.179c-.239-1.331-1.874-1.6-2.945-.557-1.933,1.88-3.795,3.833-5.743,5.7a5.954,5.954,0,0,1-1.619.79,5.786,5.786,0,0,1-.584-1.721c-.031-17.63-.011-35.259-.052-52.888,0-1.472.495-1.944,1.916-1.862,1.692.1,3.4-.046,5.088.066.5.033.963.58,1.444.892-.5.291-.987.8-1.505.834-1.633.109-3.279.04-5.013.04v51.584c1.619-1.627,3.072-3.11,4.551-4.566,1.771-1.744,3.893-1.841,5.423-.277,1.457,1.489,1.363,3.623-.316,5.326q-5.257,5.334-10.574,10.61a3.606,3.606,0,0,1-5.546,0q-5.386-5.311-10.71-10.686a3.557,3.557,0,0,1-.219-5.207,3.608,3.608,0,0,1,5.326.167c1.52,1.481,2.982,3.021,4.7,4.77V94.713H35.255c1.56,1.57,2.993,3,4.414,4.445,1.827,1.856,1.962,3.987.364,5.537-1.532,1.486-3.647,1.331-5.428-.434q-5.159-5.114-10.293-10.256c-2.008-2.012-2-3.953.006-5.978q5.118-5.156,10.26-10.289c1.766-1.761,3.888-1.91,5.424-.418,1.569,1.524,1.433,3.719-.385,5.545-1.426,1.433-2.892,2.828-4.588,4.483H86.687V35.755c-1.707,1.736-3.224,3.347-4.817,4.877a3.544,3.544,0,0,1-5.3-.123,3.427,3.427,0,0,1,.093-4.761Q82.245,30,87.971,24.394a3.423,3.423,0,0,1,4.876.065Q98.528,30,104.086,35.674a3.49,3.49,0,0,1-.053,4.989,3.534,3.534,0,0,1-5,.049c-1.629-1.539-3.137-3.206-4.945-5.072V87.347h51.5c-1.644-1.633-3.127-3.083-4.585-4.56-1.758-1.782-1.873-3.882-.327-5.425,1.515-1.511,3.656-1.385,5.428.369Q151.33,82.9,156.51,88.1c1.885,1.894,1.908,3.885.054,5.763q-5.209,5.277-10.466,10.507c-1.732,1.724-3.931,1.809-5.428.265-1.452-1.5-1.346-3.636.333-5.326a45,45,0,0,0,4.336-4.682h-1.571c-11.633,0-23.265.012-34.9-.035-.612,0-1.222-.51-1.833-.782" transform="translate(-22.808 -23.406)" fill="#12263f"/>
      <path id="Trazado_255621" data-name="Trazado 255621" d="M94.339,248.521c-4.742,0-9.484.008-14.226,0-3.758-.009-6.209-2.388-6.221-6.149q-.046-14.305,0-28.611c.011-3.7,2.378-6.153,6.06-6.173q14.376-.079,28.752,0a5.779,5.779,0,0,1,6.074,6.16q.048,14.305,0,28.611a5.812,5.812,0,0,1-6.211,6.162c-4.742.012-9.484,0-14.226,0m-.036-1.811c4.692,0,9.384.008,14.076,0,2.952-.007,4.569-1.573,4.574-4.495q.026-14.155,0-28.31c-.005-2.883-1.553-4.454-4.439-4.461q-14.151-.037-28.3,0c-2.978.007-4.495,1.558-4.5,4.552q-.02,14.08,0,28.16c0,3.012,1.6,4.55,4.662,4.556q6.963.013,13.926,0" transform="translate(-53.432 -133.846)" fill="#12263f"/>
      <path id="Trazado_255622" data-name="Trazado 255622" d="M227.572,248.522c-4.742,0-9.484.009-14.227,0a5.807,5.807,0,0,1-6.2-6.165q-.043-14.305,0-28.611a5.777,5.777,0,0,1,6.076-6.157q14.376-.075,28.752,0c3.675.02,6.046,2.478,6.058,6.176q.046,14.3,0,28.61c-.013,3.758-2.469,6.137-6.227,6.146-4.742.011-9.484,0-14.226,0m6.877-39.156q-9.275.007-18.55.017c-1.1,0-2.2-.017-3.287.088a3.8,3.8,0,0,0-3.627,3.857q-.062,14.74,0,29.481a3.8,3.8,0,0,0,3.785,3.868c7.429.045,14.859-.006,22.288-.021,2.539.016,5.079.091,7.615.027a3.774,3.774,0,0,0,3.473-3.167,13.671,13.671,0,0,0,.152-2.232q.015-13.087,0-26.173c0-.6.009-1.2-.049-1.792a4.093,4.093,0,0,0-4.042-4c-2.584-.093-5.176.022-7.765.047" transform="translate(-133.351 -133.847)" fill="#12263f"/>
      <path id="Trazado_255623" data-name="Trazado 255623" d="M74.773,94.732c.307.6.869,1.195.88,1.8.079,4.093.03,8.189.046,12.284.012,3.029,1.589,4.6,4.618,4.6q14,.012,28.007,0c3.019,0,4.6-1.581,4.6-4.62q.018-14.007,0-28.015c0-3.093-1.5-4.609-4.576-4.614q-14.078-.02-28.156,0c-2.977.005-4.477,1.545-4.5,4.54-.013,1.9.066,3.8-.046,5.69-.033.565-.572,1.1-.88,1.65-.3-.489-.848-.967-.871-1.468-.1-2.142-.08-4.293-.025-6.438a5.7,5.7,0,0,1,5.774-5.833q14.672-.115,29.345,0a5.651,5.651,0,0,1,5.744,5.856q.072,14.6,0,29.2a5.739,5.739,0,0,1-6.054,5.853q-14.373.025-28.747,0a5.778,5.778,0,0,1-6.064-6q-.075-6.439.026-12.879c.009-.543.569-1.077.874-1.615" transform="translate(-53.41 -53.902)" fill="#12263f"/>
      <path id="Trazado_255624" data-name="Trazado 255624" d="M207.142,94.874c0-4.693-.015-9.387,0-14.08.017-4.135,2.367-6.469,6.521-6.474q13.926-.017,27.853,0c4.148.005,6.513,2.345,6.52,6.478q.026,14.005,0,28.01c-.007,4.136-2.371,6.456-6.524,6.458q-13.926.006-27.852,0c-4.153,0-6.5-2.322-6.518-6.462-.018-4.643,0-9.287,0-13.93m27.613-18.761c-4.536,0-9.073-.017-13.609,0-2.791.008-5.586-.022-8.372.117a3.788,3.788,0,0,0-3.785,4q-.047,14.589,0,29.178a3.909,3.909,0,0,0,4.1,4.034c7.03.024,14.06-.01,21.089-.021,2.74.011,5.48.055,8.218.022a3.84,3.84,0,0,0,3.737-3.064,11.541,11.541,0,0,0,.242-2.367c.022-4.486.011-8.972.011-13.458,0-4.436.02-8.872-.007-13.309-.019-3.167-1.488-5.072-4.164-5.187-2.483-.106-4.976.026-7.465.054" transform="translate(-133.361 -53.937)" fill="#12263f"/>
      <path id="Trazado_255625" data-name="Trazado 255625" d="M97.052,249.52q-6.963,0-13.926,0c-3.061-.006-4.657-1.545-4.662-4.556q-.023-14.08,0-28.16c0-2.994,1.521-4.545,4.5-4.552q14.15-.032,28.3,0c2.886.008,4.433,1.579,4.439,4.461q.026,14.155,0,28.31c-.006,2.922-1.622,4.487-4.574,4.495-4.692.012-9.384,0-14.076,0" transform="translate(-56.181 -136.657)" fill="#d2e1f1"/>
      <path id="Trazado_255626" data-name="Trazado 255626" d="M237.807,249.381c-7.429.015-14.859.066-22.288.021a3.8,3.8,0,0,1-3.785-3.868q-.066-14.741,0-29.481a3.8,3.8,0,0,1,3.627-3.857c1.089-.1,2.191-.086,3.288-.088q9.274-.017,18.549-.018c.112.156.191.385.343.455,1.884.881,2.415,2.417,2.406,4.393-.045,9.321.011,18.643-.062,27.964a9.108,9.108,0,0,1-.948,3.2c-.2.5-.741.856-1.128,1.277" transform="translate(-136.099 -136.571)" fill="#e3effa"/>
      <path id="Trazado_255627" data-name="Trazado 255627" d="M276.013,249.257c.387-.421.923-.78,1.128-1.277a9.108,9.108,0,0,0,.948-3.2c.073-9.321.018-18.643.062-27.964.009-1.976-.522-3.513-2.406-4.393-.152-.071-.23-.3-.343-.455,2.589-.024,5.181-.14,7.765-.047a4.092,4.092,0,0,1,4.041,4c.058.593.049,1.194.049,1.792q0,13.087,0,26.173a13.711,13.711,0,0,1-.152,2.231,3.776,3.776,0,0,1-3.473,3.168c-2.537.064-5.077-.011-7.616-.027" transform="translate(-174.305 -136.447)" fill="#e3effa"/>
      <path id="Trazado_255628" data-name="Trazado 255628" d="M236.921,116.108c-7.03.011-14.06.045-21.089.021a3.909,3.909,0,0,1-4.1-4.034q-.056-14.588,0-29.177a3.788,3.788,0,0,1,3.785-4c2.786-.138,5.581-.109,8.372-.117,4.536-.014,9.073,0,13.609,0,2.282,1.651,2.5,3.98,2.471,6.584-.105,8.621-.087,17.245-.01,25.867.021,2.377-.724,4.048-3.033,4.858" transform="translate(-136.099 -56.623)" fill="#ced371"/>
      <path id="Trazado_255629" data-name="Trazado 255629" d="M274.713,115.98c2.309-.81,3.055-2.481,3.033-4.858-.077-8.622-.1-17.246.01-25.867.032-2.6-.19-4.933-2.471-6.584,2.489-.028,4.982-.16,7.465-.054,2.677.115,4.145,2.02,4.164,5.187.027,4.436.007,8.872.007,13.309,0,4.486.012,8.972-.011,13.458a11.568,11.568,0,0,1-.241,2.367A3.84,3.84,0,0,1,282.932,116c-2.739.033-5.479-.011-8.219-.022" transform="translate(-173.891 -56.495)" fill="#b6bf39"/>
    </g>
  </g>
</svg>
