<svg xmlns="http://www.w3.org/2000/svg" width="119.505" height="119.508" viewBox="0 0 119.505 119.508">
  <g id="Grupo_165569" data-name="Grupo 165569" transform="translate(-0.782)">
    <g id="Grupo_165570" data-name="Grupo 165570" transform="translate(0.782)">
      <path id="Trazado_237820" data-name="Trazado 237820" d="M59.582,0c1.651.3,3.314.536,4.95.9A37.08,37.08,0,0,1,86.846,15.268c1.295,1.731,2.374,3.623,3.665,5.614.643-.67,1.323-1.34,1.956-2.052a1.844,1.844,0,0,1,2.088-.633A30.535,30.535,0,0,1,98.7,19.68c.516.257.843,1.114,1.03,1.763a28.356,28.356,0,0,1,.556,3.1,9.247,9.247,0,0,0,1.456-.313c1.945-.832,3.367-.23,4.425,1.518.482.8,1.033,1.55,1.523,2.341a2.156,2.156,0,0,1-.214,2.4c-1.454,2.5-1.449,2.535,1.166,3.636a2.061,2.061,0,0,1,1.439,2.136c-.026,1.089-.051,2.181.007,3.267a2.268,2.268,0,0,1-1.645,2.494c-2.905,1.072-2.387,1.215-1.143,3.367.788,1.361.88,2.516-.2,3.7a8.854,8.854,0,0,0-.536.762c-2.292,3.146-2.1,2.849-5.331,2.068-.917-.222-1.332,0-1.335.966a3.376,3.376,0,0,1-.17,1.493,16.785,16.785,0,0,1-1.482,2.081c-.037.05-.149.036-.219.069-2.921,1.35-5.711,2.089-7.469-2.016l-.179.349c-.19.318-.388.632-.568.956-6.085,10.92-15.288,17.429-27.629,19.441a31.306,31.306,0,0,1-10.455-.04,1.929,1.929,0,0,0-2.167.813c-1.576,2.121-3.256,4.165-4.91,6.227-1.258,1.569-2.243,1.684-3.863.482-1.092-.81-2.179-1.627-3.349-2.5q-3.06,3.765-6.1,7.508-8.305,10.235-16.609,20.471c-1.267,1.56-2.377,1.665-3.97.393q-4.194-3.347-8.38-6.7C.383,100.31.3,99.465,1.9,97.5Q12.619,84.342,23.336,71.181c.167-.2.32-.42.54-.709-1.317-.958-2.6-1.88-3.874-2.822-1.568-1.163-1.709-2.3-.463-3.845,1.635-2.02,3.29-4.024,4.72-5.769-1.387-3.395-2.912-6.508-3.943-9.777A35.6,35.6,0,0,1,20.9,25.151,36.89,36.89,0,0,1,35.861,6.2,37.48,37.48,0,0,1,52.467.247,4.456,4.456,0,0,0,53.278,0h.7l1.848.2L58.415,0ZM56.559,71.666A33.813,33.813,0,1,0,22.722,37.855,33.817,33.817,0,0,0,56.559,71.666M27.086,72.878,5.6,99.144l6.762,5.565L34.252,78.051l-7.166-5.173m76.569-44.106c-.393-.986-.988-1.035-1.883-.8a3.8,3.8,0,0,1-2.537.027c-1.8-1.059-3.582-2.294-3.259-4.874.029-.232-.35-.656-.621-.747a1.142,1.142,0,0,0-.964.214c-.566.526-.988,1.209-1.564,1.722a1.843,1.843,0,0,0-.479,2.255,35.607,35.607,0,0,1,.4,21.654c-.656,2.181-.489,3.669,1.295,4.955A1.635,1.635,0,0,0,95.2,53.5c.258-.06.492-.549.6-.889.278-.91.206-2.088.768-2.72,1.392-1.563,2.98-3.064,5.443-1.919a1.308,1.308,0,0,0,1.155-.333c.185-.193.115-.758-.009-1.1-.316-.862-1.082-1.713-1.028-2.526.136-2.041.444-4.139,2.882-4.963a1.491,1.491,0,0,0,.829-1.117c0-.383-.491-.81-.846-1.13-.7-.628-1.762-1.05-2.115-1.815-.874-1.9-1.306-3.927.459-5.693a2.827,2.827,0,0,0,.325-.523M26.893,61.128,23.523,65.1l18.729,13.7,3.736-4.723a38.927,38.927,0,0,1-19.1-12.942" transform="translate(-0.782)" fill="#030202"/>
      <path id="Trazado_237821" data-name="Trazado 237821" d="M287.895,267.644c-1.064.652-2.1,1.369-3.2,1.939-1.2.617-1.57,1.33-.709,2.335,1.735,2.03,1.5,3.892-.1,5.8a8.436,8.436,0,0,0-.618.847c-.976,1.507-2.235,2.215-4.05,1.524a5.69,5.69,0,0,0-1.368-.276c-.824-.1-1.381.217-1.379,1.122.009,3.547-.537,3.828-4.291,5.142-2.109.738-3.619.288-4.781-1.563-.867-1.381-1.73-1.443-2.717.028a11.937,11.937,0,0,1-.971,1.163,2.013,2.013,0,0,1-2.39.687c-1.31-.477-2.628-.933-3.956-1.358a2.113,2.113,0,0,1-1.6-2.16c-.017-.622-.061-1.243-.1-1.863-.067-.99-.541-1.351-1.533-1.179-.038.007-.076.016-.114.024-3.939.81-3.33,1.065-5.919-2.488-.319-.438-.569-.927-.879-1.372a2.03,2.03,0,0,1-.025-2.489c.344-.517.659-1.052.981-1.583.68-1.118.45-1.8-.786-2.335-.569-.247-1.126-.528-1.711-.727a2,2,0,0,1-1.429-2.142c.006-1.322.027-2.645-.007-3.966a2.227,2.227,0,0,1,1.365-2.23,23.121,23.121,0,0,0,2.18-1.1,1.264,1.264,0,0,0,.524-1.943,1.8,1.8,0,0,1-.118-.2c-.527-1.087-1.929-2.08-1.3-3.314a31.187,31.187,0,0,1,3.48-4.881c.209-.264.864-.235,1.313-.233a5.2,5.2,0,0,1,1.257.23c2.339.607,2.828.357,2.765-2.051a2.978,2.978,0,0,1,2.189-3.189c1.214-.4,2.428-.807,3.661-1.136a1.9,1.9,0,0,1,2.163.753c.441.592.941,1.139,1.409,1.71.589.72,1.187.808,1.806.039.049-.06.1-.117.152-.177,2.39-2.844,2.39-2.844,5.88-1.606a3.258,3.258,0,0,0,.43.174c2.36.464,3.214,1.943,3.076,4.266-.083,1.389.383,1.66,1.781,1.381,3.595-.718,3.595-.718,5.658,2.39a1.531,1.531,0,0,0,.127.2c1.553,1.7,1.522,3.347.1,5.178-1.062,1.37-.811,1.875.775,2.759,1.147.64,2.527,1.024,2.971,2.505Zm-17.28,14.372c1.383-.085,1.867-.748,1.879-2.025a3.563,3.563,0,0,1,.641-2.37c1.543-1.408,3.141-3.033,5.619-1.975a1.2,1.2,0,0,0,1.644-.3c.6-.739.207-1.226-.1-1.857-.412-.85-1.113-1.821-.982-2.624.344-2.11.76-4.381,3.472-4.909.816-.159.9-.722.926-1.463.024-.791-.336-1.056-.98-1.313-.985-.391-2.143-.593-2.552-1.817a20.2,20.2,0,0,1-.863-2.649,3.631,3.631,0,0,1,.25-1.781,6.026,6.026,0,0,1,.932-1.606c.42-.545.237-.938-.068-1.447-.438-.733-1.01-.485-1.625-.415-.975.111-2.149.506-2.906.123-1.965-1-3.939-2.21-3.5-5,.134-.842-.439-1.241-1.143-1.271a1.513,1.513,0,0,0-1.14.556,4.438,4.438,0,0,1-4.136,2.057c-1.8-.012-3.187-.452-4.135-2.027a5.523,5.523,0,0,0-.61-.732c-1.427.054-1.756.873-1.814,2.061a3.579,3.579,0,0,1-.6,2.273c-1.581,1.407-3.168,3.126-5.709,2a1.1,1.1,0,0,0-1.536.3,1.4,1.4,0,0,0-.092,1.756c.476.871,1.248,1.886,1.121,2.721-.318,2.079-.546,4.444-3.273,5.052-.9.2-1.165.717-1.153,1.659.017,1.3,1.095,1.144,1.764,1.47,1.405.684,3.075,3.847,2.691,5.343a3.236,3.236,0,0,1-.336.738,10.834,10.834,0,0,1-.888,1.5.968.968,0,0,0,.173,1.505,1.935,1.935,0,0,0,1.271.284c.951-.1,1.936-.577,2.824-.422a5.163,5.163,0,0,1,3.751,4.544c.047,1.21.42,1.983,1.882,2.056a5.044,5.044,0,0,1,4.565-2.795,5.15,5.15,0,0,1,4.73,2.8" transform="translate(-168.39 -167.034)" fill="#030303"/>
      <path id="Trazado_237822" data-name="Trazado 237822" d="M180.05,0l-2.588.2a1.377,1.377,0,0,0,.02-.2Z" transform="translate(-122.417)" fill="#2b2b2b"/>
      <path id="Trazado_237823" data-name="Trazado 237823" d="M173.4,0a1.426,1.426,0,0,1-.019.2L171.529,0Z" transform="translate(-118.332)" fill="#4a4a4a"/>
      <path id="Trazado_237824" data-name="Trazado 237824" d="M105.04,80.6a33.812,33.812,0,1,1,33.815-33.833A33.817,33.817,0,0,1,105.04,80.6m0-3.972A29.845,29.845,0,1,0,75.185,46.808a29.905,29.905,0,0,0,29.851,29.817" transform="translate(-49.263 -8.931)" fill="#a3314f"/>
      <path id="Trazado_237825" data-name="Trazado 237825" d="M37.721,233.917l7.166,5.173L22.992,265.749l-6.762-5.565,21.491-26.267" transform="translate(-11.417 -161.039)" fill="#a3314f"/>
      <path id="Trazado_237826" data-name="Trazado 237826" d="M305.6,78.133a2.816,2.816,0,0,1-.325.523c-1.764,1.766-1.333,3.8-.459,5.693.353.765,1.418,1.187,2.115,1.815.355.32.842.747.846,1.13a1.491,1.491,0,0,1-.83,1.117c-2.438.824-2.746,2.922-2.882,4.963-.054.813.712,1.664,1.028,2.526.124.338.195.9.009,1.1a1.308,1.308,0,0,1-1.155.333c-2.463-1.146-4.051.355-5.443,1.919-.562.631-.49,1.809-.768,2.72-.1.341-.338.83-.6.889a1.636,1.636,0,0,1-1.156-.326c-1.784-1.286-1.95-2.774-1.294-4.955a35.6,35.6,0,0,0-.4-21.654,1.844,1.844,0,0,1,.479-2.255c.576-.513,1-1.2,1.564-1.722a1.143,1.143,0,0,1,.964-.214c.271.092.65.515.621.747-.323,2.58,1.46,3.815,3.258,4.874a3.8,3.8,0,0,0,2.537-.027c.894-.23,1.49-.181,1.883.8" transform="translate(-202.725 -49.362)" fill="#90aff6"/>
      <path id="Trazado_237827" data-name="Trazado 237827" d="M77.145,196.205a38.927,38.927,0,0,0,19.1,12.942L92.5,213.87l-18.729-13.7,3.37-3.968" transform="translate(-51.034 -135.077)" fill="#a3314f"/>
      <path id="Trazado_237828" data-name="Trazado 237828" d="M279.337,292.068a5.15,5.15,0,0,0-4.73-2.8,5.045,5.045,0,0,0-4.566,2.795c-1.462-.074-1.835-.846-1.882-2.056a5.163,5.163,0,0,0-3.751-4.544c-.888-.155-1.873.328-2.824.422a1.935,1.935,0,0,1-1.271-.284.968.968,0,0,1-.173-1.505,10.859,10.859,0,0,0,.888-1.5,3.237,3.237,0,0,0,.336-.738c.385-1.5-1.285-4.66-2.691-5.343-.669-.325-1.747-.166-1.764-1.47-.012-.942.252-1.459,1.153-1.659,2.727-.607,2.955-2.972,3.273-5.051.128-.835-.645-1.85-1.121-2.721a1.4,1.4,0,0,1,.092-1.756,1.1,1.1,0,0,1,1.536-.3c2.541,1.127,4.127-.591,5.708-2a3.574,3.574,0,0,0,.6-2.272c.058-1.187.387-2.007,1.814-2.061a5.54,5.54,0,0,1,.61.732c.947,1.575,2.33,2.015,4.135,2.027a4.438,4.438,0,0,0,4.136-2.057,1.515,1.515,0,0,1,1.14-.556c.7.03,1.276.428,1.143,1.271-.443,2.791,1.531,4.005,3.5,5,.756.383,1.93-.012,2.906-.123.616-.07,1.187-.318,1.625.414.3.509.488.9.068,1.447a6.032,6.032,0,0,0-.932,1.606,3.63,3.63,0,0,0-.25,1.781,20.2,20.2,0,0,0,.863,2.648c.409,1.224,1.566,1.426,2.552,1.817.645.256,1,.521.98,1.312-.023.741-.11,1.3-.926,1.463-2.712.528-3.128,2.8-3.472,4.909-.131.8.57,1.773.982,2.624.306.631.7,1.118.1,1.857a1.2,1.2,0,0,1-1.644.3c-2.477-1.058-4.076.567-5.619,1.975a3.563,3.563,0,0,0-.642,2.37c-.012,1.277-.5,1.94-1.879,2.025m-5.288-7.558a9.9,9.9,0,1,0-9.276-10.245,9.744,9.744,0,0,0,9.276,10.245" transform="translate(-177.113 -177.086)" fill="#90aef5"/>
      <path id="Trazado_237829" data-name="Trazado 237829" d="M113.833,85.379a29.845,29.845,0,1,1,29.861-29.827,29.833,29.833,0,0,1-29.861,29.827m7.522-54.637c-13.355-3.36-24.68,2-30.336,12.164A25.5,25.5,0,0,0,94.758,73.12c7.434,7.861,18.59,9.589,26.057,6.979l-.489-.359c-1.484-1.082-1.684-1.731-1.065-3.476.117-.329.246-.653.369-.98.217-.581.434-1.071-.186-1.66a1.271,1.271,0,0,0-1.636-.221c-.532.231-1.109.356-1.646.579a1.891,1.891,0,0,1-2.511-.84,38.307,38.307,0,0,1-2.149-3.594c-1.7-3.335-1.656-3.561,1.058-6.032a1.349,1.349,0,0,0,.475-1.511c-.159-.681-.572-.827-1.142-.91-.5-.073-.993-.186-1.483-.305a2.115,2.115,0,0,1-1.953-2.451c-.014-1.439.007-2.878,0-4.317-.027-3.377-.209-3.812,3.49-4.464a1.141,1.141,0,0,0,1.094-.947,1.262,1.262,0,0,0-.507-1.5c-.487-.385-.9-.863-1.4-1.231a1.828,1.828,0,0,1-.563-2.565c.692-1.342,1.363-2.7,2.182-3.968,1.965-3.035,2-3.025,5.41-1.821.562.2.97.268,1.427-.257.391-.449.627-.771.351-1.406-.827-1.9-1.719-3.867,1.418-5.124m14.317,38.5a4.547,4.547,0,0,0,.3-.405q7.475-13,.294-26.157a1.2,1.2,0,0,0-1.568-.689,13.861,13.861,0,0,0,.973,27.251m-2.635,3.444c-7.979-2.682-12.634-8.147-12.968-16.455-.365-9.09,4.453-15,13.116-18.152-1.862-1.528-3.56-3.006-5.347-4.366-1.939-1.476-2.232-1.428-4.232,0a2.31,2.31,0,0,0-.255.312c1.2,2.176.949,3.9-1.045,5.944-2.041,2.091-3.828,2.038-6.057.986l-1.815,3.021c.588.536,1.087,1.024,1.62,1.472a2.527,2.527,0,0,1,.768,3.133c-.315.83-.515,1.7-.749,2.564a2.336,2.336,0,0,1-1.765,1.819c-.813.207-1.962.244-2.321.783-.418.627-.143,1.719-.16,2.61,0,.229.026.459.05.826,2.427.188,3.9,1.115,4.717,3.818.846,2.813-.174,4.245-2.18,5.612.264.463.449.8.646,1.127,1.137,1.9,1.151,1.938,3.244,1.271a2.6,2.6,0,0,1,3.027.818,26.977,26.977,0,0,0,1.982,1.973,2.387,2.387,0,0,1,.8,2.617c-.231.777-.461,1.554-.711,2.4.664.365,1.29.748,1.951,1.055a1.262,1.262,0,0,0,.941.123,21.979,21.979,0,0,0,6.745-5.307" transform="translate(-58.06 -17.685)" fill="#030202"/>
      <path id="Trazado_237830" data-name="Trazado 237830" d="M291.4,301.065a9.9,9.9,0,1,1,10.548-9.559,9.774,9.774,0,0,1-10.548,9.559m.671-3.933a5.872,5.872,0,0,0,5.93-6.007,5.959,5.959,0,0,0-11.917.074,5.831,5.831,0,0,0,5.987,5.933" transform="translate(-194.464 -193.641)" fill="#030304"/>
      <path id="Trazado_237831" data-name="Trazado 237831" d="M129.572,39.7c-3.136,1.257-2.245,3.221-1.418,5.124.276.635.04.957-.351,1.406-.457.525-.865.455-1.427.257-3.409-1.2-3.445-1.214-5.41,1.821-.818,1.264-1.49,2.626-2.182,3.968a1.827,1.827,0,0,0,.563,2.565c.5.368.914.846,1.4,1.231a1.261,1.261,0,0,1,.507,1.5,1.14,1.14,0,0,1-1.094.947c-3.7.652-3.518,1.087-3.49,4.464.012,1.439-.009,2.878,0,4.317a2.115,2.115,0,0,0,1.953,2.451c.49.12.984.233,1.483.305.57.083.983.229,1.142.91a1.349,1.349,0,0,1-.475,1.511c-2.714,2.471-2.761,2.7-1.058,6.032a38.439,38.439,0,0,0,2.149,3.594,1.891,1.891,0,0,0,2.511.84c.536-.223,1.114-.347,1.646-.579a1.271,1.271,0,0,1,1.636.221c.62.589.4,1.079.187,1.66-.122.327-.252.651-.369.98-.619,1.745-.42,2.394,1.065,3.476l.489.359c-7.467,2.61-18.623.882-26.057-6.979a25.5,25.5,0,0,1-3.739-30.214C104.892,41.7,116.218,36.337,129.572,39.7" transform="translate(-66.278 -26.641)" fill="#dddceb"/>
      <path id="Trazado_237833" data-name="Trazado 237833" d="M194.4,88.016a21.979,21.979,0,0,1-6.744,5.307,1.262,1.262,0,0,1-.941-.123c-.661-.307-1.287-.689-1.951-1.055.25-.843.479-1.62.711-2.4a2.387,2.387,0,0,0-.8-2.617,26.98,26.98,0,0,1-1.982-1.973,2.6,2.6,0,0,0-3.027-.818c-2.093.667-2.107.628-3.244-1.271-.2-.329-.381-.665-.646-1.127,2.006-1.367,3.026-2.8,2.18-5.612-.813-2.7-2.29-3.631-4.717-3.818-.024-.367-.055-.6-.05-.826.016-.891-.259-1.983.16-2.61.359-.539,1.508-.575,2.321-.783a2.336,2.336,0,0,0,1.765-1.819c.234-.86.434-1.734.749-2.564a2.526,2.526,0,0,0-.768-3.133c-.533-.447-1.032-.936-1.62-1.472l1.815-3.021c2.229,1.052,4.016,1.1,6.057-.986,1.994-2.043,2.247-3.768,1.045-5.944a2.309,2.309,0,0,1,.255-.312c2-1.426,2.293-1.474,4.232,0,1.787,1.361,3.485,2.838,5.347,4.366-8.662,3.15-13.481,9.062-13.116,18.152.334,8.308,4.989,13.773,12.968,16.455" transform="translate(-119.427 -33.014)" fill="#8faef5"/>
    </g>
  </g>
</svg>
