<svg xmlns="http://www.w3.org/2000/svg" width="129" height="128.936" viewBox="0 0 129 128.936">
  <g id="Grupo_165566" data-name="Grupo 165566" transform="translate(-51.88 -53.098)">
    <g id="Grupo_165567" data-name="Grupo 165567" transform="translate(51.88 53.097)">
      <path id="Trazado_237806" data-name="Trazado 237806" d="M57.137,142.867q0-3.786.007-7.572c1.964-.382,2.45-1.661,2.446-3.522q-.06-30.664-.023-61.329c0-4.5,2.314-6.815,6.773-6.816q24.511,0,49.021,0c.557,0,1.112.05,1.8.082,0,5.1-.01,10.084,0,15.068.017,6.7,4.54,11.26,11.237,11.3,4.43.029,8.861.006,13.291.006h1.836v14.723c-14.623-4.537-27.388-1.844-37.071,10.121-8.64,10.676-9.973,22.987-3.312,34.97,8.928,16.061,23.147,20.221,40.508,15.333,0,3.864.082,7.711-.023,11.552s-2.562,6.087-6.451,6.088q-35.471.011-70.941,0c-4.259,0-6.64-2.351-6.663-6.582-.02-3.56-.069-7.122.021-10.68.046-1.837-.592-2.981-2.439-3.348l-.017-7.6c1.8-.249,2.5-1.328,2.446-3.081-.055-1.875-.059-3.755,0-5.629.056-1.761-.67-2.818-2.445-3.1m32.394-22.76a4.754,4.754,0,0,0-1.124-.285q-6.3-.031-12.6,0a4.684,4.684,0,0,0-1.122.289c-1.388.5-2.34,1.375-1.994,2.942.338,1.532,1.527,1.954,3.011,1.94q6.444-.06,12.888,0c1.486.012,2.664-.424,2.972-1.975.311-1.57-.623-2.449-2.035-2.908m.689-21.042c-4.887,0-9.775-.013-14.662.006-1.891.008-2.939.9-2.935,2.394,0,1.469,1.107,2.424,2.943,2.427q14.663.022,29.327,0c1.96,0,3.046-.957,3-2.529-.048-1.532-1-2.289-3-2.3-4.887-.016-9.775-.005-14.663,0M88.189,82.814q6.039,0,12.079,0a9.781,9.781,0,0,0,1.716-.11,2.233,2.233,0,0,0,2.023-2.393,2.27,2.27,0,0,0-2.1-2.338,10.59,10.59,0,0,0-1.72-.07q-10.527-.006-21.053,0c-1.437,0-2.882-.056-4.309.068a2.211,2.211,0,0,0-2.183,2.252,2.3,2.3,0,0,0,2.1,2.517,8.432,8.432,0,0,0,1.546.077q5.953.008,11.908,0m.065,84.417c4.026,0,8.052.006,12.078-.006.628,0,1.429.13,1.846-.192.74-.572,1.7-1.433,1.722-2.2s-.887-1.684-1.6-2.293c-.39-.335-1.21-.221-1.836-.222q-12.165-.017-24.33,0c-.571,0-1.314-.118-1.674.181a4.844,4.844,0,0,0-1.764,2.22,1.99,1.99,0,0,0,1.767,2.351,8.726,8.726,0,0,0,1.882.152c3.969.013,7.937.006,11.906.006m-6.185-21.169c2.236,0,4.473.022,6.709-.007,1.88-.024,2.883-.92,2.844-2.457-.036-1.427-1.072-2.348-2.808-2.359q-6.709-.042-13.419,0c-1.7.012-2.765,1-2.773,2.406-.01,1.445,1.008,2.379,2.737,2.406,2.236.036,4.473.009,6.71.01" transform="translate(-54.716 -58.778)" fill="#d2e1f1"/>
      <path id="Trazado_237807" data-name="Trazado 237807" d="M54.316,156.59c1.847.367,2.485,1.51,2.439,3.348-.089,3.558-.041,7.12-.021,10.68.023,4.231,2.405,6.581,6.663,6.582q35.471.006,70.942,0c3.889,0,6.345-2.255,6.45-6.088s.023-7.689.023-11.552c-17.36,4.888-31.579.728-40.508-15.333-6.661-11.982-5.328-24.294,3.311-34.97C113.3,97.29,126.064,94.6,140.687,99.134V84.41h-1.836c-4.43,0-8.861.024-13.29-.006-6.7-.045-11.221-4.6-11.238-11.3-.012-4.984,0-9.969,0-15.069-.683-.032-1.239-.082-1.8-.082q-24.51-.006-49.021,0c-4.459,0-6.772,2.319-6.773,6.816q-.009,30.664.023,61.328c0,1.861-.482,3.14-2.446,3.523-1.838-.407-2.43-1.609-2.428-3.407.028-20.623,0-41.245.028-61.868.009-6.686,4.611-11.213,11.321-11.218Q89.474,53.1,115.72,53.1a4.377,4.377,0,0,1,3.367,1.362c8.4,8.43,16.862,16.8,25.22,25.278a5.065,5.065,0,0,1,1.279,3.171c.124,5.8.03,11.6.1,17.4a2.694,2.694,0,0,0,.854,1.979,32.268,32.268,0,0,1,11.669,40.267c-.093.2-.144.429-.31.938,1.257,1.173,2.632,2.392,3.935,3.685q7.774,7.716,15.509,15.473c4.579,4.59,4.726,11.2.372,15.541s-10.967,4.2-15.576-.381c-5.384-5.346-10.726-10.735-16.309-16.33-.082.672-.173,1.076-.175,1.479-.013,2.585.013,5.17-.011,7.755-.064,6.82-4.582,11.3-11.412,11.309q-22.1.016-44.2,0-13.3,0-26.591,0c-7.038-.006-11.512-4.484-11.534-11.534-.011-3.5.041-7.009-.019-10.512-.031-1.8.59-3,2.435-3.392M156.2,129.384A27.5,27.5,0,1,0,128.92,156.75,27.483,27.483,0,0,0,156.2,129.384m-8.3,27.361c5.631,5.629,11.9,11.946,18.238,18.2a5.373,5.373,0,0,0,5.265,1.409,5.841,5.841,0,0,0,2.762-9.993c-5.932-6.008-11.938-11.944-17.921-17.9a6.84,6.84,0,0,0-.909-.655l.639.816-8.074,8.128M136.458,79.6l-17.3-17.245c0,3.433-.01,7.265,0,11.1a5.794,5.794,0,0,0,5.361,6.089c4.107.24,8.24.058,11.934.058" transform="translate(-51.88 -53.097)"/>
      <path id="Trazado_237808" data-name="Trazado 237808" d="M54.305,235.715c1.775.278,2.5,1.335,2.445,3.1-.06,1.875-.056,3.754,0,5.629.051,1.753-.646,2.832-2.446,3.081-1.788-.307-2.443-1.453-2.413-3.163.032-1.821.039-3.644,0-5.465a2.772,2.772,0,0,1,2.416-3.178" transform="translate(-51.884 -151.626)" fill="#40285b"/>
      <path id="Trazado_237809" data-name="Trazado 237809" d="M108.366,140.584c4.888,0,9.775-.011,14.663.005,2,.006,2.956.763,3,2.295.049,1.572-1.036,2.527-3,2.529q-14.663.02-29.326,0c-1.837,0-2.941-.958-2.944-2.428,0-1.5,1.045-2.387,2.935-2.394,4.888-.02,9.775-.007,14.663-.007" transform="translate(-72.861 -100.297)" fill="#3e2658"/>
      <path id="Trazado_237810" data-name="Trazado 237810" d="M106.352,99.522q-5.954,0-11.907,0a8.39,8.39,0,0,1-1.546-.076,2.3,2.3,0,0,1-2.1-2.517,2.211,2.211,0,0,1,2.183-2.252c1.428-.124,2.873-.067,4.31-.068q10.527-.007,21.053,0a10.585,10.585,0,0,1,1.72.071,2.269,2.269,0,0,1,2.1,2.338,2.233,2.233,0,0,1-2.024,2.393,9.767,9.767,0,0,1-1.715.11q-6.04.012-12.08,0" transform="translate(-72.879 -75.486)" fill="#3f295b"/>
      <path id="Trazado_237811" data-name="Trazado 237811" d="M106.429,282.847c-3.969,0-7.937.006-11.906-.006a8.755,8.755,0,0,1-1.882-.152,1.99,1.99,0,0,1-1.767-2.351,4.843,4.843,0,0,1,1.764-2.22c.361-.3,1.1-.181,1.675-.182q12.165-.013,24.329,0c.626,0,1.446-.112,1.836.222.71.609,1.617,1.526,1.6,2.293s-.982,1.623-1.721,2.195c-.417.322-1.218.191-1.846.192-4.026.013-8.052.007-12.078.007" transform="translate(-72.891 -174.393)" fill="#40295a"/>
      <path id="Trazado_237812" data-name="Trazado 237812" d="M100.214,236.977c-2.237,0-4.474.027-6.71-.009-1.728-.028-2.746-.961-2.737-2.406.008-1.41,1.075-2.394,2.773-2.406q6.71-.047,13.419,0c1.736.011,2.772.932,2.808,2.359.039,1.538-.965,2.434-2.844,2.457-2.236.029-4.473.007-6.709.006" transform="translate(-72.861 -149.693)" fill="#402759"/>
      <path id="Trazado_237813" data-name="Trazado 237813" d="M107.679,186.286c1.413.46,2.347,1.338,2.035,2.908-.308,1.551-1.485,1.987-2.972,1.975q-6.444-.052-12.888,0c-1.485.014-2.673-.408-3.011-1.94-.346-1.567.606-2.446,1.994-2.942l14.842,0" transform="translate(-72.864 -124.957)" fill="#3d2357"/>
      <path id="Trazado_237814" data-name="Trazado 237814" d="M110.1,185.933l-14.842,0a4.678,4.678,0,0,1,1.123-.289q6.3-.031,12.6,0a4.75,4.75,0,0,1,1.124.285" transform="translate(-75.283 -124.604)" fill="#5bdff7"/>
      <path id="Trazado_237815" data-name="Trazado 237815" d="M214,186.436a27.5,27.5,0,1,1-27.418-27.6A27.419,27.419,0,0,1,214,186.436M183.546,190.8c-2.523-2.574-4.911-5.053-7.35-7.48a2.264,2.264,0,0,0-3.391-.087,2.314,2.314,0,0,0-.059,3.394q4.511,4.633,9.146,9.145a2.3,2.3,0,0,0,3.531-.023q7.411-7.344,14.774-14.738c.2-.2.5-.468.487-.684-.069-.911.069-2.149-.456-2.632a4.048,4.048,0,0,0-2.76-.511c-.505.038-.986.729-1.432,1.171-4.076,4.049-8.141,8.108-12.489,12.443" transform="translate(-109.676 -110.148)" fill="#ffb500"/>
      <path id="Trazado_237816" data-name="Trazado 237816" d="M260.418,267.711l8.074-8.128-.639-.816a6.946,6.946,0,0,1,.909.655c5.983,5.958,11.989,11.894,17.921,17.9a5.841,5.841,0,0,1-2.762,9.992,5.374,5.374,0,0,1-5.266-1.409c-6.336-6.252-12.607-12.568-18.237-18.2" transform="translate(-164.393 -164.063)" fill="#a3314f"/>
      <path id="Trazado_237817" data-name="Trazado 237817" d="M215.289,90.456c-3.694,0-7.827.182-11.934-.058a5.794,5.794,0,0,1-5.361-6.089c-.013-3.833,0-7.665,0-11.1l17.3,17.245" transform="translate(-130.71 -63.949)" fill="#b0c0d2"/>
      <path id="Trazado_237818" data-name="Trazado 237818" d="M198.816,212.258c4.348-4.335,8.414-8.394,12.489-12.443.446-.443.926-1.133,1.432-1.171a4.048,4.048,0,0,1,2.76.511c.525.483.387,1.721.456,2.632.016.216-.287.484-.487.684q-7.377,7.378-14.774,14.738a2.3,2.3,0,0,1-3.531.023q-4.63-4.514-9.146-9.145a2.314,2.314,0,0,1,.059-3.394,2.264,2.264,0,0,1,3.391.087c2.439,2.427,4.827,4.906,7.35,7.48" transform="translate(-124.946 -131.61)"/>
    </g>
  </g>
</svg>
