<svg id="Grupo_165572" data-name="Grupo 165572" xmlns="http://www.w3.org/2000/svg" width="111.484" height="111.268" viewBox="0 0 111.484 111.268">
  <g id="Grupo_165573" data-name="Grupo 165573">
    <path id="Trazado_237834" data-name="Trazado 237834" d="M111.484,82.364v5.868c-.135.5-.313,1-.4,1.51a25.989,25.989,0,0,1-50.764,2.02c-.375-1.5-.588-3.034-.873-4.539h-7.5c-.114.811-.206,1.561-.326,2.305-1.979,12.239-12.705,21.606-24.89,21.739C13.642,111.411,2.724,102.6.415,90.049A12.689,12.689,0,0,0,0,88.666V81.929a9.288,9.288,0,0,0,.386-1.167,25.244,25.244,0,0,1,12.506-17.8A74.465,74.465,0,0,1,20.45,59.6v-1q0-21.729,0-43.459a7.368,7.368,0,0,1,6.533-7.665,18.321,18.321,0,0,1,2.5-.071c3.768-.006,7.537,0,11.285,0,.658-2.8,1.813-3.7,4.67-3.7H48.3C48.339,1.8,49.532.818,50.952,0h9.363a4.088,4.088,0,0,1,2.9,3.7H66.05c2.845,0,4,.9,4.663,3.7h1.162c3.917,0,7.834-.035,11.75.011a7.339,7.339,0,0,1,7.4,7.39q.042,19.328.009,38.656c0,1.34-.409,1.817-1.773,2.184-1.491-.295-1.938-.861-1.939-2.5q0-18.63,0-37.259c0-.435.017-.87-.01-1.3a3.578,3.578,0,0,0-3.692-3.356v1.276q0,22.7,0,45.406c0,.253-.086.559.025.748.161.273.451.639.71.659,1.623.128,3.253.17,4.88.241.174.05.345.114.521.149q16.392,3.3,20.959,19.36c.31,1.083.519,2.2.774,3.295M70.666,11.15c-.471,2.451-1.707,3.651-3.826,3.657q-11.1.03-22.2,0a3.6,3.6,0,0,1-3.712-3.138c-.032-.167-.071-.332-.105-.489h-9.2V59.846C43.553,63.275,50.348,71.094,52.046,83.4h7.5A26.1,26.1,0,0,1,79.821,59.956V11.15Zm37.1,74.14a22.3,22.3,0,1,0-22.177,22.272A22.323,22.323,0,0,0,107.77,85.29M25.89,107.569a22.249,22.249,0,1,0-22.157-22.5,22.233,22.233,0,0,0,22.157,22.5M27.87,11.2a3,3,0,0,0-.548-.024,3.735,3.735,0,0,0-3.152,3.939q-.007,20.952,0,41.9c0,2.3,0,2.229,2.342,2.346,1.127.056,1.387-.28,1.385-1.373Q27.84,35.2,27.87,12.4Zm16.786-.174H66.807V7.4c-1.284,0-2.506.029-3.726-.007A3.567,3.567,0,0,1,59.725,5.06a10.72,10.72,0,0,1-.389-1.309H52.142c-.795,2.909-1.785,3.655-4.8,3.656H44.656Z"/>
    <path id="Trazado_237838" data-name="Trazado 237838" d="M147.964,38.4h9.155V87.211a26.1,26.1,0,0,0-20.276,23.441h-7.5c-1.7-12.3-8.493-20.122-20.424-23.551V38.436h9.2c.034.157.073.323.105.489a3.6,3.6,0,0,0,3.712,3.138q11.1.027,22.2,0c2.119-.006,3.355-1.206,3.826-3.657m-1.872,19.469a8.318,8.318,0,0,0,.01,1.191,1.691,1.691,0,0,0,1.482,1.512c.842.155,1.727-.139,1.875-.907.222-1.15,1.048-1.516,1.823-2.054a4.768,4.768,0,0,0,.865-.818,5.558,5.558,0,1,0-8.947-6.555,1.844,1.844,0,0,0,.395,2.6,1.9,1.9,0,0,0,2.606-.43c.118-.137.208-.3.336-.425a1.844,1.844,0,0,1,3.2,1.344,1.793,1.793,0,0,1-1.454,1.689c-2.143.57-2.221.658-2.194,2.848m0,24.063a9.114,9.114,0,0,0,.009,1.192,1.674,1.674,0,0,0,1.55,1.56,1.583,1.583,0,0,0,1.942-1.167,2.306,2.306,0,0,1,1.3-1.525,5.45,5.45,0,0,0,2.465-5.7,5.544,5.544,0,0,0-10.124-1.978,1.84,1.84,0,0,0,1.117,2.948,2.065,2.065,0,0,0,2.1-1.038,1.687,1.687,0,0,1,2.123-.6,1.727,1.727,0,0,1,1.164,1.883,1.8,1.8,0,0,1-1.51,1.639c-2.009.484-2.158.669-2.135,2.789m-26.1-4.622c1.775,0,3.55.017,5.325-.005,1.349-.017,2.1-.679,2.123-1.8.023-1.16-.767-1.9-2.143-1.908q-5.271-.03-10.542,0a1.927,1.927,0,0,0-2.15,1.82c-.033,1.116.809,1.87,2.17,1.887,1.738.021,3.477.005,5.216.006m.067-25.945c-1.775,0-3.549-.011-5.324,0a1.863,1.863,0,1,0-.042,3.692q5.324.023,10.648,0c1.3,0,2.09-.715,2.1-1.829a1.824,1.824,0,0,0-2.06-1.863c-1.774-.018-3.55,0-5.324,0m-1.827,33.388c1.158,0,2.318.032,3.475-.008a1.866,1.866,0,1,0,0-3.72q-3.529-.054-7.059,0a1.867,1.867,0,1,0,0,3.718c1.193.04,2.389.009,3.583.01m-.115-22.281c1.194,0,2.387.015,3.581,0a1.853,1.853,0,1,0,.019-3.692q-3.526-.037-7.053,0a1.856,1.856,0,1,0-.018,3.691c1.157.02,2.314,0,3.472,0m16.762,14.8c0,.008,0,.017,0,.025q.925,0,1.849,0a1.706,1.706,0,0,0,.217-.019,1.833,1.833,0,0,0,1.669-1.712,1.687,1.687,0,0,0-1.461-1.867,28.678,28.678,0,0,0-4.547.015,1.631,1.631,0,0,0-1.386,1.905,1.682,1.682,0,0,0,1.594,1.64c.682.068,1.376.013,2.064.013m-.059-22.216v.006h1.85a1.907,1.907,0,0,0,1.944-1.9,1.8,1.8,0,0,0-1.719-1.774c-1.3-.055-2.612-.052-3.916,0a1.794,1.794,0,0,0-1.776,1.824,1.824,1.824,0,0,0,1.768,1.844c.613.045,1.232.008,1.849.008m14.968,11.3a1.867,1.867,0,0,0-1.939-1.993,1.823,1.823,0,0,0-1.775,2.124,1.874,1.874,0,0,0,1.854,1.971,1.937,1.937,0,0,0,1.86-2.1" transform="translate(-77.299 -27.255)" fill="#d9d9d9"/>
    <path id="Trazado_237839" data-name="Trazado 237839" d="M262.181,239.407a22.3,22.3,0,1,1-22.314-22.242,22.348,22.348,0,0,1,22.314,22.242m-24.214,12.466c-1.994-.437-3.452-2.41-3.647-4.868a1.871,1.871,0,1,0-3.707.177A9.239,9.239,0,0,0,236.9,255.6a1.719,1.719,0,0,1,1.34,1.157,2.407,2.407,0,0,0,1.621,1.155,1.466,1.466,0,0,0,1.714-1.188c.161-.765.641-.9,1.227-1.109a8.874,8.874,0,0,0,6.228-7.294,8.685,8.685,0,0,0-3.431-8.741,28.208,28.208,0,0,0-3.869-2.121V226.93c1.88.3,3.735,2.831,3.729,4.96a1.837,1.837,0,0,0,1.883,1.964,1.889,1.889,0,0,0,1.8-2.141,9.215,9.215,0,0,0-6.336-8.494c-.587-.194-1.07-.335-1.228-1.1a1.466,1.466,0,0,0-1.712-1.191,2.406,2.406,0,0,0-1.624,1.151,1.724,1.724,0,0,1-1.337,1.156,9.243,9.243,0,0,0-1.17,17.061c.708.348,1.472.58,2.228.873Z" transform="translate(-154.41 -154.116)" fill="#f8b244"/>
    <path id="Trazado_237840" data-name="Trazado 237840" d="M35.011,261.744a22.249,22.249,0,1,1,.468-44.494,22.248,22.248,0,0,1-.468,44.494M16.53,239.408a18.608,18.608,0,1,0,18.7-18.5,18.676,18.676,0,0,0-18.7,18.5" transform="translate(-9.12 -154.176)" fill="#676767"/>
    <path id="Trazado_237841" data-name="Trazado 237841" d="M293.571,83.095q-.014,1.957-.027,3.914c-1.628-.071-3.257-.114-4.881-.241-.259-.02-.55-.386-.71-.659-.111-.189-.025-.494-.025-.748q0-22.7,0-45.406V38.678a3.579,3.579,0,0,1,3.692,3.356c.027.433.01.869.01,1.3q0,18.63,0,37.259c0,1.638.448,2.2,1.939,2.5" transform="translate(-204.313 -27.449)" fill="#9f745c"/>
    <path id="Trazado_237842" data-name="Trazado 237842" d="M86.945,38.508v1.2q0,22.8.024,45.594c0,1.093-.257,1.43-1.385,1.373-2.339-.117-2.342-.051-2.342-2.346q0-20.952,0-41.9A3.735,3.735,0,0,1,86.4,38.484a3.032,3.032,0,0,1,.548.024" transform="translate(-59.075 -27.305)" fill="#9f735c"/>
    <path id="Trazado_237843" data-name="Trazado 237843" d="M153.813,20.2V16.574h2.681c3.02,0,4.01-.747,4.8-3.656h7.194a10.726,10.726,0,0,0,.389,1.309,3.567,3.567,0,0,0,3.356,2.334c1.22.036,2.443.007,3.726.007V20.2Z" transform="translate(-109.157 -9.168)" fill="#a9a9a9"/>
    <path id="Trazado_237844" data-name="Trazado 237844" d="M229.008,80.529c-.027-2.19.051-2.278,2.194-2.848a1.793,1.793,0,0,0,1.454-1.689,1.844,1.844,0,0,0-3.2-1.344c-.127.126-.218.288-.336.426a1.9,1.9,0,0,1-2.606.43,1.844,1.844,0,0,1-.4-2.6,5.558,5.558,0,1,1,8.947,6.555,4.756,4.756,0,0,1-.865.818c-.774.538-1.6.9-1.823,2.054-.148.768-1.033,1.062-1.876.907a1.691,1.691,0,0,1-1.482-1.513,8.359,8.359,0,0,1-.01-1.191" transform="translate(-160.214 -49.91)"/>
    <path id="Trazado_237845" data-name="Trazado 237845" d="M229.072,163.475c-.023-2.119.127-2.3,2.135-2.789a1.8,1.8,0,0,0,1.51-1.639,1.726,1.726,0,0,0-1.164-1.883,1.687,1.687,0,0,0-2.123.6,2.065,2.065,0,0,1-2.1,1.038,1.84,1.84,0,0,1-1.117-2.948,5.544,5.544,0,0,1,10.124,1.978,5.45,5.45,0,0,1-2.465,5.7,2.305,2.305,0,0,0-1.3,1.525,1.584,1.584,0,0,1-1.942,1.167,1.674,1.674,0,0,1-1.55-1.56,9.111,9.111,0,0,1-.009-1.192" transform="translate(-160.282 -108.793)"/>
    <path id="Trazado_237846" data-name="Trazado 237846" d="M128.973,163.318c-1.739,0-3.478.016-5.217-.006-1.361-.017-2.2-.771-2.169-1.887a1.926,1.926,0,0,1,2.15-1.82q5.271-.03,10.541,0c1.376.008,2.166.748,2.143,1.909-.022,1.12-.775,1.782-2.123,1.8-1.775.022-3.55.006-5.325.005" transform="translate(-86.287 -113.258)"/>
    <path id="Trazado_237847" data-name="Trazado 237847" d="M129.041,83.051c1.775,0,3.55-.013,5.324,0a1.823,1.823,0,0,1,2.06,1.863c-.011,1.115-.8,1.824-2.1,1.829q-5.324.02-10.648,0a1.863,1.863,0,1,1,.042-3.692c1.775-.014,3.55,0,5.324,0" transform="translate(-86.288 -58.936)"/>
    <path id="Trazado_237848" data-name="Trazado 237848" d="M127.2,188.886c-1.195,0-2.39.031-3.583-.009a1.867,1.867,0,1,1,0-3.717q3.529-.051,7.059,0a1.866,1.866,0,1,1,0,3.72c-1.157.04-2.316.008-3.475.008" transform="translate(-86.278 -131.384)"/>
    <path id="Trazado_237849" data-name="Trazado 237849" d="M127.1,112.242c-1.158,0-2.315.016-3.472,0a1.856,1.856,0,1,1,.018-3.691q3.526-.032,7.053,0a1.853,1.853,0,1,1-.019,3.692c-1.193.019-2.387,0-3.581,0" transform="translate(-86.291 -77.021)"/>
    <path id="Trazado_237850" data-name="Trazado 237850" d="M189.331,163.375c-.689,0-1.383.055-2.064-.013a1.682,1.682,0,0,1-1.594-1.64,1.631,1.631,0,0,1,1.386-1.906,28.72,28.72,0,0,1,4.547-.015,1.688,1.688,0,0,1,1.461,1.868,1.832,1.832,0,0,1-1.669,1.712,1.694,1.694,0,0,1-.217.019c-.616,0-1.233,0-1.849,0v-.025" transform="translate(-131.758 -113.349)"/>
    <path id="Trazado_237851" data-name="Trazado 237851" d="M189.26,86.715c-.617,0-1.236.037-1.849-.008a1.824,1.824,0,0,1-1.768-1.844,1.794,1.794,0,0,1,1.776-1.824c1.3-.047,2.613-.05,3.916,0a1.8,1.8,0,0,1,1.719,1.774,1.907,1.907,0,0,1-1.944,1.9h-1.85v-.005" transform="translate(-131.746 -58.905)"/>
    <path id="Trazado_237852" data-name="Trazado 237852" d="M240.577,129.85a1.937,1.937,0,0,1-1.86,2.1,1.874,1.874,0,0,1-1.854-1.971,1.823,1.823,0,0,1,1.775-2.124,1.867,1.867,0,0,1,1.939,1.993" transform="translate(-168.095 -90.737)"/>
    <path id="Trazado_237853" data-name="Trazado 237853" d="M269.789,260.993V250.285c-.756-.293-1.52-.525-2.228-.873a9.243,9.243,0,0,1,1.17-17.06,1.723,1.723,0,0,0,1.337-1.156,2.409,2.409,0,0,1,1.624-1.151,1.467,1.467,0,0,1,1.712,1.191c.158.769.64.91,1.227,1.1a9.216,9.216,0,0,1,6.336,8.494,1.889,1.889,0,0,1-1.8,2.142,1.837,1.837,0,0,1-1.883-1.964c.006-2.13-1.848-4.663-3.728-4.961v10.533a28.242,28.242,0,0,1,3.869,2.121,8.685,8.685,0,0,1,3.431,8.741,8.872,8.872,0,0,1-6.228,7.293c-.586.205-1.065.344-1.226,1.109a1.466,1.466,0,0,1-1.714,1.187,2.4,2.4,0,0,1-1.621-1.155,1.718,1.718,0,0,0-1.34-1.156,9.239,9.239,0,0,1-6.292-8.422,1.871,1.871,0,1,1,3.707-.177c.2,2.459,1.654,4.431,3.647,4.868m3.806.056a5.323,5.323,0,0,0,3.66-5.421,5.159,5.159,0,0,0-3.66-4.72Zm-3.8-24.963c-2.079.436-3.691,2.748-3.651,5.174.037,2.293,1.741,4.572,3.651,4.885Z" transform="translate(-186.232 -163.236)"/>
    <path id="Trazado_237854" data-name="Trazado 237854" d="M25.523,248.343a18.609,18.609,0,1,1,18.449,18.639,18.688,18.688,0,0,1-18.449-18.639m27.628,11.814c-1.816-2.206-2.077-2.933-1.149-3.775,1.735-1.576,2.735.153,3.875,1.077a14.752,14.752,0,0,0,2.971-7.173c-1.488-.112-3.352.431-3.527-1.873-.1-1.255.552-1.578,3.525-1.945a14.473,14.473,0,0,0-2.959-7.058c-2.215,1.853-2.938,2.122-3.8,1.208-1.671-1.782.2-2.766,1.09-3.937a14.659,14.659,0,0,0-7.106-2.947c-.359,2.947-.692,3.6-1.953,3.509-2.32-.173-1.723-2.061-1.9-3.526A14.577,14.577,0,0,0,35.1,236.68c1.8,2.159,2.014,2.9,1.137,3.809-.892.923-1.643.717-3.881-1.088a14.416,14.416,0,0,0-2.935,7.078c2.887.3,3.566.622,3.51,1.862-.106,2.376-2.035,1.824-3.529,1.948a14.4,14.4,0,0,0,2.981,7.147c2.046-1.808,2.83-2.07,3.734-1.179.31.306.693.9.584,1.2a24.41,24.41,0,0,1-1.432,2.844,14.232,14.232,0,0,0,6.942,2.782c.212-2.809.534-3.507,1.775-3.49,2.454.034,1.872,2.038,2.061,3.528a14.845,14.845,0,0,0,7.107-2.963" transform="translate(-18.113 -163.111)"/>
    <path id="Trazado_237855" data-name="Trazado 237855" d="M300.914,312.122v-10.14a5.158,5.158,0,0,1,3.66,4.72,5.323,5.323,0,0,1-3.66,5.421" transform="translate(-213.552 -214.309)" fill="#f6b044"/>
    <path id="Trazado_237856" data-name="Trazado 237856" d="M278.9,250.926v10.06c-1.911-.313-3.614-2.593-3.651-4.886-.039-2.426,1.572-4.738,3.651-5.174" transform="translate(-195.335 -178.076)" fill="#f7b144"/>
    <path id="Trazado_237857" data-name="Trazado 237857" d="M62.629,269.639a14.843,14.843,0,0,1-7.107,2.963c-.188-1.49.393-3.494-2.061-3.528-1.241-.017-1.563.681-1.775,3.49a14.23,14.23,0,0,1-6.942-2.782,24.43,24.43,0,0,0,1.432-2.844c.108-.3-.274-.894-.584-1.2-.9-.89-1.687-.629-3.734,1.179a14.4,14.4,0,0,1-2.981-7.147c1.494-.124,3.423.428,3.529-1.947.055-1.24-.623-1.566-3.51-1.863a14.414,14.414,0,0,1,2.935-7.077c2.238,1.8,2.989,2.011,3.881,1.088.877-.908.662-1.651-1.137-3.81A14.583,14.583,0,0,1,51.7,243.2c.176,1.465-.421,3.352,1.9,3.526,1.262.094,1.594-.563,1.953-3.509a14.654,14.654,0,0,1,7.106,2.947c-.894,1.17-2.762,2.155-1.09,3.937.857.913,1.58.645,3.8-1.208a14.474,14.474,0,0,1,2.959,7.059c-2.973.366-3.62.689-3.525,1.945.175,2.3,2.039,1.761,3.527,1.873a14.751,14.751,0,0,1-2.971,7.173c-1.14-.923-2.139-2.652-3.875-1.076-.928.842-.667,1.569,1.149,3.775m-7.166-14.814c0-.5,0-.888,0-1.275s.017-.8-.007-1.192a1.876,1.876,0,0,0-1.853-1.879,1.832,1.832,0,0,0-1.837,1.882c-.033,1.842-.046,3.686,0,5.528a1.785,1.785,0,0,0,2.576,1.68c1.323-.574,2.613-1.23,3.878-1.925a1.746,1.746,0,0,0,.784-2.324,1.829,1.829,0,0,0-2.354-.986c-.367.119-.716.293-1.189.491" transform="translate(-27.591 -172.593)" fill="#fdfdfd"/>
    <path id="Trazado_237858" data-name="Trazado 237858" d="M86.893,272.62c.474-.2.822-.372,1.189-.491a1.829,1.829,0,0,1,2.354.986,1.746,1.746,0,0,1-.784,2.324c-1.264.694-2.555,1.351-3.878,1.925a1.785,1.785,0,0,1-2.576-1.68c-.049-1.841-.036-3.686,0-5.528a1.832,1.832,0,0,1,1.837-1.882,1.876,1.876,0,0,1,1.853,1.879c.024.4.006.795.007,1.192s0,.774,0,1.275" transform="translate(-59.021 -190.388)" fill="#080000"/>
  </g>
</svg>
