<svg xmlns="http://www.w3.org/2000/svg" width="119" height="166" viewBox="0 0 119 166">
  <g id="Grupo_166661" data-name="Grupo 166661" transform="translate(-325 -1085)">
    <rect id="Rectángulo_51580" data-name="Rectángulo 51580" width="119" height="33" rx="16.5" transform="translate(325 1218)" fill="#e8e8e8"/>
    <text id="IDEA" transform="translate(326 1226)" fill="#12263f" font-size="16" font-family="Roboto-Regular, Roboto"><tspan x="-17.188" y="17">IDEA</tspan></text>
    <rect id="Rectángulo_51581" data-name="Rectángulo 51581" width="119" height="33" rx="16.5" transform="translate(325 1218)" fill="#e8e8e8"/>
    <path id="Trazado_255644" data-name="Trazado 255644" d="M46.652,17h-1.5V5.625h1.5Zm2.164-4.3a4.952,4.952,0,0,1,.922-3.129A3.137,3.137,0,0,1,54.5,9.406V5h1.445V17H54.621l-.07-.906a2.943,2.943,0,0,1-2.414,1.063,2.887,2.887,0,0,1-2.395-1.2,5.008,5.008,0,0,1-.926-3.141Zm1.445.164a3.749,3.749,0,0,0,.594,2.25,1.92,1.92,0,0,0,1.641.813A2.108,2.108,0,0,0,54.5,14.7V10.813a2.125,2.125,0,0,0-1.992-1.2,1.929,1.929,0,0,0-1.656.82A4.128,4.128,0,0,0,50.262,12.867ZM61.7,17.156a3.693,3.693,0,0,1-2.8-1.129,4.19,4.19,0,0,1-1.078-3.02v-.266A5.073,5.073,0,0,1,58.3,10.5a3.748,3.748,0,0,1,1.344-1.547,3.378,3.378,0,0,1,1.871-.559,3.166,3.166,0,0,1,2.563,1.086A4.7,4.7,0,0,1,65,12.586v.6H59.27a3,3,0,0,0,.73,2.02,2.3,2.3,0,0,0,1.777.77,2.517,2.517,0,0,0,1.3-.312,3.259,3.259,0,0,0,.93-.828l.883.688A3.55,3.55,0,0,1,61.7,17.156Zm-.18-7.578a1.928,1.928,0,0,0-1.469.637A3.1,3.1,0,0,0,59.316,12h4.234v-.109a2.753,2.753,0,0,0-.594-1.707A1.815,1.815,0,0,0,61.52,9.578ZM71.887,17a3.036,3.036,0,0,1-.2-.891,3.225,3.225,0,0,1-2.406,1.047,2.984,2.984,0,0,1-2.051-.707,2.288,2.288,0,0,1-.8-1.793,2.39,2.39,0,0,1,1-2.051,4.733,4.733,0,0,1,2.824-.73H71.66v-.664A1.623,1.623,0,0,0,71.207,10a1.821,1.821,0,0,0-1.336-.449,2.108,2.108,0,0,0-1.3.391,1.151,1.151,0,0,0-.523.945H66.6a2,2,0,0,1,.449-1.223,3.066,3.066,0,0,1,1.219-.934,4.1,4.1,0,0,1,1.691-.344,3.342,3.342,0,0,1,2.289.73,2.635,2.635,0,0,1,.859,2.012v3.891a4.757,4.757,0,0,0,.3,1.852V17Zm-2.4-1.1a2.54,2.54,0,0,0,1.289-.352,2.127,2.127,0,0,0,.883-.914V12.9H70.527q-2.656,0-2.656,1.555a1.316,1.316,0,0,0,.453,1.063A1.742,1.742,0,0,0,69.488,15.9Z" transform="translate(326 1225)" fill="#12263f"/>
    <ellipse id="Elipse_5157" data-name="Elipse 5157" cx="59" cy="59.5" rx="59" ry="59.5" transform="translate(326 1085)" fill="#ffb500" opacity="0.7"/>
    <g id="Grupo_165718" data-name="Grupo 165718" transform="translate(333.719 1107.549)">
      <g id="Grupo_165054" data-name="Grupo 165054" transform="translate(16.757)">
        <path id="Trazado_146607" data-name="Trazado 146607" d="M215.064,0c.953.145,1.907.283,2.86.435a28.505,28.505,0,0,1,16.334,7.958,24.85,24.85,0,0,1,6.821,13.513,28.962,28.962,0,0,1-.935,14.826,24.377,24.377,0,0,1-10.366,12.8,1.43,1.43,0,0,0-.762,1.406c.031,3.833.005,7.666.024,11.5a2.559,2.559,0,0,1-.693,1.864q-2.041,2.231-4.007,4.53c-.724.851-1.418,1.671-2.7,1.357a6.519,6.519,0,0,1-5,5.057,20.878,20.878,0,0,1-4.55.208,1.328,1.328,0,0,1-1.254-1.251,4.225,4.225,0,0,1-.029-.735q0-26.609,0-53.217c0-1.368.219-1.682,1.453-2.1,1.226.323,1.5.68,1.5,1.968q0,3.906,0,7.811v.785h2.487c0-.986-.006-1.938,0-2.89a6.141,6.141,0,0,1,7.755-6,6.015,6.015,0,0,1-1.29,11.868c-1.149.028-2.3,0-3.477,0V47.7c2.587,0,5.141,0,7.7-.008a1.149,1.149,0,0,0,.544-.191,22.3,22.3,0,0,0,9.021-9.651,24.766,24.766,0,0,0,1.764-14.824,22.039,22.039,0,0,0-13.625-17.64,29.757,29.757,0,0,0-10.874-2.4c0,1.112.007,2.187,0,3.262s-.395,1.532-1.488,1.735a1.556,1.556,0,0,1-1.464-1.778c-.009-1.374.037-2.749-.016-4.121A2.074,2.074,0,0,1,211.815,0Zm10.958,58.952V54.076c-4.006,1.206-7.949,2.389-11.886,3.592a.612.612,0,0,0-.36.435c-.027,1.491-.016,2.982-.016,4.548l12.262-3.7m-9.814-27.2h-2.415V47.663h2.415Zm3-3.008c1.164,0,2.241.014,3.318,0a3.088,3.088,0,1,0-3.307-3.3c-.06,1.07-.011,2.147-.011,3.306m7.01,33.286c-.335.072-.472.092-.6.131q-5.318,1.6-10.635,3.2c-1.275.384-1.274.387-1.212,1.729,0,.041.047.081.1.17,2.525,0,5.08.008,7.634-.016a.973.973,0,0,0,.586-.354q1.822-2.029,3.612-4.086a8.221,8.221,0,0,0,.515-.772M213.784,54.69l12.294-3.722-.05-.238H213.784Zm4.626,15.557h-4.593V72.5c2.483.176,4.037-.588,4.593-2.255" transform="translate(-172.571)" fill="#030303"/>
        <path id="Trazado_146608" data-name="Trazado 146608" d="M23.391,20.3c-.531-1.246-.388-1.853.844-2.458,1.528-.75,3.125-1.361,4.695-2.034a21.8,21.8,0,0,1-.979-2.663A10.466,10.466,0,0,1,35.8.44C36.379.29,36.958.147,37.535,0h3.545c.578.137,1.157.269,1.734.411a9.946,9.946,0,0,1,7.87,9,24.5,24.5,0,0,1,.143,2.5q.012,25.832.01,51.663a14.2,14.2,0,0,1-1.044,5.822,9.842,9.842,0,0,1-8.058,5.9,12.54,12.54,0,0,1-10.1-2.377,10.589,10.589,0,0,1-2.817-13.147c.054-.1.1-.21.141-.293-1.129-.407-2.262-.731-3.324-1.212A15.1,15.1,0,0,1,18.119,38.24a1.373,1.373,0,0,0,.033-1.006A16.036,16.036,0,0,1,16.766,31.4c-.063-1.311.282-1.77,1.565-2.052,1.112.387,1.322.654,1.384,1.87A11.6,11.6,0,0,0,21.128,36.5a2.227,2.227,0,0,1-.008,2.405,11.34,11.34,0,0,0-1.227,7.628A12.15,12.15,0,0,0,31.877,56.714a1.58,1.58,0,0,1,1.656.959c.27.682-.038,1.214-.735,1.9a7.294,7.294,0,0,0-1.589,2.073,7.552,7.552,0,0,0,2.928,9.425,10.225,10.225,0,0,0,8.238,1.07,6.611,6.611,0,0,0,5.136-5.211,15.144,15.144,0,0,0,.352-3.429q.031-25.757.008-51.513a20.625,20.625,0,0,0-.146-2.423A6.944,6.944,0,0,0,42.25,3.294a11.006,11.006,0,0,0-5.48-.041,7.581,7.581,0,0,0-5.859,5.341,6.908,6.908,0,0,0,2.046,7.387,1.513,1.513,0,0,1,.5,1.782,1.536,1.536,0,0,1-1.6.937,11.553,11.553,0,0,0-6.169,1.712,1.764,1.764,0,0,1-2.29-.107" transform="translate(-16.757)" fill="#020202"/>
        <path id="Trazado_146609" data-name="Trazado 146609" d="M29.8,32.231a1.763,1.763,0,0,0,2.289.107,11.554,11.554,0,0,1,6.169-1.712,1.536,1.536,0,0,0,1.6-.937,1.512,1.512,0,0,0-.5-1.781,6.909,6.909,0,0,1-2.046-7.387,7.581,7.581,0,0,1,5.859-5.341,11.006,11.006,0,0,1,5.48.041A6.943,6.943,0,0,1,54.138,21.5a20.582,20.582,0,0,1,.146,2.423q.012,25.757-.008,51.513a15.156,15.156,0,0,1-.352,3.429,6.611,6.611,0,0,1-5.136,5.211A10.225,10.225,0,0,1,40.55,83a7.553,7.553,0,0,1-2.928-9.425A7.3,7.3,0,0,1,39.211,71.5c.7-.69,1-1.222.735-1.9a1.58,1.58,0,0,0-1.656-.959A12.15,12.15,0,0,1,26.307,58.46a11.34,11.34,0,0,1,1.226-7.628,2.227,2.227,0,0,0,.008-2.405,11.6,11.6,0,0,1-1.414-5.281c-.061-1.216-.272-1.483-1.384-1.87q.527-2.057,1.053-4.114c.943.3,1.548.146,1.961-.486s.308-1.283-.364-2.046l2.41-2.4M33.961,57.66a9.669,9.669,0,0,0,9.223-9.319c0-.073.005-.147,0-.221a1.511,1.511,0,0,0-1.462-1.54,1.447,1.447,0,0,0-1.485,1.494,6.723,6.723,0,0,1-2.884,5.445,6.616,6.616,0,0,1-3.65,1.2c-1.236.053-1.932.99-1.557,2.008.246.669.82.963,1.813.929M44.2,33.445c-1.122-.032-1.831.513-1.851,1.422-.019.867.642,1.454,1.718,1.525a4.071,4.071,0,0,1,3.858,3.987,1.48,1.48,0,1,0,2.952-.094A7.059,7.059,0,0,0,44.2,33.445m-.05,30.217c-1.043-.029-1.7.466-1.785,1.335a1.516,1.516,0,0,0,1.48,1.6,3.172,3.172,0,0,1,3.219,3.234,1.476,1.476,0,1,0,2.948-.139,6.151,6.151,0,0,0-5.862-6.03" transform="translate(-23.17 -11.927)" fill="#a3314f"/>
        <path id="Trazado_146610" data-name="Trazado 146610" d="M218.266,20.169c1.094-.2,1.48-.645,1.488-1.735s0-2.15,0-3.262a29.757,29.757,0,0,1,10.874,2.4,22.038,22.038,0,0,1,13.625,17.64,24.765,24.765,0,0,1-1.764,14.824,22.3,22.3,0,0,1-9.021,9.651,1.149,1.149,0,0,1-.544.191c-2.554.012-5.108.008-7.7.008V43.873c1.177,0,2.328.023,3.477,0A6.015,6.015,0,0,0,230,32a6.14,6.14,0,0,0-7.754,6c-.007.952,0,1.9,0,2.89h-2.487v-.785q0-3.905,0-7.811c0-1.288-.276-1.646-1.5-1.968q0-1.738.009-3.475c1.082-.208,1.6-.8,1.469-1.7-.122-.828-.712-1.155-1.459-1.294q0-1.845-.007-3.69" transform="translate(-178.566 -12.184)" fill="#fdea78"/>
        <path id="Trazado_146611" data-name="Trazado 146611" d="M28.65,114.469c.672.763.785,1.4.364,2.046S28,117.3,27.052,117c-.776-.683-.94-1.327-.521-2.04s1.1-.866,2.118-.492" transform="translate(-24.426 -91.765)" fill="#060505"/>
        <path id="Trazado_146612" data-name="Trazado 146612" d="M212.391,59.273c.747.139,1.337.466,1.459,1.294.133.9-.387,1.492-1.469,1.7-.941-.2-1.431-.7-1.451-1.457s.459-1.255,1.461-1.538" transform="translate(-172.684 -47.598)" fill="#050504"/>
        <path id="Trazado_146613" data-name="Trazado 146613" d="M238.131,279.425l-12.262,3.7c0-1.567-.011-3.058.016-4.548a.612.612,0,0,1,.36-.435c3.937-1.2,7.88-2.386,11.886-3.592Z" transform="translate(-184.68 -220.473)" fill="#fafafa"/>
        <rect id="Rectángulo_35758" data-name="Rectángulo 35758" width="2.415" height="15.912" transform="translate(41.222 31.751)" fill="#f9e776"/>
        <path id="Trazado_146614" data-name="Trazado 146614" d="M253.479,120.818c0-1.159-.049-2.235.011-3.306a3.231,3.231,0,1,1,3.307,3.3c-1.077.017-2.154,0-3.318,0" transform="translate(-206.838 -92.074)" fill="#fbe877"/>
        <path id="Trazado_146615" data-name="Trazado 146615" d="M238.3,314.928a8.243,8.243,0,0,1-.515.772q-1.795,2.053-3.612,4.086a.971.971,0,0,1-.586.354c-2.555.024-5.109.016-7.634.016-.055-.089-.1-.128-.1-.169-.063-1.342-.063-1.345,1.212-1.729q5.317-1.6,10.635-3.2c.131-.039.267-.059.6-.131" transform="translate(-184.652 -252.899)" fill="#fbfbfb"/>
        <path id="Trazado_146616" data-name="Trazado 146616" d="M226,261.518v-3.961h12.243l.05.238L226,261.518" transform="translate(-184.786 -206.828)" fill="#fafafa"/>
        <path id="Trazado_146617" data-name="Trazado 146617" d="M230.76,356.651c-.556,1.667-2.11,2.431-4.593,2.255v-2.255Z" transform="translate(-184.921 -286.404)" fill="#8088a7"/>
        <path id="Trazado_146618" data-name="Trazado 146618" d="M63.736,187.018c-.993.034-1.566-.26-1.813-.93-.375-1.018.321-1.955,1.557-2.008a6.615,6.615,0,0,0,3.65-1.2,6.723,6.723,0,0,0,2.884-5.445,1.447,1.447,0,0,1,1.485-1.494,1.512,1.512,0,0,1,1.462,1.54c0,.073,0,.147,0,.221a9.669,9.669,0,0,1-9.223,9.319" transform="translate(-52.946 -141.285)" fill="#030203"/>
        <path id="Trazado_146619" data-name="Trazado 146619" d="M115.979,109.243a7.059,7.059,0,0,1,6.678,6.841,1.48,1.48,0,1,1-2.953.094,4.07,4.07,0,0,0-3.858-3.987c-1.076-.071-1.737-.657-1.718-1.525.02-.909.728-1.454,1.851-1.422" transform="translate(-94.95 -87.725)" fill="#040203"/>
        <path id="Trazado_146620" data-name="Trazado 146620" d="M115.967,262.656a6.151,6.151,0,0,1,5.862,6.03,1.476,1.476,0,1,1-2.948.139,3.172,3.172,0,0,0-3.219-3.234,1.516,1.516,0,0,1-1.48-1.6c.081-.869.742-1.364,1.785-1.335" transform="translate(-94.988 -210.922)" fill="#030202"/>
      </g>
    </g>
  </g>
</svg>
