<svg xmlns="http://www.w3.org/2000/svg" width="163.938" height="162.047" viewBox="0 0 163.938 162.047">
  <g id="Grupo_166545" data-name="Grupo 166545" transform="translate(-0.915 -2.762)">
    <g id="Grupo_166546" data-name="Grupo 166546" transform="translate(0.915 2.762)">
      <path id="Trazado_239411" data-name="Trazado 239411" d="M354.524,202.028h-5.208V175.075h5.154c.332-2.534.254-4.689-1.769-6.621-2.3-2.2-4.245-4.781-6.336-7.2a9.791,9.791,0,0,1-2.535-6.709c.042-3.787.049-7.575,0-11.362a7.857,7.857,0,0,1,3.154-6.64c3.12-2.5,6.1-5.176,9.19-7.71a2.85,2.85,0,0,0,1.2-2.562,19.166,19.166,0,0,1,.225-4.45,7.628,7.628,0,0,1,4.109-5.228,1.838,1.838,0,0,0,.912-1.225c.066-4.424.041-8.849.041-13.408a21.81,21.81,0,0,1-18.308-25.945A21.739,21.739,0,0,1,366.9,59.106c10.8.88,19.412,9.5,19.967,20,.607,11.493-6.725,20.541-18.66,22.828v3.915c0,2.187.087,4.378-.024,6.56-.114,2.235.006,4,2.428,5.313a6.1,6.1,0,0,1,2.84,6.233c-.345,3.054.775,5.16,3.022,7.168,3.414,3.053,6.526,6.444,9.777,9.68,2.128,2.119,4.418,4.11,5.4,7.1v3.842a57.56,57.56,0,0,0-1.87,5.6,18.514,18.514,0,0,0-.057,3.826,8.355,8.355,0,0,1-3.634,6.937,8.047,8.047,0,0,1-1.6,1.044c-2.657,1.089-3.466,3.032-2.621,5.893h5.094v26.974h-5.248V180.647H354.691v5.218h21.492v5.461H354.524Zm1.915-49.669-3.561-3.483c1.077-1.217,2.2-2.4,3.212-3.667a4.425,4.425,0,0,0,1.18-2.158c.142-2.691.056-5.395.056-8.461-2.346,1.979-4.4,3.8-6.558,5.5a3.779,3.779,0,0,0-1.558,3.29c.042,3.787-.067,7.579.069,11.361a5.251,5.251,0,0,0,1.176,2.96c2.843,3.392,5.853,6.643,8.729,10.008a3.8,3.8,0,0,1,.777,2.111c.111,1.731.036,3.474.036,5.172h16.2c.02-.365.042-.625.046-.886.03-1.917-.556-4.166.253-5.659.841-1.552,2.936-2.547,4.652-3.472a5.585,5.585,0,0,0,3.2-6.156,2.4,2.4,0,0,0-1.13-2.048c-4.593-3-9.128-6.1-13.723-9.1a2.619,2.619,0,0,1-1.412-2.552c.1-4.052.037-8.108.036-12.163,0-2.988.032-5.976-.018-8.963-.031-1.875-1.044-2.918-2.67-2.926-1.692-.009-2.668,1.064-2.673,3.062q-.026,9.123,0,18.245a7.686,7.686,0,0,1-1.8,5.486c-1.441,1.56-3.006,3-4.517,4.5M349.258,80.6a16.189,16.189,0,0,0,32.378-.057,16.189,16.189,0,1,0-32.378.057m24.674,55.328-.445.2a53.639,53.639,0,0,1-.04,5.533c-.207,1.983.536,3.088,2.548,3.569.674-1.324,1.412-2.67,2.03-4.068a1.4,1.4,0,0,0-.247-1.213c-1.24-1.38-2.557-2.69-3.846-4.025m11.714,16.157c1.307-3.28.687-3.963-3.274-7.346-.509,1.066-1.065,2.091-1.473,3.171a1.271,1.271,0,0,0,.331,1.147c1.395,1.034,2.859,1.975,4.417,3.028" transform="translate(-227.711 -39.984)" fill="#040404"/>
      <path id="Trazado_239412" data-name="Trazado 239412" d="M166.05,164.808h-5.2V143.262h5.188c.2-2.567.244-4.83-1.431-7.025-2.612-3.424-4.844-7.135-7.29-10.689a10.548,10.548,0,0,1-1.954-6.283c.056-5.494.065-10.989,0-16.483a8.588,8.588,0,0,1,2.74-6.562c3.314-3.248,6.6-6.526,9.825-9.863a3.917,3.917,0,0,0,.913-2.192c.176-1.691-.067-3.442.236-5.1.8-4.4,3.639-7.084,7.793-8.457V56.68c-15.9-1.925-25.451-15.862-23.946-30.213A26.776,26.776,0,0,1,179.5,2.762c13.655.024,25.587,10.965,26.915,24.29a27.151,27.151,0,0,1-23.991,29.579V70.588a11.081,11.081,0,0,1,7.78,8.288,2.654,2.654,0,0,1,.149.941c-.363,2.408.936,4.063,2.354,5.791,6.02,7.335,11.96,14.737,17.924,22.119,3.153,3.9,3.129,8.238-.613,11.521-2.709,2.376-3.848,4.945-3.364,8.446a9.768,9.768,0,0,1-3.922,9.726c-2.124,1.586-1.323,3.685-1.469,5.818h5.329v21.545h-5.331V148.8h-35v5.234H184.98v5.406h-1.867c-5.064,0-10.13.064-15.193-.038-1.533-.031-1.942.475-1.822,1.9a33.681,33.681,0,0,1-.048,3.51m-1.514-55.431a13.172,13.172,0,0,1,.958-1.624c1.08-1.361,2.967-2.571,3.175-4.035.479-3.365.152-6.844.152-10.692-2.378,2.393-4.427,4.544-6.581,6.584a4.426,4.426,0,0,0-1.493,3.521c.054,5.281-.039,10.565.068,15.845a6.927,6.927,0,0,0,1.038,3.4q4.028,6.34,8.318,12.512a6.584,6.584,0,0,1,1.383,4.58c-.121,1.24-.023,2.5-.023,3.812h24.594c-1.451-4.84.528-8.16,4.059-10.937a3.826,3.826,0,0,0,1.019-2.518,44.218,44.218,0,0,0,.007-5.916,3.427,3.427,0,0,0-.865-2.042q-6.952-7.081-14.031-14.036a4.023,4.023,0,0,1-1.308-3.209c.059-7.629.007-15.259.04-22.889.01-2.4-.811-4.279-3-5.394a5.315,5.315,0,0,0-7.743,4.889c-.055,6.829-.263,13.671.071,20.484.254,5.19-3.116,7.87-6.264,10.871-.065.061-.3-.054-.451-.086Zm36.712-79.56A21.6,21.6,0,1,0,179.687,51.45a21.7,21.7,0,0,0,21.561-21.633m-9.391,75.938,4.272,4.025,5.933-4.338-3.781-4.558c-1.943,1.452-3.77,2.814-5.593,4.182-.253.189-.487.4-.831.689m12.207,11.915c4.167-3.689,4.355-4.877,1.139-7.8l-5.218,3.918,4.079,3.881M190.5,100.029l4.3-3.217-4.3-5.364Z" transform="translate(-101.347 -2.762)" fill="#030303"/>
      <path id="Trazado_239413" data-name="Trazado 239413" d="M11.777,201.979H6.435V175.16h5.192c.236-2.429.388-4.512-1.544-6.408-2.429-2.381-4.542-5.089-6.754-7.688a9.557,9.557,0,0,1-2.412-6.431c.026-3.84.033-7.681,0-11.521a7.7,7.7,0,0,1,2.978-6.4q4.893-4,9.64-8.169a3.12,3.12,0,0,0,.833-1.864c.139-1.158-.034-2.351.077-3.514a7.99,7.99,0,0,1,4.426-6.6c.388-.21.9-.681.9-1.037.062-4.523.041-9.047.041-13.547A21.713,21.713,0,0,1,1.06,78.786,21.24,21.24,0,0,1,22.677,59.034c11.145-.006,20.276,8.606,21.306,20.36.818,9.34-5.549,20.264-18.659,22.555V116.19c4.1,1.7,5.652,4.965,5.293,9.205a5.239,5.239,0,0,0,1.982,4.668c4.46,4.13,8.747,8.447,13.167,12.621,3.062,2.891,3.976,6.2,2.329,10.121a16.516,16.516,0,0,0-1.309,7.618,8.512,8.512,0,0,1-4.57,8.34,5.432,5.432,0,0,1-.67.433c-2.639,1.069-3.469,3.006-2.629,5.843h5.136V202H38.721V180.614H11.887V185.9H33.23v5.469H11.777ZM9.966,149.163c1.034-1.177,2.086-2.339,3.095-3.538.471-.56,1.2-1.175,1.226-1.791.13-2.884.058-5.777.058-8.916-2.382,1.922-4.6,3.577-6.641,5.435a4.259,4.259,0,0,0-1.3,2.685c-.146,3.728-.017,7.465-.082,11.2a5.1,5.1,0,0,0,1.4,3.754c2.868,3.157,5.7,6.346,8.464,9.6a4.46,4.46,0,0,1,.917,2.389c.14,1.667.042,3.354.042,5.041H33.3c0-1.607.092-3.147-.027-4.672a2.938,2.938,0,0,1,1.575-3.117c1.736-1.032,3.371-2.241,5.008-3.431a4.754,4.754,0,0,0-.137-7.412c-4.347-2.889-8.655-5.837-13.048-8.654a2.858,2.858,0,0,1-1.463-2.825c.068-6.879.026-13.759.037-20.639a2.82,2.82,0,0,0-1.5-2.926c-2.026-.951-3.9.379-3.91,2.813-.02,6.24.049,12.481-.052,18.719a7.361,7.361,0,0,1-1,4.086,59.607,59.607,0,0,1-5.352,5.61l-3.456-3.405M22.494,96.727A16.181,16.181,0,1,0,6.351,80.535,16.178,16.178,0,0,0,22.494,96.727m8.584,39.189-.432.216a52.036,52.036,0,0,1-.045,5.693c-.22,1.99.648,2.937,2.5,3.414.681-1.345,1.413-2.693,2.031-4.09a1.368,1.368,0,0,0-.232-1.19c-1.234-1.384-2.543-2.7-3.826-4.042m6.563,12.7,5.049,3.444c1.472-3.01.871-3.9-3.219-7.352l-1.83,3.908" transform="translate(-0.915 -39.979)" fill="#030303"/>
      <path id="Trazado_239414" data-name="Trazado 239414" d="M375.416,439.547v-10.7h21.659v-5.462H375.583v-5.218H402.6v21.378l-27.188,0" transform="translate(-248.603 -277.503)" fill="#848898"/>
      <path id="Trazado_239415" data-name="Trazado 239415" d="M32.992,439.446V428.838H54.446v-5.469H33.1v-5.287H59.936v21.383l-26.944-.019" transform="translate(-22.13 -277.447)" fill="#858999"/>
      <path id="Trazado_239416" data-name="Trazado 239416" d="M191.994,450.041a33.681,33.681,0,0,0,.047-3.51c-.12-1.424.29-1.93,1.822-1.9,5.063.1,10.128.038,15.193.038h1.866v-5.406H192.2v-5.234h35v15.986l-35.213.026m29.7-10.671h-5.235v5.216H221.7Z" transform="translate(-127.291 -287.994)" fill="#858998"/>
      <path id="Trazado_239417" data-name="Trazado 239417" d="M366.949,273.506c1.511-1.495,3.076-2.94,4.516-4.5a7.686,7.686,0,0,0,1.8-5.486q-.016-9.123,0-18.245c.006-2,.982-3.071,2.674-3.062,1.626.008,2.639,1.051,2.67,2.926.05,2.987.017,5.975.017,8.963,0,4.055.061,8.111-.036,12.163A2.621,2.621,0,0,0,380,268.817c4.6,3,9.13,6.093,13.723,9.1a2.4,2.4,0,0,1,1.13,2.048,5.585,5.585,0,0,1-3.2,6.156c-1.716.925-3.811,1.921-4.652,3.473-.81,1.493-.223,3.742-.253,5.659,0,.26-.027.52-.046.886h-16.2c0-1.7.075-3.441-.036-5.172a3.807,3.807,0,0,0-.777-2.111c-2.876-3.365-5.886-6.617-8.729-10.008a5.254,5.254,0,0,1-1.175-2.96c-.136-3.783-.027-7.574-.069-11.361a3.781,3.781,0,0,1,1.558-3.29c2.157-1.693,4.212-3.517,6.558-5.5,0,3.066.086,5.769-.056,8.461a4.424,4.424,0,0,1-1.18,2.158c-1.015,1.267-2.136,2.45-3.213,3.667-.3.352-.847.694-.859,1.056-.08,2.231-.04,4.467-.04,7.167l4.461-4.74" transform="translate(-238.221 -161.131)" fill="#fddeb1"/>
      <path id="Trazado_239418" data-name="Trazado 239418" d="M359.865,91.008a16.189,16.189,0,1,1,16.194,16.132,16.232,16.232,0,0,1-16.194-16.132m19.689-.218,6.082-5.844-3.709-3.772-5.962,6.181-5.744-6.19-4.189,3.844,6.37,6.2-6.261,5.715,3.955,4.183,6.119-6.4,5.892,6.065,3.749-3.746-6.3-6.235" transform="translate(-238.318 -50.393)" fill="#a3314f"/>
      <path id="Trazado_239419" data-name="Trazado 239419" d="M431.717,286.1c1.29,1.335,2.607,2.645,3.846,4.024a1.4,1.4,0,0,1,.247,1.213c-.618,1.4-1.356,2.744-2.03,4.068-2.013-.482-2.756-1.586-2.549-3.569a53.607,53.607,0,0,0,.041-5.533l.445-.2" transform="translate(-285.497 -190.155)" fill="#fddeb1"/>
      <path id="Trazado_239420" data-name="Trazado 239420" d="M457.983,319.462c-1.558-1.053-3.023-1.993-4.417-3.028a1.271,1.271,0,0,1-.331-1.147c.408-1.081.964-2.105,1.473-3.171,3.962,3.383,4.581,4.066,3.274,7.346" transform="translate(-300.047 -207.363)" fill="#fddeb1"/>
      <path id="Trazado_239421" data-name="Trazado 239421" d="M372.34,327.823l-4.461,4.74c0-2.7-.04-4.936.04-7.167.013-.362.559-.7.859-1.056l3.561,3.483" transform="translate(-243.611 -215.448)" fill="#fddeb1"/>
      <path id="Trazado_239422" data-name="Trazado 239422" d="M183.247,255.041c.154.033.387.148.451.086,3.148-3,6.518-5.681,6.264-10.871-.334-6.813-.126-13.655-.071-20.484a5.315,5.315,0,0,1,7.743-4.889c2.187,1.114,3.009,3,3,5.394-.033,7.629.019,15.259-.04,22.889a4.024,4.024,0,0,0,1.308,3.209q7.091,6.941,14.031,14.036a3.424,3.424,0,0,1,.865,2.041,44.162,44.162,0,0,1-.007,5.916,3.827,3.827,0,0,1-1.019,2.518c-3.531,2.777-5.511,6.1-4.059,10.937H187.119c0-1.31-.1-2.571.023-3.812a6.583,6.583,0,0,0-1.383-4.58q-4.274-6.177-8.318-12.512a6.924,6.924,0,0,1-1.038-3.4c-.108-5.28-.015-10.563-.068-15.845a4.427,4.427,0,0,1,1.493-3.521c2.154-2.04,4.2-4.191,6.581-6.584,0,3.848.327,7.327-.152,10.692-.209,1.463-2.1,2.673-3.175,4.034a13.113,13.113,0,0,0-.958,1.624c-.351.321-.991.63-1.005.966-.092,2.152-.047,4.31-.047,6.466l.421.231,3.756-4.538" transform="translate(-116.934 -145.302)" fill="#fddeb1"/>
      <path id="Trazado_239423" data-name="Trazado 239423" d="M211.566,40.531a21.6,21.6,0,1,1-21.628-21.57,21.693,21.693,0,0,1,21.628,21.57M181.832,51.994,202.149,31.68l-3.61-3.674-17.1,17.133-2.972-3.608-3.555,3.535,6.919,6.928" transform="translate(-111.665 -13.476)" fill="#ffb500"/>
      <path id="Trazado_239424" data-name="Trazado 239424" d="M268.206,297.4c.344-.286.579-.5.831-.689,1.823-1.368,3.65-2.73,5.593-4.182l3.78,4.558-5.933,4.338-4.272-4.025" transform="translate(-177.696 -194.412)" fill="#fddeb1"/>
      <path id="Trazado_239425" data-name="Trazado 239425" d="M296.291,326.872l-4.079-3.881,5.218-3.918c3.216,2.923,3.028,4.11-1.139,7.8" transform="translate(-193.573 -211.964)" fill="#fddeb1"/>
      <path id="Trazado_239426" data-name="Trazado 239426" d="M264.185,273.249v-8.581l4.3,5.364-4.3,3.217" transform="translate(-175.037 -175.982)" fill="#fddeb1"/>
      <path id="Trazado_239427" data-name="Trazado 239427" d="M188.571,320.738l-3.756,4.538-.421-.231c0-2.156-.045-4.314.047-6.466.014-.336.655-.644,1.005-.966l3.124,3.124" transform="translate(-122.258 -210.999)" fill="#fddeb1"/>
      <path id="Trazado_239428" data-name="Trazado 239428" d="M23.985,273.657a59.7,59.7,0,0,0,5.352-5.61,7.363,7.363,0,0,0,1-4.086c.1-6.238.031-12.479.051-18.719.008-2.434,1.885-3.764,3.911-2.813a2.821,2.821,0,0,1,1.5,2.926c-.011,6.88.031,13.76-.037,20.64a2.858,2.858,0,0,0,1.463,2.824c4.393,2.817,8.7,5.765,13.048,8.654a4.754,4.754,0,0,1,.137,7.412c-1.637,1.19-3.272,2.4-5.007,3.431a2.939,2.939,0,0,0-1.575,3.117c.119,1.524.027,3.065.027,4.672H27.711c0-1.687.1-3.374-.042-5.04a4.46,4.46,0,0,0-.917-2.389c-2.76-3.251-5.6-6.441-8.464-9.6a5.1,5.1,0,0,1-1.4-3.754c.065-3.732-.063-7.47.082-11.2a4.261,4.261,0,0,1,1.3-2.685c2.037-1.858,4.259-3.513,6.641-5.434,0,3.138.072,6.031-.058,8.916-.028.616-.755,1.231-1.226,1.791-1.008,1.2-2.06,2.361-3.095,3.538-.341.33-.964.648-.978.991-.089,2.25-.046,4.5-.046,6.758l.36.169,4.12-4.513" transform="translate(-11.477 -161.069)" fill="#fddeb1"/>
      <path id="Trazado_239429" data-name="Trazado 239429" d="M33.113,107.139a16.181,16.181,0,1,1,16.214-16.13,16.157,16.157,0,0,1-16.214,16.13m3.6-16.5,6.065-5.7-3.67-3.759L33.037,87.35l-5.966-6.244-3.963,3.843,6.51,6.17-6.067,5.766,3.668,3.987,6.166-6.3,5.675,6.065,3.89-3.824-6.235-6.177" transform="translate(-11.533 -50.391)" fill="#a3314f"/>
      <path id="Trazado_239430" data-name="Trazado 239430" d="M89,286.079c1.283,1.341,2.592,2.658,3.826,4.042a1.368,1.368,0,0,1,.232,1.19c-.617,1.4-1.35,2.745-2.031,4.09-1.855-.477-2.723-1.424-2.5-3.414a52.127,52.127,0,0,0,.044-5.693l.432-.216" transform="translate(-58.833 -190.143)" fill="#fddeb1"/>
      <path id="Trazado_239431" data-name="Trazado 239431" d="M109.372,315.948l1.83-3.908c4.09,3.452,4.691,4.342,3.219,7.352l-5.049-3.444" transform="translate(-72.646 -207.313)" fill="#fddeb1"/>
      <path id="Trazado_239432" data-name="Trazado 239432" d="M29.082,328.6l-4.12,4.513-.36-.169c0-2.254-.043-4.508.046-6.758.014-.343.637-.662.978-.992l3.456,3.405" transform="translate(-16.574 -216.016)" fill="#fddeb1"/>
      <rect id="Rectángulo_52096" data-name="Rectángulo 52096" width="5.235" height="5.216" transform="translate(89.172 151.376)" fill="#050506"/>
      <path id="Trazado_239433" data-name="Trazado 239433" d="M391.6,103.263l6.3,6.235-3.749,3.746-5.892-6.065-6.119,6.4-3.955-4.183,6.261-5.715-6.37-6.2,4.189-3.844,5.744,6.19,5.962-6.181,3.709,3.772-6.082,5.844" transform="translate(-250.363 -62.866)" fill="#030303"/>
      <path id="Trazado_239434" data-name="Trazado 239434" d="M194.616,69.66,187.7,62.732l3.555-3.535,2.972,3.608,17.1-17.133,3.61,3.674L194.616,69.66" transform="translate(-124.449 -31.142)" fill="#020202"/>
      <path id="Trazado_239435" data-name="Trazado 239435" d="M48.7,103l6.235,6.177L51.049,113l-5.675-6.065-6.166,6.3-3.668-3.987,6.067-5.766-6.51-6.17,3.963-3.843,5.966,6.244L51.1,93.545l3.67,3.759L48.7,103" transform="translate(-23.522 -62.753)" fill="#010101"/>
    </g>
  </g>
</svg>
