<svg xmlns="http://www.w3.org/2000/svg" width="149" height="176" viewBox="0 0 149 176">
  <g id="Grupo_166663" data-name="Grupo 166663" transform="translate(-725 -1083)">
    <rect id="Rect치ngulo_51582" data-name="Rect치ngulo 51582" width="85" height="33" rx="16.5" transform="translate(725 1226)" fill="#e8e8e8"/>
    <text id="IDEA" transform="translate(726 1234)" fill="#12263f" font-size="16" font-family="Roboto-Regular, Roboto"><tspan x="-17.188" y="17">IDEA</tspan></text>
    <rect id="Rect치ngulo_51583" data-name="Rect치ngulo 51583" width="149" height="33" rx="16.5" transform="translate(725 1226)" fill="#e8e8e8"/>
    <path id="Trazado_255646" data-name="Trazado 255646" d="M17.77,12.547V17h-1.5V5.625h4.2a4.215,4.215,0,0,1,2.926.953A3.231,3.231,0,0,1,24.449,9.1a3.189,3.189,0,0,1-1.035,2.551,4.4,4.4,0,0,1-2.965.895Zm0-1.227h2.7a2.7,2.7,0,0,0,1.844-.567,2.075,2.075,0,0,0,.641-1.64,2.143,2.143,0,0,0-.641-1.628,2.525,2.525,0,0,0-1.758-.634H17.77ZM30.223,9.844a4.331,4.331,0,0,0-.711-.055A1.9,1.9,0,0,0,27.582,11v6H26.137V8.547h1.406l.023.977a2.251,2.251,0,0,1,2.016-1.133,1.477,1.477,0,0,1,.641.109Zm4.836,7.313a3.693,3.693,0,0,1-2.8-1.129,4.19,4.19,0,0,1-1.078-3.02v-.266a5.073,5.073,0,0,1,.48-2.246,3.748,3.748,0,0,1,1.344-1.547,3.378,3.378,0,0,1,1.871-.559,3.166,3.166,0,0,1,2.563,1.086,4.7,4.7,0,0,1,.914,3.109v.6H32.629a3,3,0,0,0,.73,2.02,2.3,2.3,0,0,0,1.777.77,2.517,2.517,0,0,0,1.3-.312,3.259,3.259,0,0,0,.93-.828l.883.688A3.55,3.55,0,0,1,35.059,17.156Zm-.18-7.578a1.928,1.928,0,0,0-1.469.637A3.1,3.1,0,0,0,32.676,12H36.91v-.109a2.753,2.753,0,0,0-.594-1.707A1.815,1.815,0,0,0,34.879,9.578ZM40.738,17V9.664H39.4V8.547h1.336V7.68a2.878,2.878,0,0,1,.727-2.1,2.745,2.745,0,0,1,2.055-.742,3.816,3.816,0,0,1,.992.132l-.078,1.165a4.151,4.151,0,0,0-.781-.07,1.41,1.41,0,0,0-1.086.411,1.669,1.669,0,0,0-.383,1.18v.893h1.8V9.664h-1.8V17ZM50.8,17a3.036,3.036,0,0,1-.2-.891,3.225,3.225,0,0,1-2.406,1.047,2.984,2.984,0,0,1-2.051-.707,2.287,2.287,0,0,1-.8-1.793,2.39,2.39,0,0,1,1-2.051,4.733,4.733,0,0,1,2.824-.73h1.406v-.664A1.623,1.623,0,0,0,50.121,10a1.821,1.821,0,0,0-1.336-.449,2.107,2.107,0,0,0-1.3.391,1.151,1.151,0,0,0-.523.945H45.512a2,2,0,0,1,.449-1.223,3.066,3.066,0,0,1,1.219-.934,4.1,4.1,0,0,1,1.691-.344,3.342,3.342,0,0,1,2.289.73,2.635,2.635,0,0,1,.859,2.012v3.891a4.757,4.757,0,0,0,.3,1.852V17Zm-2.4-1.1a2.54,2.54,0,0,0,1.289-.352,2.127,2.127,0,0,0,.883-.914V12.9H49.441q-2.656,0-2.656,1.555a1.316,1.316,0,0,0,.453,1.063A1.742,1.742,0,0,0,48.4,15.9Zm9.273.078a2.082,2.082,0,0,0,1.352-.469,1.649,1.649,0,0,0,.641-1.172h1.367a2.621,2.621,0,0,1-.5,1.383,3.293,3.293,0,0,1-1.23,1.047,3.55,3.55,0,0,1-1.629.391A3.482,3.482,0,0,1,54.93,16a4.59,4.59,0,0,1-1.02-3.152v-.242a5.089,5.089,0,0,1,.453-2.2,3.451,3.451,0,0,1,1.3-1.492,3.7,3.7,0,0,1,2-.531,3.39,3.39,0,0,1,2.363.852,3.043,3.043,0,0,1,1,2.211H59.668a1.992,1.992,0,0,0-.621-1.348,1.932,1.932,0,0,0-1.379-.527,2.023,2.023,0,0,0-1.707.793,3.724,3.724,0,0,0-.605,2.293v.273a3.65,3.65,0,0,0,.6,2.25A2.033,2.033,0,0,0,57.676,15.977ZM64.621,6.5V8.547H66.2V9.664H64.621v5.249a1.173,1.173,0,0,0,.211.763.888.888,0,0,0,.719.254,3.5,3.5,0,0,0,.688-.094V17a4.215,4.215,0,0,1-1.109.155,1.8,1.8,0,0,1-1.461-.586,2.517,2.517,0,0,1-.492-1.664V9.664H61.637V8.547h1.539V6.5ZM69.457,17H68.012V8.547h1.445ZM67.895,6.3a.863.863,0,0,1,.215-.594.807.807,0,0,1,.637-.242.819.819,0,0,1,.641.242.854.854,0,0,1,.219.594.826.826,0,0,1-.219.586.834.834,0,0,1-.641.234.821.821,0,0,1-.637-.234A.834.834,0,0,1,67.895,6.3Zm11.031,6.563a5.026,5.026,0,0,1-.891,3.113,2.846,2.846,0,0,1-2.391,1.176,2.947,2.947,0,0,1-2.477-1.133L73.1,17H71.77V5h1.445V9.477a2.93,2.93,0,0,1,2.414-1.086,2.863,2.863,0,0,1,2.418,1.164,5.177,5.177,0,0,1,.879,3.188ZM77.48,12.7a3.906,3.906,0,0,0-.57-2.281,1.888,1.888,0,0,0-1.641-.8,2.122,2.122,0,0,0-2.055,1.328V14.6a2.181,2.181,0,0,0,2.07,1.328,1.878,1.878,0,0,0,1.617-.8A4.153,4.153,0,0,0,77.48,12.7ZM82.316,17H80.871V8.547h1.445ZM80.754,6.3a.863.863,0,0,1,.215-.594.807.807,0,0,1,.637-.242.819.819,0,0,1,.641.242.854.854,0,0,1,.219.594.826.826,0,0,1-.219.586.834.834,0,0,1-.641.234.821.821,0,0,1-.637-.234A.834.834,0,0,1,80.754,6.3ZM86.2,17H84.754V5H86.2Zm3.883,0H88.637V8.547h1.445ZM88.52,6.3a.863.863,0,0,1,.215-.594.807.807,0,0,1,.637-.242.819.819,0,0,1,.641.242.854.854,0,0,1,.219.594.826.826,0,0,1-.219.586.834.834,0,0,1-.641.234.821.821,0,0,1-.637-.234A.834.834,0,0,1,88.52,6.3Zm3.523,6.4a4.952,4.952,0,0,1,.922-3.129,3.137,3.137,0,0,1,4.766-.168V5h1.445V17H97.848l-.07-.906a2.943,2.943,0,0,1-2.414,1.063,2.887,2.887,0,0,1-2.395-1.2,5.008,5.008,0,0,1-.926-3.141Zm1.445.164a3.749,3.749,0,0,0,.594,2.25,1.92,1.92,0,0,0,1.641.813A2.108,2.108,0,0,0,97.73,14.7V10.813a2.125,2.125,0,0,0-1.992-1.2,1.929,1.929,0,0,0-1.656.82A4.128,4.128,0,0,0,93.488,12.867ZM106.637,17a3.036,3.036,0,0,1-.2-.891,3.225,3.225,0,0,1-2.406,1.047,2.984,2.984,0,0,1-2.051-.707,2.288,2.288,0,0,1-.8-1.793,2.39,2.39,0,0,1,1-2.051,4.733,4.733,0,0,1,2.824-.73h1.406v-.664A1.623,1.623,0,0,0,105.957,10a1.821,1.821,0,0,0-1.336-.449,2.108,2.108,0,0,0-1.3.391,1.151,1.151,0,0,0-.523.945h-1.453a2,2,0,0,1,.449-1.223,3.066,3.066,0,0,1,1.219-.934,4.1,4.1,0,0,1,1.691-.344,3.342,3.342,0,0,1,2.289.73,2.635,2.635,0,0,1,.859,2.012v3.891a4.757,4.757,0,0,0,.3,1.852V17Zm-2.4-1.1a2.54,2.54,0,0,0,1.289-.352,2.127,2.127,0,0,0,.883-.914V12.9h-1.133q-2.656,0-2.656,1.555a1.316,1.316,0,0,0,.453,1.063A1.742,1.742,0,0,0,104.238,15.9Zm5.531-3.2a4.952,4.952,0,0,1,.922-3.129,3.137,3.137,0,0,1,4.766-.168V5H116.9V17h-1.328l-.07-.906a2.943,2.943,0,0,1-2.414,1.063,2.887,2.887,0,0,1-2.395-1.2,5.008,5.008,0,0,1-.926-3.141Zm1.445.164a3.749,3.749,0,0,0,.594,2.25,1.92,1.92,0,0,0,1.641.813,2.108,2.108,0,0,0,2.008-1.234V10.813a2.125,2.125,0,0,0-1.992-1.2,1.929,1.929,0,0,0-1.656.82A4.128,4.128,0,0,0,111.215,12.867Z" transform="translate(733 1233)" fill="#12263f"/>
    <ellipse id="Elipse_5159" data-name="Elipse 5159" cx="59" cy="59.5" rx="59" ry="59.5" transform="translate(741 1083)" fill="#ffb500" opacity="0.7"/>
    <g id="Grupo_165720" data-name="Grupo 165720" transform="translate(750.818 1104.82)">
      <g id="Grupo_165064" data-name="Grupo 165064" transform="translate(13.787 0.905)">
        <g id="Grupo_165061" data-name="Grupo 165061" transform="translate(0 0)">
          <g id="Grupo_165065" data-name="Grupo 165065">
            <g id="Grupo_165059" data-name="Grupo 165059">
              <g id="Grupo_165066" data-name="Grupo 165066">
                <path id="Trazado_146646" data-name="Trazado 146646" d="M20.962,56.274c-1.234.216-1.61.04-2.165-1.094-1.356-2.767-2.859-5.476-4.011-8.327A15.455,15.455,0,0,1,40.124,30.514a15.542,15.542,0,0,1,3.132,17.75Q37.639,59.524,32.012,70.78c-.115.23-.225.463-.379.782h.534q20.61,0,41.219,0a4.4,4.4,0,0,0,4.635-3.389,5.865,5.865,0,0,0,.132-1.423q.014-6.942,0-13.884a4.416,4.416,0,0,0-4.776-4.8c-4.268-.009-8.536.011-12.8-.007a7.337,7.337,0,0,1-7.407-5.871,8.926,8.926,0,0,1-.15-1.787q-.018-6.978,0-13.956a7.313,7.313,0,0,1,5.707-7.458,9.645,9.645,0,0,1,2.067-.2c2.586-.022,5.172-.009,7.834-.009v-.805q0-7.625,0-15.25a3.167,3.167,0,0,1,.089-.923A1.1,1.1,0,0,1,69.848.9c4.172.012,8.345,0,12.517.009A1.251,1.251,0,0,1,83.532,2.5a3.089,3.089,0,0,1-.368.773c-.843,1.392-1.683,2.785-2.553,4.16a.775.775,0,0,0,0,.963c.859,1.353,1.68,2.731,2.528,4.091a1.667,1.667,0,0,1,.245,1.812,1.649,1.649,0,0,1-1.662.752c-3.141-.009-6.282,0-9.424,0h-.8v.8c0,3.021.006,6.043,0,9.064,0,1.259-.894,2-1.921,1.615A1.467,1.467,0,0,1,68.622,25c0-1.079-.014-2.157-.025-3.235,0-.016-.032-.032-.017-.018-3,0-5.965-.093-8.925.033a4.046,4.046,0,0,0-3.69,3.864c-.1,2.2-.062,4.41-.069,6.615-.009,2.71-.013,5.419,0,8.129a4.468,4.468,0,0,0,4.806,4.8c4.292.011,8.584-.014,12.876.008a7.28,7.28,0,0,1,7.347,6.009,8.535,8.535,0,0,1,.108,1.575q.012,7.014,0,14.028A7.31,7.31,0,0,1,73.4,74.439q-21.833,0-43.665.014a1.883,1.883,0,0,1-1.923-1.171c-1.133-2.347-2.321-4.667-3.481-7a1.572,1.572,0,0,1,.436-2.329c1.2-.23,1.6-.034,2.164,1.094.773,1.539,1.543,3.079,2.343,4.678.125-.209.232-.363.314-.529C33.3,61.767,37.023,54.347,40.7,46.9a11.735,11.735,0,0,0,.9-7.984,12.533,12.533,0,0,0-14.075-9.811c-7.819.99-12.94,9.428-10.042,16.758,1.087,2.75,2.567,5.345,3.871,8.01.562,1.148.5,1.553-.392,2.4M79.536,3.691H71.541v8.423h7.977c-.659-1.083-1.237-2.1-1.879-3.067a1.853,1.853,0,0,1,0-2.259c.651-.993,1.245-2.025,1.9-3.1" transform="translate(-13.787 -0.905)" fill="#030303"/>
                <path id="Trazado_146647" data-name="Trazado 146647" d="M38,222.7c.891-.846.954-1.25.392-2.4-1.3-2.665-2.784-5.26-3.871-8.01-2.9-7.33,2.224-15.768,10.042-16.758a12.533,12.533,0,0,1,14.075,9.811,11.735,11.735,0,0,1-.9,7.984c-3.679,7.444-7.406,14.865-11.116,22.293-.083.166-.189.32-.314.529-.8-1.6-1.57-3.14-2.343-4.678-.567-1.128-.959-1.324-2.164-1.094l-1.235-2.555c.745-.628.941-1.259.6-1.932-.327-.645-.937-.853-1.922-.654L38,222.7M55.492,207.99a9.163,9.163,0,1,0-9.115,9.171,9.145,9.145,0,0,0,9.115-9.171" transform="translate(-30.825 -167.329)" fill="#a3314f"/>
                <path id="Trazado_146648" data-name="Trazado 146648" d="M67.482,401.446c.985-.2,1.595.01,1.922.655.341.673.146,1.3-.6,1.932-.99.236-1.618.019-1.952-.673-.324-.671-.124-1.277.63-1.913" transform="translate(-59.06 -343.539)" fill="#060404"/>
                <path id="Trazado_146649" data-name="Trazado 146649" d="M421.69,20.2c-.653,1.072-1.247,2.1-1.9,3.1a1.853,1.853,0,0,0,0,2.259c.643.971,1.22,1.984,1.879,3.067H413.7V20.2Z" transform="translate(-355.941 -17.413)" fill="#d2e1f1"/>
                <path id="Trazado_146650" data-name="Trazado 146650" d="M76.019,228.218a9.163,9.163,0,1,1-9.134-9.155,9.134,9.134,0,0,1,9.134,9.155m-2.883.03a6.282,6.282,0,1,0-6.333,6.258,6.293,6.293,0,0,0,6.333-6.258" transform="translate(-51.352 -187.557)" fill="#020201"/>
                <path id="Trazado_146651" data-name="Trazado 146651" d="M90.2,245.318a6.282,6.282,0,1,1-6.222-6.3,6.283,6.283,0,0,1,6.222,6.3" transform="translate(-68.415 -204.628)" fill="#9fe356"/>
              </g>
            </g>
          </g>
        </g>
      </g>
    </g>
  </g>
</svg>
