<svg xmlns="http://www.w3.org/2000/svg" width="98.761" height="100.267" viewBox="0 0 98.761 100.267">
  <g id="Grupo_165351" data-name="Grupo 165351" transform="translate(-15.049 -9.213)">
    <g id="Grupo_165352" data-name="Grupo 165352" transform="translate(15.049 9.213)">
      <path id="Trazado_236687" data-name="Trazado 236687" d="M123.808,25.745l1.128-1.651c.5-.095,1.142-.04,1.437-.335.216-.216-.029-.892-.069-1.363l1.42-1.432c.734.552,1.331.248,1.968-.239a19.015,19.015,0,0,1,10.71-3.953A19.393,19.393,0,0,1,153.8,51.22a9.731,9.731,0,0,0-3.5,6.664c-.058.545-.08,1.093-.12,1.663h-7.63v-10.5c.34-.074.678-.145,1.014-.222,5.453-1.233,8.735-7.2,6.682-12.092a51.271,51.271,0,0,0-7.964-12.318.985.985,0,0,0-1.691.024,51.837,51.837,0,0,0-7.88,12.13c-2.21,5.163,1.265,11,6.551,12.243.365.086.733.162,1.079.238v10.5h-7.566a1.342,1.342,0,0,1-.1-.332,11,11,0,0,0-4.183-8.616,19.07,19.07,0,0,1-3.879-4.607c-3.486-5.926-3.528-12.079-.68-18.281.327-.714.606-1.349-.121-1.962m34.667,10.428a17.066,17.066,0,0,0-16.594-17.012c-.752-.035-1.385.2-1.433,1.014-.049.835.54,1.062,1.319,1.1a15.507,15.507,0,0,1,2.786.367c5.836,1.37,9.75,4.928,11.276,10.694a14.116,14.116,0,0,1-4.546,15.015c-.98.879-1.842,1.892-2.741,2.86-.517.556-.67,1.209-.027,1.733.685.558,1.2.091,1.679-.446a21.812,21.812,0,0,1,2.076-2.2,16.377,16.377,0,0,0,6.2-13.13M148.346,54.6c-.217-.162-.573-.616-1.011-.714-.717-.161-1.4.887-1.415,2.085a1.073,1.073,0,0,0,1.073,1.17c.671.056,1.363-1.1,1.353-2.54" transform="translate(-92.061 -14.64)" fill="#edbe20"/>
      <path id="Trazado_236688" data-name="Trazado 236688" d="M16.074,229.159c-.785-.111-1-.683-1-1.341-.012-4.528-.058-9.057.018-13.584a4.821,4.821,0,0,1,9.641,0c.073,1.872.014,3.748.014,5.736,4.077-1.256,7.646-.574,10.436,2.595,2.774,3.15,2.97,6.74,1.257,10.58a7.5,7.5,0,0,1,4.151,3.718l3.794-3.355a9.2,9.2,0,0,1-1.018-7.241,9.055,9.055,0,0,1,3.471-5.069,9.319,9.319,0,0,1,13.542,12.261l4.057,3.881,4.06-3.885a9.185,9.185,0,0,1,.646-10.471,1.229,1.229,0,0,1,1.784-.488,1.3,1.3,0,0,1-.116,1.783,6.854,6.854,0,0,0-1.505,4.868,7.221,7.221,0,1,0,8.652-7.511c-.735-.157-1.218-.463-1.327-1.232.37-1.08,1.187-.994,2.051-.783a9.306,9.306,0,0,1,6.087,13.345c-.111.216-.226.431-.29.552l3.793,3.32a7.449,7.449,0,0,1,4.167-3.663c-1.714-3.818-1.545-7.445,1.254-10.61,2.772-3.135,6.3-3.867,10.424-2.574,0-1.056-.009-2.044,0-3.031.013-1.113-.031-2.234.085-3.337a4.8,4.8,0,0,1,9.456-.337,8.794,8.794,0,0,1,.143,1.659q.012,18.537.006,37.074c0,.139,0,.279,0,.418,0,.679-.143,1.284-.941,1.391-.74.1-1.064-.371-1.2-1.02.016-.417.046-.833.046-1.25q0-18.119,0-36.239c0-.278.01-.558,0-.835a2.768,2.768,0,0,0-2.784-2.9,2.715,2.715,0,0,0-2.681,2.964c-.026,1.984-.034,3.969.017,5.952a1.762,1.762,0,0,0,.522,1.133,9.327,9.327,0,1,1-12.545,13.8,1.413,1.413,0,0,0-1.159-.232,4.943,4.943,0,0,0-3.43,4.761c-.059,4.28.006,8.561.019,12.842-.361.345-.732.972-1.08.959-.382-.014-.742-.617-1.112-.964,0-3.79.113-7.583-.023-11.368a6.753,6.753,0,0,0-3.8-5.743.916.916,0,0,0-1.191.11,9.276,9.276,0,0,1-11.931.028,1.3,1.3,0,0,0-1.148-.1,6.788,6.788,0,0,0-3.861,6.022c-.11,3.683-.014,7.372-.006,11.058-.361.345-.722.96-1.084.96s-.72-.617-1.08-.963c.008-3.692.107-7.388-.008-11.076a6.808,6.808,0,0,0-3.888-6.021,1.218,1.218,0,0,0-1.07.082,9.356,9.356,0,0,1-12.052.011,1.217,1.217,0,0,0-1.066-.094,6.6,6.6,0,0,0-3.844,5.7C41.285,245.2,41.4,249,41.4,252.8c-.2.581-.489,1.207-1.2,1.006-.394-.111-.667-.647-1-.991.013-4.282.09-8.565.011-12.845a4.888,4.888,0,0,0-3.434-4.761,1.374,1.374,0,0,0-1.153.237A9.324,9.324,0,1,1,22.1,221.633a1.4,1.4,0,0,0,.518-.822c.025-2.3.057-4.6-.051-6.891a2.563,2.563,0,0,0-2.734-2.331c-1.594.04-2.659,1.25-2.667,3.114q-.026,6.424.006,12.849c0,.84-.2,1.434-1.1,1.606m36.317,6.71a7.206,7.206,0,1,0-7.234-7.107,7.239,7.239,0,0,0,7.234,7.107m55.48-7.184a7.205,7.205,0,1,0-7.267,7.182,7.231,7.231,0,0,0,7.267-7.182m-79.63,7.181A7.2,7.2,0,1,0,21,228.654a7.166,7.166,0,0,0,7.239,7.212" transform="translate(-15.049 -153.579)" fill="#060505"/>
      <path id="Trazado_236689" data-name="Trazado 236689" d="M118.405,20.319c.728.614.449,1.248.121,1.962-2.848,6.2-2.806,12.356.68,18.281a19.06,19.06,0,0,0,3.879,4.607,11,11,0,0,1,4.183,8.615,1.338,1.338,0,0,0,.1.332h7.566v-10.5c-.346-.076-.714-.151-1.079-.238-5.286-1.245-8.76-7.08-6.551-12.243a51.849,51.849,0,0,1,7.88-12.129.985.985,0,0,1,1.692-.024,51.279,51.279,0,0,1,7.964,12.318c2.054,4.889-1.229,10.858-6.682,12.092-.337.076-.674.147-1.014.222v10.5h7.63c.04-.57.062-1.119.12-1.663a9.73,9.73,0,0,1,3.5-6.664A19.393,19.393,0,0,0,135,11.347a19.018,19.018,0,0,0-10.71,3.953c-.637.488-1.234.791-1.968.239-.4-.757-.13-1.279.507-1.788,12.335-9.835,31.434-2.815,34.363,12.685,1.549,8.194-.815,15.146-7.126,20.653a8.569,8.569,0,0,0-3.158,6.952c.055,3.867.018,7.735.014,11.6,0,2.705-1.413,4.111-4.131,4.114q-6.806.007-13.612,0c-2.57,0-4-1.448-4.006-4.026-.006-3.763-.068-7.527.018-11.288a9.146,9.146,0,0,0-3.412-7.584,21.1,21.1,0,0,1-5.07-25.641c.375-.735.789-1.241,1.7-.9M144.741,56.33h-17.46c0,3.348-.03,6.648.021,9.947a1.348,1.348,0,0,0,1.443,1.369q7.276.031,14.552.007a1.342,1.342,0,0,0,1.461-1.227c.1-1.229.028-2.472.028-3.768-2.1,0-4.091.053-6.071-.045-.392-.02-.755-.621-1.131-.954a5.593,5.593,0,0,1,1.077-1.054c.291-.165.75-.037,1.134-.037h5.027c0-1.367,0-2.582,0-3.8a2.807,2.807,0,0,0-.078-.439M137.1,41.319c2.73-.091,5.371-2.487,6.071-5.355.8-3.281-1.152-5.658-2.592-8.376-1.122,1.137-2.134,2.137-3.111,3.171a1.316,1.316,0,0,0-.352.808c-.024,3.227-.016,6.454-.016,9.752m-2.1-.039c0-.859-.05-1.728.015-2.588a2.087,2.087,0,0,0-.753-1.814c-1.438-1.362-2.815-2.788-4.221-4.184-.23-.228-.485-.431-.766-.678-1.978,4.954,2.472,9.391,5.724,9.264m-.047-18.356-.243-.124c-1.385,2.154-2.783,4.3-4.139,6.472a.99.99,0,0,0-.038.9c1.4,1.471,2.858,2.892,4.42,4.449Zm2.2,4.988,2.2-2.2-2.2-3.028Z" transform="translate(-86.658 -9.213)" fill="#040403"/>
      <path id="Trazado_236690" data-name="Trazado 236690" d="M18.722,234.576c.9-.173,1.107-.766,1.1-1.606q-.038-6.424-.006-12.849c.008-1.865,1.073-3.074,2.667-3.114a2.563,2.563,0,0,1,2.734,2.332c.109,2.293.077,4.594.051,6.891a1.4,1.4,0,0,1-.518.822,9.325,9.325,0,1,0,12.528,13.809,1.372,1.372,0,0,1,1.152-.237,4.888,4.888,0,0,1,3.434,4.761c.078,4.28,0,8.563-.011,12.845l-3.426-.011c-.011-2.715-.028-5.431-.031-8.147,0-.706-.186-1.284-1-1.312-.872-.03-1.1.549-1.1,1.312,0,2.715-.02,5.431-.031,8.147H25.445c-.011-2.715-.028-5.431-.031-8.147,0-.706-.186-1.284-1-1.312-.872-.03-1.1.549-1.1,1.312,0,2.715-.02,5.431-.031,8.147l-3.421,0c-.016-.382-.044-.763-.045-1.145q-.005-7.364,0-14.728c0-.811-.119-1.471-1.1-1.564q.007-1.012.014-2.025c.607-.153,1.207-.456,1.021-1.142-.109-.4-.674-.682-1.034-1.016v-2.019" transform="translate(-17.697 -158.996)" fill="#ced371"/>
      <path id="Trazado_236691" data-name="Trazado 236691" d="M282.224,258.227c-.013-4.281-.078-8.562-.019-12.842a4.944,4.944,0,0,1,3.43-4.761,1.414,1.414,0,0,1,1.159.232,9.327,9.327,0,1,0,12.545-13.8,1.763,1.763,0,0,1-.522-1.133c-.052-1.983-.043-3.968-.017-5.952a2.716,2.716,0,0,1,2.681-2.964,2.768,2.768,0,0,1,2.784,2.9c.015.277,0,.557,0,.835q0,18.119,0,36.239c0,.417-.03.833-.045,1.25l-3.427,0c-.011-2.716-.027-5.432-.031-8.148,0-.7-.182-1.286-1-1.314-.876-.03-1.1.554-1.1,1.314,0,2.716-.02,5.432-.031,8.148H287.812c-.011-2.716-.027-5.432-.031-8.148,0-.7-.182-1.286-1-1.314-.876-.03-1.1.554-1.1,1.314,0,2.716-.02,5.432-.031,8.148l-3.427,0" transform="translate(-207.606 -158.996)" fill="#a3314f"/>
      <path id="Trazado_236692" data-name="Trazado 236692" d="M195.715,320.028c-.008-3.686-.105-7.375.005-11.058a6.789,6.789,0,0,1,3.861-6.022,1.3,1.3,0,0,1,1.148.1,9.276,9.276,0,0,0,11.931-.028.916.916,0,0,1,1.191-.11,6.754,6.754,0,0,1,3.8,5.743c.136,3.785.028,7.578.024,11.368l-3.354,0c-.016-.347-.044-.694-.045-1.041q-.006-3.293,0-6.585c0-.209.006-.418,0-.627-.032-.714-.31-1.244-1.115-1.216-.752.025-.982.536-.985,1.214q-.017,4.127-.047,8.253l-10.787,0c-.016-.347-.044-.694-.045-1.042q-.006-3.292,0-6.585c0-.209.006-.418,0-.627-.031-.715-.311-1.243-1.115-1.216-.752.025-.982.535-.985,1.214q-.017,4.127-.047,8.254l-3.421.006" transform="translate(-145.244 -220.8)" fill="#ffb500"/>
      <path id="Trazado_236693" data-name="Trazado 236693" d="M109.328,320.263c-.005-3.8-.119-7.6.023-11.387a6.6,6.6,0,0,1,3.844-5.7,1.216,1.216,0,0,1,1.066.094,9.356,9.356,0,0,0,12.052-.011,1.218,1.218,0,0,1,1.07-.082,6.808,6.808,0,0,1,3.888,6.021c.116,3.689.016,7.384.008,11.076l-3.427,0c-.015-.73-.042-1.46-.044-2.19q-.01-3.029,0-6.059c0-.678-.227-1.19-.979-1.218-.8-.03-1.086.5-1.116,1.212-.011.278,0,.557,0,.836q-.024,3.706-.049,7.413l-10.784,0c-.016-.451-.045-.9-.046-1.355q-.008-3.448,0-6.9c0-.68-.236-1.19-.983-1.218-.8-.03-1.085.5-1.115,1.214-.012.278,0,.557,0,.836q-.024,3.707-.049,7.414h-3.348" transform="translate(-82.973 -221.046)" fill="#a3314f"/>
      <path id="Trazado_236694" data-name="Trazado 236694" d="M216.67,248.593c.109.769.592,1.075,1.327,1.232a7.19,7.19,0,1,1-8.652,7.511,6.855,6.855,0,0,1,1.505-4.868,1.3,1.3,0,0,0,.116-1.783l1.75-.944c1.214.775,1.852.473,1.984-.939l1.97-.21" transform="translate(-155.089 -181.765)" fill="#fcb49d"/>
      <path id="Trazado_236695" data-name="Trazado 236695" d="M94.15,157.96c-.513.536-.772,1.056-1.142,1.152-2.121.552-3,2.1-3.447,4.036-.024.1-.013.245-.077.3-.374.3-.754.786-1.154.807a1.32,1.32,0,0,1-1-.811,5.05,5.05,0,0,0-3.654-4.375,1.086,1.086,0,0,1,.045-2.021c2.207-.575,3.047-2.2,3.572-4.2a1.535,1.535,0,0,1,1.093-.958c.383,0,.814.56,1.132.948.18.22.172.591.259.891a4.321,4.321,0,0,0,2.985,3.2,5.9,5.9,0,0,1,1.392,1.031m-4.221.11-1.545-1.757c-.526.6-1.043,1.2-1.56,1.791l1.582,1.675,1.523-1.709" transform="translate(-64.034 -112.06)" fill="#060504"/>
      <path id="Trazado_236696" data-name="Trazado 236696" d="M267.611,150.221a9.06,9.06,0,0,1,1.139,1.257,5.925,5.925,0,0,1,.345,1.194,4.38,4.38,0,0,0,2.882,3.05,1.781,1.781,0,0,1,1.044,1.163c.043.329-.549.953-.975,1.092a4.439,4.439,0,0,0-3,3.2,2.719,2.719,0,0,1-.261.891c-.314.394-.693.909-1.124,1-.673.142-1.037-.416-1.156-1.07-.025-.136-.06-.271-.088-.407a4.38,4.38,0,0,0-3.13-3.561c-.615-.194-1.189-.55-1-1.228a1.826,1.826,0,0,1,1.042-1.082c1.978-.612,2.668-2.153,3.183-3.925a6.865,6.865,0,0,1,1.092-1.578M266.1,156.89l1.593,1.684,1.515-1.707-1.539-1.761L266.1,156.89" transform="translate(-193.244 -110.856)" fill="#050504"/>
      <path id="Trazado_236697" data-name="Trazado 236697" d="M16.11,302.159c.98.093,1.1.754,1.1,1.565q-.021,7.364,0,14.728c0,.382.029.764.045,1.145-.15.7-.515,1.173-1.3,1.019-.72-.142-.855-.721-.855-1.359q0-7.873,0-15.745a1.185,1.185,0,0,1,1.012-1.353" transform="translate(-15.084 -220.377)" fill="#080909"/>
      <path id="Trazado_236698" data-name="Trazado 236698" d="M35.057,340.2c.012-2.716.029-5.431.031-8.147,0-.764.23-1.342,1.1-1.312.813.028,1,.606,1,1.312,0,2.715.02,5.431.031,8.147-.361.346-.721.963-1.082.963s-.72-.617-1.081-.963" transform="translate(-29.471 -240.982)" fill="#010202"/>
      <path id="Trazado_236699" data-name="Trazado 236699" d="M81.566,340.2c.012-2.716.029-5.431.031-8.147,0-.764.23-1.342,1.1-1.312.813.028,1,.606,1,1.312,0,2.715.02,5.431.031,8.147-.361.346-.721.963-1.082.963s-.72-.617-1.081-.963" transform="translate(-62.996 -240.982)" fill="#010202"/>
      <path id="Trazado_236700" data-name="Trazado 236700" d="M121.441,340.169q.024-3.707.049-7.415c0-.279-.008-.557,0-.836.03-.715.313-1.245,1.116-1.214.747.028.984.539.983,1.218q-.006,3.448,0,6.9c0,.451.03.9.046,1.354-.362.349-.735.984-1.083.97-.384-.015-.745-.624-1.117-.974" transform="translate(-91.74 -240.953)" fill="#050408"/>
      <path id="Trazado_236701" data-name="Trazado 236701" d="M167.95,340.18q.024-3.706.049-7.413c0-.279-.008-.557,0-.836.03-.715.311-1.242,1.116-1.212.752.028.981.54.979,1.219q-.007,3.029,0,6.059c0,.73.029,1.46.044,2.19-.361.347-.734.98-1.08.965-.384-.016-.743-.623-1.114-.972" transform="translate(-125.265 -240.963)" fill="#050408"/>
      <path id="Trazado_236702" data-name="Trazado 236702" d="M208.092,340.184q.025-4.127.047-8.253c0-.679.233-1.189.985-1.214.8-.027,1.084.5,1.115,1.216.009.208,0,.418,0,.627q0,3.292,0,6.585c0,.347.029.694.045,1.041-.372.347-.734.951-1.117.964-.348.012-.719-.618-1.08-.966" transform="translate(-154.2 -240.962)" fill="#080702"/>
      <path id="Trazado_236703" data-name="Trazado 236703" d="M254.6,340.184q.025-4.126.047-8.253c0-.679.233-1.189.985-1.215.805-.028,1.083.5,1.115,1.216.009.209,0,.418,0,.627q0,3.292,0,6.585c0,.347.029.694.045,1.041-.372.347-.734.951-1.117.964-.348.012-.719-.618-1.08-.966" transform="translate(-187.725 -240.962)" fill="#080702"/>
      <path id="Trazado_236704" data-name="Trazado 236704" d="M341.122,340.217c.011-2.716.028-5.432.031-8.148,0-.76.225-1.344,1.1-1.314.816.028,1,.611,1,1.314,0,2.716.02,5.432.031,8.148-.36.345-.72.96-1.081.96s-.72-.615-1.08-.96" transform="translate(-250.092 -240.989)" fill="#020101"/>
      <path id="Trazado_236705" data-name="Trazado 236705" d="M294.613,340.217c.011-2.716.028-5.432.031-8.148,0-.76.225-1.344,1.1-1.314.816.028,1,.611,1,1.314,0,2.716.02,5.432.031,8.148-.36.344-.72.957-1.081.958s-.72-.613-1.08-.957" transform="translate(-216.567 -240.989)" fill="#020101"/>
      <path id="Trazado_236706" data-name="Trazado 236706" d="M16.325,287.177c.36.335.924.614,1.034,1.016.186.686-.414.989-1.021,1.142-.338-.378-.888-.728-.941-1.142-.038-.295.595-.674.928-1.016" transform="translate(-15.299 -209.578)" fill="#0a0b0c"/>
      <path id="Trazado_236707" data-name="Trazado 236707" d="M223.2,247.508c-.132,1.411-.769,1.713-1.984.939-.176-.643-.191-1.267.532-1.562.644-.263,1.106.093,1.452.624" transform="translate(-163.584 -180.47)" fill="#0d0a0a"/>
      <path id="Trazado_236708" data-name="Trazado 236708" d="M133.654,37c.04.471.285,1.147.069,1.363-.295.295-.941.24-1.437.334l-.2-1.488,1.57-.209" transform="translate(-99.411 -29.243)" fill="#0a0907"/>
      <path id="Trazado_236709" data-name="Trazado 236709" d="M206.394,42.413a16.377,16.377,0,0,1-6.2,13.13,21.772,21.772,0,0,0-2.075,2.2c-.477.537-.994,1-1.679.446-.643-.524-.49-1.177.027-1.734.9-.968,1.76-1.981,2.74-2.86a14.115,14.115,0,0,0,4.546-15.015c-1.526-5.766-5.44-9.324-11.276-10.694a15.485,15.485,0,0,0-2.786-.367c-.779-.037-1.368-.265-1.319-1.1.048-.812.681-1.049,1.433-1.014a17.067,17.067,0,0,1,16.595,17.012" transform="translate(-139.979 -20.88)" fill="#f6e2ac"/>
      <path id="Trazado_236710" data-name="Trazado 236710" d="M210.4,150.467c.011,1.439-.681,2.6-1.353,2.54a1.073,1.073,0,0,1-1.073-1.17c.017-1.2.7-2.246,1.415-2.085.437.1.794.553,1.011.714" transform="translate(-154.116 -110.506)" fill="#f6e1a9"/>
      <path id="Trazado_236711" data-name="Trazado 236711" d="M130.135,266.768a7.206,7.206,0,0,1-.061-14.412,7.206,7.206,0,1,1,.061,14.412" transform="translate(-92.792 -184.478)" fill="#fcb49d"/>
      <path id="Trazado_236712" data-name="Trazado 236712" d="M310.339,259.587a7.205,7.205,0,1,1-7.249-7.227,7.174,7.174,0,0,1,7.249,7.227" transform="translate(-217.516 -184.481)" fill="#fcb49d"/>
      <path id="Trazado_236713" data-name="Trazado 236713" d="M43.614,266.768a7.2,7.2,0,1,1,7.171-7.168,7.188,7.188,0,0,1-7.171,7.168" transform="translate(-30.421 -184.481)" fill="#fcb49d"/>
      <path id="Trazado_236714" data-name="Trazado 236714" d="M178,177.987a2.813,2.813,0,0,1,.078.439c.005,1.215,0,2.43,0,3.8h-5.027c-.384,0-.843-.128-1.134.037a5.607,5.607,0,0,0-1.077,1.054c.376.333.739.935,1.131.954,1.98.1,3.968.045,6.071.045,0,1.3.075,2.539-.028,3.768a1.342,1.342,0,0,1-1.461,1.227q-7.276.014-14.552-.007a1.348,1.348,0,0,1-1.443-1.369c-.051-3.3-.021-6.6-.021-9.947Z" transform="translate(-119.92 -130.87)" fill="#adadad"/>
      <path id="Trazado_236715" data-name="Trazado 236715" d="M195.718,88.764c0-3.3-.009-6.525.015-9.752a1.318,1.318,0,0,1,.353-.808c.976-1.034,1.988-2.034,3.111-3.171,1.44,2.717,3.393,5.1,2.592,8.376-.7,2.868-3.34,5.264-6.071,5.355" transform="translate(-145.28 -56.658)" fill="#13bd6c"/>
      <path id="Trazado_236716" data-name="Trazado 236716" d="M172.166,100.161c-3.252.127-7.7-4.309-5.724-9.264.281.247.536.45.766.678,1.406,1.4,2.783,2.822,4.221,4.184a2.087,2.087,0,0,1,.753,1.814c-.065.86-.015,1.728-.015,2.588" transform="translate(-123.825 -68.093)" fill="#13bc6b"/>
      <path id="Trazado_236717" data-name="Trazado 236717" d="M176.386,58.007v11.7c-1.561-1.557-3.016-2.978-4.42-4.449a.989.989,0,0,1,.038-.9c1.356-2.172,2.753-4.318,4.139-6.472l.243.124" transform="translate(-128.092 -44.296)" fill="#13bc6b"/>
      <path id="Trazado_236718" data-name="Trazado 236718" d="M195.92,62.692V57.463l2.2,3.028-2.2,2.2" transform="translate(-145.426 -43.993)" fill="#13bc6b"/>
      <path id="Trazado_236719" data-name="Trazado 236719" d="M99.788,169.486l-1.523,1.709-1.582-1.676c.517-.594,1.034-1.186,1.56-1.789l1.545,1.757" transform="translate(-73.893 -123.476)" fill="#e8ba1f"/>
      <path id="Trazado_236720" data-name="Trazado 236720" d="M276.008,169.5l1.569-1.784,1.539,1.761-1.515,1.707-1.593-1.684" transform="translate(-203.156 -123.47)" fill="#e8ba1f"/>
    </g>
  </g>
</svg>
