<svg xmlns="http://www.w3.org/2000/svg" xmlns:xlink="http://www.w3.org/1999/xlink" width="148" height="170" viewBox="0 0 148 170">
  <defs>
    <clipPath id="clip-path">
      <rect id="Rectángulo_35764" data-name="Rectángulo 35764" width="78" height="78" transform="translate(0.35)" fill="none"/>
    </clipPath>
  </defs>
  <g id="Grupo_166665" data-name="Grupo 166665" transform="translate(-1150 -1085)">
    <rect id="Rectángulo_51585" data-name="Rectángulo 51585" width="148" height="33" rx="16.5" transform="translate(1150 1222)" fill="#e8e8e8"/>
    <text id="IDEA" transform="translate(1152 1230)" fill="#12263f" font-size="16" font-family="Roboto-Regular, Roboto"><tspan x="-17.188" y="17">IDEA</tspan></text>
    <rect id="Rectángulo_51586" data-name="Rectángulo 51586" width="148" height="33" rx="16.5" transform="translate(1150 1222)" fill="#e8e8e8"/>
    <path id="Trazado_255648" data-name="Trazado 255648" d="M49.793,17V5.625H53a5.169,5.169,0,0,1,2.625.656,4.438,4.438,0,0,1,1.762,1.867,6.078,6.078,0,0,1,.629,2.781v.727a6.1,6.1,0,0,1-.621,2.82,4.369,4.369,0,0,1-1.773,1.859A5.5,5.5,0,0,1,52.941,17Zm1.5-10.148v8.922h1.578a3.434,3.434,0,0,0,2.7-1.079,4.458,4.458,0,0,0,.965-3.073v-.665a4.529,4.529,0,0,0-.91-3.014,3.239,3.239,0,0,0-2.582-1.091ZM61.629,17H60.184V8.547h1.445ZM60.066,6.3a.863.863,0,0,1,.215-.594.807.807,0,0,1,.637-.242.819.819,0,0,1,.641.242.854.854,0,0,1,.219.594.826.826,0,0,1-.219.586.834.834,0,0,1-.641.234.821.821,0,0,1-.637-.234A.834.834,0,0,1,60.066,6.3Zm8.8,8.453a1.064,1.064,0,0,0-.441-.91,4.249,4.249,0,0,0-1.539-.559,7.277,7.277,0,0,1-1.742-.562,2.479,2.479,0,0,1-.953-.781,1.869,1.869,0,0,1-.309-1.078,2.193,2.193,0,0,1,.879-1.758A3.432,3.432,0,0,1,67,8.391a3.532,3.532,0,0,1,2.332.742,2.357,2.357,0,0,1,.895,1.9H68.777a1.3,1.3,0,0,0-.5-1.023A1.888,1.888,0,0,0,67,9.578a1.976,1.976,0,0,0-1.234.344,1.082,1.082,0,0,0-.445.9.877.877,0,0,0,.414.789,5.1,5.1,0,0,0,1.5.508,7.8,7.8,0,0,1,1.754.578,2.558,2.558,0,0,1,1,.809,1.988,1.988,0,0,1,.324,1.152,2.163,2.163,0,0,1-.906,1.816,3.8,3.8,0,0,1-2.352.684,4.257,4.257,0,0,1-1.8-.359,2.922,2.922,0,0,1-1.223-1A2.42,2.42,0,0,1,63.59,14.4h1.445a1.5,1.5,0,0,0,.582,1.152,2.258,2.258,0,0,0,1.434.426,2.331,2.331,0,0,0,1.316-.332A1.02,1.02,0,0,0,68.863,14.758Zm6.836,2.4a3.693,3.693,0,0,1-2.8-1.129,4.19,4.19,0,0,1-1.078-3.02v-.266A5.073,5.073,0,0,1,72.3,10.5a3.748,3.748,0,0,1,1.344-1.547,3.378,3.378,0,0,1,1.871-.559,3.166,3.166,0,0,1,2.563,1.086A4.7,4.7,0,0,1,79,12.586v.6H73.27a3,3,0,0,0,.73,2.02,2.3,2.3,0,0,0,1.777.77,2.517,2.517,0,0,0,1.3-.312,3.259,3.259,0,0,0,.93-.828l.883.688A3.55,3.55,0,0,1,75.7,17.156Zm-.18-7.578a1.928,1.928,0,0,0-1.469.637A3.1,3.1,0,0,0,73.316,12h4.234v-.109a2.753,2.753,0,0,0-.594-1.707A1.815,1.815,0,0,0,75.52,9.578Zm6.516-1.031.047,1.063a3.08,3.08,0,0,1,2.531-1.219q2.68,0,2.7,3.023V17H85.871V11.406a1.946,1.946,0,0,0-.418-1.352,1.675,1.675,0,0,0-1.277-.437,2.086,2.086,0,0,0-1.234.375,2.546,2.546,0,0,0-.828.984V17H80.668V8.547Zm4.781-3.3a1.942,1.942,0,0,1-.48,1.367,1.561,1.561,0,0,1-1.2.523,1.76,1.76,0,0,1-.555-.078,2.993,2.993,0,0,1-.613-.32,2.656,2.656,0,0,0-.547-.293,1.338,1.338,0,0,0-.387-.051.717.717,0,0,0-.547.246.892.892,0,0,0-.227.629l-.969-.055a2.039,2.039,0,0,1,.473-1.383,1.516,1.516,0,0,1,1.2-.547,1.457,1.457,0,0,1,.492.078,3.587,3.587,0,0,1,.594.3,3.494,3.494,0,0,0,.574.3,1.319,1.319,0,0,0,.441.07.7.7,0,0,0,.559-.266.932.932,0,0,0,.223-.617Zm2.3,7.445a4.993,4.993,0,0,1,.488-2.234A3.643,3.643,0,0,1,90.961,8.93a3.7,3.7,0,0,1,1.988-.539,3.565,3.565,0,0,1,2.793,1.2,4.6,4.6,0,0,1,1.066,3.18v.1a5.036,5.036,0,0,1-.473,2.215,3.589,3.589,0,0,1-1.352,1.527,3.743,3.743,0,0,1-2.02.547,3.556,3.556,0,0,1-2.785-1.2A4.575,4.575,0,0,1,89.113,12.8Zm1.453.172a3.616,3.616,0,0,0,.652,2.258,2.211,2.211,0,0,0,3.5-.012,3.955,3.955,0,0,0,.648-2.418,3.61,3.61,0,0,0-.66-2.254,2.1,2.1,0,0,0-1.754-.863,2.075,2.075,0,0,0-1.727.852A3.925,3.925,0,0,0,90.566,12.867Z" transform="translate(1152 1229)" fill="#12263f"/>
    <ellipse id="Elipse_5161" data-name="Elipse 5161" cx="59" cy="59.5" rx="59" ry="59.5" transform="translate(1165 1085)" fill="#ffb500" opacity="0.7"/>
    <g id="Grupo_165722" data-name="Grupo 165722" transform="translate(1184.65 1106)">
      <g id="Grupo_165069" data-name="Grupo 165069" clip-path="url(#clip-path)">
        <path id="Trazado_146698" data-name="Trazado 146698" d="M0,29.156V23.494c.057-.042.143-.073.166-.129A3.846,3.846,0,0,1,4.2,20.878q18.621.041,37.242.014h.865c0-.422,0-.776,0-1.129s-.009-.715.027-1.069A1.731,1.731,0,0,1,43.9,17.079c.221-.027.445-.034.722-.054,0-.7-.033-1.358.006-2.013a4.172,4.172,0,0,1,4.294-4.065c1.4-.01,2.8,0,4.206,0a4.217,4.217,0,0,1,4.49,4.423c.01.551,0,1.1,0,1.641,1.856.186,2.294.68,2.3,2.5,0,.448,0,.9,0,1.384h.84q6.921,0,13.841,0a3.6,3.6,0,0,1,3.58,2.463,1.845,1.845,0,0,0,.177.29V72.619c-.057.042-.145.072-.167.127-.746,1.869-2.178,2.5-4.116,2.49-7.5-.039-14.992-.016-22.489-.016h-.8v3.825c2.439,0,4.833,0,7.226,0a3.453,3.453,0,1,1,.028,6.885q-4.589.006-9.179,0-14.266,0-28.531,0a3.454,3.454,0,1,1,.028-6.886c1.045,0,2.091,0,3.136,0h4.09V75.221H26.7c-7.292,0-14.585-.045-21.876.028-2.162.022-3.866-.46-4.747-2.611-.006-.014-.047-.013-.072-.019V33.288L1.213,32.5c.855.186,1.092.756,1.091,1.577Q2.284,50.023,2.3,65.969V66.8H63.182c1.171,0,1.355.131,1.716,1.205-.246.9-.873,1.1-1.746,1.1Q33.247,69.087,3.341,69.1H2.3c0,.684,0,1.29,0,1.9,0,1.566.365,1.929,1.935,1.929q33.615,0,67.23,0c.305,0,.611-.019.916-.029.784.009,1.569.039,2.353.022a1.2,1.2,0,0,0,1.277-1.074,26.225,26.225,0,0,0,.023-2.714H72.684c-1.261-.009-2.522-.036-3.783-.022a1.279,1.279,0,0,1-1.458-1.113c.219-.929.524-1.18,1.454-1.188,1.214-.011,2.428-.017,3.642-.025h3.515v-.9q0-20.374,0-40.748c0-.178.006-.357,0-.535a1.3,1.3,0,0,0-1.375-1.4c-.814-.017-1.629.011-2.444.019H59.911a6.106,6.106,0,0,1-.007.885,3.624,3.624,0,0,1-.347,1.516,2.074,2.074,0,0,0-.414,1.4c.017.509-.016,1.02.008,1.529a1.192,1.192,0,1,1-2.282-.01c.04-.7.008-1.4.008-2.1h-2.3V51.615h2.3v-.928q0-8.256,0-16.512c0-1.025.178-1.253,1.124-1.522.953.246,1.142.5,1.143,1.587,0,6.044.011,12.088-.017,18.132a2.677,2.677,0,0,1-.435,1.411c-1.861,2.738-3.766,5.447-5.663,8.161-1.121,1.6-2.725,1.6-3.845,0-1.864-2.675-3.743-5.34-5.563-8.045A3.217,3.217,0,0,1,43.1,52.21c-.033-8.186-.022-16.372-.024-24.559,0-.772.13-1.554-.525-2.208-.209-.208-.2-.666-.229-1.014-.036-.395-.008-.8-.008-1.19a2.308,2.308,0,0,0-.3-.049q-19.125,0-38.251,0A1.309,1.309,0,0,0,2.3,24.658c-.013,1.224-.035,2.449.008,3.672a1.378,1.378,0,0,1-1.092,1.592L0,29.156M51.871,17.041h3.422c0-.722.033-1.359-.007-1.991a1.835,1.835,0,0,0-1.818-1.8c-.684-.03-1.372.012-2.057.022-.355-.011-.711-.014-1.066-.036-3.526-.21-3.514,1-3.427,3.575a.975.975,0,0,0,.071.227Zm2.3,2.345H44.664v4.695H57.571V19.386ZM44.986,79.021h3.34V75.246H29.986v3.775Zm10.865,2.352c-.178-.01-.356-.029-.533-.029q-17.472,0-34.943,0a2.055,2.055,0,0,0-.532.03,1.138,1.138,0,0,0,0,2.229,3.156,3.156,0,0,0,.761.034q17.2,0,34.408,0c.28,0,.559-.019.839-.029.786.01,1.573.042,2.358.024a1.142,1.142,0,1,0,0-2.281c-.785-.017-1.572.014-2.358.024M47.632,26.451H45.409V51.636h2.223Zm4.6,0H49.993V51.631H52.23ZM46.442,53.976l4.669,6.705,4.668-6.705Z" transform="translate(0 -9.266)" fill="#010101"/>
        <path id="Trazado_146701" data-name="Trazado 146701" d="M0,129.975l1.215.766q0,1.289,0,2.578L0,134.107v-4.132" transform="translate(0 -110.085)" fill="#f8fbfb"/>
        <path id="Trazado_146702" data-name="Trazado 146702" d="M7.929,100.29l0-2.578A1.378,1.378,0,0,0,9.022,96.12C8.98,94.9,9,93.672,9.015,92.448a1.309,1.309,0,0,1,1.464-1.466q19.125-.007,38.251,0a2.31,2.31,0,0,1,.3.049c0,.395-.028.8.008,1.19.032.349.021.806.229,1.014.656.654.525,1.435.525,2.208,0,8.186-.009,16.373.024,24.559a3.217,3.217,0,0,0,.523,1.684c1.819,2.7,3.7,5.37,5.563,8.045,1.12,1.606,2.724,1.608,3.845,0,1.9-2.714,3.8-5.423,5.663-8.161a2.677,2.677,0,0,0,.435-1.411c.029-6.044.02-12.088.017-18.132,0-1.09-.19-1.341-1.143-1.587q0-1.291,0-2.582a1.312,1.312,0,0,0,1.151-1.532c-.024-.508.009-1.019-.008-1.529a2.074,2.074,0,0,1,.414-1.4,3.624,3.624,0,0,0,.347-1.516A6.106,6.106,0,0,0,66.627,91H78.949a6.755,6.755,0,0,1,.293,1.386q.024,21.09.013,42.18c-1.214.008-2.428.014-3.642.025-.931.008-1.236.26-1.454,1.189l-2.545.016c-.361-1.075-.544-1.205-1.716-1.205H9.011v-.834q0-15.946.009-31.892c0-.821-.236-1.391-1.091-1.577m27.862,27.294q3.634,0,7.268,0c1.161,0,1.532-.351,1.534-1.486q.011-6.541,0-13.083c0-1.129-.393-1.5-1.535-1.5q-7.268,0-14.536,0c-1.142,0-1.532.375-1.533,1.5q-.01,6.541,0,13.083c0,1.135.372,1.483,1.534,1.485q3.634.006,7.268,0m0-18.671q3.634,0,7.268,0c1.161,0,1.53-.351,1.534-1.486q.013-4.246,0-8.492c0-1.129-.393-1.5-1.535-1.5q-7.268,0-14.535,0c-1.142,0-1.53.374-1.533,1.5q-.013,4.246,0,8.492c0,1.134.371,1.482,1.534,1.484q3.634.006,7.268,0" transform="translate(-6.716 -77.056)" fill="#f6f6f6"/>
        <path id="Trazado_146703" data-name="Trazado 146703" d="M77.606,383.776l2.545-.016a1.279,1.279,0,0,0,1.458,1.113c1.261-.014,2.522.012,3.783.021l-.306,3.767c-.305.01-.611.029-.916.029H16.939c-1.571,0-1.935-.363-1.935-1.929,0-.606,0-1.211,0-1.9h1.045q29.906,0,59.811.013c.873,0,1.5-.2,1.746-1.1" transform="translate(-12.708 -325.034)" fill="#b0c0d2"/>
        <path id="Trazado_146704" data-name="Trazado 146704" d="M472.334,134.567q0-21.09-.013-42.18A6.767,6.767,0,0,0,472.028,91c.815-.008,1.63-.036,2.444-.019a1.3,1.3,0,0,1,1.375,1.4c.007.178,0,.357,0,.535v41.649Z" transform="translate(-399.795 -77.055)" fill="#f3f9ff"/>
        <path id="Trazado_146705" data-name="Trazado 146705" d="M160.644,473.257c-.28.01-.559.029-.839.029q-17.2,0-34.408,0a3.157,3.157,0,0,1-.761-.034,1.138,1.138,0,0,1,0-2.229,2.063,2.063,0,0,1,.532-.03q17.472,0,34.943,0c.178,0,.356.019.533.029v2.234" transform="translate(-104.794 -398.917)" fill="#b0c0d2"/>
        <path id="Trazado_146706" data-name="Trazado 146706" d="M360.056,115.816q0,1.291,0,2.582c-.946.269-1.123.5-1.124,1.522q0,8.256,0,16.512v.928h-2.3V112.177h2.3c0,.7.032,1.4-.008,2.1a1.3,1.3,0,0,0,1.131,1.541" transform="translate(-302.057 -95.011)" fill="#a3314f"/>
        <rect id="Rectángulo_35760" data-name="Rectángulo 35760" width="2.223" height="25.185" transform="translate(45.409 17.184)" fill="#a3314f"/>
        <rect id="Rectángulo_35761" data-name="Rectángulo 35761" width="2.236" height="25.184" transform="translate(49.993 17.181)" fill="#a3314f"/>
        <path id="Trazado_146707" data-name="Trazado 146707" d="M210.951,434.935h-15V431.16h15v3.775" transform="translate(-165.965 -365.181)" fill="#b0c0d2"/>
        <path id="Trazado_146708" data-name="Trazado 146708" d="M301.374,70.827h-9.506V66.132h9.506v4.695" transform="translate(-247.204 -56.012)" fill="#ffb500"/>
        <path id="Trazado_146709" data-name="Trazado 146709" d="M303.486,292.166h9.337l-4.668,6.705-4.669-6.705" transform="translate(-257.044 -247.457)" fill="#e58f6e"/>
        <path id="Trazado_146710" data-name="Trazado 146710" d="M311.422,29.634h-4.883a.981.981,0,0,1-.071-.227c-.087-2.575-.1-3.785,3.427-3.575.355.021.711.024,1.066.036a8.321,8.321,0,0,1,.461,3.766" transform="translate(-259.55 -21.86)" fill="#a3314f"/>
        <path id="Trazado_146711" data-name="Trazado 146711" d="M353.986,70.827V66.132h3.4v4.695Z" transform="translate(-299.816 -56.012)" fill="#ffb500"/>
        <path id="Trazado_146712" data-name="Trazado 146712" d="M293.972,434.935V431.16h3.34v3.775Z" transform="translate(-248.986 -365.181)" fill="#727997"/>
        <path id="Trazado_146713" data-name="Trazado 146713" d="M472.973,394.943q.153-1.883.306-3.767h3.346a26.238,26.238,0,0,1-.023,2.714,1.2,1.2,0,0,1-1.277,1.074c-.784.017-1.569-.012-2.353-.022" transform="translate(-400.595 -331.315)" fill="#727997"/>
        <path id="Trazado_146714" data-name="Trazado 146714" d="M336.414,29.78a8.321,8.321,0,0,0-.461-3.766c.686-.01,1.373-.052,2.057-.022a1.835,1.835,0,0,1,1.818,1.8c.04.632.007,1.27.007,1.991Z" transform="translate(-284.543 -22.005)" fill="#a3314f"/>
        <path id="Trazado_146715" data-name="Trazado 146715" d="M364.971,473.274V471.04c.786-.01,1.573-.041,2.358-.024a1.142,1.142,0,1,1,0,2.281c-.785.018-1.572-.014-2.358-.024" transform="translate(-309.12 -398.934)" fill="#727997"/>
        <path id="Trazado_146716" data-name="Trazado 146716" d="M141.253,241.212q-3.634,0-7.268,0c-1.163,0-1.532-.35-1.534-1.485q-.01-6.541,0-13.083c0-1.13.392-1.5,1.533-1.5q7.268,0,14.536,0c1.142,0,1.533.375,1.535,1.5q.011,6.541,0,13.083c0,1.135-.373,1.484-1.534,1.486q-3.634.006-7.268,0m-6.458-2.344h12.886V227.5H134.8Z" transform="translate(-112.178 -190.684)" fill="#040809"/>
        <path id="Trazado_146717" data-name="Trazado 146717" d="M141.249,144.615q-3.634,0-7.268,0c-1.163,0-1.531-.35-1.535-1.484q-.013-4.246,0-8.492c0-1.13.391-1.5,1.533-1.5q7.268,0,14.535,0c1.143,0,1.532.374,1.535,1.5q.013,4.246,0,8.492c0,1.135-.373,1.484-1.534,1.486q-3.634.006-7.267,0m-6.449-2.357h12.9V135.47H134.8Z" transform="translate(-112.173 -112.758)" fill="#070806"/>
        <rect id="Rectángulo_35762" data-name="Rectángulo 35762" width="12.886" height="11.373" transform="translate(22.617 36.811)" fill="#636363"/>
        <rect id="Rectángulo_35763" data-name="Rectángulo 35763" width="12.897" height="6.788" transform="translate(22.626 22.712)" fill="#ffb500"/>
      </g>
    </g>
  </g>
</svg>
