<svg xmlns="http://www.w3.org/2000/svg" width="155" height="193" viewBox="0 0 155 193">
  <g id="Grupo_166669" data-name="Grupo 166669" transform="translate(3542 11231)">
    <g id="Grupo_165750" data-name="Grupo 165750" transform="translate(-3542 -11231)">
      <rect id="Rectángulo_35767" data-name="Rectángulo 35767" width="155" height="61" rx="25" transform="translate(0 132)" fill="#e8e8e8"/>
      <ellipse id="Elipse_4767" data-name="Elipse 4767" cx="59" cy="59.5" rx="59" ry="59.5" transform="translate(16)" fill="#ffb500" opacity="0.7"/>
      <path id="Trazado_255652" data-name="Trazado 255652" d="M13.813,14.023H9.047L7.977,17H6.43L10.773,5.625h1.313L16.438,17H14.9ZM9.5,12.8h3.867L11.43,7.477Zm11.633,3.18a2.082,2.082,0,0,0,1.352-.469,1.649,1.649,0,0,0,.641-1.172h1.367a2.621,2.621,0,0,1-.5,1.383,3.293,3.293,0,0,1-1.23,1.047,3.55,3.55,0,0,1-1.629.391A3.482,3.482,0,0,1,18.387,16a4.59,4.59,0,0,1-1.02-3.152v-.242a5.089,5.089,0,0,1,.453-2.2,3.451,3.451,0,0,1,1.3-1.492,3.7,3.7,0,0,1,2-.531,3.39,3.39,0,0,1,2.363.852,3.043,3.043,0,0,1,1,2.211H23.125a1.992,1.992,0,0,0-.621-1.348,1.932,1.932,0,0,0-1.379-.527,2.023,2.023,0,0,0-1.707.793,3.724,3.724,0,0,0-.605,2.293v.273a3.65,3.65,0,0,0,.6,2.25A2.033,2.033,0,0,0,21.133,15.977Zm4.6-3.281a4.993,4.993,0,0,1,.488-2.234A3.643,3.643,0,0,1,27.582,8.93a3.7,3.7,0,0,1,1.988-.539,3.565,3.565,0,0,1,2.793,1.2,4.6,4.6,0,0,1,1.066,3.18v.1a5.036,5.036,0,0,1-.473,2.215,3.589,3.589,0,0,1-1.352,1.527,3.743,3.743,0,0,1-2.02.547,3.556,3.556,0,0,1-2.785-1.2A4.575,4.575,0,0,1,25.734,12.8Zm1.453.172a3.616,3.616,0,0,0,.652,2.258,2.211,2.211,0,0,0,3.5-.012,3.955,3.955,0,0,0,.648-2.418,3.61,3.61,0,0,0-.66-2.254,2.1,2.1,0,0,0-1.754-.863,2.075,2.075,0,0,0-1.727.852A3.925,3.925,0,0,0,27.188,12.867ZM36.6,8.547l.039.938a3.122,3.122,0,0,1,2.508-1.094A2.417,2.417,0,0,1,41.563,9.75a3.2,3.2,0,0,1,1.1-.984,3.242,3.242,0,0,1,1.6-.375q2.781,0,2.828,2.945V17H45.641V11.422a1.941,1.941,0,0,0-.414-1.355,1.823,1.823,0,0,0-1.391-.449,1.917,1.917,0,0,0-1.336.48,1.949,1.949,0,0,0-.617,1.293V17H40.43V11.461a1.613,1.613,0,0,0-1.8-1.844,1.934,1.934,0,0,0-1.945,1.211V17H35.234V8.547Zm19.8,4.32a5.062,5.062,0,0,1-.883,3.109,2.829,2.829,0,0,1-2.391,1.18,3.1,3.1,0,0,1-2.422-.977v4.07H49.266V8.547h1.32l.07.938a2.977,2.977,0,0,1,2.453-1.094,2.882,2.882,0,0,1,2.41,1.148,5.117,5.117,0,0,1,.887,3.2ZM54.961,12.7a3.735,3.735,0,0,0-.609-2.258,1.963,1.963,0,0,0-1.672-.828,2.125,2.125,0,0,0-1.969,1.164V14.82A2.129,2.129,0,0,0,52.7,15.977a1.954,1.954,0,0,0,1.652-.824A4.077,4.077,0,0,0,54.961,12.7Zm8.5,4.3a3.036,3.036,0,0,1-.2-.891,3.225,3.225,0,0,1-2.406,1.047,2.984,2.984,0,0,1-2.051-.707,2.287,2.287,0,0,1-.8-1.793,2.39,2.39,0,0,1,1-2.051,4.733,4.733,0,0,1,2.824-.73h1.406v-.664A1.623,1.623,0,0,0,62.781,10a1.821,1.821,0,0,0-1.336-.449,2.107,2.107,0,0,0-1.3.391,1.151,1.151,0,0,0-.523.945H58.172a2,2,0,0,1,.449-1.223,3.066,3.066,0,0,1,1.219-.934,4.1,4.1,0,0,1,1.691-.344,3.342,3.342,0,0,1,2.289.73,2.635,2.635,0,0,1,.859,2.012v3.891a4.757,4.757,0,0,0,.3,1.852V17Zm-2.4-1.1a2.54,2.54,0,0,0,1.289-.352,2.127,2.127,0,0,0,.883-.914V12.9H62.1q-2.656,0-2.656,1.555a1.316,1.316,0,0,0,.453,1.063A1.742,1.742,0,0,0,61.063,15.9Zm7.25-7.352.047,1.063a3.08,3.08,0,0,1,2.531-1.219q2.68,0,2.7,3.023V17H72.148V11.406a1.946,1.946,0,0,0-.418-1.352,1.675,1.675,0,0,0-1.277-.437,2.086,2.086,0,0,0-1.234.375,2.546,2.546,0,0,0-.828.984V17H66.945V8.547Zm4.781-3.3a1.942,1.942,0,0,1-.48,1.367,1.561,1.561,0,0,1-1.2.523,1.76,1.76,0,0,1-.555-.078,2.993,2.993,0,0,1-.613-.32,2.656,2.656,0,0,0-.547-.293,1.338,1.338,0,0,0-.387-.051.717.717,0,0,0-.547.246.892.892,0,0,0-.227.629l-.969-.055a2.039,2.039,0,0,1,.473-1.383,1.516,1.516,0,0,1,1.2-.547,1.457,1.457,0,0,1,.492.078,3.587,3.587,0,0,1,.594.3,3.494,3.494,0,0,0,.574.3,1.319,1.319,0,0,0,.441.07.7.7,0,0,0,.559-.266.932.932,0,0,0,.223-.617ZM80.992,17a3.036,3.036,0,0,1-.2-.891,3.225,3.225,0,0,1-2.406,1.047,2.984,2.984,0,0,1-2.051-.707,2.288,2.288,0,0,1-.8-1.793,2.39,2.39,0,0,1,1-2.051,4.733,4.733,0,0,1,2.824-.73h1.406v-.664A1.623,1.623,0,0,0,80.313,10a1.821,1.821,0,0,0-1.336-.449,2.108,2.108,0,0,0-1.3.391,1.151,1.151,0,0,0-.523.945H75.7a2,2,0,0,1,.449-1.223,3.066,3.066,0,0,1,1.219-.934,4.1,4.1,0,0,1,1.691-.344,3.342,3.342,0,0,1,2.289.73,2.635,2.635,0,0,1,.859,2.012v3.891a4.757,4.757,0,0,0,.3,1.852V17Zm-2.4-1.1a2.54,2.54,0,0,0,1.289-.352,2.127,2.127,0,0,0,.883-.914V12.9H79.633q-2.656,0-2.656,1.555a1.316,1.316,0,0,0,.453,1.063A1.742,1.742,0,0,0,78.594,15.9Zm7.242-7.352.039.938a3.122,3.122,0,0,1,2.508-1.094A2.417,2.417,0,0,1,90.8,9.75a3.2,3.2,0,0,1,1.1-.984,3.242,3.242,0,0,1,1.6-.375q2.781,0,2.828,2.945V17H94.875V11.422a1.941,1.941,0,0,0-.414-1.355,1.823,1.823,0,0,0-1.391-.449,1.916,1.916,0,0,0-1.336.48,1.949,1.949,0,0,0-.617,1.293V17H89.664V11.461a1.613,1.613,0,0,0-1.8-1.844,1.934,1.934,0,0,0-1.945,1.211V17H84.469V8.547ZM100.07,17H98.625V8.547h1.445ZM98.508,6.3a.863.863,0,0,1,.215-.594.807.807,0,0,1,.637-.242.819.819,0,0,1,.641.242.854.854,0,0,1,.219.594.826.826,0,0,1-.219.586.834.834,0,0,1-.641.234.821.821,0,0,1-.637-.234A.834.834,0,0,1,98.508,6.3Zm7.383,10.852a3.693,3.693,0,0,1-2.8-1.129,4.19,4.19,0,0,1-1.078-3.02v-.266a5.073,5.073,0,0,1,.48-2.246,3.748,3.748,0,0,1,1.344-1.547,3.378,3.378,0,0,1,1.871-.559,3.166,3.166,0,0,1,2.563,1.086,4.7,4.7,0,0,1,.914,3.109v.6h-5.727a3,3,0,0,0,.73,2.02,2.3,2.3,0,0,0,1.777.77,2.517,2.517,0,0,0,1.3-.312,3.259,3.259,0,0,0,.93-.828l.883.688A3.55,3.55,0,0,1,105.891,17.156Zm-.18-7.578a1.928,1.928,0,0,0-1.469.637A3.1,3.1,0,0,0,103.508,12h4.234v-.109a2.753,2.753,0,0,0-.594-1.707A1.815,1.815,0,0,0,105.711,9.578Zm6.516-1.031.047,1.063A3.08,3.08,0,0,1,114.8,8.391q2.68,0,2.7,3.023V17h-1.445V11.406a1.946,1.946,0,0,0-.418-1.352,1.675,1.675,0,0,0-1.277-.437,2.086,2.086,0,0,0-1.234.375,2.546,2.546,0,0,0-.828.984V17h-1.445V8.547ZM121.648,6.5V8.547h1.578V9.664h-1.578v5.249a1.173,1.173,0,0,0,.211.763.888.888,0,0,0,.719.254,3.5,3.5,0,0,0,.688-.094V17a4.215,4.215,0,0,1-1.109.155,1.8,1.8,0,0,1-1.461-.586,2.517,2.517,0,0,1-.492-1.664V9.664h-1.539V8.547H120.2V6.5Zm2.727,6.2a4.993,4.993,0,0,1,.488-2.234,3.643,3.643,0,0,1,1.359-1.531,3.7,3.7,0,0,1,1.988-.539A3.565,3.565,0,0,1,131,9.586a4.6,4.6,0,0,1,1.066,3.18v.1a5.036,5.036,0,0,1-.473,2.215,3.589,3.589,0,0,1-1.352,1.527,3.743,3.743,0,0,1-2.02.547,3.556,3.556,0,0,1-2.785-1.2,4.575,4.575,0,0,1-1.066-3.164Zm1.453.172a3.616,3.616,0,0,0,.652,2.258,2.211,2.211,0,0,0,3.5-.012,3.954,3.954,0,0,0,.648-2.418,3.61,3.61,0,0,0-.66-2.254,2.1,2.1,0,0,0-1.754-.863,2.075,2.075,0,0,0-1.727.852A3.925,3.925,0,0,0,125.828,12.867ZM8.82,41V33.664H7.484V32.547H8.82V31.68a2.878,2.878,0,0,1,.727-2.1,2.745,2.745,0,0,1,2.055-.742,3.816,3.816,0,0,1,.992.132l-.078,1.165a4.151,4.151,0,0,0-.781-.07,1.41,1.41,0,0,0-1.086.411,1.669,1.669,0,0,0-.383,1.18v.893h1.8v1.117h-1.8V41Zm6.414,0H13.781V32.547h1.453Zm.016-11.992H17l-2.094,2.3-1.164,0Zm7.289,9.75a1.064,1.064,0,0,0-.441-.91,4.249,4.249,0,0,0-1.539-.559,7.277,7.277,0,0,1-1.742-.562,2.479,2.479,0,0,1-.953-.781,1.869,1.869,0,0,1-.309-1.078,2.193,2.193,0,0,1,.879-1.758,3.432,3.432,0,0,1,2.246-.719,3.532,3.532,0,0,1,2.332.742,2.357,2.357,0,0,1,.895,1.9H22.453a1.3,1.3,0,0,0-.5-1.023,1.888,1.888,0,0,0-1.27-.43,1.976,1.976,0,0,0-1.234.344,1.082,1.082,0,0,0-.445.9.877.877,0,0,0,.414.789,5.1,5.1,0,0,0,1.5.508,7.8,7.8,0,0,1,1.754.578,2.558,2.558,0,0,1,1,.809,1.988,1.988,0,0,1,.324,1.152,2.163,2.163,0,0,1-.906,1.816,3.8,3.8,0,0,1-2.352.684,4.257,4.257,0,0,1-1.8-.359,2.922,2.922,0,0,1-1.223-1,2.42,2.42,0,0,1-.441-1.395h1.445a1.5,1.5,0,0,0,.582,1.152,2.258,2.258,0,0,0,1.434.426,2.331,2.331,0,0,0,1.316-.332A1.02,1.02,0,0,0,22.539,38.758ZM27.438,41H25.992V32.547h1.445ZM25.875,30.3a.863.863,0,0,1,.215-.594.807.807,0,0,1,.637-.242.819.819,0,0,1,.641.242.854.854,0,0,1,.219.594.826.826,0,0,1-.219.586.834.834,0,0,1-.641.234.821.821,0,0,1-.637-.234A.834.834,0,0,1,25.875,30.3Zm7.266,9.672a2.082,2.082,0,0,0,1.352-.469,1.649,1.649,0,0,0,.641-1.172H36.5a2.621,2.621,0,0,1-.5,1.383,3.293,3.293,0,0,1-1.23,1.047,3.55,3.55,0,0,1-1.629.391A3.482,3.482,0,0,1,30.395,40a4.59,4.59,0,0,1-1.02-3.152v-.242a5.089,5.089,0,0,1,.453-2.2,3.451,3.451,0,0,1,1.3-1.492,3.7,3.7,0,0,1,2-.531,3.39,3.39,0,0,1,2.363.852,3.043,3.043,0,0,1,1,2.211H35.133a1.992,1.992,0,0,0-.621-1.348,1.932,1.932,0,0,0-1.379-.527,2.023,2.023,0,0,0-1.707.793,3.724,3.724,0,0,0-.605,2.293v.273a3.65,3.65,0,0,0,.6,2.25A2.033,2.033,0,0,0,33.141,39.977Zm4.6-3.281a4.993,4.993,0,0,1,.488-2.234A3.643,3.643,0,0,1,39.59,32.93a3.7,3.7,0,0,1,1.988-.539,3.565,3.565,0,0,1,2.793,1.2,4.6,4.6,0,0,1,1.066,3.18v.1a5.036,5.036,0,0,1-.473,2.215,3.589,3.589,0,0,1-1.352,1.527,3.743,3.743,0,0,1-2.02.547,3.556,3.556,0,0,1-2.785-1.2A4.575,4.575,0,0,1,37.742,36.8Zm1.453.172a3.616,3.616,0,0,0,.652,2.258,2.211,2.211,0,0,0,3.5-.012,3.955,3.955,0,0,0,.648-2.418,3.61,3.61,0,0,0-.66-2.254,2.1,2.1,0,0,0-1.754-.863,2.075,2.075,0,0,0-1.727.852A3.925,3.925,0,0,0,39.2,36.867Zm14.781,2.016,1.969-6.336h1.547l-3.4,9.758q-.789,2.109-2.508,2.109l-.273-.023-.539-.1V43.117l.391.031a1.923,1.923,0,0,0,1.145-.3,2.148,2.148,0,0,0,.676-1.086l.32-.859-3.016-8.359h1.578ZM63.227,41V33.664H61.891V32.547h1.336v-.719a2.937,2.937,0,0,1,.809-2.2,3.136,3.136,0,0,1,2.285-.789,6.881,6.881,0,0,1,2.211.477l-.242,1.219a5.008,5.008,0,0,0-1.859-.391,1.819,1.819,0,0,0-1.34.418,1.723,1.723,0,0,0-.41,1.254v.734h1.727v1.117H64.68V41Zm6.023,0H67.8V32.547H69.25Zm3.719-8.453.047,1.063a3.08,3.08,0,0,1,2.531-1.219q2.68,0,2.7,3.023V41H76.8V35.406a1.946,1.946,0,0,0-.418-1.352,1.675,1.675,0,0,0-1.277-.437,2.086,2.086,0,0,0-1.234.375,2.546,2.546,0,0,0-.828.984V41H71.6V32.547ZM85.648,41a3.036,3.036,0,0,1-.2-.891,3.225,3.225,0,0,1-2.406,1.047,2.984,2.984,0,0,1-2.051-.707,2.288,2.288,0,0,1-.8-1.793,2.39,2.39,0,0,1,1-2.051,4.733,4.733,0,0,1,2.824-.73h1.406v-.664A1.623,1.623,0,0,0,84.969,34a1.821,1.821,0,0,0-1.336-.449,2.107,2.107,0,0,0-1.3.391,1.151,1.151,0,0,0-.523.945H80.359a2,2,0,0,1,.449-1.223,3.066,3.066,0,0,1,1.219-.934,4.1,4.1,0,0,1,1.691-.344,3.342,3.342,0,0,1,2.289.73,2.635,2.635,0,0,1,.859,2.012v3.891a4.757,4.757,0,0,0,.3,1.852V41Zm-2.4-1.1a2.54,2.54,0,0,0,1.289-.352,2.127,2.127,0,0,0,.883-.914V36.9H84.289q-2.656,0-2.656,1.555a1.316,1.316,0,0,0,.453,1.063A1.742,1.742,0,0,0,83.25,39.9Zm7.25-7.352.047,1.063a3.08,3.08,0,0,1,2.531-1.219q2.68,0,2.7,3.023V41H94.336V35.406a1.946,1.946,0,0,0-.418-1.352,1.675,1.675,0,0,0-1.277-.437,2.086,2.086,0,0,0-1.234.375,2.546,2.546,0,0,0-.828.984V41H89.133V32.547Zm10.852,7.43a2.082,2.082,0,0,0,1.352-.469,1.649,1.649,0,0,0,.641-1.172h1.367a2.621,2.621,0,0,1-.5,1.383,3.293,3.293,0,0,1-1.23,1.047,3.55,3.55,0,0,1-1.629.391A3.482,3.482,0,0,1,98.605,40a4.59,4.59,0,0,1-1.02-3.152v-.242a5.089,5.089,0,0,1,.453-2.2,3.451,3.451,0,0,1,1.3-1.492,3.7,3.7,0,0,1,2-.531,3.39,3.39,0,0,1,2.363.852,3.043,3.043,0,0,1,1,2.211h-1.367a1.992,1.992,0,0,0-.621-1.348,1.932,1.932,0,0,0-1.379-.527,2.023,2.023,0,0,0-1.707.793,3.724,3.724,0,0,0-.605,2.293v.273a3.65,3.65,0,0,0,.6,2.25A2.033,2.033,0,0,0,101.352,39.977ZM107.906,41h-1.445V32.547h1.445Zm-1.562-10.7a.863.863,0,0,1,.215-.594.807.807,0,0,1,.637-.242.819.819,0,0,1,.641.242.854.854,0,0,1,.219.594.826.826,0,0,1-.219.586.834.834,0,0,1-.641.234.821.821,0,0,1-.637-.234A.834.834,0,0,1,106.344,30.3Zm7.383,10.852a3.693,3.693,0,0,1-2.8-1.129,4.19,4.19,0,0,1-1.078-3.02v-.266a5.073,5.073,0,0,1,.48-2.246,3.748,3.748,0,0,1,1.344-1.547,3.378,3.378,0,0,1,1.871-.559,3.166,3.166,0,0,1,2.563,1.086,4.7,4.7,0,0,1,.914,3.109v.6H111.3a3,3,0,0,0,.73,2.02,2.3,2.3,0,0,0,1.777.77,2.517,2.517,0,0,0,1.3-.312,3.259,3.259,0,0,0,.93-.828l.883.688A3.55,3.55,0,0,1,113.727,41.156Zm-.18-7.578a1.928,1.928,0,0,0-1.469.637A3.1,3.1,0,0,0,111.344,36h4.234v-.109a2.753,2.753,0,0,0-.594-1.707A1.815,1.815,0,0,0,113.547,33.578Zm9.234.266a4.331,4.331,0,0,0-.711-.055A1.9,1.9,0,0,0,120.141,35v6H118.7V32.547H120.1l.023.977a2.251,2.251,0,0,1,2.016-1.133,1.477,1.477,0,0,1,.641.109Zm.789,2.852a4.993,4.993,0,0,1,.488-2.234,3.643,3.643,0,0,1,1.359-1.531,3.7,3.7,0,0,1,1.988-.539,3.565,3.565,0,0,1,2.793,1.2,4.6,4.6,0,0,1,1.066,3.18v.1a5.036,5.036,0,0,1-.473,2.215,3.589,3.589,0,0,1-1.352,1.527,3.743,3.743,0,0,1-2.02.547,3.556,3.556,0,0,1-2.785-1.2A4.575,4.575,0,0,1,123.57,36.8Zm1.453.172a3.616,3.616,0,0,0,.652,2.258,2.211,2.211,0,0,0,3.5-.012,3.954,3.954,0,0,0,.648-2.418,3.61,3.61,0,0,0-.66-2.254,2.1,2.1,0,0,0-1.754-.863,2.075,2.075,0,0,0-1.727.852A3.925,3.925,0,0,0,125.023,36.867Z" transform="translate(8.035 141)" fill="#12263f"/>
    </g>
    <g id="Grupo_165754" data-name="Grupo 165754" transform="translate(-3511 -11220.475)">
      <g id="Grupo_165086" data-name="Grupo 165086" transform="translate(0 5.983)">
        <path id="Trazado_146771" data-name="Trazado 146771" d="M0,70.556c2.289-2.372,4.552-4.772,6.881-7.1,1.043-1.044,2.346-.939,3.868.153a4.916,4.916,0,0,0,1.831-3.651c.043-1.273.01-2.548.022-3.821a7.3,7.3,0,0,1,2.157-5.273c1.916-1.928,3.829-3.858,5.763-5.767,1.192-1.176,1.914-1.495,4.45-2.1-.907-1.735-.678-3.607-.692-5.451-.014-1.9.009-3.794-.006-5.69a7.224,7.224,0,0,1,2.205-5.333c.817-.824,1.645-1.638,2.457-2.467A5.1,5.1,0,0,0,30.42,19.92l-.489-.094a2.716,2.716,0,0,1-2.379-2.839q-.022-4.077,0-8.153a2.715,2.715,0,0,1,2.9-2.846q11.721-.008,23.441,0a2.684,2.684,0,0,1,2.856,2.879c.01,2.435,0,4.869,0,7.3,0,2.515-.391,3.061-2.728,3.787a5.5,5.5,0,0,0,1.266,4.412,7.486,7.486,0,0,1,1.771,5.089c-.007,4.5-.013,9,.015,13.5a5.435,5.435,0,0,0,.393,1.372c3.835-2.053,6.634-1.632,9.555,1.295q2.16,2.164,4.32,4.328c2.225,2.233,2.42,2.589,3.073,5.571,1.245.031,1.876.484,1.843,1.321s-.716,1.3-1.806,1.189c-.238,2.107.012,4.048,1.8,5.564.137-.1.29-.2.441-.31a2.616,2.616,0,0,1,3.491.209c2.043,2,4.056,4.031,6.058,6.073A6.938,6.938,0,0,1,87,70.726v1.529a12.428,12.428,0,0,1-.967,1.245Q77.826,81.751,69.6,89.979a2.69,2.69,0,0,1-4.233,0q-2.676-2.67-5.343-5.349c-1.508-1.514-1.613-2.583-.438-4.324a5.55,5.55,0,0,0-4.024-2.244A7.29,7.29,0,0,1,50.83,75.85c-1.264-1.259-2.534-2.512-3.795-3.774-.787-.787-.823-1.164-.239-2.157a1.513,1.513,0,0,1,2.048.341c.8.842,1.686,1.6,2.453,2.469,1.495,1.692,3.173,2.981,5.567,2.957a1.47,1.47,0,0,1,.326.089,8.146,8.146,0,0,1,4.11,2.6L74.374,65.353A8.006,8.006,0,0,1,71.841,58.6a10.438,10.438,0,0,0-.027-2.541A6.2,6.2,0,0,0,70.8,53.175c-2.075-2.314-4.3-4.5-6.566-6.632a3.773,3.773,0,0,0-4.707-.264c1.03.995,2.057,1.963,3.057,2.96a1.3,1.3,0,0,1,.145,2.006,1.341,1.341,0,0,1-1.95-.214c-.831-.805-1.657-1.617-2.484-2.426l-1.235-1.3c0,1.646,0,3.057,0,4.467,0,1.441.02,2.883,0,4.324a4.353,4.353,0,0,1-4.936,4.436c-.378-.043-.749-.145-1.208-.236,0,.381,0,.688,0,.994-.008.734.032,1.473-.036,2.2-.288,3.094-2.887,4.672-6.17,3.718l-.219.7c-.628.706-1.134,1.639-1.915,2.06a11.065,11.065,0,0,0-2.556,2.029Q38.121,73.88,36.24,75.78a7.319,7.319,0,0,1-4.779,2.284,5.515,5.515,0,0,0-4.055,2.278c1.159,1.585,1.075,2.784-.289,4.157q-2.781,2.8-5.578,5.583a2.64,2.64,0,0,1-3.985.036C13.906,86.486,10.28,82.83,6.634,79.2a1.4,1.4,0,0,1-.3-1.9c.89-.687,1.353-.654,2.192.184q5.162,5.162,10.319,10.329c.214.214.441.414.539.506l6.134-6.011L8.695,65.558,2.608,71.513a.114.114,0,0,0,.027.043c.6.6,1.195,1.205,1.787,1.813A1.368,1.368,0,0,1,4.6,75.459a1.414,1.414,0,0,1-2.026-.33C1.726,74.165.86,73.213,0,72.255v-1.7M40.247,18.574c.292-1.044.562-1.256,1.685-1.258q5.644-.008,11.289,0h.933V8.606H30.148v8.708c1.709,0,3.371.026,5.032-.01a1.462,1.462,0,0,1,1.7,1.271c-.342,1.065-.633,1.281-1.756,1.289-.691.005-1.382,0-2.064,0-.092.884-.172,1.66-.252,2.435a9.473,9.473,0,0,1-2.839,4.343,11.005,11.005,0,0,0-1.774,1.82,5.978,5.978,0,0,0-1.281,2.68c-.159,3.106-.087,6.225-.054,9.338.015,1.411,1.584,3.484,3.009,3.444.02-.207.058-.422.059-.637.007-1.246-.017-2.492.015-3.737a1.208,1.208,0,0,1,1.106-1.288,1.165,1.165,0,0,1,1.343.794,2.942,2.942,0,0,1,.086,1.006q.006,11.254.007,22.507a4.53,4.53,0,0,0,.095,1.091,1.768,1.768,0,0,0,3.474-.3c.029-.309.022-.622.022-.933q0-10.065,0-20.129c0-.99.491-1.583,1.263-1.6s1.263.574,1.284,1.558c0,.226,0,.453,0,.679q0,11.466,0,22.932c0,1.382.693,2.178,1.832,2.164,1.1-.014,1.762-.791,1.77-2.134.006-1.132-.036-2.264-.036-3.4q-.006-9.852,0-19.7c0-.255-.014-.511.011-.764a1.321,1.321,0,0,1,1.3-1.309,1.286,1.286,0,0,1,1.278,1.312c.022.253.009.509.009.764q0,9.937,0,19.874a7.333,7.333,0,0,0,.012.764,1.765,1.765,0,0,0,3.46.227,5.511,5.511,0,0,0,.092-1.18q.008-10.065,0-20.129c0-.665.108-1.273.814-1.522a1.312,1.312,0,0,1,1.657.662c.026.451.074.9.075,1.353q.009,6.33.006,12.659a6.913,6.913,0,0,0,.047,1.016,1.765,1.765,0,0,0,3.424.248,4.363,4.363,0,0,0,.127-1.172q.01-13,.013-26a5.654,5.654,0,0,0-1.345-3.825A7.207,7.207,0,0,1,51.447,21.1c-.005-.388,0-.777,0-1.237H50.419c-2.832,0-5.664,0-8.5,0-1.075,0-1.394-.261-1.676-1.288M25.314,45.624a4.139,4.139,0,0,0-3.025,1.309q-2.854,2.852-5.7,5.709a4.81,4.81,0,0,0-1.433,3.516c-.005.821-.043,1.645.006,2.463a8.227,8.227,0,0,1-2.522,6.763c-.03.029-.018.1,0,0L25.695,78.4a8.618,8.618,0,0,1,6.076-2.971,4.023,4.023,0,0,0,2.105-.986c1.25-1.1,2.369-2.344,3.541-3.529l.723-.664-2.2-2.989c-3.446,1.019-6.008-.9-6.009-4.676q0-7.13,0-14.259v-1.02l-1.4,1.481c-.783.764-1.56,1.535-2.35,2.291a1.315,1.315,0,0,1-1.942.13,1.278,1.278,0,0,1,.145-1.934c.759-.789,1.53-1.566,2.3-2.349L27.654,46l-2.339-.375m42.1,42.591L84.259,71.451l-5.911-5.985-16.9,16.8,5.965,5.944" transform="translate(0 -5.983)" fill="#040303"/>
        <path id="Trazado_146773" data-name="Trazado 146773" d="M419.856,174.988a1.311,1.311,0,0,1,1.3,1.289,1.276,1.276,0,0,1-2.552.021,1.262,1.262,0,0,1,1.254-1.31" transform="translate(-347.472 -146.27)" fill="#090909"/>
        <path id="Trazado_146774" data-name="Trazado 146774" d="M362.5,103.589a1.276,1.276,0,0,1-2.552.032,1.281,1.281,0,0,1,1.25-1.322,1.331,1.331,0,0,1,1.3,1.29" transform="translate(-298.782 -85.933)" fill="#080808"/>
        <path id="Trazado_146775" data-name="Trazado 146775" d="M384.438,125.864a1.3,1.3,0,0,1-1.3-1.277,1.326,1.326,0,0,1,1.317-1.272,1.283,1.283,0,0,1,1.234,1.254,1.222,1.222,0,0,1-1.249,1.295" transform="translate(-318.034 -103.377)" fill="#080808"/>
        <path id="Trazado_146776" data-name="Trazado 146776" d="M42.925,258.665a1.228,1.228,0,0,1-1.241-1.3,1.277,1.277,0,0,1,1.234-1.249,1.316,1.316,0,0,1,1.3,1.284,1.266,1.266,0,0,1-1.3,1.27" transform="translate(-34.601 -213.609)" fill="#080808"/>
        <path id="Trazado_146777" data-name="Trazado 146777" d="M54.242,198.264a1.3,1.3,0,0,1-1.3,1.28,1.246,1.246,0,0,1-1.244-1.227,1.27,1.27,0,0,1,1.237-1.329,1.3,1.3,0,0,1,1.306,1.276" transform="translate(-42.914 -164.532)" fill="#090909"/>
        <path id="Trazado_146778" data-name="Trazado 146778" d="M80.224,143.685a1.261,1.261,0,0,1,1.312,1.249,1.331,1.331,0,0,1-1.284,1.308,1.31,1.31,0,0,1-1.266-1.23,1.273,1.273,0,0,1,1.238-1.327" transform="translate(-65.563 -120.286)" fill="#090909"/>
        <path id="Trazado_146779" data-name="Trazado 146779" d="M45.847,287.44a1.22,1.22,0,0,1-1.284,1.258,1.265,1.265,0,0,1-1.252-1.229,1.328,1.328,0,0,1,1.264-1.324,1.274,1.274,0,0,1,1.272,1.3" transform="translate(-35.951 -238.539)" fill="#080808"/>
        <path id="Trazado_146780" data-name="Trazado 146780" d="M431.029,206.8a1.228,1.228,0,0,1-1.276-1.272,1.27,1.27,0,0,1,1.282-1.284,1.34,1.34,0,0,1,1.259,1.251,1.282,1.282,0,0,1-1.265,1.305" transform="translate(-356.729 -170.557)" fill="#080808"/>
        <path id="Trazado_146781" data-name="Trazado 146781" d="M50.984,318.292a1.286,1.286,0,0,1-1.239-1.332,1.215,1.215,0,0,1,1.319-1.22A1.275,1.275,0,0,1,52.284,317a1.331,1.331,0,0,1-1.3,1.291" transform="translate(-41.292 -263.104)" fill="#090909"/>
        <path id="Trazado_146782" data-name="Trazado 146782" d="M149.061,86.044a1.271,1.271,0,1,1-2.541-.007,1.271,1.271,0,0,1,2.541.007" transform="translate(-121.623 -71.413)" fill="#070707"/>
        <path id="Trazado_146783" data-name="Trazado 146783" d="M100.91,121.991a1.3,1.3,0,0,1-1.3,1.269A1.324,1.324,0,0,1,98.364,122a1.283,1.283,0,0,1,1.281-1.288,1.223,1.223,0,0,1,1.266,1.277" transform="translate(-81.649 -101.219)" fill="#080808"/>
        <path id="Trazado_146784" data-name="Trazado 146784" d="M46.833,227.425a1.229,1.229,0,0,1-1.285,1.261,1.268,1.268,0,0,1-1.253-1.229,1.332,1.332,0,0,1,1.264-1.328,1.283,1.283,0,0,1,1.274,1.3" transform="translate(-36.768 -188.722)" fill="#080808"/>
        <path id="Trazado_146785" data-name="Trazado 146785" d="M64.475,171.73a1.277,1.277,0,0,1-1.3-1.269,1.351,1.351,0,0,1,1.315-1.283,1.28,1.28,0,0,1,1.234,1.251,1.241,1.241,0,0,1-1.249,1.3" transform="translate(-52.44 -141.447)" fill="#0a0a0a"/>
        <path id="Trazado_146786" data-name="Trazado 146786" d="M439.81,267.633a1.233,1.233,0,0,1-1.253,1.295,1.288,1.288,0,0,1-1.283-1.289,1.319,1.319,0,0,1,1.237-1.263,1.258,1.258,0,0,1,1.3,1.258" transform="translate(-362.971 -222.128)" fill="#070707"/>
        <path id="Trazado_146787" data-name="Trazado 146787" d="M336.19,86.545a1.263,1.263,0,0,1-1.335,1.222,1.232,1.232,0,0,1-1.211-1.25,1.282,1.282,0,0,1,1.275-1.29,1.337,1.337,0,0,1,1.27,1.319" transform="translate(-276.951 -71.761)" fill="#080808"/>
        <path id="Trazado_146788" data-name="Trazado 146788" d="M122.307,103.456a1.308,1.308,0,0,1-1.276-1.31,1.286,1.286,0,0,1,1.33-1.243,1.249,1.249,0,0,1,1.223,1.249,1.3,1.3,0,0,1-1.277,1.3" transform="translate(-100.464 -84.773)" fill="#080808"/>
        <path id="Trazado_146789" data-name="Trazado 146789" d="M404.266,147.848a1.283,1.283,0,0,1,1.244,1.326,1.275,1.275,0,0,1-2.549-.075,1.25,1.25,0,0,1,1.305-1.251" transform="translate(-334.489 -123.742)" fill="#0a0a0a"/>
        <path id="Trazado_146790" data-name="Trazado 146790" d="M437.217,235.032a1.277,1.277,0,0,1,.111,2.552,1.277,1.277,0,1,1-.111-2.552" transform="translate(-361.9 -196.111)" fill="#070707"/>
        <path id="Trazado_146791" data-name="Trazado 146791" d="M181.811,121.176a1.312,1.312,0,0,0-1.657-.662c-.706.25-.814.858-.814,1.523q.008,10.065,0,20.129a5.513,5.513,0,0,1-.092,1.18,1.765,1.765,0,0,1-3.46-.227,7.33,7.33,0,0,1-.012-.764q0-9.937,0-19.874c0-.255.013-.511-.009-.764a1.286,1.286,0,0,0-1.278-1.311,1.32,1.32,0,0,0-1.3,1.309c-.025.253-.011.509-.012.764q0,9.852,0,19.7c0,1.132.043,2.264.036,3.4-.008,1.343-.668,2.121-1.77,2.134-1.139.014-1.831-.782-1.832-2.164q-.009-11.466,0-22.932c0-.227,0-.453,0-.68-.021-.984-.509-1.575-1.284-1.558s-1.262.61-1.263,1.6q-.009,10.065,0,20.129c0,.311.007.624-.022.933a1.768,1.768,0,0,1-3.474.3,4.53,4.53,0,0,1-.095-1.091q-.008-11.254-.007-22.507a2.942,2.942,0,0,0-.086-1.006,1.165,1.165,0,0,0-1.343-.794,1.208,1.208,0,0,0-1.106,1.288c-.032,1.245-.008,2.491-.015,3.737,0,.215-.039.43-.059.637-1.426.04-2.994-2.033-3.009-3.444-.033-3.113-.106-6.233.054-9.338a5.977,5.977,0,0,1,1.281-2.68,11.011,11.011,0,0,1,1.774-1.82,9.473,9.473,0,0,0,2.839-4.343c2.981.129,5.97-.247,8.947.314,5.11.963,9.336,5.976,9.23,11.042-.048,2.317,0,4.635-.015,6.953a5.626,5.626,0,0,1-.144.89" transform="translate(-130.986 -85.661)" fill="#fbdcc3"/>
        <path id="Trazado_146792" data-name="Trazado 146792" d="M270.069,263.349l-1.09-1.06.763,0a5.74,5.74,0,0,0,5.664-4.834,14.327,14.327,0,0,0,.015-2.072c.306-.032.445-.052.584-.061a5.717,5.717,0,0,0,5.574-5.911c-.1-2.454-.013-4.915-.009-7.373.828.809,1.653,1.621,2.485,2.426a1.341,1.341,0,0,0,1.95.214,1.3,1.3,0,0,0-.144-2.006c-1-1-2.027-1.965-3.057-2.96a3.773,3.773,0,0,1,4.707.264c2.267,2.13,4.492,4.318,6.566,6.632a6.2,6.2,0,0,1,1.012,2.881,10.429,10.429,0,0,1,.027,2.54,8.005,8.005,0,0,0,2.533,6.756L284.573,271.8a8.147,8.147,0,0,0-4.11-2.6,1.481,1.481,0,0,0-.326-.089c-2.394.024-4.073-1.265-5.567-2.957-.767-.868-1.655-1.627-2.453-2.469a1.514,1.514,0,0,0-2.048-.341" transform="translate(-223.274 -199.414)" fill="#fccaa9"/>
        <path id="Trazado_146793" data-name="Trazado 146793" d="M99.06,264.559c-1.172,1.186-2.291,2.433-3.541,3.529a4.024,4.024,0,0,1-2.105.986,8.618,8.618,0,0,0-6.076,2.971L74.277,259.031c-.014.1-.027.028,0,0a8.226,8.226,0,0,0,2.521-6.763c-.049-.818-.012-1.642-.006-2.463a4.81,4.81,0,0,1,1.433-3.516q2.856-2.85,5.7-5.708a4.139,4.139,0,0,1,3.025-1.309l1.361,1.3c-.766.782-1.537,1.56-2.3,2.349a1.278,1.278,0,0,0-.145,1.934,1.315,1.315,0,0,0,1.942-.129c.79-.757,1.567-1.527,2.35-2.291a5.152,5.152,0,0,1,.182.955c.012,4.574.006,9.147.015,13.721a3.912,3.912,0,0,0,.132,1.079,5.581,5.581,0,0,0,5.813,4.3,1.389,1.389,0,0,1,1.247.644,12.834,12.834,0,0,0,1.5,1.428" transform="translate(-61.643 -199.629)" fill="#fccaa9"/>
        <path id="Trazado_146794" data-name="Trazado 146794" d="M184.153,31.387a1.462,1.462,0,0,0-1.7-1.271c-1.661.037-3.323.01-5.032.01V21.419h24.005v8.708h-.933q-5.644,0-11.289,0c-1.123,0-1.393.214-1.685,1.258h-3.366M181.571,27.1a1.418,1.418,0,0,0,1.355-1.353,1.362,1.362,0,0,0-1.413-1.356,1.316,1.316,0,0,0-1.29,1.373,1.359,1.359,0,0,0,1.348,1.335" transform="translate(-147.272 -18.796)" fill="#d2e1f1"/>
        <path id="Trazado_146795" data-name="Trazado 146795" d="M19.074,368.323l-1.734-1.838a1.369,1.369,0,0,0-.182-2.091c-.592-.608-1.191-1.209-1.787-1.813a.115.115,0,0,1-.027-.043l6.087-5.955,16.826,16.749-6.134,6.011c-.1-.092-.325-.292-.539-.506q-5.16-5.164-10.319-10.329c-.839-.839-1.3-.871-2.192-.184m14.9,5.314a1.354,1.354,0,0,0-2.708.041,1.354,1.354,0,1,0,2.708-.041" transform="translate(-12.737 -297.008)" fill="#a3314f"/>
        <path id="Trazado_146796" data-name="Trazado 146796" d="M367.605,378.791l-5.965-5.944,16.9-16.8,5.911,5.986-16.843,16.763m11.311-18.539a1.342,1.342,0,0,0-1.341,1.353,1.4,1.4,0,0,0,1.369,1.353,1.359,1.359,0,0,0,1.324-1.38,1.307,1.307,0,0,0-1.351-1.326" transform="translate(-300.189 -296.559)" fill="#ced371"/>
        <path id="Trazado_146797" data-name="Trazado 146797" d="M197.147,80.082h3.366c.283,1.027.6,1.285,1.676,1.288,2.832.007,5.664,0,8.5,0h1.027c0,.46,0,.848,0,1.237a7.209,7.209,0,0,0,1.728,4.678,5.653,5.653,0,0,1,1.345,3.825q-.025,13-.013,26a4.37,4.37,0,0,1-.127,1.172,1.765,1.765,0,0,1-3.424-.248,6.89,6.89,0,0,1-.047-1.016q0-6.33-.006-12.659c0-.451-.049-.9-.075-1.353a5.627,5.627,0,0,0,.144-.89c.012-2.318-.033-4.636.015-6.953.106-5.066-4.121-10.078-9.23-11.042-2.977-.561-5.967-.185-8.947-.314l.252-2.435c.682,0,1.373,0,2.064,0,1.124-.008,1.415-.224,1.757-1.289" transform="translate(-160.267 -67.491)" fill="#fbc8a8"/>
        <path id="Trazado_146798" data-name="Trazado 146798" d="M275.616,250.439c0,2.458-.092,4.92.009,7.373a5.717,5.717,0,0,1-5.574,5.911c-.139.009-.278.029-.584.061a14.33,14.33,0,0,1-.015,2.072,5.74,5.74,0,0,1-5.664,4.834l-.763,0-1.219-.954.219-.7c3.282.954,5.882-.624,6.17-3.718.068-.729.028-1.468.036-2.2,0-.306,0-.612,0-.994.459.091.83.193,1.208.236a4.353,4.353,0,0,0,4.936-4.436c.025-1.441,0-2.883,0-4.324v-4.467l1.234,1.3" transform="translate(-217.32 -207.818)" fill="#fbac83"/>
        <path id="Trazado_146799" data-name="Trazado 146799" d="M176.762,272.773a12.833,12.833,0,0,1-1.5-1.429,1.389,1.389,0,0,0-1.247-.644,5.581,5.581,0,0,1-5.813-4.3,3.913,3.913,0,0,1-.132-1.079c-.009-4.574,0-9.147-.015-13.721a5.152,5.152,0,0,0-.182-.955l1.4-1.482v1.02q0,7.13,0,14.259c0,3.777,2.564,5.694,6.009,4.676l2.2,2.989-.723.664" transform="translate(-139.345 -207.843)" fill="#fcac84"/>
        <path id="Trazado_146800" data-name="Trazado 146800" d="M150.339,240.571l-1.361-1.3,2.339.375-.978.925" transform="translate(-123.663 -199.629)" fill="#e59e7a"/>
        <path id="Trazado_146801" data-name="Trazado 146801" d="M321.246,442.213a1.315,1.315,0,0,1-1.267,1.316,1.274,1.274,0,0,1-.077-2.546,1.289,1.289,0,0,1,1.344,1.23" transform="translate(-264.544 -367.066)" fill="#090909"/>
        <path id="Trazado_146802" data-name="Trazado 146802" d="M292.853,452.183a1.285,1.285,0,0,1-1.316,1.255,1.336,1.336,0,0,1-1.235-1.27,1.276,1.276,0,0,1,1.295-1.274,1.229,1.229,0,0,1,1.256,1.289" transform="translate(-240.974 -375.294)" fill="#090909"/>
        <path id="Trazado_146803" data-name="Trazado 146803" d="M233.619,458.438a1.241,1.241,0,0,1-1.27,1.279,1.285,1.285,0,0,1-1.278-1.2,1.309,1.309,0,0,1,1.242-1.339,1.285,1.285,0,0,1,1.306,1.263" transform="translate(-191.806 -380.507)" fill="#0a0a0a"/>
        <path id="Trazado_146804" data-name="Trazado 146804" d="M175.226,447.105a1.316,1.316,0,0,1-1.257,1.323,1.287,1.287,0,0,1-1.277-1.2,1.225,1.225,0,0,1,1.195-1.341,1.273,1.273,0,0,1,1.34,1.222" transform="translate(-143.345 -371.134)" fill="#080808"/>
        <path id="Trazado_146805" data-name="Trazado 146805" d="M262.264,456.177a1.312,1.312,0,0,1,1.276,1.307,1.276,1.276,0,0,1-2.551,0,1.3,1.3,0,0,1,1.275-1.3" transform="translate(-216.642 -379.679)" fill="#080808"/>
        <path id="Trazado_146806" data-name="Trazado 146806" d="M202.693,453.849a1.222,1.222,0,0,1,1.183,1.355,1.28,1.28,0,0,1-1.3,1.183,1.331,1.331,0,0,1-1.248-1.342,1.264,1.264,0,0,1,1.362-1.2" transform="translate(-167.119 -377.745)" fill="#080808"/>
        <path id="Trazado_146807" data-name="Trazado 146807" d="M195.264,41.607a1.359,1.359,0,0,1-1.348-1.335,1.316,1.316,0,0,1,1.29-1.373,1.362,1.362,0,0,1,1.413,1.356,1.418,1.418,0,0,1-1.355,1.353" transform="translate(-160.965 -33.304)" fill="#040708"/>
        <path id="Trazado_146808" data-name="Trazado 146808" d="M111.735,450.485a1.354,1.354,0,1,1-2.708.041,1.354,1.354,0,0,1,2.708-.041" transform="translate(-90.501 -373.856)" fill="#080405"/>
        <path id="Trazado_146809" data-name="Trazado 146809" d="M456.757,380.814a1.307,1.307,0,0,1,1.351,1.326,1.359,1.359,0,0,1-1.324,1.38,1.4,1.4,0,0,1-1.369-1.353,1.342,1.342,0,0,1,1.341-1.353" transform="translate(-378.03 -317.122)" fill="#080703"/>
      </g>
    </g>
  </g>
</svg>
