<svg xmlns="http://www.w3.org/2000/svg" xmlns:xlink="http://www.w3.org/1999/xlink" width="220" height="220" viewBox="0 0 220 220">
  <defs>
    <filter id="Elipse_4751" x="0" y="0" width="220" height="220" filterUnits="userSpaceOnUse">
      <feOffset dy="6" input="SourceAlpha"/>
      <feGaussianBlur stdDeviation="5" result="blur"/>
      <feFlood flood-opacity="0.329"/>
      <feComposite operator="in" in2="blur"/>
      <feComposite in="SourceGraphic"/>
    </filter>
  </defs>
  <g id="Grupo_166660" data-name="Grupo 166660" transform="translate(-848 -1924)">
    <g transform="matrix(1, 0, 0, 1, 848, 1924)" filter="url(#Elipse_4751)">
      <circle id="Elipse_4751-2" data-name="Elipse 4751" cx="95" cy="95" r="95" transform="translate(15 9)" fill="#ffb500"/>
    </g>
    <g id="Grupo_80213" data-name="Grupo 80213" transform="translate(904 1968.947)">
      <g id="Grupo_80210" data-name="Grupo 80210">
        <g id="Grupo_80214" data-name="Grupo 80214">
          <g id="Grupo_80208" data-name="Grupo 80208">
            <g id="Grupo_80215" data-name="Grupo 80215">
              <path id="Trazado_146167" data-name="Trazado 146167" d="M80.036,47.4c-1.24-.739-1.467-1.19-1.046-2.535.625-2,1.322-3.975,2.035-6.1-1.965-1.578-2.848-4.161-3.878-6.587a6.4,6.4,0,0,1-.08-3.568c.583-2.8,5.614-5.263,8.247-4.306a5.457,5.457,0,0,1,3.161,2.516c1,1.887,1.932,3.812,2.944,5.822.441-.231,1-.514,1.55-.812,3.838-2.079,7.664-4.182,11.521-6.225A1.541,1.541,0,0,0,105.416,24c-.03-7.141,0-14.283-.032-21.424A2.78,2.78,0,0,1,106.476,0h1.384l1.454,2.613h.978q9.457,0,18.914,0c1.582,0,2.458.511,2.881,1.635s.11,2.049-1.1,3.118c-1.517,1.345-3.042,2.68-4.616,4.064,1.562,1.376,3.069,2.686,4.552,4.021a4.648,4.648,0,0,1,1.056,1.2c.911,1.741-.414,3.6-2.581,3.6-6.42.018-12.84.006-19.26.006h-1.277c0,.622.014,1.078,0,1.534-.03.836-.171,1.653,1.007,1.948.341.085.657.731.774,1.176a10.748,10.748,0,0,1-1.208,8.2,4.182,4.182,0,0,0-.546,1.916c-.035,9.264-.024,18.528-.024,27.792v1.193a2.208,2.208,0,0,0,.361.09c3.152,0,6.3,0,9.457.012a9.059,9.059,0,0,1,1.834.124c3,.637,4.728,2.951,4.73,6.317q.01,21.392,0,42.783v1.3c1.547,0,2.966-.025,4.384.007a1.644,1.644,0,0,1,1.757,2.105,5.3,5.3,0,0,1-.922,1.347H27.118c-.783-.563-1.435-1.212-1.052-2.283.376-1.051,1.252-1.219,2.248-1.187,1.146.038,2.294.009,3.538.009,0-1.915-.006-3.747,0-5.579.018-4.152,2.369-6.513,6.492-6.518,3.92,0,7.84-.019,11.759.009,1.37.01,2.739.133,4.233.211,0-1.373-.006-2.887,0-4.4a5.888,5.888,0,0,1,6.121-6.194c1.537-.029,3.076.035,4.61-.035a1.4,1.4,0,0,0,1.02-.634q3.654-7.551,7.212-15.146a3.638,3.638,0,0,0,.3-1.33c.217-4.1.239-8.229.672-12.31a55.451,55.451,0,0,1,1.758-7.473c.251-1,.559-1.992.854-2.983.412-1.388.88-1.714,2.321-1.645a1.919,1.919,0,0,1,1.007,2.575c-.315.932-.5,1.907-.744,2.864l-.826,2.63c2.63-1.08,5-2.044,7.364-3.036a1.191,1.191,0,0,0,.643-.563c.939-2.729,1.84-5.472,2.718-8.112l-1.823-.581c-.8-1.265-.691-2.093.366-2.836.277-.194.551-.391.826-.587l.3-.161.042-.021c.955-.565,1.916-1.121,2.865-1.7q5.947-3.6,11.885-7.221a7.26,7.26,0,0,0,3.652-5.986l-2.865,1.63c-5.395,2.911-10.806,5.791-16.178,8.743-4.69,2.577-4.37,1.48-6.157,7.557-.391,1.33-.844,1.638-2.246,1.59m5.645,12.149c-2.538,1.041-4.827,2.019-7.15,2.907a1.251,1.251,0,0,0-.906,1.354c-.144,3.606-.276,7.215-.558,10.811a11.834,11.834,0,0,1-.963,3.862c-1.874,4.163-3.886,8.265-5.842,12.391-.169.357-.311.727-.465,1.091l.3.267a5.789,5.789,0,0,0,1.1-.883c3.115-4.1,6.116-8.282,9.334-12.295A12.641,12.641,0,0,0,83.417,72.2c.068-.684.239-1.358.361-2.037.616-3.43,1.231-6.86,1.745-10.5l-.04.084c.03,0,.066.008.088-.005s.015-.049.021-.075c-.023,0-.046,0,.089-.113m15.487,37.823c-1.48-.317-1.846-.758-1.85-2.276-.006-2.5,0-4.994,0-7.491,0-2.25-.885-3.136-3.132-3.139q-6.281-.007-12.563,0c-2.539,0-3.309.763-3.31,3.29q0,12.792,0,25.584c0,.406.036.812.056,1.247H99.316v-1.175c0-2.881,0-5.762,0-8.643,0-1.531.331-1.923,1.849-2.274a1.959,1.959,0,0,1,1.623,2.285c-.044.766-.008,1.537-.008,2.306v7.494h18.924c.023-.317.057-.576.057-.836q0-21.682,0-43.363c0-1.92-.908-2.791-2.859-2.8q-6.459-.015-12.918,0c-2.4,0-3.2.795-3.2,3.167q0,12.167.011,24.334a2.012,2.012,0,0,1-1.626,2.289M76.737,114.585a4.089,4.089,0,0,0,.065-.49c0-5.261.02-10.522-.005-15.783-.009-1.793-.909-2.655-2.74-2.664q-6.682-.033-13.365,0c-2.046.007-2.887.9-2.888,3q-.006,7.488,0,14.977c0,.329.039.657.058.964Zm20.586-33.61,1.994.474c0-3.718-.006-7.328.006-10.937a7.214,7.214,0,0,1,.137-1.714c.76-3.034,2.846-4.483,5.843-4.747V37.042c-3.728,2.259-7.334,4.431-10.917,6.641a1.789,1.789,0,0,0-.578.933c-1.22,3.63-2.4,7.271-3.632,10.9a1.381,1.381,0,0,0,.313,1.532q3.468,4.081,6.851,8.235a5.917,5.917,0,0,1,1.33,4.726c-.482,3.609-.891,7.227-1.345,10.967m11.6-64.266H127.1c-1.252-1.109-2.343-2.071-3.428-3.04-1.7-1.521-1.715-2.931-.03-4.446,1.1-.986,2.2-1.96,3.467-3.081H108.922ZM54.328,114.588c0-2.127.043-4.195-.016-6.259a2.242,2.242,0,0,0-2.287-2.278q-7.2-.066-14.405,0a2.149,2.149,0,0,0-2.243,2.174c-.073,2.1-.02,4.206-.02,6.363ZM89.037,60.649c-.306,1.7-.575,3.082-.8,4.467-.323,2.026-.32,2.049,1.484,3.109a3.912,3.912,0,0,1,1.94,2.975c.145.985.181,1.985.281,2.977.225,2.241.46,4.48.685,6.674,1.181.418,1.27-.318,1.358-1.026.392-3.157.787-6.313,1.158-9.473a3.644,3.644,0,0,0-.6-3.054c-1.791-2.1-3.527-4.249-5.51-6.65M87.773,33.254a5.043,5.043,0,0,0-.271-.8c-.613-1.234-1.226-2.469-1.885-3.68a1.989,1.989,0,0,0-2.91-.921,14.784,14.784,0,0,0-1.327.682,1.963,1.963,0,0,0-.9,2.824c.578,1.208,1.221,2.385,1.826,3.58a2.043,2.043,0,0,0,2.445,1.242c1.689-.378,2.967-1.515,3.024-2.626,0-.038,0-.077,0-.307M89.127,80.96c-.3-3.077-.562-6.054-.912-9.02-.05-.421-.528-.791-.808-1.185-.914,3.706-1.031,7.426-4.186,10.2ZM76.782,92.618v-2.94l-1.82,2.482,1.82.458" transform="translate(-25.953)" fill="#030303"/>
              <path id="Trazado_146169" data-name="Trazado 146169" d="M257.654,145.829c1.4.047,1.855-.26,2.246-1.59,1.787-6.078,1.467-4.98,6.157-7.557,5.372-2.951,10.784-5.831,16.178-8.743-.013.221.063.535-.054.647a21.738,21.738,0,0,1-3.036,2.718c-3.5,2.241-7.086,4.344-10.629,6.516a3.382,3.382,0,0,0-1.819,3.393l-.043.021-.3.162c-.275.2-.55.393-.826.587-1.057.743-1.164,1.571-.366,2.836a40.07,40.07,0,0,1-3.421,5.9c-1.236,1.512-3.08,2.527-4.655,3.761.243-.956.429-1.932.744-2.864a1.919,1.919,0,0,0-1.007-2.575l.827-3.213" transform="translate(-203.571 -98.427)" fill="#81d6fb"/>
              <path id="Trazado_146170" data-name="Trazado 146170" d="M352.021,322.761a2.012,2.012,0,0,0,1.626-2.289q-.034-12.167-.011-24.334c0-2.372.8-3.165,3.2-3.167q6.459,0,12.918,0c1.951,0,2.858.875,2.859,2.8q.014,21.682,0,43.363c0,.26-.035.519-.057.836H353.636v-7.494c0-.769-.036-1.54.008-2.306a1.959,1.959,0,0,0-1.623-2.285q0-2.561,0-5.122" transform="translate(-276.806 -225.387)" fill="#6189a9"/>
              <path id="Trazado_146171" data-name="Trazado 146171" d="M282.457,379.078q0,2.561,0,5.122c-1.518.351-1.846.744-1.849,2.274-.006,2.881,0,5.762,0,8.643v1.175H261.658c-.02-.434-.056-.841-.056-1.247q0-12.792,0-25.584c0-2.527.771-3.289,3.31-3.29q6.281,0,12.563,0c2.247,0,3.129.889,3.132,3.139,0,2.5,0,4.994,0,7.491,0,1.518.37,1.959,1.85,2.276" transform="translate(-207.242 -281.705)" fill="#6b94b1"/>
              <path id="Trazado_146172" data-name="Trazado 146172" d="M182.956,433.531H164.081c-.019-.307-.058-.636-.058-.964q-.006-7.488,0-14.977c0-2.1.842-2.991,2.888-3q6.682-.024,13.365,0c1.832.009,2.732.872,2.74,2.664.026,5.26.009,10.522.005,15.783a4.03,4.03,0,0,1-.065.49" transform="translate(-132.171 -318.946)" fill="#88b3c8"/>
              <path id="Trazado_146174" data-name="Trazado 146174" d="M385.637,37.191V26.624h18.192c-1.262,1.121-2.37,2.1-3.467,3.082-1.685,1.515-1.674,2.925.03,4.446,1.085.969,2.177,1.931,3.428,3.04Z" transform="translate(-302.668 -20.483)" fill="#f6b156"/>
              <path id="Trazado_146175" data-name="Trazado 146175" d="M85.635,468.173H66.664c0-2.157-.053-4.263.02-6.363a2.149,2.149,0,0,1,2.242-2.174q7.2-.064,14.405,0a2.242,2.242,0,0,1,2.287,2.278c.059,2.064.016,4.132.016,6.259" transform="translate(-57.259 -353.586)" fill="#a6c6d2"/>
              <path id="Trazado_146176" data-name="Trazado 146176" d="M231.9,258.162c-.672,3.749-1.287,7.179-1.9,10.609-.122.679-.294,1.353-.361,2.038a12.642,12.642,0,0,1-2.895,6.859c-3.218,4.013-6.219,8.2-9.334,12.295a5.778,5.778,0,0,1-1.1.883l-.3-.267c.154-.364.3-.734.465-1.091,1.956-4.126,3.969-8.227,5.842-12.391a11.833,11.833,0,0,0,.963-3.862c.282-3.6.415-7.205.558-10.811a1.252,1.252,0,0,1,.906-1.354c2.323-.888,4.612-1.866,7.15-2.907" transform="translate(-172.176 -198.611)" fill="#4e7490"/>
              <path id="Trazado_146177" data-name="Trazado 146177" d="M296.233,262.922c1.983,2.4,3.72,4.547,5.51,6.649a3.644,3.644,0,0,1,.6,3.054c-.371,3.159-.765,6.316-1.158,9.472-.088.708-.177,1.445-1.358,1.026-.226-2.194-.46-4.434-.685-6.674-.1-.992-.136-1.992-.281-2.977a3.913,3.913,0,0,0-1.94-2.975c-1.8-1.06-1.807-1.083-1.484-3.109.221-1.385.49-2.763.8-4.467" transform="translate(-233.149 -202.273)" fill="#376079"/>
              <path id="Trazado_146178" data-name="Trazado 146178" d="M268.7,125.194c0,.23,0,.269,0,.307-.058,1.111-1.335,2.248-3.024,2.626a2.043,2.043,0,0,1-2.445-1.242c-.605-1.2-1.248-2.372-1.826-3.581a1.963,1.963,0,0,1,.9-2.824,14.812,14.812,0,0,1,1.327-.682,1.989,1.989,0,0,1,2.911.921c.658,1.21,1.272,2.445,1.885,3.68a5.008,5.008,0,0,1,.271.8" transform="translate(-206.876 -91.94)" fill="#f9c7a6"/>
              <path id="Trazado_146179" data-name="Trazado 146179" d="M299.55,135.776a3.382,3.382,0,0,1,1.819-3.393c3.543-2.172,7.131-4.275,10.629-6.516a21.741,21.741,0,0,0,3.036-2.718c.117-.111.041-.426.054-.646l2.866-1.63a7.26,7.26,0,0,1-3.652,5.986q-5.93,3.631-11.885,7.221c-.949.575-1.91,1.131-2.865,1.7" transform="translate(-236.423 -92.991)" fill="#5ec5e9"/>
              <path id="Trazado_146180" data-name="Trazado 146180" d="M255.213,210.774c1.575-1.234,3.419-2.249,4.655-3.761a40.084,40.084,0,0,0,3.421-5.9l1.823.581c-.878,2.641-1.779,5.383-2.718,8.112a1.192,1.192,0,0,1-.643.563c-2.361.991-4.733,1.956-7.364,3.036l.826-2.63" transform="translate(-201.693 -154.721)" fill="#5dc5e8"/>
              <path id="Trazado_146182" data-name="Trazado 146182" d="M240.234,391.709l-1.82-.458,1.82-2.482Z" transform="translate(-189.405 -299.091)" fill="#dadada"/>
              <path id="Trazado_146183" data-name="Trazado 146183" d="M298.146,185.733l.3-.162-.3.162" transform="translate(-235.358 -142.765)" fill="#5ec5e9"/>
              <path id="Trazado_146184" data-name="Trazado 146184" d="M284.067,258.634l.069,0c-.006.026-.005.065-.021.075s-.058,0-.088.005l.04-.084" transform="translate(-224.496 -198.974)" fill="#4e7490"/>
            </g>
          </g>
        </g>
      </g>
    </g>
  </g>
</svg>
